<svg width="582" height="123" viewBox="0 0 582 123" fill="none" xmlns="http://www.w3.org/2000/svg">
<path d="M580.433 0.494233L576.494 1.56666L577.567 5.50577L581.506 4.43334L580.433 0.494233ZM299 69L299.127 68.5165L299.116 68.5136L299.105 68.5112L299 69ZM2.07558 122.235L5.73474 120.424L3.92442 116.765L0.265263 118.576L2.07558 122.235ZM3.47367 119.66C3.58142 119.341 3.69131 119.024 3.80332 118.708L2.86081 118.374C2.74715 118.694 2.63565 119.016 2.52633 119.34L3.47367 119.66ZM4.50076 116.83C4.74167 116.209 4.99097 115.595 5.24856 114.986L4.32753 114.596C4.06608 115.214 3.81306 115.838 3.56857 116.468L4.50076 116.83ZM6.04609 113.175C6.32197 112.573 6.60614 111.977 6.89851 111.386L6.00229 110.943C5.70552 111.542 5.41706 112.147 5.13703 112.758L6.04609 113.175ZM7.81119 109.61C8.12374 109.024 8.44456 108.443 8.77357 107.868L7.90559 107.371C7.57165 107.955 7.24599 108.545 6.92873 109.14L7.81119 109.61ZM9.78499 106.16C10.1307 105.595 10.4845 105.036 10.8463 104.483L10.0093 103.936C9.64211 104.497 9.28305 105.065 8.93218 105.638L9.78499 106.16ZM11.9593 102.834C12.3382 102.29 12.7251 101.751 13.1198 101.218L12.3161 100.623C11.9157 101.164 11.5232 101.71 11.1386 102.262L11.9593 102.834ZM14.3273 99.6348C14.7368 99.1135 15.1541 98.5976 15.5789 98.0871L14.8102 97.4475C14.3794 97.9651 13.9563 98.4883 13.5409 99.017L14.3273 99.6348ZM16.8683 96.5803C17.3056 96.0833 17.7502 95.5915 18.2021 95.105L17.4695 94.4244C17.0115 94.9175 16.5608 95.4159 16.1175 95.9197L16.8683 96.5803ZM19.5797 93.6611C20.0448 93.1862 20.5172 92.7165 20.9965 92.2519L20.3005 91.5338C19.815 92.0044 19.3366 92.4802 18.8653 92.9613L19.5797 93.6611ZM22.434 90.8932C22.92 90.4452 23.4127 90.0021 23.912 89.5639L23.2524 88.8123C22.747 89.2558 22.2483 89.7043 21.7562 90.1579L22.434 90.8932ZM25.4297 88.264C25.9422 87.8355 26.4612 87.4119 26.9866 86.9931L26.3633 86.2111C25.8318 86.6347 25.3068 87.0633 24.7883 87.4968L25.4297 88.264ZM28.5433 85.7804C29.0683 85.3808 29.5992 84.9856 30.1362 84.595L29.5478 83.7864C29.0051 84.1812 28.4683 84.5807 27.9376 84.9848L28.5433 85.7804ZM31.7646 83.4365C32.3133 83.0549 32.8678 82.6776 33.4281 82.3048L32.8741 81.4723C32.3082 81.8489 31.748 82.23 31.1935 82.6156L31.7646 83.4365ZM35.0897 81.2228C35.6448 80.869 36.2053 80.5193 36.771 80.1737L36.2497 79.3204C35.6786 79.6692 35.1128 80.0222 34.5522 80.3795L35.0897 81.2228ZM38.4838 79.1493C39.0599 78.8119 39.6412 78.4786 40.2276 78.1493L39.7379 77.2774C39.1464 77.6096 38.5599 77.9459 37.9785 78.2864L38.4838 79.1493ZM41.9816 77.1843C42.5595 76.8729 43.1421 76.5652 43.7293 76.2613L43.2696 75.3732C42.6775 75.6796 42.09 75.9899 41.5072 76.304L41.9816 77.1843ZM45.5045 75.3606C46.1008 75.0641 46.7016 74.7712 47.3068 74.4821L46.8758 73.5798C46.2658 73.8712 45.6603 74.1663 45.0592 74.4652L45.5045 75.3606ZM49.1358 73.6256C49.7335 73.3512 50.3353 73.0804 50.9411 72.8129L50.5372 71.8981C49.927 72.1675 49.3208 72.4404 48.7186 72.7168L49.1358 73.6256ZM52.7615 72.0246C53.3723 71.7652 53.987 71.5091 54.6055 71.2564L54.2273 70.3307C53.6046 70.5851 52.9856 70.8429 52.3706 71.1041L52.7615 72.0246ZM56.4728 70.5082C57.0955 70.2634 57.722 70.022 58.3521 69.7837L57.9985 68.8483C57.3643 69.0881 56.7338 69.3311 56.107 69.5775L56.4728 70.5082ZM60.2047 69.0965C60.8256 68.8704 61.45 68.6474 62.0778 68.4275L61.747 67.4837C61.1156 67.705 60.4874 67.9294 59.8626 68.1568L60.2047 69.0965ZM63.971 67.7766C64.6053 67.5626 65.243 67.3516 65.8839 67.1436L65.5752 66.1925C64.9307 66.4016 64.2894 66.6138 63.6514 66.829L63.971 67.7766ZM67.7952 66.535C68.4233 66.3388 69.0543 66.1454 69.6882 65.9547L69.4002 64.9971C68.7629 65.1888 68.1285 65.3832 67.497 65.5805L67.7952 66.535ZM71.5987 65.3909C72.2384 65.2057 72.8809 65.0232 73.5263 64.8434L73.2579 63.8801C72.6094 64.0608 71.9636 64.2442 71.3206 64.4303L71.5987 65.3909ZM75.4705 64.3121C76.1142 64.1396 76.7604 63.9697 77.4093 63.8025L77.1597 62.8341C76.5077 63.0022 75.8584 63.1729 75.2117 63.3462L75.4705 64.3121ZM79.3311 63.3164C79.9742 63.1569 80.6198 62.9999 81.2677 62.8453L81.0357 61.8726C80.3848 62.0279 79.7364 62.1856 79.0904 62.3459L79.3311 63.3164ZM83.2187 62.389C83.8714 62.2393 84.5264 62.0921 85.1838 61.9473L84.9686 60.9707C84.3085 61.1161 83.6507 61.264 82.9952 61.4143L83.2187 62.389ZM87.1476 61.5232C87.7929 61.3867 88.4403 61.2524 89.0897 61.1205L88.8906 60.1405C88.2385 60.273 87.5885 60.4078 86.9406 60.5449L87.1476 61.5232ZM91.0443 60.7312C91.6978 60.6037 92.3534 60.4784 93.0109 60.3554L92.8269 59.3725C92.1669 59.496 91.5089 59.6217 90.8528 59.7497L91.0443 60.7312ZM94.9893 59.9928C95.6497 59.8744 96.312 59.7581 96.9762 59.644L96.8069 58.6584C96.1403 58.773 95.4756 58.8897 94.8128 59.0086L94.9893 59.9928ZM98.9326 59.315C99.5864 59.2074 100.242 59.1019 100.899 58.9984L100.744 58.0105C100.084 58.1144 99.4264 58.2203 98.7702 58.3283L98.9326 59.315ZM102.876 58.6939C103.537 58.5945 104.199 58.4971 104.863 58.4016L104.72 57.4118C104.054 57.5076 103.39 57.6053 102.727 57.7051L102.876 58.6939ZM106.859 58.1214C107.517 58.0312 108.176 57.9429 108.836 57.8566L108.707 56.865C108.044 56.9516 107.383 57.0402 106.723 57.1306L106.859 58.1214ZM110.811 57.6046C111.471 57.5225 112.132 57.4423 112.795 57.3639L112.677 56.3708C112.013 56.4495 111.35 56.5299 110.688 56.6123L110.811 57.6046ZM114.786 57.1343C115.451 57.0596 116.118 56.9867 116.785 56.9157L116.679 55.9213C116.01 55.9925 115.342 56.0656 114.675 56.1405L114.786 57.1343ZM118.784 56.7087C119.443 56.6424 120.103 56.5777 120.764 56.5148L120.67 55.5193C120.007 55.5824 119.344 55.6472 118.683 55.7138L118.784 56.7087ZM122.752 56.3312C123.416 56.2718 124.08 56.214 124.746 56.1579L124.662 55.1614C123.995 55.2176 123.328 55.2756 122.663 55.3352L122.752 56.3312ZM126.746 55.9946C127.414 55.9418 128.083 55.8908 128.753 55.8413L128.679 54.844C128.008 54.8936 127.337 54.9448 126.668 54.9977L126.746 55.9946ZM130.746 55.6993C131.408 55.6537 132.072 55.6097 132.736 55.5673L132.673 54.5693C132.007 54.6118 131.341 54.6559 130.677 54.7016L130.746 55.6993ZM134.732 55.4448C135.398 55.4055 136.065 55.3677 136.732 55.3316L136.678 54.333C136.009 54.3693 135.341 54.4071 134.673 54.4465L134.732 55.4448ZM138.737 55.2276C139.406 55.1945 140.075 55.1629 140.745 55.1329L140.7 54.1339C140.029 54.164 139.358 54.1957 138.688 54.2288L138.737 55.2276ZM142.738 55.0479C143.403 55.021 144.069 54.9956 144.735 54.9717L144.699 53.9723C144.031 53.9963 143.364 54.0218 142.698 54.0487L142.738 55.0479ZM146.735 54.9041C147.403 54.883 148.07 54.8634 148.739 54.8451L148.711 53.8455C148.042 53.8638 147.372 53.8835 146.704 53.9046L146.735 54.9041ZM150.745 54.7946C151.412 54.7792 152.08 54.7652 152.749 54.7526L152.73 53.7527C152.06 53.7654 151.391 53.7794 150.722 53.7949L150.745 54.7946ZM154.747 54.7188C155.414 54.709 156.08 54.7004 156.748 54.6932L156.737 53.6933C156.068 53.7005 155.4 53.709 154.732 53.719L154.747 54.7188ZM158.75 54.6755C159.418 54.671 160.086 54.6677 160.754 54.6658L160.751 53.6658C160.081 53.6677 159.412 53.671 158.743 53.6756L158.75 54.6755ZM162.759 54.6637C163.427 54.6644 164.094 54.6663 164.762 54.6694L164.766 53.6694C164.098 53.6663 163.429 53.6644 162.76 53.6637L162.759 54.6637ZM166.763 54.6826C167.43 54.6882 168.098 54.6951 168.765 54.7032L168.777 53.7033C168.109 53.6952 167.44 53.6883 166.772 53.6826L166.763 54.6826ZM170.768 54.7312C171.435 54.7418 172.103 54.7535 172.77 54.7665L172.79 53.7667C172.121 53.7537 171.452 53.7419 170.783 53.7313L170.768 54.7312ZM174.773 54.8089C175.441 54.8242 176.108 54.8407 176.776 54.8584L176.803 53.8587C176.134 53.841 175.465 53.8245 174.796 53.8091L174.773 54.8089ZM178.779 54.9148C179.446 54.9348 180.114 54.9559 180.781 54.9782L180.814 53.9787C180.146 53.9564 179.477 53.9353 178.809 53.9153L178.779 54.9148ZM182.782 55.0483C183.449 55.0728 184.115 55.0984 184.781 55.1251L184.821 54.1259C184.154 54.0991 183.486 54.0735 182.818 54.049L182.782 55.0483ZM186.782 55.2086C187.45 55.2376 188.118 55.2677 188.786 55.2988L188.833 54.2999C188.164 54.2687 187.494 54.2386 186.825 54.2095L186.782 55.2086ZM190.789 55.3956C191.456 55.4289 192.123 55.4632 192.789 55.4986L192.842 54.5C192.175 54.4646 191.507 54.4302 190.839 54.3968L190.789 55.3956ZM194.787 55.608C195.452 55.6454 196.117 55.6839 196.782 55.7235L196.841 54.7252C196.176 54.6856 195.51 54.6471 194.843 54.6096L194.787 55.608ZM198.783 55.8455C199.451 55.8874 200.119 55.9302 200.787 55.9741L200.853 54.9762C200.184 54.9323 199.515 54.8894 198.845 54.8475L198.783 55.8455ZM202.788 56.1086C203.454 56.1544 204.12 56.2012 204.785 56.249L204.857 55.2515C204.191 55.2037 203.524 55.1568 202.857 55.111L202.788 56.1086ZM206.778 56.3951C207.442 56.4448 208.105 56.4954 208.767 56.5469L208.845 55.5499C208.182 55.4983 207.518 55.4476 206.853 55.3979L206.778 56.3951ZM210.772 56.7059C211.441 56.7599 212.108 56.8148 212.775 56.8707L212.858 55.8741C212.191 55.8182 211.522 55.7632 210.853 55.7091L210.772 56.7059ZM214.773 57.0409C215.438 57.0986 216.102 57.1572 216.765 57.2166L216.854 56.2206C216.19 56.1611 215.525 56.1024 214.859 56.0447L214.773 57.0409ZM218.752 57.3976C219.416 57.459 220.079 57.5213 220.741 57.5845L220.836 56.589C220.173 56.5257 219.509 56.4633 218.844 56.4018L218.752 57.3976ZM222.747 57.7788C223.415 57.8444 224.081 57.9109 224.746 57.9782L224.847 56.9832C224.181 56.9158 223.513 56.8493 222.845 56.7836L222.747 57.7788ZM226.739 58.1826C227.402 58.2516 228.064 58.3213 228.724 58.3919L228.83 57.3976C228.169 57.3269 227.506 57.257 226.842 57.188L226.739 58.1826ZM230.702 58.6061C231.37 58.6793 232.037 58.7534 232.702 58.8283L232.814 57.8346C232.148 57.7596 231.48 57.6854 230.811 57.612L230.702 58.6061ZM234.704 59.0563C235.37 59.1331 236.034 59.2107 236.697 59.289L236.814 58.2959C236.151 58.2175 235.485 58.1398 234.819 58.0629L234.704 59.0563ZM238.681 59.5263C239.341 59.6061 239.999 59.6867 240.656 59.7679L240.779 58.7755C240.121 58.6941 239.462 58.6135 238.801 58.5335L238.681 59.5263ZM242.64 60.0162C243.31 60.1009 243.978 60.1865 244.644 60.2727L244.772 59.2809C244.105 59.1946 243.436 59.109 242.765 59.0241L242.64 60.0162ZM246.638 60.5335C247.301 60.6211 247.962 60.7094 248.621 60.7984L248.755 59.8074C248.095 59.7183 247.433 59.6298 246.769 59.5421L246.638 60.5335ZM250.593 61.0674C251.25 61.158 251.906 61.2492 252.559 61.3411L252.698 60.3508C252.044 60.2588 251.388 60.1674 250.729 60.0767L250.593 61.0674ZM254.566 61.6261C255.233 61.7218 255.898 61.8181 256.56 61.9151L256.705 60.9256C256.041 60.8285 255.376 60.7321 254.708 60.6362L254.566 61.6261ZM258.541 62.2077C259.199 62.3059 259.855 62.4047 260.509 62.504L260.659 61.5154C260.005 61.4159 259.348 61.317 258.689 61.2187L258.541 62.2077ZM262.463 62.8038C263.134 62.9078 263.803 63.0124 264.47 63.1176L264.625 62.1298C263.958 62.0245 263.288 61.9198 262.616 61.8156L262.463 62.8038ZM266.463 63.435C267.124 63.5414 267.783 63.6483 268.44 63.7557L268.601 62.7689C267.944 62.6613 267.284 62.5542 266.621 62.4477L266.463 63.435ZM270.4 64.0796C271.052 64.1882 271.701 64.2974 272.348 64.407L272.515 63.4211C271.868 63.3113 271.217 63.202 270.565 63.0932L270.4 64.0796ZM274.355 64.7505C275.021 64.8656 275.684 64.9811 276.343 65.097L276.516 64.1121C275.856 63.996 275.192 63.8803 274.525 63.7651L274.355 64.7505ZM278.312 65.4462C278.965 65.5631 279.615 65.6803 280.262 65.798L280.441 64.8142C279.793 64.6963 279.143 64.5789 278.488 64.4619L278.312 65.4462ZM282.219 66.1574C282.89 66.2816 283.557 66.4063 284.22 66.5313L284.405 65.5486C283.741 65.4234 283.073 65.2985 282.401 65.1741L282.219 66.1574ZM286.198 66.9075C286.853 67.0333 287.504 67.1594 288.152 67.2858L288.344 66.3043C287.695 66.1777 287.043 66.0514 286.386 65.9254L286.198 66.9075ZM290.082 67.6659C290.75 67.7986 291.413 67.9315 292.071 68.0647L292.27 67.0846C291.61 66.9511 290.946 66.818 290.277 66.6851L290.082 67.6659ZM294.057 68.47C294.714 68.6053 295.367 68.7409 296.014 68.8766L296.219 67.8979C295.571 67.7619 294.917 67.6261 294.259 67.4905L294.057 68.47ZM297.942 69.2845C298.261 69.3525 298.578 69.4207 298.895 69.4888L299.105 68.5112C298.788 68.4429 298.47 68.3747 298.151 68.3065L297.942 69.2845ZM298.873 69.4835C299.2 69.5698 299.527 69.6558 299.854 69.7413L300.107 68.7738C299.781 68.6885 299.454 68.6027 299.127 68.5165L298.873 69.4835ZM301.813 70.2492C302.464 70.4168 303.115 70.5826 303.764 70.7468L304.009 69.7773C303.361 69.6135 302.712 69.4479 302.062 69.2807L301.813 70.2492ZM305.708 71.2341C306.354 71.3949 307 71.5539 307.644 71.7113L307.881 70.7399C307.238 70.5828 306.594 70.4241 305.949 70.2637L305.708 71.2341ZM309.574 72.1783C310.215 72.3323 310.856 72.4846 311.496 72.6353L311.725 71.6619C311.087 71.5116 310.447 71.3596 309.807 71.2059L309.574 72.1783ZM313.411 73.0822C314.059 73.2321 314.706 73.3803 315.352 73.5268L315.574 72.5515C314.929 72.4054 314.283 72.2575 313.636 72.1079L313.411 73.0822ZM317.326 73.9699C317.983 74.1159 318.638 74.26 319.293 74.4024L319.505 73.4253C318.853 73.2832 318.199 73.1394 317.543 72.9937L317.326 73.9699ZM321.251 74.8243C321.903 74.9631 322.553 75.1002 323.202 75.2356L323.406 74.2567C322.758 74.1216 322.11 73.9848 321.459 73.8462L321.251 74.8243ZM325.145 75.6364C325.791 75.7683 326.436 75.8984 327.08 76.0268L327.275 75.0461C326.633 74.918 325.99 74.7882 325.345 74.6566L325.145 75.6364ZM329.007 76.4068C329.666 76.5352 330.324 76.6618 330.98 76.7866L331.167 75.8042C330.512 75.6797 329.856 75.5534 329.199 75.4253L329.007 76.4068ZM332.966 77.1594C333.626 77.2818 334.285 77.4024 334.943 77.5211L335.12 76.537C334.464 76.4186 333.807 76.2983 333.148 76.1761L332.966 77.1594ZM336.911 77.8719C337.566 77.9871 338.22 78.1004 338.872 78.2119L339.04 77.2262C338.39 77.1149 337.738 77.0019 337.085 76.887L336.911 77.8719ZM340.824 78.541C341.473 78.6489 342.121 78.755 342.768 78.8593L342.927 77.8721C342.282 77.768 341.636 77.6622 340.988 77.5545L340.824 78.541ZM344.723 79.1701C345.391 79.2747 346.058 79.3774 346.724 79.4781L346.873 78.4894C346.21 78.3889 345.544 78.2864 344.878 78.1821L344.723 79.1701ZM348.716 79.7748C349.378 79.8718 350.039 79.967 350.698 80.0602L350.838 79.0701C350.181 78.977 349.521 78.8821 348.86 78.7854L348.716 79.7748ZM352.672 80.3343C353.329 80.4238 353.984 80.5115 354.638 80.5973L354.768 79.6058C354.116 79.5202 353.462 79.4328 352.807 79.3435L352.672 80.3343ZM356.594 80.8491C357.246 80.9315 357.898 81.0121 358.548 81.0908L358.668 80.098C358.02 80.0195 357.37 79.9392 356.719 79.857L356.594 80.8491ZM360.559 81.3291C361.228 81.4066 361.896 81.4821 362.562 81.5557L362.671 80.5617C362.007 80.4883 361.342 80.413 360.674 80.3357L360.559 81.3291ZM364.554 81.7706C365.217 81.8404 365.878 81.9081 366.537 81.974L366.637 80.979C365.979 80.9133 365.32 80.8457 364.659 80.7761L364.554 81.7706ZM368.511 82.1659C369.167 82.228 369.822 82.2881 370.475 82.3464L370.564 81.3504C369.913 81.2923 369.26 81.2323 368.605 81.1704L368.511 82.1659ZM372.442 82.5166C373.117 82.5732 373.789 82.6277 374.46 82.6802L374.538 81.6832C373.869 81.6309 373.198 81.5765 372.526 81.5201L372.442 82.5166ZM376.468 82.8317C377.135 82.8802 377.801 82.9268 378.465 82.9713L378.532 81.9735C377.87 81.9291 377.206 81.8827 376.54 81.8343L376.468 82.8317ZM380.453 83.0991C381.113 83.1397 381.772 83.1783 382.43 83.215L382.486 82.2166C381.83 82.18 381.173 82.1414 380.514 82.1009L380.453 83.0991ZM384.397 83.3194C385.063 83.3528 385.727 83.3843 386.39 83.4137L386.435 82.4147C385.774 82.3853 385.111 82.354 384.447 82.3206L384.397 83.3194ZM388.409 83.4976C389.08 83.5235 389.749 83.5473 390.416 83.5691L390.449 82.5697C389.784 82.5479 389.116 82.5241 388.447 82.4983L388.409 83.4976ZM392.413 83.6286C393.077 83.6463 393.739 83.6621 394.399 83.6759L394.42 82.6761C393.762 82.6624 393.102 82.6466 392.44 82.6289L392.413 83.6286ZM396.374 83.7113C397.032 83.7211 397.689 83.729 398.344 83.7348L398.353 82.7349C397.7 82.729 397.045 82.7212 396.389 82.7114L396.374 83.7113ZM400.368 83.7468C401.041 83.7487 401.712 83.7485 402.381 83.7462L402.378 82.7462C401.711 82.7484 401.042 82.7487 400.371 82.7468L400.368 83.7468ZM404.383 83.7331C405.048 83.7267 405.711 83.7183 406.373 83.7078L406.357 82.7079C405.698 82.7184 405.036 82.7268 404.373 82.7332L404.383 83.7331ZM408.351 83.6702C409.008 83.6557 409.664 83.6391 410.317 83.6206L410.289 82.621C409.637 82.6395 408.984 82.656 408.329 82.6705L408.351 83.6702ZM412.334 83.5568C413.008 83.5333 413.679 83.5077 414.348 83.4799L414.306 82.4808C413.639 82.5084 412.971 82.534 412.3 82.5574L412.334 83.5568ZM416.349 83.3905C417.013 83.3586 417.676 83.3246 418.337 83.2886L418.282 82.2901C417.624 82.326 416.963 82.3599 416.301 82.3917L416.349 83.3905ZM420.313 83.1743C420.969 83.1341 421.624 83.0919 422.276 83.0477L422.209 82.05C421.559 82.094 420.906 82.1361 420.252 82.1761L420.313 83.1743ZM424.29 82.9043C424.962 82.8542 425.631 82.8019 426.298 82.7475L426.217 81.7508C425.552 81.805 424.885 81.8571 424.216 81.9071L424.29 82.9043ZM428.293 82.578C428.955 82.5194 429.616 82.4586 430.274 82.3958L430.179 81.4004C429.523 81.4629 428.865 81.5234 428.205 81.5819L428.293 82.578ZM432.242 82.2012C432.899 82.134 433.553 82.0647 434.205 81.9933L434.097 80.9992C433.447 81.0703 432.794 81.1394 432.14 81.2064L432.242 82.2012ZM436.216 81.766C436.883 81.6881 437.549 81.608 438.212 81.5258L438.089 80.5334C437.428 80.6153 436.765 80.6951 436.1 80.7728L436.216 81.766ZM440.194 81.2729C440.852 81.1864 441.508 81.0979 442.161 81.0073L442.024 80.0167C441.373 80.107 440.719 80.1953 440.063 80.2814L440.194 81.2729ZM444.115 80.7292C444.776 80.6326 445.435 80.5338 446.092 80.433L445.94 79.4446C445.286 79.545 444.629 79.6434 443.97 79.7397L444.115 80.7292ZM448.084 80.1192C448.746 80.0125 449.405 79.9036 450.062 79.7926L449.895 78.8066C449.241 78.9172 448.584 79.0257 447.925 79.132L448.084 80.1192ZM452.024 79.4533C452.676 79.3381 453.325 79.2208 453.972 79.1014L453.79 78.118C453.146 78.2369 452.499 78.3538 451.85 78.4686L452.024 79.4533ZM455.915 78.735C456.579 78.6072 457.241 78.4773 457.899 78.3451L457.702 77.3647C457.046 77.4963 456.388 77.6257 455.726 77.7531L455.915 78.735ZM459.867 77.9424C460.52 77.806 461.171 77.6675 461.819 77.5269L461.607 76.5496C460.961 76.6896 460.313 76.8276 459.663 76.9635L459.867 77.9424ZM463.754 77.0989C464.397 76.9541 465.037 76.8074 465.674 76.6585L465.446 75.6847C464.812 75.833 464.174 75.9792 463.535 76.1233L463.754 77.0989ZM467.641 76.1908C468.294 76.0325 468.945 75.8721 469.593 75.7096L469.35 74.7396C468.705 74.9015 468.056 75.0612 467.405 75.2188L467.641 76.1908ZM471.528 75.2159C472.17 75.0492 472.81 74.8805 473.446 74.7097L473.187 73.7439C472.553 73.9139 471.917 74.0819 471.277 74.2479L471.528 75.2159ZM475.347 74.1915C475.999 74.011 476.647 73.8285 477.292 73.6439L477.017 72.6825C476.374 72.8663 475.729 73.0481 475.08 73.2278L475.347 74.1915ZM479.222 73.0826C479.863 72.8934 480.5 72.7021 481.135 72.5089L480.843 71.5523C480.212 71.7447 479.577 71.9351 478.939 72.1235L479.222 73.0826ZM483.029 71.9231C483.659 71.7253 484.286 71.5256 484.91 71.3239L484.602 70.3724C483.981 70.5732 483.357 70.7721 482.729 70.969L483.029 71.9231ZM486.831 70.6933C487.469 70.481 488.103 70.2667 488.734 70.0504L488.409 69.1045C487.781 69.3198 487.15 69.5332 486.515 69.7445L486.831 70.6933ZM490.617 69.3956C491.241 69.1754 491.862 68.9532 492.48 68.7291L492.139 67.789C491.524 68.0121 490.906 68.2333 490.284 68.4526L490.617 69.3956ZM494.348 68.0423C494.981 67.8064 495.61 67.5686 496.236 67.3289L495.878 66.3951C495.255 66.6337 494.629 66.8705 493.999 67.1052L494.348 68.0423ZM498.103 66.6038C498.722 66.3601 499.338 66.1146 499.95 65.8672L499.575 64.9401C498.966 65.1863 498.353 65.4307 497.737 65.6732L498.103 66.6038ZM501.775 65.1195C502.398 64.8612 503.017 64.6009 503.633 64.3388L503.241 63.4187C502.629 63.6796 502.012 63.9387 501.392 64.1958L501.775 65.1195ZM505.479 63.5423C506.091 63.275 506.699 63.0058 507.303 62.7348L506.894 61.8223C506.293 62.092 505.688 62.3599 505.079 62.626L505.479 63.5423ZM509.106 61.9166C509.712 61.6378 510.315 61.3573 510.914 61.075L510.488 60.1704C509.892 60.4513 509.292 60.7306 508.688 61.008L509.106 61.9166ZM512.734 60.2064C513.337 59.9151 513.936 59.622 514.531 59.3273L514.087 58.4312C513.495 58.7245 512.899 59.0161 512.299 59.306L512.734 60.2064ZM516.304 58.4381C516.896 58.1379 517.483 57.836 518.067 57.5325L517.606 56.6452C517.025 56.9472 516.44 57.2476 515.851 57.5464L516.304 58.4381ZM519.855 56.5912C520.447 56.2758 521.035 55.9588 521.618 55.6403L521.139 54.7625C520.559 55.0795 519.974 55.3949 519.385 55.7087L519.855 56.5912ZM523.357 54.68C523.935 54.357 524.508 54.0325 525.078 53.7066L524.581 52.8387C524.014 53.163 523.444 53.4858 522.869 53.8071L523.357 54.68ZM526.828 52.6927C527.407 52.3532 527.981 52.0122 528.552 51.6699L528.037 50.8126C527.47 51.1531 526.898 51.4923 526.322 51.83L526.828 52.6927ZM530.249 50.6388C530.814 50.2916 531.374 49.943 531.93 49.5932L531.397 48.7468C530.844 49.0948 530.287 49.4415 529.725 49.7869L530.249 50.6388ZM533.636 48.5068C534.2 48.1434 534.759 47.7787 535.313 47.4128L534.762 46.5782C534.211 46.9421 533.655 47.3048 533.094 47.6663L533.636 48.5068ZM536.962 46.3118C537.515 45.9384 538.062 45.5638 538.605 45.1882L538.036 44.3658C537.496 44.7393 536.952 45.1118 536.402 45.4832L536.962 46.3118ZM540.259 44.0303C540.805 43.6434 541.346 43.2554 541.882 42.8664L541.295 42.0571C540.762 42.4438 540.224 42.8296 539.681 43.2144L540.259 44.0303ZM543.475 41.6969C544.016 41.2949 544.552 40.892 545.082 40.4884L544.476 39.6927C543.949 40.094 543.417 40.4946 542.879 40.8942L543.475 41.6969ZM546.675 39.2608C547.201 38.8509 547.721 38.4402 548.235 38.029L547.611 37.2478C547.1 37.6566 546.583 38.0648 546.06 38.4723L546.675 39.2608ZM549.775 36.7833C550.301 36.3532 550.82 35.9225 551.333 35.4914L550.69 34.7256C550.18 35.1541 549.664 35.5821 549.142 36.0096L549.775 36.7833ZM552.856 34.1969C553.358 33.765 553.853 33.3328 554.343 32.9004L553.682 32.1508C553.195 32.5804 552.702 33.0099 552.204 33.4391L552.856 34.1969ZM555.849 31.5542C556.348 31.1018 556.841 30.6493 557.327 30.1968L556.646 29.4646C556.163 29.9141 555.673 30.3636 555.177 30.8131L555.849 31.5542ZM558.768 28.8396C559.255 28.3742 559.736 27.909 560.209 27.4441L559.509 26.7303C559.039 27.192 558.561 27.6541 558.077 28.1164L558.768 28.8396ZM561.637 26.0242C562.106 25.5513 562.567 25.0789 563.022 24.6071L562.302 23.9131C561.851 24.3815 561.392 24.8506 560.927 25.3202L561.637 26.0242ZM564.402 23.1553C564.865 22.6606 565.32 22.1667 565.768 21.6738L565.028 21.0013C564.584 21.4905 564.131 21.9807 563.672 22.4718L564.402 23.1553ZM567.089 20.1985C567.536 19.6914 567.975 19.1856 568.405 18.6812L567.645 18.0319C567.218 18.5322 566.782 19.0341 566.339 19.5373L567.089 20.1985ZM569.699 17.1404C570.122 16.6285 570.537 16.1183 570.942 15.6101L570.161 14.9861C569.759 15.49 569.348 15.9958 568.928 16.5035L569.699 17.1404ZM572.194 14.0149C572.605 13.4805 573.007 12.9485 573.4 12.4192L572.596 11.8235C572.207 12.3479 571.809 12.8751 571.401 13.4048L572.194 14.0149ZM574.565 10.816C574.963 10.2576 575.35 9.70263 575.727 9.15126L574.901 8.58745C574.528 9.13318 574.145 9.68265 573.751 10.2356L574.565 10.816ZM576.824 7.5084C577.199 6.93365 577.562 6.3633 577.913 5.79769L577.063 5.27024C576.716 5.82934 576.357 6.39333 575.986 6.96186L576.824 7.5084ZM578.946 4.09009C579.111 3.80816 579.274 3.52753 579.434 3.24826L578.566 2.75174C578.408 3.02743 578.247 3.30454 578.084 3.58299L578.946 4.09009Z" fill="white" fill-opacity="0.7"/>
</svg>
