<svg width="726" height="334" viewBox="0 0 726 334" fill="none" xmlns="http://www.w3.org/2000/svg">
<g clip-path="url(#clip0_2017_53)">
<path d="M9.26864 42H0.108398L27.2299 0.173584H56.926V6.90835H39.6831V17.1877H55.8483V23.9225H39.6831V35.2653H57.6444V42H32.1394V31.0117H16.0939L9.26864 42ZM31.2413 6.90835L20.0454 24.6314H32.1394V6.90835H31.2413Z" fill="url(#paint0_linear_2017_53)"/>
</g>
<path d="M42 185H40.5V185.066L40.5059 185.132L42 185ZM556.5 232.5L556.525 234L556.54 234L556.555 233.999L556.5 232.5ZM659 333.5L666.389 317.835L649.128 319.268L659 333.5ZM40.5 59.5V185H43.5V59.5H40.5ZM40.5059 185.132C41.1244 192.114 45.9824 204.302 56.2535 214.74C66.5818 225.235 82.4178 234 105 234V231C83.276 231 68.1953 222.598 58.3918 212.635C48.5312 202.615 44.0422 191.053 43.4941 184.868L40.5059 185.132ZM105 234C157.97 234 424.176 236.167 556.525 234L556.475 231C424.157 233.167 158.03 231 105 231V234ZM556.555 233.999C571.7 233.447 594.205 234.383 614.127 245.717C633.949 256.994 651.454 278.706 656.394 320.232L659.373 319.878C654.337 277.544 636.375 254.923 615.611 243.11C594.947 231.354 571.749 230.443 556.445 231.001L556.555 233.999Z" fill="url(#paint1_linear_2017_53)"/>
<path d="M34 187.5H35.5V187.546L35.4972 187.591L34 187.5ZM130.5 243.5L130.478 242L130.489 242H130.5V243.5ZM718 332L708.611 317.445L725.911 316.591L718 332ZM35.5 59V187.5H32.5V59H35.5ZM35.4972 187.591C34.8581 198.057 38.7036 211.873 52.5384 222.967C66.4075 234.089 90.4714 242.597 130.478 242L130.522 245C90.1286 245.603 65.2759 237.027 50.6616 225.308C36.0131 213.561 31.8086 198.776 32.5028 187.409L35.4972 187.591ZM130.5 242H586V245H130.5V242ZM586 242C614.054 242 645.316 242.809 670.506 252.719C683.135 257.687 694.294 264.961 702.765 275.608C711.24 286.261 716.952 300.198 718.827 318.37L715.843 318.678C714.018 300.987 708.484 287.615 700.417 277.476C692.346 267.332 681.666 260.333 669.408 255.511C644.824 245.84 614.12 245 586 245V242Z" fill="url(#paint2_linear_2017_53)"/>
<path d="M25 180.5L23.5 180.504V180.5H25ZM612 257L612.041 258.499L612.021 258.5H612V257ZM684.5 333L675.245 318.359L692.552 317.665L684.5 333ZM26.5 59V180.5H23.5V59H26.5ZM26.5 180.496C26.5679 206.586 30.4898 224.988 49.6187 237.127C59.287 243.262 72.9462 247.868 92.2079 250.932C111.46 253.994 136.213 255.5 168 255.5V258.5C136.139 258.5 111.21 256.992 91.7367 253.894C72.2733 250.799 58.164 246.102 48.0114 239.66C27.4984 226.643 23.5684 206.795 23.5 180.504L26.5 180.496ZM168 255.5C168.249 255.5 168.498 255.5 168.748 255.5C168.998 255.5 169.248 255.5 169.5 255.5C169.751 255.5 170.003 255.5 170.255 255.5C170.508 255.5 170.761 255.5 171.015 255.5C171.269 255.5 171.523 255.5 171.779 255.5C172.034 255.5 172.29 255.5 172.546 255.5C172.802 255.5 173.06 255.5 173.317 255.5C173.575 255.5 173.833 255.5 174.092 255.5C174.351 255.5 174.611 255.5 174.871 255.5C175.131 255.5 175.392 255.5 175.654 255.5C175.915 255.5 176.178 255.5 176.44 255.5C176.703 255.5 176.966 255.5 177.23 255.5C177.494 255.5 177.759 255.5 178.024 255.5C178.29 255.5 178.555 255.5 178.822 255.5C179.088 255.5 179.356 255.5 179.623 255.5C179.891 255.5 180.159 255.5 180.428 255.5C180.697 255.5 180.967 255.5 181.237 255.5C181.507 255.5 181.778 255.5 182.049 255.5C182.32 255.5 182.592 255.5 182.865 255.5C183.137 255.5 183.41 255.5 183.684 255.5C183.958 255.5 184.232 255.5 184.507 255.5C184.782 255.5 185.058 255.5 185.334 255.5C185.61 255.5 185.886 255.5 186.164 255.5C186.441 255.5 186.719 255.5 186.997 255.5C187.276 255.5 187.555 255.5 187.834 255.5C188.114 255.5 188.394 255.5 188.675 255.5C188.955 255.5 189.237 255.5 189.519 255.5C189.8 255.5 190.083 255.5 190.366 255.5C190.649 255.5 190.932 255.5 191.217 255.5C191.501 255.5 191.785 255.5 192.071 255.5C192.356 255.5 192.642 255.5 192.928 255.5C193.214 255.5 193.501 255.5 193.789 255.5C194.076 255.5 194.364 255.5 194.653 255.5C194.941 255.5 195.231 255.5 195.52 255.5C195.81 255.5 196.1 255.5 196.391 255.5C196.682 255.5 196.973 255.5 197.265 255.5C197.557 255.5 197.849 255.5 198.142 255.5C198.435 255.5 198.728 255.5 199.022 255.5C199.316 255.5 199.611 255.5 199.906 255.5C200.201 255.5 200.496 255.5 200.793 255.5C201.089 255.5 201.385 255.5 201.682 255.5C201.98 255.5 202.277 255.5 202.575 255.5C202.874 255.5 203.172 255.5 203.472 255.5C203.771 255.5 204.07 255.5 204.371 255.5C204.671 255.5 204.972 255.5 205.273 255.5C205.574 255.5 205.876 255.5 206.178 255.5C206.481 255.5 206.783 255.5 207.087 255.5C207.39 255.5 207.694 255.5 207.998 255.5C208.302 255.5 208.607 255.5 208.912 255.5C209.218 255.5 209.523 255.5 209.83 255.5C210.136 255.5 210.443 255.5 210.75 255.5C211.057 255.5 211.365 255.5 211.673 255.5C211.981 255.5 212.29 255.5 212.599 255.5C212.908 255.5 213.218 255.5 213.528 255.5C213.838 255.5 214.149 255.5 214.46 255.5C214.771 255.5 215.083 255.5 215.395 255.5C215.707 255.5 216.019 255.5 216.332 255.5C216.645 255.5 216.958 255.5 217.272 255.5C217.586 255.5 217.901 255.5 218.215 255.5C218.53 255.5 218.845 255.5 219.161 255.5C219.477 255.5 219.793 255.5 220.11 255.5C220.426 255.5 220.744 255.5 221.061 255.5C221.379 255.5 221.697 255.5 222.015 255.5C222.334 255.5 222.652 255.5 222.972 255.5C223.291 255.5 223.611 255.5 223.931 255.5C224.251 255.5 224.572 255.5 224.893 255.5C225.214 255.5 225.536 255.5 225.858 255.5C226.18 255.5 226.502 255.5 226.825 255.5C227.148 255.5 227.471 255.5 227.795 255.5C228.118 255.5 228.442 255.5 228.767 255.5C229.091 255.5 229.416 255.5 229.742 255.5C230.067 255.5 230.393 255.5 230.719 255.5C231.045 255.5 231.372 255.5 231.699 255.5C232.026 255.5 232.353 255.5 232.681 255.5C233.009 255.5 233.337 255.5 233.666 255.5C233.995 255.5 234.324 255.5 234.653 255.5C234.983 255.5 235.313 255.5 235.643 255.5C235.973 255.5 236.304 255.5 236.635 255.5C236.966 255.5 237.298 255.5 237.629 255.5C237.961 255.5 238.294 255.5 238.626 255.5C238.959 255.5 239.292 255.5 239.625 255.5C239.959 255.5 240.293 255.5 240.627 255.5C240.961 255.5 241.295 255.5 241.63 255.5C241.965 255.5 242.301 255.5 242.636 255.5C242.972 255.5 243.308 255.5 243.645 255.5C243.981 255.5 244.318 255.5 244.655 255.5C244.992 255.5 245.33 255.5 245.668 255.5C246.006 255.5 246.344 255.5 246.682 255.5C247.021 255.5 247.36 255.5 247.699 255.5C248.039 255.5 248.379 255.5 248.719 255.5C249.059 255.5 249.399 255.5 249.74 255.5C250.081 255.5 250.422 255.5 250.763 255.5C251.105 255.5 251.447 255.5 251.789 255.5C252.131 255.5 252.473 255.5 252.816 255.5C253.159 255.5 253.502 255.5 253.846 255.5C254.189 255.5 254.533 255.5 254.877 255.5C255.222 255.5 255.566 255.5 255.911 255.5C256.256 255.5 256.601 255.5 256.947 255.5C257.292 255.5 257.638 255.5 257.984 255.5C258.33 255.5 258.677 255.5 259.024 255.5C259.371 255.5 259.718 255.5 260.065 255.5C260.413 255.5 260.76 255.5 261.108 255.5C261.457 255.5 261.805 255.5 262.154 255.5C262.502 255.5 262.851 255.5 263.201 255.5C263.55 255.5 263.9 255.5 264.25 255.5C264.599 255.5 264.95 255.5 265.3 255.5C265.651 255.5 266.002 255.5 266.353 255.5C266.704 255.5 267.055 255.5 267.407 255.5C267.759 255.5 268.111 255.5 268.463 255.5C268.815 255.5 269.168 255.5 269.521 255.5C269.874 255.5 270.227 255.5 270.58 255.5C270.934 255.5 271.288 255.5 271.642 255.5C271.996 255.5 272.35 255.5 272.704 255.5C273.059 255.5 273.414 255.5 273.769 255.5C274.124 255.5 274.48 255.5 274.835 255.5C275.191 255.5 275.547 255.5 275.903 255.5C276.259 255.5 276.616 255.5 276.972 255.5C277.329 255.5 277.686 255.5 278.043 255.5C278.401 255.5 278.758 255.5 279.116 255.5C279.474 255.5 279.832 255.5 280.19 255.5C280.548 255.5 280.907 255.5 281.265 255.5C281.624 255.5 281.983 255.5 282.342 255.5C282.702 255.5 283.061 255.5 283.421 255.5C283.781 255.5 284.141 255.5 284.501 255.5C284.861 255.5 285.221 255.5 285.582 255.5C285.943 255.5 286.304 255.5 286.665 255.5C287.026 255.5 287.388 255.5 287.749 255.5C288.111 255.5 288.473 255.5 288.835 255.5C289.197 255.5 289.559 255.5 289.922 255.5C290.284 255.5 290.647 255.5 291.01 255.5C291.373 255.5 291.736 255.5 292.099 255.5C292.463 255.5 292.826 255.5 293.19 255.5C293.554 255.5 293.918 255.5 294.282 255.5C294.647 255.5 295.011 255.5 295.376 255.5C295.74 255.5 296.105 255.5 296.47 255.5C296.835 255.5 297.2 255.5 297.566 255.5C297.931 255.5 298.297 255.5 298.663 255.5C299.029 255.5 299.395 255.5 299.761 255.5C300.127 255.5 300.494 255.5 300.86 255.5C301.227 255.5 301.594 255.5 301.961 255.5C302.328 255.5 302.695 255.5 303.062 255.5C303.429 255.5 303.797 255.5 304.165 255.5C304.532 255.5 304.9 255.5 305.268 255.5C305.636 255.5 306.005 255.5 306.373 255.5C306.741 255.5 307.11 255.5 307.479 255.5C307.847 255.5 308.216 255.5 308.585 255.5C308.954 255.5 309.324 255.5 309.693 255.5C310.062 255.5 310.432 255.5 310.802 255.5C311.171 255.5 311.541 255.5 311.911 255.5C312.281 255.5 312.651 255.5 313.022 255.5C313.392 255.5 313.762 255.5 314.133 255.5C314.504 255.5 314.874 255.5 315.245 255.5C315.616 255.5 315.987 255.5 316.358 255.5C316.729 255.5 317.101 255.5 317.472 255.5C317.844 255.5 318.215 255.5 318.587 255.5C318.959 255.5 319.331 255.5 319.703 255.5C320.074 255.5 320.447 255.5 320.819 255.5C321.191 255.5 321.563 255.5 321.936 255.5C322.308 255.5 322.681 255.5 323.054 255.5C323.426 255.5 323.799 255.5 324.172 255.5C324.545 255.5 324.918 255.5 325.291 255.5C325.665 255.5 326.038 255.5 326.411 255.5C326.785 255.5 327.158 255.5 327.532 255.5C327.905 255.5 328.279 255.5 328.653 255.5C329.027 255.5 329.401 255.5 329.775 255.5C330.149 255.5 330.523 255.5 330.897 255.5C331.271 255.5 331.646 255.5 332.02 255.5C332.395 255.5 332.769 255.5 333.144 255.5C333.518 255.5 333.893 255.5 334.268 255.5C334.642 255.5 335.017 255.5 335.392 255.5C335.767 255.5 336.142 255.5 336.517 255.5C336.892 255.5 337.267 255.5 337.643 255.5C338.018 255.5 338.393 255.5 338.769 255.5C339.144 255.5 339.519 255.5 339.895 255.5C340.27 255.5 340.646 255.5 341.022 255.5C341.397 255.5 341.773 255.5 342.149 255.5C342.525 255.5 342.9 255.5 343.276 255.5C343.652 255.5 344.028 255.5 344.404 255.5C344.78 255.5 345.156 255.5 345.532 255.5C345.908 255.5 346.285 255.5 346.661 255.5C347.037 255.5 347.413 255.5 347.79 255.5C348.166 255.5 348.542 255.5 348.919 255.5C349.295 255.5 349.671 255.5 350.048 255.5C350.424 255.5 350.801 255.5 351.177 255.5C351.554 255.5 351.93 255.5 352.307 255.5C352.684 255.5 353.06 255.5 353.437 255.5C353.814 255.5 354.19 255.5 354.567 255.5C354.944 255.5 355.32 255.5 355.697 255.5C356.074 255.5 356.451 255.5 356.827 255.5C357.204 255.5 357.581 255.5 357.958 255.5C358.335 255.5 358.711 255.5 359.088 255.5C359.465 255.5 359.842 255.5 360.219 255.5C360.596 255.5 360.972 255.5 361.349 255.5C361.726 255.5 362.103 255.5 362.48 255.5C362.857 255.5 363.234 255.5 363.61 255.5C363.987 255.5 364.364 255.5 364.741 255.5C365.118 255.5 365.495 255.5 365.871 255.5C366.248 255.5 366.625 255.5 367.002 255.5C367.379 255.5 367.756 255.5 368.132 255.5C368.509 255.5 368.886 255.5 369.263 255.5C369.639 255.5 370.016 255.5 370.393 255.5C370.769 255.5 371.146 255.5 371.523 255.5C371.899 255.5 372.276 255.5 372.652 255.5C373.029 255.5 373.405 255.5 373.782 255.5C374.159 255.5 374.535 255.5 374.911 255.5C375.288 255.5 375.664 255.5 376.041 255.5C376.417 255.5 376.793 255.5 377.169 255.5C377.546 255.5 377.922 255.5 378.298 255.5C378.674 255.5 379.05 255.5 379.426 255.5C379.803 255.5 380.179 255.5 380.555 255.5C380.931 255.5 381.306 255.5 381.682 255.5C382.058 255.5 382.434 255.5 382.81 255.5C383.185 255.5 383.561 255.5 383.937 255.5C384.312 255.5 384.688 255.5 385.063 255.5C385.439 255.5 385.814 255.5 386.189 255.5C386.565 255.5 386.94 255.5 387.315 255.5C387.69 255.5 388.065 255.5 388.44 255.5C388.815 255.5 389.19 255.5 389.565 255.5C389.94 255.5 390.315 255.5 390.69 255.5C391.064 255.5 391.439 255.5 391.813 255.5C392.188 255.5 392.562 255.5 392.937 255.5C393.311 255.5 393.685 255.5 394.059 255.5C394.434 255.5 394.808 255.5 395.181 255.5C395.555 255.5 395.929 255.5 396.303 255.5C396.677 255.5 397.05 255.5 397.424 255.5C397.797 255.5 398.171 255.5 398.544 255.5C398.918 255.5 399.291 255.5 399.664 255.5C400.037 255.5 400.41 255.5 400.783 255.5C401.156 255.5 401.528 255.5 401.901 255.5C402.274 255.5 402.646 255.5 403.019 255.5C403.391 255.5 403.763 255.5 404.135 255.5C404.507 255.5 404.879 255.5 405.251 255.5C405.623 255.5 405.995 255.5 406.367 255.5C406.738 255.5 407.11 255.5 407.481 255.5C407.852 255.5 408.224 255.5 408.595 255.5C408.966 255.5 409.337 255.5 409.707 255.5C410.078 255.5 410.449 255.5 410.819 255.5C411.19 255.5 411.56 255.5 411.93 255.5C412.3 255.5 412.67 255.5 413.04 255.5C413.41 255.5 413.78 255.5 414.15 255.5C414.519 255.5 414.889 255.5 415.258 255.5C415.627 255.5 415.996 255.5 416.365 255.5C416.734 255.5 417.103 255.5 417.471 255.5C417.84 255.5 418.208 255.5 418.577 255.5C418.945 255.5 419.313 255.5 419.681 255.5C420.049 255.5 420.416 255.5 420.784 255.5C421.152 255.5 421.519 255.5 421.886 255.5C422.253 255.5 422.62 255.5 422.987 255.5C423.354 255.5 423.721 255.5 424.087 255.5C424.454 255.5 424.82 255.5 425.186 255.5C425.552 255.5 425.918 255.5 426.284 255.5C426.649 255.5 427.015 255.5 427.38 255.5C427.745 255.5 428.11 255.5 428.475 255.5C428.84 255.5 429.205 255.5 429.569 255.5C429.934 255.5 430.298 255.5 430.662 255.5C431.026 255.5 431.39 255.5 431.754 255.5C432.117 255.5 432.481 255.5 432.844 255.5C433.207 255.5 433.57 255.5 433.933 255.5C434.296 255.5 434.658 255.5 435.021 255.5C435.383 255.5 435.745 255.5 436.107 255.5C436.469 255.5 436.831 255.5 437.192 255.5C437.554 255.5 437.915 255.5 438.276 255.5C438.637 255.5 438.997 255.5 439.358 255.5C439.718 255.5 440.079 255.5 440.439 255.5C440.799 255.5 441.159 255.5 441.518 255.5C441.878 255.5 442.237 255.5 442.596 255.5C442.955 255.5 443.314 255.5 443.672 255.5C444.031 255.5 444.389 255.5 444.747 255.5C445.105 255.5 445.463 255.5 445.821 255.5C446.178 255.5 446.536 255.5 446.893 255.5C447.25 255.5 447.607 255.5 447.963 255.5C448.32 255.5 448.676 255.5 449.032 255.5C449.388 255.5 449.743 255.5 450.099 255.5C450.454 255.5 450.809 255.5 451.164 255.5C451.519 255.5 451.874 255.5 452.228 255.5C452.583 255.5 452.937 255.5 453.29 255.5C453.644 255.5 453.998 255.5 454.351 255.5C454.704 255.5 455.057 255.5 455.41 255.5C455.762 255.5 456.115 255.5 456.467 255.5C456.819 255.5 457.171 255.5 457.522 255.5C457.874 255.5 458.225 255.5 458.576 255.5C458.927 255.5 459.277 255.5 459.628 255.5C459.978 255.5 460.328 255.5 460.678 255.5C461.027 255.5 461.377 255.5 461.726 255.5C462.075 255.5 462.424 255.5 462.772 255.5C463.12 255.5 463.469 255.5 463.816 255.5C464.164 255.5 464.512 255.5 464.859 255.5C465.206 255.5 465.553 255.5 465.9 255.5C466.246 255.5 466.592 255.5 466.938 255.5C467.284 255.5 467.63 255.5 467.975 255.5C468.32 255.5 468.665 255.5 469.01 255.5C469.355 255.5 469.699 255.5 470.043 255.5C470.387 255.5 470.73 255.5 471.074 255.5C471.417 255.5 471.76 255.5 472.102 255.5C472.445 255.5 472.787 255.5 473.129 255.5C473.471 255.5 473.812 255.5 474.154 255.5C474.495 255.5 474.836 255.5 475.176 255.5C475.517 255.5 475.857 255.5 476.197 255.5C476.536 255.5 476.876 255.5 477.215 255.5C477.554 255.5 477.893 255.5 478.231 255.5C478.569 255.5 478.907 255.5 479.245 255.5C479.583 255.5 479.92 255.5 480.257 255.5C480.594 255.5 480.93 255.5 481.266 255.5C481.602 255.5 481.938 255.5 482.274 255.5C482.609 255.5 482.944 255.5 483.279 255.5C483.613 255.5 483.947 255.5 484.281 255.5C484.615 255.5 484.949 255.5 485.282 255.5C485.615 255.5 485.948 255.5 486.28 255.5C486.612 255.5 486.944 255.5 487.276 255.5C487.607 255.5 487.939 255.5 488.269 255.5C488.6 255.5 488.93 255.5 489.26 255.5C489.59 255.5 489.92 255.5 490.249 255.5C490.578 255.5 490.907 255.5 491.235 255.5C491.564 255.5 491.892 255.5 492.219 255.5C492.547 255.5 492.874 255.5 493.2 255.5C493.527 255.5 493.853 255.5 494.179 255.5C494.505 255.5 494.831 255.5 495.156 255.5C495.481 255.5 495.805 255.5 496.129 255.5C496.454 255.5 496.777 255.5 497.101 255.5C497.424 255.5 497.747 255.5 498.07 255.5C498.392 255.5 498.714 255.5 499.036 255.5C499.357 255.5 499.678 255.5 499.999 255.5C500.32 255.5 500.64 255.5 500.96 255.5C501.28 255.5 501.599 255.5 501.918 255.5C502.237 255.5 502.556 255.5 502.874 255.5C503.192 255.5 503.51 255.5 503.827 255.5C504.144 255.5 504.461 255.5 504.777 255.5C505.093 255.5 505.409 255.5 505.725 255.5C506.04 255.5 506.355 255.5 506.669 255.5C506.984 255.5 507.298 255.5 507.611 255.5C507.925 255.5 508.238 255.5 508.55 255.5C508.863 255.5 509.175 255.5 509.487 255.5C509.798 255.5 510.11 255.5 510.42 255.5C510.731 255.5 511.041 255.5 511.351 255.5C511.661 255.5 511.97 255.5 512.279 255.5C512.587 255.5 512.896 255.5 513.204 255.5C513.511 255.5 513.819 255.5 514.126 255.5C514.432 255.5 514.739 255.5 515.045 255.5C515.351 255.5 515.656 255.5 515.961 255.5C516.266 255.5 516.57 255.5 516.874 255.5C517.178 255.5 517.481 255.5 517.784 255.5C518.087 255.5 518.389 255.5 518.691 255.5C518.993 255.5 519.294 255.5 519.595 255.5C519.896 255.5 520.196 255.5 520.496 255.5C520.796 255.5 521.095 255.5 521.394 255.5C521.693 255.5 521.991 255.5 522.289 255.5C522.587 255.5 522.884 255.5 523.181 255.5C523.478 255.5 523.774 255.5 524.069 255.5C524.365 255.5 524.66 255.5 524.955 255.5C525.249 255.5 525.544 255.5 525.837 255.5C526.131 255.5 526.424 255.5 526.716 255.5C527.009 255.5 527.301 255.5 527.592 255.5C527.883 255.5 528.174 255.5 528.465 255.5C528.755 255.5 529.045 255.5 529.334 255.5C529.623 255.5 529.912 255.5 530.2 255.5C530.488 255.5 530.776 255.5 531.063 255.5C531.35 255.5 531.636 255.5 531.922 255.5C532.208 255.5 532.493 255.5 532.778 255.5C533.063 255.5 533.347 255.5 533.631 255.5C533.915 255.5 534.198 255.5 534.48 255.5C534.763 255.5 535.045 255.5 535.326 255.5C535.608 255.5 535.888 255.5 536.169 255.5C536.449 255.5 536.729 255.5 537.008 255.5C537.287 255.5 537.565 255.5 537.843 255.5C538.121 255.5 538.399 255.5 538.676 255.5C538.952 255.5 539.229 255.5 539.504 255.5C539.78 255.5 540.055 255.5 540.329 255.5C540.604 255.5 540.877 255.5 541.151 255.5C541.424 255.5 541.697 255.5 541.969 255.5C542.241 255.5 542.512 255.5 542.783 255.5C543.054 255.5 543.324 255.5 543.594 255.5C543.863 255.5 544.133 255.5 544.401 255.5C544.669 255.5 544.937 255.5 545.204 255.5C545.472 255.5 545.738 255.5 546.004 255.5C546.27 255.5 546.536 255.5 546.8 255.5C547.065 255.5 547.329 255.5 547.593 255.5C547.856 255.5 548.119 255.5 548.381 255.5C548.644 255.5 548.905 255.5 549.166 255.5C549.427 255.5 549.688 255.5 549.947 255.5C550.207 255.5 550.466 255.5 550.725 255.5C550.983 255.5 551.241 255.5 551.498 255.5C551.756 255.5 552.012 255.5 552.268 255.5C552.524 255.5 552.779 255.5 553.034 255.5C553.289 255.5 553.543 255.5 553.796 255.5C554.049 255.5 554.302 255.5 554.554 255.5C554.806 255.5 555.057 255.5 555.308 255.5C555.559 255.5 555.809 255.5 556.058 255.5C556.308 255.5 556.557 255.5 556.805 255.5C557.053 255.5 557.3 255.5 557.547 255.5C557.794 255.5 558.04 255.5 558.285 255.5C558.531 255.5 558.775 255.5 559.019 255.5C559.264 255.5 559.507 255.5 559.75 255.5C559.992 255.5 560.234 255.5 560.476 255.5C560.717 255.5 560.958 255.5 561.198 255.5C561.438 255.5 561.677 255.5 561.916 255.5C562.155 255.5 562.393 255.5 562.63 255.5C562.867 255.5 563.104 255.5 563.339 255.5C563.575 255.5 563.811 255.5 564.045 255.5C564.28 255.5 564.513 255.5 564.746 255.5C564.98 255.5 565.212 255.5 565.444 255.5C565.675 255.5 565.906 255.5 566.137 255.5C566.367 255.5 566.596 255.5 566.825 255.5C567.054 255.5 567.282 255.5 567.51 255.5C567.737 255.5 567.964 255.5 568.19 255.5C568.416 255.5 568.641 255.5 568.866 255.5C569.09 255.5 569.314 255.5 569.537 255.5C569.76 255.5 569.983 255.5 570.204 255.5C570.426 255.5 570.647 255.5 570.867 255.5C571.087 255.5 571.307 255.5 571.526 255.5C571.744 255.5 571.962 255.5 572.18 255.5C572.397 255.5 572.613 255.5 572.829 255.5C573.045 255.5 573.26 255.5 573.474 255.5C573.689 255.5 573.902 255.5 574.115 255.5C574.328 255.5 574.54 255.5 574.751 255.5C574.962 255.5 575.173 255.5 575.383 255.5C575.593 255.5 575.802 255.5 576.01 255.5C576.218 255.5 576.426 255.5 576.632 255.5C576.839 255.5 577.045 255.5 577.25 255.5C577.456 255.5 577.66 255.5 577.864 255.5C578.068 255.5 578.271 255.5 578.473 255.5C578.675 255.5 578.876 255.5 579.077 255.5C579.277 255.5 579.477 255.5 579.676 255.5C579.875 255.5 580.074 255.5 580.271 255.5C580.469 255.5 580.665 255.5 580.861 255.5C581.057 255.5 581.252 255.5 581.447 255.5C581.641 255.5 581.835 255.5 582.027 255.5C582.22 255.5 582.412 255.5 582.603 255.5C582.795 255.5 582.985 255.5 583.175 255.5C583.364 255.5 583.553 255.5 583.741 255.5C583.929 255.5 584.116 255.5 584.302 255.5C584.489 255.5 584.674 255.5 584.859 255.5C585.044 255.5 585.228 255.5 585.411 255.5C585.594 255.5 585.776 255.5 585.958 255.5C586.139 255.5 586.32 255.5 586.5 255.5C586.68 255.5 586.859 255.5 587.037 255.5C587.215 255.5 587.393 255.5 587.569 255.5C587.746 255.5 587.922 255.5 588.097 255.5C588.271 255.5 588.446 255.5 588.619 255.5C588.792 255.5 588.964 255.5 589.136 255.5C589.308 255.5 589.478 255.5 589.648 255.5C589.818 255.5 589.987 255.5 590.155 255.5C590.324 255.5 590.491 255.5 590.658 255.5C590.824 255.5 590.99 255.5 591.155 255.5C591.319 255.5 591.483 255.5 591.647 255.5C591.81 255.5 591.972 255.5 592.133 255.5C592.295 255.5 592.455 255.5 592.615 255.5C592.775 255.5 592.934 255.5 593.091 255.5C593.249 255.5 593.407 255.5 593.563 255.5C593.719 255.5 593.874 255.5 594.029 255.5C594.183 255.5 594.337 255.5 594.49 255.5C594.642 255.5 594.794 255.5 594.945 255.5C595.096 255.5 595.246 255.5 595.396 255.5C595.545 255.5 595.693 255.5 595.841 255.5C595.988 255.5 596.135 255.5 596.281 255.5C596.426 255.5 596.571 255.5 596.715 255.5C596.859 255.5 597.002 255.5 597.144 255.5C597.286 255.5 597.427 255.5 597.568 255.5C597.708 255.5 597.847 255.5 597.986 255.5C598.125 255.5 598.262 255.5 598.399 255.5C598.536 255.5 598.671 255.5 598.806 255.5C598.941 255.5 599.075 255.5 599.208 255.5C599.341 255.5 599.474 255.5 599.605 255.5C599.736 255.5 599.867 255.5 599.996 255.5C600.125 255.5 600.254 255.5 600.382 255.5C600.509 255.5 600.636 255.5 600.761 255.5C600.887 255.5 601.012 255.5 601.136 255.5C601.26 255.5 601.383 255.5 601.505 255.5C601.627 255.5 601.748 255.5 601.868 255.5C601.988 255.5 602.107 255.5 602.226 255.5C602.344 255.5 602.461 255.5 602.578 255.5C602.694 255.5 602.81 255.5 602.924 255.5C603.039 255.5 603.152 255.5 603.265 255.5C603.377 255.5 603.489 255.5 603.6 255.5C603.71 255.5 603.82 255.5 603.929 255.5C604.038 255.5 604.146 255.5 604.252 255.5C604.359 255.5 604.465 255.5 604.57 255.5C604.675 255.5 604.779 255.5 604.882 255.5C604.985 255.5 605.087 255.5 605.188 255.5C605.289 255.5 605.39 255.5 605.489 255.5C605.588 255.5 605.686 255.5 605.783 255.5C605.88 255.5 605.977 255.5 606.072 255.5C606.167 255.5 606.261 255.5 606.355 255.5C606.448 255.5 606.54 255.5 606.631 255.5C606.723 255.5 606.813 255.5 606.902 255.5C606.992 255.5 607.08 255.5 607.167 255.5C607.255 255.5 607.341 255.5 607.426 255.5C607.512 255.5 607.596 255.5 607.679 255.5C607.763 255.5 607.845 255.5 607.926 255.5C608.008 255.5 608.088 255.5 608.167 255.5C608.247 255.5 608.325 255.5 608.402 255.5C608.48 255.5 608.556 255.5 608.631 255.5C608.707 255.5 608.781 255.5 608.854 255.5C608.927 255.5 609 255.5 609.071 255.5C609.142 255.5 609.212 255.5 609.281 255.5C609.351 255.5 609.419 255.5 609.486 255.5C609.553 255.5 609.619 255.5 609.684 255.5C609.749 255.5 609.813 255.5 609.876 255.5C609.939 255.5 610.001 255.5 610.062 255.5C610.123 255.5 610.183 255.5 610.242 255.5C610.3 255.5 610.358 255.5 610.415 255.5C610.472 255.5 610.527 255.5 610.582 255.5C610.637 255.5 610.69 255.5 610.743 255.5C610.795 255.5 610.847 255.5 610.897 255.5C610.948 255.5 610.997 255.5 611.045 255.5C611.094 255.5 611.141 255.5 611.187 255.5C611.233 255.5 611.278 255.5 611.323 255.5C611.367 255.5 611.41 255.5 611.452 255.5C611.494 255.5 611.534 255.5 611.574 255.5C611.614 255.5 611.653 255.5 611.69 255.5C611.728 255.5 611.765 255.5 611.8 255.5C611.836 255.5 611.87 255.5 611.903 255.5C611.937 255.5 611.969 255.5 612 255.5V258.5C611.969 258.5 611.937 258.5 611.903 258.5C611.87 258.5 611.836 258.5 611.8 258.5C611.765 258.5 611.728 258.5 611.69 258.5C611.653 258.5 611.614 258.5 611.574 258.5C611.534 258.5 611.494 258.5 611.452 258.5C611.41 258.5 611.367 258.5 611.323 258.5C611.278 258.5 611.233 258.5 611.187 258.5C611.141 258.5 611.094 258.5 611.045 258.5C610.997 258.5 610.948 258.5 610.897 258.5C610.847 258.5 610.795 258.5 610.743 258.5C610.69 258.5 610.637 258.5 610.582 258.5C610.527 258.5 610.472 258.5 610.415 258.5C610.358 258.5 610.3 258.5 610.242 258.5C610.183 258.5 610.123 258.5 610.062 258.5C610.001 258.5 609.939 258.5 609.876 258.5C609.813 258.5 609.749 258.5 609.684 258.5C609.619 258.5 609.553 258.5 609.486 258.5C609.419 258.5 609.351 258.5 609.281 258.5C609.212 258.5 609.142 258.5 609.071 258.5C609 258.5 608.927 258.5 608.854 258.5C608.781 258.5 608.707 258.5 608.631 258.5C608.556 258.5 608.48 258.5 608.402 258.5C608.325 258.5 608.247 258.5 608.167 258.5C608.088 258.5 608.008 258.5 607.926 258.5C607.845 258.5 607.763 258.5 607.679 258.5C607.596 258.5 607.512 258.5 607.426 258.5C607.341 258.5 607.255 258.5 607.167 258.5C607.08 258.5 606.992 258.5 606.902 258.5C606.813 258.5 606.723 258.5 606.631 258.5C606.54 258.5 606.448 258.5 606.355 258.5C606.261 258.5 606.167 258.5 606.072 258.5C605.977 258.5 605.88 258.5 605.783 258.5C605.686 258.5 605.588 258.5 605.489 258.5C605.39 258.5 605.289 258.5 605.188 258.5C605.087 258.5 604.985 258.5 604.882 258.5C604.779 258.5 604.675 258.5 604.57 258.5C604.465 258.5 604.359 258.5 604.252 258.5C604.146 258.5 604.038 258.5 603.929 258.5C603.82 258.5 603.71 258.5 603.6 258.5C603.489 258.5 603.377 258.5 603.265 258.5C603.152 258.5 603.039 258.5 602.924 258.5C602.81 258.5 602.694 258.5 602.578 258.5C602.461 258.5 602.344 258.5 602.226 258.5C602.107 258.5 601.988 258.5 601.868 258.5C601.748 258.5 601.627 258.5 601.505 258.5C601.383 258.5 601.26 258.5 601.136 258.5C601.012 258.5 600.887 258.5 600.761 258.5C600.636 258.5 600.509 258.5 600.382 258.5C600.254 258.5 600.125 258.5 599.996 258.5C599.867 258.5 599.736 258.5 599.605 258.5C599.474 258.5 599.341 258.5 599.208 258.5C599.075 258.5 598.941 258.5 598.806 258.5C598.671 258.5 598.536 258.5 598.399 258.5C598.262 258.5 598.125 258.5 597.986 258.5C597.847 258.5 597.708 258.5 597.568 258.5C597.427 258.5 597.286 258.5 597.144 258.5C597.002 258.5 596.859 258.5 596.715 258.5C596.571 258.5 596.426 258.5 596.281 258.5C596.135 258.5 595.988 258.5 595.841 258.5C595.693 258.5 595.545 258.5 595.396 258.5C595.246 258.5 595.096 258.5 594.945 258.5C594.794 258.5 594.642 258.5 594.49 258.5C594.337 258.5 594.183 258.5 594.029 258.5C593.874 258.5 593.719 258.5 593.563 258.5C593.407 258.5 593.249 258.5 593.091 258.5C592.934 258.5 592.775 258.5 592.615 258.5C592.455 258.5 592.295 258.5 592.133 258.5C591.972 258.5 591.81 258.5 591.647 258.5C591.483 258.5 591.319 258.5 591.155 258.5C590.99 258.5 590.824 258.5 590.658 258.5C590.491 258.5 590.324 258.5 590.155 258.5C589.987 258.5 589.818 258.5 589.648 258.5C589.478 258.5 589.308 258.5 589.136 258.5C588.964 258.5 588.792 258.5 588.619 258.5C588.446 258.5 588.271 258.5 588.097 258.5C587.922 258.5 587.746 258.5 587.569 258.5C587.393 258.5 587.215 258.5 587.037 258.5C586.859 258.5 586.68 258.5 586.5 258.5C586.32 258.5 586.139 258.5 585.958 258.5C585.776 258.5 585.594 258.5 585.411 258.5C585.228 258.5 585.044 258.5 584.859 258.5C584.674 258.5 584.489 258.5 584.302 258.5C584.116 258.5 583.929 258.5 583.741 258.5C583.553 258.5 583.364 258.5 583.175 258.5C582.985 258.5 582.795 258.5 582.603 258.5C582.412 258.5 582.22 258.5 582.027 258.5C581.835 258.5 581.641 258.5 581.447 258.5C581.252 258.5 581.057 258.5 580.861 258.5C580.665 258.5 580.469 258.5 580.271 258.5C580.074 258.5 579.875 258.5 579.676 258.5C579.477 258.5 579.277 258.5 579.077 258.5C578.876 258.5 578.675 258.5 578.473 258.5C578.271 258.5 578.068 258.5 577.864 258.5C577.66 258.5 577.456 258.5 577.25 258.5C577.045 258.5 576.839 258.5 576.632 258.5C576.426 258.5 576.218 258.5 576.01 258.5C575.802 258.5 575.593 258.5 575.383 258.5C575.173 258.5 574.962 258.5 574.751 258.5C574.54 258.5 574.328 258.5 574.115 258.5C573.902 258.5 573.689 258.5 573.474 258.5C573.26 258.5 573.045 258.5 572.829 258.5C572.613 258.5 572.397 258.5 572.18 258.5C571.962 258.5 571.744 258.5 571.526 258.5C571.307 258.5 571.087 258.5 570.867 258.5C570.647 258.5 570.426 258.5 570.204 258.5C569.983 258.5 569.76 258.5 569.537 258.5C569.314 258.5 569.09 258.5 568.866 258.5C568.641 258.5 568.416 258.5 568.19 258.5C567.964 258.5 567.737 258.5 567.51 258.5C567.282 258.5 567.054 258.5 566.825 258.5C566.596 258.5 566.367 258.5 566.137 258.5C565.906 258.5 565.675 258.5 565.444 258.5C565.212 258.5 564.98 258.5 564.746 258.5C564.513 258.5 564.28 258.5 564.045 258.5C563.811 258.5 563.575 258.5 563.339 258.5C563.104 258.5 562.867 258.5 562.63 258.5C562.393 258.5 562.155 258.5 561.916 258.5C561.677 258.5 561.438 258.5 561.198 258.5C560.958 258.5 560.717 258.5 560.476 258.5C560.234 258.5 559.992 258.5 559.75 258.5C559.507 258.5 559.264 258.5 559.019 258.5C558.775 258.5 558.531 258.5 558.285 258.5C558.04 258.5 557.794 258.5 557.547 258.5C557.3 258.5 557.053 258.5 556.805 258.5C556.557 258.5 556.308 258.5 556.058 258.5C555.809 258.5 555.559 258.5 555.308 258.5C555.057 258.5 554.806 258.5 554.554 258.5C554.302 258.5 554.049 258.5 553.796 258.5C553.543 258.5 553.289 258.5 553.034 258.5C552.779 258.5 552.524 258.5 552.268 258.5C552.012 258.5 551.756 258.5 551.498 258.5C551.241 258.5 550.983 258.5 550.725 258.5C550.466 258.5 550.207 258.5 549.947 258.5C549.688 258.5 549.427 258.5 549.166 258.5C548.905 258.5 548.644 258.5 548.381 258.5C548.119 258.5 547.856 258.5 547.593 258.5C547.329 258.5 547.065 258.5 546.8 258.5C546.536 258.5 546.27 258.5 546.004 258.5C545.738 258.5 545.472 258.5 545.204 258.5C544.937 258.5 544.669 258.5 544.401 258.5C544.133 258.5 543.863 258.5 543.594 258.5C543.324 258.5 543.054 258.5 542.783 258.5C542.512 258.5 542.241 258.5 541.969 258.5C541.697 258.5 541.424 258.5 541.151 258.5C540.877 258.5 540.604 258.5 540.329 258.5C540.055 258.5 539.78 258.5 539.504 258.5C539.229 258.5 538.952 258.5 538.676 258.5C538.399 258.5 538.121 258.5 537.843 258.5C537.565 258.5 537.287 258.5 537.008 258.5C536.729 258.5 536.449 258.5 536.169 258.5C535.888 258.5 535.608 258.5 535.326 258.5C535.045 258.5 534.763 258.5 534.48 258.5C534.198 258.5 533.915 258.5 533.631 258.5C533.347 258.5 533.063 258.5 532.778 258.5C532.493 258.5 532.208 258.5 531.922 258.5C531.636 258.5 531.35 258.5 531.063 258.5C530.776 258.5 530.488 258.5 530.2 258.5C529.912 258.5 529.623 258.5 529.334 258.5C529.045 258.5 528.755 258.5 528.465 258.5C528.174 258.5 527.883 258.5 527.592 258.5C527.301 258.5 527.009 258.5 526.716 258.5C526.424 258.5 526.131 258.5 525.837 258.5C525.544 258.5 525.249 258.5 524.955 258.5C524.66 258.5 524.365 258.5 524.069 258.5C523.774 258.5 523.478 258.5 523.181 258.5C522.884 258.5 522.587 258.5 522.289 258.5C521.991 258.5 521.693 258.5 521.394 258.5C521.095 258.5 520.796 258.5 520.496 258.5C520.196 258.5 519.896 258.5 519.595 258.5C519.294 258.5 518.993 258.5 518.691 258.5C518.389 258.5 518.087 258.5 517.784 258.5C517.481 258.5 517.178 258.5 516.874 258.5C516.57 258.5 516.266 258.5 515.961 258.5C515.656 258.5 515.351 258.5 515.045 258.5C514.739 258.5 514.432 258.5 514.126 258.5C513.819 258.5 513.511 258.5 513.204 258.5C512.896 258.5 512.587 258.5 512.279 258.5C511.97 258.5 511.661 258.5 511.351 258.5C511.041 258.5 510.731 258.5 510.42 258.5C510.11 258.5 509.798 258.5 509.487 258.5C509.175 258.5 508.863 258.5 508.55 258.5C508.238 258.5 507.925 258.5 507.611 258.5C507.298 258.5 506.984 258.5 506.669 258.5C506.355 258.5 506.04 258.5 505.725 258.5C505.409 258.5 505.093 258.5 504.777 258.5C504.461 258.5 504.144 258.5 503.827 258.5C503.51 258.5 503.192 258.5 502.874 258.5C502.556 258.5 502.237 258.5 501.918 258.5C501.599 258.5 501.28 258.5 500.96 258.5C500.64 258.5 500.32 258.5 499.999 258.5C499.678 258.5 499.357 258.5 499.036 258.5C498.714 258.5 498.392 258.5 498.07 258.5C497.747 258.5 497.424 258.5 497.101 258.5C496.777 258.5 496.454 258.5 496.129 258.5C495.805 258.5 495.481 258.5 495.156 258.5C494.831 258.5 494.505 258.5 494.179 258.5C493.853 258.5 493.527 258.5 493.2 258.5C492.874 258.5 492.547 258.5 492.219 258.5C491.892 258.5 491.564 258.5 491.235 258.5C490.907 258.5 490.578 258.5 490.249 258.5C489.92 258.5 489.59 258.5 489.26 258.5C488.93 258.5 488.6 258.5 488.269 258.5C487.939 258.5 487.607 258.5 487.276 258.5C486.944 258.5 486.612 258.5 486.28 258.5C485.948 258.5 485.615 258.5 485.282 258.5C484.949 258.5 484.615 258.5 484.281 258.5C483.947 258.5 483.613 258.5 483.279 258.5C482.944 258.5 482.609 258.5 482.274 258.5C481.938 258.5 481.602 258.5 481.266 258.5C480.93 258.5 480.594 258.5 480.257 258.5C479.92 258.5 479.583 258.5 479.245 258.5C478.907 258.5 478.569 258.5 478.231 258.5C477.893 258.5 477.554 258.5 477.215 258.5C476.876 258.5 476.536 258.5 476.197 258.5C475.857 258.5 475.517 258.5 475.176 258.5C474.836 258.5 474.495 258.5 474.154 258.5C473.812 258.5 473.471 258.5 473.129 258.5C472.787 258.5 472.445 258.5 472.102 258.5C471.76 258.5 471.417 258.5 471.074 258.5C470.73 258.5 470.387 258.5 470.043 258.5C469.699 258.5 469.355 258.5 469.01 258.5C468.665 258.5 468.32 258.5 467.975 258.5C467.63 258.5 467.284 258.5 466.938 258.5C466.592 258.5 466.246 258.5 465.9 258.5C465.553 258.5 465.206 258.5 464.859 258.5C464.512 258.5 464.164 258.5 463.816 258.5C463.469 258.5 463.12 258.5 462.772 258.5C462.424 258.5 462.075 258.5 461.726 258.5C461.377 258.5 461.027 258.5 460.678 258.5C460.328 258.5 459.978 258.5 459.628 258.5C459.277 258.5 458.927 258.5 458.576 258.5C458.225 258.5 457.874 258.5 457.522 258.5C457.171 258.5 456.819 258.5 456.467 258.5C456.115 258.5 455.762 258.5 455.41 258.5C455.057 258.5 454.704 258.5 454.351 258.5C453.998 258.5 453.644 258.5 453.29 258.5C452.937 258.5 452.583 258.5 452.228 258.5C451.874 258.5 451.519 258.5 451.164 258.5C450.809 258.5 450.454 258.5 450.099 258.5C449.743 258.5 449.388 258.5 449.032 258.5C448.676 258.5 448.32 258.5 447.963 258.5C447.607 258.5 447.25 258.5 446.893 258.5C446.536 258.5 446.178 258.5 445.821 258.5C445.463 258.5 445.105 258.5 444.747 258.5C444.389 258.5 444.031 258.5 443.672 258.5C443.314 258.5 442.955 258.5 442.596 258.5C442.237 258.5 441.878 258.5 441.518 258.5C441.159 258.5 440.799 258.5 440.439 258.5C440.079 258.5 439.718 258.5 439.358 258.5C438.997 258.5 438.637 258.5 438.276 258.5C437.915 258.5 437.554 258.5 437.192 258.5C436.831 258.5 436.469 258.5 436.107 258.5C435.745 258.5 435.383 258.5 435.021 258.5C434.658 258.5 434.296 258.5 433.933 258.5C433.57 258.5 433.207 258.5 432.844 258.5C432.481 258.5 432.117 258.5 431.754 258.5C431.39 258.5 431.026 258.5 430.662 258.5C430.298 258.5 429.934 258.5 429.569 258.5C429.205 258.5 428.84 258.5 428.475 258.5C428.11 258.5 427.745 258.5 427.38 258.5C427.015 258.5 426.649 258.5 426.284 258.5C425.918 258.5 425.552 258.5 425.186 258.5C424.82 258.5 424.454 258.5 424.087 258.5C423.721 258.5 423.354 258.5 422.987 258.5C422.62 258.5 422.253 258.5 421.886 258.5C421.519 258.5 421.152 258.5 420.784 258.5C420.416 258.5 420.049 258.5 419.681 258.5C419.313 258.5 418.945 258.5 418.577 258.5C418.208 258.5 417.84 258.5 417.471 258.5C417.103 258.5 416.734 258.5 416.365 258.5C415.996 258.5 415.627 258.5 415.258 258.5C414.889 258.5 414.519 258.5 414.15 258.5C413.78 258.5 413.41 258.5 413.04 258.5C412.67 258.5 412.3 258.5 411.93 258.5C411.56 258.5 411.19 258.5 410.819 258.5C410.449 258.5 410.078 258.5 409.707 258.5C409.337 258.5 408.966 258.5 408.595 258.5C408.224 258.5 407.852 258.5 407.481 258.5C407.11 258.5 406.738 258.5 406.367 258.5C405.995 258.5 405.623 258.5 405.251 258.5C404.879 258.5 404.507 258.5 404.135 258.5C403.763 258.5 403.391 258.5 403.019 258.5C402.646 258.5 402.274 258.5 401.901 258.5C401.528 258.5 401.156 258.5 400.783 258.5C400.41 258.5 400.037 258.5 399.664 258.5C399.291 258.5 398.918 258.5 398.544 258.5C398.171 258.5 397.797 258.5 397.424 258.5C397.05 258.5 396.677 258.5 396.303 258.5C395.929 258.5 395.555 258.5 395.181 258.5C394.808 258.5 394.434 258.5 394.059 258.5C393.685 258.5 393.311 258.5 392.937 258.5C392.562 258.5 392.188 258.5 391.813 258.5C391.439 258.5 391.064 258.5 390.69 258.5C390.315 258.5 389.94 258.5 389.565 258.5C389.19 258.5 388.815 258.5 388.44 258.5C388.065 258.5 387.69 258.5 387.315 258.5C386.94 258.5 386.565 258.5 386.189 258.5C385.814 258.5 385.439 258.5 385.063 258.5C384.688 258.5 384.312 258.5 383.937 258.5C383.561 258.5 383.185 258.5 382.81 258.5C382.434 258.5 382.058 258.5 381.682 258.5C381.306 258.5 380.931 258.5 380.555 258.5C380.179 258.5 379.803 258.5 379.426 258.5C379.05 258.5 378.674 258.5 378.298 258.5C377.922 258.5 377.546 258.5 377.169 258.5C376.793 258.5 376.417 258.5 376.041 258.5C375.664 258.5 375.288 258.5 374.911 258.5C374.535 258.5 374.159 258.5 373.782 258.5C373.405 258.5 373.029 258.5 372.652 258.5C372.276 258.5 371.899 258.5 371.523 258.5C371.146 258.5 370.769 258.5 370.393 258.5C370.016 258.5 369.639 258.5 369.263 258.5C368.886 258.5 368.509 258.5 368.132 258.5C367.756 258.5 367.379 258.5 367.002 258.5C366.625 258.5 366.248 258.5 365.871 258.5C365.495 258.5 365.118 258.5 364.741 258.5C364.364 258.5 363.987 258.5 363.61 258.5C363.234 258.5 362.857 258.5 362.48 258.5C362.103 258.5 361.726 258.5 361.349 258.5C360.972 258.5 360.596 258.5 360.219 258.5C359.842 258.5 359.465 258.5 359.088 258.5C358.711 258.5 358.335 258.5 357.958 258.5C357.581 258.5 357.204 258.5 356.827 258.5C356.451 258.5 356.074 258.5 355.697 258.5C355.32 258.5 354.944 258.5 354.567 258.5C354.19 258.5 353.814 258.5 353.437 258.5C353.06 258.5 352.684 258.5 352.307 258.5C351.93 258.5 351.554 258.5 351.177 258.5C350.801 258.5 350.424 258.5 350.048 258.5C349.671 258.5 349.295 258.5 348.919 258.5C348.542 258.5 348.166 258.5 347.79 258.5C347.413 258.5 347.037 258.5 346.661 258.5C346.285 258.5 345.908 258.5 345.532 258.5C345.156 258.5 344.78 258.5 344.404 258.5C344.028 258.5 343.652 258.5 343.276 258.5C342.9 258.5 342.525 258.5 342.149 258.5C341.773 258.5 341.397 258.5 341.022 258.5C340.646 258.5 340.27 258.5 339.895 258.5C339.519 258.5 339.144 258.5 338.769 258.5C338.393 258.5 338.018 258.5 337.643 258.5C337.267 258.5 336.892 258.5 336.517 258.5C336.142 258.5 335.767 258.5 335.392 258.5C335.017 258.5 334.642 258.5 334.268 258.5C333.893 258.5 333.518 258.5 333.144 258.5C332.769 258.5 332.395 258.5 332.02 258.5C331.646 258.5 331.271 258.5 330.897 258.5C330.523 258.5 330.149 258.5 329.775 258.5C329.401 258.5 329.027 258.5 328.653 258.5C328.279 258.5 327.905 258.5 327.532 258.5C327.158 258.5 326.785 258.5 326.411 258.5C326.038 258.5 325.665 258.5 325.291 258.5C324.918 258.5 324.545 258.5 324.172 258.5C323.799 258.5 323.426 258.5 323.054 258.5C322.681 258.5 322.308 258.5 321.936 258.5C321.563 258.5 321.191 258.5 320.819 258.5C320.447 258.5 320.074 258.5 319.703 258.5C319.331 258.5 318.959 258.5 318.587 258.5C318.215 258.5 317.844 258.5 317.472 258.5C317.101 258.5 316.729 258.5 316.358 258.5C315.987 258.5 315.616 258.5 315.245 258.5C314.874 258.5 314.504 258.5 314.133 258.5C313.762 258.5 313.392 258.5 313.022 258.5C312.651 258.5 312.281 258.5 311.911 258.5C311.541 258.5 311.171 258.5 310.802 258.5C310.432 258.5 310.062 258.5 309.693 258.5C309.324 258.5 308.954 258.5 308.585 258.5C308.216 258.5 307.847 258.5 307.479 258.5C307.11 258.5 306.741 258.5 306.373 258.5C306.005 258.5 305.636 258.5 305.268 258.5C304.9 258.5 304.532 258.5 304.165 258.5C303.797 258.5 303.429 258.5 303.062 258.5C302.695 258.5 302.328 258.5 301.961 258.5C301.594 258.5 301.227 258.5 300.86 258.5C300.494 258.5 300.127 258.5 299.761 258.5C299.395 258.5 299.029 258.5 298.663 258.5C298.297 258.5 297.931 258.5 297.566 258.5C297.2 258.5 296.835 258.5 296.47 258.5C296.105 258.5 295.74 258.5 295.376 258.5C295.011 258.5 294.647 258.5 294.282 258.5C293.918 258.5 293.554 258.5 293.19 258.5C292.826 258.5 292.463 258.5 292.099 258.5C291.736 258.5 291.373 258.5 291.01 258.5C290.647 258.5 290.284 258.5 289.922 258.5C289.559 258.5 289.197 258.5 288.835 258.5C288.473 258.5 288.111 258.5 287.749 258.5C287.388 258.5 287.026 258.5 286.665 258.5C286.304 258.5 285.943 258.5 285.582 258.5C285.221 258.5 284.861 258.5 284.501 258.5C284.141 258.5 283.781 258.5 283.421 258.5C283.061 258.5 282.702 258.5 282.342 258.5C281.983 258.5 281.624 258.5 281.265 258.5C280.907 258.5 280.548 258.5 280.19 258.5C279.832 258.5 279.474 258.5 279.116 258.5C278.758 258.5 278.401 258.5 278.043 258.5C277.686 258.5 277.329 258.5 276.972 258.5C276.616 258.5 276.259 258.5 275.903 258.5C275.547 258.5 275.191 258.5 274.835 258.5C274.48 258.5 274.124 258.5 273.769 258.5C273.414 258.5 273.059 258.5 272.704 258.5C272.35 258.5 271.996 258.5 271.642 258.5C271.288 258.5 270.934 258.5 270.58 258.5C270.227 258.5 269.874 258.5 269.521 258.5C269.168 258.5 268.815 258.5 268.463 258.5C268.111 258.5 267.759 258.5 267.407 258.5C267.055 258.5 266.704 258.5 266.353 258.5C266.002 258.5 265.651 258.5 265.3 258.5C264.95 258.5 264.599 258.5 264.25 258.5C263.9 258.5 263.55 258.5 263.201 258.5C262.851 258.5 262.502 258.5 262.154 258.5C261.805 258.5 261.457 258.5 261.108 258.5C260.76 258.5 260.413 258.5 260.065 258.5C259.718 258.5 259.371 258.5 259.024 258.5C258.677 258.5 258.33 258.5 257.984 258.5C257.638 258.5 257.292 258.5 256.947 258.5C256.601 258.5 256.256 258.5 255.911 258.5C255.566 258.5 255.222 258.5 254.877 258.5C254.533 258.5 254.189 258.5 253.846 258.5C253.502 258.5 253.159 258.5 252.816 258.5C252.473 258.5 252.131 258.5 251.789 258.5C251.447 258.5 251.105 258.5 250.763 258.5C250.422 258.5 250.081 258.5 249.74 258.5C249.399 258.5 249.059 258.5 248.719 258.5C248.379 258.5 248.039 258.5 247.699 258.5C247.36 258.5 247.021 258.5 246.682 258.5C246.344 258.5 246.006 258.5 245.668 258.5C245.33 258.5 244.992 258.5 244.655 258.5C244.318 258.5 243.981 258.5 243.645 258.5C243.308 258.5 242.972 258.5 242.636 258.5C242.301 258.5 241.965 258.5 241.63 258.5C241.295 258.5 240.961 258.5 240.627 258.5C240.293 258.5 239.959 258.5 239.625 258.5C239.292 258.5 238.959 258.5 238.626 258.5C238.294 258.5 237.961 258.5 237.629 258.5C237.298 258.5 236.966 258.5 236.635 258.5C236.304 258.5 235.973 258.5 235.643 258.5C235.313 258.5 234.983 258.5 234.653 258.5C234.324 258.5 233.995 258.5 233.666 258.5C233.337 258.5 233.009 258.5 232.681 258.5C232.353 258.5 232.026 258.5 231.699 258.5C231.372 258.5 231.045 258.5 230.719 258.5C230.393 258.5 230.067 258.5 229.742 258.5C229.416 258.5 229.091 258.5 228.767 258.5C228.442 258.5 228.118 258.5 227.795 258.5C227.471 258.5 227.148 258.5 226.825 258.5C226.502 258.5 226.18 258.5 225.858 258.5C225.536 258.5 225.214 258.5 224.893 258.5C224.572 258.5 224.251 258.5 223.931 258.5C223.611 258.5 223.291 258.5 222.972 258.5C222.652 258.5 222.334 258.5 222.015 258.5C221.697 258.5 221.379 258.5 221.061 258.5C220.744 258.5 220.426 258.5 220.11 258.5C219.793 258.5 219.477 258.5 219.161 258.5C218.845 258.5 218.53 258.5 218.215 258.5C217.901 258.5 217.586 258.5 217.272 258.5C216.958 258.5 216.645 258.5 216.332 258.5C216.019 258.5 215.707 258.5 215.395 258.5C215.083 258.5 214.771 258.5 214.46 258.5C214.149 258.5 213.838 258.5 213.528 258.5C213.218 258.5 212.908 258.5 212.599 258.5C212.29 258.5 211.981 258.5 211.673 258.5C211.365 258.5 211.057 258.5 210.75 258.5C210.443 258.5 210.136 258.5 209.83 258.5C209.523 258.5 209.218 258.5 208.912 258.5C208.607 258.5 208.302 258.5 207.998 258.5C207.694 258.5 207.39 258.5 207.087 258.5C206.783 258.5 206.481 258.5 206.178 258.5C205.876 258.5 205.574 258.5 205.273 258.5C204.972 258.5 204.671 258.5 204.371 258.5C204.07 258.5 203.771 258.5 203.472 258.5C203.172 258.5 202.874 258.5 202.575 258.5C202.277 258.5 201.98 258.5 201.682 258.5C201.385 258.5 201.089 258.5 200.793 258.5C200.496 258.5 200.201 258.5 199.906 258.5C199.611 258.5 199.316 258.5 199.022 258.5C198.728 258.5 198.435 258.5 198.142 258.5C197.849 258.5 197.557 258.5 197.265 258.5C196.973 258.5 196.682 258.5 196.391 258.5C196.1 258.5 195.81 258.5 195.52 258.5C195.231 258.5 194.941 258.5 194.653 258.5C194.364 258.5 194.076 258.5 193.789 258.5C193.501 258.5 193.214 258.5 192.928 258.5C192.642 258.5 192.356 258.5 192.071 258.5C191.785 258.5 191.501 258.5 191.217 258.5C190.932 258.5 190.649 258.5 190.366 258.5C190.083 258.5 189.8 258.5 189.519 258.5C189.237 258.5 188.955 258.5 188.675 258.5C188.394 258.5 188.114 258.5 187.834 258.5C187.555 258.5 187.276 258.5 186.997 258.5C186.719 258.5 186.441 258.5 186.164 258.5C185.886 258.5 185.61 258.5 185.334 258.5C185.058 258.5 184.782 258.5 184.507 258.5C184.232 258.5 183.958 258.5 183.684 258.5C183.41 258.5 183.137 258.5 182.865 258.5C182.592 258.5 182.32 258.5 182.049 258.5C181.778 258.5 181.507 258.5 181.237 258.5C180.967 258.5 180.697 258.5 180.428 258.5C180.159 258.5 179.891 258.5 179.623 258.5C179.356 258.5 179.088 258.5 178.822 258.5C178.555 258.5 178.29 258.5 178.024 258.5C177.759 258.5 177.494 258.5 177.23 258.5C176.966 258.5 176.703 258.5 176.44 258.5C176.178 258.5 175.915 258.5 175.654 258.5C175.392 258.5 175.131 258.5 174.871 258.5C174.611 258.5 174.351 258.5 174.092 258.5C173.833 258.5 173.575 258.5 173.317 258.5C173.06 258.5 172.802 258.5 172.546 258.5C172.29 258.5 172.034 258.5 171.779 258.5C171.523 258.5 171.269 258.5 171.015 258.5C170.761 258.5 170.508 258.5 170.255 258.5C170.003 258.5 169.751 258.5 169.5 258.5C169.248 258.5 168.998 258.5 168.748 258.5C168.498 258.5 168.249 258.5 168 258.5V255.5ZM611.959 255.501C625.744 255.123 642.853 255.761 657.167 264.236C671.603 272.783 682.896 289.104 685.454 319.394L682.464 319.646C679.967 290.067 669.04 274.751 655.639 266.817C642.117 258.811 625.773 258.124 612.041 258.499L611.959 255.501Z" fill="url(#paint3_linear_2017_53)"/>
<path d="M16 157.5L14.5 157.504V157.5H16ZM629 271L629.041 272.499L629.02 272.5H629V271ZM705.5 332.5L696.173 317.905L713.476 317.125L705.5 332.5ZM17.5 59V157.5H14.5V59H17.5ZM17.5 157.496C17.5343 170.659 17.1511 184.053 18.5338 196.859C19.9136 209.637 23.0414 221.671 30.0067 232.058C43.8799 252.744 73.4279 267.5 137 267.5V270.5C73.1312 270.5 42.2474 255.696 27.5151 233.728C20.1775 222.787 16.959 210.22 15.5511 197.181C14.1462 184.17 14.5339 170.531 14.5 157.504L17.5 157.496ZM137 267.5C200.725 267.5 319.736 268 424.808 268.5C529.888 269 621.019 269.5 629 269.5V272.5C621.01 272.5 529.861 272 424.794 271.5C319.72 271 200.716 270.5 137 270.5V267.5ZM628.959 269.501C632.372 269.407 636.021 269.183 639.85 268.97C643.668 268.759 647.649 268.561 651.671 268.528C659.705 268.463 667.996 269.051 675.639 271.549C683.313 274.056 690.329 278.487 695.768 286.063C701.193 293.618 704.973 304.194 706.386 318.874L703.399 319.161C702.021 304.837 698.36 294.816 693.331 287.813C688.317 280.829 681.869 276.74 674.707 274.4C667.515 272.05 659.599 271.464 651.695 271.528C647.749 271.561 643.828 271.755 640.016 271.966C636.216 272.176 632.508 272.405 629.041 272.499L628.959 269.501Z" fill="url(#paint4_linear_2017_53)"/>
<defs>
<linearGradient id="paint0_linear_2017_53" x1="0.108398" y1="21.0868" x2="57.6444" y2="21.0868" gradientUnits="userSpaceOnUse">
<stop stop-color="#3A7FD0"/>
<stop offset="1" stop-color="#51B29C"/>
</linearGradient>
<linearGradient id="paint1_linear_2017_53" x1="348.25" y1="59.5" x2="348.25" y2="348.5" gradientUnits="userSpaceOnUse">
<stop stop-color="#110030" stop-opacity="0.5"/>
<stop offset="1" stop-color="#51B29C"/>
</linearGradient>
<linearGradient id="paint2_linear_2017_53" x1="542" y1="-6.00002" x2="542" y2="351" gradientUnits="userSpaceOnUse">
<stop stop-color="#110030" stop-opacity="0.5"/>
<stop offset="1" stop-color="#FFAD31"/>
</linearGradient>
<linearGradient id="paint3_linear_2017_53" x1="525" y1="-6.00001" x2="525" y2="351" gradientUnits="userSpaceOnUse">
<stop stop-color="#110030" stop-opacity="0.5"/>
<stop offset="1" stop-color="#AA43CE"/>
</linearGradient>
<linearGradient id="paint4_linear_2017_53" x1="531.5" y1="-6" x2="531.5" y2="351" gradientUnits="userSpaceOnUse">
<stop stop-color="#110030" stop-opacity="0.5"/>
<stop offset="1" stop-color="#3A7FD0"/>
</linearGradient>
<clipPath id="clip0_2017_53">
<rect width="58" height="42" fill="white"/>
</clipPath>
</defs>
</svg>
