<svg width="1182" height="703" viewBox="0 0 1182 703" fill="none" xmlns="http://www.w3.org/2000/svg">
<path opacity="0.2" d="M246.724 405.645C256.688 571.435 403.108 703 582.296 703C761.483 703 907.902 571.437 917.868 405.645H246.724Z" fill="#222221"/>
<path opacity="0.1" d="M168.567 257.993H158.463C149.591 257.993 142.401 250.781 142.401 241.887C142.401 232.993 135.209 225.781 126.339 225.781H112.421C96.4991 225.781 106.276 210.796 86.0347 210.796C77.1647 210.796 69.9729 218.006 69.9729 226.902V241.887C69.9729 250.783 62.7811 257.993 53.9111 257.993H24.4324C11.3058 257.993 0.663086 268.664 0.663086 281.827C0.663086 294.991 11.3058 305.662 24.4324 305.662H168.566C181.693 305.662 192.335 294.99 192.335 281.827C192.337 268.664 181.694 257.993 168.567 257.993Z" fill="#51B29C"/>
<path opacity="0.1" d="M1152.76 149.242H1137.85C1127.23 149.242 1118.62 140.61 1118.62 129.961L1118.6 129.98C1118.37 119.805 1110.02 111.546 1099.82 111.546H1084.34C1079.06 110.45 1075.09 105.761 1075.09 100.142L1075.07 100.153C1074.94 94.0041 1069.89 89.0145 1063.73 89.0145H1061.93C1055.77 89.0145 1050.72 94.0041 1050.59 100.153L1050.58 100.142C1050.58 105.763 1046.61 110.45 1041.33 111.546H1033.08C1022.88 111.546 1014.53 119.805 1014.31 129.98L1014.28 129.961C1014.28 140.61 1005.68 149.242 995.057 149.242H996.256C980.645 149.242 967.87 162.05 967.87 177.706C967.87 193.36 980.645 206.17 996.256 206.17H1152.76C1168.37 206.17 1181.15 193.361 1181.15 177.706C1181.14 162.05 1168.37 149.242 1152.76 149.242Z" fill="#51B29C"/>
<path opacity="0.1" d="M115.577 25.0085H125.471C132.516 25.0085 138.227 19.2818 138.227 12.2172L138.241 12.2299C138.389 5.47837 143.93 0 150.696 0H169.74C176.506 0 182.048 5.47837 182.197 12.2299L182.211 12.2172C182.211 19.2818 187.922 25.0085 194.967 25.0085H194.172C204.529 25.0085 213.003 33.506 213.003 43.8918C213.003 54.2776 204.529 62.7751 194.172 62.7751H115.577C105.22 62.7751 96.7461 54.2776 96.7461 43.8918C96.7461 33.506 105.22 25.0085 115.577 25.0085Z" fill="#51B29C"/>
<path d="M587.046 406.766C586.427 406.766 585.927 406.265 585.927 405.645V356.485C585.927 313.837 536.086 293.81 489.777 293.252C439.602 292.647 370.92 282.975 353.853 206.297C353.719 205.693 354.098 205.093 354.7 204.959C355.303 204.818 355.9 205.204 356.034 205.808C372.755 280.935 440.387 290.414 489.803 291.011C537.176 291.581 588.164 312.315 588.164 356.485V405.645C588.164 406.265 587.662 406.766 587.046 406.766Z" fill="#51B29C"/>
<path d="M406.576 276.62C406.362 276.62 406.146 276.559 405.953 276.429C397.099 270.46 396.243 255.361 395.156 236.244C393.696 210.522 391.877 178.512 369.485 155.204C330.209 114.324 351.534 83.5282 351.753 83.223C352.114 82.7217 352.809 82.6078 353.311 82.9684C353.811 83.329 353.926 84.028 353.568 84.5309C353.36 84.8235 333.171 114.176 371.093 153.649C394.062 177.556 395.905 210.027 397.386 236.118C398.437 254.613 399.266 269.222 407.199 274.569C407.712 274.914 407.848 275.611 407.502 276.124C407.289 276.446 406.936 276.62 406.576 276.62Z" fill="#51B29C"/>
<path d="M714.309 112.627C714.273 112.008 713.73 111.554 713.126 111.575C712.51 111.613 712.041 112.143 712.079 112.761C715.542 170.255 678.741 194.024 646.272 214.993C637.923 220.386 630.038 225.479 623.001 230.979C607.237 243.304 597.992 257.498 592.592 272.488C593.417 272.527 594.175 272.671 594.86 272.91C600.162 258.378 609.16 244.644 624.376 232.749C631.333 227.309 639.18 222.241 647.483 216.879C680.466 195.577 717.853 171.431 714.309 112.627Z" fill="#51B29C"/>
<path d="M811.926 263.638C811.332 263.445 810.709 263.77 810.518 264.359C801.935 290.897 778.618 308.731 692.726 309.517C655.519 309.857 628.897 315.111 611.558 325.543C612.264 325.959 612.867 326.487 613.367 327.091C630.359 317.123 656.395 312.091 692.747 311.757C779.973 310.96 803.761 292.508 812.642 265.05C812.835 264.46 812.513 263.829 811.926 263.638Z" fill="#51B29C"/>
<path d="M586.435 320.895H586.432C585.814 320.893 585.316 320.39 585.317 319.772C585.53 245.945 571.266 149.689 538.925 101.067C538.583 100.553 538.722 99.8558 539.234 99.5142C539.747 99.1726 540.444 99.3086 540.783 99.8242C573.384 148.837 587.765 245.611 587.552 319.778C587.552 320.395 587.052 320.895 586.435 320.895Z" fill="#51B29C"/>
<path d="M575.34 201.239C574.801 201.239 574.326 200.847 574.238 200.296C567.669 159.416 591.585 139.998 616.906 119.44C625.947 112.098 635.296 104.509 643.093 95.8673C671.329 64.5723 663.38 32.1528 663.298 31.8301C663.142 31.2308 663.502 30.6187 664.1 30.4637C664.686 30.3056 665.306 30.6646 665.461 31.2655C665.549 31.6008 673.831 65.1416 644.751 97.3713C636.838 106.141 627.421 113.787 618.313 121.183C593.509 141.32 570.084 160.343 576.446 199.941C576.544 200.551 576.129 201.127 575.52 201.226C575.46 201.234 575.4 201.239 575.34 201.239Z" fill="#51B29C"/>
<path d="M786.101 294.015L806.803 288.937C813.697 287.242 820.587 285.538 827.396 283.576C834.197 281.602 840.931 279.364 847.307 276.313C853.662 273.231 859.573 269.247 864.793 264.458C864.931 264.332 865.142 264.341 865.268 264.477C865.391 264.613 865.383 264.824 865.251 264.95C860.062 269.861 854.133 273.995 847.746 277.212C841.34 280.398 834.577 282.76 827.773 284.849C820.959 286.927 814.08 288.739 807.207 290.542L786.595 295.937L786.585 295.938C786.057 296.076 785.518 295.76 785.379 295.23C785.242 294.7 785.557 294.159 786.085 294.02C786.088 294.019 786.098 294.015 786.101 294.015Z" fill="#51B29C"/>
<g opacity="0.25">
<path d="M813.379 287.783C813.379 287.783 831.939 258.58 865.021 264.704C860.058 296.285 831.048 304.257 813.379 287.783Z" fill="#FFAD31"/>
</g>
<path d="M833.824 296.72C826.358 296.72 818.991 293.78 812.997 288.192C812.8 288.009 812.762 287.708 812.906 287.481C813.094 287.186 832.037 258.039 865.121 264.152C865.417 264.207 865.618 264.49 865.57 264.791C863.184 279.978 855.046 291.033 843.244 295.122C840.151 296.195 836.978 296.72 833.824 296.72ZM814.111 287.696C822.285 295.105 833.007 297.488 842.88 294.064C854.141 290.163 861.956 279.643 864.381 265.159C834.434 259.945 816.458 284.294 814.111 287.696Z" fill="#51B29C"/>
<path d="M725.19 308.249C728.546 307.94 731.83 307.085 734.789 305.538C737.722 303.977 740.446 301.902 742.588 299.26C747.073 294.137 749.985 287.721 752.289 281.226C754.508 274.667 756.205 267.914 757.509 261.08C758.202 257.672 758.668 254.22 759.261 250.789L760.605 240.427V240.416C760.63 240.231 760.798 240.101 760.98 240.125C761.162 240.149 761.291 240.315 761.272 240.495L760.111 250.906C759.578 254.359 759.173 257.832 758.536 261.27C757.348 268.161 755.765 274.994 753.632 281.686C751.406 288.319 748.575 294.934 743.949 300.428C741.744 303.242 738.861 305.549 735.707 307.294C732.527 309.03 728.967 310.019 725.408 310.408C724.813 310.474 724.278 310.044 724.214 309.448C724.148 308.853 724.577 308.317 725.17 308.25C725.174 308.25 725.185 308.25 725.19 308.249Z" fill="#51B29C"/>
<g opacity="0.25">
<path d="M746.604 294.975C746.604 294.975 787.659 289.203 760.939 240.462C739.308 252.709 734.813 273.445 746.604 294.975Z" fill="#AA43CE"/>
</g>
<path d="M746.603 295.535C746.401 295.535 746.212 295.426 746.112 295.244C733.803 272.766 739.242 252.104 760.663 239.973C760.793 239.901 760.947 239.878 761.091 239.923C761.234 239.964 761.356 240.06 761.428 240.192C770.757 257.21 772.94 270.943 767.91 281.007C761.781 293.275 746.832 295.508 746.68 295.53C746.653 295.534 746.628 295.535 746.603 295.535ZM760.72 241.231C740.42 252.994 735.265 272.793 746.903 294.355C749.223 293.925 761.591 291.165 766.914 280.495C771.714 270.878 769.629 257.669 760.72 241.231Z" fill="#51B29C"/>
<path d="M702.064 163.744C704.373 161.027 707.105 158.944 709.884 156.987C712.677 155.046 715.568 153.287 718.494 151.605C724.362 148.272 730.384 145.256 736.464 142.383C748.643 136.669 761.037 131.48 773.584 126.67C773.756 126.604 773.95 126.691 774.016 126.865C774.081 127.036 773.992 127.229 773.823 127.298C761.392 132.328 749.1 137.739 737.072 143.653C731.068 146.624 725.132 149.737 719.385 153.142C716.522 154.858 713.702 156.646 711.015 158.587C708.348 160.532 705.741 162.631 703.738 165.085L703.706 165.12C703.332 165.58 702.657 165.647 702.2 165.27C701.741 164.894 701.675 164.217 702.049 163.759C702.055 163.757 702.061 163.749 702.064 163.744Z" fill="#51B29C"/>
<g opacity="0.25">
<path d="M716.529 152.993C716.529 152.993 718.482 114.992 773.704 126.985C770.651 147.399 742.568 165.476 716.529 152.993Z" fill="#51B29C"/>
</g>
<path d="M734.417 157.652C728.24 157.652 722.071 156.27 716.288 153.499C716.085 153.401 715.96 153.191 715.973 152.965C715.979 152.837 716.755 140.12 727.781 131.662C738.046 123.787 753.539 122.03 773.823 126.438C774.111 126.501 774.301 126.776 774.256 127.069C772.755 137.104 765.166 146.879 754.454 152.582C748.113 155.957 741.259 157.652 734.417 157.652ZM717.119 152.652C728.897 158.168 742.291 157.785 753.93 151.59C764.15 146.152 771.438 136.928 773.069 127.42C753.373 123.227 738.365 124.953 728.46 132.55C718.881 139.9 717.335 150.547 717.119 152.652Z" fill="#51B29C"/>
<path d="M657.262 207.845C660.576 205.552 663.423 202.651 665.514 199.211C667.604 195.775 669.085 191.952 670.145 188.002C672.22 180.067 672.857 171.756 673.22 163.496C673.458 155.214 673.353 146.912 673.02 138.617C672.875 134.469 672.6 130.324 672.397 126.177L671.542 113.746C671.526 113.561 671.663 113.398 671.846 113.383C672.029 113.367 672.192 113.507 672.209 113.689L673.252 126.118C673.518 130.268 673.857 134.413 674.065 138.568C674.526 146.876 674.756 155.201 674.643 163.539C674.401 171.864 673.898 180.255 671.889 188.455C670.859 192.542 669.383 196.564 667.21 200.258C665.043 203.957 661.992 207.155 658.521 209.632L658.512 209.638C658.019 209.988 657.34 209.872 656.99 209.38C656.641 208.889 656.756 208.205 657.247 207.854C657.253 207.851 657.262 207.845 657.262 207.845Z" fill="#51B29C"/>
<g opacity="0.25">
<path d="M671.877 180.82C671.877 180.82 709.76 165.772 671.877 113.715C645.192 142.04 651.737 169.841 671.877 180.82Z" fill="#FFAD31"/>
</g>
<path d="M671.878 181.381C671.785 181.381 671.695 181.358 671.612 181.313C661.993 176.069 655.779 167.405 654.113 156.915C651.908 143.031 658.073 127.553 671.471 113.33C671.585 113.209 671.749 113.145 671.913 113.156C672.078 113.166 672.231 113.251 672.329 113.386C686.618 133.022 691.916 149.724 688.077 163.028C684.224 176.384 672.205 181.294 672.083 181.343C672.019 181.369 671.948 181.381 671.878 181.381ZM671.823 114.592C658.988 128.418 653.094 143.365 655.217 156.738C656.815 166.789 662.739 175.111 671.908 180.197C673.578 179.447 683.614 174.5 687.009 162.697C690.702 149.868 685.592 133.686 671.823 114.592Z" fill="#51B29C"/>
<g opacity="0.25">
<path d="M620.08 103.507C620.08 103.507 637.447 60.1265 589.787 44.8159C578.772 91.2586 598.783 97.3839 620.08 103.507Z" fill="#51B29C"/>
</g>
<path d="M620.08 104.069C620.03 104.069 619.978 104.063 619.926 104.047C599.325 98.1209 578.024 91.9941 589.244 44.6862C589.279 44.5344 589.378 44.4047 589.514 44.3272C589.651 44.2513 589.81 44.2339 589.958 44.2814C604.752 49.0338 614.84 56.9635 619.945 67.8491C627.951 84.9232 620.673 103.531 620.599 103.716C620.511 103.933 620.304 104.069 620.08 104.069ZM590.193 45.5355C579.614 90.8997 598.991 96.8557 619.737 102.826C620.792 99.8542 626.026 83.4444 618.929 68.3172C614.027 57.8697 604.359 50.2073 590.193 45.5355Z" fill="#51B29C"/>
<path d="M609.715 125.383C612.74 122.984 615.812 120.634 617.961 117.648C619.027 116.161 619.798 114.505 620.151 112.737C620.506 110.972 620.479 109.119 620.148 107.294C619.852 105.458 619.222 103.678 618.557 101.868C617.882 100.068 617.161 98.2759 616.404 96.4952C614.891 92.9352 613.3 89.4005 611.642 85.8958C608.345 78.8771 604.853 71.9469 601.205 65.1021C597.552 58.2604 593.746 51.49 589.512 45.0042C589.408 44.8508 589.449 44.642 589.602 44.5376C589.755 44.4332 589.963 44.4775 590.067 44.6278C594.434 51.0756 598.355 57.7986 602.131 64.5944C605.902 71.3949 609.513 78.2824 612.939 85.2696C614.66 88.7584 616.317 92.282 617.901 95.8452C618.694 97.6259 619.453 99.4257 620.17 101.251C620.874 103.071 621.582 104.961 621.94 106.965C622.331 108.951 622.408 111.053 622.028 113.106C621.654 115.162 620.773 117.117 619.604 118.799C617.237 122.182 614.067 124.64 611.084 127.099C610.616 127.483 609.927 127.415 609.542 126.947C609.158 126.479 609.226 125.786 609.693 125.402C609.696 125.399 609.701 125.396 609.704 125.393L609.715 125.383Z" fill="#51B29C"/>
<g opacity="0.25">
<path d="M490.133 276.563C490.133 276.563 508.772 238.881 462.747 218.98C452.659 252.167 463.871 273.606 490.133 276.563Z" fill="#51B29C"/>
</g>
<path d="M490.132 277.123C490.112 277.123 490.091 277.122 490.069 277.12C478.475 275.815 469.542 270.846 464.234 262.749C457.36 252.266 456.662 237.074 462.21 218.817C462.256 218.666 462.366 218.539 462.51 218.473C462.653 218.406 462.82 218.401 462.966 218.466C478.109 225.014 487.923 234.168 492.132 245.675C497.975 261.645 490.705 276.661 490.631 276.812C490.537 277.003 490.342 277.123 490.132 277.123ZM463.1 219.746C457.846 237.405 458.559 252.051 465.169 262.134C470.228 269.85 478.737 274.624 489.795 275.959C490.831 273.631 496.269 260.215 491.078 246.048C487.03 234.992 477.617 226.145 463.1 219.746Z" fill="#51B29C"/>
<path d="M515.055 295.391C511.1 294.642 507.086 293.604 503.433 291.651C499.76 289.752 496.587 286.973 494.003 283.815C491.37 280.678 489.356 277.111 487.479 273.584C485.588 270.047 483.801 266.469 482.025 262.885C478.492 255.708 475.063 248.487 471.743 241.212C468.472 233.911 465.08 226.682 462.427 219.08C462.366 218.904 462.459 218.713 462.632 218.651C462.804 218.59 462.993 218.68 463.056 218.851L463.066 218.876C465.815 226.322 469.345 233.529 472.734 240.744C476.177 247.947 479.73 255.099 483.38 262.194C485.216 265.735 487.061 269.274 488.999 272.747C490.949 276.217 492.893 279.65 495.431 282.621C497.916 285.614 500.893 288.175 504.329 289.922C507.744 291.722 511.554 292.688 515.415 293.392L515.423 293.394C515.973 293.493 516.338 294.022 516.237 294.574C516.137 295.126 515.611 295.491 515.06 295.39L515.055 295.391Z" fill="#51B29C"/>
<g opacity="0.25">
<path d="M402.698 147.592C402.698 147.592 447.466 147.013 438.7 99.3212C406.573 98.3549 391.442 116.335 402.698 147.592Z" fill="#FFAD31"/>
</g>
<path d="M402.697 148.152C402.462 148.152 402.251 148.003 402.172 147.782C396.784 132.824 397.251 120.332 403.519 111.657C409.977 102.721 422.145 98.2521 438.716 98.7614C438.98 98.7693 439.202 98.9591 439.249 99.22C441.983 114.091 439.827 125.954 432.841 134.478C421.964 147.754 402.896 148.151 402.703 148.154L402.697 148.152ZM436.243 99.8431C421.308 99.8431 410.335 104.132 404.423 112.315C398.434 120.601 397.974 132.593 403.084 147.017C405.84 146.882 422.298 145.584 431.982 133.759C438.674 125.587 440.774 114.187 438.227 99.8684C437.56 99.8526 436.899 99.8431 436.243 99.8431Z" fill="#51B29C"/>
<path d="M389.086 190.796C387.989 186.328 387.859 181.669 388.5 177.171C389.132 172.665 390.476 168.313 392.228 164.176C395.75 155.887 400.847 148.427 406.32 141.503L438.431 99.1187C438.543 98.97 438.754 98.9416 438.901 99.0538C439.048 99.1645 439.074 99.3765 438.966 99.5236L407.522 142.353C402.131 149.389 397.259 156.784 393.957 164.895C390.665 172.925 389.072 181.898 391.288 190.235C391.45 190.842 391.089 191.467 390.482 191.629C389.875 191.791 389.253 191.43 389.091 190.821C389.091 190.817 389.088 190.801 389.086 190.796Z" fill="#51B29C"/>
<g opacity="0.25">
<path d="M324.15 121.104C324.15 121.104 323.059 79.399 273.79 96.7403C286.8 129.263 307.398 125.903 324.15 121.104Z" fill="#51B29C"/>
</g>
<path d="M306.789 124.758C295.213 124.758 282.241 119.372 273.27 96.949C273.213 96.8067 273.216 96.6485 273.279 96.5093C273.342 96.3702 273.459 96.2626 273.604 96.212C290.257 90.3478 303.282 90.5391 312.308 96.7798C324.151 104.966 324.703 120.93 324.707 121.089C324.714 121.345 324.548 121.573 324.302 121.643C319.602 122.989 313.424 124.758 306.789 124.758ZM274.528 97.0755C287.103 127.926 306.379 125.56 323.567 120.686C323.389 118.124 321.971 104.811 311.667 97.6955C303.051 91.7458 290.559 91.5386 274.528 97.0755Z" fill="#51B29C"/>
<path d="M361.237 145.465C356.015 138.953 349.511 133.574 342.101 129.712C334.714 125.767 326.732 123.05 318.952 119.671C311.202 116.274 303.641 112.514 296.097 108.727C288.565 104.914 281.076 101.021 273.634 97.0392C273.47 96.9506 273.408 96.7482 273.496 96.5837C273.583 96.4208 273.785 96.3591 273.947 96.4445C281.433 100.327 288.968 104.121 296.54 107.833C304.122 111.518 311.725 115.178 319.472 118.454C327.2 121.698 335.288 124.333 342.865 128.252C350.481 132.09 357.326 137.599 362.757 144.208L362.767 144.221C363.114 144.641 363.054 145.263 362.634 145.611C362.215 145.957 361.593 145.897 361.248 145.476C361.243 145.473 361.237 145.465 361.237 145.465Z" fill="#51B29C"/>
<path d="M968.13 418.131H870.409V419.7H968.13V418.131Z" fill="#86C2D7" fill-opacity="0.2"/>
<path d="M1067.84 404.524H96.7471V406.766H1067.84V404.524Z" fill="#86C2D7" fill-opacity="0.2"/>
<path d="M1032.26 418.131H984.416V419.7H1032.26V418.131Z" fill="#86C2D7" fill-opacity="0.2"/>
<path d="M842.924 418.131H753.348V419.7H842.924V418.131Z" fill="#86C2D7" fill-opacity="0.2"/>
<path d="M469.348 418.131H445.936V419.7H469.348V418.131Z" fill="#86C2D7" fill-opacity="0.2"/>
<path d="M422.523 418.131H261.69V419.7H422.523V418.131Z" fill="#86C2D7" fill-opacity="0.2"/>
<path d="M234.433 418.131H169.244V419.7H234.433V418.131Z" fill="#86C2D7" fill-opacity="0.2"/>
<path d="M317.168 456.408H295.028V457.977H317.168V456.408Z" fill="#86C2D7" fill-opacity="0.2"/>
<path d="M393.51 456.408H337.779V457.977H393.51V456.408Z" fill="#86C2D7" fill-opacity="0.2"/>
<path d="M805.008 493.386H788.213V494.955H805.008V493.386Z" fill="#86C2D7" fill-opacity="0.2"/>
<path d="M859.976 493.386H817.985V494.955H859.976V493.386Z" fill="#86C2D7" fill-opacity="0.2"/>
<path d="M581.112 257.156V406.766H592.446V319.384L642.055 343.419L646.514 333.545L592.384 306.53V275.167L652.955 304.915L658.032 294.915L581.112 257.156Z" fill="#95FFE7"/>
<path d="M586.887 407.203V466.022M521.216 471.525H581.401M586.887 466.024C586.887 469.062 584.43 471.526 581.401 471.526M515.729 514.412V477.027C515.729 473.987 518.186 471.526 521.216 471.526M534.21 601.936C530.01 601.936 526.605 605.351 526.605 609.562C526.605 613.776 530.01 617.19 534.21 617.19C538.412 617.19 541.817 613.776 541.817 609.562C541.817 605.351 538.41 601.936 534.21 601.936ZM534.21 601.936V545.927C534.21 542.887 536.668 540.425 539.697 540.425M539.697 540.423H581.401M586.887 534.923C586.887 537.961 584.43 540.425 581.401 540.425M467.473 581.88C463.817 581.88 460.854 584.851 460.854 588.517C460.854 592.183 463.817 595.155 467.473 595.155C471.129 595.155 474.092 592.183 474.092 588.517C474.092 584.85 471.129 581.878 467.473 581.88ZM467.473 581.88V499.282M472.96 493.78H510.241M515.729 488.278C515.729 491.317 513.272 493.78 510.242 493.78M586.887 640.908V461.387M467.473 499.283C467.473 496.244 469.93 493.781 472.96 493.781M496.488 620.537C491.928 620.537 488.233 624.242 488.233 628.814C488.233 633.383 491.928 637.09 496.488 637.09C501.046 637.09 504.741 633.385 504.741 628.814C504.741 624.242 501.046 620.537 496.488 620.537ZM496.488 620.537V499.283C496.488 496.244 498.943 493.781 501.975 493.781M629.657 451.624H592.374C589.346 451.624 586.887 449.162 586.887 446.122M635.142 517.162V457.126M635.142 457.128C635.142 454.088 632.685 451.626 629.655 451.626M664.917 629.675C667.625 629.675 669.822 631.876 669.822 634.592C669.822 637.307 667.625 639.51 664.917 639.51C662.209 639.51 660.012 637.309 660.012 634.592C660.012 631.878 662.209 629.675 664.917 629.675ZM664.917 629.675V592.605C664.917 589.566 662.46 587.103 659.43 587.103M659.43 587.102H622.15C619.12 587.102 616.663 584.639 616.663 581.6M611.174 569.898H592.374C589.346 569.898 586.887 567.436 586.887 564.396M616.663 614.413V575.402C616.663 572.362 614.205 569.9 611.176 569.9M715.782 594.907C719.437 594.907 722.4 597.878 722.4 601.544C722.4 605.21 719.437 608.182 715.782 608.182C712.126 608.182 709.163 605.21 709.163 601.544C709.163 597.878 712.126 594.907 715.782 594.907ZM715.782 594.907V502.034C715.782 498.994 713.324 496.531 710.295 496.531H640.631M635.142 491.028C635.142 494.068 637.601 496.53 640.629 496.53M669.709 534.897V502.034C669.709 498.994 667.252 496.531 664.222 496.531M520.634 519.331C520.634 522.048 518.437 524.249 515.729 524.249C513.021 524.249 510.824 522.046 510.824 519.331C510.824 516.615 513.02 514.414 515.729 514.414C518.439 514.414 520.634 516.614 520.634 519.331ZM598.002 652.05C598.002 658.205 593.027 663.195 586.887 663.195C580.751 663.195 575.775 658.205 575.775 652.05C575.775 645.895 580.751 640.906 586.887 640.906C593.026 640.908 598.002 645.896 598.002 652.05ZM630.239 522.082C630.239 524.8 632.436 526.999 635.142 526.999C637.852 526.999 640.047 524.798 640.047 522.082C640.047 519.367 637.85 517.164 635.142 517.164C632.436 517.162 630.239 519.365 630.239 522.082ZM609.056 622.039C609.056 626.251 612.461 629.665 616.661 629.665C620.861 629.665 624.266 626.251 624.266 622.039C624.266 617.827 620.861 614.413 616.661 614.413C612.461 614.413 609.056 617.827 609.056 622.039ZM661.455 543.177C661.455 547.749 665.151 551.453 669.709 551.453C674.267 551.453 677.964 547.747 677.964 543.177C677.964 538.606 674.267 534.899 669.709 534.899C665.151 534.899 661.455 538.605 661.455 543.177Z" stroke="#95FFE7" stroke-opacity="0.8" stroke-width="2" stroke-miterlimit="10"/>
</svg>
