<svg width="1182" height="703" viewBox="0 0 1182 703" fill="none" xmlns="http://www.w3.org/2000/svg">
<path opacity="0.2" d="M246.725 405.645C256.689 571.435 403.109 703 582.297 703C761.484 703 907.903 571.437 917.869 405.645H246.725Z" fill="#222221"/>
<path opacity="0.1" d="M168.568 257.993H158.464C149.592 257.993 142.402 250.781 142.402 241.887C142.402 232.993 135.21 225.781 126.34 225.781H112.422C96.5001 225.781 106.277 210.796 86.0357 210.796C77.1657 210.796 69.9739 218.006 69.9739 226.902V241.887C69.9739 250.783 62.782 257.993 53.9121 257.993H24.4334C11.3067 257.993 0.664062 268.664 0.664062 281.827C0.664062 294.991 11.3067 305.662 24.4334 305.662H168.567C181.694 305.662 192.336 294.99 192.336 281.827C192.338 268.664 181.695 257.993 168.568 257.993Z" fill="#51B29C"/>
<path opacity="0.1" d="M1152.76 149.242H1137.85C1127.23 149.242 1118.62 140.61 1118.62 129.961L1118.6 129.98C1118.37 119.805 1110.02 111.546 1099.83 111.546H1084.34C1079.06 110.45 1075.09 105.761 1075.09 100.142L1075.08 100.153C1074.94 94.0041 1069.89 89.0145 1063.73 89.0145H1061.93C1055.77 89.0145 1050.73 94.0041 1050.59 100.153L1050.58 100.142C1050.58 105.763 1046.61 110.45 1041.33 111.546H1033.08C1022.88 111.546 1014.53 119.805 1014.31 129.98L1014.29 129.961C1014.29 140.61 1005.68 149.242 995.058 149.242H996.257C980.646 149.242 967.871 162.05 967.871 177.706C967.871 193.36 980.646 206.17 996.257 206.17H1152.76C1168.37 206.17 1181.15 193.361 1181.15 177.706C1181.15 162.05 1168.37 149.242 1152.76 149.242Z" fill="#51B29C"/>
<path opacity="0.1" d="M115.579 25.0085H125.473C132.518 25.0085 138.229 19.2818 138.229 12.2172L138.243 12.2299C138.391 5.47837 143.932 0 150.698 0H169.742C176.508 0 182.05 5.47837 182.199 12.2299L182.213 12.2172C182.213 19.2818 187.924 25.0085 194.969 25.0085H194.174C204.531 25.0085 213.005 33.506 213.005 43.8918C213.005 54.2776 204.531 62.7751 194.174 62.7751H115.579C105.222 62.7751 96.748 54.2776 96.748 43.8918C96.748 33.506 105.222 25.0085 115.579 25.0085Z" fill="#51B29C"/>
<path d="M587.046 406.766C586.427 406.766 585.927 406.265 585.927 405.645V356.485C585.927 313.837 536.086 293.81 489.777 293.252C439.602 292.647 370.92 282.975 353.853 206.297C353.719 205.693 354.098 205.093 354.7 204.959C355.303 204.818 355.9 205.204 356.034 205.808C372.755 280.935 440.387 290.414 489.803 291.011C537.176 291.581 588.164 312.315 588.164 356.485V405.645C588.164 406.265 587.662 406.766 587.046 406.766Z" fill="#95FFE7"/>
<path d="M406.577 276.62C406.363 276.62 406.147 276.559 405.954 276.429C397.1 270.46 396.244 255.361 395.157 236.244C393.697 210.522 391.878 178.512 369.486 155.204C330.21 114.324 351.535 83.5282 351.754 83.223C352.115 82.7217 352.81 82.6078 353.312 82.9684C353.812 83.329 353.927 84.028 353.569 84.5309C353.361 84.8235 333.172 114.176 371.094 153.649C394.063 177.556 395.906 210.027 397.387 236.118C398.438 254.613 399.267 269.222 407.2 274.569C407.713 274.914 407.849 275.611 407.503 276.124C407.29 276.446 406.937 276.62 406.577 276.62Z" fill="#95FFE7"/>
<path d="M714.311 112.627C714.275 112.008 713.732 111.554 713.128 111.575C712.511 111.613 712.043 112.143 712.081 112.761C715.544 170.255 678.743 194.024 646.274 214.993C637.924 220.386 630.04 225.479 623.003 230.979C607.239 243.304 597.994 257.498 592.594 272.488C593.419 272.527 594.177 272.671 594.862 272.91C600.164 258.378 609.162 244.644 624.378 232.749C631.335 227.309 639.181 222.241 647.485 216.879C680.468 195.577 717.855 171.431 714.311 112.627Z" fill="#95FFE7"/>
<path d="M811.927 263.638C811.333 263.445 810.71 263.77 810.519 264.359C801.936 290.897 778.619 308.731 692.727 309.517C655.52 309.857 628.898 315.111 611.559 325.543C612.265 325.959 612.868 326.487 613.368 327.091C630.36 317.123 656.396 312.091 692.748 311.757C779.974 310.96 803.762 292.508 812.643 265.05C812.836 264.46 812.514 263.829 811.927 263.638Z" fill="#95FFE7"/>
<path d="M586.436 320.895H586.433C585.815 320.893 585.317 320.39 585.318 319.772C585.531 245.945 571.267 149.689 538.926 101.067C538.584 100.553 538.723 99.8558 539.235 99.5142C539.748 99.1726 540.445 99.3086 540.784 99.8242C573.385 148.837 587.766 245.611 587.553 319.778C587.553 320.395 587.053 320.895 586.436 320.895Z" fill="#95FFE7"/>
<path d="M575.34 201.239C574.801 201.239 574.326 200.847 574.238 200.296C567.669 159.416 591.585 139.998 616.906 119.44C625.947 112.098 635.296 104.509 643.093 95.8673C671.329 64.5723 663.38 32.1528 663.298 31.8301C663.142 31.2308 663.502 30.6187 664.1 30.4637C664.686 30.3056 665.306 30.6646 665.461 31.2655C665.549 31.6008 673.831 65.1416 644.751 97.3713C636.838 106.141 627.421 113.787 618.313 121.183C593.509 141.32 570.084 160.343 576.446 199.941C576.544 200.551 576.129 201.127 575.52 201.226C575.46 201.234 575.4 201.239 575.34 201.239Z" fill="#95FFE7"/>
<path d="M786.102 294.015L806.804 288.937C813.698 287.242 820.588 285.538 827.397 283.576C834.198 281.602 840.932 279.364 847.308 276.313C853.663 273.231 859.574 269.247 864.794 264.458C864.932 264.332 865.143 264.341 865.269 264.477C865.392 264.613 865.384 264.824 865.252 264.95C860.063 269.861 854.134 273.995 847.747 277.212C841.341 280.398 834.578 282.76 827.774 284.849C820.96 286.927 814.081 288.739 807.208 290.542L786.596 295.937L786.586 295.938C786.058 296.076 785.519 295.76 785.38 295.23C785.243 294.7 785.558 294.159 786.086 294.02C786.089 294.019 786.099 294.015 786.102 294.015Z" fill="#95FFE7"/>
<g opacity="0.25">
<path d="M813.381 287.783C813.381 287.783 831.941 258.58 865.023 264.704C860.06 296.285 831.05 304.257 813.381 287.783Z" fill="#FFAD31"/>
</g>
<path d="M833.825 296.72C826.359 296.72 818.992 293.78 812.998 288.192C812.801 288.009 812.763 287.708 812.907 287.481C813.095 287.186 832.038 258.039 865.122 264.152C865.418 264.207 865.619 264.49 865.571 264.791C863.185 279.978 855.047 291.033 843.245 295.122C840.152 296.195 836.979 296.72 833.825 296.72ZM814.112 287.696C822.286 295.105 833.008 297.488 842.881 294.064C854.142 290.163 861.957 279.643 864.382 265.159C834.435 259.945 816.459 284.294 814.112 287.696Z" fill="#95FFE7"/>
<path d="M725.19 308.249C728.546 307.94 731.83 307.085 734.789 305.538C737.722 303.977 740.446 301.902 742.588 299.26C747.073 294.137 749.985 287.721 752.289 281.226C754.508 274.667 756.205 267.914 757.509 261.08C758.202 257.672 758.668 254.22 759.261 250.789L760.605 240.427V240.416C760.63 240.231 760.798 240.101 760.98 240.125C761.162 240.149 761.291 240.315 761.272 240.495L760.111 250.906C759.578 254.359 759.173 257.832 758.536 261.27C757.348 268.161 755.765 274.994 753.632 281.686C751.406 288.319 748.575 294.934 743.949 300.428C741.744 303.242 738.861 305.549 735.707 307.294C732.527 309.03 728.967 310.019 725.408 310.408C724.813 310.474 724.278 310.044 724.214 309.448C724.148 308.853 724.577 308.317 725.17 308.25C725.174 308.25 725.185 308.25 725.19 308.249Z" fill="#95FFE7"/>
<g opacity="0.25">
<path d="M746.603 294.975C746.603 294.975 787.658 289.203 760.938 240.462C739.307 252.709 734.812 273.445 746.603 294.975Z" fill="#AA43CE"/>
</g>
<path d="M746.602 295.535C746.4 295.535 746.211 295.426 746.111 295.244C733.802 272.766 739.241 252.104 760.662 239.973C760.792 239.901 760.946 239.878 761.09 239.923C761.233 239.964 761.355 240.06 761.427 240.192C770.756 257.21 772.939 270.943 767.909 281.007C761.78 293.275 746.831 295.508 746.679 295.53C746.652 295.534 746.627 295.535 746.602 295.535ZM760.719 241.231C740.419 252.994 735.264 272.793 746.902 294.355C749.222 293.925 761.59 291.165 766.913 280.495C771.713 270.878 769.628 257.669 760.719 241.231Z" fill="#95FFE7"/>
<path d="M702.066 163.744C704.375 161.027 707.107 158.944 709.886 156.987C712.679 155.046 715.57 153.287 718.496 151.605C724.364 148.272 730.386 145.256 736.466 142.383C748.645 136.669 761.039 131.48 773.586 126.67C773.758 126.604 773.952 126.691 774.018 126.865C774.083 127.036 773.994 127.229 773.825 127.298C761.394 132.328 749.102 137.739 737.074 143.653C731.07 146.624 725.134 149.737 719.387 153.142C716.524 154.858 713.704 156.646 711.017 158.587C708.35 160.532 705.743 162.631 703.74 165.085L703.708 165.12C703.334 165.58 702.659 165.647 702.202 165.27C701.743 164.894 701.677 164.217 702.05 163.759C702.057 163.757 702.063 163.749 702.066 163.744Z" fill="#95FFE7"/>
<g opacity="0.25">
<path d="M716.531 152.993C716.531 152.993 718.484 114.992 773.706 126.985C770.653 147.399 742.57 165.476 716.531 152.993Z" fill="#95FFE7"/>
</g>
<path d="M734.418 157.652C728.241 157.652 722.072 156.27 716.289 153.499C716.086 153.401 715.961 153.191 715.974 152.965C715.98 152.837 716.756 140.12 727.782 131.662C738.047 123.787 753.54 122.03 773.824 126.438C774.112 126.501 774.302 126.776 774.257 127.069C772.756 137.104 765.167 146.879 754.455 152.582C748.114 155.957 741.26 157.652 734.418 157.652ZM717.12 152.652C728.898 158.168 742.292 157.785 753.931 151.59C764.151 146.152 771.439 136.928 773.07 127.42C753.374 123.227 738.366 124.953 728.461 132.55C718.882 139.9 717.336 150.547 717.12 152.652Z" fill="#95FFE7"/>
<path d="M657.263 207.845C660.577 205.552 663.424 202.651 665.515 199.211C667.605 195.775 669.086 191.952 670.146 188.002C672.221 180.067 672.858 171.756 673.221 163.496C673.459 155.214 673.354 146.912 673.021 138.617C672.876 134.469 672.601 130.324 672.398 126.177L671.543 113.746C671.527 113.561 671.664 113.398 671.847 113.383C672.03 113.367 672.193 113.507 672.21 113.689L673.253 126.118C673.519 130.268 673.858 134.413 674.066 138.568C674.527 146.876 674.757 155.201 674.644 163.539C674.402 171.864 673.899 180.255 671.89 188.455C670.86 192.542 669.384 196.564 667.211 200.258C665.044 203.957 661.993 207.155 658.522 209.632L658.512 209.638C658.02 209.988 657.341 209.872 656.991 209.38C656.642 208.889 656.757 208.205 657.248 207.854C657.254 207.851 657.263 207.845 657.263 207.845Z" fill="#95FFE7"/>
<g opacity="0.25">
<path d="M671.879 180.82C671.879 180.82 709.762 165.772 671.879 113.715C645.193 142.04 651.739 169.841 671.879 180.82Z" fill="#FFAD31"/>
</g>
<path d="M671.879 181.381C671.786 181.381 671.696 181.358 671.613 181.313C661.994 176.069 655.78 167.405 654.114 156.915C651.909 143.031 658.074 127.553 671.472 113.33C671.586 113.209 671.75 113.145 671.914 113.156C672.079 113.166 672.232 113.251 672.33 113.386C686.619 133.022 691.917 149.724 688.078 163.028C684.225 176.384 672.206 181.294 672.084 181.343C672.02 181.369 671.949 181.381 671.879 181.381ZM671.824 114.592C658.989 128.418 653.095 143.365 655.218 156.738C656.816 166.789 662.74 175.111 671.909 180.197C673.579 179.447 683.615 174.5 687.01 162.697C690.703 149.868 685.593 133.686 671.824 114.592Z" fill="#95FFE7"/>
<g opacity="0.25">
<path d="M620.082 103.507C620.082 103.507 637.449 60.1265 589.789 44.8159C578.774 91.2586 598.785 97.3839 620.082 103.507Z" fill="#95FFE7"/>
</g>
<path d="M620.082 104.069C620.032 104.069 619.98 104.063 619.928 104.047C599.327 98.1209 578.026 91.9941 589.246 44.6862C589.281 44.5344 589.38 44.4047 589.516 44.3272C589.653 44.2513 589.812 44.2339 589.96 44.2814C604.754 49.0338 614.842 56.9635 619.947 67.8491C627.952 84.9232 620.675 103.531 620.601 103.716C620.513 103.933 620.306 104.069 620.082 104.069ZM590.195 45.5355C579.616 90.8997 598.993 96.8557 619.739 102.826C620.794 99.8542 626.028 83.4444 618.931 68.3172C614.029 57.8697 604.361 50.2073 590.195 45.5355Z" fill="#95FFE7"/>
<path d="M609.716 125.383C612.741 122.984 615.813 120.634 617.962 117.648C619.028 116.161 619.799 114.505 620.152 112.737C620.507 110.972 620.48 109.119 620.149 107.294C619.853 105.458 619.223 103.678 618.558 101.868C617.883 100.068 617.162 98.2759 616.405 96.4952C614.892 92.9352 613.301 89.4005 611.643 85.8958C608.346 78.8771 604.854 71.9469 601.206 65.1021C597.553 58.2604 593.747 51.49 589.513 45.0042C589.409 44.8508 589.45 44.642 589.603 44.5376C589.756 44.4332 589.964 44.4775 590.068 44.6278C594.435 51.0756 598.356 57.7986 602.132 64.5944C605.903 71.3949 609.514 78.2824 612.94 85.2696C614.661 88.7584 616.318 92.282 617.902 95.8452C618.695 97.6259 619.454 99.4257 620.171 101.251C620.875 103.071 621.583 104.961 621.941 106.965C622.332 108.951 622.409 111.053 622.029 113.106C621.655 115.162 620.774 117.117 619.605 118.799C617.238 122.182 614.068 124.64 611.085 127.099C610.617 127.483 609.927 127.415 609.543 126.947C609.159 126.479 609.227 125.786 609.694 125.402C609.697 125.399 609.702 125.396 609.705 125.393L609.716 125.383Z" fill="#95FFE7"/>
<g opacity="0.25">
<path d="M490.133 276.563C490.133 276.563 508.772 238.881 462.747 218.98C452.659 252.167 463.871 273.606 490.133 276.563Z" fill="#95FFE7"/>
</g>
<path d="M490.132 277.123C490.112 277.123 490.091 277.122 490.069 277.12C478.475 275.815 469.542 270.846 464.234 262.749C457.36 252.266 456.662 237.074 462.21 218.817C462.256 218.666 462.366 218.539 462.51 218.473C462.653 218.406 462.82 218.401 462.966 218.466C478.109 225.014 487.923 234.168 492.132 245.675C497.975 261.645 490.705 276.661 490.631 276.812C490.537 277.003 490.342 277.123 490.132 277.123ZM463.1 219.746C457.846 237.405 458.559 252.051 465.169 262.134C470.228 269.85 478.737 274.624 489.795 275.959C490.831 273.631 496.269 260.215 491.078 246.048C487.03 234.992 477.617 226.145 463.1 219.746Z" fill="#95FFE7"/>
<path d="M515.055 295.391C511.1 294.642 507.086 293.604 503.433 291.651C499.76 289.752 496.587 286.973 494.003 283.815C491.37 280.678 489.356 277.111 487.479 273.584C485.588 270.047 483.801 266.469 482.025 262.885C478.492 255.708 475.063 248.487 471.743 241.212C468.472 233.911 465.08 226.682 462.427 219.08C462.366 218.904 462.459 218.713 462.632 218.651C462.804 218.59 462.993 218.68 463.056 218.851L463.066 218.876C465.815 226.322 469.345 233.529 472.734 240.744C476.177 247.947 479.73 255.099 483.38 262.194C485.216 265.735 487.061 269.274 488.999 272.747C490.949 276.217 492.893 279.65 495.431 282.621C497.916 285.614 500.893 288.175 504.329 289.922C507.744 291.722 511.554 292.688 515.415 293.392L515.423 293.394C515.973 293.493 516.338 294.022 516.237 294.574C516.137 295.126 515.611 295.491 515.06 295.39L515.055 295.391Z" fill="#95FFE7"/>
<g opacity="0.25">
<path d="M402.698 147.592C402.698 147.592 447.466 147.013 438.7 99.3212C406.573 98.3549 391.442 116.335 402.698 147.592Z" fill="#FFAD31"/>
</g>
<path d="M402.698 148.152C402.463 148.152 402.252 148.003 402.173 147.782C396.785 132.824 397.252 120.332 403.52 111.657C409.978 102.721 422.146 98.2521 438.717 98.7614C438.981 98.7693 439.203 98.9591 439.25 99.22C441.984 114.091 439.828 125.954 432.842 134.478C421.965 147.754 402.897 148.151 402.704 148.154L402.698 148.152ZM436.244 99.8431C421.309 99.8431 410.336 104.132 404.424 112.315C398.435 120.601 397.975 132.593 403.085 147.017C405.841 146.882 422.299 145.584 431.983 133.759C438.675 125.587 440.775 114.187 438.228 99.8684C437.561 99.8526 436.9 99.8431 436.244 99.8431Z" fill="#95FFE7"/>
<path d="M389.086 190.796C387.989 186.328 387.859 181.669 388.5 177.171C389.132 172.665 390.476 168.313 392.228 164.176C395.75 155.887 400.847 148.427 406.32 141.503L438.431 99.1187C438.543 98.97 438.754 98.9416 438.901 99.0538C439.048 99.1645 439.074 99.3765 438.966 99.5236L407.522 142.353C402.131 149.389 397.259 156.784 393.957 164.895C390.665 172.925 389.072 181.898 391.288 190.235C391.45 190.842 391.089 191.467 390.482 191.629C389.875 191.791 389.253 191.43 389.091 190.821C389.091 190.817 389.088 190.801 389.086 190.796Z" fill="#95FFE7"/>
<g opacity="0.25">
<path d="M324.151 121.104C324.151 121.104 323.06 79.399 273.791 96.7403C286.801 129.263 307.399 125.903 324.151 121.104Z" fill="#95FFE7"/>
</g>
<path d="M306.79 124.758C295.214 124.758 282.242 119.372 273.271 96.949C273.214 96.8067 273.217 96.6485 273.28 96.5093C273.343 96.3702 273.46 96.2626 273.605 96.212C290.258 90.3478 303.283 90.5391 312.309 96.7798C324.152 104.966 324.704 120.93 324.708 121.089C324.715 121.345 324.549 121.573 324.303 121.643C319.603 122.989 313.425 124.758 306.79 124.758ZM274.529 97.0755C287.104 127.926 306.38 125.56 323.568 120.686C323.39 118.124 321.972 104.811 311.668 97.6955C303.052 91.7458 290.56 91.5386 274.529 97.0755Z" fill="#95FFE7"/>
<path d="M361.238 145.465C356.016 138.953 349.512 133.574 342.102 129.712C334.715 125.767 326.733 123.05 318.953 119.671C311.203 116.274 303.642 112.514 296.098 108.727C288.566 104.914 281.077 101.021 273.635 97.0392C273.471 96.9506 273.409 96.7482 273.497 96.5837C273.584 96.4208 273.786 96.3591 273.948 96.4445C281.434 100.327 288.969 104.121 296.541 107.833C304.123 111.518 311.726 115.178 319.473 118.454C327.201 121.698 335.289 124.333 342.866 128.252C350.482 132.09 357.327 137.599 362.758 144.208L362.768 144.221C363.115 144.641 363.055 145.263 362.635 145.611C362.216 145.957 361.594 145.897 361.249 145.476C361.244 145.473 361.238 145.465 361.238 145.465Z" fill="#95FFE7"/>
<path d="M968.131 418.131H870.41V419.7H968.131V418.131Z" fill="#86C2D7" fill-opacity="0.2"/>
<path d="M1067.85 404.524H96.748V406.766H1067.85V404.524Z" fill="#86C2D7" fill-opacity="0.2"/>
<path d="M1032.26 418.131H984.418V419.7H1032.26V418.131Z" fill="#86C2D7" fill-opacity="0.2"/>
<path d="M842.926 418.131H753.35V419.7H842.926V418.131Z" fill="#86C2D7" fill-opacity="0.2"/>
<path d="M469.35 418.131H445.938V419.7H469.35V418.131Z" fill="#86C2D7" fill-opacity="0.2"/>
<path d="M422.524 418.131H261.691V419.7H422.524V418.131Z" fill="#86C2D7" fill-opacity="0.2"/>
<path d="M234.435 418.131H169.246V419.7H234.435V418.131Z" fill="#86C2D7" fill-opacity="0.2"/>
<path d="M317.169 456.408H295.029V457.977H317.169V456.408Z" fill="#86C2D7" fill-opacity="0.2"/>
<path d="M393.512 456.408H337.781V457.977H393.512V456.408Z" fill="#86C2D7" fill-opacity="0.2"/>
<path d="M805.01 493.386H788.215V494.955H805.01V493.386Z" fill="#86C2D7" fill-opacity="0.2"/>
<path d="M859.975 493.386H817.984V494.955H859.975V493.386Z" fill="#86C2D7" fill-opacity="0.2"/>
<path d="M581.113 257.156V406.766H592.447V319.384L642.056 343.419L646.515 333.545L592.385 306.53V275.167L652.956 304.915L658.033 294.915L581.113 257.156Z" fill="#95FFE7"/>
<path d="M586.889 407.203V466.022M521.218 471.525H581.402M586.889 466.024C586.889 469.062 584.432 471.526 581.402 471.526M515.731 514.412V477.027C515.731 473.987 518.188 471.526 521.218 471.526M534.212 601.936C530.012 601.936 526.607 605.351 526.607 609.562C526.607 613.776 530.012 617.19 534.212 617.19C538.414 617.19 541.819 613.776 541.819 609.562C541.819 605.351 538.412 601.936 534.212 601.936ZM534.212 601.936V545.927C534.212 542.887 536.669 540.425 539.699 540.425M539.699 540.423H581.402M586.889 534.923C586.889 537.961 584.432 540.425 581.402 540.425M467.475 581.88C463.819 581.88 460.855 584.851 460.855 588.517C460.855 592.183 463.819 595.155 467.475 595.155C471.131 595.155 474.094 592.183 474.094 588.517C474.094 584.85 471.131 581.878 467.475 581.88ZM467.475 581.88V499.282M472.962 493.78H510.243M515.731 488.278C515.731 491.317 513.274 493.78 510.244 493.78M586.889 640.908V461.387M467.475 499.283C467.475 496.244 469.932 493.781 472.962 493.781M496.49 620.537C491.93 620.537 488.235 624.242 488.235 628.814C488.235 633.383 491.93 637.09 496.49 637.09C501.048 637.09 504.743 633.385 504.743 628.814C504.743 624.242 501.048 620.537 496.49 620.537ZM496.49 620.537V499.283C496.49 496.244 498.945 493.781 501.977 493.781M629.659 451.624H592.376C589.348 451.624 586.889 449.162 586.889 446.122M635.144 517.162V457.126M635.144 457.128C635.144 454.088 632.687 451.626 629.657 451.626M664.919 629.675C667.627 629.675 669.824 631.876 669.824 634.591C669.824 637.307 667.627 639.51 664.919 639.51C662.211 639.51 660.014 637.309 660.014 634.591C660.014 631.878 662.211 629.675 664.919 629.675ZM664.919 629.675V592.605C664.919 589.566 662.462 587.103 659.432 587.103M659.432 587.102H622.151C619.122 587.102 616.665 584.639 616.665 581.6M611.176 569.898H592.376C589.348 569.898 586.889 567.436 586.889 564.396M616.665 614.413V575.402C616.665 572.362 614.207 569.9 611.178 569.9M715.784 594.906C719.439 594.906 722.402 597.878 722.402 601.544C722.402 605.21 719.439 608.182 715.784 608.182C712.128 608.182 709.165 605.21 709.165 601.544C709.165 597.878 712.128 594.906 715.784 594.906ZM715.784 594.906V502.034C715.784 498.994 713.325 496.531 710.297 496.531H640.633M635.144 491.028C635.144 494.067 637.603 496.53 640.631 496.53M669.711 534.897V502.034C669.711 498.994 667.254 496.531 664.224 496.531M520.636 519.331C520.636 522.048 518.439 524.249 515.731 524.249C513.023 524.249 510.826 522.046 510.826 519.331C510.826 516.615 513.022 514.414 515.731 514.414C518.441 514.414 520.636 516.614 520.636 519.331ZM598.004 652.05C598.004 658.205 593.029 663.195 586.889 663.195C580.753 663.195 575.777 658.205 575.777 652.05C575.777 645.895 580.753 640.906 586.889 640.906C593.028 640.908 598.004 645.896 598.004 652.05ZM630.241 522.082C630.241 524.799 632.438 526.999 635.144 526.999C637.854 526.999 640.049 524.798 640.049 522.082C640.049 519.367 637.852 517.164 635.144 517.164C632.438 517.162 630.241 519.365 630.241 522.082ZM609.058 622.039C609.058 626.251 612.463 629.665 616.663 629.665C620.863 629.665 624.268 626.251 624.268 622.039C624.268 617.827 620.863 614.413 616.663 614.413C612.463 614.413 609.058 617.827 609.058 622.039ZM661.457 543.177C661.457 547.749 665.153 551.453 669.711 551.453C674.269 551.453 677.966 547.747 677.966 543.177C677.966 538.606 674.269 534.899 669.711 534.899C665.153 534.899 661.457 538.605 661.457 543.177Z" stroke="#95FFE7" stroke-opacity="0.8" stroke-width="2" stroke-miterlimit="10"/>
</svg>
