<svg width="31" height="57" viewBox="0 0 31 57" fill="none" xmlns="http://www.w3.org/2000/svg">
<path d="M29.7299 15.5223C29.4285 15.221 29.0267 15.0201 28.5915 15.0201C28.4576 15.0201 28.3236 15.0536 28.1897 15.0871L14.9308 18.3683L20.6562 2.86607C20.7567 2.66518 20.8236 2.46428 20.8236 2.26339C20.8236 1.4933 20.154 0.85714 19.3169 0.85714H8.33478C7.63166 0.85714 7.02898 1.29241 6.86157 1.92857L0.131657 29.5513C0.0312108 30.0201 0.165139 30.5223 0.566925 30.8571C0.834782 31.0915 1.23657 31.2254 1.60487 31.2254C1.7388 31.2254 1.87273 31.2254 2.00666 31.192L15.6004 27.8103L9.00443 54.8638C8.83701 55.567 9.27228 56.2701 10.0089 56.5045C10.1763 56.5379 10.3437 56.5714 10.4776 56.5714C11.0803 56.5714 11.616 56.2366 11.8839 55.7344L29.9642 16.9955C30.1986 16.4933 30.0982 15.9241 29.7299 15.5223Z" fill="url(#paint0_linear_152_106)"/>
<defs>
<linearGradient id="paint0_linear_152_106" x1="-20.6758" y1="-3" x2="63.6247" y2="19.7545" gradientUnits="userSpaceOnUse">
<stop stop-color="#51B29C"/>
<stop offset="1" stop-color="#3A7FD0"/>
</linearGradient>
</defs>
</svg>
