<svg width="36" height="36" viewBox="0 0 36 36" fill="none" xmlns="http://www.w3.org/2000/svg">
<g clip-path="url(#clip0_224_155)">
<path d="M18 0C14.4399 0 10.9598 1.05568 7.99974 3.03355C5.03966 5.01141 2.73255 7.82263 1.37018 11.1117C0.00779915 14.4008 -0.348661 18.02 0.345873 21.5116C1.04041 25.0033 2.75474 28.2106 5.27209 30.7279C7.78943 33.2453 10.9967 34.9596 14.4884 35.6541C17.98 36.3487 21.5992 35.9922 24.8883 34.6298C28.1774 33.2675 30.9886 30.9604 32.9665 28.0003C34.9443 25.0402 36 21.5601 36 18C35.9948 13.2277 34.0968 8.65232 30.7222 5.27778C27.3477 1.90324 22.7723 0.00516162 18 0ZM19.5 32.9235V30C19.5 29.6022 19.342 29.2206 19.0607 28.9393C18.7794 28.658 18.3978 28.5 18 28.5C17.6022 28.5 17.2207 28.658 16.9393 28.9393C16.658 29.2206 16.5 29.6022 16.5 30V32.9235C13.0593 32.5732 9.84478 31.0463 7.39922 28.6008C4.95367 26.1552 3.42685 22.9407 3.07651 19.5H6.00001C6.39783 19.5 6.77936 19.342 7.06067 19.0607C7.34197 18.7794 7.50001 18.3978 7.50001 18C7.50001 17.6022 7.34197 17.2206 7.06067 16.9393C6.77936 16.658 6.39783 16.5 6.00001 16.5H3.07651C3.42685 13.0593 4.95367 9.84477 7.39922 7.39922C9.84478 4.95366 13.0593 3.42684 16.5 3.0765V6C16.5 6.39783 16.658 6.77936 16.9393 7.06066C17.2207 7.34197 17.6022 7.5 18 7.5C18.3978 7.5 18.7794 7.34197 19.0607 7.06066C19.342 6.77936 19.5 6.39783 19.5 6V3.0765C22.9408 3.42684 26.1552 4.95366 28.6008 7.39922C31.0463 9.84477 32.5732 13.0593 32.9235 16.5H30C29.6022 16.5 29.2207 16.658 28.9393 16.9393C28.658 17.2206 28.5 17.6022 28.5 18C28.5 18.3978 28.658 18.7794 28.9393 19.0607C29.2207 19.342 29.6022 19.5 30 19.5H32.9235C32.5732 22.9407 31.0463 26.1552 28.6008 28.6008C26.1552 31.0463 22.9408 32.5732 19.5 32.9235ZM24 18C24 18.3978 23.842 18.7794 23.5607 19.0607C23.2794 19.342 22.8978 19.5 22.5 19.5H19.5V22.5C19.5 22.8978 19.342 23.2794 19.0607 23.5607C18.7794 23.842 18.3978 24 18 24C17.6022 24 17.2207 23.842 16.9393 23.5607C16.658 23.2794 16.5 22.8978 16.5 22.5V19.5H13.5C13.1022 19.5 12.7207 19.342 12.4393 19.0607C12.158 18.7794 12 18.3978 12 18C12 17.6022 12.158 17.2206 12.4393 16.9393C12.7207 16.658 13.1022 16.5 13.5 16.5H16.5V13.5C16.5 13.1022 16.658 12.7206 16.9393 12.4393C17.2207 12.158 17.6022 12 18 12C18.3978 12 18.7794 12.158 19.0607 12.4393C19.342 12.7206 19.5 13.1022 19.5 13.5V16.5H22.5C22.8978 16.5 23.2794 16.658 23.5607 16.9393C23.842 17.2206 24 17.6022 24 18Z" fill="white"/>
</g>
<defs>
<clipPath id="clip0_224_155">
<rect width="36" height="36" fill="white"/>
</clipPath>
</defs>
</svg>
