<svg width="36" height="36" viewBox="0 0 36 36" fill="none" xmlns="http://www.w3.org/2000/svg">
<g clip-path="url(#clip0_224_151)">
<path d="M16.4995 3C16.4995 1.3425 17.842 0 19.4995 0C21.157 0 22.4995 1.3425 22.4995 3C22.4995 4.6575 21.157 6 19.4995 6C17.842 6 16.4995 4.6575 16.4995 3ZM17.9125 7.5C18.889 8.454 19.4995 9.78 19.4995 11.25V12H23.11C23.665 12 24.1075 11.484 23.977 10.944C23.5015 8.9685 21.7225 7.5 19.6015 7.5H17.9125ZM11.9995 7.5C13.657 7.5 14.9995 6.1575 14.9995 4.5C14.9995 2.8425 13.657 1.5 11.9995 1.5C10.342 1.5 8.99955 2.8425 8.99955 4.5C8.99955 6.1575 10.342 7.5 11.9995 7.5ZM0.889047 12H4.49955V11.25C4.49955 9.78 5.11005 8.454 6.08655 7.5H4.39755C2.27655 7.5 0.497547 8.9685 0.0220469 10.944C-0.108453 11.484 0.334047 12 0.889047 12ZM34.852 19.5225L24.646 30.978C21.802 34.17 17.7205 36 13.4455 36H5.99805C2.68905 36 -0.00195312 33.309 -0.00195312 30V22.5C-0.00195312 19.191 2.68905 16.5 5.99805 16.5H19.2835C20.992 16.5 22.492 17.4135 23.317 18.7785L28.1425 13.4775C28.9525 12.585 30.064 12.0615 31.27 12.006C32.488 11.9475 33.631 12.366 34.5235 13.179C36.3445 14.8395 36.4915 17.6865 34.8505 19.524L34.852 19.5225ZM32.5045 15.3945C32.206 15.123 31.8205 14.991 31.4125 15.0015C31.0075 15.021 30.634 15.195 30.364 15.495L23.7235 22.7925C23.1445 24.3975 21.715 25.6275 19.9525 25.8795L12.211 26.985C11.389 27.096 10.63 26.532 10.513 25.713C10.396 24.8925 10.966 24.1335 11.7865 24.0165L19.528 22.911C20.3665 22.791 20.998 22.062 20.998 21.2145C20.998 20.2695 20.2285 19.5015 19.2835 19.5015H5.99955C4.34505 19.5015 2.99955 20.847 2.99955 22.5015V30.0015C2.99955 31.656 4.34505 33.0015 5.99955 33.0015H13.447C16.8655 33.0015 20.131 31.5375 22.4065 28.9845L32.614 17.5275C33.166 16.9095 33.1165 15.954 32.506 15.396L32.5045 15.3945ZM8.41005 13.5H15.589C16.1575 13.5 16.609 12.984 16.4755 12.444C15.9895 10.4685 14.17 9 11.9995 9C9.82905 9 8.00955 10.4685 7.52355 12.444C7.39005 12.984 7.84305 13.5 8.41005 13.5ZM4.49955 6C6.15705 6 7.49955 4.6575 7.49955 3C7.49955 1.3425 6.15705 0 4.49955 0C2.84205 0 1.49955 1.3425 1.49955 3C1.49955 4.6575 2.84205 6 4.49955 6Z" fill="white"/>
</g>
<defs>
<clipPath id="clip0_224_151">
<rect width="36" height="36" fill="white"/>
</clipPath>
</defs>
</svg>
