<svg width="72" height="62" viewBox="0 0 72 62" fill="none" xmlns="http://www.w3.org/2000/svg">
<path d="M50.6317 18.5223C50.3304 18.221 49.9286 18.0201 49.4933 18.0201C49.3594 18.0201 49.2254 18.0536 49.0915 18.0871L35.8326 21.3683L41.558 5.86607C41.6585 5.66518 41.7254 5.46428 41.7254 5.26339C41.7254 4.4933 41.0558 3.85714 40.2188 3.85714H29.2366C28.5335 3.85714 27.9308 4.29241 27.7634 4.92857L21.0335 32.5513C20.933 33.0201 21.067 33.5223 21.4688 33.8571C21.7366 34.0915 22.1384 34.2254 22.5067 34.2254C22.6406 34.2254 22.7746 34.2254 22.9085 34.192L36.5022 30.8103L29.9062 57.8638C29.7388 58.567 30.1741 59.2701 30.9107 59.5045C31.0781 59.5379 31.2455 59.5714 31.3795 59.5714C31.9821 59.5714 32.5179 59.2366 32.7857 58.7344L50.8661 19.9955C51.1004 19.4933 51 18.9241 50.6317 18.5223Z" fill="white"/>
</svg>
