<svg width="36" height="36" viewBox="0 0 36 36" fill="none" xmlns="http://www.w3.org/2000/svg">
<g clip-path="url(#clip0_224_153)">
<path d="M15 27C15 28.533 15.2985 29.9925 15.822 31.341L4.0005 22.5H0V19.5H4.9995L15.0015 26.979C15.0015 26.979 15.0015 26.9925 15.0015 27H15ZM31.854 3L27.4305 0.7875C24.6855 -0.5835 21.1995 -0.069 18.972 2.031L18.045 2.904L16.995 1.947C15.618 0.6915 13.8315 0 11.91 0C10.758 0 9.603 0.273 8.5695 0.7875L4.146 3H0V6H4.854L9.909 3.471C11.451 2.7 13.596 2.91 14.973 4.164L15.852 4.965L11.8815 8.703C10.2735 10.311 10.0155 12.8505 11.2845 14.6115C12.0645 15.6945 13.269 16.377 14.586 16.485C14.709 16.494 14.8305 16.5 14.952 16.5C16.1415 16.5 17.283 16.032 18.108 15.2055L19.6155 13.7625L22.4595 15.8955C23.658 15.405 24.957 15.1125 26.313 15.036L21.813 11.661L24.345 9.237L22.2705 7.0695L16.0095 13.062C15.699 13.374 15.2655 13.5375 14.8275 13.497C14.382 13.461 13.9875 13.236 13.719 12.8625C13.308 12.291 13.434 11.3985 13.971 10.86L21.0285 4.2165C22.3605 2.9625 24.4485 2.6535 26.0895 3.474L31.146 6.003H36V3.003H31.854V3ZM36 27C36 31.9635 31.9635 36 27 36C22.0365 36 18 31.9635 18 27C18 22.0365 22.0365 18 27 18C31.9635 18 36 22.0365 36 27ZM33 27C33 23.691 30.309 21 27 21C23.691 21 21 23.691 21 27C21 30.309 23.691 33 27 33C30.309 33 33 30.309 33 27ZM26.157 27.4845L24.294 25.68L22.206 27.834L24.5085 30.063C24.948 30.507 25.5345 30.75 26.1585 30.75C26.7825 30.75 27.369 30.507 27.7995 30.0765L31.791 26.1585L29.6895 24.0165L26.157 27.4845Z" fill="white"/>
</g>
<defs>
<clipPath id="clip0_224_153">
<rect width="36" height="36" fill="white"/>
</clipPath>
</defs>
</svg>
