<svg width="458" height="377" viewBox="0 0 458 377" fill="none" xmlns="http://www.w3.org/2000/svg">
<circle cx="229" cy="228.7" r="79.3746" stroke="white" stroke-opacity="0.1" stroke-width="10"/>
<circle cx="229.001" cy="44.4077" r="44.4077" fill="url(#paint0_linear_607_1186)"/>
<g clip-path="url(#clip0_607_1186)">
<path d="M233.443 45.518H221.786C220.427 45.5197 219.107 45.0672 218.035 44.2325C216.962 43.3977 216.2 42.2286 215.868 40.9108C215.536 39.593 215.654 38.2022 216.204 36.9593C216.753 35.7163 217.702 34.6926 218.9 34.0508C218.242 32.7929 217.9 31.3945 217.901 29.9753C217.907 27.7974 218.714 25.6979 220.167 24.0758C221.62 22.4536 223.619 21.422 225.783 21.177C227.947 20.932 230.126 21.4906 231.905 22.7468C233.684 24.0029 234.939 25.869 235.433 27.9902C237.55 28.4875 239.411 29.7445 240.664 31.5228C241.916 33.3011 242.472 35.4771 242.227 37.6382C241.982 39.7993 240.952 41.7953 239.333 43.2477C237.714 44.7 235.618 45.5079 233.443 45.518ZM226.782 23.3141C225.016 23.3159 223.323 24.0182 222.074 25.2671C220.825 26.5159 220.123 28.2092 220.121 29.9753C220.119 31.4007 220.58 32.7882 221.433 33.9298L222.412 35.2542L220.818 35.6661C219.902 35.8994 219.103 36.4596 218.571 37.2412C218.039 38.0227 217.811 38.9718 217.93 39.9097C218.049 40.8476 218.506 41.7096 219.217 42.3336C219.927 42.9576 220.841 43.3004 221.786 43.2976H233.443C235.122 43.2813 236.732 42.632 237.952 41.4796C239.172 40.3273 239.912 38.7567 240.025 37.0821C240.137 35.4075 239.613 33.7523 238.557 32.4474C237.502 31.1425 235.992 30.2842 234.331 30.0441L233.491 29.9331L233.38 29.0916C233.164 27.494 232.376 26.0287 231.164 24.9666C229.951 23.9045 228.394 23.3175 226.782 23.3141Z" fill="white"/>
</g>
<circle cx="89.1147" cy="107.689" r="44.4077" fill="url(#paint1_linear_607_1186)"/>
<g clip-path="url(#clip1_607_1186)">
<path d="M102.369 88.4313L98.9594 79.1778C98.4897 77.9 97.1453 77.2006 95.8242 77.5514L90.2255 79.0446V77.7135C90.2255 77.1006 89.7281 76.6033 89.1153 76.6033C88.5025 76.6033 88.0051 77.1006 88.0051 77.7135V79.6363L82.1721 81.1917C80.7788 81.5636 79.6487 82.5939 79.1491 83.9472L75.8618 92.872C75.8163 92.9953 75.793 93.5903 75.793 93.5903C75.793 96.3725 78.0134 98.806 80.7922 98.806C82.0778 98.806 83.289 98.3242 84.2271 97.4338C85.2163 96.4946 85.7836 95.1735 85.7836 93.8101C85.7836 93.8101 85.7603 92.9975 85.717 92.8754L82.3098 83.5042C82.4475 83.4343 82.5929 83.3777 82.745 83.3377L88.0051 81.9344V101.028H81.3439C80.7311 101.028 80.2337 101.525 80.2337 102.138C80.2337 102.751 80.7311 103.248 81.3439 103.248H96.8866C97.4995 103.248 97.9968 102.751 97.9968 102.138C97.9968 101.525 97.4995 101.028 96.8866 101.028H90.2255V81.3416L95.661 79.8917L92.5147 88.4302C92.4692 88.5534 92.4459 89.1484 92.4459 89.1484C92.4459 91.9306 94.523 94.2187 97.1753 94.3575C98.5619 94.4307 99.8775 93.9456 100.881 92.993C101.87 92.0538 102.438 90.7327 102.438 89.3694C102.438 89.3694 102.414 88.5534 102.369 88.4302V88.4313ZM80.6378 96.5834C79.4377 96.5201 78.433 95.582 78.1222 94.3664H83.5088C83.3978 94.9203 83.1202 95.4255 82.6995 95.824C82.1422 96.3547 81.4061 96.6289 80.639 96.5823L80.6378 96.5834ZM83.0892 92.146H78.4952L80.8077 85.87L83.0892 92.146ZM97.4417 81.4803L99.7354 87.7052H95.1481L97.4417 81.4803ZM97.2907 92.1426C96.0906 92.0794 95.0859 91.1412 94.775 89.9256H100.161C100.05 90.4796 99.772 90.9847 99.3513 91.3833C98.7939 91.9139 98.0579 92.1826 97.2907 92.1426Z" fill="white"/>
</g>
<circle cx="44.7085" cy="233.14" r="44.4077" fill="url(#paint2_linear_607_1186)"/>
<path d="M68.6836 244.464H70.149L71.6367 248.161H71.6589L72.9911 244.464H74.3789L71.9476 250.704C71.5146 251.803 71.1593 252.458 69.8271 252.458C69.4829 252.458 69.1388 252.413 68.8057 252.325L68.9722 251.126C69.1832 251.203 69.4163 251.259 69.6495 251.259C70.3489 251.259 70.4821 251.003 70.7263 250.415L70.9595 249.838L68.6836 244.464Z" fill="white"/>
<path d="M65.5678 245.597H64.4688V244.464H65.5678V242.921H66.9001V244.464H68.3655V245.597H66.9001V247.962C66.9001 248.528 67.1221 248.794 67.6439 248.794C67.977 248.794 68.2545 248.716 68.3655 248.628V249.749C68.1102 249.871 67.6106 249.927 67.3108 249.927C66.0563 249.927 65.5678 249.438 65.5678 248.095V245.597Z" fill="white"/>
<path d="M62.8828 241.855C63.3713 241.855 63.7488 242.2 63.7488 242.655C63.7488 243.132 63.3602 243.454 62.8828 243.454C62.4054 243.454 62.0391 243.088 62.0391 242.655C62.0391 242.222 62.4054 241.855 62.8828 241.855ZM63.56 244.464V249.793H62.2278V244.464H63.56Z" fill="white"/>
<path d="M57.1643 249.793H55.832V244.464H57.0977V245.319H57.1199C57.4418 244.62 58.0524 244.331 58.7518 244.331C60.3394 244.331 60.6947 245.563 60.6947 246.385V249.793H59.3624V247.029C59.3624 245.963 59.0183 245.53 58.3855 245.53C57.5306 245.53 57.1643 246.152 57.1643 246.862V249.793Z" fill="white"/>
<path d="M49.457 244.464H50.7893V247.218C50.7893 248.283 51.1223 248.727 51.7662 248.727C52.5545 248.727 52.9874 248.195 52.9874 247.373V244.464H54.3197V249.793H53.0541V248.938H53.0319C52.721 249.605 52.1548 249.927 51.3999 249.927C49.8456 249.927 49.457 248.75 49.457 247.873V244.464Z" fill="white"/>
<path d="M41.0744 249.793H39.7422V244.464H41.0078V245.297H41.03C41.3187 244.698 41.8849 244.331 42.662 244.331C43.4835 244.331 44.0497 244.653 44.3273 245.319C44.7159 244.642 45.282 244.331 46.0814 244.331C47.3914 244.331 48.002 245.186 48.002 246.651V249.793H46.6698V246.74C46.6698 245.952 46.3478 245.53 45.6817 245.53C44.9823 245.53 44.5382 246.041 44.5382 246.907V249.793H43.206V246.585C43.206 246.052 42.9951 245.53 42.2956 245.53C41.4741 245.53 41.0744 246.119 41.0744 246.885V249.793Z" fill="white"/>
<path d="M31.4143 249.793H30.082V244.464H31.3477V245.297H31.3699C31.6585 244.698 32.2247 244.331 33.0018 244.331C33.8234 244.331 34.3896 244.653 34.6671 245.319C35.0557 244.642 35.6219 244.331 36.4212 244.331C37.7313 244.331 38.3419 245.186 38.3419 246.651V249.793H37.0096V246.74C37.0096 245.952 36.6877 245.53 36.0216 245.53C35.3221 245.53 34.8781 246.041 34.8781 246.907V249.793H33.5458V246.585C33.5458 246.052 33.3349 245.53 32.6355 245.53C31.8139 245.53 31.4143 246.119 31.4143 246.885V249.793Z" fill="white"/>
<path d="M25.9914 244.331C27.6233 244.331 28.889 245.464 28.889 247.129C28.889 248.794 27.6233 249.927 25.9914 249.927C24.3594 249.927 23.0938 248.794 23.0938 247.129C23.0938 245.475 24.3705 244.331 25.9914 244.331ZM24.426 247.129C24.426 248.05 25.0921 248.728 25.9914 248.728C26.9239 248.728 27.5567 248.017 27.5567 247.129C27.5567 246.207 26.8906 245.53 25.9803 245.53C25.0921 245.53 24.426 246.219 24.426 247.129Z" fill="white"/>
<path d="M19.6131 241.733C20.7344 241.733 21.6225 242.133 22.3663 242.977L21.2783 243.776C20.8232 243.288 20.3125 242.999 19.6242 242.999C18.0144 242.999 16.9264 244.242 16.9264 245.808C16.9264 247.429 17.97 248.727 19.6242 248.727C20.368 248.727 20.9453 248.339 21.3894 247.773L22.544 248.594C21.8667 249.549 20.7677 249.993 19.6131 249.993C17.1928 249.993 15.4609 248.339 15.4609 245.896C15.4609 243.454 17.104 241.733 19.6131 241.733Z" fill="white"/>
<g clip-path="url(#clip2_607_1186)">
<path d="M44.709 225.369C43.8307 225.369 42.9722 225.109 42.2419 224.621C41.5116 224.133 40.9424 223.439 40.6063 222.628C40.2702 221.816 40.1822 220.923 40.3536 220.062C40.5249 219.201 40.9479 218.409 41.5689 217.788C42.19 217.167 42.9813 216.744 43.8427 216.573C44.7041 216.402 45.597 216.49 46.4084 216.826C47.2199 217.162 47.9134 217.731 48.4014 218.461C48.8894 219.192 49.1498 220.05 49.1498 220.928C49.1498 222.106 48.6819 223.236 47.8491 224.068C47.0163 224.901 45.8868 225.369 44.709 225.369ZM44.709 218.708C44.2699 218.708 43.8406 218.838 43.4754 219.082C43.1103 219.326 42.8257 219.673 42.6577 220.079C42.4896 220.484 42.4456 220.931 42.5313 221.362C42.617 221.792 42.8285 222.188 43.139 222.498C43.4495 222.809 43.8451 223.02 44.2759 223.106C44.7066 223.192 45.153 223.148 45.5587 222.98C45.9645 222.812 46.3112 222.527 46.5552 222.162C46.7992 221.797 46.9294 221.368 46.9294 220.928C46.9294 220.34 46.6955 219.775 46.2791 219.358C45.8627 218.942 45.2979 218.708 44.709 218.708ZM51.3702 233.141C51.3702 231.374 50.6684 229.68 49.4192 228.43C48.17 227.181 46.4757 226.479 44.709 226.479C42.9424 226.479 41.2481 227.181 39.9989 228.43C38.7497 229.68 38.0479 231.374 38.0479 233.141C38.0479 233.435 38.1648 233.717 38.373 233.926C38.5812 234.134 38.8636 234.251 39.1581 234.251C39.4525 234.251 39.7349 234.134 39.9431 233.926C40.1513 233.717 40.2683 233.435 40.2683 233.141C40.2683 231.963 40.7361 230.833 41.5689 230C42.4017 229.168 43.5313 228.7 44.709 228.7C45.8868 228.7 47.0163 229.168 47.8491 230C48.6819 230.833 49.1498 231.963 49.1498 233.141C49.1498 233.435 49.2668 233.717 49.475 233.926C49.6832 234.134 49.9656 234.251 50.26 234.251C50.5544 234.251 50.8368 234.134 51.045 233.926C51.2532 233.717 51.3702 233.435 51.3702 233.141ZM51.3702 216.488C50.4919 216.488 49.6333 216.227 48.903 215.739C48.1727 215.251 47.6036 214.558 47.2674 213.746C46.9313 212.935 46.8434 212.042 47.0147 211.181C47.1861 210.319 47.609 209.528 48.2301 208.907C48.8511 208.286 49.6424 207.863 50.5038 207.691C51.3653 207.52 52.2581 207.608 53.0696 207.944C53.881 208.28 54.5746 208.849 55.0625 209.58C55.5505 210.31 55.811 211.169 55.811 212.047C55.811 213.225 55.3431 214.354 54.5103 215.187C53.6775 216.02 52.548 216.488 51.3702 216.488ZM51.3702 209.826C50.931 209.826 50.5017 209.957 50.1366 210.201C49.7715 210.445 49.4869 210.791 49.3188 211.197C49.1508 211.603 49.1068 212.049 49.1925 212.48C49.2781 212.911 49.4896 213.306 49.8001 213.617C50.1107 213.927 50.5063 214.139 50.937 214.225C51.3677 214.31 51.8142 214.266 52.2199 214.098C52.6256 213.93 52.9724 213.646 53.2164 213.28C53.4603 212.915 53.5906 212.486 53.5906 212.047C53.5906 211.458 53.3566 210.893 52.9402 210.477C52.5238 210.06 51.9591 209.826 51.3702 209.826ZM58.0313 224.259C58.0296 222.493 57.3272 220.8 56.0784 219.551C54.8296 218.302 53.1363 217.6 51.3702 217.598C51.0757 217.598 50.7934 217.715 50.5852 217.923C50.377 218.131 50.26 218.414 50.26 218.708C50.26 219.002 50.377 219.285 50.5852 219.493C50.7934 219.701 51.0757 219.818 51.3702 219.818C52.548 219.818 53.6775 220.286 54.5103 221.119C55.3431 221.952 55.811 223.081 55.811 224.259C55.811 224.553 55.9279 224.836 56.1361 225.044C56.3443 225.252 56.6267 225.369 56.9211 225.369C57.2156 225.369 57.498 225.252 57.7062 225.044C57.9144 224.836 58.0313 224.553 58.0313 224.259ZM38.0479 216.488C37.1696 216.488 36.311 216.227 35.5807 215.739C34.8504 215.251 34.2812 214.558 33.9451 213.746C33.609 212.935 33.5211 212.042 33.6924 211.181C33.8638 210.319 34.2867 209.528 34.9078 208.907C35.5288 208.286 36.3201 207.863 37.1815 207.691C38.0429 207.52 38.9358 207.608 39.7473 207.944C40.5587 208.28 41.2523 208.849 41.7402 209.58C42.2282 210.31 42.4886 211.169 42.4886 212.047C42.4886 213.225 42.0208 214.354 41.188 215.187C40.3552 216.02 39.2256 216.488 38.0479 216.488ZM38.0479 209.826C37.6087 209.826 37.1794 209.957 36.8143 210.201C36.4492 210.445 36.1646 210.791 35.9965 211.197C35.8284 211.603 35.7845 212.049 35.8702 212.48C35.9558 212.911 36.1673 213.306 36.4778 213.617C36.7884 213.927 37.184 214.139 37.6147 214.225C38.0454 214.31 38.4919 214.266 38.8976 214.098C39.3033 213.93 39.6501 213.646 39.8941 213.28C40.138 212.915 40.2683 212.486 40.2683 212.047C40.2683 211.458 40.0343 210.893 39.6179 210.477C39.2015 210.06 38.6368 209.826 38.0479 209.826ZM33.6071 224.259C33.6071 223.081 34.075 221.952 34.9078 221.119C35.7406 220.286 36.8701 219.818 38.0479 219.818C38.3423 219.818 38.6247 219.701 38.8329 219.493C39.0411 219.285 39.1581 219.002 39.1581 218.708C39.1581 218.414 39.0411 218.131 38.8329 217.923C38.6247 217.715 38.3423 217.598 38.0479 217.598C36.2818 217.6 34.5885 218.302 33.3397 219.551C32.0908 220.8 31.3885 222.493 31.3867 224.259C31.3867 224.553 31.5037 224.836 31.7119 225.044C31.9201 225.252 32.2025 225.369 32.4969 225.369C32.7914 225.369 33.0737 225.252 33.2819 225.044C33.4901 224.836 33.6071 224.553 33.6071 224.259Z" fill="white"/>
</g>
<circle cx="366.666" cy="107.689" r="44.4077" fill="url(#paint3_linear_607_1186)"/>
<path d="M388.302 119.99C389.135 119.99 389.823 120.278 390.212 120.8L389.323 121.599C389.057 121.233 388.724 121.055 388.28 121.055C387.847 121.055 387.503 121.277 387.503 121.621C387.503 122.054 388.102 122.132 388.768 122.288C389.59 122.476 390.378 122.776 390.378 123.875C390.378 124.996 389.39 125.585 388.069 125.585C387.247 125.585 386.548 125.374 386.004 124.763L386.892 123.931C387.347 124.43 387.702 124.586 388.158 124.586C388.646 124.586 389.046 124.341 389.046 123.975C389.046 123.464 388.402 123.376 387.725 123.22C387.003 123.054 386.17 122.798 386.17 121.71C386.17 120.411 387.392 119.99 388.302 119.99Z" fill="white"/>
<path d="M382.164 125.452V120.123H383.496V120.966H383.518C383.807 120.356 384.396 119.99 385.095 119.99C385.295 119.99 385.395 120.023 385.572 120.067V121.355C385.317 121.288 385.128 121.255 384.928 121.255C383.918 121.255 383.496 121.966 383.496 122.676V125.452H382.164Z" fill="white"/>
<path d="M378.019 119.99C379.651 119.99 380.916 121.122 380.916 122.787C380.916 124.452 379.651 125.585 378.019 125.585C376.387 125.585 375.121 124.452 375.121 122.787C375.121 121.133 376.398 119.99 378.019 119.99ZM376.453 122.787C376.453 123.709 377.119 124.386 378.019 124.386C378.951 124.386 379.584 123.675 379.584 122.787C379.584 121.866 378.918 121.189 378.008 121.189C377.119 121.189 376.453 121.877 376.453 122.787Z" fill="white"/>
<path d="M371.552 121.255H370.453V120.123H371.552V118.579H372.884V120.123H374.35V121.255H372.884V123.62C372.884 124.186 373.106 124.452 373.628 124.452C373.961 124.452 374.239 124.375 374.35 124.286V125.407C374.095 125.529 373.595 125.585 373.295 125.585C372.041 125.585 371.552 125.096 371.552 123.753V121.255Z" fill="white"/>
<path d="M367.962 119.99C368.795 119.99 369.483 120.278 369.872 120.8L368.984 121.599C368.717 121.233 368.384 121.055 367.94 121.055C367.507 121.055 367.163 121.277 367.163 121.621C367.163 122.054 367.762 122.132 368.428 122.288C369.25 122.476 370.038 122.776 370.038 123.875C370.038 124.996 369.05 125.585 367.729 125.585C366.907 125.585 366.208 125.374 365.664 124.763L366.552 123.931C367.007 124.43 367.363 124.586 367.818 124.586C368.306 124.586 368.706 124.341 368.706 123.975C368.706 123.464 368.062 123.376 367.385 123.22C366.663 123.054 365.831 122.798 365.831 121.71C365.831 120.411 367.052 119.99 367.962 119.99Z" fill="white"/>
<path d="M362.398 119.99C364.085 119.99 364.896 121.266 364.896 122.876V123.253H360.832C360.921 124.02 361.498 124.519 362.264 124.519C362.864 124.519 363.319 124.264 363.697 123.797L364.651 124.519C364.074 125.23 363.308 125.585 362.398 125.585C360.766 125.585 359.5 124.452 359.5 122.787C359.5 121.133 360.766 119.99 362.398 119.99ZM360.832 122.254H363.563C363.552 121.422 362.986 120.989 362.198 120.989C361.41 120.989 360.932 121.499 360.832 122.254Z" fill="white"/>
<path d="M353.285 120.123H354.74L356.161 123.853H356.183L357.615 120.123H358.98L356.882 125.452H355.461L353.285 120.123Z" fill="white"/>
<path d="M348.965 125.452H347.633V120.123H348.898V120.978H348.921C349.243 120.278 349.853 119.99 350.553 119.99C352.14 119.99 352.495 121.222 352.495 122.043V125.452H351.163V122.687C351.163 121.621 350.819 121.189 350.186 121.189C349.331 121.189 348.965 121.81 348.965 122.521V125.452Z" fill="white"/>
<path d="M346.032 117.592V125.452H344.633V117.592H346.032Z" fill="white"/>
<g clip-path="url(#clip3_607_1186)">
<path d="M365.554 82.1543C361.881 82.1543 358.893 85.1418 358.893 88.8155C358.893 92.4891 361.881 95.4766 365.554 95.4766C369.228 95.4766 372.215 92.4891 372.215 88.8155C372.215 85.1418 369.228 82.1543 365.554 82.1543ZM365.554 93.2562C363.105 93.2562 361.113 91.2645 361.113 88.8155C361.113 86.3664 363.105 84.3747 365.554 84.3747C368.003 84.3747 369.995 86.3664 369.995 88.8155C369.995 91.2645 368.003 93.2562 365.554 93.2562ZM368.85 99.3634C368.697 99.9585 368.088 100.315 367.498 100.162C366.868 99.9995 366.213 99.9174 365.554 99.9174C361.27 99.9174 357.783 103.403 357.783 107.689C357.783 108.302 357.287 108.799 356.673 108.799C356.059 108.799 355.562 108.302 355.562 107.689C355.562 102.18 360.044 97.697 365.554 97.697C366.399 97.697 367.24 97.8025 368.051 98.0123C368.645 98.1644 369.002 98.7705 368.85 99.3634ZM379.987 103.248C379.987 105.084 378.492 106.579 376.656 106.579V107.689C376.656 108.302 376.16 108.799 375.546 108.799C374.932 108.799 374.436 108.302 374.436 107.689V106.576H374.136C372.953 106.576 371.848 105.939 371.254 104.915C370.946 104.385 371.127 103.705 371.658 103.398C372.189 103.091 372.868 103.271 373.175 103.802C373.373 104.144 373.741 104.356 374.136 104.356L376.656 104.358C377.268 104.358 377.765 103.86 377.765 103.248C377.765 102.828 377.464 102.473 377.05 102.404L373.674 101.841C372.184 101.594 371.104 100.317 371.104 98.8072C371.104 96.9709 372.598 95.4766 374.435 95.4766V94.3664C374.435 93.7536 374.931 93.2562 375.545 93.2562C376.159 93.2562 376.655 93.7536 376.655 94.3664V95.4799H376.956C378.136 95.4799 379.241 96.1161 379.836 97.1397C380.144 97.6692 379.965 98.3487 379.435 98.6573C378.904 98.9659 378.224 98.785 377.917 98.2554C377.714 97.909 377.356 97.7003 376.956 97.7003L374.435 97.697C373.823 97.697 373.326 98.1955 373.326 98.8072C373.326 99.2268 373.626 99.5821 374.041 99.6509L377.417 100.214C378.907 100.461 379.987 101.738 379.987 103.248Z" fill="white"/>
</g>
<circle cx="413.291" cy="233.14" r="44.4077" fill="url(#paint4_linear_607_1186)"/>
<g clip-path="url(#clip4_607_1186)">
<path d="M411.071 230.92C411.071 231.534 410.574 232.03 409.96 232.03H405.52C402.459 232.03 399.969 229.54 399.969 226.479V210.937C399.969 207.876 402.459 205.386 405.52 205.386H412.181C415.242 205.386 417.732 207.876 417.732 210.937V215.377C417.732 215.991 417.236 216.488 416.622 216.488C416.008 216.488 415.511 215.991 415.511 215.377V210.937C415.511 209.1 414.017 207.606 412.181 207.606H405.52C403.683 207.606 402.189 209.1 402.189 210.937V226.479C402.189 228.316 403.683 229.81 405.52 229.81H409.96C410.574 229.81 411.071 230.306 411.071 230.92ZM406.63 219.818H405.52C404.906 219.818 404.41 220.314 404.41 220.928C404.41 221.542 404.906 222.039 405.52 222.039H406.63C407.244 222.039 407.74 221.542 407.74 220.928C407.74 220.314 407.244 219.818 406.63 219.818ZM412.181 219.818H411.071C410.457 219.818 409.96 220.314 409.96 220.928C409.96 221.542 410.457 222.039 411.071 222.039H412.181C412.795 222.039 413.291 221.542 413.291 220.928C413.291 220.314 412.795 219.818 412.181 219.818ZM406.63 224.259H405.52C404.906 224.259 404.41 224.755 404.41 225.369C404.41 225.983 404.906 226.479 405.52 226.479H406.63C407.244 226.479 407.74 225.983 407.74 225.369C407.74 224.755 407.244 224.259 406.63 224.259ZM406.63 210.937H405.52C404.906 210.937 404.41 211.433 404.41 212.047C404.41 212.661 404.906 213.157 405.52 213.157H406.63C407.244 213.157 407.74 212.661 407.74 212.047C407.74 211.433 407.244 210.937 406.63 210.937ZM412.181 210.937H411.071C410.457 210.937 409.96 211.433 409.96 212.047C409.96 212.661 410.457 213.157 411.071 213.157H412.181C412.795 213.157 413.291 212.661 413.291 212.047C413.291 211.433 412.795 210.937 412.181 210.937ZM406.63 215.377H405.52C404.906 215.377 404.41 215.874 404.41 216.488C404.41 217.101 404.906 217.598 405.52 217.598H406.63C407.244 217.598 407.74 217.101 407.74 216.488C407.74 215.874 407.244 215.377 406.63 215.377ZM412.181 215.377H411.071C410.457 215.377 409.96 215.874 409.96 216.488C409.96 217.101 410.457 217.598 411.071 217.598H412.181C412.795 217.598 413.291 217.101 413.291 216.488C413.291 215.874 412.795 215.377 412.181 215.377ZM426.613 224.814V228.145C426.613 230.287 424.87 232.03 422.728 232.03H417.177C415.034 232.03 413.291 230.287 413.291 228.145V224.814C413.291 222.862 414.743 221.257 416.622 220.985V220.928C416.622 219.704 417.617 218.708 418.842 218.708H421.062C422.287 218.708 423.283 219.704 423.283 220.928V220.985C425.161 221.257 426.613 222.862 426.613 224.814ZM415.511 224.814V225.369H424.393V224.814C424.393 223.896 423.646 223.149 422.728 223.149H417.177C416.259 223.149 415.511 223.896 415.511 224.814ZM424.393 228.145V227.589H421.062C421.062 228.203 420.566 228.7 419.952 228.7C419.338 228.7 418.842 228.203 418.842 227.589H415.511V228.145C415.511 229.063 416.259 229.81 417.177 229.81H422.728C423.646 229.81 424.393 229.063 424.393 228.145Z" fill="white"/>
</g>
<path d="M89.1172 232.03L94.7524 233.286L93.0226 227.778L89.1172 232.03ZM142.515 240.357C142.515 241.829 143.709 243.023 145.182 243.023C146.655 243.023 147.849 241.829 147.849 240.357C147.849 238.884 146.655 237.69 145.182 237.69C143.709 237.69 142.515 238.884 142.515 240.357ZM92.0564 231.697C92.6599 231.541 93.2934 231.389 93.9548 231.243L93.7382 230.266C93.066 230.415 92.4214 230.57 91.8066 230.729L92.0564 231.697ZM95.853 230.852C96.4735 230.734 97.1134 230.621 97.7712 230.515L97.6123 229.528C96.9451 229.636 96.2959 229.75 95.6662 229.87L95.853 230.852ZM99.702 230.232C100.333 230.147 100.977 230.07 101.634 230L101.528 229.006C100.862 229.077 100.209 229.155 99.5698 229.24L99.702 230.232ZM103.571 229.819C104.209 229.768 104.857 229.724 105.513 229.688L105.459 228.689C104.793 228.726 104.137 228.77 103.491 228.822L103.571 229.819ZM107.459 229.607C108.101 229.589 108.751 229.579 109.407 229.577L109.404 228.577C108.74 228.579 108.082 228.589 107.431 228.608L107.459 229.607ZM111.354 229.599C111.997 229.615 112.646 229.64 113.3 229.673L113.351 228.675C112.689 228.64 112.031 228.616 111.378 228.599L111.354 229.599ZM115.242 229.801C115.885 229.853 116.531 229.913 117.18 229.984L117.288 228.99C116.629 228.918 115.974 228.856 115.322 228.804L115.242 229.801ZM119.111 230.222C119.75 230.311 120.391 230.41 121.033 230.519L121.201 229.533C120.548 229.422 119.897 229.322 119.248 229.232L119.111 230.222ZM122.945 230.874C123.578 231.001 124.211 231.14 124.845 231.289L125.074 230.316C124.43 230.164 123.786 230.023 123.143 229.893L122.945 230.874ZM126.729 231.766C127.352 231.935 127.974 232.115 128.595 232.307L128.89 231.351C128.258 231.156 127.624 230.973 126.991 230.801L126.729 231.766ZM130.442 232.912C131.051 233.124 131.659 233.347 132.264 233.583L132.627 232.651C132.01 232.411 131.39 232.183 130.77 231.967L130.442 232.912ZM134.061 234.32C134.653 234.576 135.242 234.844 135.828 235.124L136.26 234.222C135.662 233.936 135.061 233.663 134.458 233.402L134.061 234.32ZM137.563 235.996C138.132 236.297 138.698 236.61 139.26 236.936L139.762 236.071C139.188 235.738 138.61 235.419 138.029 235.112L137.563 235.996ZM140.917 237.942C141.46 238.287 141.999 238.644 142.532 239.015L143.103 238.193C142.558 237.815 142.008 237.45 141.454 237.098L140.917 237.942ZM144.102 240.153C144.36 240.348 144.616 240.547 144.872 240.749L145.492 239.964C145.231 239.758 144.969 239.555 144.706 239.356L144.102 240.153Z" fill="#515151"/>
<path d="M368.328 232.03L362.693 233.286L364.423 227.778L368.328 232.03ZM314.93 240.357C314.93 241.829 313.736 243.023 312.263 243.023C310.791 243.023 309.597 241.829 309.597 240.357C309.597 238.884 310.791 237.69 312.263 237.69C313.736 237.69 314.93 238.884 314.93 240.357ZM365.389 231.697C364.785 231.541 364.152 231.389 363.491 231.243L363.707 230.266C364.379 230.415 365.024 230.57 365.639 230.729L365.389 231.697ZM361.592 230.852C360.972 230.734 360.332 230.621 359.674 230.515L359.833 229.528C360.5 229.636 361.149 229.75 361.779 229.87L361.592 230.852ZM357.743 230.232C357.113 230.147 356.468 230.07 355.812 230L355.918 229.006C356.583 229.077 357.236 229.155 357.875 229.24L357.743 230.232ZM353.874 229.819C353.237 229.768 352.589 229.724 351.932 229.688L351.986 228.689C352.652 228.726 353.308 228.77 353.955 228.822L353.874 229.819ZM349.986 229.607C349.344 229.589 348.695 229.579 348.039 229.577L348.041 228.577C348.706 228.579 349.364 228.589 350.014 228.608L349.986 229.607ZM346.091 229.599C345.448 229.615 344.799 229.64 344.146 229.673L344.094 228.675C344.756 228.64 345.414 228.616 346.067 228.599L346.091 229.599ZM342.203 229.801C341.561 229.853 340.915 229.913 340.266 229.984L340.158 228.99C340.816 228.918 341.472 228.856 342.124 228.804L342.203 229.801ZM338.335 230.222C337.696 230.311 337.055 230.41 336.412 230.519L336.245 229.533C336.897 229.422 337.548 229.322 338.197 229.232L338.335 230.222ZM334.5 230.874C333.867 231.001 333.234 231.14 332.601 231.289L332.371 230.316C333.015 230.164 333.659 230.023 334.302 229.893L334.5 230.874ZM330.716 231.766C330.094 231.935 329.471 232.115 328.85 232.307L328.555 231.351C329.188 231.156 329.821 230.973 330.455 230.801L330.716 231.766ZM327.004 232.912C326.394 233.124 325.787 233.347 325.181 233.583L324.819 232.651C325.436 232.411 326.055 232.183 326.676 231.967L327.004 232.912ZM323.384 234.32C322.793 234.576 322.203 234.844 321.617 235.124L321.186 234.222C321.783 233.936 322.384 233.663 322.987 233.402L323.384 234.32ZM319.883 235.996C319.313 236.297 318.747 236.61 318.185 236.936L317.684 236.071C318.257 235.738 318.835 235.419 319.416 235.112L319.883 235.996ZM316.528 237.942C315.985 238.287 315.447 238.644 314.913 239.015L314.343 238.193C314.888 237.815 315.438 237.45 315.992 237.098L316.528 237.942ZM313.344 240.153C313.086 240.348 312.829 240.547 312.574 240.749L311.953 239.964C312.214 239.758 312.476 239.555 312.74 239.356L313.344 240.153Z" fill="#515151"/>
<path d="M131.305 122.121L135.086 126.485L136.974 121.029L131.305 122.121ZM170.27 165.419C170.27 166.891 171.464 168.085 172.937 168.085C174.41 168.085 175.604 166.891 175.604 165.419C175.604 163.946 174.41 162.752 172.937 162.752C171.464 162.752 170.27 163.946 170.27 165.419ZM133.863 123.599C134.44 123.831 135.038 124.082 135.653 124.353L136.056 123.438C135.431 123.163 134.824 122.907 134.236 122.671L133.863 123.599ZM137.424 125.166C137.992 125.437 138.572 125.723 139.162 126.024L139.616 125.133C139.019 124.828 138.43 124.538 137.854 124.263L137.424 125.166ZM140.88 126.93C141.439 127.235 142.004 127.552 142.576 127.882L143.076 127.016C142.497 126.682 141.924 126.36 141.358 126.052L140.88 126.93ZM144.247 128.877C144.793 129.211 145.342 129.556 145.893 129.914L146.437 129.074C145.878 128.712 145.322 128.362 144.769 128.024L144.247 128.877ZM147.512 130.991C148.042 131.353 148.573 131.726 149.103 132.109L149.689 131.299C149.151 130.91 148.613 130.533 148.077 130.166L147.512 130.991ZM150.665 133.268C151.176 133.658 151.686 134.057 152.195 134.467L152.822 133.688C152.306 133.273 151.789 132.868 151.271 132.473L150.665 133.268ZM153.692 135.706C154.183 136.123 154.67 136.549 155.155 136.985L155.824 136.242C155.332 135.8 154.837 135.367 154.34 134.944L153.692 135.706ZM156.58 138.305C157.047 138.749 157.509 139.203 157.967 139.665L158.678 138.962C158.213 138.492 157.744 138.032 157.27 137.581L156.58 138.305ZM159.312 141.066C159.752 141.538 160.186 142.018 160.614 142.507L161.366 141.849C160.931 141.351 160.49 140.863 160.044 140.384L159.312 141.066ZM161.868 143.988C162.277 144.487 162.679 144.994 163.073 145.51L163.867 144.902C163.466 144.378 163.057 143.862 162.642 143.355L161.868 143.988ZM164.226 147.071C164.599 147.596 164.965 148.129 165.322 148.67L166.157 148.119C165.793 147.568 165.421 147.025 165.04 146.491L164.226 147.071ZM166.361 150.307C166.695 150.856 167.021 151.414 167.337 151.98L168.21 151.492C167.888 150.915 167.556 150.347 167.215 149.787L166.361 150.307ZM168.25 153.689C168.542 154.262 168.824 154.843 169.096 155.432L170.004 155.013C169.727 154.412 169.439 153.819 169.141 153.235L168.25 153.689ZM169.872 157.207C170.118 157.801 170.353 158.402 170.577 159.012L171.516 158.667C171.287 158.045 171.047 157.431 170.796 156.824L169.872 157.207ZM171.207 160.844C171.403 161.454 171.588 162.072 171.761 162.697L172.724 162.431C172.548 161.792 172.359 161.161 172.159 160.538L171.207 160.844ZM172.237 164.572C172.31 164.887 172.381 165.203 172.448 165.522L173.426 165.316C173.358 164.991 173.286 164.667 173.211 164.346L172.237 164.572Z" fill="#515151"/>
<path d="M326.145 122.121L322.364 126.485L320.475 121.029L326.145 122.121ZM287.179 165.419C287.179 166.891 285.985 168.085 284.512 168.085C283.04 168.085 281.846 166.891 281.846 165.419C281.846 163.946 283.04 162.752 284.512 162.752C285.985 162.752 287.179 163.946 287.179 165.419ZM323.586 123.599C323.009 123.831 322.412 124.082 321.797 124.353L321.393 123.438C322.018 123.163 322.625 122.907 323.213 122.671L323.586 123.599ZM320.026 125.166C319.457 125.437 318.877 125.723 318.288 126.024L317.833 125.133C318.431 124.828 319.019 124.538 319.595 124.263L320.026 125.166ZM316.569 126.93C316.011 127.235 315.445 127.552 314.874 127.882L314.373 127.016C314.952 126.682 315.525 126.36 316.091 126.052L316.569 126.93ZM313.202 128.877C312.656 129.211 312.107 129.556 311.556 129.914L311.012 129.074C311.571 128.712 312.127 128.362 312.68 128.024L313.202 128.877ZM309.937 130.991C309.407 131.353 308.877 131.726 308.346 132.109L307.76 131.299C308.298 130.91 308.836 130.533 309.372 130.166L309.937 130.991ZM306.785 133.268C306.273 133.658 305.763 134.057 305.254 134.467L304.627 133.688C305.143 133.273 305.66 132.868 306.178 132.473L306.785 133.268ZM303.757 135.706C303.267 136.123 302.779 136.549 302.294 136.985L301.626 136.242C302.117 135.8 302.612 135.367 303.109 134.944L303.757 135.706ZM300.869 138.305C300.402 138.749 299.94 139.203 299.482 139.665L298.771 138.962C299.236 138.492 299.706 138.032 300.179 137.581L300.869 138.305ZM298.137 141.066C297.698 141.538 297.264 142.018 296.836 142.507L296.083 141.849C296.518 141.351 296.959 140.863 297.405 140.384L298.137 141.066ZM295.581 143.988C295.173 144.487 294.771 144.994 294.376 145.51L293.582 144.902C293.983 144.378 294.392 143.862 294.808 143.355L295.581 143.988ZM293.224 147.071C292.85 147.596 292.484 148.129 292.127 148.67L291.292 148.119C291.656 147.568 292.029 147.025 292.409 146.491L293.224 147.071ZM291.089 150.307C290.754 150.856 290.428 151.414 290.112 151.98L289.239 151.492C289.561 150.915 289.893 150.347 290.235 149.787L291.089 150.307ZM289.199 153.689C288.907 154.262 288.625 154.843 288.353 155.432L287.445 155.013C287.722 154.412 288.01 153.819 288.308 153.235L289.199 153.689ZM287.577 157.207C287.331 157.801 287.096 158.402 286.872 159.012L285.934 158.667C286.162 158.045 286.402 157.431 286.653 156.824L287.577 157.207ZM286.242 160.844C286.046 161.454 285.861 162.072 285.689 162.697L284.725 162.431C284.901 161.792 285.09 161.161 285.29 160.538L286.242 160.844ZM285.212 164.572C285.139 164.887 285.069 165.203 285.002 165.522L284.023 165.316C284.091 164.991 284.163 164.667 284.238 164.346L285.212 164.572Z" fill="#515151"/>
<path d="M227.891 88.8154L225.004 93.8154H230.777L227.891 88.8154ZM225.224 143.215C225.224 144.688 226.418 145.882 227.891 145.882C229.363 145.882 230.557 144.688 230.557 143.215C230.557 141.742 229.363 140.548 227.891 140.548C226.418 140.548 225.224 141.742 225.224 143.215ZM227.391 91.7297V93.6725H228.391V91.7297H227.391ZM227.391 95.6154V97.5582H228.391V95.6154H227.391ZM227.391 99.501V101.444H228.391V99.501H227.391ZM227.391 103.387V105.33H228.391V103.387H227.391ZM227.391 107.272V109.215H228.391V107.272H227.391ZM227.391 111.158V113.101H228.391V111.158H227.391ZM227.391 115.044V116.987H228.391V115.044H227.391ZM227.391 118.929V120.872H228.391V118.929H227.391ZM227.391 122.815V124.758H228.391V122.815H227.391ZM227.391 126.701V128.644H228.391V126.701H227.391ZM227.391 130.586V132.529H228.391V130.586H227.391ZM227.391 134.472V136.415H228.391V134.472H227.391ZM227.391 138.358V140.301H228.391V138.358H227.391ZM227.391 142.243V143.215H228.391V142.243H227.391Z" fill="#515151"/>
<path d="M107.746 127.588C108.571 127.588 109.253 127.874 109.638 128.391L108.758 129.183C108.494 128.82 108.164 128.644 107.724 128.644C107.295 128.644 106.954 128.864 106.954 129.205C106.954 129.634 107.548 129.711 108.208 129.865C109.022 130.052 109.803 130.349 109.803 131.438C109.803 132.549 108.824 133.132 107.515 133.132C106.701 133.132 106.008 132.923 105.469 132.318L106.349 131.493C106.8 131.988 107.152 132.142 107.603 132.142C108.087 132.142 108.483 131.9 108.483 131.537C108.483 131.031 107.845 130.943 107.174 130.789C106.459 130.624 105.634 130.371 105.634 129.293C105.634 128.006 106.844 127.588 107.746 127.588Z" fill="white"/>
<path d="M101.664 133V127.72H102.984V128.556H103.006C103.292 127.951 103.875 127.588 104.568 127.588C104.766 127.588 104.865 127.621 105.041 127.665V128.941C104.788 128.875 104.601 128.842 104.403 128.842C103.402 128.842 102.984 129.546 102.984 130.25V133H101.664Z" fill="white"/>
<path d="M97.5585 127.588C99.1755 127.588 100.43 128.71 100.43 130.36C100.43 132.01 99.1755 133.132 97.5585 133.132C95.9415 133.132 94.6875 132.01 94.6875 130.36C94.6875 128.721 95.9525 127.588 97.5585 127.588ZM96.0075 130.36C96.0075 131.273 96.6675 131.944 97.5585 131.944C98.4825 131.944 99.1095 131.24 99.1095 130.36C99.1095 129.447 98.4495 128.776 97.5475 128.776C96.6675 128.776 96.0075 129.458 96.0075 130.36Z" fill="white"/>
<path d="M91.8668 127.588C92.6918 127.588 93.3738 127.874 93.7588 128.391L92.8788 129.183C92.6148 128.82 92.2848 128.644 91.8448 128.644C91.4158 128.644 91.0748 128.864 91.0748 129.205C91.0748 129.634 91.6688 129.711 92.3288 129.865C93.1428 130.052 93.9238 130.349 93.9238 131.438C93.9238 132.549 92.9448 133.132 91.6358 133.132C90.8218 133.132 90.1288 132.923 89.5898 132.318L90.4698 131.493C90.9208 131.988 91.2728 132.142 91.7238 132.142C92.2078 132.142 92.6038 131.9 92.6038 131.537C92.6038 131.031 91.9658 130.943 91.2948 130.789C90.5798 130.624 89.7548 130.371 89.7548 129.293C89.7548 128.006 90.9648 127.588 91.8668 127.588Z" fill="white"/>
<path d="M87.8751 125.135C88.3591 125.135 88.7331 125.476 88.7331 125.927C88.7331 126.4 88.3481 126.719 87.8751 126.719C87.4021 126.719 87.0391 126.356 87.0391 125.927C87.0391 125.498 87.4021 125.135 87.8751 125.135ZM88.5461 127.72V133H87.2261V127.72H88.5461Z" fill="white"/>
<path d="M80.7852 127.72H82.2262L83.6342 131.416H83.6562L85.0752 127.72H86.4282L84.3492 133H82.9412L80.7852 127.72Z" fill="white"/>
<path d="M78.6866 124.684H80.0066V133H78.7526V132.208H78.7306C78.3346 132.857 77.6416 133.132 76.9046 133.132C75.2986 133.132 74.3086 131.944 74.3086 130.36C74.3086 128.864 75.2986 127.588 76.8606 127.588C77.5646 127.588 78.2026 127.83 78.6536 128.391H78.6866V124.684ZM75.6286 130.36C75.6286 131.24 76.2556 131.944 77.1796 131.944C78.2356 131.944 78.7306 131.086 78.7306 130.36C78.7306 129.403 78.0156 128.776 77.1796 128.776C76.2556 128.776 75.6286 129.491 75.6286 130.36Z" fill="white"/>
<path d="M70.2375 133.132C69.1485 133.132 68.3125 132.516 68.3125 131.548C68.3125 130.327 69.2915 129.711 71.5575 129.711H71.9645V129.557C71.9645 128.941 71.4805 128.578 70.7545 128.578C70.2045 128.578 69.7095 128.798 69.3465 129.128L68.6535 128.435C69.1265 127.951 69.8635 127.588 70.8975 127.588C72.7015 127.588 73.1525 128.6 73.1525 129.843V133H71.9645V132.274H71.9315C71.5575 132.868 70.9415 133.132 70.2375 133.132ZM71.5025 130.635C70.3365 130.635 69.6325 130.888 69.6325 131.449C69.6325 131.9 70.0725 132.142 70.5675 132.142C71.4695 132.142 71.8875 131.636 71.8875 130.965V130.635H71.5025Z" fill="white"/>
<path d="M105.355 112.684V121H104.035V112.684H105.355Z" fill="white"/>
<path d="M99.675 121.132C98.586 121.132 97.75 120.516 97.75 119.548C97.75 118.327 98.729 117.711 100.995 117.711H101.402V117.557C101.402 116.941 100.918 116.578 100.192 116.578C99.642 116.578 99.147 116.798 98.784 117.128L98.091 116.435C98.564 115.951 99.301 115.588 100.335 115.588C102.139 115.588 102.59 116.6 102.59 117.843V121H101.402V120.274H101.369C100.995 120.868 100.379 121.132 99.675 121.132ZM100.94 118.635C99.774 118.635 99.07 118.888 99.07 119.449C99.07 119.9 99.51 120.142 100.005 120.142C100.907 120.142 101.325 119.636 101.325 118.965V118.635H100.94Z" fill="white"/>
<path d="M95.4023 115.588C96.1173 115.588 96.8323 115.852 97.3163 116.391L96.4033 117.304C96.1393 117.029 95.7983 116.776 95.4023 116.776C94.4453 116.776 93.8513 117.513 93.8513 118.36C93.8513 119.273 94.5113 119.944 95.4023 119.944C95.7983 119.944 96.1833 119.768 96.4253 119.449L97.3053 120.395C96.8653 120.824 96.0843 121.132 95.4023 121.132C93.7853 121.132 92.5312 119.999 92.5312 118.36C92.5312 116.809 93.6973 115.588 95.4023 115.588Z" fill="white"/>
<path d="M90.6094 113.135C91.0934 113.135 91.4674 113.476 91.4674 113.927C91.4674 114.4 91.0824 114.719 90.6094 114.719C90.1364 114.719 89.7734 114.356 89.7734 113.927C89.7734 113.498 90.1364 113.135 90.6094 113.135ZM91.2804 115.72V121H89.9604V115.72H91.2804Z" fill="white"/>
<path d="M84.9411 121H83.6211V112.684H84.9411V116.457H84.9631C85.2381 115.907 85.8321 115.588 86.5141 115.588C87.8011 115.588 88.4391 116.446 88.4391 117.634V121H87.1191V118.261C87.1191 117.205 86.7781 116.776 86.1511 116.776C85.3701 116.776 84.9411 117.315 84.9411 118.107V121Z" fill="white"/>
<path d="M79.8195 116.842H78.7305V115.72H79.8195V114.191H81.1395V115.72H82.5915V116.842H81.1395V119.185C81.1395 119.746 81.3595 120.01 81.8765 120.01C82.2065 120.01 82.4815 119.933 82.5915 119.845V120.956C82.3385 121.077 81.8435 121.132 81.5465 121.132C80.3035 121.132 79.8195 120.648 79.8195 119.317V116.842Z" fill="white"/>
<path d="M72.7422 121V113.212H77.9012V114.466H74.1282V116.38H77.7032V117.634H74.1282V119.746H78.0992V121H72.7422Z" fill="white"/>
<path d="M249.863 57.5879C251.535 57.5879 252.338 58.8529 252.338 60.4479V60.8219H248.312C248.4 61.5809 248.972 62.0759 249.731 62.0759C250.325 62.0759 250.776 61.8229 251.15 61.3609L252.096 62.0759C251.524 62.7799 250.765 63.1319 249.863 63.1319C248.246 63.1319 246.992 62.0099 246.992 60.3599C246.992 58.7209 248.246 57.5879 249.863 57.5879ZM248.312 59.8319H251.018C251.007 59.0069 250.446 58.5779 249.665 58.5779C248.884 58.5779 248.411 59.0839 248.312 59.8319Z" fill="white"/>
<path d="M243.456 58.8419H242.367V57.7199H243.456V56.1909H244.776V57.7199H246.228V58.8419H244.776V61.1849C244.776 61.7459 244.996 62.0099 245.513 62.0099C245.843 62.0099 246.118 61.9329 246.228 61.8449V62.9559C245.975 63.0769 245.48 63.1319 245.183 63.1319C243.94 63.1319 243.456 62.6479 243.456 61.3169V58.8419Z" fill="white"/>
<path d="M236.668 57.72H237.988V60.448C237.988 61.504 238.318 61.944 238.956 61.944C239.737 61.944 240.166 61.416 240.166 60.602V57.72H241.486V63H240.232V62.153H240.21C239.902 62.813 239.341 63.132 238.593 63.132C237.053 63.132 236.668 61.966 236.668 61.097V57.72Z" fill="white"/>
<path d="M232.84 57.5879C234.435 57.5879 235.436 58.7869 235.436 60.3599C235.436 61.8559 234.446 63.1319 232.884 63.1319C232.18 63.1319 231.531 62.8899 231.091 62.3289H231.058V65.5079H229.738V57.7199H230.992V58.5119H231.014C231.432 57.8409 232.125 57.5879 232.84 57.5879ZM231.014 60.3599C231.014 61.3059 231.707 61.9439 232.565 61.9439C233.456 61.9439 234.116 61.2729 234.116 60.3599C234.116 59.6009 233.588 58.7759 232.554 58.7759C231.674 58.7759 231.014 59.4579 231.014 60.3599Z" fill="white"/>
<path d="M221.429 62.9999H220.109V57.7199H221.363V58.5449H221.385C221.671 57.9509 222.232 57.5879 223.002 57.5879C223.816 57.5879 224.377 57.9069 224.652 58.5669C225.037 57.8959 225.598 57.5879 226.39 57.5879C227.688 57.5879 228.293 58.4349 228.293 59.8869V62.9999H226.973V59.9749C226.973 59.1939 226.654 58.7759 225.994 58.7759C225.301 58.7759 224.861 59.2819 224.861 60.1399V62.9999H223.541V59.8209C223.541 59.2929 223.332 58.7759 222.639 58.7759C221.825 58.7759 221.429 59.3589 221.429 60.1179V62.9999Z" fill="white"/>
<path d="M216.059 57.5879C217.676 57.5879 218.93 58.7099 218.93 60.3599C218.93 62.0099 217.676 63.1319 216.059 63.1319C214.442 63.1319 213.188 62.0099 213.188 60.3599C213.188 58.7209 214.453 57.5879 216.059 57.5879ZM214.507 60.3599C214.507 61.2729 215.168 61.9439 216.059 61.9439C216.983 61.9439 217.609 61.2399 217.609 60.3599C217.609 59.4469 216.949 58.7759 216.047 58.7759C215.167 58.7759 214.507 59.4579 214.507 60.3599Z" fill="white"/>
<path d="M209.739 55.0139C210.85 55.0139 211.73 55.4099 212.467 56.2459L211.389 57.0379C210.938 56.5539 210.432 56.2679 209.75 56.2679C208.155 56.2679 207.077 57.4999 207.077 59.0509C207.077 60.6569 208.111 61.9439 209.75 61.9439C210.487 61.9439 211.059 61.5589 211.499 60.9979L212.643 61.8119C211.972 62.7579 210.883 63.1979 209.739 63.1979C207.341 63.1979 205.625 61.5589 205.625 59.1389C205.625 56.7189 207.253 55.0139 209.739 55.0139Z" fill="white"/>
<path d="M438.55 243.588C439.375 243.588 440.057 243.874 440.442 244.391L439.562 245.183C439.298 244.82 438.968 244.644 438.528 244.644C438.099 244.644 437.758 244.864 437.758 245.205C437.758 245.634 438.352 245.711 439.012 245.865C439.826 246.052 440.607 246.349 440.607 247.438C440.607 248.549 439.628 249.132 438.319 249.132C437.505 249.132 436.812 248.923 436.273 248.318L437.153 247.493C437.604 247.988 437.956 248.142 438.407 248.142C438.891 248.142 439.287 247.9 439.287 247.537C439.287 247.031 438.649 246.943 437.978 246.789C437.263 246.624 436.438 246.371 436.438 245.293C436.438 244.006 437.648 243.588 438.55 243.588Z" fill="white"/>
<path d="M432.473 249V243.72H433.793V244.556H433.815C434.101 243.951 434.684 243.588 435.377 243.588C435.575 243.588 435.674 243.621 435.85 243.665V244.941C435.597 244.875 435.41 244.842 435.212 244.842C434.211 244.842 433.793 245.546 433.793 246.25V249H432.473Z" fill="white"/>
<path d="M428.762 243.588C430.434 243.588 431.237 244.853 431.237 246.448V246.822H427.211C427.299 247.581 427.871 248.076 428.63 248.076C429.224 248.076 429.675 247.823 430.049 247.361L430.995 248.076C430.423 248.78 429.664 249.132 428.762 249.132C427.145 249.132 425.891 248.01 425.891 246.36C425.891 244.721 427.145 243.588 428.762 243.588ZM427.211 245.832H429.917C429.906 245.007 429.345 244.578 428.564 244.578C427.783 244.578 427.31 245.084 427.211 245.832Z" fill="white"/>
<path d="M417.847 249H416.527V243.72H417.781V244.545H417.803C418.089 243.951 418.65 243.588 419.42 243.588C420.234 243.588 420.795 243.907 421.07 244.567C421.455 243.896 422.016 243.588 422.808 243.588C424.106 243.588 424.711 244.435 424.711 245.887V249H423.391V245.975C423.391 245.194 423.072 244.776 422.412 244.776C421.719 244.776 421.279 245.282 421.279 246.14V249H419.959V245.821C419.959 245.293 419.75 244.776 419.057 244.776C418.243 244.776 417.847 245.359 417.847 246.118V249Z" fill="white"/>
<path d="M412.476 243.588C414.093 243.588 415.347 244.71 415.347 246.36C415.347 248.01 414.093 249.132 412.476 249.132C410.859 249.132 409.605 248.01 409.605 246.36C409.605 244.721 410.87 243.588 412.476 243.588ZM410.925 246.36C410.925 247.273 411.585 247.944 412.476 247.944C413.4 247.944 414.027 247.24 414.027 246.36C414.027 245.447 413.367 244.776 412.465 244.776C411.585 244.776 410.925 245.458 410.925 246.36Z" fill="white"/>
<path d="M406.066 244.842H404.977V243.72H406.066V242.191H407.386V243.72H408.838V244.842H407.386V247.185C407.386 247.746 407.606 248.01 408.123 248.01C408.453 248.01 408.728 247.933 408.838 247.845V248.956C408.585 249.077 408.09 249.132 407.793 249.132C406.55 249.132 406.066 248.648 406.066 247.317V244.842Z" fill="white"/>
<path d="M402.511 243.588C403.336 243.588 404.018 243.874 404.403 244.391L403.523 245.183C403.259 244.82 402.929 244.644 402.489 244.644C402.06 244.644 401.719 244.864 401.719 245.205C401.719 245.634 402.313 245.711 402.973 245.865C403.787 246.052 404.568 246.349 404.568 247.438C404.568 248.549 403.589 249.132 402.28 249.132C401.466 249.132 400.773 248.923 400.234 248.318L401.114 247.493C401.565 247.988 401.917 248.142 402.368 248.142C402.852 248.142 403.248 247.9 403.248 247.537C403.248 247.031 402.61 246.943 401.939 246.789C401.224 246.624 400.399 246.371 400.399 245.293C400.399 244.006 401.609 243.588 402.511 243.588Z" fill="white"/>
<path d="M394.391 243.72H395.711V246.448C395.711 247.504 396.041 247.944 396.679 247.944C397.46 247.944 397.889 247.416 397.889 246.602V243.72H399.209V249H397.955V248.153H397.933C397.625 248.813 397.064 249.132 396.316 249.132C394.776 249.132 394.391 247.966 394.391 247.097V243.72Z" fill="white"/>
<path d="M390.676 241.014C391.787 241.014 392.668 241.41 393.405 242.246L392.326 243.038C391.876 242.554 391.37 242.268 390.688 242.268C389.093 242.268 388.015 243.5 388.015 245.051C388.015 246.657 389.049 247.944 390.688 247.944C391.424 247.944 391.997 247.559 392.437 246.998L393.581 247.812C392.91 248.758 391.821 249.198 390.676 249.198C388.278 249.198 386.562 247.559 386.562 245.139C386.562 242.719 388.19 241.014 390.676 241.014Z" fill="white"/>
<path d="M268.217 260.536C268.217 260.536 270.56 261.571 271.672 261.102C272.783 260.632 274.501 260.541 275.044 260.54C275.768 260.538 278.037 259.734 277.998 260.615C277.958 261.495 274.314 262.11 273.569 262.384C272.823 262.659 275.799 264.287 276.076 265.011C276.353 265.734 272.993 270.481 271.097 269.128C269.202 267.775 268.175 265.076 267.789 264.904C267.404 264.732 266.367 263.974 266.367 263.974L268.217 260.536Z" fill="#EEA886"/>
<path d="M275.718 264.59C275.718 264.59 281.214 269.118 281.301 269.728C281.387 270.34 281.097 270.625 280.564 270.224C280.03 269.822 275.114 266.004 275.114 266.004C275.114 266.004 280.621 272.465 280.806 272.945C280.915 273.226 280.387 273.81 280.079 273.621C279.771 273.433 273.915 267.35 273.915 267.35C273.915 267.35 279.045 273.392 279.073 273.845C279.097 274.241 278.48 274.667 278.066 274.245C277.652 273.824 272.546 268.493 272.546 268.493C272.546 268.493 275.979 273.132 275.767 273.541C275.637 273.791 275.204 274.314 274.358 273.088C273.514 271.862 271.191 269.189 271.191 269.189L275.718 264.59Z" fill="#EEA886"/>
<path d="M230.346 358.73C230.346 358.73 230.131 366.147 231.198 366.593C232.264 367.04 236.3 364.461 238.08 361.909C239.859 359.359 235.849 353.422 235.191 350.147C234.916 348.775 231.781 346.308 230.251 347.015C228.722 347.722 227.605 349.533 227.605 349.533C227.605 349.533 231.496 352.182 230.346 358.73Z" fill="#79CFE1"/>
<path d="M227.605 349.533C227.605 349.533 228.931 352.064 229.611 354.028C230.292 355.992 230.419 361.432 230.848 361.809C231.277 362.187 234.658 360.491 235.11 358.458C235.561 356.424 234.19 352.359 232.885 350.221C231.579 348.084 230.252 347.014 230.252 347.014C230.252 347.014 227.946 347.459 227.605 349.533Z" fill="#DE9673"/>
<path d="M235.191 350.147L238.825 355.414L238.137 355.883L235.329 351.811L235.191 350.147Z" fill="#95C7EF"/>
<path d="M214.555 301.866C214.555 301.866 216.625 312.787 216.625 315.398C216.625 318.01 217.343 322.283 219.015 325.447C220.688 328.612 228.028 350.238 228.666 352.756C229.302 355.276 229.848 357.655 229.848 357.655C229.848 357.655 233.512 355.993 233.512 353.619C233.512 351.245 230.326 331.619 229.768 327.742C229.211 323.865 224.591 304.003 224.591 304.003L214.555 301.866Z" fill="#DE9673"/>
<path d="M226.263 301.153C226.263 301.153 225.546 310.254 225.626 312.628C225.705 315.002 226.82 320.383 226.82 321.808C226.82 323.231 226.822 352.744 225.632 356.305C224.444 359.867 228.971 357.417 228.971 357.417C228.971 357.417 236.856 338.004 236.856 329.905C236.856 321.808 235.901 317.771 236.458 312.628C237.016 307.484 240.52 300.679 240.52 300.679L226.263 301.153Z" fill="#EEA886"/>
<path d="M224.968 181.96C224.968 181.96 217.639 189.294 220.136 198.737C222.631 208.181 226.642 208.233 231.063 204.171C235.483 200.109 238.085 195.835 238.669 191.087C239.253 186.339 231.66 175.418 224.968 181.96Z" fill="#EEA886"/>
<path d="M223.535 213.457C223.535 213.457 224.622 210.987 225.383 208.205C225.518 207.715 225.642 207.215 225.748 206.717C226.121 204.968 226.275 203.244 225.872 202.061C224.703 198.632 233.2 201.006 233.2 201.006C233.2 201.006 231.554 210.08 233.2 213.14C234.846 216.2 223.535 213.457 223.535 213.457Z" fill="#EEA886"/>
<path d="M238.191 257.351C238.191 257.351 243.467 265.069 244.583 271.953C245.698 278.838 243.601 289.084 242.735 292.842C241.975 296.137 240.839 306.376 240.759 307.484C240.759 307.484 224.192 311.757 213.359 308.355C213.359 308.355 211.681 291.448 211.043 285.197C210.406 278.945 214.825 257.826 214.825 257.826L238.191 257.351Z" fill="#FFC8DD"/>
<path d="M269.7 260.939L266.727 264.277C266.727 264.277 248.964 249.955 248.167 248.055C247.371 246.156 241.353 235.464 241.114 234.356C241.114 234.356 239.961 237.316 239.004 240.199C238.606 241.397 238.089 243.578 237.855 244.531C237.058 247.775 236.97 252.973 238.191 257.352C238.191 257.352 223.8 262.68 214.825 257.826C214.825 257.826 215.782 250.071 214.348 245.059C212.914 240.047 205.426 222.584 205.426 222.584C205.426 222.584 209.409 215.251 213.551 213.826C217.693 212.402 222.42 211.338 222.42 211.338H232.238C232.238 211.338 238.701 213.01 240.146 213.463C242.732 214.275 245.141 217.534 245.62 220.462C246.097 223.39 252.868 243.387 253.665 243.94C254.461 244.494 269.7 260.939 269.7 260.939Z" fill="#CDB4DB"/>
<path d="M211.512 251.425C211.512 251.425 217.885 251.671 218.876 251.425C219.867 251.179 226.48 248.33 226.877 245.516C227.274 242.703 211.512 248.038 211.512 248.038V251.425Z" fill="#EEA886"/>
<path d="M221.892 365.283C221.892 365.283 216.967 370.99 217.52 372.016C218.074 373.043 222.906 373.564 225.944 372.682C228.981 371.799 229.63 364.585 231.212 361.589C231.875 360.334 230.987 356.406 229.329 355.996C227.671 355.585 225.63 356.305 225.63 356.305C225.63 356.305 226.997 360.854 221.892 365.283Z" fill="#73CBDE"/>
<path d="M225.632 356.305C225.632 356.305 225.052 359.137 224.329 361.114C223.604 363.093 220.219 367.457 220.314 368.026C220.41 368.595 224.16 369.4 225.819 368.084C227.478 366.767 229.005 362.698 229.348 360.189C229.69 357.679 229.509 356.058 229.509 356.058C229.509 356.058 227.229 354.887 225.632 356.305Z" fill="#EEA886"/>
<path d="M231.214 361.589L230.698 368.039L229.855 367.971L230.255 362.986L231.214 361.589Z" fill="#A2D2FF"/>
<path d="M231.288 242.632L205.426 239.625L217.108 249.069L231.288 242.632Z" fill="#4C5285"/>
<path d="M212.292 247.803C212.292 247.803 212.026 251.073 212.292 251.759C212.292 251.759 196.343 250.176 194.856 247.961C193.369 245.745 193.422 243.054 193.422 243.054L212.292 247.803Z" fill="#CDB4DB"/>
<path d="M227.356 187.236C227.356 187.236 230.861 193.567 233.038 195.835C235.215 198.104 234.96 199.905 234.96 199.905C234.96 199.905 243.446 189.504 237.393 183.226C231.339 176.948 223.533 179.48 221.249 184.967C218.966 190.454 219.802 197.156 219.802 197.156C219.802 197.156 219.868 190.718 227.356 187.236Z" fill="#4B4B4B"/>
<path d="M229.667 180.607C229.667 180.607 228.819 175.973 236.135 174.13C243.451 172.286 246.738 180.66 245.836 185.768C244.935 190.877 238.679 203.832 242.073 205.518C245.466 207.203 246.79 203.569 246.79 203.569C246.79 203.569 245.73 209.942 241.012 208.468C236.295 206.993 236.93 196.637 237.642 192.51C238.354 188.382 229.667 180.607 229.667 180.607Z" fill="#4B4B4B"/>
<path d="M222.418 211.337C222.418 211.337 223.091 209.394 223.02 208.937C223.02 208.937 232.258 208.367 234.63 208.719C234.63 208.719 234.818 211.317 234.795 211.903C234.774 212.49 224.082 214.265 222.418 211.337Z" fill="#BAA3C9"/>
<path d="M217.107 249.069L231.286 244.267V242.632L216.629 247.303L217.107 249.069Z" fill="#323657"/>
<path d="M217.107 249.069L209.566 221.212L180.891 218.205L188.75 243.846L217.107 249.069Z" fill="#323657"/>
<path d="M232.027 203.253C231.999 203.319 230.15 207.549 225.383 208.205C225.518 207.715 225.642 207.215 225.747 206.717C225.747 206.717 228.36 207.24 232.027 203.253Z" fill="#A77860"/>
<path d="M241.111 234.356C241.111 234.356 239.958 237.316 239.001 240.199C238.026 232.104 239.339 225.661 239.339 225.661C239.445 229.988 241.111 234.356 241.111 234.356Z" fill="#BEA8CC"/>
<path d="M230.809 179.635C230.809 179.635 236.001 180.627 238.591 184.828C238.591 184.828 238.066 181.023 235.481 179.926C232.896 178.83 230.809 179.635 230.809 179.635Z" fill="#EDDAD3"/>
<defs>
<linearGradient id="paint0_linear_607_1186" x1="229.001" y1="0" x2="229.001" y2="88.8154" gradientUnits="userSpaceOnUse">
<stop stop-color="#FFAD31"/>
<stop offset="1" stop-color="#99681D"/>
</linearGradient>
<linearGradient id="paint1_linear_607_1186" x1="89.1147" y1="63.281" x2="89.1147" y2="152.096" gradientUnits="userSpaceOnUse">
<stop stop-color="#51B29C"/>
<stop offset="1" stop-color="#234C43"/>
</linearGradient>
<linearGradient id="paint2_linear_607_1186" x1="44.7085" y1="188.733" x2="44.7085" y2="277.548" gradientUnits="userSpaceOnUse">
<stop stop-color="#3A7FD0"/>
<stop offset="1" stop-color="#1E416A"/>
</linearGradient>
<linearGradient id="paint3_linear_607_1186" x1="366.666" y1="63.281" x2="366.666" y2="152.096" gradientUnits="userSpaceOnUse">
<stop stop-color="#3A7FD0"/>
<stop offset="1" stop-color="#1E416A"/>
</linearGradient>
<linearGradient id="paint4_linear_607_1186" x1="413.291" y1="188.733" x2="413.291" y2="277.548" gradientUnits="userSpaceOnUse">
<stop stop-color="#8E47AD"/>
<stop offset="1" stop-color="#3A1D47"/>
</linearGradient>
<clipPath id="clip0_607_1186">
<rect width="26.6446" height="26.6446" fill="white" transform="translate(215.68 19.9835)"/>
</clipPath>
<clipPath id="clip1_607_1186">
<rect width="26.6446" height="26.6446" fill="white" transform="translate(75.793 76.6033)"/>
</clipPath>
<clipPath id="clip2_607_1186">
<rect width="26.6446" height="26.6446" fill="white" transform="translate(31.3867 207.606)"/>
</clipPath>
<clipPath id="clip3_607_1186">
<rect width="26.6446" height="26.6446" fill="white" transform="translate(353.344 82.1543)"/>
</clipPath>
<clipPath id="clip4_607_1186">
<rect width="26.6446" height="26.6446" fill="white" transform="translate(399.969 205.386)"/>
</clipPath>
</defs>
</svg>
