<svg width="438" height="292" viewBox="0 0 438 292" fill="none" xmlns="http://www.w3.org/2000/svg">
<path d="M59.3242 163.579V6.00984C59.3242 3.06751 61.7094 0.682373 64.6514 0.682373H373.348C376.29 0.682373 378.675 3.06751 378.675 6.00984V158.035C378.675 161.097 376.193 163.579 373.131 163.579H59.3242Z" fill="#2A2A2A"/>
<path d="M373.132 163.929H59.3251C59.1314 163.929 58.9746 163.772 58.9746 163.579V6.00958C58.9746 2.87891 61.5218 0.332031 64.6524 0.332031H373.349C376.479 0.332031 379.026 2.87907 379.026 6.00958V158.035C379.026 161.285 376.382 163.929 373.132 163.929ZM59.6754 163.229H373.132C375.996 163.229 378.325 160.899 378.325 158.035V6.00958C378.325 3.26513 376.093 1.03235 373.348 1.03235H64.6524C61.9081 1.03235 59.6754 3.26497 59.6754 6.00958V163.229Z" fill="black"/>
<path d="M153.476 67.9264H77.3251C77.1314 67.9264 76.9746 67.7698 76.9746 67.5763V20.1647C76.9746 19.9712 77.1314 19.8146 77.3251 19.8146C77.5188 19.8146 77.6754 19.9712 77.6754 20.1647V67.2261H153.476C153.67 67.2261 153.827 67.3829 153.827 67.5763C153.827 67.7698 153.67 67.9264 153.476 67.9264Z" fill="black"/>
<path d="M87.2271 32.9774H80.4902V64.8365H87.2271V32.9774Z" fill="#010302"/>
<path d="M97.8325 47.7189H91.0957V64.8365H97.8325V47.7189Z" fill="#010302"/>
<path d="M108.436 41.0575H101.699V64.8364H108.436V41.0575Z" fill="#010302"/>
<path d="M119.042 30.6381H112.305V64.8366H119.042V30.6381Z" fill="#010302"/>
<path d="M129.475 25.2562H123.078V64.8365H129.475V25.2562Z" fill="#010302"/>
<path d="M140.251 23.0609H133.514V64.8366H140.251V23.0609Z" fill="#010302"/>
<path d="M150.854 28.4856H144.117V64.8365H150.854V28.4856Z" fill="#010302"/>
<path d="M87.2271 54.6719H80.4902V64.8739H87.2271V54.6719Z" fill="black"/>
<path d="M97.8306 59.3925H91.0938V64.8739H97.8306V59.3925Z" fill="black"/>
<path d="M108.436 57.2594H101.699V64.8739H108.436V57.2594Z" fill="black"/>
<path d="M119.04 53.9227H112.303V64.8739H119.04V53.9227Z" fill="black"/>
<path d="M129.475 51.6317H123.078V64.874H129.475V51.6317Z" fill="black"/>
<path d="M140.249 50.9286H133.512V64.8739H140.249V50.9286Z" fill="black"/>
<path d="M150.854 52.6659H144.117V64.874H150.854V52.6659Z" fill="black"/>
<path d="M275.95 21.9871H171.031V63.7311H275.95V21.9871Z" fill="#010302"/>
<path d="M194.407 27.0371C185.538 27.0371 178.348 34.2274 178.348 43.0969C178.348 51.9664 185.537 59.1565 194.407 59.1565C203.276 59.1565 210.466 51.9664 210.466 43.0969C210.466 34.2274 203.276 27.0371 194.407 27.0371ZM194.407 53.7997C188.496 53.7997 183.704 49.008 183.704 43.0969C183.704 37.1858 188.496 32.394 194.407 32.394C200.317 32.394 205.109 37.1859 205.109 43.0969C205.109 49.0078 200.317 53.7997 194.407 53.7997Z" fill="#2A2A2A"/>
<path d="M183.714 43.4539H178.357C178.547 52.0983 185.562 59.0572 194.229 59.1519V53.7952C188.52 53.7016 183.9 49.1398 183.714 43.4539Z" fill="black"/>
<path d="M232.775 52.3068H221.911C221.717 52.3068 221.561 52.15 221.561 51.9565C221.561 51.7631 221.717 51.6064 221.911 51.6064H232.775C232.969 51.6064 233.125 51.7631 233.125 51.9565C233.125 52.15 232.969 52.3068 232.775 52.3068Z" fill="black"/>
<path d="M255.331 52.3068H239.083C238.889 52.3068 238.732 52.15 238.732 51.9565C238.732 51.7631 238.889 51.6064 239.083 51.6064H255.331C255.525 51.6064 255.682 51.7631 255.682 51.9565C255.682 52.15 255.525 52.3068 255.331 52.3068Z" fill="black"/>
<path d="M251.265 43.4398H221.911C221.717 43.4398 221.561 43.283 221.561 43.0897C221.561 42.8963 221.717 42.7395 221.911 42.7395H251.265C251.459 42.7395 251.615 42.8963 251.615 43.0897C251.615 43.283 251.459 43.4398 251.265 43.4398Z" fill="black"/>
<path d="M247.543 34.5731H221.911C221.717 34.5731 221.561 34.4163 221.561 34.2229C221.561 34.0295 221.717 33.8728 221.911 33.8728H247.543C247.737 33.8728 247.893 34.0295 247.893 34.2229C247.893 34.4163 247.737 34.5731 247.543 34.5731Z" fill="black"/>
<path d="M264.771 34.5731H253.542C253.348 34.5731 253.191 34.4163 253.191 34.2229C253.191 34.0295 253.348 33.8728 253.542 33.8728H264.771C264.965 33.8728 265.121 34.0295 265.121 34.2229C265.121 34.4163 264.965 34.5731 264.771 34.5731Z" fill="black"/>
<path d="M96.2201 104.492H76.7782C76.5845 104.492 76.4277 104.336 76.4277 104.142V84.6994C76.4277 84.5059 76.5843 84.3491 76.7782 84.3491H95.1071C95.3008 84.3491 95.4575 84.5059 95.4575 84.6994C95.4575 84.8926 95.3008 85.0496 95.1071 85.0496H77.1286V103.792H95.8698V89.9229C95.8698 89.7294 96.0266 89.5726 96.2201 89.5726C96.4138 89.5726 96.5706 89.7294 96.5706 89.9229V104.142C96.5706 104.336 96.4138 104.492 96.2201 104.492Z" fill="black"/>
<path d="M86.4991 101.155C86.3858 101.155 86.2799 101.1 86.2141 101.009L78.5966 90.3439C78.484 90.1865 78.5205 89.9679 78.678 89.8555C78.8351 89.7431 79.0548 89.7795 79.1666 89.937L86.4997 100.203L99.4899 82.1012C99.6027 81.944 99.8211 81.9081 99.9788 82.0206C100.136 82.1333 100.172 82.3522 100.059 82.5094L86.7836 101.009C86.7181 101.101 86.612 101.155 86.4991 101.155Z" fill="black"/>
<path d="M149.302 87.8426H135.54C135.346 87.8426 135.189 87.6858 135.189 87.4923C135.189 87.2989 135.346 87.1421 135.54 87.1421H149.302C149.496 87.1421 149.653 87.2989 149.653 87.4923C149.653 87.6858 149.496 87.8426 149.302 87.8426Z" fill="#010302"/>
<path d="M132.888 87.8426H119.643C119.45 87.8426 119.293 87.6858 119.293 87.4923C119.293 87.2989 119.45 87.1421 119.643 87.1421H132.888C133.082 87.1421 133.238 87.2989 133.238 87.4923C133.238 87.6858 133.082 87.8426 132.888 87.8426Z" fill="#010302"/>
<path d="M116.992 87.8426H107.721C107.528 87.8426 107.371 87.6858 107.371 87.4923C107.371 87.2989 107.528 87.1421 107.721 87.1421H116.992C117.186 87.1421 117.342 87.2989 117.342 87.4923C117.342 87.6858 117.186 87.8426 116.992 87.8426Z" fill="#010302"/>
<path d="M146.649 94.5231H141.413C141.219 94.5231 141.062 94.3663 141.062 94.1728C141.062 93.9794 141.219 93.8228 141.413 93.8228H146.649C146.843 93.8228 146.999 93.9794 146.999 94.1728C146.999 94.3663 146.843 94.5231 146.649 94.5231Z" fill="#010302"/>
<path d="M138.761 94.5231H116.071C115.877 94.5231 115.721 94.3663 115.721 94.1728C115.721 93.9794 115.877 93.8228 116.071 93.8228H138.761C138.954 93.8228 139.111 93.9794 139.111 94.1728C139.111 94.3663 138.955 94.5231 138.761 94.5231Z" fill="#010302"/>
<path d="M113.42 94.5231H105.069C104.875 94.5231 104.719 94.3663 104.719 94.1728C104.719 93.9794 104.875 93.8228 105.069 93.8228H113.42C113.614 93.8228 113.77 93.9794 113.77 94.1728C113.77 94.3663 113.614 94.5231 113.42 94.5231Z" fill="#010302"/>
<path d="M149.301 101.203H127.245C127.051 101.203 126.895 101.047 126.895 100.853C126.895 100.66 127.051 100.503 127.245 100.503H149.301C149.495 100.503 149.652 100.66 149.652 100.853C149.652 101.047 149.495 101.203 149.301 101.203Z" fill="#010302"/>
<path d="M124.594 101.204H105.069C104.875 101.204 104.719 101.047 104.719 100.854C104.719 100.66 104.875 100.503 105.069 100.503H124.594C124.787 100.503 124.944 100.66 124.944 100.854C124.944 101.047 124.787 101.204 124.594 101.204Z" fill="#010302"/>
<path d="M96.2201 137.895H76.7782C76.5845 137.895 76.4277 137.738 76.4277 137.545V118.102C76.4277 117.908 76.5843 117.752 76.7782 117.752H95.1071C95.3008 117.752 95.4575 117.908 95.4575 118.102C95.4575 118.295 95.3008 118.452 95.1071 118.452H77.1286V137.194H95.8698V123.325C95.8698 123.132 96.0266 122.975 96.2201 122.975C96.4138 122.975 96.5706 123.132 96.5706 123.325V137.544C96.5706 137.738 96.4138 137.895 96.2201 137.895Z" fill="black"/>
<path d="M86.4991 134.558C86.3858 134.558 86.2799 134.503 86.2141 134.411L78.5966 123.746C78.484 123.589 78.5205 123.37 78.678 123.258C78.8351 123.145 79.0548 123.182 79.1666 123.339L86.4997 133.606L99.4899 115.504C99.6027 115.346 99.8211 115.31 99.9788 115.423C100.136 115.536 100.172 115.755 100.059 115.912L86.7836 134.411C86.7181 134.503 86.612 134.558 86.4991 134.558Z" fill="black"/>
<path d="M149.301 121.245H127.245C127.051 121.245 126.895 121.088 126.895 120.895C126.895 120.701 127.051 120.545 127.245 120.545H149.301C149.495 120.545 149.652 120.701 149.652 120.895C149.652 121.088 149.495 121.245 149.301 121.245Z" fill="#010302"/>
<path d="M124.594 121.245H105.069C104.875 121.245 104.719 121.088 104.719 120.895C104.719 120.701 104.875 120.545 105.069 120.545H124.594C124.787 120.545 124.944 120.701 124.944 120.895C124.944 121.088 124.787 121.245 124.594 121.245Z" fill="#010302"/>
<path d="M149.301 127.925H131.622C131.428 127.925 131.271 127.769 131.271 127.575C131.271 127.382 131.428 127.225 131.622 127.225H149.301C149.494 127.225 149.651 127.382 149.651 127.575C149.651 127.769 149.495 127.925 149.301 127.925Z" fill="#010302"/>
<path d="M128.97 127.925H117.108C116.915 127.925 116.758 127.769 116.758 127.575C116.758 127.382 116.915 127.225 117.108 127.225H128.97C129.164 127.225 129.321 127.382 129.321 127.575C129.321 127.769 129.164 127.925 128.97 127.925Z" fill="#010302"/>
<path d="M114.457 127.926H105.069C104.875 127.926 104.719 127.769 104.719 127.575C104.719 127.382 104.875 127.225 105.069 127.225H114.457C114.651 127.225 114.807 127.382 114.807 127.575C114.807 127.769 114.65 127.926 114.457 127.926Z" fill="#010302"/>
<path d="M133.391 134.606H123.098C122.905 134.606 122.748 134.449 122.748 134.256C122.748 134.062 122.905 133.906 123.098 133.906H133.391C133.585 133.906 133.741 134.062 133.741 134.256C133.741 134.449 133.585 134.606 133.391 134.606Z" fill="#010302"/>
<path d="M120.447 134.606H105.069C104.875 134.606 104.719 134.449 104.719 134.256C104.719 134.062 104.875 133.906 105.069 133.906H120.447C120.641 133.906 120.797 134.062 120.797 134.256C120.797 134.449 120.641 134.606 120.447 134.606Z" fill="#010302"/>
<path d="M300.145 81.7944H248.209V140.817H300.145V81.7944Z" fill="#010302"/>
<path d="M292.912 89.8402H286.094C285.804 89.8402 285.568 89.6051 285.568 89.315C285.568 89.0249 285.804 88.7898 286.094 88.7898H292.912C293.203 88.7898 293.438 89.0251 293.438 89.315C293.438 89.6051 293.203 89.8402 292.912 89.8402Z" fill="#2A2A2A"/>
<path d="M280.827 89.8402H255.032C254.741 89.8402 254.506 89.6051 254.506 89.315C254.506 89.0249 254.741 88.7898 255.032 88.7898H280.827C281.117 88.7898 281.353 89.0251 281.353 89.315C281.353 89.6051 281.117 89.8402 280.827 89.8402Z" fill="#2A2A2A"/>
<path d="M292.913 96.1143H269.131C268.841 96.1143 268.605 95.879 268.605 95.5889C268.605 95.2989 268.841 95.0637 269.131 95.0637H292.913C293.204 95.0637 293.439 95.299 293.439 95.5889C293.439 95.879 293.204 96.1143 292.913 96.1143Z" fill="#2A2A2A"/>
<path d="M264.551 96.1143H255.032C254.741 96.1143 254.506 95.879 254.506 95.5889C254.506 95.2989 254.741 95.0637 255.032 95.0637H264.551C264.841 95.0637 265.077 95.299 265.077 95.5889C265.077 95.879 264.841 96.1143 264.551 96.1143Z" fill="#2A2A2A"/>
<path d="M292.913 102.707H277.51C277.22 102.707 276.984 102.472 276.984 102.181C276.984 101.891 277.22 101.656 277.51 101.656H292.913C293.204 101.656 293.439 101.891 293.439 102.181C293.439 102.472 293.204 102.707 292.913 102.707Z" fill="#2A2A2A"/>
<path d="M274.291 102.707H255.032C254.741 102.707 254.506 102.472 254.506 102.181C254.506 101.891 254.741 101.656 255.032 101.656H274.291C274.581 101.656 274.817 101.891 274.817 102.181C274.817 102.472 274.581 102.707 274.291 102.707Z" fill="#2A2A2A"/>
<path d="M292.912 108.981H277.348C277.058 108.981 276.822 108.746 276.822 108.456C276.822 108.165 277.058 107.93 277.348 107.93H292.912C293.202 107.93 293.438 108.165 293.438 108.456C293.438 108.746 293.203 108.981 292.912 108.981Z" fill="#2A2A2A"/>
<path d="M272.769 108.981H255.032C254.741 108.981 254.506 108.746 254.506 108.456C254.506 108.165 254.741 107.93 255.032 107.93H272.769C273.059 107.93 273.295 108.165 273.295 108.456C273.295 108.746 273.059 108.981 272.769 108.981Z" fill="#2A2A2A"/>
<path d="M292.912 115.573H286.094C285.804 115.573 285.568 115.338 285.568 115.048C285.568 114.758 285.804 114.523 286.094 114.523H292.912C293.203 114.523 293.438 114.758 293.438 115.048C293.438 115.338 293.203 115.573 292.912 115.573Z" fill="#2A2A2A"/>
<path d="M280.827 115.573H261.739C261.448 115.573 261.213 115.338 261.213 115.048C261.213 114.758 261.448 114.523 261.739 114.523H280.827C281.117 114.523 281.352 114.758 281.352 115.048C281.352 115.338 281.117 115.573 280.827 115.573Z" fill="#2A2A2A"/>
<path d="M258.842 115.573H255.032C254.741 115.573 254.506 115.338 254.506 115.048C254.506 114.758 254.741 114.523 255.032 114.523H258.842C259.132 114.523 259.368 114.758 259.368 115.048C259.368 115.338 259.132 115.573 258.842 115.573Z" fill="#2A2A2A"/>
<path d="M292.912 121.847H284.268C283.978 121.847 283.742 121.612 283.742 121.322C283.742 121.032 283.978 120.797 284.268 120.797H292.912C293.203 120.797 293.438 121.032 293.438 121.322C293.438 121.612 293.203 121.847 292.912 121.847Z" fill="#2A2A2A"/>
<path d="M279.689 121.847H255.032C254.741 121.847 254.506 121.612 254.506 121.322C254.506 121.032 254.741 120.797 255.032 120.797H279.689C279.979 120.797 280.215 121.032 280.215 121.322C280.214 121.612 279.979 121.847 279.689 121.847Z" fill="#2A2A2A"/>
<path d="M292.912 128.44H287.487C287.197 128.44 286.961 128.204 286.961 127.914C286.961 127.624 287.197 127.389 287.487 127.389H292.912C293.203 127.389 293.438 127.624 293.438 127.914C293.438 128.204 293.203 128.44 292.912 128.44Z" fill="#2A2A2A"/>
<path d="M284.108 128.44H271.877C271.587 128.44 271.352 128.204 271.352 127.914C271.352 127.624 271.587 127.389 271.877 127.389H284.108C284.398 127.389 284.633 127.624 284.633 127.914C284.633 128.204 284.398 128.44 284.108 128.44Z" fill="#2A2A2A"/>
<path d="M268.981 128.44H255.032C254.741 128.44 254.506 128.204 254.506 127.914C254.506 127.624 254.741 127.389 255.032 127.389H268.981C269.271 127.389 269.506 127.624 269.506 127.914C269.506 128.204 269.271 128.44 268.981 128.44Z" fill="#2A2A2A"/>
<path d="M292.913 134.714H288.936C288.646 134.714 288.41 134.478 288.41 134.188C288.41 133.899 288.646 133.663 288.936 133.663H292.913C293.204 133.663 293.439 133.899 293.439 134.188C293.439 134.478 293.204 134.714 292.913 134.714Z" fill="#2A2A2A"/>
<path d="M285.234 134.713H269.131C268.841 134.713 268.605 134.478 268.605 134.188C268.605 133.898 268.841 133.663 269.131 133.663H285.234C285.525 133.663 285.76 133.898 285.76 134.188C285.76 134.478 285.525 134.713 285.234 134.713Z" fill="#2A2A2A"/>
<path d="M264.551 134.713H255.032C254.741 134.713 254.506 134.478 254.506 134.188C254.506 133.898 254.741 133.663 255.032 133.663H264.551C264.841 133.663 265.077 133.898 265.077 134.188C265.077 134.478 264.841 134.713 264.551 134.713Z" fill="#2A2A2A"/>
<path d="M306.976 109.865H301.932C301.739 109.865 301.582 109.708 301.582 109.515C301.582 109.321 301.739 109.165 301.932 109.165H306.626V32.791C306.626 32.5976 306.782 32.4409 306.976 32.4409H310.618C310.812 32.4409 310.968 32.5976 310.968 32.791C310.968 32.9844 310.812 33.1411 310.618 33.1411H307.326V109.515C307.327 109.708 307.17 109.865 306.976 109.865Z" fill="black"/>
<path d="M357.97 21.5059H313.93V62.3577H357.97V21.5059Z" fill="#010302"/>
<path d="M351.08 30.2296H320.82C320.53 30.2296 320.295 29.9945 320.295 29.7044C320.295 29.4143 320.53 29.1792 320.82 29.1792H351.08C351.37 29.1792 351.606 29.4145 351.606 29.7044C351.606 29.9945 351.37 30.2296 351.08 30.2296Z" fill="#2A2A2A"/>
<path d="M351.081 36.5318H329.086C328.796 36.5318 328.561 36.2966 328.561 36.0066C328.561 35.7165 328.796 35.4812 329.086 35.4812H351.081C351.371 35.4812 351.607 35.7165 351.607 36.0066C351.607 36.2966 351.371 36.5318 351.081 36.5318Z" fill="#2A2A2A"/>
<path d="M326.124 36.5436H320.82C320.53 36.5436 320.295 36.3085 320.295 36.0184C320.295 35.7283 320.53 35.493 320.82 35.493H326.124C326.414 35.493 326.65 35.7283 326.65 36.0184C326.649 36.3085 326.414 36.5436 326.124 36.5436Z" fill="#2A2A2A"/>
<path d="M351.081 42.8457H335.799C335.509 42.8457 335.273 42.6104 335.273 42.3205C335.273 42.0304 335.509 41.7953 335.799 41.7953H351.081C351.371 41.7953 351.607 42.0304 351.607 42.3205C351.607 42.6106 351.371 42.8457 351.081 42.8457Z" fill="#2A2A2A"/>
<path d="M333.034 42.8578H320.82C320.53 42.8578 320.295 42.6225 320.295 42.3326C320.295 42.0425 320.53 41.8074 320.82 41.8074H333.034C333.324 41.8074 333.56 42.0425 333.56 42.3326C333.56 42.6225 333.324 42.8578 333.034 42.8578Z" fill="#2A2A2A"/>
<path d="M341.426 49.1599H328C327.71 49.1599 327.475 48.9246 327.475 48.6346C327.475 48.3445 327.71 48.1094 328 48.1094H341.426C341.716 48.1094 341.952 48.3445 341.952 48.6346C341.952 48.9246 341.716 49.1599 341.426 49.1599Z" fill="#2A2A2A"/>
<path d="M351.08 49.1599H345.176C344.886 49.1599 344.65 48.9246 344.65 48.6346C344.65 48.3445 344.886 48.1094 345.176 48.1094H351.08C351.37 48.1094 351.605 48.3445 351.605 48.6346C351.605 48.9246 351.37 49.1599 351.08 49.1599Z" fill="#2A2A2A"/>
<path d="M324.544 49.1718H320.82C320.53 49.1718 320.295 48.9365 320.295 48.6465C320.295 48.3564 320.53 48.1211 320.82 48.1211H324.544C324.835 48.1211 325.07 48.3564 325.07 48.6465C325.07 48.9365 324.835 49.1718 324.544 49.1718Z" fill="#2A2A2A"/>
<path d="M344.979 55.4739H320.82C320.53 55.4739 320.295 55.2386 320.295 54.9485C320.295 54.6585 320.53 54.4233 320.82 54.4233H344.979C345.269 54.4233 345.505 54.6585 345.505 54.9485C345.505 55.2388 345.269 55.4739 344.979 55.4739Z" fill="#2A2A2A"/>
<path d="M238.49 130.07H231.995C231.801 130.07 231.645 129.913 231.645 129.72C231.645 129.527 231.801 129.37 231.995 129.37H238.139V98.3579C238.139 98.1645 238.296 98.0078 238.489 98.0078H245.249C245.442 98.0078 245.599 98.1645 245.599 98.3579C245.599 98.5513 245.442 98.7081 245.249 98.7081H238.84V129.72C238.84 129.913 238.683 130.07 238.49 130.07Z" fill="black"/>
<path d="M230.464 120.598H178.615V141.27H230.464V120.598Z" fill="#010302"/>
<path d="M223.479 128.322H216.66C216.37 128.322 216.135 128.087 216.135 127.797C216.135 127.507 216.37 127.271 216.66 127.271H223.479C223.769 127.271 224.005 127.507 224.005 127.797C224.005 128.087 223.769 128.322 223.479 128.322Z" fill="#2A2A2A"/>
<path d="M211.394 128.322H185.598C185.308 128.322 185.072 128.087 185.072 127.797C185.072 127.507 185.308 127.271 185.598 127.271H211.394C211.684 127.271 211.919 127.507 211.919 127.797C211.919 128.087 211.684 128.322 211.394 128.322Z" fill="#2A2A2A"/>
<path d="M223.48 134.596H199.697C199.407 134.596 199.172 134.361 199.172 134.071C199.172 133.781 199.407 133.546 199.697 133.546H223.48C223.77 133.546 224.005 133.781 224.005 134.071C224.005 134.361 223.77 134.596 223.48 134.596Z" fill="#2A2A2A"/>
<path d="M195.118 134.596H185.598C185.308 134.596 185.072 134.361 185.072 134.071C185.072 133.781 185.308 133.546 185.598 133.546H195.118C195.408 133.546 195.643 133.781 195.643 134.071C195.643 134.361 195.408 134.596 195.118 134.596Z" fill="#2A2A2A"/>
<path d="M177.049 130.055H170.883C170.69 130.055 170.533 129.898 170.533 129.705V73.0092C170.533 72.8157 170.69 72.6589 170.883 72.6589C171.077 72.6589 171.234 72.8157 171.234 73.0092V129.355H177.049C177.243 129.355 177.399 129.511 177.399 129.705C177.4 129.898 177.243 130.055 177.049 130.055Z" fill="black"/>
<path d="M192.705 107.565H175.458C175.264 107.565 175.107 107.408 175.107 107.215C175.107 107.022 175.264 106.865 175.458 106.865H192.705C192.899 106.865 193.055 107.022 193.055 107.215C193.055 107.408 192.899 107.565 192.705 107.565Z" fill="black"/>
<path d="M187.459 111.234H175.458C175.264 111.234 175.107 111.077 175.107 110.884C175.107 110.691 175.264 110.534 175.458 110.534H187.459C187.652 110.534 187.809 110.691 187.809 110.884C187.809 111.077 187.652 111.234 187.459 111.234Z" fill="black"/>
<path d="M192.705 89.0021H175.458C175.264 89.0021 175.107 88.8453 175.107 88.6518C175.107 88.4584 175.264 88.3018 175.458 88.3018H192.705C192.899 88.3018 193.055 88.4584 193.055 88.6518C193.055 88.8453 192.899 89.0021 192.705 89.0021Z" fill="black"/>
<path d="M187.459 92.6713H175.458C175.264 92.6713 175.107 92.5145 175.107 92.3211C175.107 92.1278 175.264 91.9708 175.458 91.9708H187.459C187.652 91.9708 187.809 92.1276 187.809 92.3211C187.809 92.5145 187.652 92.6713 187.459 92.6713Z" fill="black"/>
<path d="M198.44 174.417C198.44 174.417 202.229 140.899 192.831 130.365C189.452 126.577 186.308 129.716 180.633 128.346C174.958 126.977 171.013 126.028 161.361 138.393C151.709 150.757 136.989 171.042 150.228 178.009C163.468 184.976 198.44 174.417 198.44 174.417Z" fill="black"/>
<path d="M237.91 246.149H206.074C184.648 246.412 130.527 246.065 130.527 246.065C130.527 246.065 134.96 203.236 139.651 186.372C141.901 178.272 144.178 174.553 149.399 172.071C163.797 165.221 190.587 167.543 203.842 169.266C208.404 169.861 211.361 170.383 211.659 170.435C211.67 170.435 211.68 170.439 211.687 170.442V170.446C216.495 172.12 220.654 175.604 223.275 180.384C231.407 195.213 238.268 209.7 243.19 223.889C246.088 232.248 243.495 240.9 237.91 246.149Z" fill="#FFAD31"/>
<path d="M182.902 246.597C159.255 246.597 130.918 246.418 130.526 246.416C130.427 246.415 130.333 246.373 130.267 246.299C130.201 246.225 130.17 246.128 130.18 246.029C130.224 245.601 134.669 202.977 139.314 186.278C141.688 177.731 144.102 174.202 149.249 171.754C163.525 164.963 189.61 167.062 203.888 168.918C208.25 169.488 211.178 169.995 211.721 170.09C211.764 170.098 211.81 170.112 211.842 170.128C211.844 170.129 211.846 170.13 211.848 170.131C216.802 171.869 220.969 175.448 223.583 180.215C232.425 196.34 238.947 210.588 243.523 223.774C246.315 231.83 244.207 240.713 238.151 246.405C238.086 246.466 238 246.5 237.911 246.5H206.075C200.234 246.571 191.906 246.597 182.902 246.597ZM130.917 245.718C135.834 245.748 185.843 246.047 206.07 245.799H237.771C243.549 240.293 245.547 231.754 242.86 224.004C238.298 210.855 231.791 196.642 222.968 180.552C220.429 175.923 216.383 172.451 211.572 170.777C211.571 170.776 211.569 170.775 211.567 170.775C210.952 170.666 208.065 170.17 203.797 169.613C189.596 167.767 163.663 165.673 149.55 172.387C144.622 174.731 142.299 178.152 139.99 186.465C135.595 202.261 131.373 241.407 130.917 245.718Z" fill="black"/>
<path d="M152.096 219.054C152.054 219.054 152.011 219.046 151.969 219.03C147.562 217.321 145.557 212.081 145.181 208.113C144.871 204.848 145.301 201.551 145.716 198.362C145.874 197.155 146.036 195.907 146.156 194.682C146.332 192.866 146.368 190.616 145.063 189.331C144.925 189.195 144.924 188.973 145.06 188.835C145.196 188.697 145.418 188.696 145.555 188.832C147.07 190.326 147.045 192.779 146.853 194.75C146.732 195.986 146.569 197.24 146.411 198.452C146 201.603 145.576 204.861 145.878 208.047C146.236 211.817 148.112 216.784 152.223 218.377C152.403 218.447 152.492 218.65 152.423 218.83C152.368 218.969 152.236 219.054 152.096 219.054Z" fill="black"/>
<path d="M187.354 216.54C171.934 217.084 153.25 218.253 152.682 220.734C152.022 223.611 154.032 224.395 154.032 224.395C154.032 224.395 151.897 226.701 154.709 229.72C154.709 229.72 153.394 232.979 155.642 234.781C155.642 234.781 155.426 239.32 159.376 239.331C162.429 239.339 173.925 243.123 186.051 246.073C188.879 236.575 189.355 226.275 187.354 216.54Z" fill="#FFAD31"/>
<path d="M183.721 245.845C183.693 245.845 183.664 245.841 183.635 245.834C179.438 244.772 175.377 243.645 171.794 242.65C165.829 240.994 161.119 239.686 159.375 239.681C158.205 239.678 157.258 239.304 156.558 238.568C155.399 237.35 155.293 235.52 155.289 234.943C153.347 233.245 154.05 230.571 154.308 229.8C152.135 227.34 153.021 225.292 153.521 224.504C152.903 224.079 151.81 222.971 152.34 220.656C152.52 219.873 153.065 217.49 185.486 216.258C185.677 216.249 185.842 216.402 185.85 216.595C185.857 216.788 185.706 216.951 185.513 216.958C156.735 218.052 153.205 220.018 153.023 220.812C152.438 223.365 154.142 224.062 154.159 224.069C154.267 224.111 154.347 224.204 154.373 224.317C154.399 224.43 154.368 224.548 154.289 224.633C154.212 224.717 152.42 226.749 154.965 229.482C155.058 229.581 155.084 229.725 155.034 229.851C155.022 229.881 153.847 232.893 155.862 234.508C155.949 234.578 155.997 234.686 155.992 234.797C155.991 234.818 155.912 236.876 157.069 238.088C157.631 238.678 158.408 238.978 159.378 238.981C161.215 238.986 165.966 240.305 171.982 241.975C175.561 242.969 179.618 244.095 183.807 245.155C183.994 245.202 184.108 245.393 184.061 245.58C184.02 245.739 183.878 245.845 183.721 245.845Z" fill="black"/>
<path d="M155.289 224.303C155.107 224.303 154.953 224.162 154.94 223.977C154.926 223.784 155.072 223.617 155.265 223.603L156.678 223.502C156.871 223.487 157.039 223.634 157.053 223.826C157.067 224.019 156.921 224.187 156.728 224.201L155.315 224.302C155.306 224.302 155.298 224.303 155.289 224.303Z" fill="black"/>
<path d="M155.856 229.606C155.668 229.606 155.512 229.458 155.506 229.269C155.499 229.075 155.65 228.913 155.844 228.906L157.444 228.849C157.448 228.849 157.452 228.849 157.457 228.849C157.644 228.849 157.8 228.998 157.806 229.187C157.813 229.38 157.662 229.542 157.469 229.549L155.869 229.606C155.864 229.606 155.86 229.606 155.856 229.606Z" fill="black"/>
<path d="M157.362 235.087C157.188 235.087 157.037 234.957 157.015 234.78C156.99 234.588 157.126 234.413 157.318 234.389L158.92 234.187C159.117 234.163 159.287 234.3 159.311 234.491C159.336 234.683 159.199 234.858 159.008 234.882L157.406 235.084C157.391 235.086 157.376 235.087 157.362 235.087Z" fill="black"/>
<path d="M213.351 216.958C213.331 216.958 213.311 216.957 213.291 216.953C207.879 216.024 190.111 216.429 189.933 216.433C189.725 216.436 189.579 216.285 189.574 216.092C189.57 215.898 189.723 215.738 189.916 215.733C190.649 215.716 207.931 215.323 213.409 216.263C213.6 216.296 213.728 216.477 213.695 216.667C213.666 216.838 213.518 216.958 213.351 216.958Z" fill="black"/>
<path d="M207.608 216.433C207.458 216.433 207.319 216.336 207.273 216.185L201.302 196.604C201.246 196.419 201.351 196.224 201.536 196.167C201.722 196.111 201.917 196.216 201.973 196.4L207.944 215.981C208 216.166 207.895 216.362 207.71 216.418C207.676 216.428 207.642 216.433 207.608 216.433Z" fill="black"/>
<path d="M185.388 174.035L188.739 154.079L177.03 150.657L171.029 173.896C171.029 173.896 180.787 176.169 185.388 174.035Z" fill="url(#paint0_linear_101_1137)"/>
<path d="M179.862 175.303C175.602 175.303 171.221 174.3 170.951 174.237C170.859 174.215 170.779 174.158 170.73 174.077C170.681 173.997 170.667 173.9 170.691 173.808L176.692 150.57C176.716 150.478 176.775 150.4 176.858 150.353C176.941 150.306 177.038 150.295 177.129 150.321L188.838 153.743C189.008 153.793 189.115 153.962 189.085 154.138L185.735 174.093C185.715 174.207 185.641 174.304 185.536 174.353C184.006 175.063 181.948 175.303 179.862 175.303ZM171.46 173.631C173.21 174 181.064 175.508 185.075 173.792L188.343 154.328L177.28 151.095L171.46 173.631Z" fill="black"/>
<path d="M178.807 175.204C174.725 175.204 170.254 174.499 166.029 172.384C165.857 172.297 165.786 172.087 165.873 171.914C165.96 171.741 166.17 171.671 166.344 171.758C178.646 177.918 193.142 171.812 193.287 171.749C193.465 171.673 193.671 171.755 193.747 171.932C193.824 172.11 193.742 172.316 193.565 172.393C193.466 172.435 186.899 175.204 178.807 175.204Z" fill="black"/>
<path d="M195.383 146.017C195.811 148.701 195.884 151.566 194.81 154.035C193.361 157.367 189.864 159.443 186.43 159.331C182.995 159.219 179.748 157.08 177.825 154.034C176.324 154.617 174.582 154.442 173.208 153.571C171.834 152.7 170.854 151.15 170.611 149.462C170.387 147.909 170.907 146.103 172.228 145.417C172.973 145.03 173.856 145.054 174.657 145.28C176.097 145.686 177.368 146.737 178.098 148.125C179.086 148.621 180.113 147.037 180.531 145.959C180.95 144.881 181.119 140.977 181.337 139.852C181.736 137.803 183.142 136.261 187.075 135.539C189.422 135.108 191.444 136.285 192.556 137.35C193.397 138.155 193.748 139.727 194.107 140.805C194.673 142.498 195.101 144.244 195.383 146.017Z" fill="url(#paint1_linear_101_1137)"/>
<path d="M186.695 159.685C186.603 159.685 186.511 159.684 186.418 159.681C183.074 159.572 179.75 157.578 177.681 154.457C176.135 154.964 174.413 154.75 173.02 153.867C171.553 152.937 170.522 151.309 170.264 149.511C170.04 147.957 170.508 145.916 172.067 145.106C173.014 144.613 174.049 144.745 174.751 144.943C176.255 145.367 177.559 146.423 178.347 147.848C178.459 147.882 178.573 147.873 178.7 147.825C179.265 147.607 179.884 146.658 180.204 145.832C180.448 145.204 180.614 143.407 180.747 141.963C180.833 141.03 180.907 140.224 180.993 139.785C181.479 137.285 183.335 135.869 187.011 135.194C189.968 134.651 192.188 136.513 192.798 137.097C193.552 137.818 193.919 139.016 194.243 140.073C194.31 140.291 194.374 140.501 194.439 140.694C195.011 142.405 195.444 144.178 195.729 145.962C196.265 149.33 196.07 152.017 195.131 154.174C193.706 157.451 190.265 159.685 186.695 159.685ZM177.825 153.684C177.942 153.684 178.055 153.743 178.121 153.848C180.054 156.91 183.241 158.877 186.441 158.981C189.832 159.095 193.138 157 194.489 153.895C195.372 151.863 195.552 149.304 195.037 146.072C194.758 144.326 194.334 142.591 193.774 140.916C193.708 140.717 193.642 140.502 193.573 140.278C193.274 139.303 192.936 138.198 192.313 137.603C191.764 137.077 189.768 135.4 187.137 135.883C182.843 136.672 181.965 138.454 181.68 139.919C181.602 140.323 181.525 141.151 181.444 142.027C181.3 143.592 181.136 145.366 180.857 146.085C180.508 146.985 179.8 148.152 178.951 148.478C178.606 148.611 178.257 148.597 177.94 148.437C177.875 148.405 177.821 148.352 177.788 148.288C177.106 146.993 175.9 145.995 174.561 145.617C173.981 145.453 173.134 145.34 172.389 145.727C171.19 146.35 170.761 148.052 170.957 149.412C171.187 151.009 172.099 152.453 173.395 153.275C174.683 154.091 176.29 154.254 177.698 153.708C177.74 153.692 177.782 153.684 177.825 153.684Z" fill="black"/>
<path d="M177.035 151.306C176.897 151.306 176.766 151.224 176.711 151.089C176.333 150.17 175.262 149.628 174.367 149.907C174.181 149.964 173.986 149.861 173.928 149.677C173.871 149.492 173.974 149.296 174.158 149.238C175.406 148.85 176.841 149.561 177.359 150.823C177.432 151.002 177.347 151.207 177.168 151.28C177.124 151.298 177.079 151.306 177.035 151.306Z" fill="black"/>
<path d="M1.06169 291.5C0.936 291.5 0.814773 291.433 0.751851 291.314C0.661211 291.143 0.726202 290.931 0.897128 290.841L85.5431 245.938C85.5936 245.911 85.6501 245.897 85.7073 245.897H237.912C237.972 245.897 238.03 245.912 238.082 245.94L318.25 290.173C318.42 290.267 318.481 290.479 318.387 290.649C318.294 290.818 318.081 290.879 317.912 290.786L237.822 246.597H85.7944L1.2256 291.459C1.17319 291.487 1.11696 291.5 1.06169 291.5Z" fill="black"/>
<path d="M52.5254 268.931H129.692L161.227 251.763H84.0602L52.5254 268.931Z" fill="url(#paint2_linear_101_1137)"/>
<path d="M129.693 269.28H52.5261C52.366 269.28 52.2261 269.172 52.1868 269.017C52.147 268.862 52.2178 268.7 52.3585 268.623L83.8931 251.456C83.9446 251.428 84.0024 251.413 84.0609 251.413H161.228C161.388 251.413 161.528 251.521 161.567 251.676C161.607 251.832 161.536 251.994 161.395 252.07L129.861 269.238C129.809 269.266 129.752 269.28 129.693 269.28ZM53.9016 268.58H129.604L159.852 252.113H84.1501L53.9016 268.58Z" fill="black"/>
<path d="M33.2539 248.758L24.623 278.477L84.2069 247.107L33.2539 248.758Z" fill="url(#paint3_linear_101_1137)"/>
<path d="M24.6239 278.827C24.5447 278.827 24.4662 278.8 24.4025 278.748C24.2933 278.66 24.2481 278.514 24.2874 278.379L32.9182 248.661C32.9602 248.515 33.0916 248.413 33.2433 248.408L84.1964 246.756C84.3546 246.755 84.5048 246.859 84.5464 247.017C84.5883 247.175 84.5153 247.34 84.371 247.416L24.7872 278.787C24.7359 278.814 24.6796 278.827 24.6239 278.827ZM33.52 249.1L25.1902 277.783L82.6976 247.506L33.52 249.1Z" fill="black"/>
<path d="M96.7833 151.342C96.7833 151.342 105.141 141.332 100.319 137.188C95.4978 133.044 91.5039 138.851 84.1789 137.209C76.854 135.566 71.7614 134.429 59.3263 149.356C46.8913 164.283 11.9333 200.053 29.0286 208.432C46.1239 216.812 96.7833 151.342 96.7833 151.342Z" fill="black"/>
<path d="M175.467 188.032C175.045 186.837 173.876 186.03 172.651 185.704C171.426 185.377 170.134 185.455 168.869 185.535C160.821 186.043 152.773 186.551 144.725 187.059C150.103 189.871 156.14 191.109 162.162 191.458C164.664 191.603 177.254 193.092 175.467 188.032Z" fill="url(#paint4_linear_101_1137)"/>
<path d="M168.302 192.12C166.627 192.12 164.829 192.014 163.069 191.876C162.686 191.846 162.37 191.821 162.141 191.807C155.358 191.415 149.443 189.922 144.561 187.369C144.422 187.296 144.348 187.139 144.381 186.986C144.413 186.832 144.545 186.719 144.701 186.709L168.845 185.185C170.066 185.108 171.447 185.021 172.74 185.365C174.23 185.762 175.372 186.715 175.796 187.916C176.123 188.84 176.037 189.637 175.539 190.283C174.449 191.702 171.618 192.12 168.302 192.12ZM146.048 187.326C150.61 189.481 156.03 190.752 162.181 191.108C162.415 191.122 162.736 191.147 163.124 191.178C165.921 191.397 173.353 191.979 174.984 189.857C175.332 189.404 175.382 188.845 175.136 188.149C174.789 187.167 173.826 186.379 172.56 186.042C171.377 185.727 170.112 185.807 168.89 185.884L146.048 187.326Z" fill="black"/>
<path d="M131.601 187.833C134.624 180.884 144.517 177.74 147.953 176.75C151.39 175.761 151.866 180.451 146.426 183.214C140.986 185.977 142.758 187.174 142.758 187.174C142.758 187.174 175.383 187.069 176.932 190.522C176.932 190.522 178.98 195.545 166.109 195.59C162.465 195.602 159.18 197.785 157.773 201.143C157.375 202.092 156.931 203.144 156.456 204.263C146.268 204.431 136.04 201.789 127.215 196.698C129.21 192.841 130.834 189.597 131.601 187.833Z" fill="url(#paint5_linear_101_1137)"/>
<path d="M156.769 203.872C156.724 203.872 156.677 203.863 156.633 203.844C156.454 203.769 156.371 203.563 156.447 203.385C156.871 202.387 157.02 202.032 157.33 201.292L157.45 201.007C158.912 197.517 162.311 195.253 166.107 195.239C173.022 195.215 175.462 193.758 176.291 192.539C176.952 191.567 176.62 190.689 176.606 190.652C175.552 188.301 155.293 187.486 142.759 187.524C142.677 187.518 142.62 187.503 142.562 187.464C142.389 187.347 142.103 187.015 142.134 186.516C142.199 185.478 143.589 184.262 146.267 182.902C149.628 181.195 150.516 178.843 150.072 177.718C149.803 177.036 149.048 176.8 148.05 177.086C142.109 178.797 134.489 182.074 131.923 187.972C131.327 189.344 130.161 191.724 128.459 195.047C128.371 195.219 128.161 195.287 127.988 195.199C127.815 195.11 127.747 194.899 127.836 194.727C129.531 191.418 130.69 189.051 131.28 187.693C133.955 181.545 141.771 178.166 147.856 176.413C149.48 175.946 150.404 176.648 150.724 177.461C151.355 179.062 150.119 181.731 146.584 183.526C143.264 185.212 142.855 186.209 142.834 186.56C142.826 186.684 142.865 186.771 142.901 186.823C144.033 186.824 151.622 186.831 159.281 187.203C176.195 188.025 176.99 189.797 177.251 190.379C177.276 190.44 177.745 191.629 176.884 192.913C175.551 194.901 171.927 195.92 166.11 195.94C162.595 195.952 159.45 198.047 158.096 201.278L157.976 201.562C157.666 202.304 157.517 202.659 157.092 203.659C157.035 203.792 156.906 203.872 156.769 203.872Z" fill="black"/>
<path d="M105.868 185.769C105.868 185.769 118.903 187.468 117.977 196.16C117.05 204.852 116.986 217.167 116.986 217.167C116.986 217.167 121.35 208.037 127.215 196.698C136.04 201.788 146.268 204.43 156.456 204.263C150.968 217.168 143.296 234.877 137.194 241.246C128.575 250.245 108.706 265.024 95.4255 232.098C82.1454 199.171 105.868 185.769 105.868 185.769Z" fill="#51B29C"/>
<path d="M105.865 185.769L113.91 194.554C113.91 194.554 108.283 225.034 106.541 229.091C101.943 239.799 51.0255 233.914 40.5638 233.423C30.1021 232.931 24.8535 223.075 24.5041 219.156C24.1544 215.238 46.5549 185.495 46.5549 185.495C46.5549 185.495 73.5595 184.174 105.865 185.769Z" fill="#51B29C"/>
<path d="M100.366 231.131C100.223 231.131 100.089 231.043 100.037 230.901C99.9705 230.719 100.064 230.518 100.246 230.452C104.274 228.987 106.107 224.438 106.453 220.988C106.746 218.069 106.326 215.082 105.919 212.194C105.762 211.081 105.601 209.931 105.481 208.796C105.289 206.977 105.26 204.713 106.758 203.329C106.9 203.198 107.121 203.206 107.253 203.349C107.384 203.491 107.376 203.712 107.233 203.843C105.964 205.015 106.003 207.066 106.178 208.722C106.296 209.845 106.457 210.989 106.613 212.096C107.025 215.025 107.451 218.055 107.151 221.057C106.785 224.71 104.82 229.534 100.486 231.11C100.447 231.124 100.406 231.131 100.366 231.131Z" fill="black"/>
<path d="M65.7425 231.643C80.8865 232.123 99.2357 233.172 99.7969 235.448C100.448 238.088 98.4757 238.81 98.4757 238.81C98.4757 238.81 100.575 240.923 97.817 243.698C97.817 243.698 99.1113 246.687 96.9063 248.344C96.9063 248.344 97.1239 252.509 93.2447 252.524C90.2475 252.536 78.962 256.023 67.058 258.746C64.2695 250.032 63.7896 240.58 65.7425 231.643Z" fill="url(#paint6_linear_101_1137)"/>
<path d="M67.0571 259.096C66.8988 259.096 66.7551 258.987 66.7167 258.827C66.6718 258.638 66.788 258.45 66.9763 258.405C70.9396 257.463 75.1553 256.375 78.8747 255.415C85.8739 253.608 91.4023 252.181 93.2425 252.174C94.2386 252.17 95.0259 251.87 95.5826 251.282C96.6372 250.167 96.5564 248.38 96.5554 248.362C96.5495 248.246 96.6016 248.134 96.695 248.064C98.6494 246.596 97.5424 243.949 97.4945 243.837C97.4381 243.706 97.4669 243.553 97.5675 243.451C100.035 240.969 98.3001 239.132 98.225 239.056C98.0906 238.918 98.0923 238.696 98.2298 238.561C98.367 238.425 98.5878 238.427 98.7236 238.563C98.7467 238.587 100.951 240.873 98.221 243.783C98.4753 244.531 99.1144 246.977 97.2581 248.512C97.2533 249.054 97.1442 250.65 96.0917 251.763C95.3981 252.496 94.4403 252.87 93.2451 252.875C91.4925 252.881 85.7263 254.37 79.0496 256.093C75.3272 257.054 71.1082 258.143 67.1382 259.087C67.1113 259.093 67.0842 259.096 67.0571 259.096Z" fill="black"/>
<path d="M10.9216 238.459C15.7391 225.431 22.4541 209.322 30.421 195.703C34.0079 189.572 40.5429 185.76 47.6462 185.534L58.5916 185.186L45.8536 231.249C45.8536 231.249 54.991 231.303 65.7438 231.643C63.7908 240.581 64.2707 250.032 67.0591 258.746C63.555 259.547 59.9981 260.283 56.5823 260.844C50.1572 261.899 39.3116 263.003 29.0633 263.423C15.8388 263.964 6.33323 250.866 10.9216 238.459Z" fill="#51B29C"/>
<path d="M97.2429 238.756C97.2349 238.756 97.2275 238.755 97.2197 238.755L95.8314 238.664C95.6385 238.651 95.4921 238.485 95.5047 238.292C95.5177 238.099 95.6773 237.951 95.8773 237.965L97.2655 238.056C97.4586 238.068 97.605 238.235 97.5924 238.428C97.58 238.613 97.4259 238.756 97.2429 238.756Z" fill="black"/>
<path d="M96.6917 243.624C96.688 243.624 96.6837 243.623 96.68 243.623L95.1084 243.573C94.9152 243.567 94.7632 243.405 94.7697 243.212C94.7759 243.018 94.9558 242.869 95.1312 242.873L96.7028 242.923C96.896 242.929 97.048 243.091 97.0416 243.285C97.0356 243.474 96.8798 243.624 96.6917 243.624Z" fill="black"/>
<path d="M95.2171 248.655C95.2038 248.655 95.19 248.654 95.1763 248.653L93.6029 248.47C93.4106 248.447 93.2732 248.274 93.2953 248.082C93.3176 247.89 93.4914 247.753 93.6837 247.774L95.2569 247.957C95.4492 247.979 95.5868 248.153 95.5645 248.345C95.5441 248.524 95.3925 248.655 95.2171 248.655Z" fill="black"/>
<path d="M40.2133 232.089C40.0441 232.089 39.8958 231.967 39.8678 231.794C39.837 231.604 39.9667 231.424 40.1575 231.393C45.5351 230.523 62.505 230.862 63.2244 230.877C63.4181 230.881 63.5714 231.041 63.5677 231.235C63.5637 231.428 63.3939 231.588 63.2101 231.577C63.0342 231.574 45.5843 231.225 40.2697 232.084C40.2506 232.087 40.2318 232.089 40.2133 232.089Z" fill="black"/>
<path d="M45.8525 231.6C45.8165 231.6 45.7803 231.594 45.7445 231.583C45.5603 231.523 45.4593 231.325 45.5192 231.142L51.359 213.163C51.4189 212.979 51.6165 212.879 51.8005 212.939C51.9846 212.998 52.0854 213.196 52.0257 213.38L46.1857 231.358C46.1374 231.506 46.0003 231.6 45.8525 231.6Z" fill="black"/>
<path d="M82.7941 189.62L92.6406 165.542L77.5265 161.434L64.2656 189.476C64.2656 189.476 76.8603 192.201 82.7941 189.62Z" fill="url(#paint7_linear_101_1137)"/>
<path d="M84.6906 185.332C84.6467 185.332 84.6014 185.323 84.5582 185.306C84.379 185.233 84.293 185.028 84.3663 184.849L92.1661 165.776L77.4343 161.772C77.2478 161.722 77.1372 161.529 77.1882 161.343C77.2392 161.156 77.4326 161.046 77.6183 161.097L92.7324 165.204C92.8293 165.23 92.91 165.297 92.9545 165.387C92.9991 165.477 93.0027 165.581 92.9647 165.674L85.015 185.114C84.9595 185.25 84.8284 185.332 84.6906 185.332Z" fill="black"/>
<path d="M64.2645 189.828C64.2365 189.828 64.2083 189.824 64.1799 189.818C61.9699 189.271 59.8453 188.525 57.8644 187.601C57.6889 187.519 57.6132 187.311 57.6951 187.136C57.7772 186.96 57.986 186.885 58.1607 186.966C60.1005 187.871 62.1824 188.602 64.3483 189.138C64.5361 189.184 64.6507 189.374 64.6042 189.562C64.565 189.721 64.4219 189.828 64.2645 189.828Z" fill="black"/>
<path d="M83.6566 190.142C83.49 190.142 83.3422 190.022 83.3121 189.853C83.2783 189.662 83.4051 189.48 83.5958 189.446C89.1739 188.457 92.9929 186.929 93.0308 186.914C93.2105 186.841 93.4146 186.928 93.4869 187.107C93.5595 187.286 93.4729 187.49 93.2937 187.563C93.2551 187.578 89.3733 189.132 83.7183 190.136C83.6979 190.14 83.6769 190.142 83.6566 190.142Z" fill="black"/>
<path d="M99.9191 155.809C100.475 159.045 100.575 162.5 99.1926 165.479C97.3272 169.499 92.8188 172.009 88.3865 171.88C83.9542 171.751 79.7609 169.177 77.2754 165.507C75.3385 166.212 73.0905 166.004 71.316 164.956C69.5416 163.908 68.2752 162.04 67.9585 160.004C67.6675 158.132 68.3356 155.954 70.0394 155.124C70.9998 154.656 72.1391 154.684 73.1725 154.955C75.0315 155.442 76.6735 156.707 77.6185 158.38C78.8937 158.977 80.4484 157.974 80.9865 156.674C81.5246 155.373 81.3468 153.904 81.2175 152.503C81.0881 151.102 81.041 149.592 81.7849 148.398C82.4719 147.294 83.709 146.667 84.9211 146.196C86.877 145.436 88.9348 144.94 91.0214 144.719C92.2952 144.584 94.7211 144.121 95.9079 144.809C97.1846 145.548 97.7989 148.227 98.2647 149.525C98.9968 151.567 99.552 153.672 99.9191 155.809Z" fill="url(#paint8_linear_101_1137)"/>
<path d="M88.7151 172.235C88.602 172.235 88.4894 172.233 88.3761 172.23C84.0729 172.105 79.7909 169.695 77.1377 165.924C75.1552 166.561 72.9327 166.317 71.1376 165.257C69.2641 164.151 67.9461 162.207 67.6119 160.058C67.3237 158.204 67.9126 155.77 69.8855 154.809C71.0745 154.23 72.3769 154.384 73.261 154.616C75.1871 155.121 76.858 156.389 77.8633 158.104C78.3417 158.289 78.8047 158.19 79.1171 158.068C79.7876 157.808 80.38 157.222 80.6623 156.54C81.1365 155.393 81.0115 154.062 80.8904 152.775L80.8678 152.535C80.7385 151.132 80.6687 149.526 81.4868 148.212C82.2561 146.976 83.6582 146.311 84.7937 145.87C86.7728 145.101 88.8553 144.596 90.9838 144.371C91.1778 144.35 91.3989 144.322 91.6384 144.291C93.0475 144.111 94.9766 143.865 96.0829 144.505C97.2408 145.176 97.8653 147.142 98.3214 148.578C98.4193 148.887 98.5092 149.171 98.5941 149.407C99.3335 151.469 99.8952 153.603 100.264 155.75C100.96 159.802 100.714 163.032 99.51 165.626C97.6882 169.554 93.2833 172.235 88.7151 172.235ZM77.2753 165.157C77.3887 165.157 77.4987 165.213 77.5654 165.311C80.081 169.026 84.2314 171.409 88.3967 171.53C92.8039 171.659 97.1214 169.11 98.8746 165.332C100.016 162.871 100.245 159.775 99.5737 155.868C99.2117 153.762 98.6605 151.667 97.9346 149.643C97.8475 149.4 97.7546 149.108 97.6533 148.79C97.2321 147.463 96.6551 145.646 95.732 145.111C94.8304 144.59 92.9636 144.828 91.7276 144.986C91.4826 145.018 91.2564 145.046 91.0579 145.067C88.9912 145.287 86.9689 145.776 85.0476 146.523C84.0136 146.925 82.7419 147.522 82.0815 148.583C81.3787 149.712 81.4468 151.182 81.566 152.471L81.5881 152.71C81.7172 154.082 81.8507 155.501 81.3097 156.808C80.9568 157.661 80.2137 158.394 79.3706 158.721C78.7095 158.978 78.0511 158.969 77.4694 158.697C77.4032 158.666 77.3486 158.615 77.3126 158.552C76.4205 156.972 74.8394 155.754 73.0829 155.293C72.3137 155.092 71.1881 154.953 70.1926 155.438C68.6121 156.208 68.0461 158.291 68.3042 159.951C68.6062 161.895 69.7989 163.653 71.4938 164.654C73.1886 165.655 75.3056 165.851 77.1551 165.178C77.195 165.164 77.2352 165.157 77.2753 165.157Z" fill="black"/>
<path d="M76.2484 162.146C76.1136 162.146 75.9852 162.068 75.9274 161.937C75.4207 160.787 73.9746 160.115 72.7674 160.468C72.5817 160.522 72.3869 160.415 72.3325 160.23C72.2782 160.044 72.3846 159.85 72.5704 159.795C74.1221 159.341 75.9161 160.175 76.5687 161.655C76.6466 161.831 76.5664 162.038 76.3894 162.116C76.3437 162.136 76.2952 162.146 76.2484 162.146Z" fill="black"/>
<path d="M234.462 195.769C238.658 190.108 245.069 186.509 252.089 185.863C256.088 185.494 259.93 185.465 265.036 186.088C265.344 187.093 272.088 192.575 274.977 193.704C277.836 194.821 287.952 197.601 298.413 186.15C300.406 186.088 305.42 185.518 310.181 186.264C319.269 187.686 327.25 193.086 332.058 200.92C340.869 215.278 356.247 240.803 356.943 261.346C357.603 280.846 333.02 278.169 333.02 278.169L248.068 278.505L209 247.797C209 247.797 219.898 215.42 234.462 195.769Z" fill="#3A7FD0"/>
<path d="M244.087 244.959C244.044 244.959 244.001 244.952 243.959 244.935C243.779 244.865 243.69 244.662 243.76 244.482C243.835 244.292 251.212 225.392 254.607 214.191C254.663 214.006 254.858 213.901 255.044 213.957C255.229 214.013 255.334 214.209 255.278 214.394C251.874 225.621 244.488 244.546 244.413 244.736C244.359 244.875 244.227 244.959 244.087 244.959Z" fill="black"/>
<path d="M290.35 246.379C290.163 246.379 290.008 246.231 290 246.043C289.992 245.85 290.142 245.687 290.336 245.679L331.943 243.948C332.137 243.938 332.3 244.09 332.307 244.283C332.316 244.476 332.165 244.639 331.972 244.647L290.365 246.378C290.36 246.379 290.355 246.379 290.35 246.379Z" fill="black"/>
<path d="M319.493 244.999C319.353 244.999 319.221 244.915 319.167 244.777L311.298 224.71C311.227 224.53 311.316 224.327 311.496 224.256C311.676 224.186 311.879 224.274 311.95 224.454L319.819 244.521C319.89 244.701 319.801 244.904 319.622 244.975C319.579 244.992 319.536 244.999 319.493 244.999Z" fill="black"/>
<path d="M206.765 211.103C206.765 211.103 193.859 189.572 191.826 187.541C189.794 185.509 176.278 183.681 173.737 183.173C171.197 182.666 162.611 179.674 161.034 179.721C158.822 179.785 158.494 181.244 158.494 181.244C158.494 181.244 156.119 180.269 154.429 181.041C152.967 181.708 153.108 182.869 153.108 182.869C153.108 182.869 150.262 182.158 149.043 183.884C147.823 185.611 150.262 187.541 150.262 187.541C150.262 187.541 149.856 188.963 151.177 191.502C152.498 194.041 155.07 195.204 156.868 196.174C161.949 198.916 168.351 202.47 169.774 203.08C171.197 203.689 186.338 226.541 186.338 226.541L206.765 211.103Z" fill="url(#paint9_linear_101_1137)"/>
<path d="M186.338 226.891C186.319 226.891 186.299 226.889 186.28 226.886C186.184 226.869 186.1 226.815 186.046 226.734C180.266 218.011 170.699 203.962 169.632 203.4C168.605 202.96 165.024 201.009 161.233 198.943C159.713 198.115 158.153 197.265 156.701 196.482C156.53 196.389 156.351 196.294 156.167 196.197C154.36 195.243 152.111 194.055 150.866 191.664C149.787 189.591 149.813 188.206 149.881 187.68C148.953 186.872 147.704 185.173 148.756 183.683C149.82 182.178 151.903 182.314 152.786 182.451C152.875 181.97 153.195 181.22 154.283 180.723C155.721 180.066 157.553 180.552 158.295 180.8C158.558 180.288 159.262 179.423 161.024 179.371C162 179.343 165.147 180.3 168.476 181.315C170.683 181.988 172.767 182.623 173.806 182.831C174.276 182.925 175.14 183.067 176.234 183.246C181.165 184.056 190.343 185.564 192.074 187.293C194.114 189.332 206.538 210.043 207.066 210.924C207.158 211.077 207.119 211.275 206.976 211.383L186.55 226.82C186.489 226.866 186.414 226.891 186.338 226.891ZM151.778 183.076C150.949 183.076 149.91 183.264 149.329 184.087C148.316 185.521 150.458 187.249 150.48 187.267C150.591 187.355 150.638 187.501 150.599 187.637C150.597 187.647 150.262 188.984 151.488 191.34C152.631 193.539 154.773 194.67 156.494 195.578C156.68 195.676 156.861 195.772 157.035 195.866C158.487 196.649 160.047 197.5 161.569 198.329C165.345 200.386 168.911 202.329 169.912 202.758C171.322 203.362 183.472 221.584 186.425 226.037L206.303 211.014C204.805 208.521 193.436 189.645 191.579 187.789C190.007 186.218 180.628 184.677 176.121 183.937C175.02 183.756 174.151 183.614 173.669 183.517C172.596 183.303 170.495 182.663 168.272 181.985C165.289 181.076 161.904 180.046 161.045 180.071C159.154 180.126 158.847 181.276 158.835 181.325C158.81 181.423 158.744 181.508 158.653 181.554C158.562 181.6 158.455 181.607 158.361 181.568C158.338 181.559 156.104 180.661 154.575 181.36C153.381 181.905 153.452 182.794 153.456 182.831C153.467 182.944 153.422 183.058 153.336 183.132C153.25 183.206 153.133 183.236 153.023 183.209C153.011 183.206 152.467 183.076 151.778 183.076Z" fill="black"/>
<path d="M175.33 188.575C175.306 188.575 175.282 188.573 175.259 188.568C172.31 187.96 157.627 184.751 158.124 181.264C158.151 181.072 158.328 180.939 158.52 180.966C158.711 180.994 158.845 181.171 158.818 181.362C158.505 183.557 168.823 186.526 175.4 187.882C175.59 187.921 175.712 188.106 175.673 188.295C175.638 188.461 175.492 188.575 175.33 188.575Z" fill="black"/>
<path d="M168.759 191.657C168.726 191.657 168.693 191.653 168.66 191.643C167.037 191.17 152.798 186.907 152.758 182.872C152.756 182.679 152.911 182.521 153.105 182.519C153.106 182.519 153.107 182.519 153.108 182.519C153.3 182.519 153.457 182.673 153.459 182.865C153.488 185.844 164.584 189.726 168.857 190.971C169.042 191.025 169.149 191.219 169.095 191.405C169.05 191.558 168.911 191.657 168.759 191.657Z" fill="black"/>
<path d="M165.004 195.142C164.974 195.142 164.943 195.138 164.913 195.13C157.962 193.259 150.141 187.883 150.063 187.829C149.904 187.719 149.864 187.501 149.975 187.342C150.085 187.183 150.303 187.143 150.462 187.253C150.539 187.306 158.262 192.615 165.095 194.453C165.282 194.504 165.393 194.696 165.342 194.882C165.3 195.039 165.158 195.142 165.004 195.142Z" fill="black"/>
<path d="M182.334 221.246L203.958 205.094L227.858 237.625L203.503 253.093L182.334 221.246Z" fill="#3A7FD0"/>
<path d="M221.984 229.324C221.878 229.324 221.773 229.276 221.705 229.185L218.686 225.204C218.569 225.05 218.6 224.83 218.754 224.714C218.909 224.597 219.128 224.627 219.245 224.781L222.263 228.763C222.38 228.917 222.35 229.137 222.195 229.253C222.132 229.301 222.058 229.324 221.984 229.324Z" fill="black"/>
<path d="M295.049 278.025C295.049 278.025 295.544 265.531 295.422 258.069C295.3 250.607 288.445 245.958 288.445 245.958H281.618C267.887 245.958 256.805 257.177 256.983 270.899L257.496 277.979L295.049 278.025Z" fill="url(#paint10_linear_101_1137)"/>
<path d="M295.049 278.375L257.496 278.329C257.312 278.329 257.16 278.187 257.147 278.004L256.633 270.924C256.545 264.173 259.103 257.827 263.835 253.037C268.567 248.246 274.882 245.608 281.618 245.608H288.445C288.639 245.608 288.795 245.765 288.795 245.958C288.795 246.151 288.639 246.308 288.445 246.308H281.618C275.071 246.308 268.933 248.872 264.334 253.529C259.735 258.185 257.248 264.352 257.333 270.895L257.822 277.629L295.049 277.675C295.243 277.675 295.399 277.832 295.399 278.025C295.399 278.219 295.242 278.375 295.049 278.375Z" fill="black"/>
<path d="M275.44 274.786C275.269 274.786 275.119 274.661 275.094 274.487C274.813 272.561 275.259 270.432 276.35 268.492C277.248 266.895 278.567 265.396 280.383 263.91C280.75 263.609 281.148 263.299 281.624 263.091C281.802 263.013 282.008 263.095 282.085 263.272C282.163 263.449 282.082 263.655 281.905 263.733C281.51 263.905 281.156 264.182 280.827 264.452C279.08 265.881 277.815 267.315 276.961 268.835C275.945 270.641 275.528 272.612 275.787 274.385C275.815 274.577 275.682 274.754 275.491 274.782C275.474 274.785 275.457 274.786 275.44 274.786Z" fill="black"/>
<path d="M267.376 274.324C267.36 274.324 267.343 274.323 267.326 274.321C267.135 274.294 267.002 274.117 267.029 273.925C267.336 271.758 267.78 269.221 268.735 266.828C269.739 264.314 271.221 262.256 273.021 260.876C273.174 260.758 273.395 260.787 273.512 260.94C273.63 261.094 273.601 261.313 273.447 261.431C271.748 262.735 270.343 264.691 269.386 267.087C268.458 269.411 268.024 271.898 267.723 274.023C267.698 274.198 267.548 274.324 267.376 274.324Z" fill="black"/>
<path d="M260.916 274.324C260.741 274.324 260.589 274.194 260.568 274.016C259.444 264.607 265.634 258.731 265.697 258.673C265.839 258.541 266.06 258.55 266.192 258.69C266.323 258.832 266.315 259.053 266.174 259.185C266.114 259.241 260.183 264.888 261.264 273.933C261.287 274.125 261.15 274.299 260.957 274.322C260.944 274.324 260.929 274.324 260.916 274.324Z" fill="black"/>
<path d="M196.143 279.181H287.143C287.682 279.181 288.222 279.043 288.666 278.737C289.706 278.022 290.068 276.743 289.656 275.644C288.583 273.396 286.365 272.605 283.086 272.605H190.172L191.377 275.879C192.121 277.865 194.02 279.181 196.143 279.181Z" fill="black"/>
<path d="M195.627 279.181C193.808 279.181 192.172 278.073 191.498 276.384L175.388 235.994C174.961 234.922 175.093 233.709 175.741 232.754C176.389 231.799 177.468 231.227 178.623 231.227H234.552C237.922 231.227 240.926 233.348 242.051 236.522L257.173 279.181H195.627Z" fill="black"/>
<path d="M249.769 273.351H194.319C194.125 273.351 193.969 273.194 193.969 273C193.969 272.807 194.125 272.65 194.319 272.65H249.769C249.962 272.65 250.119 272.807 250.119 273C250.119 273.194 249.962 273.351 249.769 273.351Z" fill="url(#paint11_linear_101_1137)"/>
<path d="M284.956 161.623L292.225 182.853C292.69 184.21 293.845 185.215 295.254 185.489L298.49 186.118L282.651 235.38L264.832 186.118L267.832 185.875C269.628 185.73 270.859 184.003 270.409 182.26L267.037 169.213C267.037 169.213 280.779 158.148 284.956 161.623Z" fill="url(#paint12_linear_101_1137)"/>
<path d="M267.973 186.196C267.792 186.196 267.639 186.057 267.624 185.874C267.609 185.681 267.752 185.512 267.945 185.497C268.698 185.436 269.381 185.048 269.819 184.433C270.257 183.819 270.4 183.047 270.211 182.317L266.839 169.27C266.805 169.137 266.852 168.996 266.959 168.91C267.529 168.451 280.974 157.707 285.322 161.324C285.371 161.365 285.408 161.419 285.43 161.48L292.698 182.71C293.121 183.945 294.18 184.866 295.462 185.115C295.653 185.152 295.776 185.336 295.739 185.526C295.702 185.716 295.517 185.839 295.329 185.803C293.801 185.506 292.539 184.408 292.035 182.937L284.799 161.803C281.522 159.31 271.445 166.233 267.574 169.315L270.889 182.142C271.13 183.073 270.948 184.056 270.39 184.839C269.832 185.623 268.961 186.117 268.001 186.195C267.992 186.195 267.982 186.196 267.973 186.196Z" fill="black"/>
<path d="M285.331 196.084C285.231 196.084 285.132 196.042 285.063 195.961C282.922 193.438 279.797 189.775 278.873 188.729L273.588 195.719C273.528 195.798 273.436 195.848 273.337 195.857C273.234 195.866 273.139 195.829 273.067 195.76L265.883 188.884C265.744 188.751 265.739 188.529 265.873 188.389C266.007 188.249 266.229 188.245 266.368 188.379L273.267 194.982L278.566 187.974C278.669 187.838 278.854 187.796 279.006 187.874C279.083 187.913 279.2 187.973 285.398 195.272L296.934 187.734C297.096 187.628 297.314 187.674 297.419 187.835C297.525 187.997 297.48 188.214 297.317 188.32L285.522 196.028C285.463 196.066 285.397 196.084 285.331 196.084Z" fill="#3A7FD0"/>
<path d="M260.189 162.419C260.189 162.419 252.413 158.569 249.214 149.649C245.977 140.623 250.486 139.436 252.702 143.041C252.702 143.041 251.614 132.01 258.945 138.298C258.945 138.298 259.282 128.779 265.907 137.724C265.907 137.724 266.625 131.477 271.9 139.563C271.9 139.563 276.63 136.244 281.77 142.162C286.911 148.08 286.61 157.244 282.744 161.945C278.879 166.646 260.189 162.419 260.189 162.419Z" fill="black"/>
<path d="M280.585 166.837C280.585 166.837 280.159 175.679 270.999 177.527C261.838 179.375 257.479 168.492 253.85 156.549C255.128 157.325 257.485 157.84 259.246 157.652C265.151 157.022 268.621 152.754 269.367 151.561C270.534 154.651 271.54 155.952 273.415 157.151C274.45 157.813 275.875 158.377 278.182 157.553C278.182 157.553 277.897 153.49 281.953 154.382C286.009 155.274 288.173 164.671 280.585 166.837Z" fill="url(#paint13_linear_101_1137)"/>
<path d="M269.028 178.082C260.762 178.082 256.693 167.113 253.513 156.65C253.471 156.511 253.519 156.361 253.634 156.272C253.749 156.183 253.906 156.174 254.03 156.249C255.294 157.016 257.569 157.479 259.208 157.304C265.722 156.609 269.037 151.428 269.069 151.376C269.14 151.263 269.271 151.201 269.401 151.213C269.534 151.226 269.647 151.313 269.694 151.438C270.794 154.351 271.744 155.667 273.603 156.856C274.486 157.421 275.758 157.971 277.827 157.304C277.837 156.728 277.968 155.384 278.922 154.561C279.66 153.924 280.705 153.749 282.027 154.04C284.191 154.516 285.893 157.149 285.986 160.164C286.089 163.497 284.197 166.076 280.912 167.104C280.75 168.586 279.509 176.167 271.067 177.871C270.361 178.013 269.68 178.082 269.028 178.082ZM254.423 157.23C257.492 167.2 261.441 177.376 269.067 177.376C269.664 177.376 270.284 177.314 270.929 177.184C279.706 175.413 280.216 167.17 280.234 166.82C280.242 166.67 280.343 166.541 280.488 166.5C284.955 165.225 285.331 161.659 285.286 160.185C285.204 157.526 283.706 155.127 281.877 154.724C280.781 154.484 279.941 154.606 279.38 155.091C278.429 155.911 278.53 157.512 278.531 157.528C278.542 157.685 278.447 157.83 278.299 157.882C275.803 158.775 274.276 158.118 273.225 157.446C271.358 156.252 270.347 154.957 269.28 152.304C267.786 154.306 264.268 157.468 259.282 158C257.801 158.159 255.833 157.831 254.423 157.23Z" fill="black"/>
<path d="M280.546 161.603C280.508 161.603 280.47 161.597 280.432 161.584C280.249 161.522 280.152 161.323 280.214 161.14C280.421 160.536 280.655 159.852 281.069 159.277C281.558 158.596 282.239 158.178 282.936 158.13C283.12 158.115 283.297 158.262 283.31 158.455C283.323 158.648 283.178 158.815 282.984 158.829C282.503 158.862 282 159.182 281.638 159.685C281.285 160.177 281.077 160.782 280.878 161.367C280.828 161.512 280.692 161.603 280.546 161.603Z" fill="black"/>
<path d="M41.5506 0.682373H1.0625V163.579H41.5506V0.682373Z" fill="#2B2B2B"/>
<path d="M21.3074 26.3151C21.2177 26.3151 21.1282 26.2808 21.0597 26.2125C20.9228 26.0758 20.9228 25.8542 21.0597 25.7173L30.9729 15.8101C31.1096 15.6733 31.3313 15.6733 31.4683 15.8101C31.6051 15.9468 31.6051 16.1686 31.4683 16.3054L21.5552 26.2125C21.4866 26.2808 21.3969 26.3151 21.3074 26.3151Z" fill="url(#paint14_linear_101_1137)"/>
<path d="M16.0437 41.7862C15.954 41.7862 15.8645 41.752 15.796 41.6835C15.6592 41.5468 15.6592 41.3252 15.796 41.1884L36.2333 20.7637C36.3702 20.6269 36.5919 20.6269 36.7288 20.7637C36.8656 20.9005 36.8656 21.1222 36.7288 21.259L16.2916 41.6835C16.2231 41.752 16.1334 41.7862 16.0437 41.7862Z" fill="url(#paint15_linear_101_1137)"/>
<path d="M9.75268 154.787C9.663 154.787 9.57347 154.752 9.50497 154.684C9.36813 154.547 9.36813 154.325 9.50497 154.189L19.4185 144.282C19.5554 144.145 19.7771 144.145 19.9139 144.282C20.0508 144.418 20.0508 144.64 19.9139 144.777L10.0005 154.684C9.93205 154.752 9.84237 154.787 9.75268 154.787Z" fill="url(#paint16_linear_101_1137)"/>
<path d="M12.5692 141.221C12.4796 141.221 12.3899 141.187 12.3214 141.118C12.1845 140.981 12.1845 140.76 12.3214 140.623L34.6671 118.291C34.804 118.154 35.0257 118.154 35.1625 118.291C35.2994 118.428 35.2994 118.649 35.1625 118.786L12.8168 141.118C12.7485 141.187 12.6589 141.221 12.5692 141.221Z" fill="url(#paint17_linear_101_1137)"/>
<path d="M437.293 0.682251H396.805V163.579H437.293V0.682251Z" fill="#2A2A2A"/>
<path d="M402.175 21.856C402.085 21.856 401.995 21.8218 401.927 21.7535C401.79 21.6167 401.79 21.395 401.927 21.2582L413.557 9.63455C413.694 9.49796 413.916 9.49796 414.053 9.63455C414.19 9.7713 414.19 9.99307 414.053 10.1298L402.422 21.7535C402.354 21.8218 402.264 21.856 402.175 21.856Z" fill="url(#paint18_linear_101_1137)"/>
<path d="M403.723 30.3835C403.634 30.3835 403.544 30.3493 403.476 30.2808C403.339 30.1441 403.339 29.9225 403.476 29.7857L423.639 9.63467C423.776 9.49808 423.998 9.49808 424.134 9.63467C424.271 9.77142 424.271 9.99319 424.134 10.1299L403.971 30.2808C403.903 30.3493 403.813 30.3835 403.723 30.3835Z" fill="url(#paint19_linear_101_1137)"/>
<path d="M412.233 156.626C412.143 156.626 412.054 156.592 411.985 156.524C411.849 156.387 411.849 156.165 411.985 156.029L432.149 135.877C432.285 135.741 432.507 135.741 432.644 135.877C432.781 136.014 432.781 136.236 432.644 136.373L412.481 156.524C412.412 156.592 412.323 156.626 412.233 156.626Z" fill="url(#paint20_linear_101_1137)"/>
<path d="M415.755 144.844C415.665 144.844 415.575 144.81 415.507 144.742C415.37 144.605 415.37 144.383 415.507 144.247L425.818 133.942C425.955 133.805 426.177 133.805 426.314 133.942C426.45 134.079 426.45 134.3 426.314 134.437L416.002 144.742C415.934 144.81 415.844 144.844 415.755 144.844Z" fill="url(#paint21_linear_101_1137)"/>
<path d="M352.843 99.7467C353.41 96.4596 358.858 94.0232 361.724 92.3019C368.123 88.4577 373.085 85.0096 380.543 85.4702C389.089 85.9982 396.363 92.491 400.14 100.154C402.639 105.224 403.906 111.021 402.949 116.59C402.807 117.419 402.605 118.24 402.358 119.048C403.685 119.195 405.002 119.44 406.28 119.751C408.659 120.328 411.017 121.092 413.278 122.03C415.684 123.029 418.045 124.333 419.862 126.227C421.364 127.793 422.403 129.706 422.892 131.816C423.348 133.785 423.34 135.84 423.016 137.829C422.308 142.182 420.203 146.369 417.323 149.697C415.769 151.494 413.907 153.049 411.757 154.086C409.699 155.078 407.42 155.517 405.139 155.444C400.349 155.29 395.929 152.972 392.574 149.647C390.713 147.801 389.143 145.675 387.845 143.402C386.695 141.389 385.756 139.236 385.206 136.98C384.792 135.28 384.626 133.5 384.747 131.75C381.955 131.59 379.171 130.844 376.667 129.606C371.521 127.062 368.617 123.017 365.107 118.735C361.926 114.855 361.475 114.228 357.076 111.334C354.831 109.857 351.997 104.65 352.843 99.7467Z" fill="black"/>
<path d="M329.799 291.325L343.593 231.73L404.22 244.028C414.089 257.04 419.684 276.936 422.775 291.325H329.799Z" fill="#AA43CE"/>
<path d="M422.81 291.668C422.649 291.668 422.503 291.556 422.468 291.391C417.958 270.417 411.752 254.59 404.022 244.345L343.858 232.141L330.069 291.386C330.025 291.575 329.836 291.691 329.648 291.648C329.459 291.604 329.343 291.416 329.386 291.228L343.252 231.651C343.295 231.466 343.477 231.349 343.663 231.387L404.291 243.685C404.374 243.702 404.449 243.749 404.5 243.817C412.329 254.14 418.605 270.097 423.153 291.244C423.193 291.433 423.073 291.619 422.884 291.66C422.859 291.665 422.834 291.668 422.81 291.668Z" fill="black"/>
<path d="M383.701 122.277L398.654 152.468C398.654 152.468 382.637 216.947 369.725 216.117C356.812 215.287 358.098 157.291 367.72 152.766L374.617 151.713L368.988 128.164L383.701 122.277Z" fill="url(#paint22_linear_101_1137)"/>
<path d="M372.062 152.531C371.896 152.531 371.749 152.413 371.718 152.244C371.683 152.054 371.809 151.871 371.999 151.837L374.189 151.435L368.646 128.246C368.602 128.057 368.718 127.869 368.906 127.823C369.095 127.779 369.283 127.895 369.328 128.083L374.957 151.631C374.979 151.725 374.962 151.823 374.909 151.904C374.857 151.985 374.774 152.04 374.679 152.057L372.126 152.525C372.104 152.53 372.083 152.531 372.062 152.531Z" fill="black"/>
<path d="M356.813 112.602C356.162 116.138 356.145 119.861 357.343 123.252C358.541 126.643 361.064 129.664 364.432 130.948C367.352 132.062 370.694 131.794 373.578 130.593C376.463 129.392 378.918 127.316 380.923 124.924C384.003 126.015 387.756 124.743 389.529 122.005C390.553 120.425 390.913 118.325 390.077 116.639C389.242 114.953 387.042 113.945 385.337 114.749C384.365 115.207 383.674 116.141 382.683 116.558C381.58 117.023 380.263 116.748 379.268 116.082C378.274 115.415 377.559 114.407 376.989 113.356C375.195 110.046 374.66 106.077 375.515 102.412C375.434 102.759 373.589 103.281 373.26 103.392C372.433 103.671 371.581 103.876 370.718 104.01C369.016 104.274 367.27 104.256 365.572 103.962C364.712 103.813 363.863 103.593 363.039 103.302C362.385 103.07 361.537 102.454 360.84 102.446C359.384 102.43 358.95 105.078 358.598 106.102C357.868 108.228 357.22 110.389 356.813 112.602Z" fill="url(#paint23_linear_101_1137)"/>
<path d="M368.403 132.001C366.971 132.001 365.58 131.761 364.308 131.276C361.051 130.034 358.324 127.078 357.013 123.369C355.906 120.235 355.723 116.592 356.469 112.539C356.824 110.607 357.396 108.525 358.267 105.988C358.327 105.814 358.389 105.593 358.458 105.347C358.821 104.051 359.368 102.095 360.826 102.095C360.832 102.095 360.838 102.095 360.844 102.095C361.379 102.101 361.926 102.379 362.455 102.647C362.709 102.776 362.949 102.898 363.157 102.971C363.952 103.253 364.785 103.47 365.633 103.617C367.305 103.906 368.998 103.922 370.665 103.664C371.514 103.532 372.35 103.329 373.148 103.059C373.196 103.043 373.275 103.019 373.375 102.988C374.671 102.584 375.084 102.378 375.194 102.274C375.26 102.121 375.427 102.032 375.595 102.071C375.784 102.115 375.901 102.303 375.857 102.492C375.857 102.492 375.857 102.492 375.857 102.493C375.024 106.064 375.549 109.963 377.298 113.189C377.966 114.421 378.654 115.248 379.464 115.79C380.45 116.451 381.633 116.621 382.548 116.235C383.015 116.038 383.417 115.708 383.843 115.358C384.255 115.02 384.681 114.67 385.188 114.432C386.997 113.579 389.428 114.539 390.392 116.483C391.23 118.173 391.012 120.362 389.824 122.195C388.02 124.979 384.204 126.325 381.038 125.331C378.811 127.94 376.348 129.819 373.714 130.916C371.981 131.638 370.161 132.001 368.403 132.001ZM357.158 112.665C356.435 116.596 356.608 120.119 357.674 123.135C358.917 126.653 361.49 129.452 364.557 130.621C367.226 131.639 370.464 131.51 373.444 130.27C376.035 129.19 378.461 127.316 380.655 124.699C380.749 124.586 380.903 124.545 381.041 124.594C383.957 125.627 387.557 124.406 389.236 121.815C390.274 120.212 390.482 118.242 389.764 116.794C388.977 115.206 386.937 114.382 385.487 115.065C385.059 115.267 384.684 115.574 384.288 115.9C383.842 116.265 383.381 116.644 382.82 116.88C381.688 117.357 380.254 117.162 379.074 116.372C378.166 115.764 377.406 114.859 376.682 113.522C374.986 110.396 374.39 106.665 375.005 103.162C374.665 103.305 374.203 103.463 373.584 103.656C373.49 103.685 373.417 103.708 373.372 103.723C372.536 104.005 371.661 104.218 370.772 104.356C369.03 104.626 367.261 104.609 365.513 104.307C364.627 104.153 363.755 103.926 362.923 103.631C362.673 103.543 362.413 103.411 362.137 103.271C361.681 103.039 361.208 102.8 360.837 102.796C360.834 102.796 360.831 102.796 360.828 102.796C359.899 102.796 359.438 104.444 359.132 105.535C359.059 105.797 358.993 106.031 358.93 106.215C358.07 108.719 357.507 110.769 357.158 112.665Z" fill="black"/>
<path d="M381.956 122.045C381.906 122.045 381.855 122.034 381.807 122.011C381.632 121.929 381.557 121.72 381.639 121.545C382.431 119.864 384.288 118.756 386.144 118.847C386.337 118.856 386.486 119.021 386.476 119.214C386.466 119.407 386.3 119.553 386.109 119.546C384.518 119.467 382.947 120.412 382.273 121.843C382.213 121.97 382.087 122.045 381.956 122.045Z" fill="black"/>
<path d="M404.094 157.15H358.068V212.244H404.094V157.15Z" fill="url(#paint24_linear_101_1137)"/>
<path d="M413.101 250.854C419.417 247.57 423.411 241.133 426.435 234.702C433.544 219.588 436.993 202.837 436.94 186.143C436.914 177.865 436.675 165.423 431.821 158.706C426.569 151.437 399.338 149.671 397.232 150.835C393.118 153.109 365.191 225.491 363.579 224.475C362.501 223.795 374.079 154.384 374.079 151.313C367.066 151.412 354.288 152.424 349.274 155.379C343.89 158.553 332.749 186.323 329.665 204.108C328.839 208.869 328.725 228.89 332.751 232.601C334.053 233.802 335.292 234.876 336.372 235.78C338.427 237.5 341.115 238.219 343.773 237.854C358.395 235.847 393.764 247.28 396.756 249.699C401.262 253.342 408.064 253.472 413.101 250.854Z" fill="#E0E8FD"/>
<path d="M360.35 202.855C360.188 202.855 360.043 202.742 360.008 202.577L355.382 180.742C355.352 180.598 355.416 180.45 355.542 180.372L365.249 174.394L358.5 169.347C358.359 169.242 358.318 169.05 358.403 168.897L367.413 152.597C367.506 152.428 367.719 152.366 367.889 152.46C368.058 152.553 368.12 152.766 368.026 152.936L359.164 168.969L366.081 174.141C366.174 174.211 366.227 174.322 366.222 174.437C366.216 174.553 366.154 174.659 366.055 174.72L356.119 180.839L360.694 202.432C360.734 202.621 360.613 202.807 360.423 202.847C360.399 202.852 360.374 202.855 360.35 202.855Z" fill="black"/>
<path d="M383.071 204.972C383.008 204.972 382.945 204.955 382.888 204.92C382.723 204.819 382.671 204.603 382.772 204.439L394.234 185.766L387.021 177.629C386.939 177.538 386.912 177.411 386.948 177.294C386.984 177.177 387.079 177.087 387.198 177.058L399.988 173.851V154.636C399.988 154.442 400.145 154.286 400.338 154.286C400.532 154.286 400.689 154.442 400.689 154.636V174.124C400.689 174.285 400.579 174.425 400.423 174.464L387.928 177.597L394.931 185.496C395.033 185.612 395.048 185.78 394.967 185.911L383.37 204.805C383.304 204.912 383.189 204.972 383.071 204.972Z" fill="black"/>
<path d="M399.665 215.612C399.63 215.612 399.594 215.607 399.558 215.595C399.374 215.536 399.272 215.339 399.331 215.155C401.69 207.774 406.27 189.445 407.8 178.637C407.827 178.446 408.002 178.313 408.196 178.34C408.387 178.367 408.521 178.544 408.493 178.735C406.959 189.578 402.364 207.965 399.998 215.368C399.951 215.517 399.813 215.612 399.665 215.612Z" fill="black"/>
<path d="M345.327 200.766C345.182 200.766 345.046 200.676 344.996 200.532C342.133 192.359 344.365 186.974 348.896 180.934C349.012 180.779 349.231 180.748 349.386 180.864C349.541 180.98 349.572 181.199 349.456 181.354C345.064 187.21 342.897 192.422 345.657 200.301C345.721 200.483 345.625 200.683 345.442 200.747C345.404 200.76 345.365 200.766 345.327 200.766Z" fill="black"/>
<path d="M396.292 244.52C396.047 245.318 395.696 246.222 394.901 246.483C394.272 246.689 393.51 246.547 392.997 246.13C381.994 237.178 373.219 231.412 360.186 225.821C358.531 225.11 361.147 232.324 351.721 225.883C350.234 224.867 351.477 221.834 353.254 221.537C351.783 221.331 350.529 220.064 350.341 218.594C350.154 217.125 351.05 215.585 352.422 215.017C350.998 215.283 349.673 213.867 349.604 212.424C349.535 210.982 350.391 209.644 351.424 208.632C347.482 210.54 341.957 216.101 338.832 212.352C337.995 208.555 340.659 206.533 343.614 203.996C346.57 201.459 350.422 200.201 354.254 199.483C362.776 197.884 371.652 198.679 379.98 201.085C387.309 203.203 394.287 206.53 400.76 210.539C402.35 211.525 402.882 211.737 402.905 213.567C402.931 215.529 402.356 217.687 402.049 219.624C401.41 223.653 400.636 227.661 399.729 231.639C398.74 235.972 397.594 240.27 396.292 244.52Z" fill="url(#paint25_linear_101_1137)"/>
<path d="M359.951 226.024C359.915 226.024 359.88 226.019 359.844 226.008L356.076 224.809C355.892 224.75 355.79 224.553 355.849 224.369C355.907 224.185 356.104 224.083 356.289 224.141L360.057 225.34C360.241 225.399 360.343 225.596 360.285 225.78C360.237 225.929 360.099 226.024 359.951 226.024Z" fill="black"/>
<path d="M375.065 199.996C375.03 199.996 374.994 199.991 374.959 199.98C373.653 199.564 369.468 198.797 366.94 198.797C366.747 198.797 366.59 198.64 366.59 198.447C366.59 198.253 366.747 198.097 366.94 198.097C369.532 198.097 373.83 198.885 375.172 199.312C375.356 199.371 375.458 199.568 375.399 199.752C375.352 199.901 375.214 199.996 375.065 199.996Z" fill="black"/>
<path d="M416.394 220.34C416.316 220.34 416.238 220.314 416.172 220.261C412.436 217.202 408.321 214.611 403.944 212.561C403.768 212.479 403.693 212.27 403.775 212.095C403.858 211.92 404.065 211.844 404.241 211.926C408.671 214.001 412.834 216.623 416.617 219.719C416.766 219.841 416.788 220.062 416.665 220.212C416.597 220.296 416.496 220.34 416.394 220.34Z" fill="black"/>
<path d="M348.28 229.374C348.22 231.853 347.509 234.509 345.548 236.033C343.024 237.993 339.407 237.437 336.332 236.555C321.741 232.372 308.582 224.304 301.017 211.179C300.704 210.637 297.928 204.001 299.065 202.504C300.135 201.095 302.79 203.771 304.525 204.134C312.038 205.707 319.453 207.751 326.71 210.247C330.441 211.53 334.13 212.932 337.77 214.452C340.553 215.614 342.921 215.928 344.78 218.443C347.094 221.573 348.374 225.482 348.28 229.374Z" fill="url(#paint26_linear_101_1137)"/>
<path d="M336.334 236.906C336.302 236.906 336.269 236.901 336.237 236.892C319.933 232.217 307.65 223.386 300.714 211.353C300.677 211.288 297.407 204.109 298.787 202.293C298.904 202.139 299.123 202.108 299.278 202.225C299.432 202.342 299.462 202.562 299.345 202.716C298.397 203.964 300.877 210.233 301.321 211.004C308.164 222.876 320.305 231.595 336.43 236.219C336.616 236.272 336.724 236.466 336.67 236.652C336.626 236.806 336.486 236.906 336.334 236.906Z" fill="black"/>
<path d="M291.289 189.812H318.113C318.685 189.812 319.225 190.074 319.579 190.522L341.203 217.955C342.164 219.174 341.292 220.961 339.737 220.961H313.841C313.283 220.961 312.754 220.712 312.4 220.281L289.848 192.848C288.85 191.635 289.716 189.812 291.289 189.812Z" fill="black"/>
<path d="M302.693 193.342C303.016 193.047 303.475 192.758 303.861 192.965C304.196 193.145 304.258 193.59 304.279 193.969C304.493 197.683 304.707 201.398 304.92 205.112C304.875 201.79 305.741 198.354 307.898 195.823C308.43 195.199 309.368 194.612 309.996 195.138C310.374 195.455 310.403 196.017 310.381 196.509C310.196 200.679 308.523 204.988 309.993 208.896C310.255 206.412 310.848 203.962 311.75 201.632C312.119 200.678 312.578 199.696 313.414 199.103C314.25 198.509 315.567 198.474 316.192 199.285C316.857 200.147 316.446 201.375 316.081 202.399C315.022 205.366 314.574 208.549 314.77 211.692C315.176 209.236 315.682 206.588 317.52 204.902C318.058 204.408 318.723 204.011 319.452 203.951C320.181 203.892 320.972 204.234 321.287 204.892C321.634 205.616 321.347 206.466 321.115 207.234C320.22 210.196 320.24 213.415 321.109 216.38C321.761 218.603 324.556 221.597 321.6 223.332C320.585 223.928 319.333 223.974 318.168 223.808C314.876 223.337 312.013 221.355 309.44 219.254C306.812 217.108 304.317 214.753 302.4 211.958C300.483 209.163 299.163 205.889 299.066 202.504C298.969 199.119 300.19 195.63 302.693 193.342Z" fill="url(#paint27_linear_101_1137)"/>
<path d="M373.74 147.949L380.896 153.939L396.36 145.783L402.585 153.939L385.615 168.517L380.897 160.867L373.74 166.574L371.01 155.962L373.74 147.949Z" fill="url(#paint28_linear_101_1137)"/>
<path d="M385.615 168.867C385.597 168.867 385.579 168.866 385.561 168.863C385.46 168.847 385.371 168.788 385.317 168.701L380.806 161.388L373.96 166.847C373.867 166.922 373.742 166.944 373.63 166.906C373.517 166.868 373.431 166.776 373.401 166.661L372.332 162.503C372.283 162.316 372.396 162.125 372.584 162.077C372.769 162.029 372.962 162.141 373.01 162.329L373.946 165.963L380.679 160.593C380.757 160.531 380.857 160.505 380.957 160.522C381.056 160.539 381.143 160.598 381.195 160.683L385.698 167.984L389.566 164.662C389.713 164.536 389.933 164.553 390.06 164.699C390.186 164.846 390.169 165.067 390.023 165.193L385.844 168.783C385.78 168.838 385.698 168.867 385.615 168.867Z" fill="black"/>
<path d="M380.897 154.289C380.816 154.289 380.736 154.261 380.671 154.207L373.907 148.545L372.914 151.459C372.852 151.642 372.653 151.74 372.47 151.678C372.287 151.615 372.189 151.416 372.251 151.233L373.409 147.836C373.446 147.726 373.535 147.642 373.646 147.611C373.758 147.58 373.877 147.606 373.966 147.68L380.941 153.519L396.197 145.474C396.349 145.394 396.536 145.435 396.639 145.571L400.244 150.294C400.361 150.447 400.332 150.667 400.178 150.785C400.024 150.902 399.804 150.872 399.687 150.719L396.262 146.231L381.06 154.248C381.008 154.275 380.952 154.289 380.897 154.289Z" fill="black"/>
<defs>
<linearGradient id="paint0_linear_101_1137" x1="171.029" y1="150.657" x2="192.616" y2="154.813" gradientUnits="userSpaceOnUse">
<stop stop-color="#8B8B8B"/>
<stop offset="1" stop-color="#434343"/>
</linearGradient>
<linearGradient id="paint1_linear_101_1137" x1="170.561" y1="135.448" x2="200.036" y2="143.632" gradientUnits="userSpaceOnUse">
<stop stop-color="#8B8B8B"/>
<stop offset="1" stop-color="#434343"/>
</linearGradient>
<linearGradient id="paint2_linear_101_1137" x1="52.5254" y1="251.763" x2="88.7231" y2="312.291" gradientUnits="userSpaceOnUse">
<stop stop-color="#8B8B8B"/>
<stop offset="1" stop-color="#434343"/>
</linearGradient>
<linearGradient id="paint3_linear_101_1137" x1="24.623" y1="247.107" x2="84.8015" y2="277.291" gradientUnits="userSpaceOnUse">
<stop stop-color="#8B8B8B"/>
<stop offset="1" stop-color="#434343"/>
</linearGradient>
<linearGradient id="paint4_linear_101_1137" x1="144.725" y1="185.465" x2="159.333" y2="204.372" gradientUnits="userSpaceOnUse">
<stop stop-color="#8B8B8B"/>
<stop offset="1" stop-color="#434343"/>
</linearGradient>
<linearGradient id="paint5_linear_101_1137" x1="127.215" y1="176.615" x2="178.579" y2="201.059" gradientUnits="userSpaceOnUse">
<stop stop-color="#8B8B8B"/>
<stop offset="1" stop-color="#434343"/>
</linearGradient>
<linearGradient id="paint6_linear_101_1137" x1="64.5586" y1="231.643" x2="104.522" y2="245.417" gradientUnits="userSpaceOnUse">
<stop stop-color="#8B8B8B"/>
<stop offset="1" stop-color="#434343"/>
</linearGradient>
<linearGradient id="paint7_linear_101_1137" x1="64.2656" y1="161.434" x2="97.9315" y2="170.045" gradientUnits="userSpaceOnUse">
<stop stop-color="#8B8B8B"/>
<stop offset="1" stop-color="#434343"/>
</linearGradient>
<linearGradient id="paint8_linear_101_1137" x1="67.8926" y1="144.441" x2="105.23" y2="156.086" gradientUnits="userSpaceOnUse">
<stop stop-color="#8B8B8B"/>
<stop offset="1" stop-color="#434343"/>
</linearGradient>
<linearGradient id="paint9_linear_101_1137" x1="148.701" y1="179.72" x2="214.989" y2="201.429" gradientUnits="userSpaceOnUse">
<stop stop-color="#8B8B8B"/>
<stop offset="1" stop-color="#434343"/>
</linearGradient>
<linearGradient id="paint10_linear_101_1137" x1="256.98" y1="245.958" x2="301.166" y2="259.953" gradientUnits="userSpaceOnUse">
<stop stop-color="#8B8B8B"/>
<stop offset="1" stop-color="#434343"/>
</linearGradient>
<linearGradient id="paint11_linear_101_1137" x1="193.969" y1="272.65" x2="194.127" y2="275.994" gradientUnits="userSpaceOnUse">
<stop stop-color="#8B8B8B"/>
<stop offset="1" stop-color="#434343"/>
</linearGradient>
<linearGradient id="paint12_linear_101_1137" x1="264.832" y1="160.948" x2="306.781" y2="165.957" gradientUnits="userSpaceOnUse">
<stop stop-color="#8B8B8B"/>
<stop offset="1" stop-color="#434343"/>
</linearGradient>
<linearGradient id="paint13_linear_101_1137" x1="253.85" y1="151.561" x2="290.287" y2="163.25" gradientUnits="userSpaceOnUse">
<stop stop-color="#8B8B8B"/>
<stop offset="1" stop-color="#434343"/>
</linearGradient>
<linearGradient id="paint14_linear_101_1137" x1="20.957" y1="15.7075" x2="33.4982" y2="19.0214" gradientUnits="userSpaceOnUse">
<stop stop-color="#8B8B8B"/>
<stop offset="1" stop-color="#434343"/>
</linearGradient>
<linearGradient id="paint15_linear_101_1137" x1="15.6934" y1="20.6611" x2="40.6696" y2="27.2609" gradientUnits="userSpaceOnUse">
<stop stop-color="#8B8B8B"/>
<stop offset="1" stop-color="#434343"/>
</linearGradient>
<linearGradient id="paint16_linear_101_1137" x1="9.40234" y1="144.179" x2="21.9438" y2="147.493" gradientUnits="userSpaceOnUse">
<stop stop-color="#8B8B8B"/>
<stop offset="1" stop-color="#434343"/>
</linearGradient>
<linearGradient id="paint17_linear_101_1137" x1="12.2188" y1="118.188" x2="39.4499" y2="125.384" gradientUnits="userSpaceOnUse">
<stop stop-color="#8B8B8B"/>
<stop offset="1" stop-color="#434343"/>
</linearGradient>
<linearGradient id="paint18_linear_101_1137" x1="401.824" y1="9.5321" x2="416.395" y2="13.3821" gradientUnits="userSpaceOnUse">
<stop stop-color="#8B8B8B"/>
<stop offset="1" stop-color="#434343"/>
</linearGradient>
<linearGradient id="paint19_linear_101_1137" x1="403.373" y1="9.53223" x2="428.025" y2="16.0463" gradientUnits="userSpaceOnUse">
<stop stop-color="#8B8B8B"/>
<stop offset="1" stop-color="#434343"/>
</linearGradient>
<linearGradient id="paint20_linear_101_1137" x1="411.883" y1="135.775" x2="436.535" y2="142.289" gradientUnits="userSpaceOnUse">
<stop stop-color="#8B8B8B"/>
<stop offset="1" stop-color="#434343"/>
</linearGradient>
<linearGradient id="paint21_linear_101_1137" x1="415.404" y1="133.839" x2="428.416" y2="137.277" gradientUnits="userSpaceOnUse">
<stop stop-color="#8B8B8B"/>
<stop offset="1" stop-color="#434343"/>
</linearGradient>
<linearGradient id="paint22_linear_101_1137" x1="360.27" y1="122.277" x2="408.231" y2="127.457" gradientUnits="userSpaceOnUse">
<stop stop-color="#8B8B8B"/>
<stop offset="1" stop-color="#434343"/>
</linearGradient>
<linearGradient id="paint23_linear_101_1137" x1="356.371" y1="102.412" x2="395.81" y2="114.583" gradientUnits="userSpaceOnUse">
<stop stop-color="#8B8B8B"/>
<stop offset="1" stop-color="#434343"/>
</linearGradient>
<linearGradient id="paint24_linear_101_1137" x1="358.068" y1="157.15" x2="413.548" y2="169.39" gradientUnits="userSpaceOnUse">
<stop stop-color="#8B8B8B"/>
<stop offset="1" stop-color="#434343"/>
</linearGradient>
<linearGradient id="paint25_linear_101_1137" x1="338.676" y1="198.65" x2="410.83" y2="224.187" gradientUnits="userSpaceOnUse">
<stop stop-color="#8B8B8B"/>
<stop offset="1" stop-color="#434343"/>
</linearGradient>
<linearGradient id="paint26_linear_101_1137" x1="298.793" y1="202.098" x2="353.798" y2="222.485" gradientUnits="userSpaceOnUse">
<stop stop-color="#8B8B8B"/>
<stop offset="1" stop-color="#434343"/>
</linearGradient>
<linearGradient id="paint27_linear_101_1137" x1="299.061" y1="192.895" x2="328.037" y2="198.788" gradientUnits="userSpaceOnUse">
<stop stop-color="#8B8B8B"/>
<stop offset="1" stop-color="#434343"/>
</linearGradient>
<linearGradient id="paint28_linear_101_1137" x1="371.01" y1="145.783" x2="406.191" y2="158.687" gradientUnits="userSpaceOnUse">
<stop stop-color="#8B8B8B"/>
<stop offset="1" stop-color="#434343"/>
</linearGradient>
</defs>
</svg>
