<svg width="438" height="292" viewBox="0 0 438 292" fill="none" xmlns="http://www.w3.org/2000/svg">
<path d="M59.3252 163.579V6.00972C59.3252 3.06738 61.7104 0.682251 64.6524 0.682251H373.349C376.291 0.682251 378.676 3.06738 378.676 6.00972V158.035C378.676 161.096 376.194 163.579 373.132 163.579H59.3252Z" fill="#2A2A2A"/>
<path d="M373.132 163.929H59.3251C59.1314 163.929 58.9746 163.772 58.9746 163.579V6.00958C58.9746 2.87891 61.5218 0.332031 64.6524 0.332031H373.349C376.479 0.332031 379.026 2.87907 379.026 6.00958V158.035C379.026 161.285 376.382 163.929 373.132 163.929ZM59.6754 163.229H373.132C375.996 163.229 378.325 160.899 378.325 158.035V6.00958C378.325 3.26513 376.093 1.03235 373.348 1.03235H64.6524C61.9081 1.03235 59.6754 3.26497 59.6754 6.00958V163.229Z" fill="black"/>
<path d="M153.476 67.9264H77.3251C77.1314 67.9264 76.9746 67.7698 76.9746 67.5763V20.1647C76.9746 19.9712 77.1314 19.8146 77.3251 19.8146C77.5188 19.8146 77.6754 19.9712 77.6754 20.1647V67.2261H153.476C153.67 67.2261 153.827 67.3829 153.827 67.5763C153.827 67.7698 153.67 67.9264 153.476 67.9264Z" fill="black"/>
<path d="M87.2281 32.9774H80.4912V64.8365H87.2281V32.9774Z" fill="#010302"/>
<path d="M97.8325 47.7189H91.0957V64.8365H97.8325V47.7189Z" fill="#010302"/>
<path d="M108.437 41.0576H101.7V64.8365H108.437V41.0576Z" fill="#010302"/>
<path d="M119.041 30.6379H112.304V64.8365H119.041V30.6379Z" fill="#010302"/>
<path d="M129.475 25.2562H123.078V64.8365H129.475V25.2562Z" fill="#010302"/>
<path d="M140.25 23.0608H133.513V64.8365H140.25V23.0608Z" fill="#010302"/>
<path d="M150.854 28.4856H144.117V64.8365H150.854V28.4856Z" fill="#010302"/>
<path d="M87.2281 54.6719H80.4912V64.8739H87.2281V54.6719Z" fill="black"/>
<path d="M97.8325 59.3925H91.0957V64.8739H97.8325V59.3925Z" fill="black"/>
<path d="M108.437 57.2593H101.7V64.8738H108.437V57.2593Z" fill="black"/>
<path d="M119.042 53.9226H112.305V64.8738H119.042V53.9226Z" fill="black"/>
<path d="M129.475 51.6316H123.078V64.8738H129.475V51.6316Z" fill="black"/>
<path d="M140.25 50.9286H133.513V64.8739H140.25V50.9286Z" fill="black"/>
<path d="M150.854 52.6658H144.117V64.8739H150.854V52.6658Z" fill="black"/>
<path d="M275.95 21.9871H171.031V63.7311H275.95V21.9871Z" fill="#010302"/>
<path d="M194.406 27.037C185.537 27.037 178.347 34.2273 178.347 43.0968C178.347 51.9663 185.536 59.1564 194.406 59.1564C203.275 59.1564 210.465 51.9663 210.465 43.0968C210.465 34.2273 203.275 27.037 194.406 27.037ZM194.406 53.7996C188.495 53.7996 183.703 49.0079 183.703 43.0968C183.703 37.1857 188.495 32.3939 194.406 32.3939C200.316 32.3939 205.108 37.1858 205.108 43.0968C205.108 49.0077 200.316 53.7996 194.406 53.7996Z" fill="#2A2A2A"/>
<path d="M183.712 43.4537H178.355C178.545 52.0981 185.56 59.0571 194.227 59.1518V53.795C188.518 53.7014 183.899 49.1397 183.712 43.4537Z" fill="black"/>
<path d="M232.775 52.3068H221.911C221.717 52.3068 221.561 52.15 221.561 51.9565C221.561 51.7631 221.717 51.6064 221.911 51.6064H232.775C232.969 51.6064 233.125 51.7631 233.125 51.9565C233.125 52.15 232.969 52.3068 232.775 52.3068Z" fill="black"/>
<path d="M255.33 52.3068H239.082C238.888 52.3068 238.731 52.15 238.731 51.9565C238.731 51.7631 238.888 51.6064 239.082 51.6064H255.33C255.524 51.6064 255.681 51.7631 255.681 51.9565C255.681 52.15 255.524 52.3068 255.33 52.3068Z" fill="black"/>
<path d="M251.265 43.4398H221.911C221.717 43.4398 221.561 43.283 221.561 43.0897C221.561 42.8963 221.717 42.7395 221.911 42.7395H251.265C251.459 42.7395 251.615 42.8963 251.615 43.0897C251.615 43.283 251.459 43.4398 251.265 43.4398Z" fill="black"/>
<path d="M247.543 34.5731H221.911C221.717 34.5731 221.561 34.4163 221.561 34.2229C221.561 34.0295 221.717 33.8728 221.911 33.8728H247.543C247.737 33.8728 247.893 34.0295 247.893 34.2229C247.893 34.4163 247.737 34.5731 247.543 34.5731Z" fill="black"/>
<path d="M264.771 34.5731H253.542C253.348 34.5731 253.191 34.4163 253.191 34.2229C253.191 34.0295 253.348 33.8728 253.542 33.8728H264.771C264.965 33.8728 265.121 34.0295 265.121 34.2229C265.121 34.4163 264.965 34.5731 264.771 34.5731Z" fill="black"/>
<path d="M96.2201 104.492H76.7782C76.5845 104.492 76.4277 104.336 76.4277 104.142V84.6994C76.4277 84.5059 76.5843 84.3491 76.7782 84.3491H95.1071C95.3008 84.3491 95.4575 84.5059 95.4575 84.6994C95.4575 84.8926 95.3008 85.0496 95.1071 85.0496H77.1286V103.792H95.8698V89.9229C95.8698 89.7294 96.0266 89.5726 96.2201 89.5726C96.4138 89.5726 96.5706 89.7294 96.5706 89.9229V104.142C96.5706 104.336 96.4138 104.492 96.2201 104.492Z" fill="black"/>
<path d="M86.4991 101.155C86.3858 101.155 86.2799 101.1 86.2141 101.009L78.5966 90.3439C78.484 90.1865 78.5205 89.9679 78.678 89.8555C78.8351 89.7431 79.0548 89.7795 79.1666 89.937L86.4997 100.203L99.4899 82.1012C99.6027 81.944 99.8211 81.9081 99.9788 82.0206C100.136 82.1333 100.172 82.3522 100.059 82.5094L86.7836 101.009C86.7181 101.101 86.612 101.155 86.4991 101.155Z" fill="black"/>
<path d="M149.302 87.8426H135.54C135.346 87.8426 135.189 87.6858 135.189 87.4923C135.189 87.2989 135.346 87.1421 135.54 87.1421H149.302C149.496 87.1421 149.653 87.2989 149.653 87.4923C149.653 87.6858 149.496 87.8426 149.302 87.8426Z" fill="#010302"/>
<path d="M132.888 87.8426H119.643C119.45 87.8426 119.293 87.6858 119.293 87.4923C119.293 87.2989 119.45 87.1421 119.643 87.1421H132.888C133.082 87.1421 133.238 87.2989 133.238 87.4923C133.238 87.6858 133.082 87.8426 132.888 87.8426Z" fill="#010302"/>
<path d="M116.992 87.8426H107.721C107.528 87.8426 107.371 87.6858 107.371 87.4923C107.371 87.2989 107.528 87.1421 107.721 87.1421H116.992C117.186 87.1421 117.342 87.2989 117.342 87.4923C117.342 87.6858 117.186 87.8426 116.992 87.8426Z" fill="#010302"/>
<path d="M146.651 94.5231H141.415C141.221 94.5231 141.064 94.3663 141.064 94.1728C141.064 93.9794 141.221 93.8228 141.415 93.8228H146.651C146.845 93.8228 147.001 93.9794 147.001 94.1728C147.001 94.3663 146.845 94.5231 146.651 94.5231Z" fill="#010302"/>
<path d="M138.763 94.5231H116.073C115.879 94.5231 115.723 94.3663 115.723 94.1728C115.723 93.9794 115.879 93.8228 116.073 93.8228H138.763C138.956 93.8228 139.113 93.9794 139.113 94.1728C139.113 94.3663 138.956 94.5231 138.763 94.5231Z" fill="#010302"/>
<path d="M113.421 94.5231H105.07C104.876 94.5231 104.72 94.3663 104.72 94.1728C104.72 93.9794 104.876 93.8228 105.07 93.8228H113.421C113.615 93.8228 113.771 93.9794 113.771 94.1728C113.771 94.3663 113.615 94.5231 113.421 94.5231Z" fill="#010302"/>
<path d="M149.302 101.204H127.246C127.052 101.204 126.896 101.047 126.896 100.854C126.896 100.66 127.052 100.503 127.246 100.503H149.302C149.496 100.503 149.653 100.66 149.653 100.854C149.653 101.047 149.496 101.204 149.302 101.204Z" fill="#010302"/>
<path d="M124.595 101.204H105.07C104.876 101.204 104.72 101.047 104.72 100.854C104.72 100.66 104.876 100.503 105.07 100.503H124.595C124.788 100.503 124.945 100.66 124.945 100.854C124.945 101.047 124.788 101.204 124.595 101.204Z" fill="#010302"/>
<path d="M96.2201 137.895H76.7782C76.5845 137.895 76.4277 137.738 76.4277 137.545V118.102C76.4277 117.908 76.5843 117.752 76.7782 117.752H95.1071C95.3008 117.752 95.4575 117.908 95.4575 118.102C95.4575 118.295 95.3008 118.452 95.1071 118.452H77.1286V137.194H95.8698V123.325C95.8698 123.132 96.0266 122.975 96.2201 122.975C96.4138 122.975 96.5706 123.132 96.5706 123.325V137.544C96.5706 137.738 96.4138 137.895 96.2201 137.895Z" fill="black"/>
<path d="M86.4991 134.558C86.3858 134.558 86.2799 134.503 86.2141 134.411L78.5966 123.746C78.484 123.589 78.5205 123.37 78.678 123.258C78.8351 123.145 79.0548 123.182 79.1666 123.339L86.4997 133.606L99.4899 115.504C99.6027 115.346 99.8211 115.31 99.9788 115.423C100.136 115.536 100.172 115.755 100.059 115.912L86.7836 134.411C86.7181 134.503 86.612 134.558 86.4991 134.558Z" fill="black"/>
<path d="M149.302 121.245H127.246C127.052 121.245 126.896 121.088 126.896 120.895C126.896 120.702 127.052 120.545 127.246 120.545H149.302C149.496 120.545 149.653 120.702 149.653 120.895C149.653 121.088 149.496 121.245 149.302 121.245Z" fill="#010302"/>
<path d="M124.595 121.245H105.07C104.876 121.245 104.72 121.088 104.72 120.895C104.72 120.702 104.876 120.545 105.07 120.545H124.595C124.788 120.545 124.945 120.702 124.945 120.895C124.945 121.088 124.788 121.245 124.595 121.245Z" fill="#010302"/>
<path d="M149.303 127.926H131.624C131.43 127.926 131.273 127.769 131.273 127.575C131.273 127.382 131.43 127.225 131.624 127.225H149.303C149.496 127.225 149.653 127.382 149.653 127.575C149.653 127.769 149.497 127.926 149.303 127.926Z" fill="#010302"/>
<path d="M128.971 127.926H117.109C116.916 127.926 116.759 127.769 116.759 127.575C116.759 127.382 116.916 127.225 117.109 127.225H128.971C129.165 127.225 129.322 127.382 129.322 127.575C129.322 127.769 129.165 127.926 128.971 127.926Z" fill="#010302"/>
<path d="M114.458 127.926H105.07C104.876 127.926 104.72 127.769 104.72 127.575C104.72 127.382 104.876 127.225 105.07 127.225H114.458C114.652 127.225 114.808 127.382 114.808 127.575C114.808 127.769 114.651 127.926 114.458 127.926Z" fill="#010302"/>
<path d="M133.392 134.606H123.099C122.906 134.606 122.749 134.449 122.749 134.256C122.749 134.062 122.906 133.906 123.099 133.906H133.392C133.586 133.906 133.742 134.062 133.742 134.256C133.742 134.449 133.586 134.606 133.392 134.606Z" fill="#010302"/>
<path d="M120.448 134.606H105.07C104.876 134.606 104.72 134.449 104.72 134.256C104.72 134.062 104.876 133.906 105.07 133.906H120.448C120.641 133.906 120.798 134.062 120.798 134.256C120.798 134.449 120.641 134.606 120.448 134.606Z" fill="#010302"/>
<path d="M300.144 81.7943H248.208V140.817H300.144V81.7943Z" fill="#010302"/>
<path d="M292.912 89.8401H286.094C285.804 89.8401 285.568 89.6049 285.568 89.3149C285.568 89.0248 285.804 88.7897 286.094 88.7897H292.912C293.203 88.7897 293.438 89.025 293.438 89.3149C293.438 89.6049 293.203 89.8401 292.912 89.8401Z" fill="#2A2A2A"/>
<path d="M280.826 89.8401H255.031C254.74 89.8401 254.505 89.6049 254.505 89.3149C254.505 89.0248 254.74 88.7897 255.031 88.7897H280.826C281.116 88.7897 281.352 89.025 281.352 89.3149C281.352 89.6049 281.116 89.8401 280.826 89.8401Z" fill="#2A2A2A"/>
<path d="M292.912 96.1142H269.13C268.84 96.1142 268.604 95.8789 268.604 95.5888C268.604 95.2987 268.84 95.0636 269.13 95.0636H292.912C293.203 95.0636 293.438 95.2989 293.438 95.5888C293.438 95.8789 293.203 96.1142 292.912 96.1142Z" fill="#2A2A2A"/>
<path d="M264.55 96.1142H255.031C254.74 96.1142 254.505 95.8789 254.505 95.5888C254.505 95.2987 254.74 95.0636 255.031 95.0636H264.55C264.84 95.0636 265.076 95.2989 265.076 95.5888C265.076 95.8789 264.84 96.1142 264.55 96.1142Z" fill="#2A2A2A"/>
<path d="M292.913 102.707H277.509C277.219 102.707 276.983 102.471 276.983 102.181C276.983 101.891 277.219 101.656 277.509 101.656H292.913C293.203 101.656 293.438 101.891 293.438 102.181C293.438 102.471 293.203 102.707 292.913 102.707Z" fill="#2A2A2A"/>
<path d="M274.29 102.707H255.031C254.74 102.707 254.505 102.471 254.505 102.181C254.505 101.891 254.74 101.656 255.031 101.656H274.29C274.58 101.656 274.816 101.891 274.816 102.181C274.816 102.471 274.58 102.707 274.29 102.707Z" fill="#2A2A2A"/>
<path d="M292.912 108.981H277.348C277.058 108.981 276.822 108.745 276.822 108.455C276.822 108.165 277.058 107.93 277.348 107.93H292.912C293.202 107.93 293.438 108.165 293.438 108.455C293.438 108.745 293.203 108.981 292.912 108.981Z" fill="#2A2A2A"/>
<path d="M272.768 108.981H255.031C254.74 108.981 254.505 108.745 254.505 108.455C254.505 108.165 254.74 107.93 255.031 107.93H272.768C273.058 107.93 273.294 108.165 273.294 108.455C273.294 108.745 273.058 108.981 272.768 108.981Z" fill="#2A2A2A"/>
<path d="M292.912 115.573H286.094C285.804 115.573 285.568 115.338 285.568 115.048C285.568 114.758 285.804 114.522 286.094 114.522H292.912C293.203 114.522 293.438 114.758 293.438 115.048C293.438 115.338 293.203 115.573 292.912 115.573Z" fill="#2A2A2A"/>
<path d="M280.826 115.573H261.738C261.448 115.573 261.212 115.338 261.212 115.048C261.212 114.758 261.448 114.522 261.738 114.522H280.826C281.116 114.522 281.351 114.758 281.351 115.048C281.351 115.338 281.116 115.573 280.826 115.573Z" fill="#2A2A2A"/>
<path d="M258.841 115.573H255.031C254.74 115.573 254.505 115.338 254.505 115.048C254.505 114.758 254.74 114.522 255.031 114.522H258.841C259.131 114.522 259.367 114.758 259.367 115.048C259.367 115.338 259.131 115.573 258.841 115.573Z" fill="#2A2A2A"/>
<path d="M292.912 121.847H284.268C283.978 121.847 283.742 121.612 283.742 121.322C283.742 121.032 283.978 120.796 284.268 120.796H292.912C293.203 120.796 293.438 121.032 293.438 121.322C293.438 121.612 293.203 121.847 292.912 121.847Z" fill="#2A2A2A"/>
<path d="M279.688 121.847H255.031C254.74 121.847 254.505 121.612 254.505 121.322C254.505 121.032 254.74 120.796 255.031 120.796H279.688C279.978 120.796 280.214 121.032 280.214 121.322C280.213 121.612 279.978 121.847 279.688 121.847Z" fill="#2A2A2A"/>
<path d="M292.912 128.439H287.487C287.197 128.439 286.961 128.204 286.961 127.914C286.961 127.624 287.197 127.389 287.487 127.389H292.912C293.203 127.389 293.438 127.624 293.438 127.914C293.438 128.204 293.203 128.439 292.912 128.439Z" fill="#2A2A2A"/>
<path d="M284.107 128.439H271.876C271.586 128.439 271.351 128.204 271.351 127.914C271.351 127.624 271.586 127.389 271.876 127.389H284.107C284.397 127.389 284.632 127.624 284.632 127.914C284.632 128.204 284.397 128.439 284.107 128.439Z" fill="#2A2A2A"/>
<path d="M268.98 128.439H255.031C254.74 128.439 254.505 128.204 254.505 127.914C254.505 127.624 254.74 127.389 255.031 127.389H268.98C269.27 127.389 269.505 127.624 269.505 127.914C269.505 128.204 269.27 128.439 268.98 128.439Z" fill="#2A2A2A"/>
<path d="M292.913 134.713H288.935C288.645 134.713 288.409 134.478 288.409 134.188C288.409 133.898 288.645 133.663 288.935 133.663H292.913C293.203 133.663 293.438 133.898 293.438 134.188C293.438 134.478 293.203 134.713 292.913 134.713Z" fill="#2A2A2A"/>
<path d="M285.234 134.713H269.13C268.84 134.713 268.604 134.478 268.604 134.188C268.604 133.898 268.84 133.663 269.13 133.663H285.234C285.524 133.663 285.759 133.898 285.759 134.188C285.759 134.478 285.524 134.713 285.234 134.713Z" fill="#2A2A2A"/>
<path d="M264.55 134.713H255.031C254.74 134.713 254.505 134.478 254.505 134.188C254.505 133.898 254.74 133.663 255.031 133.663H264.55C264.84 133.663 265.076 133.898 265.076 134.188C265.076 134.478 264.84 134.713 264.55 134.713Z" fill="#2A2A2A"/>
<path d="M306.977 109.865H301.933C301.74 109.865 301.583 109.708 301.583 109.515C301.583 109.321 301.74 109.165 301.933 109.165H306.627V32.791C306.627 32.5976 306.783 32.4409 306.977 32.4409H310.619C310.813 32.4409 310.969 32.5976 310.969 32.791C310.969 32.9844 310.813 33.1411 310.619 33.1411H307.327V109.515C307.328 109.708 307.171 109.865 306.977 109.865Z" fill="black"/>
<path d="M357.971 21.506H313.931V62.3578H357.971V21.506Z" fill="#010302"/>
<path d="M351.08 30.2296H320.82C320.53 30.2296 320.295 29.9945 320.295 29.7044C320.295 29.4143 320.53 29.1792 320.82 29.1792H351.08C351.37 29.1792 351.606 29.4145 351.606 29.7044C351.606 29.9945 351.37 30.2296 351.08 30.2296Z" fill="#2A2A2A"/>
<path d="M351.08 36.5316H329.085C328.795 36.5316 328.56 36.2965 328.56 36.0064C328.56 35.7164 328.795 35.4811 329.085 35.4811H351.08C351.37 35.4811 351.606 35.7164 351.606 36.0064C351.606 36.2965 351.37 36.5316 351.08 36.5316Z" fill="#2A2A2A"/>
<path d="M326.124 36.5436H320.82C320.53 36.5436 320.295 36.3085 320.295 36.0184C320.295 35.7283 320.53 35.493 320.82 35.493H326.124C326.414 35.493 326.65 35.7283 326.65 36.0184C326.649 36.3085 326.414 36.5436 326.124 36.5436Z" fill="#2A2A2A"/>
<path d="M351.08 42.8457H335.798C335.508 42.8457 335.272 42.6104 335.272 42.3205C335.272 42.0304 335.508 41.7953 335.798 41.7953H351.08C351.37 41.7953 351.606 42.0304 351.606 42.3205C351.606 42.6106 351.37 42.8457 351.08 42.8457Z" fill="#2A2A2A"/>
<path d="M333.034 42.8578H320.82C320.53 42.8578 320.295 42.6225 320.295 42.3326C320.295 42.0425 320.53 41.8074 320.82 41.8074H333.034C333.324 41.8074 333.56 42.0425 333.56 42.3326C333.56 42.6225 333.324 42.8578 333.034 42.8578Z" fill="#2A2A2A"/>
<path d="M341.425 49.1598H327.999C327.709 49.1598 327.474 48.9245 327.474 48.6345C327.474 48.3444 327.709 48.1093 327.999 48.1093H341.425C341.715 48.1093 341.951 48.3444 341.951 48.6345C341.951 48.9245 341.715 49.1598 341.425 49.1598Z" fill="#2A2A2A"/>
<path d="M351.08 49.1598H345.176C344.886 49.1598 344.65 48.9245 344.65 48.6345C344.65 48.3444 344.886 48.1093 345.176 48.1093H351.08C351.37 48.1093 351.605 48.3444 351.605 48.6345C351.605 48.9245 351.37 49.1598 351.08 49.1598Z" fill="#2A2A2A"/>
<path d="M324.544 49.1718H320.82C320.53 49.1718 320.295 48.9365 320.295 48.6465C320.295 48.3564 320.53 48.1211 320.82 48.1211H324.544C324.835 48.1211 325.07 48.3564 325.07 48.6465C325.07 48.9365 324.835 49.1718 324.544 49.1718Z" fill="#2A2A2A"/>
<path d="M344.979 55.4739H320.82C320.53 55.4739 320.295 55.2386 320.295 54.9485C320.295 54.6585 320.53 54.4233 320.82 54.4233H344.979C345.269 54.4233 345.505 54.6585 345.505 54.9485C345.505 55.2388 345.269 55.4739 344.979 55.4739Z" fill="#2A2A2A"/>
<path d="M238.49 130.07H231.995C231.801 130.07 231.645 129.913 231.645 129.72C231.645 129.527 231.801 129.37 231.995 129.37H238.139V98.3579C238.139 98.1645 238.296 98.0078 238.489 98.0078H245.249C245.442 98.0078 245.599 98.1645 245.599 98.3579C245.599 98.5513 245.442 98.7081 245.249 98.7081H238.84V129.72C238.84 129.913 238.683 130.07 238.49 130.07Z" fill="black"/>
<path d="M230.464 120.598H178.615V141.27H230.464V120.598Z" fill="#010302"/>
<path d="M223.48 128.322H216.661C216.371 128.322 216.136 128.087 216.136 127.797C216.136 127.507 216.371 127.272 216.661 127.272H223.48C223.77 127.272 224.006 127.507 224.006 127.797C224.006 128.087 223.77 128.322 223.48 128.322Z" fill="#2A2A2A"/>
<path d="M211.394 128.322H185.598C185.308 128.322 185.072 128.087 185.072 127.797C185.072 127.507 185.308 127.272 185.598 127.272H211.394C211.684 127.272 211.919 127.507 211.919 127.797C211.919 128.087 211.684 128.322 211.394 128.322Z" fill="#2A2A2A"/>
<path d="M223.48 134.596H199.697C199.407 134.596 199.172 134.361 199.172 134.071C199.172 133.781 199.407 133.546 199.697 133.546H223.48C223.77 133.546 224.005 133.781 224.005 134.071C224.005 134.361 223.77 134.596 223.48 134.596Z" fill="#2A2A2A"/>
<path d="M195.118 134.596H185.598C185.308 134.596 185.072 134.361 185.072 134.071C185.072 133.781 185.308 133.546 185.598 133.546H195.118C195.408 133.546 195.643 133.781 195.643 134.071C195.643 134.361 195.408 134.596 195.118 134.596Z" fill="#2A2A2A"/>
<path d="M177.049 130.055H170.883C170.69 130.055 170.533 129.898 170.533 129.705V73.0092C170.533 72.8157 170.69 72.6589 170.883 72.6589C171.077 72.6589 171.234 72.8157 171.234 73.0092V129.355H177.049C177.243 129.355 177.399 129.511 177.399 129.705C177.4 129.898 177.243 130.055 177.049 130.055Z" fill="black"/>
<path d="M192.706 107.565H175.459C175.265 107.565 175.108 107.408 175.108 107.215C175.108 107.021 175.265 106.865 175.459 106.865H192.706C192.9 106.865 193.056 107.021 193.056 107.215C193.056 107.408 192.9 107.565 192.706 107.565Z" fill="black"/>
<path d="M187.46 111.234H175.459C175.265 111.234 175.108 111.077 175.108 110.884C175.108 110.69 175.265 110.534 175.459 110.534H187.46C187.653 110.534 187.81 110.69 187.81 110.884C187.81 111.077 187.653 111.234 187.46 111.234Z" fill="black"/>
<path d="M192.706 89.0021H175.459C175.265 89.0021 175.108 88.8453 175.108 88.6518C175.108 88.4584 175.265 88.3018 175.459 88.3018H192.706C192.9 88.3018 193.056 88.4584 193.056 88.6518C193.056 88.8453 192.9 89.0021 192.706 89.0021Z" fill="black"/>
<path d="M187.46 92.6713H175.459C175.265 92.6713 175.108 92.5145 175.108 92.3211C175.108 92.1278 175.265 91.9708 175.459 91.9708H187.46C187.653 91.9708 187.81 92.1276 187.81 92.3211C187.81 92.5145 187.653 92.6713 187.46 92.6713Z" fill="black"/>
<path d="M198.441 174.417C198.441 174.417 202.23 140.899 192.832 130.365C189.453 126.577 186.309 129.716 180.634 128.346C174.959 126.977 171.014 126.028 161.362 138.393C151.71 150.757 136.99 171.042 150.229 178.009C163.469 184.976 198.441 174.417 198.441 174.417Z" fill="black"/>
<path d="M237.911 246.149H206.075C184.649 246.412 130.528 246.065 130.528 246.065C130.528 246.065 134.961 203.236 139.652 186.372C141.902 178.272 144.179 174.553 149.4 172.071C163.798 165.221 190.588 167.543 203.843 169.266C208.405 169.861 211.362 170.383 211.66 170.435C211.671 170.435 211.681 170.439 211.688 170.442V170.446C216.496 172.12 220.655 175.604 223.276 180.384C231.408 195.213 238.269 209.7 243.191 223.889C246.089 232.248 243.496 240.9 237.911 246.149Z" fill="#FFAD31"/>
<path d="M182.902 246.597C159.255 246.597 130.918 246.418 130.526 246.416C130.427 246.415 130.333 246.373 130.267 246.299C130.201 246.225 130.17 246.128 130.18 246.029C130.224 245.601 134.669 202.977 139.314 186.278C141.688 177.731 144.102 174.202 149.249 171.754C163.525 164.963 189.61 167.062 203.888 168.918C208.25 169.488 211.178 169.995 211.721 170.09C211.764 170.098 211.81 170.112 211.842 170.128C211.844 170.129 211.846 170.13 211.848 170.131C216.802 171.869 220.969 175.448 223.583 180.215C232.425 196.34 238.947 210.588 243.523 223.774C246.315 231.83 244.207 240.713 238.151 246.405C238.086 246.466 238 246.5 237.911 246.5H206.075C200.234 246.571 191.906 246.597 182.902 246.597ZM130.917 245.718C135.834 245.748 185.843 246.047 206.07 245.799H237.771C243.549 240.293 245.547 231.754 242.86 224.004C238.298 210.855 231.791 196.642 222.968 180.552C220.429 175.923 216.383 172.451 211.572 170.777C211.571 170.776 211.569 170.775 211.567 170.775C210.952 170.666 208.065 170.17 203.797 169.613C189.596 167.767 163.663 165.673 149.55 172.387C144.622 174.731 142.299 178.152 139.99 186.465C135.595 202.261 131.373 241.407 130.917 245.718Z" fill="black"/>
<path d="M152.095 219.054C152.053 219.054 152.01 219.046 151.968 219.03C147.561 217.321 145.556 212.081 145.18 208.113C144.87 204.848 145.3 201.551 145.715 198.362C145.873 197.155 146.035 195.907 146.155 194.682C146.331 192.866 146.367 190.616 145.062 189.331C144.925 189.195 144.923 188.973 145.059 188.835C145.195 188.697 145.417 188.696 145.554 188.832C147.069 190.326 147.044 192.779 146.852 194.75C146.731 195.986 146.568 197.24 146.41 198.452C145.999 201.603 145.575 204.861 145.877 208.047C146.235 211.817 148.111 216.784 152.222 218.377C152.402 218.447 152.491 218.65 152.422 218.83C152.368 218.969 152.235 219.054 152.095 219.054Z" fill="black"/>
<path d="M187.355 216.54C171.935 217.084 153.251 218.254 152.683 220.734C152.023 223.611 154.033 224.395 154.033 224.395C154.033 224.395 151.898 226.701 154.71 229.72C154.71 229.72 153.395 232.98 155.643 234.781C155.643 234.781 155.427 239.32 159.377 239.331C162.43 239.339 173.926 243.123 186.052 246.073C188.88 236.575 189.356 226.275 187.355 216.54Z" fill="#FFAD31"/>
<path d="M183.722 245.845C183.694 245.845 183.665 245.841 183.636 245.834C179.439 244.773 175.378 243.645 171.795 242.65C165.83 240.994 161.12 239.686 159.376 239.682C158.206 239.678 157.259 239.304 156.559 238.569C155.4 237.35 155.294 235.52 155.29 234.943C153.348 233.246 154.051 230.571 154.309 229.8C152.135 227.34 153.021 225.292 153.522 224.504C152.904 224.079 151.811 222.971 152.341 220.656C152.521 219.873 153.066 217.491 185.487 216.258C185.678 216.249 185.843 216.402 185.851 216.595C185.858 216.788 185.707 216.951 185.514 216.958C156.736 218.052 153.206 220.018 153.024 220.813C152.439 223.365 154.143 224.062 154.16 224.069C154.268 224.111 154.348 224.204 154.374 224.317C154.4 224.43 154.369 224.548 154.29 224.633C154.213 224.717 152.421 226.749 154.966 229.482C155.059 229.581 155.085 229.725 155.035 229.851C155.023 229.881 153.848 232.893 155.863 234.508C155.95 234.578 155.998 234.686 155.993 234.797C155.992 234.818 155.913 236.876 157.07 238.088C157.632 238.678 158.409 238.978 159.379 238.981C161.216 238.986 165.967 240.305 171.983 241.975C175.562 242.969 179.619 244.096 183.808 245.155C183.995 245.203 184.109 245.393 184.062 245.581C184.021 245.739 183.878 245.845 183.722 245.845Z" fill="black"/>
<path d="M155.289 224.303C155.107 224.303 154.953 224.162 154.94 223.978C154.926 223.785 155.072 223.617 155.265 223.603L156.678 223.502C156.871 223.487 157.039 223.634 157.053 223.827C157.067 224.02 156.921 224.187 156.728 224.201L155.315 224.302C155.306 224.303 155.298 224.303 155.289 224.303Z" fill="black"/>
<path d="M155.858 229.606C155.67 229.606 155.514 229.458 155.508 229.269C155.501 229.076 155.652 228.913 155.845 228.906L157.446 228.849C157.45 228.849 157.454 228.849 157.458 228.849C157.646 228.849 157.802 228.998 157.808 229.187C157.815 229.38 157.664 229.542 157.47 229.549L155.871 229.606C155.866 229.606 155.862 229.606 155.858 229.606Z" fill="black"/>
<path d="M157.364 235.087C157.19 235.087 157.039 234.957 157.016 234.78C156.992 234.588 157.128 234.413 157.32 234.389L158.922 234.187C159.119 234.163 159.289 234.3 159.313 234.491C159.338 234.683 159.201 234.858 159.01 234.882L157.408 235.084C157.393 235.086 157.378 235.087 157.364 235.087Z" fill="black"/>
<path d="M213.352 216.958C213.332 216.958 213.312 216.957 213.292 216.953C207.88 216.025 190.112 216.429 189.934 216.434C189.726 216.436 189.58 216.285 189.575 216.092C189.571 215.898 189.724 215.738 189.917 215.733C190.65 215.716 207.932 215.323 213.41 216.263C213.601 216.296 213.729 216.477 213.696 216.668C213.667 216.838 213.519 216.958 213.352 216.958Z" fill="black"/>
<path d="M207.609 216.433C207.459 216.433 207.32 216.336 207.274 216.185L201.303 196.604C201.247 196.419 201.352 196.224 201.537 196.167C201.723 196.111 201.918 196.216 201.974 196.4L207.945 215.981C208.001 216.166 207.896 216.362 207.711 216.418C207.677 216.428 207.642 216.433 207.609 216.433Z" fill="black"/>
<path d="M185.388 174.035L188.739 154.079L177.03 150.657L171.029 173.896C171.029 173.896 180.787 176.169 185.388 174.035Z" fill="url(#paint0_linear_64_84)"/>
<path d="M179.861 175.304C175.601 175.304 171.22 174.3 170.95 174.237C170.858 174.215 170.778 174.158 170.729 174.077C170.68 173.997 170.666 173.9 170.69 173.808L176.691 150.57C176.715 150.478 176.774 150.4 176.857 150.353C176.94 150.306 177.037 150.295 177.128 150.322L188.837 153.744C189.007 153.793 189.114 153.963 189.085 154.138L185.734 174.093C185.714 174.207 185.64 174.304 185.536 174.353C184.005 175.063 181.947 175.304 179.861 175.304ZM171.459 173.631C173.209 174 181.063 175.508 185.074 173.792L188.342 154.328L177.279 151.095L171.459 173.631Z" fill="black"/>
<path d="M178.807 175.204C174.725 175.204 170.254 174.499 166.029 172.384C165.857 172.297 165.786 172.087 165.873 171.914C165.96 171.741 166.17 171.671 166.344 171.758C178.646 177.918 193.142 171.812 193.287 171.749C193.465 171.673 193.671 171.755 193.747 171.932C193.824 172.11 193.742 172.316 193.565 172.393C193.466 172.435 186.899 175.204 178.807 175.204Z" fill="black"/>
<path d="M195.382 146.017C195.81 148.701 195.883 151.566 194.81 154.035C193.36 157.367 189.863 159.443 186.429 159.331C182.994 159.219 179.747 157.08 177.824 154.034C176.323 154.617 174.581 154.442 173.207 153.571C171.833 152.7 170.853 151.15 170.61 149.462C170.386 147.909 170.906 146.103 172.227 145.417C172.972 145.03 173.855 145.054 174.656 145.28C176.096 145.686 177.367 146.737 178.097 148.125C179.085 148.621 180.112 147.037 180.53 145.959C180.949 144.881 181.118 140.977 181.336 139.852C181.735 137.803 183.141 136.261 187.074 135.539C189.421 135.108 191.443 136.285 192.555 137.35C193.396 138.155 193.747 139.727 194.106 140.805C194.672 142.498 195.1 144.244 195.382 146.017Z" fill="url(#paint1_linear_64_84)"/>
<path d="M186.695 159.685C186.603 159.685 186.511 159.684 186.418 159.681C183.074 159.572 179.75 157.578 177.681 154.457C176.135 154.964 174.413 154.75 173.02 153.867C171.553 152.937 170.522 151.309 170.264 149.511C170.04 147.957 170.508 145.916 172.067 145.106C173.014 144.613 174.049 144.745 174.751 144.943C176.255 145.367 177.559 146.423 178.347 147.848C178.459 147.882 178.573 147.873 178.7 147.825C179.265 147.607 179.884 146.658 180.204 145.832C180.448 145.204 180.614 143.407 180.747 141.963C180.833 141.03 180.907 140.224 180.993 139.785C181.479 137.285 183.335 135.869 187.011 135.194C189.968 134.651 192.188 136.513 192.798 137.097C193.552 137.818 193.919 139.016 194.243 140.073C194.31 140.291 194.374 140.501 194.439 140.694C195.011 142.405 195.444 144.178 195.729 145.962C196.265 149.33 196.07 152.017 195.131 154.174C193.706 157.451 190.265 159.685 186.695 159.685ZM177.825 153.684C177.942 153.684 178.055 153.743 178.121 153.848C180.054 156.91 183.241 158.877 186.441 158.981C189.832 159.095 193.138 157 194.489 153.895C195.372 151.863 195.552 149.304 195.037 146.072C194.758 144.326 194.334 142.591 193.774 140.916C193.708 140.717 193.642 140.502 193.573 140.278C193.274 139.303 192.936 138.198 192.313 137.603C191.764 137.077 189.768 135.4 187.137 135.883C182.843 136.672 181.965 138.454 181.68 139.919C181.602 140.323 181.525 141.151 181.444 142.027C181.3 143.592 181.136 145.366 180.857 146.085C180.508 146.985 179.8 148.152 178.951 148.478C178.606 148.611 178.257 148.597 177.94 148.437C177.875 148.405 177.821 148.352 177.788 148.288C177.106 146.993 175.9 145.995 174.561 145.617C173.981 145.453 173.134 145.34 172.389 145.727C171.19 146.35 170.761 148.052 170.957 149.412C171.187 151.009 172.099 152.453 173.395 153.275C174.683 154.091 176.29 154.254 177.698 153.708C177.74 153.692 177.782 153.684 177.825 153.684Z" fill="black"/>
<path d="M177.034 151.306C176.896 151.306 176.765 151.224 176.71 151.089C176.332 150.17 175.261 149.628 174.366 149.907C174.18 149.964 173.985 149.861 173.927 149.677C173.87 149.492 173.973 149.296 174.157 149.238C175.405 148.849 176.84 149.56 177.358 150.823C177.431 151.002 177.346 151.207 177.167 151.28C177.123 151.298 177.078 151.306 177.034 151.306Z" fill="black"/>
<path d="M1.06071 291.5C0.935023 291.5 0.813797 291.433 0.750874 291.314C0.660234 291.143 0.725226 290.931 0.896151 290.841L85.5421 245.938C85.5926 245.911 85.6491 245.897 85.7063 245.897H237.911C237.971 245.897 238.029 245.912 238.081 245.94L318.249 290.173C318.419 290.267 318.48 290.479 318.386 290.649C318.293 290.818 318.08 290.879 317.911 290.786L237.821 246.597H85.7934L1.22462 291.459C1.17222 291.487 1.11598 291.5 1.06071 291.5Z" fill="black"/>
<path d="M52.5234 268.93H129.691L161.225 251.763H84.0582L52.5234 268.93Z" fill="url(#paint2_linear_64_84)"/>
<path d="M129.69 269.28H52.5232C52.3631 269.28 52.2232 269.172 52.1838 269.017C52.144 268.862 52.2149 268.7 52.3556 268.623L83.8902 251.456C83.9417 251.428 83.9995 251.413 84.0579 251.413H161.225C161.385 251.413 161.525 251.521 161.564 251.676C161.604 251.832 161.533 251.994 161.392 252.07L129.858 269.238C129.807 269.266 129.749 269.28 129.69 269.28ZM53.8987 268.58H129.601L159.849 252.113H84.1472L53.8987 268.58Z" fill="black"/>
<path d="M33.2559 248.758L24.625 278.477L84.2088 247.107L33.2559 248.758Z" fill="url(#paint3_linear_64_84)"/>
<path d="M24.6248 278.827C24.5457 278.827 24.4671 278.8 24.4034 278.748C24.2943 278.66 24.2491 278.514 24.2884 278.379L32.9191 248.661C32.9612 248.515 33.0926 248.413 33.2443 248.408L84.1974 246.757C84.3556 246.755 84.5058 246.859 84.5474 247.017C84.5893 247.175 84.5163 247.341 84.372 247.416L24.7881 278.787C24.7368 278.814 24.6806 278.827 24.6248 278.827ZM33.521 249.1L25.1912 277.783L82.6986 247.506L33.521 249.1Z" fill="black"/>
<path d="M96.7814 151.342C96.7814 151.342 105.139 141.332 100.317 137.188C95.4958 133.044 91.5019 138.851 84.177 137.209C76.852 135.566 71.7594 134.429 59.3244 149.356C46.8893 164.283 11.9314 200.053 29.0267 208.432C46.122 216.812 96.7814 151.342 96.7814 151.342Z" fill="black"/>
<path d="M175.464 188.032C175.042 186.837 173.873 186.03 172.648 185.704C171.423 185.377 170.131 185.455 168.866 185.535C160.818 186.043 152.77 186.551 144.722 187.059C150.1 189.871 156.137 191.109 162.159 191.458C164.661 191.603 177.251 193.092 175.464 188.032Z" fill="url(#paint4_linear_64_84)"/>
<path d="M168.3 192.12C166.625 192.12 164.827 192.014 163.067 191.876C162.685 191.846 162.368 191.821 162.139 191.807C155.356 191.415 149.442 189.922 144.559 187.369C144.42 187.296 144.346 187.139 144.379 186.986C144.412 186.832 144.543 186.719 144.699 186.709L168.843 185.185C170.064 185.108 171.445 185.021 172.738 185.365C174.228 185.762 175.37 186.715 175.795 187.916C176.121 188.84 176.035 189.637 175.537 190.283C174.448 191.702 171.616 192.12 168.3 192.12ZM146.046 187.326C150.608 189.481 156.028 190.752 162.179 191.108C162.413 191.122 162.734 191.147 163.122 191.178C165.92 191.397 173.352 191.979 174.982 189.857C175.33 189.404 175.38 188.845 175.134 188.149C174.787 187.167 173.824 186.379 172.558 186.042C171.375 185.727 170.11 185.807 168.888 185.884L146.046 187.326Z" fill="black"/>
<path d="M131.599 187.833C134.622 180.884 144.515 177.739 147.951 176.75C151.388 175.761 151.864 180.451 146.424 183.214C140.984 185.977 142.756 187.174 142.756 187.174C142.756 187.174 175.381 187.069 176.93 190.522C176.93 190.522 178.978 195.545 166.107 195.59C162.463 195.602 159.178 197.784 157.771 201.142C157.373 202.092 156.929 203.144 156.454 204.263C146.266 204.431 136.038 201.788 127.213 196.698C129.208 192.841 130.832 189.597 131.599 187.833Z" fill="url(#paint5_linear_64_84)"/>
<path d="M156.768 203.872C156.723 203.872 156.676 203.863 156.632 203.844C156.453 203.769 156.37 203.563 156.446 203.385C156.87 202.387 157.019 202.032 157.329 201.292L157.449 201.007C158.911 197.517 162.31 195.253 166.106 195.239C173.021 195.215 175.461 193.758 176.29 192.539C176.951 191.567 176.619 190.689 176.605 190.652C175.551 188.301 155.292 187.486 142.758 187.524C142.676 187.518 142.619 187.503 142.561 187.464C142.388 187.347 142.102 187.015 142.133 186.516C142.198 185.478 143.588 184.262 146.266 182.902C149.627 181.195 150.515 178.843 150.071 177.718C149.803 177.036 149.047 176.8 148.049 177.086C142.108 178.797 134.488 182.074 131.922 187.972C131.326 189.344 130.16 191.724 128.458 195.047C128.37 195.219 128.16 195.287 127.987 195.199C127.814 195.11 127.746 194.899 127.835 194.727C129.53 191.418 130.689 189.051 131.279 187.693C133.954 181.545 141.77 178.166 147.855 176.413C149.479 175.946 150.403 176.648 150.723 177.461C151.354 179.062 150.118 181.731 146.583 183.526C143.263 185.212 142.854 186.209 142.833 186.56C142.825 186.684 142.864 186.771 142.9 186.823C144.032 186.824 151.621 186.831 159.28 187.203C176.194 188.025 176.989 189.797 177.25 190.379C177.275 190.44 177.744 191.629 176.883 192.913C175.55 194.901 171.926 195.92 166.109 195.94C162.594 195.952 159.449 198.047 158.095 201.278L157.975 201.562C157.665 202.304 157.516 202.659 157.091 203.659C157.034 203.792 156.905 203.872 156.768 203.872Z" fill="black"/>
<path d="M105.866 185.769C105.866 185.769 118.901 187.468 117.975 196.16C117.048 204.852 116.984 217.167 116.984 217.167C116.984 217.167 121.348 208.037 127.213 196.698C136.038 201.788 146.266 204.43 156.454 204.263C150.966 217.168 143.294 234.877 137.192 241.246C128.574 250.245 108.704 265.024 95.4236 232.098C82.1435 199.171 105.866 185.769 105.866 185.769Z" fill="#51B29C"/>
<path d="M105.865 185.769L113.91 194.554C113.91 194.554 108.283 225.034 106.541 229.091C101.943 239.799 51.0255 233.914 40.5638 233.423C30.1021 232.931 24.8535 223.075 24.5041 219.156C24.1544 215.238 46.5549 185.495 46.5549 185.495C46.5549 185.495 73.5595 184.174 105.865 185.769Z" fill="#51B29C"/>
<path d="M100.367 231.131C100.224 231.131 100.09 231.043 100.038 230.901C99.9715 230.719 100.065 230.518 100.247 230.452C104.275 228.987 106.108 224.438 106.454 220.988C106.747 218.069 106.327 215.082 105.92 212.194C105.763 211.081 105.602 209.931 105.482 208.796C105.29 206.978 105.261 204.713 106.759 203.329C106.901 203.198 107.122 203.206 107.254 203.349C107.385 203.491 107.377 203.712 107.234 203.844C105.965 205.016 106.004 207.067 106.179 208.722C106.297 209.845 106.458 210.989 106.614 212.096C107.026 215.026 107.452 218.055 107.152 221.057C106.786 224.71 104.821 229.534 100.487 231.11C100.447 231.125 100.407 231.131 100.367 231.131Z" fill="black"/>
<path d="M65.7425 231.643C80.8865 232.123 99.2357 233.172 99.7969 235.448C100.448 238.088 98.4757 238.81 98.4757 238.81C98.4757 238.81 100.575 240.923 97.817 243.698C97.817 243.698 99.1113 246.687 96.9063 248.344C96.9063 248.344 97.1239 252.509 93.2447 252.525C90.2475 252.536 78.962 256.023 67.058 258.746C64.2695 250.032 63.7896 240.581 65.7425 231.643Z" fill="url(#paint6_linear_64_84)"/>
<path d="M67.0581 259.096C66.8997 259.096 66.756 258.987 66.7177 258.827C66.6727 258.638 66.789 258.45 66.9773 258.405C70.9406 257.463 75.1563 256.375 78.8757 255.415C85.8749 253.608 91.4033 252.181 93.2435 252.174C94.2396 252.17 95.0268 251.87 95.5836 251.282C96.6381 250.167 96.5574 248.38 96.5564 248.362C96.5505 248.246 96.6026 248.134 96.696 248.064C98.6504 246.596 97.5434 243.949 97.4955 243.837C97.4391 243.706 97.4679 243.553 97.5684 243.451C100.036 240.969 98.301 239.132 98.226 239.056C98.0916 238.918 98.0933 238.696 98.2308 238.561C98.3679 238.425 98.5887 238.427 98.7246 238.563C98.7477 238.587 100.952 240.873 98.222 243.783C98.4763 244.531 99.1154 246.977 97.2591 248.512C97.2543 249.054 97.1452 250.65 96.0927 251.763C95.3991 252.496 94.4413 252.87 93.2461 252.875C91.4935 252.881 85.7272 254.37 79.0506 256.093C75.3281 257.054 71.1092 258.143 67.1392 259.087C67.1122 259.093 67.0852 259.096 67.0581 259.096Z" fill="black"/>
<path d="M10.9206 238.459C15.7381 225.431 22.4531 209.322 30.4201 195.703C34.007 189.572 40.542 185.76 47.6452 185.534L58.5907 185.186L45.8526 231.249C45.8526 231.249 54.9901 231.303 65.7428 231.643C63.7898 240.581 64.2698 250.032 67.0581 258.746C63.554 259.547 59.9971 260.283 56.5813 260.844C50.1562 261.899 39.3106 263.003 29.0624 263.423C15.8378 263.964 6.33225 250.866 10.9206 238.459Z" fill="#51B29C"/>
<path d="M97.241 238.755C97.233 238.755 97.2255 238.755 97.2177 238.755L95.8294 238.664C95.6365 238.651 95.4901 238.485 95.5027 238.292C95.5158 238.099 95.6754 237.951 95.8753 237.965L97.2636 238.056C97.4566 238.068 97.603 238.235 97.5905 238.428C97.578 238.613 97.424 238.755 97.241 238.755Z" fill="black"/>
<path d="M96.6897 243.624C96.686 243.624 96.6817 243.623 96.6781 243.623L95.1065 243.573C94.9132 243.567 94.7612 243.405 94.7678 243.212C94.774 243.018 94.9538 242.869 95.1292 242.873L96.7009 242.923C96.8941 242.929 97.0461 243.091 97.0397 243.285C97.0336 243.474 96.8778 243.624 96.6897 243.624Z" fill="black"/>
<path d="M95.2171 248.655C95.2038 248.655 95.19 248.654 95.1763 248.653L93.6029 248.47C93.4106 248.447 93.2732 248.274 93.2953 248.082C93.3176 247.89 93.4914 247.753 93.6837 247.774L95.2569 247.957C95.4492 247.979 95.5868 248.153 95.5645 248.345C95.5441 248.524 95.3925 248.655 95.2171 248.655Z" fill="black"/>
<path d="M40.2143 232.089C40.0451 232.089 39.8968 231.967 39.8688 231.794C39.838 231.604 39.9677 231.424 40.1585 231.393C45.5361 230.523 62.506 230.862 63.2254 230.877C63.4191 230.881 63.5723 231.041 63.5687 231.235C63.5647 231.428 63.3949 231.588 63.2111 231.577C63.0352 231.574 45.5853 231.225 40.2707 232.084C40.2516 232.087 40.2328 232.089 40.2143 232.089Z" fill="black"/>
<path d="M45.8525 231.6C45.8165 231.6 45.7803 231.594 45.7445 231.583C45.5603 231.523 45.4593 231.325 45.5192 231.142L51.359 213.163C51.4189 212.979 51.6165 212.879 51.8005 212.939C51.9846 212.998 52.0854 213.196 52.0257 213.38L46.1857 231.358C46.1374 231.506 46.0003 231.6 45.8525 231.6Z" fill="black"/>
<path d="M82.7912 189.62L92.6377 165.542L77.5235 161.434L64.2627 189.476C64.2627 189.476 76.8574 192.201 82.7912 189.62Z" fill="url(#paint7_linear_64_84)"/>
<path d="M84.6887 185.332C84.6447 185.332 84.5995 185.323 84.5563 185.306C84.3771 185.232 84.2911 185.028 84.3643 184.849L92.1642 165.776L77.4324 161.772C77.2458 161.722 77.1353 161.529 77.1863 161.343C77.2372 161.156 77.4306 161.046 77.6163 161.097L92.7305 165.204C92.8273 165.23 92.9081 165.297 92.9525 165.387C92.9971 165.476 93.0008 165.581 92.9627 165.674L85.013 185.114C84.9576 185.25 84.8265 185.332 84.6887 185.332Z" fill="black"/>
<path d="M64.2626 189.828C64.2345 189.828 64.2063 189.824 64.178 189.818C61.9679 189.271 59.8434 188.525 57.8625 187.601C57.6869 187.519 57.6113 187.311 57.6932 187.136C57.7752 186.96 57.984 186.885 58.1588 186.966C60.0985 187.871 62.1804 188.602 64.3464 189.138C64.5342 189.184 64.6487 189.374 64.6022 189.562C64.563 189.721 64.42 189.828 64.2626 189.828Z" fill="black"/>
<path d="M83.6547 190.142C83.4881 190.142 83.3402 190.022 83.3101 189.853C83.2764 189.662 83.4032 189.48 83.5938 189.446C89.172 188.457 92.9909 186.929 93.0289 186.914C93.2085 186.841 93.4126 186.928 93.4849 187.107C93.5576 187.286 93.4709 187.49 93.2917 187.563C93.2532 187.578 89.3714 189.132 83.7163 190.136C83.6959 190.14 83.6749 190.142 83.6547 190.142Z" fill="black"/>
<path d="M99.9162 155.809C100.472 159.045 100.572 162.5 99.1897 165.479C97.3243 169.499 92.8159 172.009 88.3836 171.88C83.9513 171.751 79.7579 169.177 77.2724 165.507C75.3355 166.212 73.0875 166.004 71.3131 164.956C69.5387 163.908 68.2723 162.04 67.9556 160.004C67.6646 158.132 68.3327 155.954 70.0365 155.124C70.9969 154.656 72.1362 154.684 73.1696 154.955C75.0286 155.442 76.6706 156.707 77.6156 158.38C78.8907 158.977 80.4455 157.974 80.9836 156.674C81.5217 155.373 81.3439 153.904 81.2146 152.503C81.0852 151.102 81.0381 149.592 81.782 148.398C82.469 147.294 83.7061 146.667 84.9182 146.196C86.8741 145.436 88.9319 144.94 91.0185 144.719C92.2922 144.584 94.7182 144.121 95.9049 144.809C97.1817 145.548 97.796 148.227 98.2617 149.525C98.9939 151.567 99.549 153.672 99.9162 155.809Z" fill="url(#paint8_linear_64_84)"/>
<path d="M88.7122 172.235C88.5991 172.235 88.4864 172.233 88.3732 172.23C84.0699 172.105 79.788 169.695 77.1348 165.924C75.1523 166.561 72.9298 166.317 71.1347 165.257C69.2612 164.151 67.9432 162.207 67.6089 160.058C67.3208 158.204 67.9097 155.77 69.8826 154.809C71.0716 154.23 72.374 154.384 73.2581 154.616C75.1842 155.121 76.855 156.389 77.8604 158.104C78.3387 158.289 78.8018 158.19 79.1142 158.068C79.7847 157.808 80.3771 157.222 80.6594 156.54C81.1336 155.393 81.0086 154.062 80.8875 152.775L80.8649 152.535C80.7355 151.132 80.6657 149.526 81.4839 148.212C82.2531 146.976 83.6553 146.311 84.7908 145.87C86.7699 145.101 88.8523 144.596 90.9809 144.371C91.1749 144.35 91.396 144.322 91.6354 144.291C93.0446 144.111 94.9737 143.865 96.08 144.505C97.2379 145.176 97.8624 147.142 98.3184 148.578C98.4164 148.887 98.5062 149.171 98.5911 149.407C99.3306 151.469 99.8923 153.603 100.261 155.75C100.957 159.802 100.711 163.032 99.5071 165.626C97.6852 169.554 93.2803 172.235 88.7122 172.235ZM77.2724 165.157C77.3858 165.157 77.4957 165.213 77.5625 165.311C80.0781 169.026 84.2284 171.409 88.3937 171.53C92.801 171.659 97.1184 169.11 98.8717 165.332C100.014 162.871 100.242 159.775 99.5708 155.868C99.2087 153.762 98.6576 151.667 97.9317 149.643C97.8445 149.4 97.7517 149.108 97.6503 148.79C97.2292 147.463 96.6522 145.646 95.729 145.111C94.8274 144.59 92.9606 144.828 91.7246 144.986C91.4796 145.018 91.2534 145.046 91.055 145.067C88.9882 145.287 86.966 145.776 85.0447 146.523C84.0107 146.925 82.739 147.522 82.0786 148.583C81.3757 149.712 81.4439 151.182 81.5631 152.471L81.5852 152.71C81.7142 154.082 81.8477 155.501 81.3068 156.808C80.9539 157.661 80.2108 158.394 79.3676 158.721C78.7066 158.978 78.0482 158.969 77.4664 158.697C77.4003 158.666 77.3457 158.615 77.3097 158.552C76.4176 156.972 74.8364 155.754 73.08 155.293C72.3108 155.092 71.1852 154.953 70.1897 155.438C68.6092 156.208 68.0432 158.291 68.3013 159.951C68.6033 161.895 69.7959 163.653 71.4909 164.654C73.1856 165.655 75.3027 165.851 77.1521 165.178C77.1921 165.164 77.2323 165.157 77.2724 165.157Z" fill="black"/>
<path d="M76.2474 162.146C76.1127 162.146 75.9843 162.068 75.9264 161.937C75.4197 160.788 73.9736 160.115 72.7665 160.468C72.5807 160.522 72.3859 160.416 72.3316 160.23C72.2773 160.045 72.3837 159.85 72.5694 159.796C74.1211 159.341 75.9151 160.175 76.5678 161.655C76.6457 161.832 76.5654 162.038 76.3884 162.116C76.3427 162.136 76.2943 162.146 76.2474 162.146Z" fill="black"/>
<path d="M234.462 195.769C238.658 190.108 245.069 186.509 252.089 185.863C256.088 185.495 259.93 185.466 265.036 186.088C265.344 187.094 272.088 192.575 274.977 193.704C277.836 194.821 287.952 197.601 298.413 186.15C300.406 186.088 305.42 185.519 310.181 186.264C319.269 187.686 327.25 193.086 332.058 200.921C340.869 215.278 356.247 240.803 356.943 261.347C357.603 280.846 333.02 278.169 333.02 278.169L248.068 278.505L209 247.797C209 247.797 219.898 215.42 234.462 195.769Z" fill="#3A7FD0"/>
<path d="M244.087 244.959C244.044 244.959 244.001 244.952 243.959 244.935C243.779 244.865 243.69 244.662 243.76 244.482C243.835 244.292 251.212 225.392 254.607 214.191C254.663 214.006 254.858 213.901 255.044 213.957C255.229 214.013 255.334 214.209 255.278 214.394C251.874 225.621 244.488 244.546 244.413 244.736C244.359 244.875 244.227 244.959 244.087 244.959Z" fill="black"/>
<path d="M290.351 246.379C290.164 246.379 290.009 246.231 290.001 246.043C289.993 245.85 290.143 245.687 290.337 245.679L331.943 243.948C332.138 243.938 332.3 244.09 332.308 244.283C332.317 244.476 332.166 244.639 331.973 244.647L290.366 246.378C290.361 246.379 290.356 246.379 290.351 246.379Z" fill="black"/>
<path d="M319.493 244.999C319.353 244.999 319.221 244.915 319.167 244.777L311.298 224.71C311.227 224.53 311.316 224.327 311.496 224.256C311.676 224.186 311.879 224.274 311.95 224.454L319.819 244.521C319.89 244.701 319.801 244.904 319.622 244.975C319.579 244.992 319.536 244.999 319.493 244.999Z" fill="black"/>
<path d="M206.766 211.103C206.766 211.103 193.86 189.572 191.827 187.541C189.795 185.509 176.279 183.681 173.738 183.173C171.198 182.666 162.612 179.674 161.035 179.721C158.823 179.785 158.495 181.244 158.495 181.244C158.495 181.244 156.12 180.269 154.43 181.041C152.968 181.708 153.109 182.869 153.109 182.869C153.109 182.869 150.263 182.158 149.044 183.884C147.824 185.611 150.263 187.541 150.263 187.541C150.263 187.541 149.856 188.963 151.178 191.502C152.499 194.041 155.071 195.204 156.869 196.174C161.95 198.916 168.352 202.47 169.775 203.08C171.198 203.689 186.339 226.541 186.339 226.541L206.766 211.103Z" fill="url(#paint9_linear_64_84)"/>
<path d="M186.339 226.891C186.32 226.891 186.3 226.889 186.281 226.886C186.185 226.869 186.101 226.815 186.047 226.734C180.267 218.011 170.699 203.962 169.633 203.4C168.606 202.96 165.025 201.009 161.234 198.943C159.714 198.115 158.154 197.265 156.702 196.482C156.531 196.389 156.352 196.294 156.168 196.197C154.361 195.243 152.112 194.055 150.867 191.664C149.788 189.591 149.814 188.206 149.882 187.68C148.954 186.872 147.705 185.173 148.757 183.683C149.821 182.178 151.904 182.314 152.787 182.451C152.876 181.97 153.196 181.22 154.284 180.723C155.722 180.066 157.554 180.552 158.296 180.8C158.559 180.288 159.263 179.423 161.025 179.371C162.001 179.343 165.147 180.3 168.477 181.315C170.684 181.988 172.768 182.623 173.807 182.831C174.277 182.925 175.141 183.067 176.235 183.246C181.166 184.056 190.344 185.564 192.075 187.293C194.115 189.332 206.539 210.043 207.067 210.924C207.159 211.077 207.12 211.275 206.977 211.383L186.551 226.82C186.49 226.866 186.415 226.891 186.339 226.891ZM151.779 183.076C150.95 183.076 149.911 183.264 149.33 184.087C148.317 185.521 150.459 187.249 150.481 187.267C150.592 187.355 150.639 187.501 150.6 187.637C150.598 187.647 150.263 188.984 151.489 191.34C152.632 193.539 154.774 194.67 156.495 195.578C156.681 195.676 156.862 195.772 157.036 195.866C158.488 196.649 160.048 197.5 161.57 198.329C165.346 200.386 168.912 202.329 169.913 202.758C171.323 203.362 183.473 221.584 186.426 226.037L206.304 211.014C204.806 208.521 193.437 189.645 191.58 187.789C190.008 186.218 180.629 184.677 176.122 183.937C175.021 183.756 174.152 183.614 173.67 183.517C172.597 183.303 170.496 182.663 168.273 181.985C165.29 181.076 161.905 180.046 161.046 180.071C159.155 180.126 158.848 181.276 158.836 181.325C158.811 181.423 158.745 181.508 158.654 181.554C158.563 181.6 158.456 181.607 158.362 181.568C158.339 181.559 156.105 180.661 154.576 181.36C153.382 181.905 153.453 182.794 153.457 182.831C153.468 182.944 153.423 183.058 153.337 183.132C153.251 183.206 153.134 183.236 153.024 183.209C153.012 183.206 152.468 183.076 151.779 183.076Z" fill="black"/>
<path d="M175.33 188.575C175.306 188.575 175.282 188.572 175.259 188.568C172.31 187.96 157.627 184.751 158.124 181.264C158.151 181.072 158.328 180.939 158.52 180.966C158.711 180.994 158.845 181.171 158.818 181.362C158.505 183.557 168.823 186.526 175.4 187.882C175.59 187.921 175.712 188.106 175.673 188.295C175.638 188.461 175.492 188.575 175.33 188.575Z" fill="black"/>
<path d="M168.759 191.657C168.726 191.657 168.693 191.653 168.66 191.643C167.037 191.17 152.798 186.907 152.758 182.872C152.756 182.679 152.911 182.521 153.105 182.519C153.106 182.519 153.107 182.519 153.108 182.519C153.3 182.519 153.457 182.673 153.459 182.865C153.488 185.844 164.584 189.726 168.857 190.971C169.042 191.025 169.149 191.219 169.095 191.405C169.05 191.558 168.911 191.657 168.759 191.657Z" fill="black"/>
<path d="M165.004 195.142C164.974 195.142 164.943 195.138 164.913 195.129C157.962 193.259 150.141 187.883 150.063 187.829C149.904 187.719 149.864 187.501 149.975 187.342C150.085 187.182 150.303 187.143 150.462 187.253C150.539 187.306 158.262 192.615 165.095 194.453C165.282 194.503 165.393 194.696 165.342 194.882C165.3 195.039 165.158 195.142 165.004 195.142Z" fill="black"/>
<path d="M182.335 221.246L203.959 205.094L227.859 237.625L203.504 253.093L182.335 221.246Z" fill="#3A7FD0"/>
<path d="M221.985 229.324C221.879 229.324 221.774 229.276 221.706 229.185L218.687 225.204C218.57 225.05 218.601 224.83 218.755 224.714C218.91 224.597 219.129 224.627 219.246 224.781L222.264 228.763C222.381 228.917 222.35 229.137 222.196 229.253C222.133 229.301 222.059 229.324 221.985 229.324Z" fill="black"/>
<path d="M295.051 278.025C295.051 278.025 295.546 265.531 295.424 258.069C295.302 250.607 288.447 245.958 288.447 245.958H281.62C267.889 245.958 256.807 257.177 256.985 270.899L257.498 277.979L295.051 278.025Z" fill="url(#paint10_linear_64_84)"/>
<path d="M295.05 278.375L257.498 278.329C257.314 278.328 257.162 278.187 257.149 278.004L256.635 270.924C256.547 264.173 259.105 257.827 263.837 253.037C268.569 248.246 274.884 245.608 281.62 245.608H288.447C288.641 245.608 288.797 245.764 288.797 245.958C288.797 246.151 288.641 246.308 288.447 246.308H281.62C275.073 246.308 268.935 248.872 264.336 253.529C259.737 258.185 257.25 264.352 257.335 270.894L257.824 277.629L295.051 277.675C295.245 277.675 295.401 277.832 295.401 278.025C295.401 278.219 295.244 278.375 295.05 278.375Z" fill="black"/>
<path d="M275.442 274.786C275.271 274.786 275.121 274.66 275.096 274.486C274.815 272.561 275.261 270.432 276.352 268.491C277.25 266.894 278.569 265.396 280.385 263.91C280.752 263.609 281.15 263.299 281.626 263.091C281.804 263.013 282.01 263.094 282.087 263.271C282.165 263.449 282.084 263.655 281.907 263.732C281.512 263.905 281.158 264.182 280.829 264.451C279.082 265.881 277.817 267.315 276.963 268.834C275.947 270.641 275.53 272.612 275.789 274.385C275.817 274.576 275.684 274.754 275.493 274.782C275.476 274.785 275.459 274.786 275.442 274.786Z" fill="black"/>
<path d="M267.378 274.324C267.362 274.324 267.345 274.323 267.328 274.321C267.137 274.294 267.004 274.116 267.031 273.925C267.338 271.758 267.781 269.221 268.737 266.828C269.741 264.314 271.223 262.256 273.023 260.875C273.176 260.757 273.397 260.787 273.514 260.94C273.632 261.093 273.603 261.313 273.449 261.431C271.75 262.735 270.345 264.691 269.388 267.087C268.46 269.411 268.026 271.897 267.725 274.023C267.7 274.198 267.55 274.324 267.378 274.324Z" fill="black"/>
<path d="M260.918 274.324C260.743 274.324 260.591 274.194 260.57 274.016C259.446 264.607 265.636 258.731 265.699 258.673C265.841 258.541 266.062 258.549 266.194 258.69C266.325 258.832 266.317 259.053 266.176 259.185C266.116 259.241 260.185 264.887 261.266 273.932C261.289 274.124 261.152 274.299 260.959 274.322C260.946 274.323 260.931 274.324 260.918 274.324Z" fill="black"/>
<path d="M196.144 279.181H287.144C287.683 279.181 288.222 279.043 288.667 278.737C289.707 278.022 290.069 276.743 289.657 275.644C288.584 273.396 286.366 272.605 283.087 272.605H190.173L191.378 275.879C192.122 277.865 194.021 279.181 196.144 279.181Z" fill="black"/>
<path d="M195.628 279.181C193.809 279.181 192.173 278.073 191.499 276.384L175.389 235.994C174.961 234.922 175.094 233.709 175.742 232.754C176.39 231.799 177.469 231.227 178.624 231.227H234.553C237.923 231.227 240.927 233.348 242.052 236.522L257.174 279.181H195.628Z" fill="black"/>
<path d="M249.769 273.351H194.319C194.125 273.351 193.969 273.194 193.969 273C193.969 272.807 194.125 272.65 194.319 272.65H249.769C249.962 272.65 250.119 272.807 250.119 273C250.119 273.194 249.962 273.351 249.769 273.351Z" fill="url(#paint11_linear_64_84)"/>
<path d="M284.956 161.623L292.225 182.853C292.69 184.21 293.845 185.215 295.254 185.489L298.49 186.118L282.651 235.38L264.832 186.118L267.832 185.875C269.628 185.73 270.859 184.003 270.409 182.26L267.037 169.213C267.037 169.213 280.779 158.148 284.956 161.623Z" fill="url(#paint12_linear_64_84)"/>
<path d="M267.973 186.196C267.792 186.196 267.639 186.057 267.624 185.874C267.609 185.681 267.752 185.512 267.945 185.497C268.698 185.436 269.381 185.048 269.819 184.433C270.257 183.819 270.4 183.048 270.211 182.317L266.839 169.27C266.805 169.137 266.852 168.996 266.959 168.91C267.529 168.451 280.974 157.707 285.322 161.324C285.371 161.365 285.408 161.419 285.43 161.48L292.698 182.71C293.121 183.945 294.18 184.866 295.462 185.115C295.653 185.152 295.776 185.336 295.739 185.526C295.702 185.716 295.517 185.839 295.329 185.803C293.801 185.506 292.539 184.408 292.035 182.937L284.799 161.803C281.522 159.31 271.445 166.233 267.574 169.315L270.889 182.142C271.13 183.073 270.948 184.056 270.39 184.839C269.832 185.623 268.961 186.117 268.001 186.195C267.992 186.195 267.982 186.196 267.973 186.196Z" fill="black"/>
<path d="M285.331 196.085C285.231 196.085 285.132 196.042 285.063 195.961C282.922 193.438 279.797 189.775 278.873 188.729L273.588 195.719C273.528 195.798 273.436 195.849 273.337 195.857C273.234 195.866 273.139 195.829 273.067 195.761L265.883 188.884C265.744 188.751 265.739 188.529 265.873 188.389C266.007 188.25 266.229 188.245 266.368 188.379L273.267 194.983L278.566 187.974C278.669 187.838 278.854 187.796 279.006 187.874C279.083 187.913 279.2 187.973 285.398 195.272L296.934 187.734C297.096 187.628 297.314 187.674 297.419 187.835C297.525 187.997 297.48 188.214 297.317 188.32L285.522 196.028C285.463 196.066 285.397 196.085 285.331 196.085Z" fill="#3A7FD0"/>
<path d="M260.19 162.419C260.19 162.419 252.414 158.569 249.215 149.649C245.978 140.623 250.487 139.436 252.703 143.041C252.703 143.041 251.615 132.01 258.946 138.298C258.946 138.298 259.283 128.779 265.908 137.724C265.908 137.724 266.626 131.477 271.901 139.563C271.901 139.563 276.631 136.244 281.771 142.162C286.912 148.08 286.611 157.244 282.745 161.945C278.88 166.646 260.19 162.419 260.19 162.419Z" fill="black"/>
<path d="M280.584 166.837C280.584 166.837 280.158 175.679 270.998 177.527C261.837 179.375 257.478 168.491 253.849 156.548C255.127 157.325 257.484 157.84 259.245 157.652C265.15 157.022 268.62 152.753 269.366 151.561C270.533 154.651 271.539 155.952 273.414 157.151C274.449 157.813 275.874 158.377 278.181 157.552C278.181 157.552 277.896 153.49 281.952 154.382C286.008 155.274 288.172 164.67 280.584 166.837Z" fill="url(#paint13_linear_64_84)"/>
<path d="M269.028 178.082C260.762 178.082 256.693 167.112 253.513 156.65C253.471 156.511 253.519 156.361 253.634 156.272C253.749 156.183 253.906 156.174 254.03 156.249C255.294 157.016 257.569 157.479 259.208 157.304C265.722 156.608 269.037 151.428 269.069 151.375C269.14 151.263 269.271 151.201 269.401 151.213C269.534 151.226 269.647 151.313 269.694 151.438C270.794 154.35 271.744 155.667 273.603 156.856C274.486 157.42 275.758 157.971 277.827 157.303C277.837 156.727 277.968 155.384 278.922 154.561C279.66 153.924 280.705 153.749 282.027 154.04C284.191 154.516 285.893 157.149 285.986 160.164C286.089 163.497 284.197 166.076 280.912 167.104C280.75 168.586 279.509 176.167 271.067 177.871C270.361 178.013 269.68 178.082 269.028 178.082ZM254.423 157.23C257.492 167.2 261.441 177.375 269.067 177.376C269.664 177.376 270.284 177.314 270.929 177.184C279.706 175.413 280.216 167.17 280.234 166.819C280.242 166.67 280.343 166.541 280.488 166.5C284.955 165.225 285.331 161.659 285.286 160.185C285.204 157.525 283.706 155.127 281.877 154.724C280.781 154.483 279.941 154.606 279.38 155.091C278.429 155.911 278.53 157.512 278.531 157.528C278.542 157.685 278.447 157.829 278.299 157.882C275.803 158.774 274.276 158.118 273.225 157.446C271.358 156.252 270.347 154.957 269.28 152.304C267.786 154.306 264.268 157.468 259.282 158C257.801 158.159 255.833 157.831 254.423 157.23Z" fill="black"/>
<path d="M280.546 161.603C280.508 161.603 280.47 161.597 280.432 161.585C280.249 161.522 280.152 161.323 280.214 161.14C280.421 160.537 280.655 159.853 281.069 159.277C281.558 158.596 282.239 158.178 282.936 158.13C283.12 158.115 283.297 158.262 283.31 158.455C283.323 158.648 283.178 158.815 282.984 158.829C282.503 158.862 282 159.182 281.638 159.685C281.285 160.177 281.077 160.782 280.878 161.367C280.828 161.512 280.692 161.603 280.546 161.603Z" fill="black"/>
<path d="M41.5486 0.682251H1.06055V163.579H41.5486V0.682251Z" fill="#2B2B2B"/>
<path d="M21.3044 26.3149C21.2148 26.3149 21.1252 26.2807 21.0567 26.2124C20.9199 26.0757 20.9199 25.8541 21.0567 25.7171L30.97 15.81C31.1066 15.6732 31.3284 15.6732 31.4654 15.81C31.6022 15.9467 31.6022 16.1685 31.4654 16.3052L21.5523 26.2124C21.4836 26.2807 21.394 26.3149 21.3044 26.3149Z" fill="url(#paint14_linear_64_84)"/>
<path d="M16.0427 41.7861C15.953 41.7861 15.8635 41.7519 15.795 41.6834C15.6582 41.5467 15.6582 41.3251 15.795 41.1883L36.2324 20.7636C36.3692 20.6268 36.5909 20.6268 36.7278 20.7636C36.8646 20.9003 36.8646 21.1221 36.7278 21.2589L16.2906 41.6834C16.2221 41.7519 16.1324 41.7861 16.0427 41.7861Z" fill="url(#paint15_linear_64_84)"/>
<path d="M9.75073 154.786C9.66104 154.786 9.57152 154.752 9.50302 154.684C9.36618 154.547 9.36618 154.325 9.50302 154.189L19.4166 144.281C19.5534 144.145 19.7751 144.145 19.912 144.281C20.0488 144.418 20.0488 144.64 19.912 144.777L9.9986 154.684C9.9301 154.752 9.84041 154.786 9.75073 154.786Z" fill="url(#paint16_linear_64_84)"/>
<path d="M12.5673 141.221C12.4776 141.221 12.3879 141.186 12.3194 141.118C12.1826 140.981 12.1826 140.759 12.3194 140.623L34.6652 118.291C34.802 118.154 35.0237 118.154 35.1606 118.291C35.2974 118.428 35.2974 118.649 35.1606 118.786L12.8148 141.118C12.7465 141.187 12.657 141.221 12.5673 141.221Z" fill="url(#paint17_linear_64_84)"/>
<path d="M437.291 0.682251H396.803V163.579H437.291V0.682251Z" fill="#2A2A2A"/>
<path d="M402.173 21.856C402.083 21.856 401.993 21.8218 401.925 21.7535C401.788 21.6167 401.788 21.395 401.925 21.2582L413.555 9.63455C413.692 9.49796 413.914 9.49796 414.051 9.63455C414.188 9.7713 414.188 9.99307 414.051 10.1298L402.42 21.7535C402.352 21.8218 402.262 21.856 402.173 21.856Z" fill="url(#paint18_linear_64_84)"/>
<path d="M403.721 30.3835C403.632 30.3835 403.542 30.3493 403.474 30.2808C403.337 30.1441 403.337 29.9225 403.474 29.7857L423.637 9.63467C423.774 9.49808 423.996 9.49808 424.132 9.63467C424.269 9.77142 424.269 9.99319 424.132 10.1299L403.969 30.2808C403.901 30.3493 403.811 30.3835 403.721 30.3835Z" fill="url(#paint19_linear_64_84)"/>
<path d="M412.231 156.626C412.141 156.626 412.052 156.592 411.983 156.524C411.847 156.387 411.847 156.165 411.983 156.029L432.147 135.877C432.283 135.741 432.505 135.741 432.642 135.877C432.779 136.014 432.779 136.236 432.642 136.373L412.479 156.524C412.411 156.592 412.321 156.626 412.231 156.626Z" fill="url(#paint20_linear_64_84)"/>
<path d="M415.754 144.845C415.664 144.845 415.574 144.81 415.506 144.742C415.369 144.605 415.369 144.383 415.506 144.247L425.817 133.942C425.954 133.805 426.176 133.805 426.313 133.942C426.449 134.079 426.449 134.3 426.313 134.437L416.001 144.742C415.933 144.81 415.843 144.845 415.754 144.845Z" fill="url(#paint21_linear_64_84)"/>
<path d="M352.843 99.7467C353.41 96.4596 358.858 94.0232 361.724 92.3019C368.123 88.4577 373.085 85.0096 380.543 85.4702C389.089 85.9982 396.363 92.491 400.14 100.154C402.639 105.224 403.906 111.021 402.949 116.59C402.807 117.419 402.605 118.24 402.358 119.048C403.685 119.195 405.002 119.44 406.28 119.751C408.659 120.328 411.017 121.092 413.278 122.03C415.684 123.029 418.045 124.333 419.862 126.227C421.364 127.793 422.403 129.706 422.892 131.816C423.348 133.785 423.34 135.84 423.016 137.829C422.308 142.182 420.203 146.369 417.323 149.697C415.769 151.494 413.907 153.049 411.757 154.086C409.699 155.078 407.42 155.517 405.139 155.444C400.349 155.29 395.929 152.972 392.574 149.647C390.713 147.801 389.143 145.675 387.845 143.402C386.695 141.389 385.756 139.236 385.206 136.98C384.792 135.28 384.626 133.5 384.747 131.75C381.955 131.59 379.171 130.844 376.667 129.606C371.521 127.062 368.617 123.017 365.107 118.735C361.926 114.855 361.475 114.228 357.076 111.334C354.831 109.857 351.997 104.65 352.843 99.7467Z" fill="black"/>
<path d="M329.799 291.325L343.593 231.73L404.22 244.029C414.089 257.04 419.684 276.936 422.775 291.325H329.799Z" fill="#AA43CE"/>
<path d="M422.809 291.668C422.648 291.668 422.502 291.556 422.467 291.392C417.957 270.417 411.751 254.59 404.021 244.345L343.857 232.141L330.068 291.386C330.024 291.575 329.835 291.692 329.647 291.648C329.458 291.604 329.342 291.416 329.385 291.228L343.251 231.651C343.294 231.466 343.476 231.349 343.662 231.387L404.29 243.686C404.373 243.702 404.448 243.749 404.499 243.817C412.328 254.14 418.604 270.097 423.152 291.244C423.193 291.433 423.072 291.62 422.883 291.66C422.858 291.666 422.833 291.668 422.809 291.668Z" fill="black"/>
<path d="M383.701 122.277L398.654 152.468C398.654 152.468 382.637 216.947 369.725 216.117C356.812 215.287 358.098 157.291 367.72 152.766L374.617 151.713L368.988 128.164L383.701 122.277Z" fill="url(#paint22_linear_64_84)"/>
<path d="M372.063 152.531C371.897 152.531 371.75 152.413 371.719 152.244C371.684 152.054 371.81 151.871 372 151.836L374.19 151.435L368.647 128.245C368.603 128.057 368.718 127.868 368.907 127.823C369.096 127.779 369.284 127.895 369.329 128.083L374.958 151.631C374.98 151.725 374.963 151.823 374.91 151.904C374.858 151.984 374.775 152.04 374.68 152.057L372.127 152.525C372.105 152.529 372.084 152.531 372.063 152.531Z" fill="black"/>
<path d="M356.814 112.602C356.163 116.138 356.146 119.861 357.344 123.252C358.542 126.643 361.065 129.665 364.433 130.949C367.353 132.062 370.695 131.794 373.579 130.593C376.464 129.392 378.919 127.316 380.924 124.924C384.004 126.015 387.756 124.743 389.53 122.005C390.554 120.425 390.914 118.325 390.078 116.639C389.243 114.953 387.043 113.945 385.338 114.749C384.366 115.207 383.675 116.141 382.684 116.558C381.581 117.023 380.264 116.748 379.269 116.082C378.275 115.415 377.56 114.407 376.99 113.356C375.196 110.046 374.661 106.077 375.516 102.413C375.435 102.759 373.59 103.281 373.261 103.392C372.434 103.671 371.582 103.877 370.719 104.01C369.017 104.274 367.271 104.256 365.573 103.962C364.713 103.813 363.864 103.593 363.04 103.302C362.386 103.071 361.538 102.454 360.841 102.446C359.385 102.43 358.951 105.078 358.599 106.102C357.868 108.228 357.221 110.389 356.814 112.602Z" fill="url(#paint23_linear_64_84)"/>
<path d="M368.403 132.001C366.971 132.001 365.58 131.761 364.308 131.276C361.051 130.034 358.324 127.078 357.013 123.369C355.906 120.235 355.723 116.592 356.469 112.539C356.824 110.607 357.396 108.525 358.267 105.988C358.327 105.814 358.389 105.593 358.458 105.347C358.821 104.051 359.368 102.095 360.826 102.095C360.832 102.095 360.838 102.095 360.844 102.095C361.379 102.101 361.926 102.379 362.455 102.647C362.709 102.776 362.949 102.898 363.157 102.971C363.952 103.253 364.785 103.47 365.633 103.617C367.305 103.906 368.998 103.922 370.665 103.664C371.514 103.532 372.35 103.329 373.148 103.059C373.196 103.043 373.275 103.019 373.375 102.988C374.671 102.584 375.084 102.378 375.194 102.274C375.26 102.121 375.427 102.032 375.595 102.071C375.784 102.115 375.901 102.303 375.857 102.492C375.857 102.492 375.857 102.492 375.857 102.493C375.024 106.064 375.549 109.963 377.298 113.189C377.966 114.421 378.654 115.248 379.464 115.79C380.45 116.451 381.633 116.621 382.548 116.235C383.015 116.038 383.417 115.708 383.843 115.358C384.255 115.02 384.681 114.67 385.188 114.432C386.997 113.579 389.428 114.539 390.392 116.483C391.23 118.173 391.012 120.362 389.824 122.195C388.02 124.979 384.204 126.325 381.038 125.331C378.811 127.94 376.348 129.819 373.714 130.916C371.981 131.638 370.161 132.001 368.403 132.001ZM357.158 112.665C356.435 116.596 356.608 120.119 357.674 123.135C358.917 126.653 361.49 129.452 364.557 130.621C367.226 131.639 370.464 131.51 373.444 130.27C376.035 129.19 378.461 127.316 380.655 124.699C380.749 124.586 380.903 124.545 381.041 124.594C383.957 125.627 387.557 124.406 389.236 121.815C390.274 120.212 390.482 118.242 389.764 116.794C388.977 115.206 386.937 114.382 385.487 115.065C385.059 115.267 384.684 115.574 384.288 115.9C383.842 116.265 383.381 116.644 382.82 116.88C381.688 117.357 380.254 117.162 379.074 116.372C378.166 115.764 377.406 114.859 376.682 113.522C374.986 110.396 374.39 106.665 375.005 103.162C374.665 103.305 374.203 103.463 373.584 103.656C373.49 103.685 373.417 103.708 373.372 103.723C372.536 104.005 371.661 104.218 370.772 104.356C369.03 104.626 367.261 104.609 365.513 104.307C364.627 104.153 363.755 103.926 362.923 103.631C362.673 103.543 362.413 103.411 362.137 103.271C361.681 103.039 361.208 102.8 360.837 102.796C360.834 102.796 360.831 102.796 360.828 102.796C359.899 102.796 359.438 104.444 359.132 105.535C359.059 105.797 358.993 106.031 358.93 106.215C358.07 108.719 357.507 110.769 357.158 112.665Z" fill="black"/>
<path d="M381.956 122.045C381.906 122.045 381.855 122.034 381.807 122.011C381.632 121.929 381.557 121.72 381.639 121.545C382.431 119.864 384.288 118.756 386.144 118.847C386.337 118.856 386.486 119.021 386.476 119.214C386.466 119.407 386.3 119.553 386.109 119.546C384.518 119.467 382.947 120.412 382.273 121.843C382.213 121.97 382.087 122.045 381.956 122.045Z" fill="black"/>
<path d="M404.094 157.15H358.068V212.244H404.094V157.15Z" fill="url(#paint24_linear_64_84)"/>
<path d="M413.1 250.854C419.416 247.57 423.41 241.133 426.434 234.702C433.543 219.588 436.993 202.837 436.939 186.143C436.913 177.865 436.674 165.423 431.82 158.706C426.568 151.437 399.337 149.671 397.231 150.835C393.117 153.109 365.19 225.491 363.578 224.475C362.5 223.795 374.078 154.384 374.078 151.313C367.065 151.412 354.287 152.424 349.273 155.379C343.889 158.553 332.748 186.323 329.664 204.108C328.838 208.869 328.724 228.89 332.75 232.601C334.052 233.802 335.291 234.876 336.371 235.78C338.426 237.5 341.114 238.219 343.772 237.854C358.394 235.847 393.763 247.28 396.755 249.699C401.262 253.342 408.063 253.472 413.1 250.854Z" fill="#E0E8FD"/>
<path d="M360.351 202.855C360.189 202.855 360.044 202.742 360.009 202.577L355.383 180.742C355.353 180.598 355.417 180.45 355.543 180.372L365.25 174.394L358.501 169.347C358.36 169.242 358.319 169.05 358.404 168.897L367.414 152.597C367.507 152.428 367.72 152.366 367.89 152.46C368.059 152.553 368.121 152.766 368.027 152.936L359.165 168.969L366.082 174.141C366.175 174.211 366.228 174.322 366.223 174.437C366.217 174.553 366.155 174.659 366.056 174.72L356.12 180.839L360.695 202.432C360.735 202.621 360.613 202.807 360.424 202.847C360.4 202.852 360.375 202.855 360.351 202.855Z" fill="black"/>
<path d="M383.071 204.972C383.008 204.972 382.945 204.955 382.888 204.92C382.723 204.819 382.671 204.603 382.772 204.439L394.234 185.766L387.021 177.629C386.939 177.538 386.912 177.411 386.948 177.294C386.984 177.177 387.079 177.087 387.198 177.058L399.988 173.851V154.636C399.988 154.442 400.145 154.286 400.338 154.286C400.532 154.286 400.689 154.442 400.689 154.636V174.124C400.689 174.285 400.579 174.425 400.423 174.464L387.928 177.597L394.931 185.496C395.033 185.612 395.048 185.78 394.967 185.911L383.37 204.805C383.304 204.912 383.189 204.972 383.071 204.972Z" fill="black"/>
<path d="M399.665 215.612C399.63 215.612 399.594 215.607 399.558 215.595C399.374 215.536 399.272 215.339 399.331 215.155C401.69 207.774 406.27 189.445 407.8 178.637C407.827 178.446 408.002 178.313 408.196 178.34C408.387 178.367 408.521 178.544 408.493 178.735C406.959 189.578 402.364 207.965 399.998 215.368C399.951 215.517 399.813 215.612 399.665 215.612Z" fill="black"/>
<path d="M345.328 200.767C345.183 200.767 345.047 200.676 344.997 200.532C342.133 192.359 344.366 186.974 348.897 180.934C349.013 180.779 349.232 180.748 349.387 180.864C349.542 180.98 349.573 181.199 349.457 181.354C345.065 187.21 342.898 192.422 345.658 200.301C345.722 200.483 345.626 200.683 345.443 200.747C345.405 200.76 345.366 200.767 345.328 200.767Z" fill="black"/>
<path d="M396.293 244.52C396.048 245.318 395.697 246.222 394.902 246.483C394.273 246.689 393.511 246.547 392.998 246.13C381.995 237.178 373.22 231.412 360.187 225.821C358.531 225.11 361.148 232.324 351.722 225.883C350.235 224.867 351.478 221.834 353.255 221.538C351.784 221.331 350.53 220.064 350.342 218.594C350.155 217.125 351.051 215.585 352.423 215.018C350.999 215.283 349.674 213.867 349.605 212.425C349.536 210.982 350.392 209.645 351.425 208.632C347.483 210.54 341.958 216.101 338.833 212.352C337.996 208.555 340.66 206.533 343.615 203.996C346.571 201.459 350.423 200.202 354.255 199.483C362.777 197.884 371.653 198.679 379.981 201.085C387.31 203.203 394.288 206.53 400.761 210.539C402.351 211.525 402.883 211.737 402.906 213.567C402.932 215.529 402.357 217.688 402.05 219.624C401.411 223.653 400.637 227.661 399.73 231.639C398.741 235.973 397.595 240.27 396.293 244.52Z" fill="url(#paint25_linear_64_84)"/>
<path d="M359.953 226.024C359.917 226.024 359.882 226.019 359.846 226.008L356.078 224.809C355.894 224.75 355.792 224.553 355.851 224.369C355.909 224.185 356.106 224.083 356.291 224.142L360.059 225.341C360.243 225.399 360.345 225.596 360.287 225.78C360.239 225.929 360.101 226.024 359.953 226.024Z" fill="black"/>
<path d="M375.066 199.996C375.031 199.996 374.995 199.991 374.96 199.98C373.654 199.564 369.469 198.797 366.941 198.797C366.748 198.797 366.591 198.64 366.591 198.447C366.591 198.253 366.748 198.097 366.941 198.097C369.533 198.097 373.831 198.885 375.173 199.312C375.357 199.371 375.459 199.568 375.4 199.752C375.352 199.901 375.215 199.996 375.066 199.996Z" fill="black"/>
<path d="M416.395 220.34C416.317 220.34 416.239 220.314 416.173 220.261C412.436 217.202 408.322 214.611 403.945 212.561C403.769 212.479 403.694 212.27 403.776 212.095C403.859 211.92 404.066 211.844 404.242 211.926C408.672 214.002 412.835 216.623 416.618 219.719C416.767 219.841 416.789 220.062 416.666 220.212C416.597 220.296 416.497 220.34 416.395 220.34Z" fill="black"/>
<path d="M348.28 229.375C348.22 231.853 347.509 234.509 345.548 236.033C343.024 237.993 339.407 237.437 336.332 236.555C321.741 232.372 308.582 224.304 301.017 211.179C300.704 210.637 297.928 204.002 299.065 202.504C300.135 201.095 302.79 203.771 304.525 204.135C312.038 205.707 319.453 207.751 326.71 210.247C330.441 211.53 334.13 212.932 337.77 214.452C340.553 215.614 342.921 215.928 344.78 218.443C347.094 221.573 348.374 225.482 348.28 229.375Z" fill="url(#paint26_linear_64_84)"/>
<path d="M336.333 236.906C336.301 236.906 336.268 236.901 336.236 236.892C319.932 232.217 307.649 223.386 300.713 211.354C300.676 211.288 297.406 204.11 298.786 202.293C298.903 202.139 299.122 202.108 299.277 202.225C299.431 202.342 299.461 202.562 299.344 202.716C298.396 203.964 300.876 210.233 301.32 211.004C308.163 222.876 320.304 231.595 336.429 236.219C336.615 236.272 336.723 236.466 336.669 236.652C336.625 236.806 336.485 236.906 336.333 236.906Z" fill="black"/>
<path d="M291.289 189.812H318.113C318.685 189.812 319.225 190.074 319.579 190.522L341.203 217.955C342.164 219.174 341.292 220.961 339.737 220.961H313.841C313.283 220.961 312.754 220.712 312.4 220.281L289.848 192.848C288.85 191.635 289.716 189.812 291.289 189.812Z" fill="black"/>
<path d="M302.692 193.342C303.015 193.047 303.474 192.758 303.86 192.965C304.195 193.145 304.257 193.59 304.278 193.969C304.492 197.683 304.706 201.398 304.919 205.112C304.874 201.79 305.74 198.354 307.897 195.823C308.429 195.199 309.367 194.612 309.995 195.138C310.373 195.455 310.402 196.017 310.38 196.509C310.195 200.679 308.522 204.988 309.992 208.896C310.254 206.412 310.847 203.962 311.749 201.632C312.119 200.678 312.577 199.696 313.413 199.103C314.249 198.509 315.566 198.474 316.191 199.285C316.856 200.147 316.445 201.375 316.08 202.399C315.021 205.366 314.573 208.549 314.769 211.692C315.175 209.236 315.682 206.588 317.519 204.902C318.057 204.408 318.722 204.011 319.451 203.951C320.18 203.892 320.971 204.234 321.286 204.892C321.633 205.616 321.346 206.466 321.114 207.234C320.219 210.196 320.239 213.415 321.108 216.38C321.76 218.603 324.555 221.597 321.599 223.332C320.584 223.928 319.332 223.974 318.167 223.808C314.875 223.337 312.012 221.355 309.439 219.254C306.811 217.108 304.316 214.753 302.399 211.958C300.482 209.163 299.162 205.889 299.065 202.504C298.968 199.119 300.189 195.63 302.692 193.342Z" fill="url(#paint27_linear_64_84)"/>
<path d="M373.74 147.948L380.896 153.939L396.36 145.783L402.585 153.939L385.615 168.517L380.897 160.867L373.74 166.574L371.01 155.962L373.74 147.948Z" fill="url(#paint28_linear_64_84)"/>
<path d="M385.615 168.867C385.597 168.867 385.579 168.866 385.561 168.863C385.46 168.847 385.371 168.788 385.317 168.701L380.806 161.388L373.96 166.847C373.867 166.922 373.742 166.944 373.63 166.906C373.517 166.868 373.431 166.776 373.401 166.661L372.332 162.503C372.283 162.316 372.396 162.125 372.584 162.077C372.769 162.029 372.962 162.141 373.01 162.329L373.946 165.963L380.679 160.593C380.757 160.531 380.857 160.505 380.957 160.522C381.056 160.539 381.143 160.598 381.195 160.683L385.698 167.984L389.566 164.662C389.713 164.536 389.933 164.553 390.06 164.699C390.186 164.846 390.169 165.067 390.023 165.193L385.844 168.783C385.78 168.838 385.698 168.867 385.615 168.867Z" fill="black"/>
<path d="M380.897 154.289C380.816 154.289 380.736 154.261 380.671 154.207L373.907 148.545L372.914 151.459C372.852 151.642 372.653 151.74 372.47 151.678C372.287 151.615 372.189 151.416 372.251 151.233L373.409 147.836C373.446 147.726 373.535 147.642 373.646 147.611C373.758 147.58 373.877 147.606 373.966 147.68L380.941 153.519L396.197 145.474C396.349 145.394 396.536 145.435 396.639 145.571L400.244 150.294C400.361 150.447 400.332 150.667 400.178 150.785C400.024 150.902 399.804 150.872 399.687 150.719L396.262 146.231L381.06 154.248C381.008 154.275 380.952 154.289 380.897 154.289Z" fill="black"/>
<defs>
<linearGradient id="paint0_linear_64_84" x1="171.029" y1="150.657" x2="192.616" y2="154.814" gradientUnits="userSpaceOnUse">
<stop stop-color="#8B8B8B"/>
<stop offset="1" stop-color="#434343"/>
</linearGradient>
<linearGradient id="paint1_linear_64_84" x1="170.56" y1="135.448" x2="200.035" y2="143.632" gradientUnits="userSpaceOnUse">
<stop stop-color="#8B8B8B"/>
<stop offset="1" stop-color="#434343"/>
</linearGradient>
<linearGradient id="paint2_linear_64_84" x1="52.5234" y1="251.763" x2="88.7211" y2="312.291" gradientUnits="userSpaceOnUse">
<stop stop-color="#8B8B8B"/>
<stop offset="1" stop-color="#434343"/>
</linearGradient>
<linearGradient id="paint3_linear_64_84" x1="24.625" y1="247.107" x2="84.8035" y2="277.292" gradientUnits="userSpaceOnUse">
<stop stop-color="#8B8B8B"/>
<stop offset="1" stop-color="#434343"/>
</linearGradient>
<linearGradient id="paint4_linear_64_84" x1="144.722" y1="185.465" x2="159.33" y2="204.372" gradientUnits="userSpaceOnUse">
<stop stop-color="#8B8B8B"/>
<stop offset="1" stop-color="#434343"/>
</linearGradient>
<linearGradient id="paint5_linear_64_84" x1="127.213" y1="176.615" x2="178.577" y2="201.059" gradientUnits="userSpaceOnUse">
<stop stop-color="#8B8B8B"/>
<stop offset="1" stop-color="#434343"/>
</linearGradient>
<linearGradient id="paint6_linear_64_84" x1="64.5586" y1="231.643" x2="104.522" y2="245.417" gradientUnits="userSpaceOnUse">
<stop stop-color="#8B8B8B"/>
<stop offset="1" stop-color="#434343"/>
</linearGradient>
<linearGradient id="paint7_linear_64_84" x1="64.2627" y1="161.434" x2="97.9286" y2="170.045" gradientUnits="userSpaceOnUse">
<stop stop-color="#8B8B8B"/>
<stop offset="1" stop-color="#434343"/>
</linearGradient>
<linearGradient id="paint8_linear_64_84" x1="67.8896" y1="144.441" x2="105.227" y2="156.086" gradientUnits="userSpaceOnUse">
<stop stop-color="#8B8B8B"/>
<stop offset="1" stop-color="#434343"/>
</linearGradient>
<linearGradient id="paint9_linear_64_84" x1="148.702" y1="179.72" x2="214.99" y2="201.429" gradientUnits="userSpaceOnUse">
<stop stop-color="#8B8B8B"/>
<stop offset="1" stop-color="#434343"/>
</linearGradient>
<linearGradient id="paint10_linear_64_84" x1="256.982" y1="245.958" x2="301.168" y2="259.953" gradientUnits="userSpaceOnUse">
<stop stop-color="#8B8B8B"/>
<stop offset="1" stop-color="#434343"/>
</linearGradient>
<linearGradient id="paint11_linear_64_84" x1="193.969" y1="272.65" x2="194.127" y2="275.994" gradientUnits="userSpaceOnUse">
<stop stop-color="#8B8B8B"/>
<stop offset="1" stop-color="#434343"/>
</linearGradient>
<linearGradient id="paint12_linear_64_84" x1="264.832" y1="160.948" x2="306.781" y2="165.957" gradientUnits="userSpaceOnUse">
<stop stop-color="#8B8B8B"/>
<stop offset="1" stop-color="#434343"/>
</linearGradient>
<linearGradient id="paint13_linear_64_84" x1="253.849" y1="151.561" x2="290.286" y2="163.249" gradientUnits="userSpaceOnUse">
<stop stop-color="#8B8B8B"/>
<stop offset="1" stop-color="#434343"/>
</linearGradient>
<linearGradient id="paint14_linear_64_84" x1="20.9541" y1="15.7074" x2="33.4953" y2="19.0213" gradientUnits="userSpaceOnUse">
<stop stop-color="#8B8B8B"/>
<stop offset="1" stop-color="#434343"/>
</linearGradient>
<linearGradient id="paint15_linear_64_84" x1="15.6924" y1="20.661" x2="40.6686" y2="27.2608" gradientUnits="userSpaceOnUse">
<stop stop-color="#8B8B8B"/>
<stop offset="1" stop-color="#434343"/>
</linearGradient>
<linearGradient id="paint16_linear_64_84" x1="9.40039" y1="144.179" x2="21.9419" y2="147.493" gradientUnits="userSpaceOnUse">
<stop stop-color="#8B8B8B"/>
<stop offset="1" stop-color="#434343"/>
</linearGradient>
<linearGradient id="paint17_linear_64_84" x1="12.2168" y1="118.188" x2="39.4479" y2="125.384" gradientUnits="userSpaceOnUse">
<stop stop-color="#8B8B8B"/>
<stop offset="1" stop-color="#434343"/>
</linearGradient>
<linearGradient id="paint18_linear_64_84" x1="401.822" y1="9.5321" x2="416.393" y2="13.3821" gradientUnits="userSpaceOnUse">
<stop stop-color="#8B8B8B"/>
<stop offset="1" stop-color="#434343"/>
</linearGradient>
<linearGradient id="paint19_linear_64_84" x1="403.371" y1="9.53223" x2="428.023" y2="16.0463" gradientUnits="userSpaceOnUse">
<stop stop-color="#8B8B8B"/>
<stop offset="1" stop-color="#434343"/>
</linearGradient>
<linearGradient id="paint20_linear_64_84" x1="411.881" y1="135.775" x2="436.533" y2="142.289" gradientUnits="userSpaceOnUse">
<stop stop-color="#8B8B8B"/>
<stop offset="1" stop-color="#434343"/>
</linearGradient>
<linearGradient id="paint21_linear_64_84" x1="415.403" y1="133.839" x2="428.415" y2="137.277" gradientUnits="userSpaceOnUse">
<stop stop-color="#8B8B8B"/>
<stop offset="1" stop-color="#434343"/>
</linearGradient>
<linearGradient id="paint22_linear_64_84" x1="360.27" y1="122.277" x2="408.231" y2="127.457" gradientUnits="userSpaceOnUse">
<stop stop-color="#8B8B8B"/>
<stop offset="1" stop-color="#434343"/>
</linearGradient>
<linearGradient id="paint23_linear_64_84" x1="356.372" y1="102.413" x2="395.811" y2="114.583" gradientUnits="userSpaceOnUse">
<stop stop-color="#8B8B8B"/>
<stop offset="1" stop-color="#434343"/>
</linearGradient>
<linearGradient id="paint24_linear_64_84" x1="358.068" y1="157.15" x2="413.548" y2="169.39" gradientUnits="userSpaceOnUse">
<stop stop-color="#8B8B8B"/>
<stop offset="1" stop-color="#434343"/>
</linearGradient>
<linearGradient id="paint25_linear_64_84" x1="338.677" y1="198.65" x2="410.831" y2="224.187" gradientUnits="userSpaceOnUse">
<stop stop-color="#8B8B8B"/>
<stop offset="1" stop-color="#434343"/>
</linearGradient>
<linearGradient id="paint26_linear_64_84" x1="298.793" y1="202.098" x2="353.798" y2="222.485" gradientUnits="userSpaceOnUse">
<stop stop-color="#8B8B8B"/>
<stop offset="1" stop-color="#434343"/>
</linearGradient>
<linearGradient id="paint27_linear_64_84" x1="299.06" y1="192.895" x2="328.036" y2="198.788" gradientUnits="userSpaceOnUse">
<stop stop-color="#8B8B8B"/>
<stop offset="1" stop-color="#434343"/>
</linearGradient>
<linearGradient id="paint28_linear_64_84" x1="371.01" y1="145.783" x2="406.191" y2="158.687" gradientUnits="userSpaceOnUse">
<stop stop-color="#8B8B8B"/>
<stop offset="1" stop-color="#434343"/>
</linearGradient>
</defs>
</svg>
