<svg width="458" height="375" viewBox="0 0 458 375" fill="none" xmlns="http://www.w3.org/2000/svg">
<circle cx="228.701" cy="44.4077" r="44.4077" fill="url(#paint0_linear_607_1029)"/>
<circle cx="88.8139" cy="107.689" r="44.4077" fill="url(#paint1_linear_607_1029)"/>
<circle cx="44.4077" cy="233.141" r="44.4077" fill="url(#paint2_linear_607_1029)"/>
<circle cx="366.408" cy="107.689" r="44.4077" fill="url(#paint3_linear_607_1029)"/>
<circle cx="412.99" cy="233.141" r="44.4077" fill="url(#paint4_linear_607_1029)"/>
<path d="M86.1497 232.031C86.1497 233.504 87.3436 234.697 88.8164 234.697C90.2892 234.697 91.4831 233.504 91.4831 232.031C91.4831 230.558 90.2892 229.364 88.8164 229.364C87.3436 229.364 86.1497 230.558 86.1497 232.031ZM167 240.501L167.045 234.727L162.023 237.575L167 240.501ZM89.2877 232.198C89.3911 231.906 89.511 231.615 89.647 231.324L88.7413 230.9C88.5922 231.219 88.4598 231.54 88.3451 231.864L89.2877 232.198ZM90.6088 229.657C90.9619 229.143 91.3645 228.633 91.814 228.131L91.0687 227.464C90.5932 227.996 90.1638 228.539 89.7844 229.091L90.6088 229.657ZM93.1932 226.744C93.6619 226.317 94.1645 225.897 94.6988 225.486L94.0889 224.693C93.534 225.12 93.0101 225.558 92.5195 226.005L93.1932 226.744ZM96.2999 224.342C96.8349 223.987 97.3941 223.64 97.9759 223.303L97.474 222.438C96.8756 222.785 96.2993 223.142 95.7467 223.509L96.2999 224.342ZM99.713 222.357C100.291 222.061 100.888 221.774 101.501 221.497L101.09 220.586C100.462 220.869 99.8511 221.163 99.258 221.466L99.713 222.357ZM103.333 220.719C103.939 220.477 104.558 220.244 105.191 220.021L104.858 219.078C104.213 219.305 103.581 219.543 102.962 219.79L103.333 220.719ZM107.072 219.398C107.698 219.204 108.335 219.019 108.982 218.845L108.722 217.88C108.063 218.057 107.414 218.245 106.776 218.443L107.072 219.398ZM110.917 218.36C111.556 218.212 112.203 218.074 112.857 217.946L112.665 216.965C112 217.095 111.341 217.235 110.691 217.386L110.917 218.36ZM114.814 217.598C115.466 217.494 116.124 217.399 116.787 217.316L116.662 216.324C115.988 216.409 115.319 216.504 114.656 216.611L114.814 217.598ZM118.763 217.1C119.42 217.04 120.081 216.99 120.745 216.951L120.687 215.953C120.011 215.992 119.339 216.043 118.672 216.105L118.763 217.1ZM122.736 216.868C123.396 216.852 124.058 216.847 124.723 216.853L124.733 215.853C124.056 215.847 123.382 215.852 122.711 215.869L122.736 216.868ZM126.711 216.905C127.372 216.934 128.034 216.975 128.698 217.027L128.777 216.03C128.101 215.977 127.427 215.936 126.754 215.906L126.711 216.905ZM130.675 217.218C131.332 217.293 131.989 217.381 132.645 217.48L132.795 216.492C132.126 216.39 131.457 216.301 130.789 216.225L130.675 217.218ZM134.606 217.815C135.255 217.938 135.902 218.074 136.549 218.222L136.772 217.248C136.114 217.096 135.454 216.958 134.793 216.833L134.606 217.815ZM138.476 218.705C139.114 218.878 139.749 219.064 140.383 219.263L140.683 218.309C140.037 218.106 139.388 217.916 138.738 217.74L138.476 218.705ZM142.262 219.896C142.884 220.12 143.502 220.357 144.117 220.608L144.495 219.682C143.867 219.426 143.235 219.184 142.601 218.955L142.262 219.896ZM145.936 221.396C146.535 221.671 147.13 221.96 147.72 222.262L148.176 221.372C147.573 221.063 146.965 220.768 146.353 220.487L145.936 221.396ZM149.468 223.207C150.039 223.533 150.605 223.872 151.165 224.225L151.698 223.379C151.125 223.018 150.547 222.671 149.963 222.339L149.468 223.207ZM152.819 225.322C153.359 225.697 153.892 226.087 154.42 226.491L155.028 225.697C154.488 225.284 153.942 224.885 153.391 224.501L152.819 225.322ZM155.964 227.73C156.468 228.154 156.966 228.592 157.456 229.045L158.134 228.31C157.632 227.847 157.123 227.399 156.608 226.965L155.964 227.73ZM158.878 230.416C159.341 230.884 159.798 231.366 160.247 231.862L160.988 231.191C160.529 230.683 160.062 230.191 159.588 229.712L158.878 230.416ZM161.54 233.354C161.959 233.86 162.371 234.379 162.775 234.912L163.572 234.308C163.159 233.764 162.738 233.233 162.31 232.716L161.54 233.354ZM163.938 236.515C164.311 237.053 164.678 237.605 165.036 238.17L165.88 237.634C165.515 237.058 165.141 236.495 164.759 235.945L163.938 236.515Z" fill="#515151"/>
<path d="M370.698 232.03C370.698 233.503 369.504 234.697 368.031 234.697C366.558 234.697 365.365 233.503 365.365 232.03C365.365 230.557 366.558 229.363 368.031 229.363C369.504 229.363 370.698 230.557 370.698 232.03ZM292 243.499L290.185 238.019L295.839 239.187L292 243.499ZM367.615 232.307C367.439 232.043 367.253 231.781 367.056 231.521L367.854 230.918C368.062 231.193 368.26 231.471 368.447 231.752L367.615 232.307ZM365.792 230.024C365.355 229.555 364.885 229.096 364.384 228.646L365.053 227.902C365.574 228.37 366.065 228.85 366.523 229.341L365.792 230.024ZM362.863 227.381C362.349 226.984 361.811 226.596 361.25 226.218L361.809 225.389C362.387 225.778 362.942 226.179 363.474 226.589L362.863 227.381ZM359.579 225.16C359.02 224.827 358.443 224.503 357.849 224.189L358.317 223.305C358.925 223.627 359.517 223.959 360.09 224.3L359.579 225.16ZM356.069 223.297C355.474 223.016 354.865 222.744 354.244 222.481L354.633 221.56C355.267 221.828 355.889 222.106 356.496 222.393L356.069 223.297ZM352.396 221.742C351.781 221.509 351.155 221.285 350.52 221.071L350.84 220.123C351.486 220.342 352.123 220.569 352.75 220.806L352.396 221.742ZM348.615 220.464C347.982 220.274 347.34 220.094 346.692 219.922L346.947 218.956C347.606 219.13 348.258 219.313 348.902 219.506L348.615 220.464ZM344.756 219.444C344.11 219.295 343.458 219.155 342.801 219.025L342.995 218.044C343.662 218.176 344.325 218.318 344.981 218.47L344.756 219.444ZM340.835 218.668C340.18 218.559 339.522 218.46 338.861 218.37L338.995 217.379C339.666 217.47 340.334 217.571 340.999 217.681L340.835 218.668ZM336.875 218.132C336.214 218.063 335.551 218.004 334.886 217.955L334.959 216.958C335.634 217.008 336.308 217.068 336.979 217.138L336.875 218.132ZM332.892 217.839C332.226 217.811 331.56 217.793 330.895 217.785L330.906 216.785C331.582 216.793 332.259 216.811 332.934 216.84L332.892 217.839ZM328.898 217.795C328.231 217.809 327.566 217.834 326.902 217.871L326.848 216.872C327.523 216.835 328.199 216.81 328.877 216.795L328.898 217.795ZM324.913 218.013C324.248 218.072 323.587 218.143 322.928 218.226L322.803 217.234C323.474 217.149 324.148 217.077 324.824 217.017L324.913 218.013ZM320.953 218.511C320.297 218.618 319.644 218.738 318.996 218.871L318.796 217.891C319.457 217.756 320.122 217.634 320.792 217.524L320.953 218.511ZM317.05 219.31C316.403 219.471 315.762 219.645 315.128 219.832L314.845 218.873C315.494 218.681 316.149 218.504 316.809 218.34L317.05 219.31ZM313.237 220.437C312.607 220.656 311.985 220.888 311.372 221.135L310.998 220.207C311.627 219.954 312.265 219.716 312.91 219.492L313.237 220.437ZM309.549 221.924C308.947 222.203 308.355 222.498 307.774 222.808L307.304 221.926C307.901 221.607 308.509 221.304 309.127 221.017L309.549 221.924ZM306.051 223.793C305.486 224.138 304.933 224.5 304.393 224.878L303.82 224.058C304.377 223.668 304.947 223.296 305.529 222.94L306.051 223.793ZM302.809 226.064C302.294 226.476 301.793 226.906 301.307 227.352L300.63 226.615C301.134 226.153 301.652 225.71 302.184 225.283L302.809 226.064ZM299.898 228.738C299.447 229.214 299.01 229.708 298.59 230.219L297.817 229.585C298.253 229.055 298.705 228.543 299.173 228.05L299.898 228.738ZM297.39 231.792C297.013 232.324 296.653 232.873 296.31 233.44L295.455 232.922C295.81 232.335 296.184 231.766 296.574 231.214L297.39 231.792ZM295.345 235.167C295.047 235.748 294.765 236.346 294.501 236.96L293.582 236.565C293.855 235.93 294.147 235.312 294.455 234.711L295.345 235.167ZM293.784 238.794C293.565 239.41 293.364 240.042 293.179 240.691L292.217 240.417C292.408 239.749 292.616 239.096 292.841 238.46L293.784 238.794Z" fill="#515151"/>
<path d="M128.333 122C128.333 123.473 129.527 124.667 131 124.667C132.473 124.667 133.667 123.473 133.667 122C133.667 120.527 132.473 119.333 131 119.333C129.527 119.333 128.333 120.527 128.333 122ZM193 187L194.764 181.503L189.121 182.723L193 187ZM130.841 122.474C131.148 122.577 131.461 122.685 131.78 122.798L132.114 121.855C131.79 121.741 131.471 121.631 131.159 121.526L130.841 122.474ZM133.678 123.501C134.288 123.736 134.914 123.988 135.557 124.254L135.94 123.331C135.29 123.061 134.656 122.807 134.038 122.568L133.678 123.501ZM137.418 125.052C138.021 125.319 138.636 125.598 139.261 125.891L139.684 124.985C139.053 124.69 138.432 124.407 137.822 124.138L137.418 125.052ZM141.088 126.767C141.684 127.061 142.288 127.365 142.9 127.681L143.358 126.792C142.741 126.474 142.132 126.166 141.53 125.87L141.088 126.767ZM144.696 128.629C145.283 128.946 145.875 129.272 146.472 129.609L146.963 128.738C146.361 128.398 145.763 128.069 145.171 127.749L144.696 128.629ZM148.225 130.617C148.801 130.955 149.38 131.302 149.963 131.658L150.484 130.805C149.897 130.446 149.312 130.096 148.731 129.754L148.225 130.617ZM151.686 132.732C152.252 133.092 152.82 133.46 153.39 133.837L153.941 133.002C153.367 132.623 152.793 132.251 152.222 131.888L151.686 132.732ZM155.067 134.966C155.62 135.346 156.174 135.733 156.728 136.128L157.309 135.314C156.75 134.915 156.191 134.524 155.633 134.142L155.067 134.966ZM158.372 137.322C158.911 137.721 159.45 138.127 159.988 138.541L160.597 137.748C160.054 137.331 159.511 136.921 158.967 136.518L158.372 137.322ZM161.582 139.79C162.108 140.21 162.633 140.637 163.157 141.071L163.795 140.302C163.267 139.863 162.737 139.432 162.206 139.008L161.582 139.79ZM164.703 142.379C165.212 142.817 165.719 143.263 166.224 143.715L166.892 142.971C166.382 142.514 165.87 142.064 165.356 141.621L164.703 142.379ZM167.722 145.084C168.214 145.543 168.703 146.008 169.189 146.479L169.885 145.762C169.394 145.285 168.9 144.816 168.404 144.353L167.722 145.084ZM170.627 147.904C171.101 148.384 171.572 148.869 172.039 149.362L172.764 148.673C172.293 148.176 171.817 147.685 171.338 147.201L170.627 147.904ZM173.415 150.844C173.868 151.342 174.316 151.846 174.761 152.357L175.515 151.701C175.066 151.184 174.613 150.675 174.155 150.171L173.415 150.844ZM176.074 153.901C176.504 154.418 176.929 154.941 177.349 155.471L178.132 154.849C177.707 154.314 177.277 153.785 176.843 153.262L176.074 153.901ZM178.589 157.072C178.995 157.608 179.396 158.151 179.791 158.7L180.603 158.116C180.203 157.561 179.798 157.011 179.387 156.468L178.589 157.072ZM180.953 160.356C181.333 160.912 181.707 161.474 182.076 162.042L182.915 161.499C182.542 160.923 182.163 160.354 181.778 159.791L180.953 160.356ZM183.153 163.752C183.505 164.326 183.85 164.905 184.188 165.491L185.054 164.99C184.711 164.397 184.362 163.81 184.006 163.23L183.153 163.752ZM185.178 167.256C185.499 167.846 185.813 168.442 186.12 169.044L187.01 168.589C186.7 167.98 186.382 167.376 186.057 166.778L185.178 167.256ZM187.015 170.86C187.304 171.466 187.585 172.077 187.859 172.695L188.773 172.289C188.496 171.664 188.211 171.044 187.918 170.43L187.015 170.86ZM188.653 174.555C188.909 175.176 189.156 175.804 189.396 176.436L190.331 176.082C190.088 175.441 189.837 174.805 189.578 174.175L188.653 174.555ZM190.084 178.334C190.305 178.97 190.517 179.612 190.721 180.259L191.675 179.958C191.468 179.302 191.253 178.652 191.029 178.007L190.084 178.334ZM191.3 182.19C191.484 182.836 191.66 183.487 191.826 184.144L192.796 183.898C192.627 183.232 192.449 182.571 192.262 181.916L191.3 182.19Z" fill="#515151"/>
<path d="M328.667 122C328.667 123.473 327.473 124.667 326 124.667C324.527 124.667 323.333 123.473 323.333 122C323.333 120.527 324.527 119.333 326 119.333C327.473 119.333 328.667 120.527 328.667 122ZM263 187L261.253 181.497L266.892 182.735L263 187ZM326.157 122.475C325.86 122.573 325.557 122.676 325.249 122.783L324.921 121.838C325.234 121.729 325.541 121.625 325.843 121.525L326.157 122.475ZM323.412 123.449C322.821 123.673 322.214 123.91 321.592 124.163L321.216 123.236C321.845 122.981 322.46 122.74 323.059 122.514L323.412 123.449ZM319.787 124.917C319.201 125.17 318.604 125.434 317.997 125.71L317.583 124.8C318.196 124.521 318.799 124.254 319.392 123.999L319.787 124.917ZM316.221 126.539C315.64 126.817 315.052 127.104 314.457 127.402L314.009 126.508C314.61 126.207 315.203 125.917 315.789 125.637L316.221 126.539ZM312.718 128.292C312.149 128.59 311.574 128.897 310.995 129.213L310.516 128.334C311.101 128.016 311.681 127.706 312.255 127.406L312.718 128.292ZM309.283 130.165C308.72 130.484 308.153 130.812 307.583 131.148L307.075 130.287C307.65 129.948 308.222 129.617 308.79 129.295L309.283 130.165ZM305.908 132.156C305.357 132.493 304.804 132.838 304.249 133.191L303.713 132.347C304.272 131.991 304.83 131.643 305.385 131.303L305.908 132.156ZM302.603 134.257C302.062 134.614 301.519 134.978 300.976 135.35L300.411 134.524C300.959 134.149 301.506 133.782 302.052 133.422L302.603 134.257ZM299.373 136.466C298.843 136.842 298.313 137.224 297.783 137.613L297.191 136.808C297.725 136.415 298.26 136.029 298.794 135.65L299.373 136.466ZM296.215 138.788C295.699 139.181 295.184 139.58 294.671 139.986L294.051 139.201C294.569 138.792 295.088 138.389 295.608 137.992L296.215 138.788ZM293.144 141.215C292.642 141.626 292.141 142.045 291.641 142.469L290.994 141.707C291.497 141.279 292.003 140.857 292.51 140.441L293.144 141.215ZM290.164 143.749C289.676 144.18 289.19 144.617 288.706 145.06L288.031 144.323C288.519 143.876 289.009 143.435 289.502 143L290.164 143.749ZM287.278 146.395C286.808 146.843 286.34 147.298 285.875 147.758L285.171 147.048C285.641 146.583 286.113 146.124 286.589 145.671L287.278 146.395ZM284.497 149.151C284.045 149.617 283.597 150.089 283.152 150.567L282.42 149.885C282.869 149.402 283.323 148.926 283.779 148.455L284.497 149.151ZM281.833 152.013C281.4 152.498 280.971 152.989 280.546 153.485L279.786 152.835C280.216 152.333 280.649 151.837 281.087 151.347L281.833 152.013ZM279.292 154.985C278.88 155.489 278.472 155.998 278.069 156.514L277.281 155.898C277.689 155.376 278.101 154.861 278.518 154.351L279.292 154.985ZM276.884 158.065C276.495 158.587 276.112 159.114 275.733 159.646L274.918 159.067C275.301 158.528 275.689 157.995 276.083 157.467L276.884 158.065ZM274.621 161.253C274.257 161.791 273.899 162.335 273.547 162.885L272.705 162.345C273.061 161.789 273.424 161.238 273.792 160.693L274.621 161.253ZM272.512 164.545C272.175 165.099 271.845 165.66 271.521 166.225L270.653 165.728C270.981 165.155 271.316 164.588 271.657 164.026L272.512 164.545ZM270.571 167.934C270.263 168.506 269.961 169.082 269.666 169.664L268.774 169.212C269.073 168.622 269.378 168.038 269.69 167.46L270.571 167.934ZM268.807 171.418C268.529 172.005 268.258 172.597 267.994 173.194L267.079 172.79C267.346 172.185 267.621 171.584 267.903 170.989L268.807 171.418ZM267.23 174.989C266.983 175.591 266.744 176.197 266.512 176.809L265.577 176.456C265.812 175.835 266.054 175.22 266.304 174.61L267.23 174.989ZM265.848 178.641C265.635 179.254 265.429 179.873 265.232 180.497L264.279 180.195C264.479 179.562 264.687 178.935 264.903 178.312L265.848 178.641ZM264.67 182.363C264.491 182.986 264.32 183.615 264.158 184.248L263.189 184C263.354 183.357 263.527 182.72 263.708 182.087L264.67 182.363Z" fill="#515151"/>
<path d="M225.333 89C225.333 90.4728 226.527 91.6667 228 91.6667C229.473 91.6667 230.667 90.4728 230.667 89C230.667 87.5272 229.473 86.3333 228 86.3333C226.527 86.3333 225.333 87.5272 225.333 89ZM228 155L230.887 150L225.113 150L228 155ZM227.5 89L227.5 89.9706L228.5 89.9706L228.5 89L227.5 89ZM227.5 91.9118L227.5 93.8529L228.5 93.8529L228.5 91.9118L227.5 91.9118ZM227.5 95.7941L227.5 97.7353L228.5 97.7353L228.5 95.7941L227.5 95.7941ZM227.5 99.6765L227.5 101.618L228.5 101.618L228.5 99.6765L227.5 99.6765ZM227.5 103.559L227.5 105.5L228.5 105.5L228.5 103.559L227.5 103.559ZM227.5 107.441L227.5 109.382L228.5 109.382L228.5 107.441L227.5 107.441ZM227.5 111.324L227.5 113.265L228.5 113.265L228.5 111.324L227.5 111.324ZM227.5 115.206L227.5 117.147L228.5 117.147L228.5 115.206L227.5 115.206ZM227.5 119.088L227.5 121.029L228.5 121.029L228.5 119.088L227.5 119.088ZM227.5 122.971L227.5 124.912L228.5 124.912L228.5 122.971L227.5 122.971ZM227.5 126.853L227.5 128.794L228.5 128.794L228.5 126.853L227.5 126.853ZM227.5 130.735L227.5 132.676L228.5 132.676L228.5 130.735L227.5 130.735ZM227.5 134.618L227.5 136.559L228.5 136.559L228.5 134.618L227.5 134.618ZM227.5 138.5L227.5 140.441L228.5 140.441L228.5 138.5L227.5 138.5ZM227.5 142.382L227.5 144.324L228.5 144.324L228.5 142.382L227.5 142.382ZM227.5 146.265L227.5 148.206L228.5 148.206L228.5 146.265L227.5 146.265ZM227.5 150.147L227.5 152.088L228.5 152.088L228.5 150.147L227.5 150.147Z" fill="#515151"/>
<path fill-rule="evenodd" clip-rule="evenodd" d="M172.582 358.262L200.873 315.624L200.878 315.617H200.878L200.902 315.626L229.021 325.354V312.787L172.582 293.765V294.551V294.708V358.262ZM180.471 365.528L206.537 374.604V360.677L188.215 353.584L180.471 365.528ZM229.021 374.559V358.686L215.184 353.82V369.541L229.021 374.559ZM229.021 349.73V334.976L227.867 334.571L215.184 330.238V345.016L229.021 349.73ZM206.537 327.094V351.562L192.858 346.588L192.781 346.542L205.587 326.791L206.537 327.094Z" fill="#3A7FD0"/>
<path fill-rule="evenodd" clip-rule="evenodd" d="M285.461 358.262L257.17 315.624L257.165 315.617H257.165L257.141 315.626L229.022 325.354V312.787L285.461 293.765V294.551V294.708V358.262ZM277.572 365.528L251.506 374.604V360.677L269.828 353.584L277.572 365.528ZM229.022 374.559V358.686L242.859 353.82V369.541L229.022 374.559ZM229.022 349.73V334.976L230.176 334.571L242.859 330.238V345.016L229.022 349.73ZM251.506 327.094V351.562L265.185 346.588L265.262 346.542L252.456 326.791L251.506 327.094Z" fill="#2B63A6"/>
<path d="M172.598 293.867L229.099 312.998L285.442 293.867L228.312 276L172.598 293.867Z" fill="#1E4A7E"/>
<path d="M224.929 259.986C224.929 259.986 237.901 260.531 254.74 260.093C261.356 270.209 265.354 278.906 264.11 289.193C264.11 289.193 261.482 297.518 248.635 298.3L222.742 294.271L199.864 295.116C199.864 295.116 177.588 270.72 191.881 266.445L219.493 270.022L224.929 259.986Z" fill="#0058A7"/>
<path d="M260.794 278.729C258.218 276.677 256.2 273.751 253.887 271.393C252.976 270.463 252.18 269.468 251.389 268.44C250.602 267.417 249.607 266.72 248.886 265.696C248.847 265.639 249.021 265.637 249.051 265.662C250.083 266.493 251.437 267.102 252.562 267.817C253.879 268.654 254.972 269.671 256.067 270.768C257.245 271.947 258.383 273.164 259.497 274.403C260.568 275.594 261.845 276.882 262.405 278.396C262.661 279.089 261.102 278.975 260.794 278.729Z" fill="#00387A"/>
<path d="M237.455 211.751L249.235 211.997L249.504 199.141L237.725 198.894C237.725 198.894 238.768 209.05 237.455 211.751Z" fill="#F8AF99"/>
<path d="M238.056 208.521C240.729 208.303 243.268 208.2 245.892 207.432C247.149 207.063 248.299 206.603 249.36 205.989L249.504 199.141L237.725 198.894C237.725 198.894 238.303 204.529 238.056 208.521Z" fill="#F5907E"/>
<path d="M230.133 189.709C230.876 191.576 231.637 193.746 232.933 195.383C234.413 197.255 236.583 197.387 237.583 195.051C238.525 192.853 238.492 190.137 238.085 187.878C237.864 186.644 237.448 185.246 236.294 184.406C234.491 183.094 232.115 183.503 230.775 185.056C229.519 186.512 229.48 188.064 230.133 189.709Z" fill="#4B4B4B"/>
<path d="M232.03 192.849C232.154 195.093 232.486 197.331 233.077 199.501C233.678 201.703 234.497 205.829 236.981 206.749C237.749 207.033 238.374 207.012 239.26 206.957C242.644 206.745 246.25 204.494 248.4 201.982C252.412 197.3 252.4 185.94 248.382 181.538C244.714 177.519 233.049 179.587 232.266 185.996C231.995 188.207 231.902 190.527 232.03 192.849Z" fill="#F8AF99"/>
<path d="M234.562 198.344C234.805 198.454 235.302 198.701 235.567 198.767C236.564 199.016 237.478 198.901 238.461 198.628C239.85 198.242 241.23 197.383 242.7 197.878C243.587 198.177 244.35 198.375 245.286 198.332C246.47 198.277 247.524 197.475 247.994 196.404C248.358 195.575 248.427 194.495 248.908 193.745C249.52 192.788 250.377 192.137 251.402 191.807C251.381 195.732 251.236 201.396 249.256 203.707C247.105 206.219 241.657 208.517 238.274 208.729C237.389 208.784 236.764 208.806 235.996 208.521C233.511 207.601 233.68 201.703 233.079 199.501C232.942 198.997 232.821 198.489 232.712 197.98C233.266 197.89 233.844 198.018 234.562 198.344Z" fill="#4B4B4B"/>
<path d="M249.199 191.607C248.692 190.765 249.86 189.698 250.561 189.388C251.266 189.076 252.495 189.078 252.949 189.814C252.983 189.876 252.983 189.938 252.949 190C252.934 190.024 252.92 190.048 252.906 190.072C252.887 190.003 252.869 189.934 252.851 189.866C253.119 190.164 253.205 190.658 253.321 191.04C253.478 191.558 253.541 192.085 253.438 192.617C253.428 192.67 253.291 192.677 253.274 192.628C253.092 192.126 252.936 191.617 252.74 191.119C252.644 190.873 252.507 190.639 252.387 190.404C252.424 190.231 252.35 190.186 252.166 190.268C252.03 190.269 251.898 190.251 251.767 190.215C251.676 190.189 251.584 190.166 251.491 190.148C251.194 190.072 251.327 190.036 251.889 190.04C251.67 190.123 251.472 190.362 251.289 190.506C251.047 190.696 250.888 190.948 250.75 191.217C250.596 191.52 250.538 191.556 250.234 191.742C249.982 191.895 249.37 191.892 249.199 191.607Z" fill="#F6977E"/>
<path d="M248.401 189.661C248.55 190.224 248.667 192.801 248.848 193.299C249.027 193.798 250.159 193.006 250.159 193.006C250.957 192.164 249.925 190.269 251.318 189.963C252.83 189.63 250.622 199.057 250.657 200.085C251.815 198.857 255.881 192.517 256.736 188.126C257.369 184.874 256.634 182.909 255.881 181.651C252.231 175.548 250.915 175.931 247.529 176.405C245.984 176.621 244.801 180.108 244.236 181.635C243.63 183.27 244.742 184.519 245.861 185.569C247.262 186.882 247.713 187.087 248.401 189.661Z" fill="#4B4B4B"/>
<path d="M252.632 189.993C254.214 191.361 253.613 195.725 250.756 197.347C249.963 196.584 249.831 194.39 249.663 193.313C249.499 192.258 249.392 191.242 249.978 190.296C250.159 190.006 251.469 188.988 252.632 189.993Z" fill="#F8AF99"/>
<path d="M232.332 228.839C233.909 219.225 229.077 218.726 229.077 218.726C223.642 217.333 221.114 225.603 221.114 225.603C221.114 225.603 217.194 243.899 217.247 252.099C217.247 252.099 223.011 255.678 225.732 250.567L232.332 228.839Z" fill="#F8AF99"/>
<path d="M247.351 210.159L265.551 216.857L255.531 261.726H231.544L224.948 217.749L238.833 210.159H247.351Z" fill="#F8AF99"/>
<path d="M230.609 244.7L233.574 228.551C233.574 228.551 237.883 219.161 230.375 214.206C230.375 214.206 222.278 215.478 220.779 223.109L216.721 239.23C216.721 239.23 217.128 243.245 230.609 244.7Z" fill="url(#paint5_linear_607_1029)"/>
<path fill-rule="evenodd" clip-rule="evenodd" d="M225.766 216.277L237.929 210.159C240.252 213.984 249.803 210.939 249.803 210.939L260.258 214.916C260.855 215.136 261.473 215.336 262.094 215.536C263.128 215.869 264.17 216.205 265.128 216.643C266.854 217.433 267.101 219.541 266.661 221.289C266.493 221.954 266.157 222.658 265.815 223.374C265.311 224.43 264.795 225.51 264.795 226.518C264.794 229.258 264.449 230.776 263.917 233.118C263.831 233.498 263.74 233.9 263.644 234.332C263.422 235.337 263.276 236.449 263.126 237.584C263.105 237.746 263.083 237.908 263.062 238.071C263.059 240.679 263.597 245.099 264.108 247.621C264.45 249.309 264.572 251.189 264.694 253.083C264.844 255.397 264.996 257.733 265.551 259.77C267.339 266.327 267.957 279.42 266.848 286.379L266.847 286.379C266.734 286.39 260.658 286.981 257.969 280.785C257.085 279.301 256.46 277.659 255.833 276.016C254.963 273.732 254.092 271.447 252.527 269.583C249.96 266.528 245.313 263.42 241.133 263.636C239.99 263.695 238.631 264.444 237.242 265.209C235.5 266.169 233.71 267.155 232.236 266.842C230.859 266.549 229.041 266.965 227.208 267.385C224.805 267.935 222.376 268.492 220.876 267.466C219.681 266.649 221.175 262.567 222.593 258.693C223.692 255.688 224.746 252.809 224.464 251.675C223.758 248.834 224.004 246.357 224.947 243.723C225.487 242.217 226.088 241.555 226.652 240.933C227.251 240.274 227.807 239.661 228.201 238.136L225.766 216.277Z" fill="url(#paint6_linear_607_1029)"/>
<path d="M231.911 265.684C243.739 263.997 272.736 267.039 273.896 253.452C274.844 242.341 271.099 224.824 266.001 220.838C262.215 217.878 257.129 219.523 255.095 223.963C252.83 228.909 259.764 245.971 260.885 253.069C260.885 253.069 250.715 260.013 229.241 262.236L231.911 265.684Z" fill="#F8AF99"/>
<path d="M277.805 249.663L269.026 221.761C267.24 217.048 264.21 216.257 263.594 216.257C254.215 216.255 253.388 227.837 253.388 227.837L257.928 248.299C257.928 248.299 268.143 254.15 277.805 249.663Z" fill="url(#paint7_linear_607_1029)"/>
<path d="M233.672 263.375C233.186 262.731 230.502 262.318 229.239 262.236C225.788 262.008 222.818 262.229 219.609 263.052C218.507 263.335 216.112 263.968 215.095 264.529C214.474 264.872 213.263 265.152 213.466 265.922C213.951 266.183 216.742 265.627 218.581 265.196C215.899 265.978 215.273 266.714 215.219 267.069C215.874 267.791 219.016 266.372 221.226 265.891C221.94 265.736 217.03 267.587 219.43 267.787C219.949 267.83 223.329 266.857 224.931 266.494C224.759 266.659 222.634 267.765 222.687 267.955C222.732 268.449 224.854 267.926 225.913 267.64C227.338 267.255 235.594 265.918 233.672 263.375Z" fill="#F8AF99"/>
<path d="M199.859 256.59C199.27 256.034 196.557 256.075 195.298 256.203C191.856 256.553 188.966 257.264 185.938 258.61C184.898 259.072 182.643 260.095 181.732 260.818C181.176 261.259 180.029 261.736 180.358 262.462C180.88 262.639 183.54 261.626 185.281 260.895C182.766 262.113 182.272 262.942 182.278 263.301C183.043 263.904 185.906 261.982 188.006 261.141C188.684 260.869 184.149 263.511 186.549 263.308C187.068 263.264 190.24 261.742 191.759 261.118C191.615 261.31 189.706 262.754 189.789 262.933C189.917 263.412 191.92 262.543 192.917 262.086C194.258 261.469 202.177 258.776 199.859 256.59Z" fill="#F8AF99"/>
<path d="M217.62 246.289L194.022 257.899L196.387 259.986C196.387 259.986 221.689 256.279 225.289 252.094C225.289 252.094 222.789 245.092 217.62 246.289Z" fill="#F8AF99"/>
<path d="M235.837 212.127C236.358 212.056 236.879 211.985 237.4 211.914C237.671 212.048 237.944 212.178 238.22 212.303C238.897 212.618 239.582 212.849 240.324 212.941C241.386 213.074 242.46 213.176 243.522 213.046C244.474 212.929 245.309 213.156 246.249 212.786C247.087 212.457 247.858 212.323 248.654 212.036C249.028 211.903 250.461 211.866 250.441 212.539C250.407 213.745 248.565 213.738 247.708 214.049C246.279 214.567 244.838 214.321 243.384 214.456C242.048 214.58 240.558 214.217 239.251 213.981C238.214 213.794 236.108 213.171 235.759 212.053C236.07 212.14 236.38 212.226 236.691 212.313C236.371 212.339 236.083 212.357 235.837 212.127Z" fill="#0063AF"/>
<path d="M261.095 216.314C260.209 218.433 258.475 220.067 257.858 222.331C257.321 224.302 257.547 226.338 257.74 228.327C257.974 230.739 258.482 233.143 258.767 235.546C258.927 236.895 259.181 238.228 259.35 239.576C259.528 240.992 259.279 242.401 259.287 243.817C259.288 244.009 258.785 244.003 258.722 243.854C258.201 242.638 257.921 241.4 257.627 240.114C257.309 238.718 256.824 237.368 256.504 235.974C256.223 234.75 255.641 233.606 255.345 232.387C254.981 230.889 254.697 229.377 254.523 227.845C254.303 225.914 254.265 224.031 254.867 222.133C255.276 220.843 256.001 219.615 256.873 218.586C257.773 217.523 258.972 216.906 260.076 216.104C260.264 215.967 261.279 215.875 261.095 216.314Z" fill="#0063AF"/>
<path d="M234.551 212.3C234.354 213.013 233.88 213.497 233.498 214.11C232.832 215.176 232.146 216.661 232.011 217.898C231.907 218.851 231.72 219.797 231.605 220.749C231.474 221.838 231.619 222.934 231.613 224.036C231.601 226.197 231.493 228.366 231.482 230.536C231.473 232.343 231.114 233.97 230.521 235.681C230.451 235.884 229.771 235.878 229.779 235.632C229.839 233.783 229.812 231.911 229.803 230.065C229.791 227.757 229.878 225.459 229.866 223.156C229.86 222.173 229.767 221.294 229.876 220.309C230 219.18 230.16 218.047 230.319 216.923C230.46 215.92 231.371 214.745 231.883 213.891C232.336 213.134 233.149 212.711 233.795 212.144C233.948 212.009 234.64 211.974 234.551 212.3Z" fill="#0063AF"/>
<path d="M232.035 239.139C232.263 242.685 229.017 246.108 230.925 249.545C231.209 250.056 230.046 250.113 229.818 250.088C227.982 249.881 228.526 247.248 228.621 245.96C228.714 244.701 229.595 243.66 230.093 242.544C230.623 241.359 231.076 240.211 231.788 239.123C231.825 239.066 232.03 239.048 232.035 239.139Z" fill="#0063AF"/>
<path d="M252.774 265.064C254.222 265.55 255.412 265.752 256.523 266.909C257.3 267.718 257.973 268.816 258.211 269.92C258.504 271.277 258.615 272.613 259.077 273.938C259.338 274.684 259.638 275.384 260.029 276.071C260.295 276.539 260.736 276.821 261.051 277.247C261.716 278.146 258.912 278.11 258.453 277.784C256.676 276.518 256.004 273.851 255.916 271.755C255.861 270.43 255.667 269.288 255.012 268.113C254.36 266.941 253.223 266.252 252.457 265.183C252.367 265.056 252.725 265.047 252.774 265.064Z" fill="#0063AF"/>
<path d="M195.134 267.793H236.719V269.782H195.134V267.793Z" fill="#A6A8AB"/>
<path d="M183.124 269.782H221.824L218.43 242.462H179.729L183.124 269.782Z" fill="white"/>
<path d="M223.203 269.782H221.824L218.43 242.462H219.808L223.203 269.782Z" fill="#D0D2D3"/>
<path d="M200.776 258.559C199.066 258.559 197.68 257.174 197.68 255.464C197.68 253.755 199.066 252.369 200.776 252.369C202.485 252.369 203.871 253.755 203.871 255.464C203.871 257.174 202.485 258.559 200.776 258.559Z" fill="#D0D2D3"/>
<path d="M220.108 290.117L228.961 293.723L226.685 300.606L217.666 297.561L220.108 290.117Z" fill="#F7A78F"/>
<path d="M208.08 289.67L198.556 290.511L198.708 297.759L208.223 297.503L208.08 289.67Z" fill="#F7A78F"/>
<path d="M201.447 297.78C197.338 298.911 185.615 297.962 181.348 296.344C176.182 294.383 176.538 284.043 183.044 285.525C188.939 286.867 195.133 289.275 201.143 289.763C201.143 289.763 204.723 292.539 201.447 297.78Z" fill="#79CFE1"/>
<path d="M201.448 297.78C199.979 294.752 200.808 288.436 200.808 288.436L205.944 285.739C212.281 280.809 219.802 277.607 226.008 272.515C230.813 268.572 235.514 261.991 242.497 262.69C247.22 263.163 250.475 266.713 253.182 270.275C257.698 276.211 264.109 281.054 264.109 289.193C264.109 296.067 254.991 301.226 250.073 300.45C246.437 299.876 240.975 295.294 238.955 292.534L233.53 285.842C233.53 285.842 231.374 292.868 210.43 297.276C210.43 297.276 204.206 298.608 201.448 297.78Z" fill="#0058A7"/>
<path d="M238.735 263.147C237.405 263.711 236.189 264.977 235.104 265.92C233.733 267.11 232.249 268.126 230.765 269.163C228.175 270.972 225.824 273.148 223.479 275.257C220.838 277.633 218.317 280.015 215.404 282.075C212.071 284.434 208.384 287.3 204.436 288.403C204.253 288.454 203.394 288.471 203.564 288.074C204.303 286.355 206.229 285.428 207.772 284.428C209.502 283.306 211.221 282.169 212.899 280.971C215.881 278.841 218.548 276.346 221.37 274.02C223.851 271.974 226.457 270.009 229.199 268.326C232.158 266.509 235.012 263.792 238.452 262.968C238.552 262.943 238.977 263.045 238.735 263.147Z" fill="#00387A"/>
<path d="M225.376 291.272C222.403 291.18 219.305 289.184 216.813 287.714C213.854 285.968 211.157 283.973 208.547 281.744C205.352 279.014 202.19 276.201 199.11 273.339C197.196 271.559 195.339 269.847 193.155 268.394C192.072 267.673 190.929 267.039 189.79 266.414C188.83 265.886 187.707 265.515 186.993 264.669C186.367 263.93 188.681 263.885 188.922 263.943C191.099 264.465 193.301 266.048 195.189 267.23C197.141 268.451 198.927 269.853 200.557 271.48C202.313 273.235 204.159 274.874 206.031 276.504C207.552 277.828 208.979 279.273 210.544 280.543C211.717 281.496 213.123 282.335 214.461 283.029C216.21 283.936 217.843 285.022 219.528 286.043C220.95 286.905 222.342 287.824 223.74 288.724C224.558 289.25 225.855 289.751 226.243 290.714C226.421 291.155 225.653 291.281 225.376 291.272Z" fill="#00387A"/>
<path d="M237.327 291.541C236.495 290.5 235.479 289.629 234.221 289.158C233.401 288.851 232.083 290.149 231.491 290.603C230.058 291.7 227.471 293.442 225.626 292.283C225.373 292.123 225.175 291.977 225.288 291.656C225.456 291.182 226.055 291.074 226.481 290.978C227.264 290.802 228.023 290.233 228.678 289.797C229.843 289.022 230.999 288.212 232.404 287.963C235.173 287.475 237.228 288.984 238.506 291.382C238.735 291.811 237.545 291.814 237.327 291.541Z" fill="#00387A"/>
<path d="M179.303 263.028C169.743 264.273 172.216 273.147 175.568 276.221C184.591 284.497 197.608 290.729 208.963 295.115C209.348 295.264 220.108 299.279 221.909 299.997C219.673 294.596 224.664 290.833 224.664 290.832C224.664 290.832 211.955 284.68 203.43 275.717C203.43 275.717 190.689 260.617 179.303 263.028Z" fill="#0058A7"/>
<path d="M224.06 299.819C227.654 302.109 239.138 304.652 243.692 304.36C249.206 304.006 251.907 294.019 245.255 293.521C239.226 293.069 232.597 293.549 226.709 292.245C226.709 292.245 222.472 293.846 224.06 299.819Z" fill="#79CFE1"/>
<path d="M246.756 179.418C246.777 181.331 242.734 185.727 240.713 185.532C241.097 184.621 241.074 183.583 241.266 182.685C239.55 183.928 237.106 185.785 235.2 186.644C234.373 187.017 232.17 187.776 231.454 187.171C230.99 186.778 231.295 185.969 231.016 185.521C230.497 184.687 230.541 185.188 229.732 184.717C225.286 182.126 229.715 175.071 233.104 173.114C236.522 171.141 241.735 170.956 245.435 172.227C247.005 172.766 248.644 173.646 249.441 175.118C250.096 176.325 250.788 180.489 248.843 180.863L246.756 179.418Z" fill="#4B4B4B"/>
<path d="M67.2578 233.72H68.7098L70.1838 237.383H70.2058L71.5258 233.72H72.9008L70.4918 239.902C70.0628 240.991 69.7108 241.64 68.3908 241.64C68.0498 241.64 67.7088 241.596 67.3788 241.508L67.5438 240.32C67.7528 240.397 67.9838 240.452 68.2148 240.452C68.9078 240.452 69.0398 240.199 69.2818 239.616L69.5128 239.044L67.2578 233.72Z" fill="white"/>
<path d="M64.171 234.842H63.082V233.72H64.171V232.191H65.491V233.72H66.943V234.842H65.491V237.185C65.491 237.746 65.711 238.01 66.228 238.01C66.558 238.01 66.833 237.933 66.943 237.845V238.956C66.69 239.077 66.195 239.132 65.898 239.132C64.655 239.132 64.171 238.648 64.171 237.317V234.842Z" fill="white"/>
<path d="M61.5118 231.135C61.9958 231.135 62.3698 231.476 62.3698 231.927C62.3698 232.4 61.9848 232.719 61.5118 232.719C61.0388 232.719 60.6758 232.356 60.6758 231.927C60.6758 231.498 61.0388 231.135 61.5118 231.135ZM62.1828 233.72V239H60.8628V233.72H62.1828Z" fill="white"/>
<path d="M55.8434 239H54.5234V233.72H55.7774V234.567H55.7994C56.1184 233.874 56.7234 233.588 57.4164 233.588C58.9894 233.588 59.3414 234.809 59.3414 235.623V239H58.0214V236.261C58.0214 235.205 57.6804 234.776 57.0534 234.776C56.2064 234.776 55.8434 235.392 55.8434 236.096V239Z" fill="white"/>
<path d="M48.207 233.72H49.527V236.448C49.527 237.504 49.857 237.944 50.495 237.944C51.276 237.944 51.705 237.416 51.705 236.602V233.72H53.025V239H51.771V238.153H51.749C51.441 238.813 50.88 239.132 50.132 239.132C48.592 239.132 48.207 237.966 48.207 237.097V233.72Z" fill="white"/>
<path d="M39.902 239H38.582V233.72H39.836V234.545H39.858C40.144 233.951 40.705 233.588 41.475 233.588C42.289 233.588 42.85 233.907 43.125 234.567C43.51 233.896 44.071 233.588 44.863 233.588C46.161 233.588 46.766 234.435 46.766 235.887V239H45.446V235.975C45.446 235.194 45.127 234.776 44.467 234.776C43.774 234.776 43.334 235.282 43.334 236.14V239H42.014V235.821C42.014 235.293 41.805 234.776 41.112 234.776C40.298 234.776 39.902 235.359 39.902 236.118V239Z" fill="white"/>
<path d="M30.3278 239H29.0078V233.72H30.2618V234.545H30.2838C30.5698 233.951 31.1308 233.588 31.9008 233.588C32.7148 233.588 33.2758 233.907 33.5508 234.567C33.9358 233.896 34.4968 233.588 35.2888 233.588C36.5868 233.588 37.1918 234.435 37.1918 235.887V239H35.8718V235.975C35.8718 235.194 35.5528 234.776 34.8928 234.776C34.1998 234.776 33.7598 235.282 33.7598 236.14V239H32.4398V235.821C32.4398 235.293 32.2308 234.776 31.5378 234.776C30.7238 234.776 30.3278 235.359 30.3278 236.118V239Z" fill="white"/>
<path d="M24.9569 233.588C26.5739 233.588 27.8279 234.71 27.8279 236.36C27.8279 238.01 26.5739 239.132 24.9569 239.132C23.3399 239.132 22.0859 238.01 22.0859 236.36C22.0859 234.721 23.3509 233.588 24.9569 233.588ZM23.4059 236.36C23.4059 237.273 24.0659 237.944 24.9569 237.944C25.8809 237.944 26.5079 237.24 26.5079 236.36C26.5079 235.447 25.8479 234.776 24.9459 234.776C24.0659 234.776 23.4059 235.458 23.4059 236.36Z" fill="white"/>
<path d="M18.6374 231.014C19.7484 231.014 20.6284 231.41 21.3654 232.246L20.2874 233.038C19.8364 232.554 19.3304 232.268 18.6484 232.268C17.0534 232.268 15.9754 233.5 15.9754 235.051C15.9754 236.657 17.0094 237.944 18.6484 237.944C19.3854 237.944 19.9574 237.559 20.3974 236.998L21.5414 237.812C20.8704 238.758 19.7814 239.198 18.6374 239.198C16.2394 239.198 14.5234 237.559 14.5234 235.139C14.5234 232.719 16.1514 231.014 18.6374 231.014Z" fill="white"/>
<path d="M103.492 112.588C104.317 112.588 104.999 112.874 105.384 113.391L104.504 114.183C104.24 113.82 103.91 113.644 103.47 113.644C103.041 113.644 102.7 113.864 102.7 114.205C102.7 114.634 103.294 114.711 103.954 114.865C104.768 115.052 105.549 115.349 105.549 116.438C105.549 117.549 104.57 118.132 103.261 118.132C102.447 118.132 101.754 117.923 101.215 117.318L102.095 116.493C102.546 116.988 102.898 117.142 103.349 117.142C103.833 117.142 104.229 116.9 104.229 116.537C104.229 116.031 103.591 115.943 102.92 115.789C102.205 115.624 101.38 115.371 101.38 114.293C101.38 113.006 102.59 112.588 103.492 112.588Z" fill="white"/>
<path d="M97.8859 113.842H96.7969V112.72H97.8859V111.191H99.2059V112.72H100.658V113.842H99.2059V116.185C99.2059 116.746 99.4259 117.01 99.9429 117.01C100.273 117.01 100.548 116.933 100.658 116.845V117.956C100.405 118.077 99.9099 118.132 99.6129 118.132C98.3699 118.132 97.8859 117.648 97.8859 116.317V113.842Z" fill="white"/>
<path d="M95.2266 110.135C95.7106 110.135 96.0846 110.476 96.0846 110.927C96.0846 111.4 95.6996 111.719 95.2266 111.719C94.7536 111.719 94.3906 111.356 94.3906 110.927C94.3906 110.498 94.7536 110.135 95.2266 110.135ZM95.8976 112.72V118H94.5776V112.72H95.8976Z" fill="white"/>
<path d="M91.7374 109.684H93.0574V118H91.8034V117.208H91.7814C91.3854 117.857 90.6924 118.132 89.9554 118.132C88.3494 118.132 87.3594 116.944 87.3594 115.36C87.3594 113.864 88.3494 112.588 89.9114 112.588C90.6154 112.588 91.2534 112.83 91.7044 113.391H91.7374V109.684ZM88.6794 115.36C88.6794 116.24 89.3064 116.944 90.2304 116.944C91.2864 116.944 91.7814 116.086 91.7814 115.36C91.7814 114.403 91.0664 113.776 90.2304 113.776C89.3064 113.776 88.6794 114.491 88.6794 115.36Z" fill="white"/>
<path d="M83.9179 112.588C85.5899 112.588 86.3929 113.853 86.3929 115.448V115.822H82.3669C82.4549 116.581 83.0269 117.076 83.7859 117.076C84.3799 117.076 84.8309 116.823 85.2049 116.361L86.1509 117.076C85.5789 117.78 84.8199 118.132 83.9179 118.132C82.3009 118.132 81.0469 117.01 81.0469 115.36C81.0469 113.721 82.3009 112.588 83.9179 112.588ZM82.3669 114.832H85.0729C85.0619 114.007 84.5009 113.578 83.7199 113.578C82.9389 113.578 82.4659 114.084 82.3669 114.832Z" fill="white"/>
<path d="M77.2266 118V112.72H78.5466V113.556H78.5686C78.8546 112.951 79.4376 112.588 80.1306 112.588C80.3286 112.588 80.4276 112.621 80.6036 112.665V113.941C80.3506 113.875 80.1636 113.842 79.9656 113.842C78.9646 113.842 78.5466 114.546 78.5466 115.25V118H77.2266Z" fill="white"/>
<path d="M74.5273 112.588C75.2422 112.588 75.9573 112.852 76.4413 113.391L75.5283 114.304C75.2643 114.029 74.9233 113.776 74.5273 113.776C73.5703 113.776 72.9762 114.513 72.9762 115.36C72.9762 116.273 73.6363 116.944 74.5273 116.944C74.9233 116.944 75.3083 116.768 75.5503 116.449L76.4303 117.395C75.9903 117.824 75.2092 118.132 74.5273 118.132C72.9103 118.132 71.6562 116.999 71.6562 115.36C71.6562 113.809 72.8223 112.588 74.5273 112.588Z" fill="white"/>
<path d="M101.605 97.6841H102.925V106H101.671V105.208H101.649C101.253 105.857 100.56 106.132 99.8226 106.132C98.2166 106.132 97.2266 104.944 97.2266 103.36C97.2266 101.864 98.2166 100.588 99.7786 100.588C100.483 100.588 101.121 100.83 101.572 101.391H101.605V97.6841ZM98.5466 103.36C98.5466 104.24 99.1736 104.944 100.098 104.944C101.154 104.944 101.649 104.086 101.649 103.36C101.649 102.403 100.934 101.776 100.098 101.776C99.1736 101.776 98.5466 102.491 98.5466 103.36Z" fill="white"/>
<path d="M91.1758 100.72H92.4958V103.448C92.4958 104.504 92.8258 104.944 93.4638 104.944C94.2448 104.944 94.6738 104.416 94.6738 103.602V100.72H95.9938V106H94.7398V105.153H94.7178C94.4098 105.813 93.8488 106.132 93.1008 106.132C91.5608 106.132 91.1758 104.966 91.1758 104.097V100.72Z" fill="white"/>
<path d="M87.0702 100.588C88.6872 100.588 89.9412 101.71 89.9412 103.36C89.9412 105.01 88.6872 106.132 87.0702 106.132C85.4532 106.132 84.1992 105.01 84.1992 103.36C84.1992 101.721 85.4642 100.588 87.0702 100.588ZM85.5192 103.36C85.5192 104.273 86.1792 104.944 87.0702 104.944C87.9942 104.944 88.6212 104.24 88.6212 103.36C88.6212 102.447 87.9612 101.776 87.0592 101.776C86.1792 101.776 85.5192 102.458 85.5192 103.36Z" fill="white"/>
<path d="M82.945 97.6841V106H81.625V97.6841H82.945Z" fill="white"/>
<path d="M77.8913 98.0139C79.0023 98.0139 79.8823 98.4099 80.6193 99.2459L79.5413 100.038C79.0903 99.5539 78.5843 99.2679 77.9023 99.2679C76.3073 99.2679 75.2293 100.5 75.2293 102.051C75.2293 103.657 76.2633 104.944 77.9023 104.944C78.6393 104.944 79.2113 104.559 79.6513 103.998L80.7953 104.812C80.1243 105.758 79.0353 106.198 77.8913 106.198C75.4933 106.198 73.7773 104.559 73.7773 102.139C73.7773 99.7189 75.4053 98.0139 77.8913 98.0139Z" fill="white"/>
<path d="M246.441 48.5879C247.266 48.5879 247.948 48.8739 248.333 49.3909L247.453 50.1829C247.189 49.8199 246.859 49.6439 246.419 49.6439C245.99 49.6439 245.649 49.8639 245.649 50.2049C245.649 50.6339 246.243 50.7109 246.903 50.8649C247.717 51.0519 248.498 51.3489 248.498 52.4379C248.498 53.5489 247.519 54.1319 246.21 54.1319C245.396 54.1319 244.703 53.9229 244.164 53.3179L245.044 52.4929C245.495 52.9879 245.847 53.1419 246.298 53.1419C246.782 53.1419 247.178 52.8999 247.178 52.5369C247.178 52.0309 246.54 51.9429 245.869 51.7889C245.154 51.6239 244.329 51.3709 244.329 50.2929C244.329 49.0059 245.539 48.5879 246.441 48.5879Z" fill="white"/>
<path d="M240.93 48.5879C242.602 48.5879 243.405 49.8529 243.405 51.4479V51.8219H239.379C239.467 52.5809 240.039 53.0759 240.798 53.0759C241.392 53.0759 241.843 52.8229 242.217 52.3609L243.163 53.0759C242.591 53.7799 241.832 54.1319 240.93 54.1319C239.313 54.1319 238.059 53.0099 238.059 51.3599C238.059 49.7209 239.313 48.5879 240.93 48.5879ZM239.379 50.8319H242.085C242.074 50.0069 241.513 49.5779 240.732 49.5779C239.951 49.5779 239.478 50.0839 239.379 50.8319Z" fill="white"/>
<path d="M235.621 48.5879C236.336 48.5879 237.051 48.8519 237.535 49.3909L236.622 50.3039C236.358 50.0289 236.017 49.7759 235.621 49.7759C234.664 49.7759 234.07 50.5129 234.07 51.3599C234.07 52.2729 234.73 52.9439 235.621 52.9439C236.017 52.9439 236.402 52.7679 236.644 52.4489L237.524 53.3949C237.084 53.8239 236.303 54.1319 235.621 54.1319C234.004 54.1319 232.75 52.9989 232.75 51.3599C232.75 49.8089 233.916 48.5879 235.621 48.5879Z" fill="white"/>
<path d="M230.828 46.135C231.312 46.135 231.686 46.476 231.686 46.927C231.686 47.4 231.301 47.719 230.828 47.719C230.355 47.719 229.992 47.356 229.992 46.927C229.992 46.498 230.355 46.135 230.828 46.135ZM231.499 48.72V54H230.179V48.72H231.499Z" fill="white"/>
<path d="M223.738 48.72H225.179L226.587 52.416H226.609L228.028 48.72H229.381L227.302 54H225.894L223.738 48.72Z" fill="white"/>
<path d="M220.176 53.9999V48.7199H221.496V49.5559H221.518C221.804 48.9509 222.387 48.5879 223.08 48.5879C223.278 48.5879 223.377 48.6209 223.553 48.6649V49.9409C223.3 49.8749 223.113 49.8419 222.915 49.8419C221.914 49.8419 221.496 50.5459 221.496 51.2499V53.9999H220.176Z" fill="white"/>
<path d="M216.469 48.5879C218.141 48.5879 218.944 49.8529 218.944 51.4479V51.8219H214.918C215.006 52.5809 215.578 53.0759 216.337 53.0759C216.931 53.0759 217.382 52.8229 217.756 52.3609L218.702 53.0759C218.13 53.7799 217.371 54.1319 216.469 54.1319C214.852 54.1319 213.598 53.0099 213.598 51.3599C213.598 49.7209 214.852 48.5879 216.469 48.5879ZM214.918 50.8319H217.624C217.613 50.0069 217.052 49.5779 216.271 49.5779C215.49 49.5779 215.017 50.0839 214.918 50.8319Z" fill="white"/>
<path d="M210.777 48.5879C211.602 48.5879 212.284 48.8739 212.669 49.3909L211.789 50.1829C211.525 49.8199 211.195 49.6439 210.755 49.6439C210.326 49.6439 209.985 49.8639 209.985 50.2049C209.985 50.6339 210.579 50.7109 211.239 50.8649C212.053 51.0519 212.834 51.3489 212.834 52.4379C212.834 53.5489 211.855 54.1319 210.546 54.1319C209.732 54.1319 209.039 53.9229 208.5 53.3179L209.38 52.4929C209.831 52.9879 210.183 53.1419 210.634 53.1419C211.118 53.1419 211.514 52.8999 211.514 52.5369C211.514 52.0309 210.876 51.9429 210.205 51.7889C209.49 51.6239 208.665 51.3709 208.665 50.2929C208.665 49.0059 209.875 48.5879 210.777 48.5879Z" fill="white"/>
<path d="M241.59 33.6841V42.0001H240.27V33.6841H241.59Z" fill="white"/>
<path d="M235.913 42.1319C234.824 42.1319 233.988 41.5159 233.988 40.5479C233.988 39.3269 234.967 38.7109 237.233 38.7109H237.64V38.5569C237.64 37.9409 237.156 37.5779 236.43 37.5779C235.88 37.5779 235.385 37.7979 235.022 38.1279L234.329 37.4349C234.802 36.9509 235.539 36.5879 236.573 36.5879C238.377 36.5879 238.828 37.5999 238.828 38.8429V41.9999H237.64V41.2739H237.607C237.233 41.8679 236.617 42.1319 235.913 42.1319ZM237.178 39.6349C236.012 39.6349 235.308 39.8879 235.308 40.4489C235.308 40.8999 235.748 41.1419 236.243 41.1419C237.145 41.1419 237.563 40.6359 237.563 39.9649V39.6349H237.178Z" fill="white"/>
<path d="M229.744 36.5879C230.481 36.5879 231.174 36.8629 231.57 37.5119H231.592V36.7199H232.846V41.5709C232.846 43.4739 231.856 44.6399 229.865 44.6399C228.875 44.6399 227.984 44.4199 227.247 43.7709L228.039 42.6929C228.567 43.1769 229.128 43.4519 229.854 43.4519C231.086 43.4519 231.526 42.8139 231.526 41.6369V41.2959H231.504C231.097 41.8129 230.459 42.0659 229.777 42.0659C228.226 42.0659 227.148 40.8889 227.148 39.3599C227.148 37.7759 228.138 36.5879 229.744 36.5879ZM228.468 39.3489C228.468 40.2289 229.172 40.8779 230.019 40.8779C230.943 40.8779 231.592 40.2509 231.592 39.3269C231.592 38.3589 230.954 37.7759 230.019 37.7759C229.106 37.7759 228.468 38.4139 228.468 39.3489Z" fill="white"/>
<path d="M223.703 36.5879C225.375 36.5879 226.178 37.8529 226.178 39.4479V39.8219H222.152C222.24 40.5809 222.812 41.0759 223.571 41.0759C224.165 41.0759 224.616 40.8229 224.99 40.3609L225.936 41.0759C225.364 41.7799 224.605 42.1319 223.703 42.1319C222.086 42.1319 220.832 41.0099 220.832 39.3599C220.832 37.7209 222.086 36.5879 223.703 36.5879ZM222.152 38.8319H224.858C224.847 38.0069 224.286 37.5779 223.505 37.5779C222.724 37.5779 222.251 38.0839 222.152 38.8319Z" fill="white"/>
<path d="M216.898 34.2119V40.7459H220.209V41.9999H215.512V34.2119H216.898Z" fill="white"/>
<path d="M382.707 105.588C384.379 105.588 385.182 106.853 385.182 108.448V108.822H381.156C381.244 109.581 381.816 110.076 382.575 110.076C383.169 110.076 383.62 109.823 383.994 109.361L384.94 110.076C384.368 110.78 383.609 111.132 382.707 111.132C381.09 111.132 379.836 110.01 379.836 108.36C379.836 106.721 381.09 105.588 382.707 105.588ZM381.156 107.832H383.862C383.851 107.007 383.29 106.578 382.509 106.578C381.728 106.578 381.255 107.084 381.156 107.832Z" fill="white"/>
<path d="M377.398 105.588C378.113 105.588 378.828 105.852 379.312 106.391L378.399 107.304C378.135 107.029 377.794 106.776 377.398 106.776C376.441 106.776 375.847 107.513 375.847 108.36C375.847 109.273 376.507 109.944 377.398 109.944C377.794 109.944 378.179 109.768 378.421 109.449L379.301 110.395C378.861 110.824 378.08 111.132 377.398 111.132C375.781 111.132 374.527 109.999 374.527 108.36C374.527 106.809 375.693 105.588 377.398 105.588Z" fill="white"/>
<path d="M369.797 111H368.477V105.72H369.731V106.567H369.753C370.072 105.874 370.677 105.588 371.37 105.588C372.943 105.588 373.295 106.809 373.295 107.623V111H371.975V108.261C371.975 107.205 371.634 106.776 371.007 106.776C370.16 106.776 369.797 107.392 369.797 108.096V111Z" fill="white"/>
<path d="M364.14 111.132C363.051 111.132 362.215 110.516 362.215 109.548C362.215 108.327 363.194 107.711 365.46 107.711H365.867V107.557C365.867 106.941 365.383 106.578 364.657 106.578C364.107 106.578 363.612 106.798 363.249 107.128L362.556 106.435C363.029 105.951 363.766 105.588 364.8 105.588C366.604 105.588 367.055 106.6 367.055 107.843V111H365.867V110.274H365.834C365.46 110.868 364.844 111.132 364.14 111.132ZM365.405 108.635C364.239 108.635 363.535 108.888 363.535 109.449C363.535 109.9 363.975 110.142 364.47 110.142C365.372 110.142 365.79 109.636 365.79 108.965V108.635H365.405Z" fill="white"/>
<path d="M357.574 111H356.254V105.72H357.508V106.567H357.53C357.849 105.874 358.454 105.588 359.147 105.588C360.72 105.588 361.072 106.809 361.072 107.623V111H359.752V108.261C359.752 107.205 359.411 106.776 358.784 106.776C357.937 106.776 357.574 107.392 357.574 108.096V111Z" fill="white"/>
<path d="M354.066 103.135C354.55 103.135 354.924 103.476 354.924 103.927C354.924 104.4 354.539 104.719 354.066 104.719C353.593 104.719 353.23 104.356 353.23 103.927C353.23 103.498 353.593 103.135 354.066 103.135ZM354.737 105.72V111H353.417V105.72H354.737Z" fill="white"/>
<path d="M347.199 111V103.212H352.226V104.466H348.585V106.512H352.017V107.766H348.585V111H347.199Z" fill="white"/>
<path d="M432.152 237.588C432.977 237.588 433.659 237.874 434.044 238.391L433.164 239.183C432.9 238.82 432.57 238.644 432.13 238.644C431.701 238.644 431.36 238.864 431.36 239.205C431.36 239.634 431.954 239.711 432.614 239.865C433.428 240.052 434.209 240.349 434.209 241.438C434.209 242.549 433.23 243.132 431.921 243.132C431.107 243.132 430.414 242.923 429.875 242.318L430.755 241.493C431.206 241.988 431.558 242.142 432.009 242.142C432.493 242.142 432.889 241.9 432.889 241.537C432.889 241.031 432.251 240.943 431.58 240.789C430.865 240.624 430.04 240.371 430.04 239.293C430.04 238.006 431.25 237.588 432.152 237.588Z" fill="white"/>
<path d="M426.074 243V237.72H427.394V238.556H427.416C427.702 237.951 428.285 237.588 428.978 237.588C429.176 237.588 429.275 237.621 429.451 237.665V238.941C429.198 238.875 429.011 238.842 428.813 238.842C427.812 238.842 427.394 239.546 427.394 240.25V243H426.074Z" fill="white"/>
<path d="M422.363 237.588C424.035 237.588 424.838 238.853 424.838 240.448V240.822H420.812C420.9 241.581 421.472 242.076 422.231 242.076C422.825 242.076 423.276 241.823 423.65 241.361L424.596 242.076C424.024 242.78 423.265 243.132 422.363 243.132C420.746 243.132 419.492 242.01 419.492 240.36C419.492 238.721 420.746 237.588 422.363 237.588ZM420.812 239.832H423.518C423.507 239.007 422.946 238.578 422.165 238.578C421.384 238.578 420.911 239.084 420.812 239.832Z" fill="white"/>
<path d="M414.761 243H413.441V237.72H414.695V238.567H414.717C415.036 237.874 415.641 237.588 416.334 237.588C417.907 237.588 418.259 238.809 418.259 239.623V243H416.939V240.261C416.939 239.205 416.598 238.776 415.971 238.776C415.124 238.776 414.761 239.392 414.761 240.096V243Z" fill="white"/>
<path d="M409.64 238.842H408.551V237.72H409.64V236.191H410.96V237.72H412.412V238.842H410.96V241.185C410.96 241.746 411.18 242.01 411.697 242.01C412.027 242.01 412.302 241.933 412.412 241.845V242.956C412.159 243.077 411.664 243.132 411.367 243.132C410.124 243.132 409.64 242.648 409.64 241.317V238.842Z" fill="white"/>
<path d="M404.891 243V237.72H406.211V238.556H406.233C406.519 237.951 407.102 237.588 407.795 237.588C407.993 237.588 408.092 237.621 408.268 237.665V238.941C408.015 238.875 407.828 238.842 407.63 238.842C406.629 238.842 406.211 239.546 406.211 240.25V243H404.891Z" fill="white"/>
<path d="M400.554 243.132C399.465 243.132 398.629 242.516 398.629 241.548C398.629 240.327 399.608 239.711 401.874 239.711H402.281V239.557C402.281 238.941 401.797 238.578 401.071 238.578C400.521 238.578 400.026 238.798 399.663 239.128L398.97 238.435C399.443 237.951 400.18 237.588 401.214 237.588C403.018 237.588 403.469 238.6 403.469 239.843V243H402.281V242.274H402.248C401.874 242.868 401.258 243.132 400.554 243.132ZM401.819 240.635C400.653 240.635 399.949 240.888 399.949 241.449C399.949 241.9 400.389 242.142 400.884 242.142C401.786 242.142 402.204 241.636 402.204 240.965V240.635H401.819Z" fill="white"/>
<path d="M393.765 243H392.379V235.212H395.052C396.053 235.212 397.868 235.498 397.868 237.445C397.868 239.073 396.911 239.777 394.832 239.777H393.765V243ZM393.765 236.4V238.589H394.667C395.481 238.589 396.416 238.501 396.416 237.489C396.416 236.752 395.877 236.4 394.799 236.4H393.765Z" fill="white"/>
<path d="M426.578 231H425.258V225.72H426.512V226.567H426.534C426.853 225.874 427.458 225.588 428.151 225.588C429.724 225.588 430.076 226.809 430.076 227.623V231H428.756V228.261C428.756 227.205 428.415 226.776 427.788 226.776C426.941 226.776 426.578 227.392 426.578 228.096V231Z" fill="white"/>
<path d="M420.662 225.588C421.399 225.588 422.092 225.863 422.488 226.512H422.51V225.72H423.764V230.571C423.764 232.474 422.774 233.64 420.783 233.64C419.793 233.64 418.902 233.42 418.165 232.771L418.957 231.693C419.485 232.177 420.046 232.452 420.772 232.452C422.004 232.452 422.444 231.814 422.444 230.637V230.296H422.422C422.015 230.813 421.377 231.066 420.695 231.066C419.144 231.066 418.066 229.889 418.066 228.36C418.066 226.776 419.056 225.588 420.662 225.588ZM419.386 228.349C419.386 229.229 420.09 229.878 420.937 229.878C421.861 229.878 422.51 229.251 422.51 228.327C422.51 227.359 421.872 226.776 420.937 226.776C420.024 226.776 419.386 227.414 419.386 228.349Z" fill="white"/>
<path d="M416.145 223.135C416.629 223.135 417.003 223.476 417.003 223.927C417.003 224.4 416.618 224.719 416.145 224.719C415.672 224.719 415.309 224.356 415.309 223.927C415.309 223.498 415.672 223.135 416.145 223.135ZM416.816 225.72V231H415.496V225.72H416.816Z" fill="white"/>
<path d="M412.386 225.588C413.211 225.588 413.893 225.874 414.278 226.391L413.398 227.183C413.134 226.82 412.804 226.644 412.364 226.644C411.935 226.644 411.594 226.864 411.594 227.205C411.594 227.634 412.188 227.711 412.848 227.865C413.662 228.052 414.443 228.349 414.443 229.438C414.443 230.549 413.464 231.132 412.155 231.132C411.341 231.132 410.648 230.923 410.109 230.318L410.989 229.493C411.44 229.988 411.792 230.142 412.243 230.142C412.727 230.142 413.123 229.9 413.123 229.537C413.123 229.031 412.485 228.943 411.814 228.789C411.099 228.624 410.274 228.371 410.274 227.293C410.274 226.006 411.484 225.588 412.386 225.588Z" fill="white"/>
<path d="M406.875 225.588C408.547 225.588 409.35 226.853 409.35 228.448V228.822H405.324C405.412 229.581 405.984 230.076 406.743 230.076C407.337 230.076 407.788 229.823 408.162 229.361L409.108 230.076C408.536 230.78 407.777 231.132 406.875 231.132C405.258 231.132 404.004 230.01 404.004 228.36C404.004 226.721 405.258 225.588 406.875 225.588ZM405.324 227.832H408.03C408.019 227.007 407.458 226.578 406.677 226.578C405.896 226.578 405.423 227.084 405.324 227.832Z" fill="white"/>
<path d="M396.043 223.212H399.145C401.158 223.212 403.072 224.488 403.072 227.106C403.072 229.867 400.674 231 398.98 231H396.043V223.212ZM397.429 229.746H398.518C400.179 229.746 401.62 228.998 401.62 227.106C401.62 225.214 400.399 224.466 398.705 224.466H397.429V229.746Z" fill="white"/>
<defs>
<linearGradient id="paint0_linear_607_1029" x1="228.701" y1="0" x2="228.701" y2="88.8154" gradientUnits="userSpaceOnUse">
<stop stop-color="#FFAD31"/>
<stop offset="1" stop-color="#99681D"/>
</linearGradient>
<linearGradient id="paint1_linear_607_1029" x1="88.8139" y1="63.281" x2="88.8139" y2="152.096" gradientUnits="userSpaceOnUse">
<stop stop-color="#51B29C"/>
<stop offset="1" stop-color="#234C43"/>
</linearGradient>
<linearGradient id="paint2_linear_607_1029" x1="44.4077" y1="188.733" x2="44.4077" y2="277.548" gradientUnits="userSpaceOnUse">
<stop stop-color="#3A7FD0"/>
<stop offset="1" stop-color="#1E416A"/>
</linearGradient>
<linearGradient id="paint3_linear_607_1029" x1="366.408" y1="63.281" x2="366.408" y2="152.096" gradientUnits="userSpaceOnUse">
<stop stop-color="#3A7FD0"/>
<stop offset="1" stop-color="#1E416A"/>
</linearGradient>
<linearGradient id="paint4_linear_607_1029" x1="412.99" y1="188.733" x2="412.99" y2="277.548" gradientUnits="userSpaceOnUse">
<stop stop-color="#8E47AD"/>
<stop offset="1" stop-color="#3A1D47"/>
</linearGradient>
<linearGradient id="paint5_linear_607_1029" x1="234.805" y1="214.206" x2="212.492" y2="217.7" gradientUnits="userSpaceOnUse">
<stop stop-color="#51B29C"/>
<stop offset="1" stop-color="#3A7FD0"/>
</linearGradient>
<linearGradient id="paint6_linear_607_1029" x1="267.402" y1="210.159" x2="209.569" y2="219.567" gradientUnits="userSpaceOnUse">
<stop stop-color="#51B29C"/>
<stop offset="1" stop-color="#3A7FD0"/>
</linearGradient>
<linearGradient id="paint7_linear_607_1029" x1="277.805" y1="216.257" x2="247.948" y2="221.742" gradientUnits="userSpaceOnUse">
<stop stop-color="#51B29C"/>
<stop offset="1" stop-color="#3A7FD0"/>
</linearGradient>
</defs>
</svg>
