<svg width="458" height="375" viewBox="0 0 458 375" fill="none" xmlns="http://www.w3.org/2000/svg">
<circle cx="228.701" cy="44.4077" r="44.4077" fill="url(#paint0_linear_561_550)"/>
<circle cx="88.8139" cy="107.689" r="44.4077" fill="url(#paint1_linear_561_550)"/>
<circle cx="44.4077" cy="233.141" r="44.4077" fill="url(#paint2_linear_561_550)"/>
<circle cx="366.408" cy="107.689" r="44.4077" fill="url(#paint3_linear_561_550)"/>
<circle cx="412.99" cy="233.141" r="44.4077" fill="url(#paint4_linear_561_550)"/>
<path d="M86.1497 232.031C86.1497 233.504 87.3436 234.697 88.8164 234.697C90.2892 234.697 91.4831 233.504 91.4831 232.031C91.4831 230.558 90.2892 229.364 88.8164 229.364C87.3436 229.364 86.1497 230.558 86.1497 232.031ZM167 240.501L167.045 234.727L162.023 237.575L167 240.501ZM89.2877 232.198C89.3911 231.906 89.511 231.615 89.647 231.324L88.7413 230.9C88.5922 231.219 88.4598 231.54 88.3451 231.864L89.2877 232.198ZM90.6088 229.657C90.9619 229.143 91.3645 228.633 91.814 228.131L91.0687 227.464C90.5932 227.996 90.1638 228.539 89.7844 229.091L90.6088 229.657ZM93.1932 226.744C93.6619 226.317 94.1645 225.897 94.6988 225.486L94.0889 224.693C93.534 225.12 93.0101 225.558 92.5195 226.005L93.1932 226.744ZM96.2999 224.342C96.8349 223.987 97.3941 223.64 97.9759 223.303L97.474 222.438C96.8756 222.785 96.2993 223.142 95.7467 223.509L96.2999 224.342ZM99.713 222.357C100.291 222.061 100.888 221.774 101.501 221.497L101.09 220.586C100.462 220.869 99.8511 221.163 99.258 221.466L99.713 222.357ZM103.333 220.719C103.939 220.477 104.558 220.244 105.191 220.021L104.858 219.078C104.213 219.305 103.581 219.543 102.962 219.79L103.333 220.719ZM107.072 219.398C107.698 219.204 108.335 219.019 108.982 218.845L108.722 217.88C108.063 218.057 107.414 218.245 106.776 218.443L107.072 219.398ZM110.917 218.36C111.556 218.212 112.203 218.074 112.857 217.946L112.665 216.965C112 217.095 111.341 217.235 110.691 217.386L110.917 218.36ZM114.814 217.598C115.466 217.494 116.124 217.399 116.787 217.316L116.662 216.324C115.988 216.409 115.319 216.504 114.656 216.611L114.814 217.598ZM118.763 217.1C119.42 217.04 120.081 216.99 120.745 216.951L120.687 215.953C120.011 215.992 119.339 216.043 118.672 216.105L118.763 217.1ZM122.736 216.868C123.396 216.852 124.058 216.847 124.723 216.853L124.733 215.853C124.056 215.847 123.382 215.852 122.711 215.869L122.736 216.868ZM126.711 216.905C127.372 216.934 128.034 216.975 128.698 217.027L128.777 216.03C128.101 215.977 127.427 215.936 126.754 215.906L126.711 216.905ZM130.675 217.218C131.332 217.293 131.989 217.381 132.645 217.48L132.795 216.492C132.126 216.39 131.457 216.301 130.789 216.225L130.675 217.218ZM134.606 217.815C135.255 217.938 135.902 218.074 136.549 218.222L136.772 217.248C136.114 217.096 135.454 216.958 134.793 216.833L134.606 217.815ZM138.476 218.705C139.114 218.878 139.749 219.064 140.383 219.263L140.683 218.309C140.037 218.106 139.388 217.916 138.738 217.74L138.476 218.705ZM142.262 219.896C142.884 220.12 143.502 220.357 144.117 220.608L144.495 219.682C143.867 219.426 143.235 219.184 142.601 218.955L142.262 219.896ZM145.936 221.396C146.535 221.671 147.13 221.96 147.72 222.262L148.176 221.372C147.573 221.063 146.965 220.768 146.353 220.487L145.936 221.396ZM149.468 223.207C150.039 223.533 150.605 223.872 151.165 224.225L151.698 223.379C151.125 223.018 150.547 222.671 149.963 222.339L149.468 223.207ZM152.819 225.322C153.359 225.697 153.892 226.087 154.42 226.491L155.028 225.697C154.488 225.284 153.942 224.885 153.391 224.501L152.819 225.322ZM155.964 227.73C156.468 228.154 156.966 228.592 157.456 229.045L158.134 228.31C157.632 227.847 157.123 227.399 156.608 226.965L155.964 227.73ZM158.878 230.416C159.341 230.884 159.798 231.366 160.247 231.862L160.988 231.191C160.529 230.683 160.062 230.191 159.588 229.712L158.878 230.416ZM161.54 233.354C161.959 233.86 162.371 234.379 162.775 234.912L163.572 234.308C163.159 233.764 162.738 233.233 162.31 232.716L161.54 233.354ZM163.938 236.515C164.311 237.053 164.678 237.605 165.036 238.17L165.88 237.634C165.515 237.058 165.141 236.495 164.759 235.945L163.938 236.515Z" fill="#515151"/>
<path d="M370.698 232.03C370.698 233.503 369.504 234.697 368.031 234.697C366.558 234.697 365.365 233.503 365.365 232.03C365.365 230.557 366.558 229.363 368.031 229.363C369.504 229.363 370.698 230.557 370.698 232.03ZM292 243.499L290.185 238.019L295.839 239.187L292 243.499ZM367.615 232.307C367.439 232.043 367.253 231.781 367.056 231.521L367.854 230.918C368.062 231.193 368.26 231.471 368.447 231.752L367.615 232.307ZM365.792 230.024C365.355 229.555 364.885 229.096 364.384 228.646L365.053 227.902C365.574 228.37 366.065 228.85 366.523 229.341L365.792 230.024ZM362.863 227.381C362.349 226.984 361.811 226.596 361.25 226.218L361.809 225.389C362.387 225.778 362.942 226.179 363.474 226.589L362.863 227.381ZM359.579 225.16C359.02 224.827 358.443 224.503 357.849 224.189L358.317 223.305C358.925 223.627 359.517 223.959 360.09 224.3L359.579 225.16ZM356.069 223.297C355.474 223.016 354.865 222.744 354.244 222.481L354.633 221.56C355.267 221.828 355.889 222.106 356.496 222.393L356.069 223.297ZM352.396 221.742C351.781 221.509 351.155 221.285 350.52 221.071L350.84 220.123C351.486 220.342 352.123 220.569 352.75 220.806L352.396 221.742ZM348.615 220.464C347.982 220.274 347.34 220.094 346.692 219.922L346.947 218.956C347.606 219.13 348.258 219.313 348.902 219.506L348.615 220.464ZM344.756 219.444C344.11 219.295 343.458 219.155 342.801 219.025L342.995 218.044C343.662 218.176 344.325 218.318 344.981 218.47L344.756 219.444ZM340.835 218.668C340.18 218.559 339.522 218.46 338.861 218.37L338.995 217.379C339.666 217.47 340.334 217.571 340.999 217.681L340.835 218.668ZM336.875 218.132C336.214 218.063 335.551 218.004 334.886 217.955L334.959 216.958C335.634 217.008 336.308 217.068 336.979 217.138L336.875 218.132ZM332.892 217.839C332.226 217.811 331.56 217.793 330.895 217.785L330.906 216.785C331.582 216.793 332.259 216.811 332.934 216.84L332.892 217.839ZM328.898 217.795C328.231 217.809 327.566 217.834 326.902 217.871L326.848 216.872C327.523 216.835 328.199 216.81 328.877 216.795L328.898 217.795ZM324.913 218.013C324.248 218.072 323.587 218.143 322.928 218.226L322.803 217.234C323.474 217.149 324.148 217.077 324.824 217.017L324.913 218.013ZM320.953 218.511C320.297 218.618 319.644 218.738 318.996 218.871L318.796 217.891C319.457 217.756 320.122 217.634 320.792 217.524L320.953 218.511ZM317.05 219.31C316.403 219.471 315.762 219.645 315.128 219.832L314.845 218.873C315.494 218.681 316.149 218.504 316.809 218.34L317.05 219.31ZM313.237 220.437C312.607 220.656 311.985 220.888 311.372 221.135L310.998 220.207C311.627 219.954 312.265 219.716 312.91 219.492L313.237 220.437ZM309.549 221.924C308.947 222.203 308.355 222.498 307.774 222.808L307.304 221.926C307.901 221.607 308.509 221.304 309.127 221.017L309.549 221.924ZM306.051 223.793C305.486 224.138 304.933 224.5 304.393 224.878L303.82 224.058C304.377 223.668 304.947 223.296 305.529 222.94L306.051 223.793ZM302.809 226.064C302.294 226.476 301.793 226.906 301.307 227.352L300.63 226.615C301.134 226.153 301.652 225.71 302.184 225.283L302.809 226.064ZM299.898 228.738C299.447 229.214 299.01 229.708 298.59 230.219L297.817 229.585C298.253 229.055 298.705 228.543 299.173 228.05L299.898 228.738ZM297.39 231.792C297.013 232.324 296.653 232.873 296.31 233.44L295.455 232.922C295.81 232.335 296.184 231.766 296.574 231.214L297.39 231.792ZM295.345 235.167C295.047 235.748 294.765 236.346 294.501 236.96L293.582 236.565C293.855 235.93 294.147 235.312 294.455 234.711L295.345 235.167ZM293.784 238.794C293.565 239.41 293.364 240.042 293.179 240.691L292.217 240.417C292.408 239.749 292.616 239.096 292.841 238.46L293.784 238.794Z" fill="#515151"/>
<path d="M128.333 122C128.333 123.473 129.527 124.667 131 124.667C132.473 124.667 133.667 123.473 133.667 122C133.667 120.527 132.473 119.333 131 119.333C129.527 119.333 128.333 120.527 128.333 122ZM193 187L194.764 181.503L189.121 182.723L193 187ZM130.841 122.474C131.148 122.577 131.461 122.685 131.78 122.798L132.114 121.855C131.79 121.741 131.471 121.631 131.159 121.526L130.841 122.474ZM133.678 123.501C134.288 123.736 134.914 123.988 135.557 124.254L135.94 123.331C135.29 123.061 134.656 122.807 134.038 122.568L133.678 123.501ZM137.418 125.052C138.021 125.319 138.636 125.598 139.261 125.891L139.684 124.985C139.053 124.69 138.432 124.407 137.822 124.138L137.418 125.052ZM141.088 126.767C141.684 127.061 142.288 127.365 142.9 127.681L143.358 126.792C142.741 126.474 142.132 126.166 141.53 125.87L141.088 126.767ZM144.696 128.629C145.283 128.946 145.875 129.272 146.472 129.609L146.963 128.738C146.361 128.398 145.763 128.069 145.171 127.749L144.696 128.629ZM148.225 130.617C148.801 130.955 149.38 131.302 149.963 131.658L150.484 130.805C149.897 130.446 149.312 130.096 148.731 129.754L148.225 130.617ZM151.686 132.732C152.252 133.092 152.82 133.46 153.39 133.837L153.941 133.002C153.367 132.623 152.793 132.251 152.222 131.888L151.686 132.732ZM155.067 134.966C155.62 135.346 156.174 135.733 156.728 136.128L157.309 135.314C156.75 134.915 156.191 134.524 155.633 134.142L155.067 134.966ZM158.372 137.322C158.911 137.721 159.45 138.127 159.988 138.541L160.597 137.748C160.054 137.331 159.511 136.921 158.967 136.518L158.372 137.322ZM161.582 139.79C162.108 140.21 162.633 140.637 163.157 141.071L163.795 140.302C163.267 139.863 162.737 139.432 162.206 139.008L161.582 139.79ZM164.703 142.379C165.212 142.817 165.719 143.263 166.224 143.715L166.892 142.971C166.382 142.514 165.87 142.064 165.356 141.621L164.703 142.379ZM167.722 145.084C168.214 145.543 168.703 146.008 169.189 146.479L169.885 145.762C169.394 145.285 168.9 144.816 168.404 144.353L167.722 145.084ZM170.627 147.904C171.101 148.384 171.572 148.869 172.039 149.362L172.764 148.673C172.293 148.176 171.817 147.685 171.338 147.201L170.627 147.904ZM173.415 150.844C173.868 151.342 174.316 151.846 174.761 152.357L175.515 151.701C175.066 151.184 174.613 150.675 174.155 150.171L173.415 150.844ZM176.074 153.901C176.504 154.418 176.929 154.941 177.349 155.471L178.132 154.849C177.707 154.314 177.277 153.785 176.843 153.262L176.074 153.901ZM178.589 157.072C178.995 157.608 179.396 158.151 179.791 158.7L180.603 158.116C180.203 157.561 179.798 157.011 179.387 156.468L178.589 157.072ZM180.953 160.356C181.333 160.912 181.707 161.474 182.076 162.042L182.915 161.499C182.542 160.923 182.163 160.354 181.778 159.791L180.953 160.356ZM183.153 163.752C183.505 164.326 183.85 164.905 184.188 165.491L185.054 164.99C184.711 164.397 184.362 163.81 184.006 163.23L183.153 163.752ZM185.178 167.256C185.499 167.846 185.813 168.442 186.12 169.044L187.01 168.589C186.7 167.98 186.382 167.376 186.057 166.778L185.178 167.256ZM187.015 170.86C187.304 171.466 187.585 172.077 187.859 172.695L188.773 172.289C188.496 171.664 188.211 171.044 187.918 170.43L187.015 170.86ZM188.653 174.555C188.909 175.176 189.156 175.804 189.396 176.436L190.331 176.082C190.088 175.441 189.837 174.805 189.578 174.175L188.653 174.555ZM190.084 178.334C190.305 178.97 190.517 179.612 190.721 180.259L191.675 179.958C191.468 179.302 191.253 178.652 191.029 178.007L190.084 178.334ZM191.3 182.19C191.484 182.836 191.66 183.487 191.826 184.144L192.796 183.898C192.627 183.232 192.449 182.571 192.262 181.916L191.3 182.19Z" fill="#515151"/>
<path d="M328.667 122C328.667 123.473 327.473 124.667 326 124.667C324.527 124.667 323.333 123.473 323.333 122C323.333 120.527 324.527 119.333 326 119.333C327.473 119.333 328.667 120.527 328.667 122ZM263 187L261.253 181.497L266.892 182.735L263 187ZM326.157 122.475C325.86 122.573 325.557 122.676 325.249 122.783L324.921 121.838C325.234 121.729 325.541 121.625 325.843 121.525L326.157 122.475ZM323.412 123.449C322.821 123.673 322.214 123.91 321.592 124.163L321.216 123.236C321.845 122.981 322.46 122.74 323.059 122.514L323.412 123.449ZM319.787 124.917C319.201 125.17 318.604 125.434 317.997 125.71L317.583 124.8C318.196 124.521 318.799 124.254 319.392 123.999L319.787 124.917ZM316.221 126.539C315.64 126.817 315.052 127.104 314.457 127.402L314.009 126.508C314.61 126.207 315.203 125.917 315.789 125.637L316.221 126.539ZM312.718 128.292C312.149 128.59 311.574 128.897 310.995 129.213L310.516 128.334C311.101 128.016 311.681 127.706 312.255 127.406L312.718 128.292ZM309.283 130.165C308.72 130.484 308.153 130.812 307.583 131.148L307.075 130.287C307.65 129.948 308.222 129.617 308.79 129.295L309.283 130.165ZM305.908 132.156C305.357 132.493 304.804 132.838 304.249 133.191L303.713 132.347C304.272 131.991 304.83 131.643 305.385 131.303L305.908 132.156ZM302.603 134.257C302.062 134.614 301.519 134.978 300.976 135.35L300.411 134.524C300.959 134.149 301.506 133.782 302.052 133.422L302.603 134.257ZM299.373 136.466C298.843 136.842 298.313 137.224 297.783 137.613L297.191 136.808C297.725 136.415 298.26 136.029 298.794 135.65L299.373 136.466ZM296.215 138.788C295.699 139.181 295.184 139.58 294.671 139.986L294.051 139.201C294.569 138.792 295.088 138.389 295.608 137.992L296.215 138.788ZM293.144 141.215C292.642 141.626 292.141 142.045 291.641 142.469L290.994 141.707C291.497 141.279 292.003 140.857 292.51 140.441L293.144 141.215ZM290.164 143.749C289.676 144.18 289.19 144.617 288.706 145.06L288.031 144.323C288.519 143.876 289.009 143.435 289.502 143L290.164 143.749ZM287.278 146.395C286.808 146.843 286.34 147.298 285.875 147.758L285.171 147.048C285.641 146.583 286.113 146.124 286.589 145.671L287.278 146.395ZM284.497 149.151C284.045 149.617 283.597 150.089 283.152 150.567L282.42 149.885C282.869 149.402 283.323 148.926 283.779 148.455L284.497 149.151ZM281.833 152.013C281.4 152.498 280.971 152.989 280.546 153.485L279.786 152.835C280.216 152.333 280.649 151.837 281.087 151.347L281.833 152.013ZM279.292 154.985C278.88 155.489 278.472 155.998 278.069 156.514L277.281 155.898C277.689 155.376 278.101 154.861 278.518 154.351L279.292 154.985ZM276.884 158.065C276.495 158.587 276.112 159.114 275.733 159.646L274.918 159.067C275.301 158.528 275.689 157.995 276.083 157.467L276.884 158.065ZM274.621 161.253C274.257 161.791 273.899 162.335 273.547 162.885L272.705 162.345C273.061 161.789 273.424 161.238 273.792 160.693L274.621 161.253ZM272.512 164.545C272.175 165.099 271.845 165.66 271.521 166.225L270.653 165.728C270.981 165.155 271.316 164.588 271.657 164.026L272.512 164.545ZM270.571 167.934C270.263 168.506 269.961 169.082 269.666 169.664L268.774 169.212C269.073 168.622 269.378 168.038 269.69 167.46L270.571 167.934ZM268.807 171.418C268.529 172.005 268.258 172.597 267.994 173.194L267.079 172.79C267.346 172.185 267.621 171.584 267.903 170.989L268.807 171.418ZM267.23 174.989C266.983 175.591 266.744 176.197 266.512 176.809L265.577 176.456C265.812 175.835 266.054 175.22 266.304 174.61L267.23 174.989ZM265.848 178.641C265.635 179.254 265.429 179.873 265.232 180.497L264.279 180.195C264.479 179.562 264.687 178.935 264.903 178.312L265.848 178.641ZM264.67 182.363C264.491 182.986 264.32 183.615 264.158 184.248L263.189 184C263.354 183.357 263.527 182.72 263.708 182.087L264.67 182.363Z" fill="#515151"/>
<path d="M225.333 89C225.333 90.4728 226.527 91.6667 228 91.6667C229.473 91.6667 230.667 90.4728 230.667 89C230.667 87.5272 229.473 86.3333 228 86.3333C226.527 86.3333 225.333 87.5272 225.333 89ZM228 155L230.887 150L225.113 150L228 155ZM227.5 89L227.5 89.9706L228.5 89.9706L228.5 89L227.5 89ZM227.5 91.9118L227.5 93.8529L228.5 93.8529L228.5 91.9118L227.5 91.9118ZM227.5 95.7941L227.5 97.7353L228.5 97.7353L228.5 95.7941L227.5 95.7941ZM227.5 99.6765L227.5 101.618L228.5 101.618L228.5 99.6765L227.5 99.6765ZM227.5 103.559L227.5 105.5L228.5 105.5L228.5 103.559L227.5 103.559ZM227.5 107.441L227.5 109.382L228.5 109.382L228.5 107.441L227.5 107.441ZM227.5 111.324L227.5 113.265L228.5 113.265L228.5 111.324L227.5 111.324ZM227.5 115.206L227.5 117.147L228.5 117.147L228.5 115.206L227.5 115.206ZM227.5 119.088L227.5 121.029L228.5 121.029L228.5 119.088L227.5 119.088ZM227.5 122.971L227.5 124.912L228.5 124.912L228.5 122.971L227.5 122.971ZM227.5 126.853L227.5 128.794L228.5 128.794L228.5 126.853L227.5 126.853ZM227.5 130.735L227.5 132.676L228.5 132.676L228.5 130.735L227.5 130.735ZM227.5 134.618L227.5 136.559L228.5 136.559L228.5 134.618L227.5 134.618ZM227.5 138.5L227.5 140.441L228.5 140.441L228.5 138.5L227.5 138.5ZM227.5 142.382L227.5 144.324L228.5 144.324L228.5 142.382L227.5 142.382ZM227.5 146.265L227.5 148.206L228.5 148.206L228.5 146.265L227.5 146.265ZM227.5 150.147L227.5 152.088L228.5 152.088L228.5 150.147L227.5 150.147Z" fill="#515151"/>
<path fill-rule="evenodd" clip-rule="evenodd" d="M172.582 358.262L200.873 315.624L200.878 315.617H200.878L200.902 315.626L229.021 325.354V312.787L172.582 293.765V294.551V294.708V358.262ZM180.471 365.528L206.537 374.604V360.677L188.215 353.584L180.471 365.528ZM229.021 374.559V358.686L215.184 353.82V369.541L229.021 374.559ZM229.021 349.73V334.976L227.867 334.571L215.184 330.238V345.016L229.021 349.73ZM206.537 327.094V351.562L192.858 346.588L192.781 346.542L205.587 326.791L206.537 327.094Z" fill="#3A7FD0"/>
<path fill-rule="evenodd" clip-rule="evenodd" d="M285.461 358.262L257.17 315.624L257.165 315.617H257.165L257.141 315.626L229.022 325.354V312.787L285.461 293.765V294.551V294.708V358.262ZM277.572 365.528L251.506 374.604V360.677L269.828 353.584L277.572 365.528ZM229.022 374.559V358.686L242.859 353.82V369.541L229.022 374.559ZM229.022 349.73V334.976L230.176 334.571L242.859 330.238V345.016L229.022 349.73ZM251.506 327.094V351.562L265.185 346.588L265.262 346.542L252.456 326.791L251.506 327.094Z" fill="#2B63A6"/>
<path d="M172.598 293.867L229.099 312.998L285.442 293.867L228.312 276L172.598 293.867Z" fill="#1E4A7E"/>
<path d="M224.929 259.986C224.929 259.986 237.901 260.531 254.74 260.093C261.356 270.209 265.354 278.906 264.11 289.193C264.11 289.193 261.482 297.518 248.635 298.3L222.742 294.271L199.864 295.116C199.864 295.116 177.588 270.72 191.881 266.445L219.493 270.022L224.929 259.986Z" fill="#0058A7"/>
<path d="M260.794 278.729C258.218 276.677 256.2 273.751 253.887 271.393C252.976 270.463 252.18 269.468 251.389 268.44C250.602 267.417 249.607 266.72 248.886 265.696C248.847 265.639 249.021 265.637 249.051 265.662C250.083 266.493 251.437 267.102 252.562 267.817C253.879 268.654 254.972 269.671 256.067 270.768C257.245 271.947 258.383 273.164 259.497 274.403C260.568 275.594 261.845 276.882 262.405 278.396C262.661 279.089 261.102 278.975 260.794 278.729Z" fill="#00387A"/>
<path d="M237.455 211.751L249.235 211.997L249.504 199.141L237.725 198.894C237.725 198.894 238.768 209.05 237.455 211.751Z" fill="#F8AF99"/>
<path d="M238.056 208.521C240.729 208.303 243.268 208.2 245.892 207.432C247.149 207.063 248.299 206.603 249.36 205.989L249.504 199.141L237.725 198.894C237.725 198.894 238.303 204.529 238.056 208.521Z" fill="#F5907E"/>
<path d="M230.133 189.709C230.876 191.576 231.637 193.746 232.933 195.383C234.413 197.255 236.583 197.387 237.583 195.051C238.525 192.853 238.492 190.137 238.085 187.878C237.864 186.644 237.448 185.246 236.294 184.406C234.491 183.094 232.115 183.503 230.775 185.056C229.519 186.512 229.48 188.064 230.133 189.709Z" fill="#4B4B4B"/>
<path d="M232.03 192.849C232.154 195.093 232.486 197.331 233.077 199.501C233.678 201.703 234.497 205.829 236.981 206.749C237.749 207.033 238.374 207.012 239.26 206.957C242.644 206.745 246.25 204.494 248.4 201.982C252.412 197.3 252.4 185.94 248.382 181.538C244.714 177.519 233.049 179.587 232.266 185.996C231.995 188.207 231.902 190.527 232.03 192.849Z" fill="#F8AF99"/>
<path d="M234.562 198.344C234.805 198.454 235.302 198.701 235.567 198.767C236.564 199.016 237.478 198.901 238.461 198.628C239.85 198.242 241.23 197.383 242.7 197.878C243.587 198.177 244.35 198.375 245.286 198.332C246.47 198.277 247.524 197.475 247.994 196.404C248.358 195.575 248.427 194.495 248.908 193.745C249.52 192.788 250.377 192.137 251.402 191.807C251.381 195.732 251.236 201.396 249.256 203.707C247.105 206.219 241.657 208.517 238.274 208.729C237.389 208.784 236.764 208.806 235.996 208.521C233.511 207.601 233.68 201.703 233.079 199.501C232.942 198.997 232.821 198.489 232.712 197.98C233.266 197.89 233.844 198.018 234.562 198.344Z" fill="#4B4B4B"/>
<path d="M249.199 191.607C248.692 190.765 249.86 189.698 250.561 189.388C251.266 189.076 252.495 189.078 252.949 189.814C252.983 189.876 252.983 189.938 252.949 190C252.934 190.024 252.92 190.048 252.906 190.072C252.887 190.003 252.869 189.934 252.851 189.866C253.119 190.164 253.205 190.658 253.321 191.04C253.478 191.558 253.541 192.085 253.438 192.617C253.428 192.67 253.291 192.677 253.274 192.628C253.092 192.126 252.936 191.617 252.74 191.119C252.644 190.873 252.507 190.639 252.387 190.404C252.424 190.231 252.35 190.186 252.166 190.268C252.03 190.269 251.898 190.251 251.767 190.215C251.676 190.189 251.584 190.166 251.491 190.148C251.194 190.072 251.327 190.036 251.889 190.04C251.67 190.123 251.472 190.362 251.289 190.506C251.047 190.696 250.888 190.948 250.75 191.217C250.596 191.52 250.538 191.556 250.234 191.742C249.982 191.895 249.37 191.892 249.199 191.607Z" fill="#F6977E"/>
<path d="M248.401 189.661C248.55 190.224 248.667 192.801 248.848 193.299C249.027 193.798 250.159 193.006 250.159 193.006C250.957 192.164 249.925 190.269 251.318 189.963C252.83 189.63 250.622 199.057 250.657 200.085C251.815 198.857 255.881 192.517 256.736 188.126C257.369 184.874 256.634 182.909 255.881 181.651C252.231 175.548 250.915 175.931 247.529 176.405C245.984 176.621 244.801 180.108 244.236 181.635C243.63 183.27 244.742 184.519 245.861 185.569C247.262 186.882 247.713 187.087 248.401 189.661Z" fill="#4B4B4B"/>
<path d="M252.632 189.993C254.214 191.361 253.613 195.725 250.756 197.347C249.963 196.584 249.831 194.39 249.663 193.313C249.499 192.258 249.392 191.242 249.978 190.296C250.159 190.006 251.469 188.988 252.632 189.993Z" fill="#F8AF99"/>
<path d="M232.332 228.839C233.909 219.225 229.077 218.726 229.077 218.726C223.642 217.333 221.114 225.603 221.114 225.603C221.114 225.603 217.194 243.899 217.247 252.099C217.247 252.099 223.011 255.678 225.732 250.567L232.332 228.839Z" fill="#F8AF99"/>
<path d="M247.351 210.159L265.551 216.857L255.531 261.726H231.544L224.948 217.749L238.833 210.159H247.351Z" fill="#F8AF99"/>
<path d="M230.609 244.7L233.574 228.551C233.574 228.551 237.883 219.161 230.375 214.206C230.375 214.206 222.278 215.478 220.779 223.109L216.721 239.23C216.721 239.23 217.128 243.245 230.609 244.7Z" fill="url(#paint5_linear_561_550)"/>
<path fill-rule="evenodd" clip-rule="evenodd" d="M225.766 216.277L237.929 210.159C240.252 213.984 249.803 210.939 249.803 210.939L260.258 214.916C260.855 215.136 261.473 215.336 262.094 215.536C263.128 215.869 264.17 216.205 265.128 216.643C266.854 217.433 267.101 219.541 266.661 221.289C266.493 221.954 266.157 222.658 265.815 223.374C265.311 224.43 264.795 225.51 264.795 226.518C264.794 229.258 264.449 230.776 263.917 233.118C263.831 233.498 263.74 233.9 263.644 234.332C263.422 235.337 263.276 236.449 263.126 237.584C263.105 237.746 263.083 237.908 263.062 238.071C263.059 240.679 263.597 245.099 264.108 247.621C264.45 249.309 264.572 251.189 264.694 253.083C264.844 255.397 264.996 257.733 265.551 259.77C267.339 266.327 267.957 279.42 266.848 286.379L266.847 286.379C266.734 286.39 260.658 286.981 257.969 280.785C257.085 279.301 256.46 277.659 255.833 276.016C254.963 273.732 254.092 271.447 252.527 269.583C249.96 266.528 245.313 263.42 241.133 263.636C239.99 263.695 238.631 264.444 237.242 265.209C235.5 266.169 233.71 267.155 232.236 266.842C230.859 266.549 229.041 266.965 227.208 267.385C224.805 267.935 222.376 268.492 220.876 267.466C219.681 266.649 221.175 262.567 222.593 258.693C223.692 255.688 224.746 252.809 224.464 251.675C223.758 248.834 224.004 246.357 224.947 243.723C225.487 242.217 226.088 241.555 226.652 240.933C227.251 240.274 227.807 239.661 228.201 238.136L225.766 216.277Z" fill="url(#paint6_linear_561_550)"/>
<path d="M231.911 265.684C243.739 263.997 272.736 267.039 273.896 253.452C274.844 242.341 271.099 224.824 266.001 220.838C262.215 217.878 257.129 219.523 255.095 223.963C252.83 228.909 259.764 245.971 260.885 253.069C260.885 253.069 250.715 260.013 229.241 262.236L231.911 265.684Z" fill="#F8AF99"/>
<path d="M277.805 249.663L269.026 221.761C267.24 217.048 264.21 216.257 263.594 216.257C254.215 216.255 253.388 227.837 253.388 227.837L257.928 248.299C257.928 248.299 268.143 254.15 277.805 249.663Z" fill="url(#paint7_linear_561_550)"/>
<path d="M233.672 263.375C233.186 262.731 230.502 262.318 229.239 262.236C225.788 262.008 222.818 262.229 219.609 263.052C218.507 263.335 216.112 263.968 215.095 264.529C214.474 264.872 213.263 265.152 213.466 265.922C213.951 266.183 216.742 265.627 218.581 265.196C215.899 265.978 215.273 266.714 215.219 267.069C215.874 267.791 219.016 266.372 221.226 265.891C221.94 265.736 217.03 267.587 219.43 267.787C219.949 267.83 223.329 266.857 224.931 266.494C224.759 266.659 222.634 267.765 222.687 267.955C222.732 268.449 224.854 267.926 225.913 267.64C227.338 267.255 235.594 265.918 233.672 263.375Z" fill="#F8AF99"/>
<path d="M199.859 256.59C199.27 256.034 196.557 256.075 195.298 256.203C191.856 256.553 188.966 257.264 185.938 258.61C184.898 259.072 182.643 260.095 181.732 260.818C181.176 261.259 180.029 261.736 180.358 262.462C180.88 262.639 183.54 261.626 185.281 260.895C182.766 262.113 182.272 262.942 182.278 263.301C183.043 263.904 185.906 261.982 188.006 261.141C188.684 260.869 184.149 263.511 186.549 263.308C187.068 263.264 190.24 261.742 191.759 261.118C191.615 261.31 189.706 262.754 189.789 262.933C189.917 263.412 191.92 262.543 192.917 262.086C194.258 261.469 202.177 258.776 199.859 256.59Z" fill="#F8AF99"/>
<path d="M217.62 246.289L194.022 257.899L196.387 259.986C196.387 259.986 221.689 256.279 225.289 252.094C225.289 252.094 222.789 245.092 217.62 246.289Z" fill="#F8AF99"/>
<path d="M235.837 212.127C236.358 212.056 236.879 211.985 237.4 211.914C237.671 212.048 237.944 212.178 238.22 212.303C238.897 212.618 239.582 212.849 240.324 212.941C241.386 213.074 242.46 213.176 243.522 213.046C244.474 212.929 245.309 213.156 246.249 212.786C247.087 212.457 247.858 212.323 248.654 212.036C249.028 211.903 250.461 211.866 250.441 212.539C250.407 213.745 248.565 213.738 247.708 214.049C246.279 214.567 244.838 214.321 243.384 214.456C242.048 214.58 240.558 214.217 239.251 213.981C238.214 213.794 236.108 213.171 235.759 212.053C236.07 212.14 236.38 212.226 236.691 212.313C236.371 212.339 236.083 212.357 235.837 212.127Z" fill="#0063AF"/>
<path d="M261.095 216.314C260.209 218.433 258.475 220.067 257.858 222.331C257.321 224.302 257.547 226.338 257.74 228.327C257.974 230.739 258.482 233.143 258.767 235.546C258.927 236.895 259.181 238.228 259.35 239.576C259.528 240.992 259.279 242.401 259.287 243.817C259.288 244.009 258.785 244.003 258.722 243.854C258.201 242.638 257.921 241.4 257.627 240.114C257.309 238.718 256.824 237.368 256.504 235.974C256.223 234.75 255.641 233.606 255.345 232.387C254.981 230.889 254.697 229.377 254.523 227.845C254.303 225.914 254.265 224.031 254.867 222.133C255.276 220.843 256.001 219.615 256.873 218.586C257.773 217.523 258.972 216.906 260.076 216.104C260.264 215.967 261.279 215.875 261.095 216.314Z" fill="#0063AF"/>
<path d="M234.551 212.3C234.354 213.013 233.88 213.497 233.498 214.11C232.832 215.176 232.146 216.661 232.011 217.898C231.907 218.851 231.72 219.797 231.605 220.749C231.474 221.838 231.619 222.934 231.613 224.036C231.601 226.197 231.493 228.366 231.482 230.536C231.473 232.343 231.114 233.97 230.521 235.681C230.451 235.884 229.771 235.878 229.779 235.632C229.839 233.783 229.812 231.911 229.803 230.065C229.791 227.757 229.878 225.459 229.866 223.156C229.86 222.173 229.767 221.294 229.876 220.309C230 219.18 230.16 218.047 230.319 216.923C230.46 215.92 231.371 214.745 231.883 213.891C232.336 213.134 233.149 212.711 233.795 212.144C233.948 212.009 234.64 211.974 234.551 212.3Z" fill="#0063AF"/>
<path d="M232.035 239.139C232.263 242.685 229.017 246.108 230.925 249.545C231.209 250.056 230.046 250.113 229.818 250.088C227.982 249.881 228.526 247.248 228.621 245.96C228.714 244.701 229.595 243.66 230.093 242.544C230.623 241.359 231.076 240.211 231.788 239.123C231.825 239.066 232.03 239.048 232.035 239.139Z" fill="#0063AF"/>
<path d="M252.774 265.064C254.222 265.55 255.412 265.752 256.523 266.909C257.3 267.718 257.973 268.816 258.211 269.92C258.504 271.277 258.615 272.613 259.077 273.938C259.338 274.684 259.638 275.384 260.029 276.071C260.295 276.539 260.736 276.821 261.051 277.247C261.716 278.146 258.912 278.11 258.453 277.784C256.676 276.518 256.004 273.851 255.916 271.755C255.861 270.43 255.667 269.288 255.012 268.113C254.36 266.941 253.223 266.252 252.457 265.183C252.367 265.056 252.725 265.047 252.774 265.064Z" fill="#0063AF"/>
<path d="M195.134 267.793H236.719V269.782H195.134V267.793Z" fill="#A6A8AB"/>
<path d="M183.124 269.782H221.824L218.43 242.462H179.729L183.124 269.782Z" fill="white"/>
<path d="M223.203 269.782H221.824L218.43 242.462H219.808L223.203 269.782Z" fill="#D0D2D3"/>
<path d="M200.776 258.559C199.066 258.559 197.68 257.174 197.68 255.464C197.68 253.755 199.066 252.369 200.776 252.369C202.485 252.369 203.871 253.755 203.871 255.464C203.871 257.174 202.485 258.559 200.776 258.559Z" fill="#D0D2D3"/>
<path d="M220.108 290.117L228.961 293.723L226.685 300.606L217.666 297.561L220.108 290.117Z" fill="#F7A78F"/>
<path d="M208.08 289.67L198.556 290.511L198.708 297.759L208.223 297.503L208.08 289.67Z" fill="#F7A78F"/>
<path d="M201.447 297.78C197.338 298.911 185.615 297.962 181.348 296.344C176.182 294.383 176.538 284.043 183.044 285.525C188.939 286.867 195.133 289.275 201.143 289.763C201.143 289.763 204.723 292.539 201.447 297.78Z" fill="#79CFE1"/>
<path d="M201.448 297.78C199.979 294.752 200.808 288.436 200.808 288.436L205.944 285.739C212.281 280.809 219.802 277.607 226.008 272.515C230.813 268.572 235.514 261.991 242.497 262.69C247.22 263.163 250.475 266.713 253.182 270.275C257.698 276.211 264.109 281.054 264.109 289.193C264.109 296.067 254.991 301.226 250.073 300.45C246.437 299.876 240.975 295.294 238.955 292.534L233.53 285.842C233.53 285.842 231.374 292.868 210.43 297.276C210.43 297.276 204.206 298.608 201.448 297.78Z" fill="#0058A7"/>
<path d="M238.735 263.147C237.405 263.711 236.189 264.977 235.104 265.92C233.733 267.11 232.249 268.126 230.765 269.163C228.175 270.972 225.824 273.148 223.479 275.257C220.838 277.633 218.317 280.015 215.404 282.075C212.071 284.434 208.384 287.3 204.436 288.403C204.253 288.454 203.394 288.471 203.564 288.074C204.303 286.355 206.229 285.428 207.772 284.428C209.502 283.306 211.221 282.169 212.899 280.971C215.881 278.841 218.548 276.346 221.37 274.02C223.851 271.974 226.457 270.009 229.199 268.326C232.158 266.509 235.012 263.792 238.452 262.968C238.552 262.943 238.977 263.045 238.735 263.147Z" fill="#00387A"/>
<path d="M225.376 291.272C222.403 291.18 219.305 289.184 216.813 287.714C213.854 285.968 211.157 283.973 208.547 281.744C205.352 279.014 202.19 276.201 199.11 273.339C197.196 271.559 195.339 269.847 193.155 268.394C192.072 267.673 190.929 267.039 189.79 266.414C188.83 265.886 187.707 265.515 186.993 264.669C186.367 263.93 188.681 263.885 188.922 263.943C191.099 264.465 193.301 266.048 195.189 267.23C197.141 268.451 198.927 269.853 200.557 271.48C202.313 273.235 204.159 274.874 206.031 276.504C207.552 277.828 208.979 279.273 210.544 280.543C211.717 281.496 213.123 282.335 214.461 283.029C216.21 283.936 217.843 285.022 219.528 286.043C220.95 286.905 222.342 287.824 223.74 288.724C224.558 289.25 225.855 289.751 226.243 290.714C226.421 291.155 225.653 291.281 225.376 291.272Z" fill="#00387A"/>
<path d="M237.327 291.541C236.495 290.5 235.479 289.629 234.221 289.158C233.401 288.851 232.083 290.149 231.491 290.603C230.058 291.7 227.471 293.442 225.626 292.283C225.373 292.123 225.175 291.977 225.288 291.656C225.456 291.182 226.055 291.074 226.481 290.978C227.264 290.802 228.023 290.233 228.678 289.797C229.843 289.022 230.999 288.212 232.404 287.963C235.173 287.475 237.228 288.984 238.506 291.382C238.735 291.811 237.545 291.814 237.327 291.541Z" fill="#00387A"/>
<path d="M179.303 263.028C169.743 264.273 172.216 273.147 175.568 276.221C184.591 284.497 197.608 290.729 208.963 295.115C209.348 295.264 220.108 299.279 221.909 299.997C219.673 294.596 224.664 290.833 224.664 290.832C224.664 290.832 211.955 284.68 203.43 275.717C203.43 275.717 190.689 260.617 179.303 263.028Z" fill="#0058A7"/>
<path d="M224.06 299.819C227.654 302.109 239.138 304.652 243.692 304.36C249.206 304.006 251.907 294.019 245.255 293.521C239.226 293.069 232.597 293.549 226.709 292.245C226.709 292.245 222.472 293.846 224.06 299.819Z" fill="#79CFE1"/>
<path d="M246.756 179.418C246.777 181.331 242.734 185.727 240.713 185.532C241.097 184.621 241.074 183.583 241.266 182.685C239.55 183.928 237.106 185.785 235.2 186.644C234.373 187.017 232.17 187.776 231.454 187.171C230.99 186.778 231.295 185.969 231.016 185.521C230.497 184.687 230.541 185.188 229.732 184.717C225.286 182.126 229.715 175.071 233.104 173.114C236.522 171.141 241.735 170.956 245.435 172.227C247.005 172.766 248.644 173.646 249.441 175.118C250.096 176.325 250.788 180.489 248.843 180.863L246.756 179.418Z" fill="#4B4B4B"/>
<path d="M68.9219 240.66C68.9219 239.17 69.8919 238.2 71.4019 238.2C72.1119 238.2 72.7819 238.56 73.0619 239.12H73.0819V238.32H73.8619V242.84C73.8619 244.41 73.0019 245.4 71.3119 245.4C70.4019 245.4 69.6619 245.16 69.0119 244.51L69.5719 243.87C70.0619 244.4 70.5919 244.68 71.3119 244.68C72.5019 244.68 73.0819 244.03 73.0819 242.8V242.19H73.0619C72.7119 242.74 72.1019 243.06 71.4019 243.06C69.9619 243.06 68.9219 242.05 68.9219 240.66ZM71.4019 238.92C70.4619 238.92 69.7619 239.66 69.7619 240.66C69.7619 241.6 70.4919 242.34 71.4119 242.34C72.4219 242.34 73.0819 241.6 73.0819 240.64C73.0819 239.63 72.4019 238.92 71.4019 238.92Z" fill="white"/>
<path d="M63.5938 238.32H64.3337C64.3337 238.61 64.3537 238.78 64.3537 239.09H64.3737C64.6237 238.56 65.2438 238.2 65.9338 238.2C67.1237 238.2 67.7137 238.94 67.7137 240.07V243H66.9338V240.16C66.9338 239.44 66.6138 238.92 65.8638 238.92C64.9038 238.92 64.4137 239.59 64.4137 240.71V243H63.6338V239.36C63.6338 239.05 63.5938 238.6 63.5938 238.32Z" fill="white"/>
<path d="M61.6911 235.92C62.0011 235.92 62.2611 236.17 62.2611 236.49C62.2611 236.82 62.0211 237.06 61.6911 237.06C61.3611 237.06 61.1211 236.82 61.1211 236.49C61.1211 236.17 61.3811 235.92 61.6911 235.92ZM62.0811 238.32V243H61.3011V238.32H62.0811Z" fill="white"/>
<path d="M52.6758 238.32H53.4158C53.4158 238.61 53.4358 238.78 53.4358 239.09H53.4558C53.7058 238.56 54.3158 238.2 55.0258 238.2C55.6658 238.2 56.1858 238.42 56.4958 239.09C56.8658 238.48 57.3158 238.2 57.9858 238.2C59.1958 238.2 59.7558 238.84 59.7558 240.11V243H58.9758V240.17C58.9758 239.37 58.5858 238.92 57.8358 238.92C57.1358 238.92 56.6258 239.53 56.6258 240.27V243H55.8458V240.29C55.8458 239.38 55.6158 238.92 54.9358 238.92C53.9958 238.92 53.4958 239.58 53.4958 240.71V243H52.7158V239.36C52.7158 239.05 52.6758 238.6 52.6758 238.32Z" fill="white"/>
<path d="M44.1602 238.32H44.9002C44.9002 238.61 44.9202 238.78 44.9202 239.09H44.9402C45.1902 238.56 45.8002 238.2 46.5102 238.2C47.1502 238.2 47.6702 238.42 47.9802 239.09C48.3502 238.48 48.8002 238.2 49.4702 238.2C50.6802 238.2 51.2402 238.84 51.2402 240.11V243H50.4602V240.17C50.4602 239.37 50.0702 238.92 49.3202 238.92C48.6202 238.92 48.1102 239.53 48.1102 240.27V243H47.3302V240.29C47.3302 239.38 47.1002 238.92 46.4202 238.92C45.4802 238.92 44.9802 239.58 44.9802 240.71V243H44.2002V239.36C44.2002 239.05 44.1602 238.6 44.1602 238.32Z" fill="white"/>
<path d="M40.4861 243.12C39.4661 243.12 38.7461 242.58 38.7461 241.73C38.7461 240.65 39.5561 240.09 41.6361 240.09H41.9961V239.96C41.9961 239.27 41.5661 238.92 40.8361 238.92C40.3261 238.92 39.8161 239.08 39.4461 239.43L38.9561 238.92C39.4361 238.44 40.1261 238.2 40.8161 238.2C42.1661 238.2 42.7761 238.85 42.7761 240.13V242.23C42.7761 242.39 42.7961 242.68 42.8461 243H42.0961C42.0561 242.88 42.0461 242.7 42.0461 242.3H42.0261C41.6761 242.83 41.1361 243.12 40.4861 243.12ZM41.1361 240.75C40.2161 240.75 39.5861 241.04 39.5861 241.65C39.5861 242.18 39.9561 242.46 40.6161 242.46C41.4261 242.46 41.9961 241.93 41.9961 240.93V240.75H41.1361Z" fill="white"/>
<path d="M37.797 238.2C37.917 238.2 38.007 238.21 38.117 238.25L38.067 239.04C37.917 239 37.797 238.98 37.647 238.98C36.747 238.98 36.277 239.6 36.277 240.68V243H35.497V239.36C35.497 239.05 35.457 238.6 35.457 238.32H36.197C36.197 238.61 36.217 238.78 36.217 239.09H36.237C36.487 238.56 37.107 238.2 37.797 238.2Z" fill="white"/>
<path d="M29.1172 240.66C29.1172 239.17 30.0872 238.2 31.5972 238.2C32.3072 238.2 32.9772 238.56 33.2572 239.12H33.2772V238.32H34.0572V242.84C34.0572 244.41 33.1972 245.4 31.5072 245.4C30.5972 245.4 29.8572 245.16 29.2072 244.51L29.7672 243.87C30.2572 244.4 30.7872 244.68 31.5072 244.68C32.6972 244.68 33.2772 244.03 33.2772 242.8V242.19H33.2572C32.9072 242.74 32.2972 243.06 31.5972 243.06C30.1572 243.06 29.1172 242.05 29.1172 240.66ZM31.5972 238.92C30.6572 238.92 29.9572 239.66 29.9572 240.66C29.9572 241.6 30.6872 242.34 31.6072 242.34C32.6172 242.34 33.2772 241.6 33.2772 240.64C33.2772 239.63 32.5972 238.92 31.5972 238.92Z" fill="white"/>
<path d="M25.6797 238.2C27.1297 238.2 28.1797 239.21 28.1797 240.66C28.1797 242.1 27.1297 243.12 25.6797 243.12C24.2297 243.12 23.1797 242.1 23.1797 240.66C23.1797 239.23 24.2097 238.2 25.6797 238.2ZM24.0197 240.66C24.0197 241.67 24.6997 242.4 25.6797 242.4C26.6797 242.4 27.3397 241.65 27.3397 240.66C27.3397 239.67 26.6797 238.92 25.6697 238.92C24.6897 238.92 24.0197 239.67 24.0197 240.66Z" fill="white"/>
<path d="M22.4064 238.2C22.5264 238.2 22.6164 238.21 22.7264 238.25L22.6764 239.04C22.5264 239 22.4064 238.98 22.2564 238.98C21.3564 238.98 20.8864 239.6 20.8864 240.68V243H20.1064V239.36C20.1064 239.05 20.0664 238.6 20.0664 238.32H20.8064C20.8064 238.61 20.8264 238.78 20.8264 239.09H20.8464C21.0964 238.56 21.7164 238.2 22.4064 238.2Z" fill="white"/>
<path d="M15.1603 243H14.3203V235.92H16.4703C17.9803 235.92 18.9003 236.59 18.9003 237.86C18.9003 239.15 17.9303 239.82 16.6203 239.82H15.1603V243ZM15.1603 236.7V239.04H16.6203C17.4703 239.04 18.0003 238.6 18.0003 237.87C18.0003 237.14 17.4803 236.7 16.6203 236.7H15.1603Z" fill="white"/>
<path d="M70.8048 231.12C69.4848 231.12 68.4648 230.05 68.4648 228.66C68.4648 227.24 69.4648 226.2 70.9248 226.2C71.5848 226.2 72.1748 226.49 72.6048 227H72.6248V223.44H73.4048V231H72.6248V230.17H72.6048C72.2848 230.76 71.5748 231.12 70.8048 231.12ZM69.3048 228.66C69.3048 229.67 69.9848 230.4 70.9648 230.4C71.9648 230.4 72.6248 229.65 72.6248 228.66C72.6248 227.67 71.9748 226.92 70.9548 226.92C69.9748 226.92 69.3048 227.67 69.3048 228.66Z" fill="white"/>
<path d="M65.3102 226.2C66.5302 226.2 67.5302 226.97 67.5302 228.71V228.9H63.7502C63.8302 229.77 64.4702 230.4 65.2902 230.4C65.9402 230.4 66.4002 230.17 66.7702 229.69L67.3602 230.15C66.8702 230.79 66.2402 231.12 65.2902 231.12C63.8402 231.12 62.9102 230.06 62.9102 228.66C62.9102 227.22 63.9202 226.2 65.3102 226.2ZM66.6902 228.24C66.6502 227.43 66.1402 226.92 65.2702 226.92C64.4702 226.92 63.8702 227.39 63.7502 228.24H66.6902Z" fill="white"/>
<path d="M57.582 226.32H58.322C58.322 226.61 58.342 226.78 58.342 227.09H58.362C58.612 226.56 59.232 226.2 59.922 226.2C61.112 226.2 61.702 226.94 61.702 228.07V231H60.922V228.16C60.922 227.44 60.602 226.92 59.852 226.92C58.892 226.92 58.402 227.59 58.402 228.71V231H57.622V227.36C57.622 227.05 57.582 226.6 57.582 226.32Z" fill="white"/>
<path d="M54.1969 226.2C55.4169 226.2 56.4169 226.97 56.4169 228.71V228.9H52.6369C52.7169 229.77 53.3569 230.4 54.1769 230.4C54.8269 230.4 55.2869 230.17 55.6569 229.69L56.2469 230.15C55.7569 230.79 55.1269 231.12 54.1769 231.12C52.7269 231.12 51.7969 230.06 51.7969 228.66C51.7969 227.22 52.8069 226.2 54.1969 226.2ZM55.5769 228.24C55.5369 227.43 55.0269 226.92 54.1569 226.92C53.3569 226.92 52.7569 227.39 52.6369 228.24H55.5769Z" fill="white"/>
<path d="M48.6383 226.2C49.8583 226.2 50.8583 226.97 50.8583 228.71V228.9H47.0783C47.1583 229.77 47.7983 230.4 48.6183 230.4C49.2683 230.4 49.7283 230.17 50.0983 229.69L50.6883 230.15C50.1983 230.79 49.5683 231.12 48.6183 231.12C47.1683 231.12 46.2383 230.06 46.2383 228.66C46.2383 227.22 47.2483 226.2 48.6383 226.2ZM50.0183 228.24C49.9783 227.43 49.4683 226.92 48.5983 226.92C47.7983 226.92 47.1983 227.39 47.0783 228.24H50.0183Z" fill="white"/>
<path d="M45.4689 226.2C45.5889 226.2 45.6789 226.21 45.7889 226.25L45.7389 227.04C45.5889 227 45.4689 226.98 45.3189 226.98C44.4189 226.98 43.9489 227.6 43.9489 228.68V231H43.1689V227.36C43.1689 227.05 43.1289 226.6 43.1289 226.32H43.8689C43.8689 226.61 43.8889 226.78 43.8889 227.09H43.9089C44.1589 226.56 44.7789 226.2 45.4689 226.2Z" fill="white"/>
<path d="M40.5042 226.2C41.1842 226.2 41.8242 226.43 42.2942 226.94L41.6742 227.49C41.3442 227.09 40.9642 226.92 40.4942 226.92C39.5242 226.92 38.9142 227.61 38.9142 228.66C38.9142 229.64 39.5642 230.4 40.4942 230.4C41.0042 230.4 41.3942 230.22 41.6842 229.82L42.2642 230.37C41.8142 230.89 41.1742 231.12 40.4942 231.12C39.0542 231.12 38.0742 230.11 38.0742 228.66C38.0742 227.23 39.0642 226.2 40.5042 226.2Z" fill="white"/>
<path d="M34.9997 223.74C35.7897 223.74 36.4497 223.96 36.9797 224.57L36.2897 225.17C36.0097 224.72 35.5097 224.52 34.9997 224.52C34.1097 224.52 33.4897 224.98 33.4897 225.71C33.4897 226.4 33.9397 226.7 35.0097 227.02C36.6297 227.5 37.0997 228.1 37.0997 229.11C37.0997 230.38 36.0497 231.18 34.6097 231.18C33.6397 231.18 32.8397 230.81 32.4297 230.2L33.1497 229.61C33.4597 230.12 34.0297 230.4 34.6597 230.4C35.4497 230.4 36.1997 229.91 36.1997 229.17C36.1997 228.22 35.4397 228.11 34.2497 227.7C33.0397 227.28 32.5897 226.71 32.5897 225.78C32.5897 224.55 33.6097 223.74 34.9997 223.74Z" fill="white"/>
<path d="M31.6102 228.24V228.96H29.1602V228.24H31.6102Z" fill="white"/>
<path d="M26.0328 226.2C27.2528 226.2 28.2528 226.97 28.2528 228.71V228.9H24.4728C24.5528 229.77 25.1928 230.4 26.0128 230.4C26.6628 230.4 27.1228 230.17 27.4928 229.69L28.0828 230.15C27.5928 230.79 26.9628 231.12 26.0128 231.12C24.5628 231.12 23.6328 230.06 23.6328 228.66C23.6328 227.22 24.6428 226.2 26.0328 226.2ZM27.4128 228.24C27.3728 227.43 26.8628 226.92 25.9928 226.92C25.1928 226.92 24.5928 227.39 24.4728 228.24H27.4128Z" fill="white"/>
<path d="M22.8634 226.2C22.9834 226.2 23.0734 226.21 23.1834 226.25L23.1334 227.04C22.9834 227 22.8634 226.98 22.7134 226.98C21.8134 226.98 21.3434 227.6 21.3434 228.68V231H20.5634V227.36C20.5634 227.05 20.5234 226.6 20.5234 226.32H21.2634C21.2634 226.61 21.2834 226.78 21.2834 227.09H21.3034C21.5534 226.56 22.1734 226.2 22.8634 226.2Z" fill="white"/>
<path d="M15.6134 231H14.7734V223.92H16.9234C18.4334 223.92 19.3534 224.59 19.3534 225.86C19.3534 227.15 18.3834 227.82 17.0734 227.82H15.6134V231ZM15.6134 224.7V227.04H17.0734C17.9234 227.04 18.4534 226.6 18.4534 225.87C18.4534 225.14 17.9334 224.7 17.0734 224.7H15.6134Z" fill="white"/>
<path d="M92.6836 108.32V103.92H93.5236V108.18C93.5236 109.59 94.1436 110.4 95.3536 110.4C96.5636 110.4 97.1836 109.58 97.1836 108.22V103.92H98.0236V108.33C98.0236 110.06 97.1036 111.18 95.3536 111.18C93.6036 111.18 92.6836 110.05 92.6836 108.32Z" fill="white"/>
<path d="M87.6252 111H86.7852V103.92H88.9352C90.4452 103.92 91.3652 104.59 91.3652 105.86C91.3652 107.15 90.3952 107.82 89.0852 107.82H87.6252V111ZM87.6252 104.7V107.04H89.0852C89.9352 107.04 90.4652 106.6 90.4652 105.87C90.4652 105.14 89.9452 104.7 89.0852 104.7H87.6252Z" fill="white"/>
<path d="M82.4038 103.74C83.4538 103.74 84.2938 104.06 84.9038 104.67L84.2738 105.33C83.7838 104.81 83.0738 104.52 82.3438 104.52C80.7138 104.52 79.4938 105.77 79.4938 107.46C79.4938 109.16 80.7038 110.4 82.4238 110.4C83.0238 110.4 83.6938 110.23 84.1838 109.99V107.82H82.5538V107.04H85.0238V110.52C84.1938 110.97 83.2937 111.18 82.3737 111.18C80.1737 111.18 78.5938 109.66 78.5938 107.46C78.5938 105.31 80.2037 103.74 82.4038 103.74Z" fill="white"/>
<path d="M237.493 42.2C238.213 42.2 238.793 42.5 239.083 43.05L238.433 43.48C238.233 43.15 237.913 42.92 237.443 42.92C236.923 42.92 236.523 43.18 236.523 43.57C236.523 43.88 236.893 44.1 237.693 44.25C238.813 44.46 239.233 44.89 239.233 45.65C239.233 46.57 238.493 47.12 237.363 47.12C236.493 47.12 235.953 46.85 235.543 46.25L236.163 45.77C236.553 46.24 236.893 46.4 237.363 46.4C237.953 46.4 238.393 46.12 238.393 45.68C238.393 45.25 238.103 45.08 237.073 44.86C236.143 44.66 235.743 44.28 235.743 43.58C235.743 42.73 236.533 42.2 237.493 42.2Z" fill="white"/>
<path d="M234.51 39.4399V46.9999H233.73V39.4399H234.51Z" fill="white"/>
<path d="M229.953 42.2C231.403 42.2 232.453 43.21 232.453 44.66C232.453 46.1 231.403 47.12 229.953 47.12C228.503 47.12 227.453 46.1 227.453 44.66C227.453 43.23 228.483 42.2 229.953 42.2ZM228.293 44.66C228.293 45.67 228.973 46.4 229.953 46.4C230.953 46.4 231.613 45.65 231.613 44.66C231.613 43.67 230.953 42.92 229.943 42.92C228.963 42.92 228.293 43.67 228.293 44.66Z" fill="white"/>
<path d="M224.016 42.2C225.466 42.2 226.516 43.21 226.516 44.66C226.516 46.1 225.466 47.12 224.016 47.12C222.566 47.12 221.516 46.1 221.516 44.66C221.516 43.23 222.546 42.2 224.016 42.2ZM222.356 44.66C222.356 45.67 223.036 46.4 224.016 46.4C225.016 46.4 225.676 45.65 225.676 44.66C225.676 43.67 225.016 42.92 224.006 42.92C223.026 42.92 222.356 43.67 222.356 44.66Z" fill="white"/>
<path d="M216.527 40.6999V39.9199H222.047V40.6999H219.707V46.9999H218.867V40.6999H216.527Z" fill="white"/>
<path d="M382.659 111H381.879V103.44H382.659V106.97H382.679C382.959 106.5 383.559 106.2 384.189 106.2C385.359 106.2 385.959 106.94 385.959 108.07V111H385.179V108.16C385.179 107.44 384.859 106.92 384.109 106.92C383.149 106.92 382.659 107.6 382.659 108.68V111Z" fill="white"/>
<path d="M379.215 106.2C379.895 106.2 380.535 106.43 381.005 106.94L380.385 107.49C380.055 107.09 379.675 106.92 379.205 106.92C378.235 106.92 377.625 107.61 377.625 108.66C377.625 109.64 378.275 110.4 379.205 110.4C379.715 110.4 380.105 110.22 380.395 109.82L380.975 110.37C380.525 110.89 379.885 111.12 379.205 111.12C377.765 111.12 376.785 110.11 376.785 108.66C376.785 107.23 377.775 106.2 379.215 106.2Z" fill="white"/>
<path d="M376.012 106.2C376.132 106.2 376.222 106.21 376.332 106.25L376.282 107.04C376.132 107 376.012 106.98 375.862 106.98C374.962 106.98 374.492 107.6 374.492 108.68V111H373.712V107.36C373.712 107.05 373.672 106.6 373.672 106.32H374.412C374.412 106.61 374.432 106.78 374.432 107.09H374.452C374.702 106.56 375.322 106.2 376.012 106.2Z" fill="white"/>
<path d="M369.998 111.12C368.978 111.12 368.258 110.58 368.258 109.73C368.258 108.65 369.068 108.09 371.148 108.09H371.508V107.96C371.508 107.27 371.078 106.92 370.348 106.92C369.838 106.92 369.328 107.08 368.958 107.43L368.468 106.92C368.948 106.44 369.638 106.2 370.328 106.2C371.678 106.2 372.288 106.85 372.288 108.13V110.23C372.288 110.39 372.308 110.68 372.358 111H371.608C371.568 110.88 371.558 110.7 371.558 110.3H371.538C371.188 110.83 370.648 111.12 369.998 111.12ZM370.648 108.75C369.728 108.75 369.098 109.04 369.098 109.65C369.098 110.18 369.468 110.46 370.128 110.46C370.938 110.46 371.508 109.93 371.508 108.93V108.75H370.648Z" fill="white"/>
<path d="M365.103 106.2C366.323 106.2 367.323 106.97 367.323 108.71V108.9H363.543C363.623 109.77 364.263 110.4 365.083 110.4C365.733 110.4 366.193 110.17 366.563 109.69L367.153 110.15C366.663 110.79 366.033 111.12 365.083 111.12C363.633 111.12 362.703 110.06 362.703 108.66C362.703 107.22 363.713 106.2 365.103 106.2ZM366.483 108.24C366.443 107.43 365.933 106.92 365.063 106.92C364.263 106.92 363.663 107.39 363.543 108.24H366.483Z" fill="white"/>
<path d="M360.145 106.2C360.865 106.2 361.445 106.5 361.735 107.05L361.085 107.48C360.885 107.15 360.565 106.92 360.095 106.92C359.575 106.92 359.175 107.18 359.175 107.57C359.175 107.88 359.545 108.1 360.345 108.25C361.465 108.46 361.885 108.89 361.885 109.65C361.885 110.57 361.145 111.12 360.015 111.12C359.145 111.12 358.605 110.85 358.195 110.25L358.815 109.77C359.205 110.24 359.545 110.4 360.015 110.4C360.605 110.4 361.045 110.12 361.045 109.68C361.045 109.25 360.755 109.08 359.725 108.86C358.795 108.66 358.395 108.28 358.395 107.58C358.395 106.73 359.185 106.2 360.145 106.2Z" fill="white"/>
<path d="M355.287 106.2C356.507 106.2 357.507 106.97 357.507 108.71V108.9H353.727C353.807 109.77 354.447 110.4 355.267 110.4C355.917 110.4 356.377 110.17 356.747 109.69L357.337 110.15C356.847 110.79 356.217 111.12 355.267 111.12C353.817 111.12 352.887 110.06 352.887 108.66C352.887 107.22 353.897 106.2 355.287 106.2ZM356.667 108.24C356.627 107.43 356.117 106.92 355.247 106.92C354.447 106.92 353.847 107.39 353.727 108.24H356.667Z" fill="white"/>
<path d="M348.024 111H347.184V103.92H349.114C351.114 103.92 351.814 104.62 351.814 105.86C351.814 106.86 351.204 107.55 350.044 107.74L352.054 111H351.024L349.104 107.82H348.024V111ZM348.024 107.04H349.024C350.554 107.04 350.914 106.55 350.914 105.87C350.914 105.07 350.384 104.7 349.254 104.7H348.024V107.04Z" fill="white"/>
<path d="M422.638 232.2C423.358 232.2 423.938 232.5 424.228 233.05L423.578 233.48C423.378 233.15 423.058 232.92 422.588 232.92C422.068 232.92 421.668 233.18 421.668 233.57C421.668 233.88 422.038 234.1 422.838 234.25C423.958 234.46 424.378 234.89 424.378 235.65C424.378 236.57 423.638 237.12 422.508 237.12C421.638 237.12 421.097 236.85 420.688 236.25L421.308 235.77C421.698 236.24 422.038 236.4 422.508 236.4C423.098 236.4 423.538 236.12 423.538 235.68C423.538 235.25 423.248 235.08 422.218 234.86C421.288 234.66 420.888 234.28 420.888 233.58C420.888 232.73 421.678 232.2 422.638 232.2Z" fill="white"/>
<path d="M418.09 232.98H417.07V232.32H418.09V230.99H418.87V232.32H420.25V232.98H418.87V235.48C418.87 236.23 419.12 236.4 419.57 236.4C419.8 236.4 420.06 236.35 420.26 236.24L420.29 236.95C420.01 237.07 419.67 237.12 419.38 237.12C418.48 237.12 418.09 236.76 418.09 235.6V232.98Z" fill="white"/>
<path d="M413.984 232.2C415.434 232.2 416.484 233.21 416.484 234.66C416.484 236.1 415.434 237.12 413.984 237.12C412.534 237.12 411.484 236.1 411.484 234.66C411.484 233.23 412.514 232.2 413.984 232.2ZM412.324 234.66C412.324 235.67 413.004 236.4 413.984 236.4C414.984 236.4 415.644 235.65 415.644 234.66C415.644 233.67 414.984 232.92 413.974 232.92C412.994 232.92 412.324 233.67 412.324 234.66Z" fill="white"/>
<path d="M410.202 229.44V237H409.422V229.44H410.202Z" fill="white"/>
<path d="M407.406 229.92C407.716 229.92 407.976 230.17 407.976 230.49C407.976 230.82 407.736 231.06 407.406 231.06C407.076 231.06 406.836 230.82 406.836 230.49C406.836 230.17 407.096 229.92 407.406 229.92ZM407.796 232.32V237H407.016V232.32H407.796Z" fill="white"/>
<path d="M402 237H401.16V229.92H403.31C404.82 229.92 405.74 230.59 405.74 231.86C405.74 233.15 404.77 233.82 403.46 233.82H402V237ZM402 230.7V233.04H403.46C404.31 233.04 404.84 232.6 404.84 231.87C404.84 231.14 404.32 230.7 403.46 230.7H402Z" fill="white"/>
<defs>
<linearGradient id="paint0_linear_561_550" x1="228.701" y1="0" x2="228.701" y2="88.8154" gradientUnits="userSpaceOnUse">
<stop stop-color="#FFAD31"/>
<stop offset="1" stop-color="#99681D"/>
</linearGradient>
<linearGradient id="paint1_linear_561_550" x1="88.8139" y1="63.281" x2="88.8139" y2="152.096" gradientUnits="userSpaceOnUse">
<stop stop-color="#51B29C"/>
<stop offset="1" stop-color="#234C43"/>
</linearGradient>
<linearGradient id="paint2_linear_561_550" x1="44.4077" y1="188.733" x2="44.4077" y2="277.548" gradientUnits="userSpaceOnUse">
<stop stop-color="#3A7FD0"/>
<stop offset="1" stop-color="#1E416A"/>
</linearGradient>
<linearGradient id="paint3_linear_561_550" x1="366.408" y1="63.281" x2="366.408" y2="152.096" gradientUnits="userSpaceOnUse">
<stop stop-color="#3A7FD0"/>
<stop offset="1" stop-color="#1E416A"/>
</linearGradient>
<linearGradient id="paint4_linear_561_550" x1="412.99" y1="188.733" x2="412.99" y2="277.548" gradientUnits="userSpaceOnUse">
<stop stop-color="#8E47AD"/>
<stop offset="1" stop-color="#3A1D47"/>
</linearGradient>
<linearGradient id="paint5_linear_561_550" x1="234.805" y1="214.206" x2="212.492" y2="217.7" gradientUnits="userSpaceOnUse">
<stop stop-color="#51B29C"/>
<stop offset="1" stop-color="#3A7FD0"/>
</linearGradient>
<linearGradient id="paint6_linear_561_550" x1="267.402" y1="210.159" x2="209.569" y2="219.567" gradientUnits="userSpaceOnUse">
<stop stop-color="#51B29C"/>
<stop offset="1" stop-color="#3A7FD0"/>
</linearGradient>
<linearGradient id="paint7_linear_561_550" x1="277.805" y1="216.257" x2="247.948" y2="221.742" gradientUnits="userSpaceOnUse">
<stop stop-color="#51B29C"/>
<stop offset="1" stop-color="#3A7FD0"/>
</linearGradient>
</defs>
</svg>
