<svg width="458" height="390" viewBox="0 0 458 390" fill="none" xmlns="http://www.w3.org/2000/svg">
<circle cx="229" cy="228.7" r="79.3746" stroke="white" stroke-opacity="0.1" stroke-width="10"/>
<path d="M247.565 229.039L249.598 229.482C249.598 229.482 255.161 253.423 253.067 259.108C250.974 264.792 247.611 259.165 246.561 258.651C245.51 258.137 236.211 231.79 236.211 231.79L247.565 229.039Z" fill="#E69376"/>
<path d="M254.573 256.112L250.917 228.305C248.741 220.989 240.703 223.691 240.703 223.691C234.675 225.927 235.634 230.672 235.634 230.672L243.889 259.243C243.889 259.243 245.451 263.58 251.18 263.004C251.18 263.004 255.348 262.006 254.573 256.112Z" fill="#3A7FD0"/>
<path d="M244.722 378.267C244.722 378.267 245.801 382.471 247.129 383.612C248.455 384.752 253.518 386.43 253.518 386.43L256.323 386.833C256.323 386.833 258.271 388.232 252.921 389.701C247.57 391.173 238.18 386.734 238.18 386.734L240.298 378.139L244.722 378.267Z" fill="#1A5A84"/>
<path d="M216.506 387.419C215.562 385.946 213.582 377.924 213.582 377.924L209.211 377.792L206.475 386.626C206.475 386.626 206.036 388.103 206.929 388.658C206.929 388.658 212.381 390.551 217.038 388.567C217.038 388.567 216.989 388.172 216.506 387.419Z" fill="#1A5A84"/>
<path d="M243.61 265.6L249.192 231.47C249.192 231.47 251.115 226.34 247.268 223.776L232.608 216.881H222.266L204.641 227.302L216.194 265.599H243.61V265.6Z" fill="#F6A382"/>
<path d="M216.191 265.6C216.191 265.6 213.025 272.832 212.262 289.456C212.262 289.456 236.091 296.933 243.566 289.456L243.608 265.6H216.191Z" fill="#00264F"/>
<path d="M222.117 299.561C227.516 299.521 231.859 294.966 231.818 289.386C231.776 283.807 227.366 279.316 221.967 279.356C216.568 279.396 212.225 283.952 212.266 289.531C212.307 295.111 216.718 299.601 222.117 299.561Z" fill="#2B73AF"/>
<path d="M212.274 290.758L209.68 338.27C209.68 338.27 214.269 344.291 222.393 337.497L231.212 293.795C231.212 293.795 226.933 279.107 212.274 290.758Z" fill="#2B73AF"/>
<path d="M211.699 332.722C211.699 332.722 207.234 341.218 207.96 355.108L207.234 381.078L214.602 381.297L222.346 337.632C222.346 337.632 218.243 322.973 211.699 332.722Z" fill="#2B73AF"/>
<path d="M243.523 289.483C244.088 295.033 242.106 299.781 236.735 300.329C231.363 300.877 226.55 296.822 225.984 291.273C225.418 285.722 229.314 280.779 234.685 280.232C240.056 279.682 242.958 283.933 243.523 289.483Z" fill="#2B73AF"/>
<path d="M228.277 296.79L233.789 340.217C233.789 340.217 243.541 341.515 245.44 334.873C245.44 334.873 245.563 304.221 243.524 289.482C243.524 289.482 230.312 283.046 228.277 296.79Z" fill="#2B73AF"/>
<path d="M234.401 336.369C234.401 336.369 232.638 342.874 234.261 353.355L238.263 382.688L246.151 382.13L245.439 334.873C245.439 334.873 241.1 328.306 234.401 336.369Z" fill="#2B73AF"/>
<path d="M206.178 231.498L204.169 232.035C204.169 232.035 201.034 256.1 203.387 261.682C205.739 267.261 207.951 261.726 208.976 261.165C210.002 260.603 217.646 233.722 217.646 233.722L206.178 231.498Z" fill="#F6A382"/>
<path d="M211.578 260.95L218.164 232.606C216.805 224.941 209.511 225.48 209.511 225.48C203.108 226.062 202.794 230.892 202.794 230.892L202.37 259.719C202.37 259.719 201.948 264.646 205.659 264.384C205.659 264.384 210.973 263.555 211.578 260.95Z" fill="#3A7FD0"/>
<path d="M222.215 209.342V220.399H233.902C233.902 220.399 231.028 216.016 232.465 209.342H222.215Z" fill="#F6A382"/>
<path d="M228.144 218.731C229.197 219.409 231.435 220.853 232.713 220.009C233.056 219.781 233.216 219.483 233.269 219.151C232.517 217.4 231.483 213.908 232.465 209.342H222.215V210.345C223.494 213.581 225.135 216.791 228.144 218.731Z" fill="#E0856E"/>
<path d="M221.938 209.497C221.938 209.497 219.949 208.633 217.697 203.708C217.697 203.708 212.807 197.884 216.273 191.272C216.273 191.272 218.321 185.682 228.244 187.247C228.244 187.247 229.136 202.231 221.938 209.497Z" fill="#F79F7D"/>
<path d="M234.158 212.487L234.821 210.755C234.821 210.755 236.647 204.305 236.647 204.303C236.875 203.493 236.889 202.407 236.742 201.572C236.581 200.666 236.479 199.718 236.716 198.762C237.868 194.123 235.491 191.49 235.491 191.49C232.872 187.115 226.426 186.97 226.426 186.97C218.447 187.177 217.596 194.879 217.596 194.879C216.184 199.981 220.166 204.351 220.174 204.36C220.492 204.708 220.285 206.394 220.371 206.876C220.746 208.934 222.675 210.239 224.391 211.147C226.276 212.143 228.56 213.21 230.69 213.455C231.496 213.548 233.78 213.481 234.158 212.487Z" fill="#F6A382"/>
<path d="M214.296 264.673C214.32 265.809 212.595 277.706 213.319 277.858C213.324 277.859 233.047 282.406 243.568 277.858L243.61 265.6L249.192 231.47C249.192 231.47 251.115 226.34 247.268 223.776L232.608 216.881L233.596 219.855L231.477 225.885L222.266 216.881L204.641 227.302C205.625 230.567 206.604 233.834 207.589 237.1C209.407 243.119 211.175 249.157 213.047 255.16C213.047 255.16 214.596 261.67 214.296 264.673Z" fill="white"/>
<path d="M230.204 219.027L230.081 224.522L228.059 222.543L230.204 219.027Z" fill="#A4C5C7"/>
<path d="M231.994 228.671C232.427 228.671 232.778 228.32 232.778 227.888C232.778 227.455 232.427 227.104 231.994 227.104C231.562 227.104 231.211 227.455 231.211 227.888C231.211 228.32 231.562 228.671 231.994 228.671Z" fill="#CEE9E5"/>
<path d="M232.778 242.126C232.778 242.558 232.428 242.909 231.994 242.909C231.564 242.909 231.211 242.558 231.211 242.126C231.211 241.691 231.564 241.342 231.994 241.342C232.427 241.342 232.778 241.691 232.778 242.126Z" fill="#CEE9E5"/>
<path d="M232.778 256.362C232.778 256.797 232.428 257.147 231.994 257.147C231.564 257.147 231.211 256.797 231.211 256.362C231.211 255.93 231.564 255.579 231.994 255.579C232.427 255.579 232.778 255.93 232.778 256.362Z" fill="#CEE9E5"/>
<path d="M231.994 271.384C232.427 271.384 232.778 271.033 232.778 270.6C232.778 270.168 232.427 269.817 231.994 269.817C231.562 269.817 231.211 270.168 231.211 270.6C231.211 271.033 231.562 271.384 231.994 271.384Z" fill="#CEE9E5"/>
<path d="M230.207 225.148V279.181" stroke="#CEE9E5" stroke-width="2.6231" stroke-miterlimit="10"/>
<path d="M243.446 278.983C243.446 278.983 233.372 283.705 212.753 278.879C212.415 278.799 212.557 277.919 212.557 277.919L212.753 275.934C212.843 275.298 213.198 275.327 213.198 275.327C213.202 275.328 232.927 279.876 243.446 275.327C243.446 275.327 243.87 275.254 243.889 275.89V278.366C243.889 278.366 243.889 278.859 243.446 278.983Z" fill="#471F08"/>
<path d="M233.211 280.482C233.211 280.796 232.962 281.052 232.655 281.052H228.642C228.336 281.052 228.086 280.795 228.086 280.482V277.591C228.086 277.276 228.336 277.022 228.642 277.022H232.655C232.962 277.022 233.211 277.277 233.211 277.591V280.482Z" stroke="#BBBDBF" stroke-width="4.2914" stroke-miterlimit="10"/>
<path d="M228.09 278.854H230.214" stroke="#BBBDBF" stroke-width="4.2914" stroke-miterlimit="10"/>
<path d="M230.205 218.903C230.205 218.903 223.737 216.39 222.216 213.889L220.305 217.533L227.122 224.073L230.205 219.027" fill="#BEE4E5"/>
<path d="M235.741 191.822C235.45 189.715 228.588 190.84 226.792 191.169C225.711 191.368 224.443 191.697 223.855 192.76C223.638 193.154 222.769 195.898 223.838 197.272C222.895 200.227 222.673 202.512 222.673 202.512L222.126 202.542C221.054 205.311 220.843 208.639 220.843 208.639C220.843 208.639 216.839 206.912 214.059 199.6C211.247 190.291 218.163 186.189 218.163 186.189C224.506 183.435 230.838 184.188 230.838 184.188C230.838 184.188 237.221 184.772 238.661 180.961C238.661 180.961 242.703 189.707 235.741 191.822Z" fill="#4B4B4B"/>
<path d="M221.368 205.11C221.084 205.349 220.714 205.498 220.244 205.512C218.972 205.552 217.862 204.412 217.765 202.965C217.667 201.521 218.618 200.316 219.889 200.276C220.491 200.257 221.059 200.504 221.497 200.922C222.136 201.533 222.211 202.709 222.104 203.528C222.019 204.183 221.791 204.752 221.368 205.11Z" fill="#F6A382"/>
<path d="M220.463 201.599C220.352 200.842 218.851 201.64 219.103 202.056C219.249 202.297 219.527 202.464 219.746 202.627C220.046 202.852 220.198 203.06 220.256 203.435C220.264 203.478 220.277 203.61 220.235 203.643C220.043 203.791 219.357 203.078 219.206 202.929C218.912 202.634 218.848 202.109 218.966 201.722C219.091 201.311 219.348 201.108 219.783 201.115C220.128 201.118 220.482 201.126 220.48 201.555C220.481 201.565 220.469 201.638 220.463 201.599Z" fill="#E98A6F"/>
<path d="M220.009 202.409C220.16 202.241 220.319 202.367 220.489 202.478C220.645 202.581 220.738 202.735 220.785 202.914C220.892 203.304 220.862 203.834 220.653 204.189C220.483 204.476 220.184 204.661 219.848 204.667C219.385 204.674 219.229 204.273 219.192 203.882C219.182 203.778 219.163 203.529 219.263 203.461C219.37 203.388 219.456 203.554 219.534 203.624C219.641 203.719 219.795 203.748 219.932 203.754C220.197 203.765 220.449 203.619 220.607 203.415C220.633 203.379 220.657 203.335 220.671 203.292C220.682 203.549 220.671 203.607 220.638 203.467C220.614 203.401 220.583 203.344 220.541 203.29C220.427 203.118 220.24 203.004 220.113 202.842C220.052 202.766 219.933 202.497 220.009 202.409Z" fill="#E98A6F"/>
<path d="M219.338 218.612L227.177 246.163L226.014 296.221C226.014 296.221 212.561 297.224 207.238 292.405L212.263 261.417L204.641 227.302L219.338 218.612Z" fill="url(#paint0_linear_555_365)"/>
<path d="M236.701 218.806L245.628 223.004C245.628 223.004 250.71 224.346 249.671 229.612L246.733 258.789L251.6 292.406C251.6 292.406 247.424 297.422 239.11 294.475L235.449 245.421L236.701 218.806Z" fill="url(#paint1_linear_555_365)"/>
<path d="M235.667 219.183C235.667 219.183 235.071 216.881 232.156 214.937L232.537 222.87C232.537 222.87 234.155 218.812 235.667 219.183Z" fill="#BEE4E5"/>
<path d="M235.933 222.87L235.668 219.183C234.777 218.964 233.981 220.211 233.332 221.234L235.933 222.87Z" fill="#A4C5C7"/>
<path d="M229.569 221.014L229.329 220.568L227.703 223.064L229.102 223.563L229.569 221.014Z" fill="#429982"/>
<path d="M233.332 221.234L233.788 220.535C233.788 220.535 235.525 221.995 233.701 223.562C233.701 223.562 233.701 222.271 233.332 221.234Z" fill="#429982"/>
<path d="M229.569 221.014C229.569 221.014 230.948 222.239 233.332 221.234C233.854 221.897 233.851 222.742 233.701 223.562L232.466 226.111H230.74L229.102 223.562C229.102 223.562 228.933 223 229.569 221.014Z" fill="#429982"/>
<path d="M230.741 226.111L229.348 262.578L232.258 268.243L234.633 262.608L232.467 226.111H230.741Z" fill="#51B29C"/>
<path d="M221.101 249.222L217.516 246.39C217.516 246.39 212.12 245.599 209.426 245.939C209.426 245.939 208.535 247.178 215.34 247.368C215.34 247.368 210.567 248.893 209.034 250.028C209.034 250.028 208.789 251.441 213.154 249.389L215.14 249.242L210.522 251.549C210.522 251.549 210.702 252.427 214.907 251.286L219.124 251.748L221.101 249.222Z" fill="#F6A382"/>
<path d="M244.055 249.749L220.956 246.985C219.801 248.396 218.688 250.958 219.183 253.641L248.688 263.002C248.688 263.002 256.482 264.384 254.426 254.994C254.426 254.994 251.133 250.205 244.055 249.749Z" fill="#2B73AF"/>
<path d="M244.055 249.749C244.055 249.749 239.903 251.987 238.346 252.164L235.934 247.995L239.231 245.855L241.493 245.334C241.493 245.334 245.214 244.374 246.195 249.481L244.055 249.749Z" fill="#F6A382"/>
<path d="M202.757 257.835C201.362 266.278 207.5 264.145 207.5 264.145L238.798 252.877C237.915 248.024 235.933 247.266 235.933 247.266L209.163 252.375C209.163 252.375 204.126 253.959 202.757 257.835Z" fill="#2B73AF"/>
<circle cx="229.001" cy="44.4077" r="44.4077" fill="url(#paint2_linear_555_365)"/>
<g clip-path="url(#clip0_555_365)">
<path d="M233.443 45.518H221.786C220.427 45.5197 219.107 45.0672 218.035 44.2325C216.962 43.3977 216.2 42.2286 215.868 40.9108C215.536 39.593 215.654 38.2022 216.204 36.9593C216.753 35.7163 217.702 34.6926 218.9 34.0508C218.242 32.7929 217.9 31.3945 217.901 29.9753C217.907 27.7974 218.714 25.6979 220.167 24.0758C221.62 22.4536 223.619 21.422 225.783 21.177C227.947 20.932 230.126 21.4906 231.905 22.7468C233.684 24.0029 234.939 25.869 235.433 27.9902C237.55 28.4875 239.411 29.7445 240.664 31.5228C241.916 33.3011 242.472 35.4771 242.227 37.6382C241.982 39.7993 240.952 41.7953 239.333 43.2477C237.714 44.7 235.618 45.5079 233.443 45.518ZM226.782 23.3141C225.016 23.3159 223.323 24.0182 222.074 25.2671C220.825 26.5159 220.123 28.2092 220.121 29.9753C220.119 31.4007 220.58 32.7882 221.433 33.9298L222.412 35.2542L220.818 35.6661C219.902 35.8994 219.103 36.4596 218.571 37.2412C218.039 38.0227 217.811 38.9718 217.93 39.9097C218.049 40.8476 218.506 41.7096 219.217 42.3336C219.927 42.9576 220.841 43.3004 221.786 43.2976H233.443C235.122 43.2813 236.732 42.632 237.952 41.4796C239.172 40.3273 239.912 38.7567 240.025 37.0821C240.137 35.4075 239.613 33.7523 238.557 32.4474C237.502 31.1425 235.992 30.2842 234.331 30.0441L233.491 29.9331L233.38 29.0916C233.164 27.494 232.376 26.0287 231.164 24.9666C229.951 23.9045 228.394 23.3175 226.782 23.3141Z" fill="white"/>
</g>
<path d="M242.227 53.7777H243.559V62.1708H242.294V61.3714H242.272C241.872 62.0264 241.172 62.304 240.429 62.304C238.808 62.304 237.809 61.105 237.809 59.5063C237.809 57.9964 238.808 56.7086 240.384 56.7086C241.095 56.7086 241.739 56.9529 242.194 57.5191H242.227V53.7777ZM239.141 59.5063C239.141 60.3945 239.774 61.105 240.706 61.105C241.772 61.105 242.272 60.239 242.272 59.5063C242.272 58.5404 241.55 57.9076 240.706 57.9076C239.774 57.9076 239.141 58.6293 239.141 59.5063Z" fill="white"/>
<path d="M231.699 56.8418H233.031V59.5951C233.031 60.6609 233.365 61.1049 234.008 61.1049C234.797 61.1049 235.23 60.572 235.23 59.7505V56.8418H236.562V62.1707H235.296V61.3159H235.274C234.963 61.982 234.397 62.3039 233.642 62.3039C232.088 62.3039 231.699 61.1271 231.699 60.2501V56.8418Z" fill="white"/>
<path d="M227.554 56.7085C229.186 56.7085 230.451 57.8409 230.451 59.5062C230.451 61.1715 229.186 62.3039 227.554 62.3039C225.922 62.3039 224.656 61.1715 224.656 59.5062C224.656 57.852 225.933 56.7085 227.554 56.7085ZM225.988 59.5062C225.988 60.4276 226.655 61.1049 227.554 61.1049C228.486 61.1049 229.119 60.3943 229.119 59.5062C229.119 58.5847 228.453 57.9075 227.543 57.9075C226.655 57.9075 225.988 58.5958 225.988 59.5062Z" fill="white"/>
<path d="M223.395 53.7777V62.1708H222.062V53.7777H223.395Z" fill="white"/>
<path d="M218.293 54.1108C219.414 54.1108 220.302 54.5105 221.046 55.3543L219.958 56.1536C219.503 55.6651 218.992 55.3765 218.304 55.3765C216.694 55.3765 215.606 56.6199 215.606 58.1852C215.606 59.8061 216.65 61.1051 218.304 61.1051C219.048 61.1051 219.625 60.7165 220.069 60.1503L221.224 60.9718C220.546 61.9266 219.447 62.3707 218.293 62.3707C215.873 62.3707 214.141 60.7165 214.141 58.2741C214.141 55.8316 215.784 54.1108 218.293 54.1108Z" fill="white"/>
<circle cx="89.1147" cy="107.689" r="44.4077" fill="url(#paint3_linear_555_365)"/>
<path d="M105.387 132.113V126.784H106.719V127.628H106.741C107.03 127.017 107.618 126.651 108.318 126.651C108.517 126.651 108.617 126.684 108.795 126.728V128.016C108.54 127.95 108.351 127.916 108.151 127.916C107.141 127.916 106.719 128.627 106.719 129.337V132.113H105.387Z" fill="white"/>
<path d="M101.241 126.651C102.873 126.651 104.139 127.783 104.139 129.448C104.139 131.114 102.873 132.246 101.241 132.246C99.6094 132.246 98.3438 131.114 98.3438 129.448C98.3438 127.794 99.6205 126.651 101.241 126.651ZM99.676 129.448C99.676 130.37 100.342 131.047 101.241 131.047C102.174 131.047 102.807 130.336 102.807 129.448C102.807 128.527 102.141 127.85 101.23 127.85C100.342 127.85 99.676 128.538 99.676 129.448Z" fill="white"/>
<path d="M95.4973 126.651C96.33 126.651 97.0183 126.939 97.4068 127.461L96.5187 128.26C96.2522 127.894 95.9192 127.716 95.4751 127.716C95.0421 127.716 94.698 127.938 94.698 128.283C94.698 128.716 95.2975 128.793 95.9636 128.949C96.7851 129.137 97.5734 129.437 97.5734 130.536C97.5734 131.658 96.5853 132.246 95.2642 132.246C94.4426 132.246 93.7432 132.035 93.1992 131.424L94.0874 130.592C94.5426 131.091 94.8978 131.247 95.353 131.247C95.8415 131.247 96.2411 131.003 96.2411 130.636C96.2411 130.126 95.5972 130.037 94.92 129.881C94.1984 129.715 93.3657 129.459 93.3657 128.371C93.3657 127.073 94.587 126.651 95.4973 126.651Z" fill="white"/>
<path d="M91.4687 124.175C91.9572 124.175 92.3347 124.519 92.3347 124.974C92.3347 125.452 91.9461 125.774 91.4687 125.774C90.9914 125.774 90.625 125.407 90.625 124.974C90.625 124.541 90.9914 124.175 91.4687 124.175ZM92.146 126.784V132.113H90.8137V126.784H92.146Z" fill="white"/>
<path d="M84.3164 126.784H85.7708L87.1918 130.514H87.214L88.6462 126.784H90.0117L87.9134 132.113H86.4924L84.3164 126.784Z" fill="white"/>
<path d="M82.1959 123.72H83.5281V132.113H82.2625V131.314H82.2403C81.8406 131.969 81.1412 132.246 80.3974 132.246C78.7765 132.246 77.7773 131.047 77.7773 129.448C77.7773 127.939 78.7765 126.651 80.353 126.651C81.0635 126.651 81.7074 126.895 82.1626 127.461H82.1959V123.72ZM79.1096 129.448C79.1096 130.337 79.7424 131.047 80.6749 131.047C81.7407 131.047 82.2403 130.181 82.2403 129.448C82.2403 128.483 81.5187 127.85 80.6749 127.85C79.7424 127.85 79.1096 128.571 79.1096 129.448Z" fill="white"/>
<path d="M70.8427 132.113H69.2773L72.6967 124.253H73.9068L77.2929 132.113H75.6943L74.9615 130.314H71.5532L70.8427 132.113ZM73.2629 125.918L72.0306 129.115H74.473L73.2629 125.918Z" fill="white"/>
<path d="M105.621 110.398V118.791H104.289V110.398H105.621Z" fill="white"/>
<path d="M99.8881 118.924C98.7891 118.924 97.9453 118.302 97.9453 117.325C97.9453 116.093 98.9334 115.471 101.22 115.471H101.631V115.316C101.631 114.694 101.143 114.328 100.41 114.328C99.8548 114.328 99.3553 114.55 98.9889 114.883L98.2895 114.183C98.7669 113.695 99.5107 113.328 100.554 113.328C102.375 113.328 102.83 114.35 102.83 115.604V118.791H101.631V118.058H101.598C101.22 118.657 100.599 118.924 99.8881 118.924ZM101.165 116.404C99.9881 116.404 99.2775 116.659 99.2775 117.225C99.2775 117.68 99.7216 117.925 100.221 117.925C101.132 117.925 101.553 117.414 101.553 116.737V116.404H101.165Z" fill="white"/>
<path d="M95.5773 113.328C96.2989 113.328 97.0205 113.595 97.509 114.139L96.5876 115.06C96.3211 114.783 95.977 114.527 95.5773 114.527C94.6114 114.527 94.0119 115.271 94.0119 116.126C94.0119 117.048 94.678 117.725 95.5773 117.725C95.977 117.725 96.3655 117.547 96.6098 117.225L97.4979 118.18C97.0538 118.613 96.2656 118.924 95.5773 118.924C93.9453 118.924 92.6797 117.78 92.6797 116.126C92.6797 114.561 93.8565 113.328 95.5773 113.328Z" fill="white"/>
<path d="M90.7383 110.853C91.2268 110.853 91.6042 111.197 91.6042 111.652C91.6042 112.129 91.2157 112.451 90.7383 112.451C90.2609 112.451 89.8945 112.085 89.8945 111.652C89.8945 111.219 90.2609 110.853 90.7383 110.853ZM91.4155 113.462V118.791H90.0833V113.462H91.4155Z" fill="white"/>
<path d="M85.0197 118.791H83.6875V110.398H85.0197V114.206H85.0419C85.3195 113.65 85.919 113.328 86.6073 113.328C87.9062 113.328 88.5501 114.194 88.5501 115.393V118.791H87.2179V116.026C87.2179 114.96 86.8738 114.527 86.2409 114.527C85.4527 114.527 85.0197 115.071 85.0197 115.871V118.791Z" fill="white"/>
<path d="M79.8491 114.594H78.75V113.462H79.8491V111.919H81.1813V113.462H82.6468V114.594H81.1813V116.959C81.1813 117.525 81.4034 117.792 81.9252 117.792C82.2582 117.792 82.5358 117.714 82.6468 117.625V118.746C82.3914 118.869 81.8918 118.924 81.5921 118.924C80.3376 118.924 79.8491 118.436 79.8491 117.092V114.594Z" fill="white"/>
<path d="M72.707 118.791V110.93H77.9138V112.196H74.1059V114.128H77.714V115.393H74.1059V117.525H78.1137V118.791H72.707Z" fill="white"/>
<g clip-path="url(#clip1_555_365)">
<path d="M102.369 88.4313L98.9594 79.1778C98.4897 77.9 97.1453 77.2006 95.8242 77.5514L90.2255 79.0446V77.7135C90.2255 77.1006 89.7281 76.6033 89.1153 76.6033C88.5025 76.6033 88.0051 77.1006 88.0051 77.7135V79.6363L82.1721 81.1917C80.7788 81.5636 79.6487 82.5939 79.1491 83.9472L75.8618 92.872C75.8163 92.9953 75.793 93.5903 75.793 93.5903C75.793 96.3725 78.0134 98.806 80.7922 98.806C82.0778 98.806 83.289 98.3242 84.2271 97.4338C85.2163 96.4946 85.7836 95.1735 85.7836 93.8101C85.7836 93.8101 85.7603 92.9975 85.717 92.8754L82.3098 83.5042C82.4475 83.4343 82.5929 83.3777 82.745 83.3377L88.0051 81.9344V101.028H81.3439C80.7311 101.028 80.2337 101.525 80.2337 102.138C80.2337 102.751 80.7311 103.248 81.3439 103.248H96.8866C97.4995 103.248 97.9968 102.751 97.9968 102.138C97.9968 101.525 97.4995 101.028 96.8866 101.028H90.2255V81.3416L95.661 79.8917L92.5147 88.4302C92.4692 88.5534 92.4459 89.1484 92.4459 89.1484C92.4459 91.9306 94.523 94.2187 97.1753 94.3575C98.5619 94.4307 99.8775 93.9456 100.881 92.993C101.87 92.0538 102.438 90.7327 102.438 89.3694C102.438 89.3694 102.414 88.5534 102.369 88.4302V88.4313ZM80.6378 96.5834C79.4377 96.5201 78.433 95.582 78.1222 94.3664H83.5088C83.3978 94.9203 83.1202 95.4255 82.6995 95.824C82.1422 96.3547 81.4061 96.6289 80.639 96.5823L80.6378 96.5834ZM83.0892 92.146H78.4952L80.8077 85.87L83.0892 92.146ZM97.4417 81.4803L99.7354 87.7052H95.1481L97.4417 81.4803ZM97.2907 92.1426C96.0906 92.0794 95.0859 91.1412 94.775 89.9256H100.161C100.05 90.4796 99.772 90.9847 99.3513 91.3833C98.7939 91.9139 98.0579 92.1826 97.2907 92.1426Z" fill="white"/>
</g>
<circle cx="44.7085" cy="233.14" r="44.4077" fill="url(#paint4_linear_555_365)"/>
<path d="M68.6836 244.464H70.149L71.6367 248.161H71.6589L72.9911 244.464H74.3789L71.9476 250.704C71.5146 251.803 71.1593 252.458 69.8271 252.458C69.4829 252.458 69.1388 252.413 68.8057 252.325L68.9722 251.126C69.1832 251.203 69.4163 251.259 69.6495 251.259C70.3489 251.259 70.4821 251.003 70.7263 250.415L70.9595 249.838L68.6836 244.464Z" fill="white"/>
<path d="M65.5678 245.597H64.4688V244.464H65.5678V242.921H66.9001V244.464H68.3655V245.597H66.9001V247.962C66.9001 248.528 67.1221 248.794 67.6439 248.794C67.977 248.794 68.2545 248.716 68.3655 248.628V249.749C68.1102 249.871 67.6106 249.927 67.3108 249.927C66.0563 249.927 65.5678 249.438 65.5678 248.095V245.597Z" fill="white"/>
<path d="M62.8828 241.855C63.3713 241.855 63.7488 242.2 63.7488 242.655C63.7488 243.132 63.3602 243.454 62.8828 243.454C62.4054 243.454 62.0391 243.088 62.0391 242.655C62.0391 242.222 62.4054 241.855 62.8828 241.855ZM63.56 244.464V249.793H62.2278V244.464H63.56Z" fill="white"/>
<path d="M57.1643 249.793H55.832V244.464H57.0977V245.319H57.1199C57.4418 244.62 58.0524 244.331 58.7518 244.331C60.3394 244.331 60.6947 245.563 60.6947 246.385V249.793H59.3624V247.029C59.3624 245.963 59.0183 245.53 58.3855 245.53C57.5306 245.53 57.1643 246.152 57.1643 246.862V249.793Z" fill="white"/>
<path d="M49.457 244.464H50.7893V247.218C50.7893 248.283 51.1223 248.727 51.7662 248.727C52.5545 248.727 52.9874 248.195 52.9874 247.373V244.464H54.3197V249.793H53.0541V248.938H53.0319C52.721 249.605 52.1548 249.927 51.3999 249.927C49.8456 249.927 49.457 248.75 49.457 247.873V244.464Z" fill="white"/>
<path d="M41.0744 249.793H39.7422V244.464H41.0078V245.297H41.03C41.3187 244.698 41.8849 244.331 42.662 244.331C43.4835 244.331 44.0497 244.653 44.3273 245.319C44.7159 244.642 45.282 244.331 46.0814 244.331C47.3914 244.331 48.002 245.186 48.002 246.651V249.793H46.6698V246.74C46.6698 245.952 46.3478 245.53 45.6817 245.53C44.9823 245.53 44.5382 246.041 44.5382 246.907V249.793H43.206V246.585C43.206 246.052 42.9951 245.53 42.2956 245.53C41.4741 245.53 41.0744 246.119 41.0744 246.885V249.793Z" fill="white"/>
<path d="M31.4143 249.793H30.082V244.464H31.3477V245.297H31.3699C31.6585 244.698 32.2247 244.331 33.0018 244.331C33.8234 244.331 34.3896 244.653 34.6671 245.319C35.0557 244.642 35.6219 244.331 36.4212 244.331C37.7313 244.331 38.3419 245.186 38.3419 246.651V249.793H37.0096V246.74C37.0096 245.952 36.6877 245.53 36.0216 245.53C35.3221 245.53 34.8781 246.041 34.8781 246.907V249.793H33.5458V246.585C33.5458 246.052 33.3349 245.53 32.6355 245.53C31.8139 245.53 31.4143 246.119 31.4143 246.885V249.793Z" fill="white"/>
<path d="M25.9914 244.331C27.6233 244.331 28.889 245.464 28.889 247.129C28.889 248.794 27.6233 249.927 25.9914 249.927C24.3594 249.927 23.0938 248.794 23.0938 247.129C23.0938 245.475 24.3705 244.331 25.9914 244.331ZM24.426 247.129C24.426 248.05 25.0921 248.728 25.9914 248.728C26.9239 248.728 27.5567 248.017 27.5567 247.129C27.5567 246.207 26.8906 245.53 25.9803 245.53C25.0921 245.53 24.426 246.219 24.426 247.129Z" fill="white"/>
<path d="M19.6131 241.733C20.7344 241.733 21.6225 242.133 22.3663 242.977L21.2783 243.776C20.8232 243.288 20.3125 242.999 19.6242 242.999C18.0144 242.999 16.9264 244.242 16.9264 245.808C16.9264 247.429 17.97 248.727 19.6242 248.727C20.368 248.727 20.9453 248.339 21.3894 247.773L22.544 248.594C21.8667 249.549 20.7677 249.993 19.6131 249.993C17.1928 249.993 15.4609 248.339 15.4609 245.896C15.4609 243.454 17.104 241.733 19.6131 241.733Z" fill="white"/>
<g clip-path="url(#clip2_555_365)">
<path d="M44.709 225.369C43.8307 225.369 42.9722 225.109 42.2419 224.621C41.5116 224.133 40.9424 223.439 40.6063 222.628C40.2702 221.816 40.1822 220.923 40.3536 220.062C40.5249 219.201 40.9479 218.409 41.5689 217.788C42.19 217.167 42.9813 216.744 43.8427 216.573C44.7041 216.402 45.597 216.49 46.4084 216.826C47.2199 217.162 47.9134 217.731 48.4014 218.461C48.8894 219.192 49.1498 220.05 49.1498 220.928C49.1498 222.106 48.6819 223.236 47.8491 224.068C47.0163 224.901 45.8868 225.369 44.709 225.369ZM44.709 218.708C44.2699 218.708 43.8406 218.838 43.4754 219.082C43.1103 219.326 42.8257 219.673 42.6577 220.079C42.4896 220.484 42.4456 220.931 42.5313 221.362C42.617 221.792 42.8285 222.188 43.139 222.498C43.4495 222.809 43.8451 223.02 44.2759 223.106C44.7066 223.192 45.153 223.148 45.5587 222.98C45.9645 222.812 46.3112 222.527 46.5552 222.162C46.7992 221.797 46.9294 221.368 46.9294 220.928C46.9294 220.34 46.6955 219.775 46.2791 219.358C45.8627 218.942 45.2979 218.708 44.709 218.708ZM51.3702 233.141C51.3702 231.374 50.6684 229.68 49.4192 228.43C48.17 227.181 46.4757 226.479 44.709 226.479C42.9424 226.479 41.2481 227.181 39.9989 228.43C38.7497 229.68 38.0479 231.374 38.0479 233.141C38.0479 233.435 38.1648 233.717 38.373 233.926C38.5812 234.134 38.8636 234.251 39.1581 234.251C39.4525 234.251 39.7349 234.134 39.9431 233.926C40.1513 233.717 40.2683 233.435 40.2683 233.141C40.2683 231.963 40.7361 230.833 41.5689 230C42.4017 229.168 43.5313 228.7 44.709 228.7C45.8868 228.7 47.0163 229.168 47.8491 230C48.6819 230.833 49.1498 231.963 49.1498 233.141C49.1498 233.435 49.2668 233.717 49.475 233.926C49.6832 234.134 49.9656 234.251 50.26 234.251C50.5544 234.251 50.8368 234.134 51.045 233.926C51.2532 233.717 51.3702 233.435 51.3702 233.141ZM51.3702 216.488C50.4919 216.488 49.6333 216.227 48.903 215.739C48.1727 215.251 47.6036 214.558 47.2674 213.746C46.9313 212.935 46.8434 212.042 47.0147 211.181C47.1861 210.319 47.609 209.528 48.2301 208.907C48.8511 208.286 49.6424 207.863 50.5038 207.691C51.3653 207.52 52.2581 207.608 53.0696 207.944C53.881 208.28 54.5746 208.849 55.0625 209.58C55.5505 210.31 55.811 211.169 55.811 212.047C55.811 213.225 55.3431 214.354 54.5103 215.187C53.6775 216.02 52.548 216.488 51.3702 216.488ZM51.3702 209.826C50.931 209.826 50.5017 209.957 50.1366 210.201C49.7715 210.445 49.4869 210.791 49.3188 211.197C49.1508 211.603 49.1068 212.049 49.1925 212.48C49.2781 212.911 49.4896 213.306 49.8001 213.617C50.1107 213.927 50.5063 214.139 50.937 214.225C51.3677 214.31 51.8142 214.266 52.2199 214.098C52.6256 213.93 52.9724 213.646 53.2164 213.28C53.4603 212.915 53.5906 212.486 53.5906 212.047C53.5906 211.458 53.3566 210.893 52.9402 210.477C52.5238 210.06 51.9591 209.826 51.3702 209.826ZM58.0313 224.259C58.0296 222.493 57.3272 220.8 56.0784 219.551C54.8296 218.302 53.1363 217.6 51.3702 217.598C51.0757 217.598 50.7934 217.715 50.5852 217.923C50.377 218.131 50.26 218.414 50.26 218.708C50.26 219.002 50.377 219.285 50.5852 219.493C50.7934 219.701 51.0757 219.818 51.3702 219.818C52.548 219.818 53.6775 220.286 54.5103 221.119C55.3431 221.952 55.811 223.081 55.811 224.259C55.811 224.553 55.9279 224.836 56.1361 225.044C56.3443 225.252 56.6267 225.369 56.9211 225.369C57.2156 225.369 57.498 225.252 57.7062 225.044C57.9144 224.836 58.0313 224.553 58.0313 224.259ZM38.0479 216.488C37.1696 216.488 36.311 216.227 35.5807 215.739C34.8504 215.251 34.2812 214.558 33.9451 213.746C33.609 212.935 33.5211 212.042 33.6924 211.181C33.8638 210.319 34.2867 209.528 34.9078 208.907C35.5288 208.286 36.3201 207.863 37.1815 207.691C38.0429 207.52 38.9358 207.608 39.7473 207.944C40.5587 208.28 41.2523 208.849 41.7402 209.58C42.2282 210.31 42.4886 211.169 42.4886 212.047C42.4886 213.225 42.0208 214.354 41.188 215.187C40.3552 216.02 39.2256 216.488 38.0479 216.488ZM38.0479 209.826C37.6087 209.826 37.1794 209.957 36.8143 210.201C36.4492 210.445 36.1646 210.791 35.9965 211.197C35.8284 211.603 35.7845 212.049 35.8702 212.48C35.9558 212.911 36.1673 213.306 36.4778 213.617C36.7884 213.927 37.184 214.139 37.6147 214.225C38.0454 214.31 38.4919 214.266 38.8976 214.098C39.3033 213.93 39.6501 213.646 39.8941 213.28C40.138 212.915 40.2683 212.486 40.2683 212.047C40.2683 211.458 40.0343 210.893 39.6179 210.477C39.2015 210.06 38.6368 209.826 38.0479 209.826ZM33.6071 224.259C33.6071 223.081 34.075 221.952 34.9078 221.119C35.7406 220.286 36.8701 219.818 38.0479 219.818C38.3423 219.818 38.6247 219.701 38.8329 219.493C39.0411 219.285 39.1581 219.002 39.1581 218.708C39.1581 218.414 39.0411 218.131 38.8329 217.923C38.6247 217.715 38.3423 217.598 38.0479 217.598C36.2818 217.6 34.5885 218.302 33.3397 219.551C32.0908 220.8 31.3885 222.493 31.3867 224.259C31.3867 224.553 31.5037 224.836 31.7119 225.044C31.9201 225.252 32.2025 225.369 32.4969 225.369C32.7914 225.369 33.0737 225.252 33.2819 225.044C33.4901 224.836 33.6071 224.553 33.6071 224.259Z" fill="white"/>
</g>
<circle cx="366.666" cy="107.689" r="44.4077" fill="url(#paint5_linear_555_365)"/>
<path d="M388.302 119.99C389.135 119.99 389.823 120.278 390.212 120.8L389.323 121.599C389.057 121.233 388.724 121.055 388.28 121.055C387.847 121.055 387.503 121.277 387.503 121.621C387.503 122.054 388.102 122.132 388.768 122.288C389.59 122.476 390.378 122.776 390.378 123.875C390.378 124.996 389.39 125.585 388.069 125.585C387.247 125.585 386.548 125.374 386.004 124.763L386.892 123.931C387.347 124.43 387.702 124.586 388.158 124.586C388.646 124.586 389.046 124.341 389.046 123.975C389.046 123.464 388.402 123.376 387.725 123.22C387.003 123.054 386.17 122.798 386.17 121.71C386.17 120.411 387.392 119.99 388.302 119.99Z" fill="white"/>
<path d="M382.164 125.452V120.123H383.496V120.966H383.518C383.807 120.356 384.396 119.99 385.095 119.99C385.295 119.99 385.395 120.023 385.572 120.067V121.355C385.317 121.288 385.128 121.255 384.928 121.255C383.918 121.255 383.496 121.966 383.496 122.676V125.452H382.164Z" fill="white"/>
<path d="M378.019 119.99C379.651 119.99 380.916 121.122 380.916 122.787C380.916 124.452 379.651 125.585 378.019 125.585C376.387 125.585 375.121 124.452 375.121 122.787C375.121 121.133 376.398 119.99 378.019 119.99ZM376.453 122.787C376.453 123.709 377.119 124.386 378.019 124.386C378.951 124.386 379.584 123.675 379.584 122.787C379.584 121.866 378.918 121.189 378.008 121.189C377.119 121.189 376.453 121.877 376.453 122.787Z" fill="white"/>
<path d="M371.552 121.255H370.453V120.123H371.552V118.579H372.884V120.123H374.35V121.255H372.884V123.62C372.884 124.186 373.106 124.452 373.628 124.452C373.961 124.452 374.239 124.375 374.35 124.286V125.407C374.095 125.529 373.595 125.585 373.295 125.585C372.041 125.585 371.552 125.096 371.552 123.753V121.255Z" fill="white"/>
<path d="M367.962 119.99C368.795 119.99 369.483 120.278 369.872 120.8L368.984 121.599C368.717 121.233 368.384 121.055 367.94 121.055C367.507 121.055 367.163 121.277 367.163 121.621C367.163 122.054 367.762 122.132 368.428 122.288C369.25 122.476 370.038 122.776 370.038 123.875C370.038 124.996 369.05 125.585 367.729 125.585C366.907 125.585 366.208 125.374 365.664 124.763L366.552 123.931C367.007 124.43 367.363 124.586 367.818 124.586C368.306 124.586 368.706 124.341 368.706 123.975C368.706 123.464 368.062 123.376 367.385 123.22C366.663 123.054 365.831 122.798 365.831 121.71C365.831 120.411 367.052 119.99 367.962 119.99Z" fill="white"/>
<path d="M362.398 119.99C364.085 119.99 364.896 121.266 364.896 122.876V123.253H360.832C360.921 124.02 361.498 124.519 362.264 124.519C362.864 124.519 363.319 124.264 363.697 123.797L364.651 124.519C364.074 125.23 363.308 125.585 362.398 125.585C360.766 125.585 359.5 124.452 359.5 122.787C359.5 121.133 360.766 119.99 362.398 119.99ZM360.832 122.254H363.563C363.552 121.422 362.986 120.989 362.198 120.989C361.41 120.989 360.932 121.499 360.832 122.254Z" fill="white"/>
<path d="M353.285 120.123H354.74L356.161 123.853H356.183L357.615 120.123H358.98L356.882 125.452H355.461L353.285 120.123Z" fill="white"/>
<path d="M348.965 125.452H347.633V120.123H348.898V120.978H348.921C349.243 120.278 349.853 119.99 350.553 119.99C352.14 119.99 352.495 121.222 352.495 122.043V125.452H351.163V122.687C351.163 121.621 350.819 121.189 350.186 121.189C349.331 121.189 348.965 121.81 348.965 122.521V125.452Z" fill="white"/>
<path d="M346.032 117.592V125.452H344.633V117.592H346.032Z" fill="white"/>
<g clip-path="url(#clip3_555_365)">
<path d="M365.554 82.1543C361.881 82.1543 358.893 85.1418 358.893 88.8155C358.893 92.4891 361.881 95.4766 365.554 95.4766C369.228 95.4766 372.215 92.4891 372.215 88.8155C372.215 85.1418 369.228 82.1543 365.554 82.1543ZM365.554 93.2562C363.105 93.2562 361.113 91.2645 361.113 88.8155C361.113 86.3664 363.105 84.3747 365.554 84.3747C368.003 84.3747 369.995 86.3664 369.995 88.8155C369.995 91.2645 368.003 93.2562 365.554 93.2562ZM368.85 99.3634C368.697 99.9585 368.088 100.315 367.498 100.162C366.868 99.9995 366.213 99.9174 365.554 99.9174C361.27 99.9174 357.783 103.403 357.783 107.689C357.783 108.302 357.287 108.799 356.673 108.799C356.059 108.799 355.562 108.302 355.562 107.689C355.562 102.18 360.044 97.697 365.554 97.697C366.399 97.697 367.24 97.8025 368.051 98.0123C368.645 98.1644 369.002 98.7705 368.85 99.3634ZM379.987 103.248C379.987 105.084 378.492 106.579 376.656 106.579V107.689C376.656 108.302 376.16 108.799 375.546 108.799C374.932 108.799 374.436 108.302 374.436 107.689V106.576H374.136C372.953 106.576 371.848 105.939 371.254 104.915C370.946 104.385 371.127 103.705 371.658 103.398C372.189 103.091 372.868 103.271 373.175 103.802C373.373 104.144 373.741 104.356 374.136 104.356L376.656 104.358C377.268 104.358 377.765 103.86 377.765 103.248C377.765 102.828 377.464 102.473 377.05 102.404L373.674 101.841C372.184 101.594 371.104 100.317 371.104 98.8072C371.104 96.9709 372.598 95.4766 374.435 95.4766V94.3664C374.435 93.7536 374.931 93.2562 375.545 93.2562C376.159 93.2562 376.655 93.7536 376.655 94.3664V95.4799H376.956C378.136 95.4799 379.241 96.1161 379.836 97.1397C380.144 97.6692 379.965 98.3487 379.435 98.6573C378.904 98.9659 378.224 98.785 377.917 98.2554C377.714 97.909 377.356 97.7003 376.956 97.7003L374.435 97.697C373.823 97.697 373.326 98.1955 373.326 98.8072C373.326 99.2268 373.626 99.5821 374.041 99.6509L377.417 100.214C378.907 100.461 379.987 101.738 379.987 103.248Z" fill="white"/>
</g>
<circle cx="413.291" cy="233.14" r="44.4077" fill="url(#paint6_linear_555_365)"/>
<path d="M439.56 243.221C440.392 243.221 441.081 243.51 441.469 244.032L440.581 244.831C440.315 244.465 439.982 244.287 439.538 244.287C439.105 244.287 438.76 244.509 438.76 244.853C438.76 245.286 439.36 245.364 440.026 245.519C440.848 245.708 441.636 246.008 441.636 247.107C441.636 248.228 440.648 248.817 439.327 248.817C438.505 248.817 437.806 248.606 437.262 247.995L438.15 247.162C438.605 247.662 438.96 247.817 439.415 247.817C439.904 247.817 440.304 247.573 440.304 247.207C440.304 246.696 439.66 246.607 438.983 246.452C438.261 246.285 437.428 246.03 437.428 244.942C437.428 243.643 438.649 243.221 439.56 243.221Z" fill="white"/>
<path d="M433.995 243.221C435.683 243.221 436.493 244.498 436.493 246.108V246.485H432.43C432.519 247.251 433.096 247.751 433.862 247.751C434.462 247.751 434.917 247.495 435.294 247.029L436.249 247.751C435.672 248.461 434.906 248.817 433.995 248.817C432.363 248.817 431.098 247.684 431.098 246.019C431.098 244.365 432.363 243.221 433.995 243.221ZM432.43 245.486H435.161C435.15 244.653 434.584 244.22 433.795 244.22C433.007 244.22 432.53 244.731 432.43 245.486Z" fill="white"/>
<path d="M427.529 244.487H426.43V243.354H427.529V241.811H428.861V243.354H430.326V244.487H428.861V246.852C428.861 247.418 429.083 247.684 429.605 247.684C429.938 247.684 430.215 247.606 430.326 247.518V248.639C430.071 248.761 429.572 248.817 429.272 248.817C428.017 248.817 427.529 248.328 427.529 246.985V244.487Z" fill="white"/>
<path d="M422.673 248.817C421.574 248.817 420.73 248.195 420.73 247.218C420.73 245.986 421.719 245.364 424.006 245.364H424.416V245.208C424.416 244.587 423.928 244.22 423.195 244.22C422.64 244.22 422.14 244.442 421.774 244.775L421.075 244.076C421.552 243.588 422.296 243.221 423.339 243.221C425.16 243.221 425.615 244.243 425.615 245.497V248.683H424.416V247.951H424.383C424.006 248.55 423.384 248.817 422.673 248.817ZM423.95 246.296C422.773 246.296 422.063 246.552 422.063 247.118C422.063 247.573 422.507 247.817 423.006 247.817C423.917 247.817 424.339 247.307 424.339 246.629V246.296H423.95Z" fill="white"/>
<path d="M416.77 248.683V243.354H418.102V244.198H418.124C418.413 243.588 419.001 243.221 419.7 243.221C419.9 243.221 420 243.254 420.178 243.299V244.587C419.922 244.52 419.734 244.487 419.534 244.487C418.524 244.487 418.102 245.197 418.102 245.908V248.683H416.77Z" fill="white"/>
<path d="M412.624 243.221C414.256 243.221 415.522 244.354 415.522 246.019C415.522 247.684 414.256 248.817 412.624 248.817C410.992 248.817 409.727 247.684 409.727 246.019C409.727 244.365 411.003 243.221 412.624 243.221ZM411.059 246.019C411.059 246.94 411.725 247.618 412.624 247.618C413.557 247.618 414.19 246.907 414.19 246.019C414.19 245.097 413.523 244.42 412.613 244.42C411.725 244.42 411.059 245.109 411.059 246.019Z" fill="white"/>
<path d="M406.135 243.221C407.744 243.221 408.755 244.431 408.755 246.019C408.755 247.529 407.756 248.817 406.179 248.817C405.469 248.817 404.814 248.572 404.369 248.006H404.336V251.215H403.004V243.354H404.27V244.154H404.292C404.714 243.477 405.413 243.221 406.135 243.221ZM404.292 246.019C404.292 246.974 404.991 247.618 405.857 247.618C406.756 247.618 407.422 246.94 407.422 246.019C407.422 245.253 406.89 244.42 405.846 244.42C404.958 244.42 404.292 245.109 404.292 246.019Z" fill="white"/>
<path d="M398.688 248.683V243.354H400.02V244.198H400.042C400.331 243.588 400.919 243.221 401.618 243.221C401.818 243.221 401.918 243.254 402.096 243.299V244.587C401.84 244.52 401.652 244.487 401.452 244.487C400.442 244.487 400.02 245.197 400.02 245.908V248.683H398.688Z" fill="white"/>
<path d="M394.542 243.221C396.174 243.221 397.44 244.354 397.44 246.019C397.44 247.684 396.174 248.817 394.542 248.817C392.91 248.817 391.645 247.684 391.645 246.019C391.645 244.365 392.921 243.221 394.542 243.221ZM392.977 246.019C392.977 246.94 393.643 247.618 394.542 247.618C395.475 247.618 396.108 246.907 396.108 246.019C396.108 245.097 395.441 244.42 394.531 244.42C393.643 244.42 392.977 245.109 392.977 246.019Z" fill="white"/>
<path d="M388.164 240.623C389.285 240.623 390.173 241.023 390.917 241.867L389.829 242.666C389.374 242.178 388.863 241.889 388.175 241.889C386.565 241.889 385.477 243.132 385.477 244.698C385.477 246.319 386.521 247.618 388.175 247.618C388.919 247.618 389.496 247.229 389.94 246.663L391.095 247.484C390.418 248.439 389.318 248.883 388.164 248.883C385.744 248.883 384.012 247.229 384.012 244.787C384.012 242.344 385.655 240.623 388.164 240.623Z" fill="white"/>
<g clip-path="url(#clip4_555_365)">
<path d="M411.071 230.92C411.071 231.534 410.574 232.03 409.96 232.03H405.52C402.459 232.03 399.969 229.54 399.969 226.479V210.937C399.969 207.876 402.459 205.386 405.52 205.386H412.181C415.242 205.386 417.732 207.876 417.732 210.937V215.377C417.732 215.991 417.236 216.488 416.622 216.488C416.008 216.488 415.511 215.991 415.511 215.377V210.937C415.511 209.1 414.017 207.606 412.181 207.606H405.52C403.683 207.606 402.189 209.1 402.189 210.937V226.479C402.189 228.316 403.683 229.81 405.52 229.81H409.96C410.574 229.81 411.071 230.306 411.071 230.92ZM406.63 219.818H405.52C404.906 219.818 404.41 220.314 404.41 220.928C404.41 221.542 404.906 222.039 405.52 222.039H406.63C407.244 222.039 407.74 221.542 407.74 220.928C407.74 220.314 407.244 219.818 406.63 219.818ZM412.181 219.818H411.071C410.457 219.818 409.96 220.314 409.96 220.928C409.96 221.542 410.457 222.039 411.071 222.039H412.181C412.795 222.039 413.291 221.542 413.291 220.928C413.291 220.314 412.795 219.818 412.181 219.818ZM406.63 224.259H405.52C404.906 224.259 404.41 224.755 404.41 225.369C404.41 225.983 404.906 226.479 405.52 226.479H406.63C407.244 226.479 407.74 225.983 407.74 225.369C407.74 224.755 407.244 224.259 406.63 224.259ZM406.63 210.937H405.52C404.906 210.937 404.41 211.433 404.41 212.047C404.41 212.661 404.906 213.157 405.52 213.157H406.63C407.244 213.157 407.74 212.661 407.74 212.047C407.74 211.433 407.244 210.937 406.63 210.937ZM412.181 210.937H411.071C410.457 210.937 409.96 211.433 409.96 212.047C409.96 212.661 410.457 213.157 411.071 213.157H412.181C412.795 213.157 413.291 212.661 413.291 212.047C413.291 211.433 412.795 210.937 412.181 210.937ZM406.63 215.377H405.52C404.906 215.377 404.41 215.874 404.41 216.488C404.41 217.101 404.906 217.598 405.52 217.598H406.63C407.244 217.598 407.74 217.101 407.74 216.488C407.74 215.874 407.244 215.377 406.63 215.377ZM412.181 215.377H411.071C410.457 215.377 409.96 215.874 409.96 216.488C409.96 217.101 410.457 217.598 411.071 217.598H412.181C412.795 217.598 413.291 217.101 413.291 216.488C413.291 215.874 412.795 215.377 412.181 215.377ZM426.613 224.814V228.145C426.613 230.287 424.87 232.03 422.728 232.03H417.177C415.034 232.03 413.291 230.287 413.291 228.145V224.814C413.291 222.862 414.743 221.257 416.622 220.985V220.928C416.622 219.704 417.617 218.708 418.842 218.708H421.062C422.287 218.708 423.283 219.704 423.283 220.928V220.985C425.161 221.257 426.613 222.862 426.613 224.814ZM415.511 224.814V225.369H424.393V224.814C424.393 223.896 423.646 223.149 422.728 223.149H417.177C416.259 223.149 415.511 223.896 415.511 224.814ZM424.393 228.145V227.589H421.062C421.062 228.203 420.566 228.7 419.952 228.7C419.338 228.7 418.842 228.203 418.842 227.589H415.511V228.145C415.511 229.063 416.259 229.81 417.177 229.81H422.728C423.646 229.81 424.393 229.063 424.393 228.145Z" fill="white"/>
</g>
<path d="M89.1172 232.03L94.7524 233.286L93.0226 227.778L89.1172 232.03ZM142.515 240.357C142.515 241.829 143.709 243.023 145.182 243.023C146.655 243.023 147.849 241.829 147.849 240.357C147.849 238.884 146.655 237.69 145.182 237.69C143.709 237.69 142.515 238.884 142.515 240.357ZM92.0564 231.697C92.6599 231.541 93.2934 231.389 93.9548 231.243L93.7382 230.266C93.066 230.415 92.4214 230.57 91.8066 230.729L92.0564 231.697ZM95.853 230.852C96.4735 230.734 97.1134 230.621 97.7712 230.515L97.6123 229.528C96.9451 229.636 96.2959 229.75 95.6662 229.87L95.853 230.852ZM99.702 230.232C100.333 230.147 100.977 230.07 101.634 230L101.528 229.006C100.862 229.077 100.209 229.155 99.5698 229.24L99.702 230.232ZM103.571 229.819C104.209 229.768 104.857 229.724 105.513 229.688L105.459 228.689C104.793 228.726 104.137 228.77 103.491 228.822L103.571 229.819ZM107.459 229.607C108.101 229.589 108.751 229.579 109.407 229.577L109.404 228.577C108.74 228.579 108.082 228.589 107.431 228.608L107.459 229.607ZM111.354 229.599C111.997 229.615 112.646 229.64 113.3 229.673L113.351 228.675C112.689 228.64 112.031 228.616 111.378 228.599L111.354 229.599ZM115.242 229.801C115.885 229.853 116.531 229.913 117.18 229.984L117.288 228.99C116.629 228.918 115.974 228.856 115.322 228.804L115.242 229.801ZM119.111 230.222C119.75 230.311 120.391 230.41 121.033 230.519L121.201 229.533C120.548 229.422 119.897 229.322 119.248 229.232L119.111 230.222ZM122.945 230.874C123.578 231.001 124.211 231.14 124.845 231.289L125.074 230.316C124.43 230.164 123.786 230.023 123.143 229.893L122.945 230.874ZM126.729 231.766C127.352 231.935 127.974 232.115 128.595 232.307L128.89 231.351C128.258 231.156 127.624 230.973 126.991 230.801L126.729 231.766ZM130.442 232.912C131.051 233.124 131.659 233.347 132.264 233.583L132.627 232.651C132.01 232.411 131.39 232.183 130.77 231.967L130.442 232.912ZM134.061 234.32C134.653 234.576 135.242 234.844 135.828 235.124L136.26 234.222C135.662 233.936 135.061 233.663 134.458 233.402L134.061 234.32ZM137.563 235.996C138.132 236.297 138.698 236.61 139.26 236.936L139.762 236.071C139.188 235.738 138.61 235.419 138.029 235.112L137.563 235.996ZM140.917 237.942C141.46 238.287 141.999 238.644 142.532 239.015L143.103 238.193C142.558 237.815 142.008 237.45 141.454 237.098L140.917 237.942ZM144.102 240.153C144.36 240.348 144.616 240.547 144.872 240.749L145.492 239.964C145.231 239.758 144.969 239.555 144.706 239.356L144.102 240.153Z" fill="#515151"/>
<path d="M368.328 232.03L362.693 233.286L364.423 227.778L368.328 232.03ZM314.93 240.357C314.93 241.829 313.736 243.023 312.263 243.023C310.791 243.023 309.597 241.829 309.597 240.357C309.597 238.884 310.791 237.69 312.263 237.69C313.736 237.69 314.93 238.884 314.93 240.357ZM365.389 231.697C364.785 231.541 364.152 231.389 363.491 231.243L363.707 230.266C364.379 230.415 365.024 230.57 365.639 230.729L365.389 231.697ZM361.592 230.852C360.972 230.734 360.332 230.621 359.674 230.515L359.833 229.528C360.5 229.636 361.149 229.75 361.779 229.87L361.592 230.852ZM357.743 230.232C357.113 230.147 356.468 230.07 355.812 230L355.918 229.006C356.583 229.077 357.236 229.155 357.875 229.24L357.743 230.232ZM353.874 229.819C353.237 229.768 352.589 229.724 351.932 229.688L351.986 228.689C352.652 228.726 353.308 228.77 353.955 228.822L353.874 229.819ZM349.986 229.607C349.344 229.589 348.695 229.579 348.039 229.577L348.041 228.577C348.706 228.579 349.364 228.589 350.014 228.608L349.986 229.607ZM346.091 229.599C345.448 229.615 344.799 229.64 344.146 229.673L344.094 228.675C344.756 228.64 345.414 228.616 346.067 228.599L346.091 229.599ZM342.203 229.801C341.561 229.853 340.915 229.913 340.266 229.984L340.158 228.99C340.816 228.918 341.472 228.856 342.124 228.804L342.203 229.801ZM338.335 230.222C337.696 230.311 337.055 230.41 336.412 230.519L336.245 229.533C336.897 229.422 337.548 229.322 338.197 229.232L338.335 230.222ZM334.5 230.874C333.867 231.001 333.234 231.14 332.601 231.289L332.371 230.316C333.015 230.164 333.659 230.023 334.302 229.893L334.5 230.874ZM330.716 231.766C330.094 231.935 329.471 232.115 328.85 232.307L328.555 231.351C329.188 231.156 329.821 230.973 330.455 230.801L330.716 231.766ZM327.004 232.912C326.394 233.124 325.787 233.347 325.181 233.583L324.819 232.651C325.436 232.411 326.055 232.183 326.676 231.967L327.004 232.912ZM323.384 234.32C322.793 234.576 322.203 234.844 321.617 235.124L321.186 234.222C321.783 233.936 322.384 233.663 322.987 233.402L323.384 234.32ZM319.883 235.996C319.313 236.297 318.747 236.61 318.185 236.936L317.684 236.071C318.257 235.738 318.835 235.419 319.416 235.112L319.883 235.996ZM316.528 237.942C315.985 238.287 315.447 238.644 314.913 239.015L314.343 238.193C314.888 237.815 315.438 237.45 315.992 237.098L316.528 237.942ZM313.344 240.153C313.086 240.348 312.829 240.547 312.574 240.749L311.953 239.964C312.214 239.758 312.476 239.555 312.74 239.356L313.344 240.153Z" fill="#515151"/>
<path d="M131.305 122.121L135.086 126.485L136.974 121.029L131.305 122.121ZM170.27 165.419C170.27 166.891 171.464 168.085 172.937 168.085C174.41 168.085 175.604 166.891 175.604 165.419C175.604 163.946 174.41 162.752 172.937 162.752C171.464 162.752 170.27 163.946 170.27 165.419ZM133.863 123.599C134.44 123.831 135.038 124.082 135.653 124.353L136.056 123.438C135.431 123.163 134.824 122.907 134.236 122.671L133.863 123.599ZM137.424 125.166C137.992 125.437 138.572 125.723 139.162 126.024L139.616 125.133C139.019 124.828 138.43 124.538 137.854 124.263L137.424 125.166ZM140.88 126.93C141.439 127.235 142.004 127.552 142.576 127.882L143.076 127.016C142.497 126.682 141.924 126.36 141.358 126.052L140.88 126.93ZM144.247 128.877C144.793 129.211 145.342 129.556 145.893 129.914L146.437 129.074C145.878 128.712 145.322 128.362 144.769 128.024L144.247 128.877ZM147.512 130.991C148.042 131.353 148.573 131.726 149.103 132.109L149.689 131.299C149.151 130.91 148.613 130.533 148.077 130.166L147.512 130.991ZM150.665 133.268C151.176 133.658 151.686 134.057 152.195 134.467L152.822 133.688C152.306 133.273 151.789 132.868 151.271 132.473L150.665 133.268ZM153.692 135.706C154.183 136.123 154.67 136.549 155.155 136.985L155.824 136.242C155.332 135.8 154.837 135.367 154.34 134.944L153.692 135.706ZM156.58 138.305C157.047 138.749 157.509 139.203 157.967 139.665L158.678 138.962C158.213 138.492 157.744 138.032 157.27 137.581L156.58 138.305ZM159.312 141.066C159.752 141.538 160.186 142.018 160.614 142.507L161.366 141.849C160.931 141.351 160.49 140.863 160.044 140.384L159.312 141.066ZM161.868 143.988C162.277 144.487 162.679 144.994 163.073 145.51L163.867 144.902C163.466 144.378 163.057 143.862 162.642 143.355L161.868 143.988ZM164.226 147.071C164.599 147.596 164.965 148.129 165.322 148.67L166.157 148.119C165.793 147.568 165.421 147.025 165.04 146.491L164.226 147.071ZM166.361 150.307C166.695 150.856 167.021 151.414 167.337 151.98L168.21 151.492C167.888 150.915 167.556 150.347 167.215 149.787L166.361 150.307ZM168.25 153.689C168.542 154.262 168.824 154.843 169.096 155.432L170.004 155.013C169.727 154.412 169.439 153.819 169.141 153.235L168.25 153.689ZM169.872 157.207C170.118 157.801 170.353 158.402 170.577 159.012L171.516 158.667C171.287 158.045 171.047 157.431 170.796 156.824L169.872 157.207ZM171.207 160.844C171.403 161.454 171.588 162.072 171.761 162.697L172.724 162.431C172.548 161.792 172.359 161.161 172.159 160.538L171.207 160.844ZM172.237 164.572C172.31 164.887 172.381 165.203 172.448 165.522L173.426 165.316C173.358 164.991 173.286 164.667 173.211 164.346L172.237 164.572Z" fill="#515151"/>
<path d="M326.145 122.121L322.364 126.485L320.475 121.029L326.145 122.121ZM287.179 165.419C287.179 166.891 285.985 168.085 284.512 168.085C283.04 168.085 281.846 166.891 281.846 165.419C281.846 163.946 283.04 162.752 284.512 162.752C285.985 162.752 287.179 163.946 287.179 165.419ZM323.586 123.599C323.009 123.831 322.412 124.082 321.797 124.353L321.393 123.438C322.018 123.163 322.625 122.907 323.213 122.671L323.586 123.599ZM320.026 125.166C319.457 125.437 318.877 125.723 318.288 126.024L317.833 125.133C318.431 124.828 319.019 124.538 319.595 124.263L320.026 125.166ZM316.569 126.93C316.011 127.235 315.445 127.552 314.874 127.882L314.373 127.016C314.952 126.682 315.525 126.36 316.091 126.052L316.569 126.93ZM313.202 128.877C312.656 129.211 312.107 129.556 311.556 129.914L311.012 129.074C311.571 128.712 312.127 128.362 312.68 128.024L313.202 128.877ZM309.937 130.991C309.407 131.353 308.877 131.726 308.346 132.109L307.76 131.299C308.298 130.91 308.836 130.533 309.372 130.166L309.937 130.991ZM306.785 133.268C306.273 133.658 305.763 134.057 305.254 134.467L304.627 133.688C305.143 133.273 305.66 132.868 306.178 132.473L306.785 133.268ZM303.757 135.706C303.267 136.123 302.779 136.549 302.294 136.985L301.626 136.242C302.117 135.8 302.612 135.367 303.109 134.944L303.757 135.706ZM300.869 138.305C300.402 138.749 299.94 139.203 299.482 139.665L298.771 138.962C299.236 138.492 299.706 138.032 300.179 137.581L300.869 138.305ZM298.137 141.066C297.698 141.538 297.264 142.018 296.836 142.507L296.083 141.849C296.518 141.351 296.959 140.863 297.405 140.384L298.137 141.066ZM295.581 143.988C295.173 144.487 294.771 144.994 294.376 145.51L293.582 144.902C293.983 144.378 294.392 143.862 294.808 143.355L295.581 143.988ZM293.224 147.071C292.85 147.596 292.484 148.129 292.127 148.67L291.292 148.119C291.656 147.568 292.029 147.025 292.409 146.491L293.224 147.071ZM291.089 150.307C290.754 150.856 290.428 151.414 290.112 151.98L289.239 151.492C289.561 150.915 289.893 150.347 290.235 149.787L291.089 150.307ZM289.199 153.689C288.907 154.262 288.625 154.843 288.353 155.432L287.445 155.013C287.722 154.412 288.01 153.819 288.308 153.235L289.199 153.689ZM287.577 157.207C287.331 157.801 287.096 158.402 286.872 159.012L285.934 158.667C286.162 158.045 286.402 157.431 286.653 156.824L287.577 157.207ZM286.242 160.844C286.046 161.454 285.861 162.072 285.689 162.697L284.725 162.431C284.901 161.792 285.09 161.161 285.29 160.538L286.242 160.844ZM285.212 164.572C285.139 164.887 285.069 165.203 285.002 165.522L284.023 165.316C284.091 164.991 284.163 164.667 284.238 164.346L285.212 164.572Z" fill="#515151"/>
<path d="M227.891 88.8154L225.004 93.8154H230.777L227.891 88.8154ZM225.224 143.215C225.224 144.688 226.418 145.882 227.891 145.882C229.363 145.882 230.557 144.688 230.557 143.215C230.557 141.742 229.363 140.548 227.891 140.548C226.418 140.548 225.224 141.742 225.224 143.215ZM227.391 91.7297V93.6725H228.391V91.7297H227.391ZM227.391 95.6154V97.5582H228.391V95.6154H227.391ZM227.391 99.501V101.444H228.391V99.501H227.391ZM227.391 103.387V105.33H228.391V103.387H227.391ZM227.391 107.272V109.215H228.391V107.272H227.391ZM227.391 111.158V113.101H228.391V111.158H227.391ZM227.391 115.044V116.987H228.391V115.044H227.391ZM227.391 118.929V120.872H228.391V118.929H227.391ZM227.391 122.815V124.758H228.391V122.815H227.391ZM227.391 126.701V128.644H228.391V126.701H227.391ZM227.391 130.586V132.529H228.391V130.586H227.391ZM227.391 134.472V136.415H228.391V134.472H227.391ZM227.391 138.358V140.301H228.391V138.358H227.391ZM227.391 142.243V143.215H228.391V142.243H227.391Z" fill="#515151"/>
<defs>
<linearGradient id="paint0_linear_555_365" x1="215.909" y1="218.612" x2="215.909" y2="296.308" gradientUnits="userSpaceOnUse">
<stop stop-color="#3A7FD0"/>
<stop offset="1" stop-color="#1E416A"/>
</linearGradient>
<linearGradient id="paint1_linear_555_365" x1="243.524" y1="218.806" x2="243.524" y2="295.403" gradientUnits="userSpaceOnUse">
<stop stop-color="#3A7FD0"/>
<stop offset="1" stop-color="#1E416A"/>
</linearGradient>
<linearGradient id="paint2_linear_555_365" x1="229.001" y1="0" x2="229.001" y2="88.8154" gradientUnits="userSpaceOnUse">
<stop stop-color="#FFAD31"/>
<stop offset="1" stop-color="#99681D"/>
</linearGradient>
<linearGradient id="paint3_linear_555_365" x1="89.1147" y1="63.281" x2="89.1147" y2="152.096" gradientUnits="userSpaceOnUse">
<stop stop-color="#51B29C"/>
<stop offset="1" stop-color="#234C43"/>
</linearGradient>
<linearGradient id="paint4_linear_555_365" x1="44.7085" y1="188.733" x2="44.7085" y2="277.548" gradientUnits="userSpaceOnUse">
<stop stop-color="#3A7FD0"/>
<stop offset="1" stop-color="#1E416A"/>
</linearGradient>
<linearGradient id="paint5_linear_555_365" x1="366.666" y1="63.281" x2="366.666" y2="152.096" gradientUnits="userSpaceOnUse">
<stop stop-color="#3A7FD0"/>
<stop offset="1" stop-color="#1E416A"/>
</linearGradient>
<linearGradient id="paint6_linear_555_365" x1="413.291" y1="188.733" x2="413.291" y2="277.548" gradientUnits="userSpaceOnUse">
<stop stop-color="#8E47AD"/>
<stop offset="1" stop-color="#3A1D47"/>
</linearGradient>
<clipPath id="clip0_555_365">
<rect width="26.6446" height="26.6446" fill="white" transform="translate(215.68 19.9835)"/>
</clipPath>
<clipPath id="clip1_555_365">
<rect width="26.6446" height="26.6446" fill="white" transform="translate(75.793 76.6033)"/>
</clipPath>
<clipPath id="clip2_555_365">
<rect width="26.6446" height="26.6446" fill="white" transform="translate(31.3867 207.606)"/>
</clipPath>
<clipPath id="clip3_555_365">
<rect width="26.6446" height="26.6446" fill="white" transform="translate(353.344 82.1543)"/>
</clipPath>
<clipPath id="clip4_555_365">
<rect width="26.6446" height="26.6446" fill="white" transform="translate(399.969 205.386)"/>
</clipPath>
</defs>
</svg>
