<svg width="570" height="596" viewBox="0 0 570 596" fill="none" xmlns="http://www.w3.org/2000/svg">
<g clip-path="url(#clip0_2001_44)">
<path d="M216.269 596H207.108L234.23 554.174H263.926V560.908H246.683V571.188H262.848V577.923H246.683V589.265H264.644V596H239.139V585.012H223.094L216.269 596ZM238.241 560.908L227.045 578.631H239.139V560.908H238.241Z" fill="url(#paint0_linear_2001_44)"/>
</g>
<path d="M162.246 461.42C173.389 451.559 202.837 444.636 238.293 444.636C273.749 444.636 303.363 451.559 314.742 461.42C319.368 458.156 322.221 454.572 322.797 450.809C325.11 435.679 287.163 423.415 238.041 423.415C188.918 423.415 151.263 435.679 153.939 450.809C154.602 454.572 157.542 458.156 162.246 461.42Z" fill="url(#paint1_linear_2001_44)"/>
<path d="M138.848 419.508C153.174 407.677 191.487 399.368 237.752 399.368C284.016 399.368 322.528 407.677 337.137 419.508C343.229 415.594 347.028 411.291 347.867 406.777C351.242 388.621 301.805 373.904 237.448 373.904C173.09 373.904 124.006 388.621 127.814 406.777C128.761 411.291 132.662 415.594 138.848 419.508Z" fill="url(#paint2_linear_2001_44)"/>
<path d="M107.497 369.603C126.047 355.404 176.277 345.435 237.106 345.435C297.936 345.435 348.404 355.404 367.294 369.603C375.378 364.904 380.476 359.742 381.697 354.324C386.609 332.539 321.709 314.878 236.741 314.878C151.772 314.878 87.2957 332.539 92.7288 354.324C94.0789 359.742 99.3003 364.904 107.497 369.603Z" fill="url(#paint3_linear_2001_44)"/>
<path d="M65.9294 312.852C90.0139 295.815 156.095 283.851 236.371 283.851C316.646 283.851 383.012 295.815 407.505 312.852C418.275 307.213 425.142 301.019 426.917 294.519C434.05 268.376 348.545 247.184 235.932 247.184C123.319 247.184 38.3193 268.376 46.0797 294.519C48.0095 301.021 55.0232 307.213 65.9294 312.852Z" fill="url(#paint4_linear_2001_44)"/>
<path opacity="0.2" d="M251.413 516.244V420.068H221.509V516.244H210.504L236.461 537.122L262.416 516.244H251.413Z" fill="url(#paint5_linear_2001_44)"/>
<path opacity="0.5" d="M75.2509 264.13C77.0857 264.13 78.5731 262.641 78.5731 260.803C78.5731 258.965 77.0857 257.476 75.2509 257.476C73.4161 257.476 71.9287 258.965 71.9287 260.803C71.9287 262.641 73.4161 264.13 75.2509 264.13Z" stroke="#83BCF0" stroke-width="1.3297" stroke-miterlimit="10" stroke-linecap="round" stroke-linejoin="round"/>
<path opacity="0.5" d="M104.601 464.746C106.435 464.746 107.922 463.257 107.922 461.42C107.922 459.583 106.435 458.094 104.601 458.094C102.767 458.094 101.28 459.583 101.28 461.42C101.28 463.257 102.767 464.746 104.601 464.746Z" stroke="#83BCF0" stroke-width="1.3297" stroke-miterlimit="10" stroke-linecap="round" stroke-linejoin="round"/>
<path opacity="0.5" d="M399.205 377.231C401.04 377.231 402.527 375.741 402.527 373.904C402.527 372.066 401.04 370.577 399.205 370.577C397.37 370.577 395.883 372.066 395.883 373.904C395.883 375.741 397.37 377.231 399.205 377.231Z" stroke="#83BCF0" stroke-width="1.3297" stroke-miterlimit="10" stroke-linecap="round" stroke-linejoin="round"/>
<path opacity="0.5" d="M63.7309 240.664V240.478C58.5365 240.478 54.3241 236.26 54.3241 231.057H54.1383C54.1383 236.26 49.927 240.478 44.7314 240.478V240.664C49.9258 240.664 54.1383 244.882 54.1383 250.084H54.3241C54.3241 244.882 58.5353 240.664 63.7309 240.664Z" fill="#83BCF0"/>
<path opacity="0.5" d="M89.2563 438.351V438.164C84.0619 438.164 79.8495 433.947 79.8495 428.745H79.6637C79.6637 433.947 75.4524 438.164 70.2568 438.164V438.351C75.4512 438.351 79.6637 442.568 79.6637 447.77H79.8495C79.8506 442.568 84.0619 438.351 89.2563 438.351Z" fill="#83BCF0"/>
<path opacity="0.5" d="M462.016 359.445V359.26C456.82 359.26 452.609 355.043 452.609 349.839H452.424C452.424 355.043 448.213 359.26 443.018 359.26V359.445C448.213 359.445 452.424 363.663 452.424 368.866H452.609C452.609 363.663 456.82 359.445 462.016 359.445Z" fill="#83BCF0"/>
<path opacity="0.5" d="M194.265 185.607V185.42C189.071 185.42 184.858 181.202 184.858 176H184.672C184.672 181.202 180.461 185.42 175.266 185.42V185.606C180.46 185.606 184.672 189.824 184.672 195.026H184.858C184.859 189.825 189.071 185.607 194.265 185.607Z" fill="#83BCF0"/>
<path d="M155.368 454.286L155.369 454.287L155.368 454.286Z" fill="url(#paint6_linear_2001_44)"/>
<path d="M238.837 478.203C198.153 478.203 162.851 467.781 155.378 454.301L167.901 478.203C173.908 490.358 204.133 499.786 239.089 499.786C274.718 499.786 305.223 489.991 310.078 477.499L321.41 454.861C313.579 468.068 278.956 478.203 238.837 478.203Z" fill="url(#paint7_linear_2001_44)"/>
<path d="M129.746 410.948L129.747 410.949L129.746 410.948Z" fill="url(#paint8_linear_2001_44)"/>
<path d="M238.41 439.65C185.706 439.65 139.755 427.144 129.757 410.967L146.517 439.648C154.528 454.235 193.663 465.549 238.711 465.549C284.627 465.549 324.157 453.796 330.715 438.804L345.957 411.64C335.47 427.487 290.382 439.65 238.41 439.65Z" fill="url(#paint9_linear_2001_44)"/>
<path d="M95.3564 359.33L95.3575 359.332L95.3564 359.33Z" fill="url(#paint10_linear_2001_44)"/>
<path d="M237.907 393.77C169.117 393.77 108.849 378.763 95.3701 359.351L117.968 393.77C128.73 411.272 179.786 424.85 238.268 424.85C297.876 424.85 349.487 410.746 358.407 392.756L379.055 360.158C364.903 379.178 305.741 393.77 237.907 393.77Z" fill="url(#paint11_linear_2001_44)"/>
<path d="M49.6709 300.527L49.6729 300.529L49.6709 300.527Z" fill="url(#paint12_linear_2001_44)"/>
<path d="M237.347 341.854C147.27 341.854 67.9396 323.846 49.6904 300.553L80.2923 341.854C94.8136 362.857 161.639 379.149 237.777 379.149C315.381 379.149 382.988 362.225 395.167 340.637L423.25 301.52C404.078 324.342 326.173 341.854 237.347 341.854Z" fill="url(#paint13_linear_2001_44)"/>
<path opacity="0.5" d="M8.59776 426.692C-7.45541 450.686 3.45013 486.123 27.0862 502.673C50.7224 519.224 82.7681 519.48 110.141 510.383C166.022 491.811 211.583 445.874 254.158 407.238C301.931 363.887 356.139 321.573 417.462 320.657C432.35 320.436 447.749 322.915 460.414 331.742C477.428 343.597 491.881 376.234 469.687 391.555" stroke="#83BCF0" stroke-opacity="0.3" stroke-width="1.3297" stroke-miterlimit="10" stroke-linecap="round" stroke-linejoin="round" stroke-dasharray="3.41 3.35"/>
<path opacity="0.5" d="M179.926 377.681C130.624 383.022 79.9313 372.936 38.2149 345.544C28.1621 338.943 18.5074 331.244 12.0454 321.092C5.58201 310.94 2.68791 297.949 6.76793 286.623C12.3383 271.162 29.5774 262.431 45.9797 261.816C62.382 261.202 78.2577 267.052 93.6285 272.817C118.551 282.165 143.476 291.512 168.399 300.857C180.636 305.448 193.101 310.086 206.145 310.857C219.19 311.629 233.138 307.959 241.871 298.225C250.602 288.489 252.178 272.001 243.131 262.557" stroke="#83BCF0" stroke-opacity="0.3" stroke-width="1.3297" stroke-miterlimit="10" stroke-linecap="round" stroke-linejoin="round" stroke-dasharray="3.41 3.35"/>
<path fill-rule="evenodd" clip-rule="evenodd" d="M541.052 0L540.639 75.4918L540.639 75.5004L540.639 75.509C540.74 92.3727 536.228 115.475 516.613 134.654C505.755 139.996 491.679 143.6 473.651 145.896C454.083 148.387 429.96 149.326 400.411 149.326C357.541 149.326 326.835 160.164 304.977 175.746C279.299 179.564 260.331 185.463 246.388 193.427C232.983 201.084 224.214 210.653 218.613 222.084C213.213 233.107 210.8 245.778 209.921 259.969L202.714 259.79L211 275L215.278 267.997L219 275L228.181 260.313L221.093 260.064C223.497 231.58 232.947 217.196 244.785 209.897C251.243 205.915 258.513 203.97 265.976 203.077C251.2 213.425 239.296 231.019 236.255 259.951L229.023 259.626L237 275L246.326 260.405L239.258 260.086C242.354 231.028 254.569 214.127 269.212 204.507C270.261 203.818 271.324 203.165 272.397 202.548C274.286 202.454 276.176 202.41 278.058 202.398C263.529 222.346 257.135 244.012 254.736 259.937L247.497 259.389L255 275L264.768 260.697L257.735 260.164C260.182 244.127 266.758 222.256 281.783 202.414C283.14 202.432 284.489 202.463 285.826 202.499L285.846 202.5H285.867C290.038 202.5 292.475 202.534 296.083 202.584C299.381 202.63 303.658 202.69 311.136 202.75C326.756 202.875 356.309 203 420.031 203C484.085 203 521.531 182.885 542.93 155.897C564.276 128.977 569.431 95.4914 569.5 69.1484V69.1445V0H566.5V69.1406C566.432 95.1791 561.323 127.872 540.579 154.033C519.888 180.128 483.418 200 420.031 200C356.311 200 326.768 199.875 311.16 199.75C303.737 199.691 299.459 199.631 296.149 199.585C292.519 199.534 290.054 199.5 285.887 199.5C285.295 199.484 284.699 199.469 284.099 199.455C284.927 198.432 285.779 197.415 286.655 196.406C296.638 193.336 306.696 192.476 315.184 192.681L315.184 192.69H315.185H315.187H315.189H315.19H315.193H315.197H315.203H315.203H315.209H315.209H315.215H315.217H315.223H315.225H315.231H315.234H315.24H315.245H315.25H315.256H315.26H315.269H315.272H315.282H315.284H315.296H315.31H315.312H315.324H315.329H315.338H315.346H315.354H315.365H315.37H315.385H315.386H315.404H315.406H315.422H315.428H315.44H315.452H315.459H315.476H315.479H315.499H315.502H315.517H315.519H315.529H315.538H315.541H315.557H315.562H315.585H315.586H315.608H315.616H315.63H315.631H315.648H315.655H315.679H315.681H315.703H315.715H315.721H315.729H315.751H315.754H315.78H315.787H315.807H315.81H315.825H315.833H315.86H315.864H315.888H315.898H315.905H315.916H315.944H315.947H315.973H315.984H315.99H316.002H316.031H316.035H316.06H316.068H316.081H316.09H316.12H316.128H316.15H316.151H316.177H316.181H316.212H316.227H316.231H316.243H316.275H316.278H316.306H316.31H316.331H316.338H316.37H316.386H316.388H316.402H316.434H316.441H316.464H316.466H316.499H316.499H316.532H316.539H316.557H316.564H316.597H316.611H316.617H316.63H316.663H316.679H316.683H316.696H316.73H316.742H316.752H316.763H316.796H316.807H316.821H316.829H316.863H316.873H316.887H316.896H316.929H316.941H316.952H316.962H316.996H317.01H317.016H317.029H317.062H317.078H317.081H317.095H317.128H317.139H317.153H317.161H317.193H317.198H317.226H317.227H317.255H317.258H317.291H317.303H317.312H317.323H317.355H317.366H317.38H317.387H317.419H317.42H317.45H317.458H317.472H317.481H317.512H317.522H317.539H317.543H317.571H317.574H317.604H317.619H317.621H317.634H317.664H317.666H317.693H317.704H317.711H317.722H317.751H317.754H317.779H317.79H317.797H317.808H317.835H317.838H317.863H317.877H317.877H317.89H317.916H317.916H317.943H317.953H317.965H317.969H317.989H317.994H318.019H318.023H318.043H318.056H318.056H318.068H318.089H318.091H318.114H318.119H318.137H318.148H318.149H318.159H318.177H318.181H318.202H318.205H318.222H318.231H318.242H318.242H318.255H318.262H318.279H318.281H318.299H318.302H318.316H318.323H318.334H318.337H318.343H318.35H318.363H318.366H318.381H318.381H318.395H318.398H318.409H318.413H318.422H318.428H318.434H318.435H318.442H318.447H318.455H318.458H318.466H318.468H318.477H318.477H318.486H318.487H318.494H318.495H318.502H318.503H318.508H318.51H318.514H318.516H318.519H318.52H318.523H318.524H318.526H318.527H318.528H318.529H318.53H318.531H318.534H318.634H318.737H318.841H318.947H319.055H319.165H319.277H319.39H319.506H319.623H319.742H319.863H319.986H320.111H320.237H320.366H320.497H320.629H320.764H320.9H321.039H321.18H321.322H321.467H321.613H321.762H321.913H322.066H322.221H322.378H322.537H322.699H322.862H323.028H323.195H323.365H323.538H323.712H323.888H324.067H324.248H324.432H324.617H324.805H324.995H325.187H325.382H325.579H325.778H325.98H326.184H326.39H326.599H326.81H327.024H327.24H327.458H327.679H327.902H328.128H328.356H328.587H328.82H329.055H329.294H329.534H329.778H330.023H330.272H330.523H330.776H331.032H331.291H331.552H331.816H332.083H332.352H332.624H332.898H333.176H333.456H333.738H334.024H334.312H334.603H334.897H335.193H335.492H335.794H336.099H336.407H336.717H337.031H337.347H337.666H337.988H338.313H338.64H338.971H339.305H339.641H339.981H340.323H340.668H341.017H341.368H341.722H342.08H342.44H342.804H343.17H343.54H343.912H344.288H344.667H345.049H345.434H345.822H346.214H346.608H347.006H347.407H347.811H348.218H348.629H349.042H349.459H349.88H350.303H350.73H351.16H351.593H352.03H352.47H352.913H353.36H353.81H354.263H354.72H355.18H355.644H356.111H356.581H357.055H357.532H358.013H358.497H358.985H359.476H359.971H360.469H360.971H361.476H361.985H362.498H363.014H363.533H364.057H364.583H365.114H365.648H366.186H366.727H367.272H367.821H368.374H368.93H369.49H370.053H370.621H371.192H371.767H372.346H372.928H373.514H374.104H374.698H375.296H375.898H376.503H377.113H377.726H378.343H378.964H379.589H380.218H380.851H381.488H382.128H382.773H383.422H384.075H384.731H385.392H386.057H386.726H387.399H388.076H388.757H389.442H390.131H390.825H391.522H392.224H392.93H393.64H394.354H395.072H395.795H396.522H397.253H397.988H398.727H399.471C463.354 192.69 503.625 176.714 527.947 153.904C552.276 131.088 560.431 101.637 560.5 75.1484V75.1445V0H557.5V75.1406C557.433 101.034 549.471 129.605 525.894 151.716C502.31 173.834 462.884 189.69 399.471 189.69H398.727H397.988H397.253H396.522H395.795H395.072H394.354H393.64H392.93H392.224H391.522H390.825H390.131H389.442H388.757H388.076H387.399H386.726H386.057H385.392H384.731H384.075H383.422H382.773H382.128H381.488H380.851H380.218H379.589H378.964H378.343H377.726H377.113H376.503H375.898H375.296H374.698H374.104H373.514H372.928H372.346H371.767H371.192H370.621H370.053H369.49H368.93H368.374H367.821H367.272H366.727H366.186H365.648H365.114H364.583H364.057H363.533H363.014H362.498H361.985H361.476H360.971H360.469H359.971H359.476H358.985H358.497H358.013H357.532H357.055H356.581H356.111H355.644H355.18H354.72H354.263H353.81H353.36H352.913H352.47H352.03H351.593H351.16H350.73H350.303H349.88H349.459H349.042H348.629H348.218H347.811H347.407H347.006H346.608H346.214H345.822H345.434H345.049H344.667H344.288H343.912H343.54H343.17H342.804H342.44H342.08H341.722H341.368H341.017H340.668H340.323H339.981H339.641H339.305H338.971H338.64H338.313H337.988H337.666H337.347H337.031H336.717H336.407H336.099H335.794H335.492H335.193H334.897H334.603H334.312H334.024H333.738H333.456H333.176H332.898H332.624H332.352H332.083H331.816H331.552H331.291H331.032H330.776H330.523H330.272H330.023H329.778H329.534H329.294H329.055H328.82H328.587H328.356H328.128H327.902H327.679H327.458H327.24H327.024H326.81H326.599H326.39H326.184H325.98H325.778H325.579H325.382H325.187H324.995H324.805H324.617H324.432H324.248H324.067H323.888H323.712H323.538H323.365H323.195H323.028H322.862H322.699H322.537H322.378H322.221H322.066H321.913H321.762H321.613H321.467H321.322H321.18H321.039H320.9H320.764H320.629H320.497H320.366H320.237H320.111H319.986H319.863H319.742H319.623H319.506H319.39H319.277H319.165H319.055H318.947H318.841H318.737H318.634H318.534H318.531H318.53H318.529H318.528H318.527H318.526H318.524H318.523H318.52H318.519H318.516H318.514H318.51H318.508H318.503H318.502H318.495H318.494H318.487H318.486H318.477H318.477H318.468H318.466H318.458H318.455H318.447H318.442H318.435H318.434H318.428H318.422H318.413H318.409H318.398H318.395H318.381H318.381H318.366H318.363H318.35H318.343H318.337H318.334H318.323H318.316H318.302H318.299H318.281H318.279H318.262H318.255H318.242H318.242H318.231H318.222H318.205H318.202H318.181H318.177H318.159H318.149H318.148H318.137H318.119H318.114H318.091H318.089H318.068H318.056H318.056H318.043H318.023H318.019H317.994H317.989H317.969H317.965H317.953H317.943H317.916H317.916H317.89H317.877H317.877H317.863H317.838H317.835H317.808H317.797H317.79H317.779H317.754H317.751H317.722H317.711H317.704H317.693H317.666H317.664H317.634H317.621H317.619H317.604H317.574H317.571H317.543H317.539H317.522H317.512H317.481H317.472H317.458H317.45H317.42H317.419H317.387H317.38H317.366H317.355H317.323H317.312H317.303H317.291H317.258H317.255H317.227H317.226H317.198H317.193H317.161H317.153H317.139H317.128H317.095H317.081H317.078H317.062H317.029H317.016H317.01H316.996H316.962H316.952H316.941H316.929H316.896H316.887H316.873H316.863H316.829H316.821H316.807H316.796H316.763H316.752H316.742H316.73H316.696H316.683H316.679H316.663H316.63H316.617H316.611H316.597H316.564H316.557H316.539H316.532H316.499H316.499H316.466H316.464H316.441H316.434H316.402H316.388H316.386H316.37H316.338H316.331H316.31H316.306H316.278H316.275H316.243H316.231H316.227H316.212H316.181H316.177H316.151H316.15H316.128H316.12H316.09H316.081H316.068H316.06H316.035H316.031H316.002H315.99H315.984H315.973H315.947H315.944H315.916H315.905H315.898H315.888H315.864H315.86H315.833H315.825H315.81H315.807H315.787H315.78H315.754H315.751H315.729H315.721H315.715H315.703H315.681H315.679H315.655H315.648H315.631H315.63H315.616H315.608H315.586H315.585H315.562H315.558C308.097 189.487 299.357 190.079 290.442 192.254C295.047 187.448 300.253 182.855 306.135 178.607C329.245 175.224 357.953 173.5 393.578 173.5C458.54 173.5 496.167 158.053 517.527 137.934C517.81 137.667 518.09 137.4 518.367 137.132C519.189 136.721 519.993 136.3 520.781 135.869C532.493 129.456 540.465 120.759 545.48 109.175C550.474 97.6405 552.5 83.3246 552.5 65.7069V0H549.5V65.7069C549.5 83.1383 547.488 96.9868 542.727 107.984C538.901 116.823 533.276 123.872 525.383 129.472C540.129 111.222 543.729 90.8053 543.639 75.4993L543.639 75.491L544.052 0H541.052ZM281.149 198.337C280.869 198.69 280.591 199.044 280.316 199.398C279.756 199.394 279.193 199.392 278.629 199.394C279.466 199.024 280.306 198.672 281.149 198.337ZM284.953 193.796C280.42 195.243 275.9 197.14 271.536 199.587C261.808 200.132 251.87 202.004 243.211 207.343C230.267 215.324 220.524 230.803 218.091 259.959L212.939 259.778C213.824 245.95 216.194 233.841 221.307 223.404C226.627 212.547 234.959 203.41 247.876 196.032C260.425 188.864 277.29 183.36 299.883 179.586C295.343 183.204 291.226 187.032 287.495 191.002C286.626 191.926 285.779 192.857 284.953 193.796ZM474.03 148.872C487.907 147.105 499.608 144.554 509.387 140.977C487.896 157.838 452.195 170.5 393.578 170.5C360.943 170.5 333.978 171.94 311.725 174.81C332.669 161.438 361.324 152.326 400.411 152.326C430.002 152.326 454.273 151.387 474.03 148.872Z" fill="url(#paint14_linear_2001_44)"/>
<defs>
<linearGradient id="paint0_linear_2001_44" x1="207.108" y1="575.087" x2="264.644" y2="575.087" gradientUnits="userSpaceOnUse">
<stop stop-color="#3A7FD0"/>
<stop offset="1" stop-color="#51B29C"/>
</linearGradient>
<linearGradient id="paint1_linear_2001_44" x1="238.351" y1="423.415" x2="238.351" y2="461.42" gradientUnits="userSpaceOnUse">
<stop stop-color="#110030"/>
<stop offset="1" stop-color="#00DCED"/>
</linearGradient>
<linearGradient id="paint2_linear_2001_44" x1="237.818" y1="373.904" x2="237.818" y2="419.508" gradientUnits="userSpaceOnUse">
<stop stop-color="#110030"/>
<stop offset="1" stop-color="#00DCED"/>
</linearGradient>
<linearGradient id="paint3_linear_2001_44" x1="237.184" y1="314.878" x2="237.184" y2="369.603" gradientUnits="userSpaceOnUse">
<stop stop-color="#110030"/>
<stop offset="1" stop-color="#00DCED"/>
</linearGradient>
<linearGradient id="paint4_linear_2001_44" x1="236.46" y1="247.184" x2="236.46" y2="312.852" gradientUnits="userSpaceOnUse">
<stop stop-color="#110030"/>
<stop offset="1" stop-color="#00DCED"/>
</linearGradient>
<linearGradient id="paint5_linear_2001_44" x1="210.504" y1="478.595" x2="262.416" y2="478.595" gradientUnits="userSpaceOnUse">
<stop stop-color="#3A7FD0"/>
<stop offset="1" stop-color="#51B29C"/>
</linearGradient>
<linearGradient id="paint6_linear_2001_44" x1="155.368" y1="454.286" x2="155.369" y2="454.286" gradientUnits="userSpaceOnUse">
<stop stop-color="#3A7FD0"/>
<stop offset="1" stop-color="#51B29C"/>
</linearGradient>
<linearGradient id="paint7_linear_2001_44" x1="155.378" y1="477.043" x2="321.41" y2="477.043" gradientUnits="userSpaceOnUse">
<stop stop-color="#3A7FD0"/>
<stop offset="1" stop-color="#51B29C"/>
</linearGradient>
<linearGradient id="paint8_linear_2001_44" x1="129.746" y1="410.949" x2="129.747" y2="410.949" gradientUnits="userSpaceOnUse">
<stop stop-color="#3A7FD0"/>
<stop offset="1" stop-color="#51B29C"/>
</linearGradient>
<linearGradient id="paint9_linear_2001_44" x1="129.757" y1="438.258" x2="345.957" y2="438.258" gradientUnits="userSpaceOnUse">
<stop stop-color="#3A7FD0"/>
<stop offset="1" stop-color="#51B29C"/>
</linearGradient>
<linearGradient id="paint10_linear_2001_44" x1="95.3564" y1="359.331" x2="95.3575" y2="359.331" gradientUnits="userSpaceOnUse">
<stop stop-color="#3A7FD0"/>
<stop offset="1" stop-color="#51B29C"/>
</linearGradient>
<linearGradient id="paint11_linear_2001_44" x1="95.3701" y1="392.1" x2="379.055" y2="392.1" gradientUnits="userSpaceOnUse">
<stop stop-color="#3A7FD0"/>
<stop offset="1" stop-color="#51B29C"/>
</linearGradient>
<linearGradient id="paint12_linear_2001_44" x1="49.6709" y1="300.528" x2="49.6729" y2="300.528" gradientUnits="userSpaceOnUse">
<stop stop-color="#3A7FD0"/>
<stop offset="1" stop-color="#51B29C"/>
</linearGradient>
<linearGradient id="paint13_linear_2001_44" x1="49.6904" y1="339.851" x2="423.25" y2="339.851" gradientUnits="userSpaceOnUse">
<stop stop-color="#3A7FD0"/>
<stop offset="1" stop-color="#51B29C"/>
</linearGradient>
<linearGradient id="paint14_linear_2001_44" x1="386.107" y1="-82.0082" x2="386.107" y2="275" gradientUnits="userSpaceOnUse">
<stop stop-color="#110030"/>
<stop offset="1" stop-color="#3A7FD0"/>
</linearGradient>
<clipPath id="clip0_2001_44">
<rect width="58" height="42" fill="white" transform="translate(207 554)"/>
</clipPath>
</defs>
</svg>
