<svg width="741" height="631" viewBox="0 0 741 631" fill="none" xmlns="http://www.w3.org/2000/svg">
<circle cx="353" cy="315" r="125" fill="url(#paint0_linear_68_760)"/>
<circle cx="353.5" cy="314.5" r="100.5" stroke="white" stroke-opacity="0.3" stroke-width="2" stroke-dasharray="2 2"/>
<path d="M353 86L324.132 136L381.868 136L353 86ZM348 131L348 191L358 191L358 131L348 131Z" fill="#3A7FD0"/>
<path d="M516.246 154L460.478 168.943L501.303 209.768L516.246 154ZM480.891 182.284L438.464 224.711L445.535 231.782L487.962 189.355L480.891 182.284Z" fill="#3A7FD0"/>
<path d="M516.246 475.246L501.303 419.478L460.478 460.303L516.246 475.246ZM487.962 439.891L445.535 397.464L438.464 404.535L480.891 446.962L487.962 439.891Z" fill="#3A7FD0"/>
<path d="M190 154L245.768 168.943L204.943 209.768L190 154ZM225.355 182.284L267.782 224.711L260.711 231.782L218.284 189.355L225.355 182.284Z" fill="#3A7FD0"/>
<path d="M190 475.246L204.943 419.478L245.768 460.303L190 475.246ZM218.284 439.891L260.711 397.464L267.782 404.535L225.355 446.962L218.284 439.891Z" fill="#3A7FD0"/>
<path d="M353 544L324.132 494L381.868 494L353 544ZM348 499L348 439L358 439L358 499L348 499Z" fill="#3A7FD0"/>
<path d="M582 315L532 286.132L532 343.868L582 315ZM537 310L477 310L477 320L537 320L537 310Z" fill="#3A7FD0"/>
<path d="M124 315L174 286.132L174 343.868L124 315ZM169 310L229 310L229 320L169 320L169 310Z" fill="#3A7FD0"/>
<path d="M332.825 364.852H327.224L324.84 368.739H321.644L331.112 353.93H341.482V356.315H335.461V359.952H341.102V362.337H335.461V366.355H341.733V368.739H332.825V364.852ZM332.825 362.597V356.325H332.515L328.607 362.597H332.835H332.825Z" fill="white"/>
<path d="M342.925 360.844V358.71H344.999V355.804H347.504V358.71H350.259V360.844H347.504V365.233C347.504 365.734 347.594 366.135 347.784 366.425C347.975 366.716 348.345 366.866 348.907 366.866C349.127 366.866 349.377 366.846 349.638 366.796C349.898 366.746 350.109 366.666 350.269 366.555V368.67C350.009 368.79 349.678 368.88 349.297 368.93C348.917 368.98 348.576 369 348.285 369C347.614 369 347.073 368.93 346.642 368.78C346.221 368.63 345.881 368.409 345.64 368.109C345.4 367.808 345.229 367.437 345.139 366.986C345.049 366.535 344.999 366.024 344.999 365.443V360.844H342.925Z" fill="white"/>
<path d="M354.759 360.113H354.799C354.999 359.692 355.34 359.311 355.831 358.97C356.322 358.63 356.963 358.459 357.744 358.459C358.416 358.459 358.977 358.569 359.448 358.79C359.919 359.01 360.299 359.311 360.59 359.672C360.881 360.032 361.091 360.453 361.221 360.924C361.341 361.395 361.412 361.896 361.412 362.407V368.739H358.907V363.659C358.907 363.379 358.897 363.068 358.867 362.728C358.837 362.387 358.766 362.066 358.646 361.766C358.526 361.465 358.346 361.215 358.095 361.014C357.845 360.814 357.504 360.714 357.073 360.714C356.642 360.714 356.302 360.784 356.021 360.924C355.73 361.064 355.5 361.255 355.31 361.485C355.119 361.726 354.989 361.996 354.899 362.297C354.819 362.607 354.769 362.928 354.769 363.259V368.739H352.264V352.928H354.769V360.102L354.759 360.113Z" fill="white"/>
<path d="M363.757 363.73C363.757 362.938 363.897 362.217 364.188 361.565C364.478 360.914 364.859 360.363 365.35 359.902C365.841 359.441 366.412 359.09 367.083 358.84C367.755 358.589 368.466 358.459 369.218 358.459C369.969 358.459 370.68 358.589 371.352 358.84C372.023 359.09 372.604 359.451 373.085 359.902C373.566 360.353 373.957 360.914 374.247 361.565C374.538 362.217 374.678 362.938 374.678 363.73C374.678 364.521 374.538 365.243 374.247 365.894C373.957 366.545 373.576 367.096 373.085 367.557C372.594 368.018 372.023 368.369 371.352 368.619C370.68 368.87 369.969 369 369.218 369C368.466 369 367.755 368.88 367.083 368.619C366.412 368.369 365.831 368.008 365.35 367.557C364.859 367.096 364.478 366.545 364.188 365.894C363.897 365.243 363.757 364.521 363.757 363.73ZM366.262 363.73C366.262 364.12 366.332 364.501 366.462 364.862C366.592 365.222 366.793 365.543 367.043 365.824C367.304 366.104 367.614 366.325 367.975 366.495C368.336 366.665 368.747 366.745 369.207 366.745C369.668 366.745 370.079 366.665 370.44 366.495C370.801 366.325 371.111 366.104 371.372 365.824C371.632 365.543 371.823 365.222 371.953 364.862C372.083 364.501 372.153 364.12 372.153 363.73C372.153 363.339 372.083 362.968 371.953 362.597C371.823 362.237 371.622 361.916 371.372 361.635C371.121 361.355 370.801 361.134 370.44 360.964C370.079 360.794 369.668 360.714 369.207 360.714C368.747 360.714 368.336 360.794 367.975 360.964C367.614 361.134 367.304 361.355 367.043 361.635C366.783 361.916 366.592 362.237 366.462 362.597C366.332 362.958 366.262 363.339 366.262 363.73Z" fill="white"/>
<path d="M382.363 361.485C381.872 360.804 381.22 360.463 380.399 360.463C380.068 360.463 379.737 360.543 379.417 360.714C379.096 360.884 378.936 361.155 378.936 361.525C378.936 361.836 379.066 362.056 379.337 362.197C379.597 362.337 379.938 362.457 380.339 362.547C380.739 362.647 381.18 362.748 381.641 362.848C382.102 362.948 382.543 363.108 382.944 363.329C383.344 363.549 383.685 363.84 383.946 364.22C384.206 364.601 384.346 365.112 384.346 365.764C384.346 366.365 384.216 366.866 383.956 367.276C383.695 367.687 383.365 368.018 382.954 368.268C382.543 368.519 382.082 368.699 381.561 368.809C381.05 368.92 380.529 368.98 380.018 368.98C379.236 368.98 378.515 368.87 377.864 368.649C377.213 368.429 376.621 368.018 376.11 367.437L377.784 365.864C378.104 366.224 378.445 366.525 378.816 366.755C379.186 366.986 379.637 367.096 380.168 367.096C380.349 367.096 380.539 367.076 380.729 367.036C380.92 366.996 381.11 366.926 381.27 366.826C381.441 366.725 381.571 366.605 381.681 366.455C381.781 366.305 381.842 366.134 381.842 365.944C381.842 365.593 381.711 365.333 381.441 365.172C381.17 365.012 380.84 364.872 380.439 364.762C380.038 364.651 379.597 364.561 379.136 364.471C378.665 364.381 378.235 364.231 377.834 364.03C377.433 363.83 377.092 363.549 376.832 363.188C376.571 362.828 376.431 362.327 376.431 361.686C376.431 361.124 376.551 360.644 376.772 360.233C376.992 359.822 377.303 359.481 377.683 359.221C378.064 358.96 378.495 358.76 378.976 358.64C379.457 358.519 379.958 358.449 380.459 358.449C381.13 358.449 381.791 358.569 382.443 358.79C383.094 359.02 383.625 359.411 384.036 359.972L382.363 361.475V361.485Z" fill="white"/>
<g clip-path="url(#clip0_68_760)">
<path d="M334.713 325.684L324.073 343.041H361.578V325.684H334.713Z" fill="white"/>
<path d="M394.042 284.786H374.203V302.226H394.042V284.786Z" fill="white"/>
<path d="M394.042 313.656H374.203V332.904H394.042V313.656Z" fill="white"/>
<path d="M394.041 273.362V266.181C394.041 263.321 391.721 261.006 388.866 261.006H317.175C314.321 261 312 263.321 312 266.175V337.866C312 337.905 312 337.944 312 337.982L353.355 273.362H394.041Z" fill="white"/>
<path d="M341.327 314.859H361.577V284.786H360.073L341.327 314.859Z" fill="white"/>
</g>
<path d="M271.584 54V41.256H279.594V42.66H273.096V46.656H279.162V48.06H273.096V52.596H279.918V54H271.584ZM284.648 54.216C282.812 54.216 281.516 53.244 281.516 51.714C281.516 49.77 282.974 48.762 286.718 48.762H287.366V48.528C287.366 47.286 286.592 46.656 285.278 46.656C284.36 46.656 283.442 46.944 282.776 47.574L281.894 46.656C282.758 45.792 284 45.36 285.242 45.36C287.672 45.36 288.77 46.53 288.77 48.834V52.614C288.77 52.902 288.806 53.424 288.896 54H287.546C287.474 53.784 287.456 53.46 287.456 52.74H287.42C286.79 53.694 285.818 54.216 284.648 54.216ZM285.818 49.95C284.162 49.95 283.028 50.472 283.028 51.57C283.028 52.524 283.694 53.028 284.882 53.028C286.34 53.028 287.366 52.074 287.366 50.274V49.95H285.818ZM295.476 45.36C295.692 45.36 295.854 45.378 296.052 45.45L295.962 46.872C295.692 46.8 295.476 46.764 295.206 46.764C293.586 46.764 292.74 47.88 292.74 49.824V54H291.336V47.448C291.336 46.89 291.264 46.08 291.264 45.576H292.596C292.596 46.098 292.632 46.404 292.632 46.962H292.668C293.118 46.008 294.234 45.36 295.476 45.36ZM299.194 40.392V54H297.79V40.392H299.194ZM300.836 45.576H302.474L305.084 52.182H305.12L307.622 45.576H309.152L305.03 56.07C304.346 57.816 303.572 58.32 302.276 58.32C301.808 58.32 301.394 58.266 301.016 58.104L301.196 56.88C301.484 57.006 301.808 57.024 302.186 57.024C302.888 57.024 303.356 56.7 303.698 55.782L304.328 54.054L300.836 45.576ZM314.542 49.032V50.328H310.132V49.032H314.542ZM320.644 40.932C322.066 40.932 323.254 41.328 324.208 42.426L322.966 43.506C322.462 42.696 321.562 42.336 320.644 42.336C319.042 42.336 317.926 43.164 317.926 44.478C317.926 45.72 318.736 46.26 320.662 46.836C323.578 47.7 324.424 48.78 324.424 50.598C324.424 52.884 322.534 54.324 319.942 54.324C318.196 54.324 316.756 53.658 316.018 52.56L317.314 51.498C317.872 52.416 318.898 52.92 320.032 52.92C321.454 52.92 322.804 52.038 322.804 50.706C322.804 48.996 321.436 48.798 319.294 48.06C317.116 47.304 316.306 46.278 316.306 44.604C316.306 42.39 318.142 40.932 320.644 40.932ZM327.388 46.764H325.552V45.576H327.388V43.182H328.792V45.576H331.276V46.764H328.792V51.264C328.792 52.614 329.242 52.92 330.052 52.92C330.466 52.92 330.934 52.83 331.294 52.632L331.348 53.91C330.844 54.126 330.232 54.216 329.71 54.216C328.09 54.216 327.388 53.568 327.388 51.48V46.764ZM335.642 54.216C333.806 54.216 332.51 53.244 332.51 51.714C332.51 49.77 333.968 48.762 337.712 48.762H338.36V48.528C338.36 47.286 337.586 46.656 336.272 46.656C335.354 46.656 334.436 46.944 333.77 47.574L332.888 46.656C333.752 45.792 334.994 45.36 336.236 45.36C338.666 45.36 339.764 46.53 339.764 48.834V52.614C339.764 52.902 339.8 53.424 339.89 54H338.54C338.468 53.784 338.45 53.46 338.45 52.74H338.414C337.784 53.694 336.812 54.216 335.642 54.216ZM336.812 49.95C335.156 49.95 334.022 50.472 334.022 51.57C334.022 52.524 334.688 53.028 335.876 53.028C337.334 53.028 338.36 52.074 338.36 50.274V49.95H336.812ZM341.844 49.788C341.844 47.106 343.59 45.36 346.308 45.36C347.586 45.36 348.792 46.008 349.296 47.016H349.332V45.576H350.736V53.712C350.736 56.538 349.188 58.32 346.146 58.32C344.508 58.32 343.176 57.888 342.006 56.718L343.014 55.566C343.896 56.52 344.85 57.024 346.146 57.024C348.288 57.024 349.332 55.854 349.332 53.64V52.542H349.296C348.666 53.532 347.568 54.108 346.308 54.108C343.716 54.108 341.844 52.29 341.844 49.788ZM346.308 46.656C344.616 46.656 343.356 47.988 343.356 49.788C343.356 51.48 344.67 52.812 346.326 52.812C348.144 52.812 349.332 51.48 349.332 49.752C349.332 47.934 348.108 46.656 346.308 46.656ZM357.168 45.36C359.364 45.36 361.164 46.746 361.164 49.878V50.22H354.36C354.504 51.786 355.656 52.92 357.132 52.92C358.302 52.92 359.13 52.506 359.796 51.642L360.858 52.47C359.976 53.622 358.842 54.216 357.132 54.216C354.522 54.216 352.848 52.308 352.848 49.788C352.848 47.196 354.666 45.36 357.168 45.36ZM359.652 49.032C359.58 47.574 358.662 46.656 357.096 46.656C355.656 46.656 354.576 47.502 354.36 49.032H359.652ZM370.11 41.256V54H368.598V41.256H370.11ZM372.949 45.576H374.281C374.281 46.098 374.317 46.404 374.317 46.962H374.353C374.803 46.008 375.919 45.36 377.161 45.36C379.303 45.36 380.365 46.692 380.365 48.726V54H378.961V48.888C378.961 47.592 378.385 46.656 377.035 46.656C375.307 46.656 374.425 47.862 374.425 49.878V54H373.021V47.448C373.021 46.89 372.949 46.08 372.949 45.576ZM381.871 45.576H383.509L386.137 52.182H386.173L388.675 45.576H390.187L386.857 54H385.309L381.871 45.576ZM395.541 45.36C397.737 45.36 399.537 46.746 399.537 49.878V50.22H392.733C392.877 51.786 394.029 52.92 395.505 52.92C396.675 52.92 397.503 52.506 398.169 51.642L399.231 52.47C398.349 53.622 397.215 54.216 395.505 54.216C392.895 54.216 391.221 52.308 391.221 49.788C391.221 47.196 393.039 45.36 395.541 45.36ZM398.025 49.032C397.953 47.574 397.035 46.656 395.469 46.656C394.029 46.656 392.949 47.502 392.733 49.032H398.025ZM404.283 45.36C405.579 45.36 406.623 45.9 407.145 46.89L405.975 47.664C405.615 47.07 405.039 46.656 404.193 46.656C403.257 46.656 402.537 47.124 402.537 47.826C402.537 48.384 403.203 48.78 404.643 49.05C406.659 49.428 407.415 50.202 407.415 51.57C407.415 53.226 406.083 54.216 404.049 54.216C402.483 54.216 401.511 53.73 400.773 52.65L401.889 51.786C402.591 52.632 403.203 52.92 404.049 52.92C405.111 52.92 405.903 52.416 405.903 51.624C405.903 50.85 405.381 50.544 403.527 50.148C401.853 49.788 401.133 49.104 401.133 47.844C401.133 46.314 402.555 45.36 404.283 45.36ZM410.093 46.764H408.257V45.576H410.093V43.182H411.497V45.576H413.981V46.764H411.497V51.264C411.497 52.614 411.947 52.92 412.757 52.92C413.171 52.92 413.639 52.83 413.999 52.632L414.053 53.91C413.549 54.126 412.937 54.216 412.415 54.216C410.795 54.216 410.093 53.568 410.093 51.48V46.764ZM419.715 45.36C422.325 45.36 424.215 47.178 424.215 49.788C424.215 52.38 422.325 54.216 419.715 54.216C417.105 54.216 415.215 52.38 415.215 49.788C415.215 47.214 417.069 45.36 419.715 45.36ZM416.727 49.788C416.727 51.606 417.951 52.92 419.715 52.92C421.515 52.92 422.703 51.57 422.703 49.788C422.703 48.006 421.515 46.656 419.697 46.656C417.933 46.656 416.727 48.006 416.727 49.788ZM430.529 45.36C430.745 45.36 430.907 45.378 431.105 45.45L431.015 46.872C430.745 46.8 430.529 46.764 430.259 46.764C428.639 46.764 427.793 47.88 427.793 49.824V54H426.389V47.448C426.389 46.89 426.317 46.08 426.317 45.576H427.649C427.649 46.098 427.685 46.404 427.685 46.962H427.721C428.171 46.008 429.287 45.36 430.529 45.36ZM435.291 45.36C436.587 45.36 437.631 45.9 438.153 46.89L436.983 47.664C436.623 47.07 436.047 46.656 435.201 46.656C434.265 46.656 433.545 47.124 433.545 47.826C433.545 48.384 434.211 48.78 435.651 49.05C437.667 49.428 438.423 50.202 438.423 51.57C438.423 53.226 437.091 54.216 435.057 54.216C433.491 54.216 432.519 53.73 431.781 52.65L432.897 51.786C433.599 52.632 434.211 52.92 435.057 52.92C436.119 52.92 436.911 52.416 436.911 51.624C436.911 50.85 436.389 50.544 434.535 50.148C432.861 49.788 432.141 49.104 432.141 47.844C432.141 46.314 433.563 45.36 435.291 45.36Z" fill="white"/>
<path d="M348.5 14H356V16H348.5C347.121 16 346 17.122 346 18.5V24H344V18.5C344 16.019 346.019 14 348.5 14ZM359 6C359 9.309 356.309 12 353 12C349.691 12 347 9.309 347 6C347 2.691 349.691 0 353 0C356.309 0 359 2.691 359 6ZM357 6C357 3.794 355.206 2 353 2C350.794 2 349 3.794 349 6C349 8.206 350.794 10 353 10C355.206 10 357 8.206 357 6ZM363.685 16.267L360.644 15.76C360.271 15.698 360 15.378 360 15C360 14.449 360.448 14 361 14H363C363.552 14 364 14.449 364 15H366C366 13.346 364.654 12 363 12V10H361V12C359.346 12 358 13.346 358 15C358 16.36 358.974 17.51 360.315 17.733L363.356 18.24C363.729 18.302 364 18.622 364 19C364 19.551 363.552 20 363 20H361C360.448 20 360 19.551 360 19H358C358 20.654 359.346 22 361 22V24H363V22C364.654 22 366 20.654 366 19C366 17.64 365.026 16.49 363.685 16.267Z" fill="white"/>
<path d="M551.818 157H550.108L555.724 144.256H557.146L562.564 157H560.8L559.504 153.868H553.132L551.818 157ZM553.726 152.464H558.928L556.408 146.2H556.372L553.726 152.464ZM567.894 148.36C569.118 148.36 570.27 148.774 571.116 149.692L570 150.682C569.406 149.962 568.722 149.656 567.876 149.656C566.13 149.656 565.032 150.898 565.032 152.788C565.032 154.552 566.202 155.92 567.876 155.92C568.794 155.92 569.496 155.596 570.018 154.876L571.062 155.866C570.252 156.802 569.1 157.216 567.876 157.216C565.284 157.216 563.52 155.398 563.52 152.788C563.52 150.214 565.302 148.36 567.894 148.36ZM575.335 157.216C573.499 157.216 572.203 156.244 572.203 154.714C572.203 152.77 573.661 151.762 577.405 151.762H578.053V151.528C578.053 150.286 577.279 149.656 575.965 149.656C575.047 149.656 574.129 149.944 573.463 150.574L572.581 149.656C573.445 148.792 574.687 148.36 575.929 148.36C578.359 148.36 579.457 149.53 579.457 151.834V155.614C579.457 155.902 579.493 156.424 579.583 157H578.233C578.161 156.784 578.143 156.46 578.143 155.74H578.107C577.477 156.694 576.505 157.216 575.335 157.216ZM576.505 152.95C574.849 152.95 573.715 153.472 573.715 154.57C573.715 155.524 574.381 156.028 575.569 156.028C577.027 156.028 578.053 155.074 578.053 153.274V152.95H576.505ZM585.749 157.216C583.373 157.216 581.537 155.29 581.537 152.788C581.537 150.232 583.337 148.36 585.965 148.36C587.153 148.36 588.215 148.882 588.989 149.8H589.025V143.392H590.429V157H589.025V155.506H588.989C588.413 156.568 587.135 157.216 585.749 157.216ZM583.049 152.788C583.049 154.606 584.273 155.92 586.037 155.92C587.837 155.92 589.025 154.57 589.025 152.788C589.025 151.006 587.855 149.656 586.019 149.656C584.255 149.656 583.049 151.006 583.049 152.788ZM596.861 148.36C599.057 148.36 600.857 149.746 600.857 152.878V153.22H594.053C594.197 154.786 595.349 155.92 596.825 155.92C597.995 155.92 598.823 155.506 599.489 154.642L600.551 155.47C599.669 156.622 598.535 157.216 596.825 157.216C594.215 157.216 592.541 155.308 592.541 152.788C592.541 150.196 594.359 148.36 596.861 148.36ZM599.345 152.032C599.273 150.574 598.355 149.656 596.789 149.656C595.349 149.656 594.269 150.502 594.053 152.032H599.345ZM602.957 148.576H604.289C604.289 149.098 604.325 149.404 604.325 149.962H604.361C604.811 149.008 605.909 148.36 607.187 148.36C608.339 148.36 609.275 148.756 609.833 149.962C610.499 148.864 611.309 148.36 612.515 148.36C614.693 148.36 615.701 149.512 615.701 151.798V157H614.297V151.906C614.297 150.466 613.595 149.656 612.245 149.656C610.985 149.656 610.067 150.754 610.067 152.086V157H608.663V152.122C608.663 150.484 608.249 149.656 607.025 149.656C605.333 149.656 604.433 150.844 604.433 152.878V157H603.029V150.448C603.029 149.89 602.957 149.08 602.957 148.576ZM619.185 144.256C619.743 144.256 620.211 144.706 620.211 145.282C620.211 145.876 619.779 146.308 619.185 146.308C618.591 146.308 618.159 145.876 618.159 145.282C618.159 144.706 618.627 144.256 619.185 144.256ZM619.887 148.576V157H618.483V148.576H619.887ZM626.57 148.36C627.794 148.36 628.946 148.774 629.792 149.692L628.676 150.682C628.082 149.962 627.398 149.656 626.552 149.656C624.806 149.656 623.708 150.898 623.708 152.788C623.708 154.552 624.878 155.92 626.552 155.92C627.47 155.92 628.172 155.596 628.694 154.876L629.738 155.866C628.928 156.802 627.776 157.216 626.552 157.216C623.96 157.216 622.196 155.398 622.196 152.788C622.196 150.214 623.978 148.36 626.57 148.36ZM638.139 144.256V157H636.627V144.256H638.139ZM640.979 148.576H642.311C642.311 149.098 642.347 149.404 642.347 149.962H642.383C642.833 149.008 643.949 148.36 645.191 148.36C647.333 148.36 648.395 149.692 648.395 151.726V157H646.991V151.888C646.991 150.592 646.415 149.656 645.065 149.656C643.337 149.656 642.455 150.862 642.455 152.878V157H641.051V150.448C641.051 149.89 640.979 149.08 640.979 148.576ZM653.627 148.36C654.923 148.36 655.967 148.9 656.489 149.89L655.319 150.664C654.959 150.07 654.383 149.656 653.537 149.656C652.601 149.656 651.881 150.124 651.881 150.826C651.881 151.384 652.547 151.78 653.987 152.05C656.003 152.428 656.759 153.202 656.759 154.57C656.759 156.226 655.427 157.216 653.393 157.216C651.827 157.216 650.855 156.73 650.117 155.65L651.233 154.786C651.935 155.632 652.547 155.92 653.393 155.92C654.455 155.92 655.247 155.416 655.247 154.624C655.247 153.85 654.725 153.544 652.871 153.148C651.197 152.788 650.477 152.104 650.477 150.844C650.477 149.314 651.899 148.36 653.627 148.36ZM659.437 149.764H657.601V148.576H659.437V146.182H660.841V148.576H663.325V149.764H660.841V154.264C660.841 155.614 661.291 155.92 662.101 155.92C662.515 155.92 662.983 155.83 663.343 155.632L663.397 156.91C662.893 157.126 662.281 157.216 661.759 157.216C660.139 157.216 659.437 156.568 659.437 154.48V149.764ZM665.873 144.256C666.431 144.256 666.899 144.706 666.899 145.282C666.899 145.876 666.467 146.308 665.873 146.308C665.279 146.308 664.847 145.876 664.847 145.282C664.847 144.706 665.315 144.256 665.873 144.256ZM666.575 148.576V157H665.171V148.576H666.575ZM670.089 149.764H668.253V148.576H670.089V146.182H671.493V148.576H673.977V149.764H671.493V154.264C671.493 155.614 671.943 155.92 672.753 155.92C673.167 155.92 673.635 155.83 673.995 155.632L674.049 156.91C673.545 157.126 672.933 157.216 672.411 157.216C670.791 157.216 670.089 156.568 670.089 154.48V149.764ZM675.697 153.85V148.576H677.101V153.688C677.101 154.966 677.677 155.92 679.027 155.92C680.773 155.92 681.637 154.66 681.637 152.752V148.576H683.041V155.128C683.041 155.65 683.113 156.55 683.113 157H681.781C681.781 156.406 681.745 156.172 681.745 155.614H681.709C681.277 156.55 680.179 157.216 678.883 157.216C676.795 157.216 675.697 155.884 675.697 153.85ZM686.419 149.764H684.583V148.576H686.419V146.182H687.823V148.576H690.307V149.764H687.823V154.264C687.823 155.614 688.273 155.92 689.083 155.92C689.497 155.92 689.965 155.83 690.325 155.632L690.379 156.91C689.875 157.126 689.263 157.216 688.741 157.216C687.121 157.216 686.419 156.568 686.419 154.48V149.764ZM692.855 144.256C693.413 144.256 693.881 144.706 693.881 145.282C693.881 145.876 693.449 146.308 692.855 146.308C692.261 146.308 691.829 145.876 691.829 145.282C691.829 144.706 692.297 144.256 692.855 144.256ZM693.557 148.576V157H692.153V148.576H693.557ZM700.366 148.36C702.976 148.36 704.866 150.178 704.866 152.788C704.866 155.38 702.976 157.216 700.366 157.216C697.756 157.216 695.866 155.38 695.866 152.788C695.866 150.214 697.72 148.36 700.366 148.36ZM697.378 152.788C697.378 154.606 698.602 155.92 700.366 155.92C702.166 155.92 703.354 154.57 703.354 152.788C703.354 151.006 702.166 149.656 700.348 149.656C698.584 149.656 697.378 151.006 697.378 152.788ZM706.967 148.576H708.299C708.299 149.098 708.335 149.404 708.335 149.962H708.371C708.821 149.008 709.937 148.36 711.179 148.36C713.321 148.36 714.383 149.692 714.383 151.726V157H712.979V151.888C712.979 150.592 712.403 149.656 711.053 149.656C709.325 149.656 708.443 150.862 708.443 152.878V157H707.039V150.448C707.039 149.89 706.967 149.08 706.967 148.576ZM719.615 148.36C720.911 148.36 721.955 148.9 722.477 149.89L721.307 150.664C720.947 150.07 720.371 149.656 719.525 149.656C718.589 149.656 717.869 150.124 717.869 150.826C717.869 151.384 718.535 151.78 719.975 152.05C721.991 152.428 722.747 153.202 722.747 154.57C722.747 156.226 721.415 157.216 719.381 157.216C717.815 157.216 716.843 156.73 716.105 155.65L717.221 154.786C717.923 155.632 718.535 155.92 719.381 155.92C720.443 155.92 721.235 155.416 721.235 154.624C721.235 153.85 720.713 153.544 718.859 153.148C717.185 152.788 716.465 152.104 716.465 150.844C716.465 149.314 717.887 148.36 719.615 148.36Z" fill="white"/>
<g clip-path="url(#clip1_68_760)">
<path d="M572.93 123.623C572.253 123.095 571.388 122.912 570.555 123.12C568.496 123.636 564.648 124.5 562 124.5C559.352 124.5 555.504 123.635 553.446 123.12C552.613 122.913 551.747 123.096 551.07 123.623C550.39 124.154 550 124.953 550 125.817V129.183C550 130.047 550.39 130.846 551.07 131.377C551.747 131.905 552.612 132.088 553.445 131.88C555.504 131.364 559.352 130.5 562 130.5C564.648 130.5 568.496 131.365 570.554 131.88C570.78 131.936 571.007 131.964 571.233 131.964C571.842 131.964 572.436 131.762 572.93 131.377C573.61 130.846 574 130.047 574 129.183V125.817C574 124.953 573.61 124.154 572.93 123.623ZM561 128.533C558.423 128.685 555.274 129.361 552.959 129.94C552.643 130.019 552.41 129.886 552.3 129.8C552.109 129.651 552 129.426 552 129.183V125.817C552 125.574 552.109 125.349 552.3 125.2C552.41 125.113 552.641 124.98 552.96 125.06C555.275 125.639 558.423 126.315 561 126.467V128.533ZM572 129.183C572 129.426 571.891 129.651 571.7 129.8C571.589 129.886 571.356 130.019 571.04 129.94C568.725 129.361 565.577 128.685 563 128.533V126.467C565.577 126.315 568.726 125.639 571.041 125.06C571.356 124.979 571.589 125.113 571.7 125.2C571.891 125.349 572 125.574 572 125.817V129.183ZM572.523 111.359L564.621 108.459C562.964 107.852 561.141 107.848 559.485 108.452L551.486 111.362C550.584 111.691 550.001 112.536 550.002 113.514C550.002 114.493 550.586 115.337 551.488 115.664L555 116.938V120.999C555 121.551 555.448 121.999 556 121.999C556.552 121.999 557 121.551 557 120.999V117.663L559.442 118.549C560.265 118.848 561.13 118.997 561.994 118.997C562.858 118.997 563.722 118.848 564.544 118.549L567 117.658V120.998C567 121.55 567.448 121.998 568 121.998C568.552 121.998 569 121.55 569 120.998V116.932L572 115.844V119.998C572 120.55 572.448 120.998 573 120.998C573.552 120.998 574 120.55 574 119.998V113.523C574 113.523 574.002 113.515 574.002 113.51C574.003 112.532 573.423 111.687 572.523 111.357V111.359ZM571.833 113.779L563.862 116.671C562.655 117.107 561.328 117.108 560.123 116.671L552.169 113.785C552.023 113.732 552.001 113.592 552.001 113.514C552.001 113.436 552.022 113.296 552.168 113.243L560.168 110.332C560.772 110.112 561.406 110.002 562.041 110.002C562.681 110.002 563.321 110.114 563.93 110.337L571.833 113.237C571.974 113.289 571.997 113.42 571.999 113.5C571.997 113.58 571.975 113.728 571.833 113.779Z" fill="white"/>
</g>
<path d="M614.584 333V320.256H622.594V321.66H616.096V325.656H622.162V327.06H616.096V331.596H622.918V333H614.584ZM625.722 325.764H623.886V324.576H625.722V322.182H627.126V324.576H629.61V325.764H627.126V330.264C627.126 331.614 627.576 331.92 628.386 331.92C628.8 331.92 629.268 331.83 629.628 331.632L629.682 332.91C629.178 333.126 628.566 333.216 628.044 333.216C626.424 333.216 625.722 332.568 625.722 330.48V325.764ZM632.734 333H631.33V319.392H632.734V325.746H632.77C633.274 324.9 634.354 324.36 635.488 324.36C637.594 324.36 638.674 325.692 638.674 327.726V333H637.27V327.888C637.27 326.592 636.694 325.656 635.344 325.656C633.616 325.656 632.734 326.88 632.734 328.824V333ZM642.16 320.256C642.718 320.256 643.186 320.706 643.186 321.282C643.186 321.876 642.754 322.308 642.16 322.308C641.566 322.308 641.134 321.876 641.134 321.282C641.134 320.706 641.602 320.256 642.16 320.256ZM642.862 324.576V333H641.458V324.576H642.862ZM649.544 324.36C650.768 324.36 651.92 324.774 652.766 325.692L651.65 326.682C651.056 325.962 650.372 325.656 649.526 325.656C647.78 325.656 646.682 326.898 646.682 328.788C646.682 330.552 647.852 331.92 649.526 331.92C650.444 331.92 651.146 331.596 651.668 330.876L652.712 331.866C651.902 332.802 650.75 333.216 649.526 333.216C646.934 333.216 645.17 331.398 645.17 328.788C645.17 326.214 646.952 324.36 649.544 324.36ZM656.986 333.216C655.15 333.216 653.854 332.244 653.854 330.714C653.854 328.77 655.312 327.762 659.056 327.762H659.704V327.528C659.704 326.286 658.93 325.656 657.616 325.656C656.698 325.656 655.78 325.944 655.114 326.574L654.232 325.656C655.096 324.792 656.338 324.36 657.58 324.36C660.01 324.36 661.108 325.53 661.108 327.834V331.614C661.108 331.902 661.144 332.424 661.234 333H659.884C659.812 332.784 659.794 332.46 659.794 331.74H659.758C659.128 332.694 658.156 333.216 656.986 333.216ZM658.156 328.95C656.5 328.95 655.366 329.472 655.366 330.57C655.366 331.524 656.032 332.028 657.22 332.028C658.678 332.028 659.704 331.074 659.704 329.274V328.95H658.156ZM665.204 319.392V333H663.8V319.392H665.204ZM673.494 333H671.784L677.4 320.256H678.822L684.24 333H682.476L681.18 329.868H674.808L673.494 333ZM675.402 328.464H680.604L678.084 322.2H678.048L675.402 328.464ZM689.408 333.216C687.032 333.216 685.196 331.29 685.196 328.788C685.196 326.232 686.996 324.36 689.624 324.36C690.812 324.36 691.874 324.882 692.648 325.8H692.684V319.392H694.088V333H692.684V331.506H692.648C692.072 332.568 690.794 333.216 689.408 333.216ZM686.708 328.788C686.708 330.606 687.932 331.92 689.696 331.92C691.496 331.92 692.684 330.57 692.684 328.788C692.684 327.006 691.514 325.656 689.678 325.656C687.914 325.656 686.708 327.006 686.708 328.788ZM695.534 324.576H697.172L699.8 331.182H699.836L702.338 324.576H703.85L700.52 333H698.972L695.534 324.576ZM706.197 320.256C706.755 320.256 707.223 320.706 707.223 321.282C707.223 321.876 706.791 322.308 706.197 322.308C705.603 322.308 705.171 321.876 705.171 321.282C705.171 320.706 705.639 320.256 706.197 320.256ZM706.899 324.576V333H705.495V324.576H706.899ZM712.267 324.36C713.563 324.36 714.607 324.9 715.129 325.89L713.959 326.664C713.599 326.07 713.023 325.656 712.177 325.656C711.241 325.656 710.521 326.124 710.521 326.826C710.521 327.384 711.187 327.78 712.627 328.05C714.643 328.428 715.399 329.202 715.399 330.57C715.399 332.226 714.067 333.216 712.033 333.216C710.467 333.216 709.495 332.73 708.757 331.65L709.873 330.786C710.575 331.632 711.187 331.92 712.033 331.92C713.095 331.92 713.887 331.416 713.887 330.624C713.887 329.85 713.365 329.544 711.511 329.148C709.837 328.788 709.117 328.104 709.117 326.844C709.117 325.314 710.539 324.36 712.267 324.36ZM721.371 324.36C723.981 324.36 725.871 326.178 725.871 328.788C725.871 331.38 723.981 333.216 721.371 333.216C718.761 333.216 716.871 331.38 716.871 328.788C716.871 326.214 718.725 324.36 721.371 324.36ZM718.383 328.788C718.383 330.606 719.607 331.92 721.371 331.92C723.171 331.92 724.359 330.57 724.359 328.788C724.359 327.006 723.171 325.656 721.353 325.656C719.589 325.656 718.383 327.006 718.383 328.788ZM732.185 324.36C732.401 324.36 732.563 324.378 732.761 324.45L732.671 325.872C732.401 325.8 732.185 325.764 731.915 325.764C730.295 325.764 729.449 326.88 729.449 328.824V333H728.045V326.448C728.045 325.89 727.973 325.08 727.973 324.576H729.305C729.305 325.098 729.341 325.404 729.341 325.962H729.377C729.827 325.008 730.943 324.36 732.185 324.36ZM736.947 324.36C738.243 324.36 739.287 324.9 739.809 325.89L738.639 326.664C738.279 326.07 737.703 325.656 736.857 325.656C735.921 325.656 735.201 326.124 735.201 326.826C735.201 327.384 735.867 327.78 737.307 328.05C739.323 328.428 740.079 329.202 740.079 330.57C740.079 332.226 738.747 333.216 736.713 333.216C735.147 333.216 734.175 332.73 733.437 331.65L734.553 330.786C735.255 331.632 735.867 331.92 736.713 331.92C737.775 331.92 738.567 331.416 738.567 330.624C738.567 329.85 738.045 329.544 736.191 329.148C734.517 328.788 733.797 328.104 733.797 326.844C733.797 325.314 735.219 324.36 736.947 324.36Z" fill="white"/>
<g clip-path="url(#clip2_68_760)">
<path d="M615 286.5C615 285.119 616.119 284 617.5 284C618.881 284 620 285.119 620 286.5C620 287.881 618.881 289 617.5 289C616.119 289 615 287.881 615 286.5ZM627 292C627.552 292 628 291.553 628 291C628 290.447 627.552 290 627 290H617C614.794 290 613 291.794 613 294V297C613 297.553 613.448 298 614 298C614.552 298 615 297.553 615 297V294C615 292.897 615.897 292 617 292H619V297C619 297.553 619.448 298 620 298C620.552 298 621 297.553 621 297V292H627ZM632.5 284H623C622.448 284 622 284.447 622 285C622 285.553 622.448 286 623 286H632.5C633.878 286 635 287.121 635 288.5V293.5C635 294.879 633.878 296 632.5 296H632V295C632 294.447 631.552 294 631 294H629C628.448 294 628 294.447 628 295V296H624C623.448 296 623 296.447 623 297C623 297.553 623.448 298 624 298H632.5C634.981 298 637 295.981 637 293.5V288.5C637 286.019 634.981 284 632.5 284ZM633.5 305C632.243 305 631.067 305.478 630.275 306.311C629.894 306.711 629.91 307.345 630.311 307.725C630.711 308.107 631.344 308.089 631.725 307.69C632.545 306.827 634.455 306.827 635.276 307.69C635.472 307.896 635.736 308.001 636.001 308.001C636.249 308.001 636.497 307.91 636.69 307.726C637.09 307.346 637.107 306.712 636.726 306.312C635.934 305.479 634.759 305.001 633.501 305.001L633.5 305ZM625 305C623.743 305 622.567 305.478 621.775 306.311C621.394 306.711 621.41 307.345 621.811 307.725C622.211 308.107 622.845 308.089 623.225 307.69C624.045 306.827 625.955 306.827 626.776 307.69C626.972 307.896 627.236 308.001 627.501 308.001C627.749 308.001 627.997 307.91 628.19 307.726C628.59 307.346 628.607 306.712 628.226 306.312C627.434 305.479 626.259 305.001 625.001 305.001L625 305ZM616.5 305C615.243 305 614.067 305.478 613.275 306.311C612.894 306.711 612.91 307.345 613.311 307.725C613.711 308.107 614.345 308.089 614.725 307.69C615.545 306.827 617.455 306.827 618.276 307.69C618.472 307.896 618.736 308.001 619.001 308.001C619.249 308.001 619.497 307.91 619.69 307.726C620.09 307.346 620.107 306.712 619.726 306.312C618.934 305.479 617.759 305.001 616.501 305.001L616.5 305ZM618.5 302C618.5 300.895 617.605 300 616.5 300C615.395 300 614.5 300.895 614.5 302C614.5 303.105 615.395 304 616.5 304C617.605 304 618.5 303.105 618.5 302ZM627 302C627 300.895 626.105 300 625 300C623.895 300 623 300.895 623 302C623 303.105 623.895 304 625 304C626.105 304 627 303.105 627 302ZM635.5 302C635.5 300.895 634.605 300 633.5 300C632.395 300 631.5 300.895 631.5 302C631.5 303.105 632.395 304 633.5 304C634.605 304 635.5 303.105 635.5 302Z" fill="white"/>
</g>
<path d="M543.096 481.256V492.596H548.928V494H541.584V481.256H543.096ZM554.166 485.36C556.362 485.36 558.162 486.746 558.162 489.878V490.22H551.358C551.502 491.786 552.654 492.92 554.13 492.92C555.3 492.92 556.128 492.506 556.794 491.642L557.856 492.47C556.974 493.622 555.84 494.216 554.13 494.216C551.52 494.216 549.846 492.308 549.846 489.788C549.846 487.196 551.664 485.36 554.166 485.36ZM556.65 489.032C556.578 487.574 555.66 486.656 554.094 486.656C552.654 486.656 551.574 487.502 551.358 489.032H556.65ZM559.848 489.788C559.848 487.106 561.594 485.36 564.312 485.36C565.59 485.36 566.796 486.008 567.3 487.016H567.336V485.576H568.74V493.712C568.74 496.538 567.192 498.32 564.15 498.32C562.512 498.32 561.18 497.888 560.01 496.718L561.018 495.566C561.9 496.52 562.854 497.024 564.15 497.024C566.292 497.024 567.336 495.854 567.336 493.64V492.542H567.3C566.67 493.532 565.572 494.108 564.312 494.108C561.72 494.108 559.848 492.29 559.848 489.788ZM564.312 486.656C562.62 486.656 561.36 487.988 561.36 489.788C561.36 491.48 562.674 492.812 564.33 492.812C566.148 492.812 567.336 491.48 567.336 489.752C567.336 487.934 566.112 486.656 564.312 486.656ZM573.984 494.216C572.148 494.216 570.852 493.244 570.852 491.714C570.852 489.77 572.31 488.762 576.054 488.762H576.702V488.528C576.702 487.286 575.928 486.656 574.614 486.656C573.696 486.656 572.778 486.944 572.112 487.574L571.23 486.656C572.094 485.792 573.336 485.36 574.578 485.36C577.008 485.36 578.106 486.53 578.106 488.834V492.614C578.106 492.902 578.142 493.424 578.232 494H576.882C576.81 493.784 576.792 493.46 576.792 492.74H576.756C576.126 493.694 575.154 494.216 573.984 494.216ZM575.154 489.95C573.498 489.95 572.364 490.472 572.364 491.57C572.364 492.524 573.03 493.028 574.218 493.028C575.676 493.028 576.702 492.074 576.702 490.274V489.95H575.154ZM582.202 480.392V494H580.798V480.392H582.202ZM594.344 481.022C596.234 481.022 597.53 482.138 597.53 483.848C597.53 485.126 596.648 486.152 594.83 487.088L597.53 489.95L599.24 487.088H600.95L598.502 491.012L601.418 494H599.348L597.62 492.164C596.468 493.622 595.334 494.216 593.804 494.216C591.482 494.216 589.754 492.704 589.754 490.58C589.754 489.05 590.708 487.772 592.58 486.89C591.446 485.756 591.05 484.892 591.05 483.938C591.05 482.138 592.508 481.022 594.344 481.022ZM592.562 484.028C592.562 484.514 592.688 484.982 593.894 486.17C595.658 485.252 596.018 484.604 596.018 483.812C596.018 482.93 595.334 482.318 594.38 482.318C593.354 482.318 592.562 483.038 592.562 484.028ZM591.266 490.526C591.266 491.84 592.382 492.92 593.75 492.92C594.74 492.92 595.532 492.506 596.702 491.156L593.516 487.808C591.77 488.762 591.266 489.536 591.266 490.526ZM608.258 494V481.256H616.16V482.66H609.77V486.872H615.71V488.276H609.77V494H608.258ZM618.836 481.256C619.394 481.256 619.862 481.706 619.862 482.282C619.862 482.876 619.43 483.308 618.836 483.308C618.242 483.308 617.81 482.876 617.81 482.282C617.81 481.706 618.278 481.256 618.836 481.256ZM619.538 485.576V494H618.134V485.576H619.538ZM622.26 485.576H623.592C623.592 486.098 623.628 486.404 623.628 486.962H623.664C624.114 486.008 625.23 485.36 626.472 485.36C628.614 485.36 629.676 486.692 629.676 488.726V494H628.272V488.888C628.272 487.592 627.696 486.656 626.346 486.656C624.618 486.656 623.736 487.862 623.736 489.878V494H622.332V487.448C622.332 486.89 622.26 486.08 622.26 485.576ZM634.98 494.216C633.144 494.216 631.848 493.244 631.848 491.714C631.848 489.77 633.306 488.762 637.05 488.762H637.698V488.528C637.698 487.286 636.924 486.656 635.61 486.656C634.692 486.656 633.774 486.944 633.108 487.574L632.226 486.656C633.09 485.792 634.332 485.36 635.574 485.36C638.004 485.36 639.102 486.53 639.102 488.834V492.614C639.102 492.902 639.138 493.424 639.228 494H637.878C637.806 493.784 637.788 493.46 637.788 492.74H637.752C637.122 493.694 636.15 494.216 634.98 494.216ZM636.15 489.95C634.494 489.95 633.36 490.472 633.36 491.57C633.36 492.524 634.026 493.028 635.214 493.028C636.672 493.028 637.698 492.074 637.698 490.274V489.95H636.15ZM641.596 485.576H642.928C642.928 486.098 642.964 486.404 642.964 486.962H643C643.45 486.008 644.566 485.36 645.808 485.36C647.95 485.36 649.012 486.692 649.012 488.726V494H647.608V488.888C647.608 487.592 647.032 486.656 645.682 486.656C643.954 486.656 643.072 487.862 643.072 489.878V494H641.668V487.448C641.668 486.89 641.596 486.08 641.596 485.576ZM655.558 485.36C656.782 485.36 657.934 485.774 658.78 486.692L657.664 487.682C657.07 486.962 656.386 486.656 655.54 486.656C653.794 486.656 652.696 487.898 652.696 489.788C652.696 491.552 653.866 492.92 655.54 492.92C656.458 492.92 657.16 492.596 657.682 491.876L658.726 492.866C657.916 493.802 656.764 494.216 655.54 494.216C652.948 494.216 651.184 492.398 651.184 489.788C651.184 487.214 652.966 485.36 655.558 485.36ZM661.181 481.256C661.739 481.256 662.207 481.706 662.207 482.282C662.207 482.876 661.775 483.308 661.181 483.308C660.587 483.308 660.155 482.876 660.155 482.282C660.155 481.706 660.623 481.256 661.181 481.256ZM661.883 485.576V494H660.479V485.576H661.883ZM667.324 494.216C665.488 494.216 664.192 493.244 664.192 491.714C664.192 489.77 665.65 488.762 669.394 488.762H670.042V488.528C670.042 487.286 669.268 486.656 667.954 486.656C667.036 486.656 666.118 486.944 665.452 487.574L664.57 486.656C665.434 485.792 666.676 485.36 667.918 485.36C670.348 485.36 671.446 486.53 671.446 488.834V492.614C671.446 492.902 671.482 493.424 671.572 494H670.222C670.15 493.784 670.132 493.46 670.132 492.74H670.096C669.466 493.694 668.494 494.216 667.324 494.216ZM668.494 489.95C666.838 489.95 665.704 490.472 665.704 491.57C665.704 492.524 666.37 493.028 667.558 493.028C669.016 493.028 670.042 492.074 670.042 490.274V489.95H668.494ZM675.542 480.392V494H674.138V480.392H675.542ZM545.31 504.932C546.732 504.932 547.92 505.328 548.874 506.426L547.632 507.506C547.128 506.696 546.228 506.336 545.31 506.336C543.708 506.336 542.592 507.164 542.592 508.478C542.592 509.72 543.402 510.26 545.328 510.836C548.244 511.7 549.09 512.78 549.09 514.598C549.09 516.884 547.2 518.324 544.608 518.324C542.862 518.324 541.422 517.658 540.684 516.56L541.98 515.498C542.538 516.416 543.564 516.92 544.698 516.92C546.12 516.92 547.47 516.038 547.47 514.706C547.47 512.996 546.102 512.798 543.96 512.06C541.782 511.304 540.972 510.278 540.972 508.604C540.972 506.39 542.808 504.932 545.31 504.932ZM555.168 509.36C557.364 509.36 559.164 510.746 559.164 513.878V514.22H552.36C552.504 515.786 553.656 516.92 555.132 516.92C556.302 516.92 557.13 516.506 557.796 515.642L558.858 516.47C557.976 517.622 556.842 518.216 555.132 518.216C552.522 518.216 550.848 516.308 550.848 513.788C550.848 511.196 552.666 509.36 555.168 509.36ZM557.652 513.032C557.58 511.574 556.662 510.656 555.096 510.656C553.656 510.656 552.576 511.502 552.36 513.032H557.652ZM565.476 509.36C565.692 509.36 565.854 509.378 566.052 509.45L565.962 510.872C565.692 510.8 565.476 510.764 565.206 510.764C563.586 510.764 562.74 511.88 562.74 513.824V518H561.336V511.448C561.336 510.89 561.264 510.08 561.264 509.576H562.596C562.596 510.098 562.632 510.404 562.632 510.962H562.668C563.118 510.008 564.234 509.36 565.476 509.36ZM566.512 509.576H568.15L570.778 516.182H570.814L573.316 509.576H574.828L571.498 518H569.95L566.512 509.576ZM577.176 505.256C577.734 505.256 578.202 505.706 578.202 506.282C578.202 506.876 577.77 507.308 577.176 507.308C576.582 507.308 576.15 506.876 576.15 506.282C576.15 505.706 576.618 505.256 577.176 505.256ZM577.878 509.576V518H576.474V509.576H577.878ZM584.56 509.36C585.784 509.36 586.936 509.774 587.782 510.692L586.666 511.682C586.072 510.962 585.388 510.656 584.542 510.656C582.796 510.656 581.698 511.898 581.698 513.788C581.698 515.552 582.868 516.92 584.542 516.92C585.46 516.92 586.162 516.596 586.684 515.876L587.728 516.866C586.918 517.802 585.766 518.216 584.542 518.216C581.95 518.216 580.186 516.398 580.186 513.788C580.186 511.214 581.968 509.36 584.56 509.36ZM593.189 509.36C595.385 509.36 597.185 510.746 597.185 513.878V514.22H590.381C590.525 515.786 591.677 516.92 593.153 516.92C594.323 516.92 595.151 516.506 595.817 515.642L596.879 516.47C595.997 517.622 594.863 518.216 593.153 518.216C590.543 518.216 588.869 516.308 588.869 513.788C588.869 511.196 590.687 509.36 593.189 509.36ZM595.673 513.032C595.601 511.574 594.683 510.656 593.117 510.656C591.677 510.656 590.597 511.502 590.381 513.032H595.673ZM606.131 518H604.619V505.256H608.489C611.207 505.256 612.863 506.462 612.863 508.748C612.863 511.07 611.117 512.276 608.759 512.276H606.131V518ZM606.131 506.66V510.872H608.759C610.289 510.872 611.243 510.08 611.243 508.766C611.243 507.452 610.307 506.66 608.759 506.66H606.131ZM619.177 509.36C619.393 509.36 619.555 509.378 619.753 509.45L619.663 510.872C619.393 510.8 619.177 510.764 618.907 510.764C617.287 510.764 616.441 511.88 616.441 513.824V518H615.037V511.448C615.037 510.89 614.965 510.08 614.965 509.576H616.297C616.297 510.098 616.333 510.404 616.333 510.962H616.369C616.819 510.008 617.935 509.36 619.177 509.36ZM625.063 509.36C627.673 509.36 629.563 511.178 629.563 513.788C629.563 516.38 627.673 518.216 625.063 518.216C622.453 518.216 620.563 516.38 620.563 513.788C620.563 511.214 622.417 509.36 625.063 509.36ZM622.075 513.788C622.075 515.606 623.299 516.92 625.063 516.92C626.863 516.92 628.051 515.57 628.051 513.788C628.051 512.006 626.863 510.656 625.045 510.656C623.281 510.656 622.075 512.006 622.075 513.788ZM630.584 509.576H632.222L634.85 516.182H634.886L637.388 509.576H638.9L635.57 518H634.022L630.584 509.576ZM641.248 505.256C641.806 505.256 642.274 505.706 642.274 506.282C642.274 506.876 641.842 507.308 641.248 507.308C640.654 507.308 640.222 506.876 640.222 506.282C640.222 505.706 640.69 505.256 641.248 505.256ZM641.95 509.576V518H640.546V509.576H641.95ZM648.47 518.216C646.094 518.216 644.258 516.29 644.258 513.788C644.258 511.232 646.058 509.36 648.686 509.36C649.874 509.36 650.936 509.882 651.71 510.8H651.746V504.392H653.15V518H651.746V516.506H651.71C651.134 517.568 649.856 518.216 648.47 518.216ZM645.77 513.788C645.77 515.606 646.994 516.92 648.758 516.92C650.558 516.92 651.746 515.57 651.746 513.788C651.746 512.006 650.576 510.656 648.74 510.656C646.976 510.656 645.77 512.006 645.77 513.788ZM659.582 509.36C661.778 509.36 663.578 510.746 663.578 513.878V514.22H656.774C656.918 515.786 658.07 516.92 659.546 516.92C660.716 516.92 661.544 516.506 662.21 515.642L663.272 516.47C662.39 517.622 661.256 518.216 659.546 518.216C656.936 518.216 655.262 516.308 655.262 513.788C655.262 511.196 657.08 509.36 659.582 509.36ZM662.066 513.032C661.994 511.574 661.076 510.656 659.51 510.656C658.07 510.656 656.99 511.502 656.774 513.032H662.066ZM669.89 509.36C670.106 509.36 670.268 509.378 670.466 509.45L670.376 510.872C670.106 510.8 669.89 510.764 669.62 510.764C668 510.764 667.154 511.88 667.154 513.824V518H665.75V511.448C665.75 510.89 665.678 510.08 665.678 509.576H667.01C667.01 510.098 667.046 510.404 667.046 510.962H667.082C667.532 510.008 668.648 509.36 669.89 509.36ZM674.652 509.36C675.948 509.36 676.992 509.9 677.514 510.89L676.344 511.664C675.984 511.07 675.408 510.656 674.562 510.656C673.626 510.656 672.906 511.124 672.906 511.826C672.906 512.384 673.572 512.78 675.012 513.05C677.028 513.428 677.784 514.202 677.784 515.57C677.784 517.226 676.452 518.216 674.418 518.216C672.852 518.216 671.88 517.73 671.142 516.65L672.258 515.786C672.96 516.632 673.572 516.92 674.418 516.92C675.48 516.92 676.272 516.416 676.272 515.624C676.272 514.85 675.75 514.544 673.896 514.148C672.222 513.788 671.502 513.104 671.502 511.844C671.502 510.314 672.924 509.36 674.652 509.36Z" fill="white"/>
<g clip-path="url(#clip3_68_760)">
<path d="M561.183 458.904L561.72 459.441L563.134 458.027L557.822 452.715L556.408 454.129L556.945 454.666L552.576 459.035L552.039 458.498L550.625 459.912L555.937 465.224L557.351 463.81L556.814 463.273L558.337 461.75L562.562 465.976L563.976 464.562L559.751 460.336L561.183 458.904ZM553.99 460.45L558.359 456.081L559.768 457.49L555.399 461.859L553.99 460.45ZM561 444H558V442H556V444H548V442H546V444H543C541.346 444 540 445.346 540 447V466H553.883L551.883 464H542V452H562V454.065L564 456.065V447C564 445.346 562.654 444 561 444ZM562 450H542V447C542 446.449 542.448 446 543 446H561C561.552 446 562 446.449 562 447V450Z" fill="white"/>
</g>
<path d="M279.326 609.932C281.27 609.932 282.89 610.688 283.826 611.93L282.512 612.884C281.738 611.858 280.55 611.336 279.326 611.336C276.518 611.336 274.466 613.802 274.466 616.628C274.466 619.562 276.446 621.92 279.326 621.92C280.874 621.92 282.098 621.308 283.016 620.138L284.15 621.092C282.998 622.622 281.36 623.324 279.326 623.324C275.564 623.324 272.846 620.39 272.846 616.628C272.846 612.866 275.564 609.932 279.326 609.932ZM290.02 614.36C292.63 614.36 294.52 616.178 294.52 618.788C294.52 621.38 292.63 623.216 290.02 623.216C287.41 623.216 285.52 621.38 285.52 618.788C285.52 616.214 287.374 614.36 290.02 614.36ZM287.032 618.788C287.032 620.606 288.256 621.92 290.02 621.92C291.82 621.92 293.008 620.57 293.008 618.788C293.008 617.006 291.82 615.656 290.002 615.656C288.238 615.656 287.032 617.006 287.032 618.788ZM296.621 614.576H297.953C297.953 615.098 297.989 615.404 297.989 615.962H298.025C298.475 615.008 299.573 614.36 300.851 614.36C302.003 614.36 302.939 614.756 303.497 615.962C304.163 614.864 304.973 614.36 306.179 614.36C308.357 614.36 309.365 615.512 309.365 617.798V623H307.961V617.906C307.961 616.466 307.259 615.656 305.909 615.656C304.649 615.656 303.731 616.754 303.731 618.086V623H302.327V618.122C302.327 616.484 301.913 615.656 300.689 615.656C298.997 615.656 298.097 616.844 298.097 618.878V623H296.693V616.448C296.693 615.89 296.621 615.08 296.621 614.576ZM311.949 614.576H313.281C313.281 615.098 313.317 615.404 313.317 615.962H313.353C313.803 615.008 314.901 614.36 316.179 614.36C317.331 614.36 318.267 614.756 318.825 615.962C319.491 614.864 320.301 614.36 321.507 614.36C323.685 614.36 324.693 615.512 324.693 617.798V623H323.289V617.906C323.289 616.466 322.587 615.656 321.237 615.656C319.977 615.656 319.059 616.754 319.059 618.086V623H317.655V618.122C317.655 616.484 317.241 615.656 316.017 615.656C314.325 615.656 313.425 616.844 313.425 618.878V623H312.021V616.448C312.021 615.89 311.949 615.08 311.949 614.576ZM327.35 619.85V614.576H328.754V619.688C328.754 620.966 329.33 621.92 330.68 621.92C332.426 621.92 333.29 620.66 333.29 618.752V614.576H334.694V621.128C334.694 621.65 334.766 622.55 334.766 623H333.434C333.434 622.406 333.398 622.172 333.398 621.614H333.362C332.93 622.55 331.832 623.216 330.536 623.216C328.448 623.216 327.35 621.884 327.35 619.85ZM337.28 614.576H338.612C338.612 615.098 338.648 615.404 338.648 615.962H338.684C339.134 615.008 340.25 614.36 341.492 614.36C343.634 614.36 344.696 615.692 344.696 617.726V623H343.292V617.888C343.292 616.592 342.716 615.656 341.366 615.656C339.638 615.656 338.756 616.862 338.756 618.878V623H337.352V616.448C337.352 615.89 337.28 615.08 337.28 614.576ZM348.181 610.256C348.739 610.256 349.207 610.706 349.207 611.282C349.207 611.876 348.775 612.308 348.181 612.308C347.587 612.308 347.155 611.876 347.155 611.282C347.155 610.706 347.623 610.256 348.181 610.256ZM348.883 614.576V623H347.479V614.576H348.883ZM352.398 615.764H350.562V614.576H352.398V612.182H353.802V614.576H356.286V615.764H353.802V620.264C353.802 621.614 354.252 621.92 355.062 621.92C355.476 621.92 355.944 621.83 356.304 621.632L356.358 622.91C355.854 623.126 355.242 623.216 354.72 623.216C353.1 623.216 352.398 622.568 352.398 620.48V615.764ZM356.854 614.576H358.492L361.102 621.182H361.138L363.64 614.576H365.17L361.048 625.07C360.364 626.816 359.59 627.32 358.294 627.32C357.826 627.32 357.412 627.266 357.034 627.104L357.214 625.88C357.502 626.006 357.826 626.024 358.204 626.024C358.906 626.024 359.374 625.7 359.716 624.782L360.346 623.054L356.854 614.576ZM375.803 623H371.951V610.256H375.839C378.413 610.256 380.069 611.354 380.069 613.388C380.069 614.846 379.205 615.854 377.837 616.268V616.304C379.529 616.466 380.717 617.78 380.717 619.436C380.717 621.866 378.719 623 375.803 623ZM373.463 621.596H376.091C377.711 621.596 379.097 620.858 379.097 619.382C379.097 617.852 377.927 617.06 376.073 617.06H373.463V621.596ZM373.463 615.656H375.623C377.513 615.656 378.449 615.008 378.449 613.586C378.449 612.308 377.513 611.66 375.785 611.66H373.463V615.656ZM383.037 619.85V614.576H384.441V619.688C384.441 620.966 385.017 621.92 386.367 621.92C388.113 621.92 388.977 620.66 388.977 618.752V614.576H390.381V621.128C390.381 621.65 390.453 622.55 390.453 623H389.121C389.121 622.406 389.085 622.172 389.085 621.614H389.049C388.617 622.55 387.519 623.216 386.223 623.216C384.135 623.216 383.037 621.884 383.037 619.85ZM393.867 610.256C394.425 610.256 394.893 610.706 394.893 611.282C394.893 611.876 394.461 612.308 393.867 612.308C393.273 612.308 392.841 611.876 392.841 611.282C392.841 610.706 393.309 610.256 393.867 610.256ZM394.569 614.576V623H393.165V614.576H394.569ZM398.893 609.392V623H397.489V609.392H398.893ZM405.413 623.216C403.037 623.216 401.201 621.29 401.201 618.788C401.201 616.232 403.001 614.36 405.629 614.36C406.817 614.36 407.879 614.882 408.653 615.8H408.689V609.392H410.093V623H408.689V621.506H408.653C408.077 622.568 406.799 623.216 405.413 623.216ZM402.713 618.788C402.713 620.606 403.937 621.92 405.701 621.92C407.501 621.92 408.689 620.57 408.689 618.788C408.689 617.006 407.519 615.656 405.683 615.656C403.919 615.656 402.713 617.006 402.713 618.788ZM416.525 614.36C418.721 614.36 420.521 615.746 420.521 618.878V619.22H413.717C413.861 620.786 415.013 621.92 416.489 621.92C417.659 621.92 418.487 621.506 419.153 620.642L420.215 621.47C419.333 622.622 418.199 623.216 416.489 623.216C413.879 623.216 412.205 621.308 412.205 618.788C412.205 616.196 414.023 614.36 416.525 614.36ZM419.009 618.032C418.937 616.574 418.019 615.656 416.453 615.656C415.013 615.656 413.933 616.502 413.717 618.032H419.009ZM426.833 614.36C427.049 614.36 427.211 614.378 427.409 614.45L427.319 615.872C427.049 615.8 426.833 615.764 426.563 615.764C424.943 615.764 424.097 616.88 424.097 618.824V623H422.693V616.448C422.693 615.89 422.621 615.08 422.621 614.576H423.953C423.953 615.098 423.989 615.404 423.989 615.962H424.025C424.475 615.008 425.591 614.36 426.833 614.36ZM431.595 614.36C432.891 614.36 433.935 614.9 434.457 615.89L433.287 616.664C432.927 616.07 432.351 615.656 431.505 615.656C430.569 615.656 429.849 616.124 429.849 616.826C429.849 617.384 430.515 617.78 431.955 618.05C433.971 618.428 434.727 619.202 434.727 620.57C434.727 622.226 433.395 623.216 431.361 623.216C429.795 623.216 428.823 622.73 428.085 621.65L429.201 620.786C429.903 621.632 430.515 621.92 431.361 621.92C432.423 621.92 433.215 621.416 433.215 620.624C433.215 619.85 432.693 619.544 430.839 619.148C429.165 618.788 428.445 618.104 428.445 616.844C428.445 615.314 429.867 614.36 431.595 614.36Z" fill="white"/>
<g clip-path="url(#clip4_68_760)">
<path d="M347.5 576C349.43 576 351 574.43 351 572.5C351 570.57 349.43 569 347.5 569C345.57 569 344 570.57 344 572.5C344 574.43 345.57 576 347.5 576ZM347.5 571C348.327 571 349 571.673 349 572.5C349 573.327 348.327 574 347.5 574C346.673 574 346 573.327 346 572.5C346 571.673 346.673 571 347.5 571ZM347 579C345.346 579 344 580.346 344 582C344 582.553 343.552 583 343 583C342.448 583 342 582.553 342 582C342 579.243 344.243 577 347 577C347.552 577 348 577.447 348 578C348 578.553 347.552 579 347 579ZM354 586C354 586.553 353.552 587 353 587H352C350.346 587 349 588.346 349 590C349 590.553 348.552 591 348 591C347.448 591 347 590.553 347 590C347 587.243 349.243 585 352 585H353C353.552 585 354 585.447 354 586ZM357.5 576C359.43 576 361 574.43 361 572.5C361 570.57 359.43 569 357.5 569C355.57 569 354 570.57 354 572.5C354 574.43 355.57 576 357.5 576ZM357.5 571C358.327 571 359 571.673 359 572.5C359 573.327 358.327 574 357.5 574C356.673 574 356 573.327 356 572.5C356 571.673 356.673 571 357.5 571ZM358 577C359.779 577 361.439 577.958 362.331 579.499C362.607 579.978 362.444 580.589 361.966 580.865C361.809 580.957 361.636 581 361.466 581C361.121 581 360.785 580.821 360.599 580.501C360.064 579.575 359.068 579 358 579C357.448 579 357 578.553 357 578C357 577.447 357.448 577 358 577ZM366 588C366 588.553 365.552 589 365 589H362V592C362 592.553 361.552 593 361 593C360.448 593 360 592.553 360 592V589H357C356.448 589 356 588.553 356 588C356 587.447 356.448 587 357 587H360V584C360 583.447 360.448 583 361 583C361.552 583 362 583.447 362 584V587H365C365.552 587 366 587.447 366 588ZM352.5 577C350.57 577 349 578.57 349 580.5C349 582.43 350.57 584 352.5 584C354.43 584 356 582.43 356 580.5C356 578.57 354.43 577 352.5 577ZM352.5 582C351.673 582 351 581.327 351 580.5C351 579.673 351.673 579 352.5 579C353.327 579 354 579.673 354 580.5C354 581.327 353.327 582 352.5 582Z" fill="white"/>
</g>
<path d="M45.5994 480.932C47.5434 480.932 49.1634 481.688 50.0994 482.93L48.7854 483.884C48.0114 482.858 46.8234 482.336 45.5994 482.336C42.7914 482.336 40.7394 484.802 40.7394 487.628C40.7394 490.562 42.7194 492.92 45.5994 492.92C47.1474 492.92 48.3714 492.308 49.2894 491.138L50.4234 492.092C49.2714 493.622 47.6334 494.324 45.5994 494.324C41.8374 494.324 39.1194 491.39 39.1194 487.628C39.1194 483.866 41.8374 480.932 45.5994 480.932ZM53.8093 480.392V494H52.4053V480.392H53.8093ZM60.6175 485.36C63.2275 485.36 65.1175 487.178 65.1175 489.788C65.1175 492.38 63.2275 494.216 60.6175 494.216C58.0075 494.216 56.1175 492.38 56.1175 489.788C56.1175 487.214 57.9715 485.36 60.6175 485.36ZM57.6295 489.788C57.6295 491.606 58.8535 492.92 60.6175 492.92C62.4175 492.92 63.6055 491.57 63.6055 489.788C63.6055 488.006 62.4175 486.656 60.5995 486.656C58.8355 486.656 57.6295 488.006 57.6295 489.788ZM67.291 490.85V485.576H68.695V490.688C68.695 491.966 69.271 492.92 70.621 492.92C72.367 492.92 73.231 491.66 73.231 489.752V485.576H74.635V492.128C74.635 492.65 74.707 493.55 74.707 494H73.375C73.375 493.406 73.339 493.172 73.339 492.614H73.303C72.871 493.55 71.773 494.216 70.477 494.216C68.389 494.216 67.291 492.884 67.291 490.85ZM81.0189 494.216C78.6429 494.216 76.8069 492.29 76.8069 489.788C76.8069 487.232 78.6069 485.36 81.2349 485.36C82.4229 485.36 83.4849 485.882 84.2589 486.8H84.2949V480.392H85.6989V494H84.2949V492.506H84.2589C83.6829 493.568 82.4049 494.216 81.0189 494.216ZM78.3189 489.788C78.3189 491.606 79.5429 492.92 81.3069 492.92C83.1069 492.92 84.2949 491.57 84.2949 489.788C84.2949 488.006 83.1249 486.656 81.2889 486.656C79.5249 486.656 78.3189 488.006 78.3189 489.788ZM99.3006 480.932C101.245 480.932 102.865 481.688 103.801 482.93L102.487 483.884C101.713 482.858 100.525 482.336 99.3006 482.336C96.4926 482.336 94.4406 484.802 94.4406 487.628C94.4406 490.562 96.4206 492.92 99.3006 492.92C100.849 492.92 102.073 492.308 102.991 491.138L104.125 492.092C102.973 493.622 101.335 494.324 99.3006 494.324C95.5386 494.324 92.8206 491.39 92.8206 487.628C92.8206 483.866 95.5386 480.932 99.3006 480.932ZM109.994 485.36C112.604 485.36 114.494 487.178 114.494 489.788C114.494 492.38 112.604 494.216 109.994 494.216C107.384 494.216 105.494 492.38 105.494 489.788C105.494 487.214 107.348 485.36 109.994 485.36ZM107.006 489.788C107.006 491.606 108.23 492.92 109.994 492.92C111.794 492.92 112.982 491.57 112.982 489.788C112.982 488.006 111.794 486.656 109.976 486.656C108.212 486.656 107.006 488.006 107.006 489.788ZM116.596 485.576H117.928C117.928 486.098 117.964 486.404 117.964 486.962H118C118.45 486.008 119.548 485.36 120.826 485.36C121.978 485.36 122.914 485.756 123.472 486.962C124.138 485.864 124.948 485.36 126.154 485.36C128.332 485.36 129.34 486.512 129.34 488.798V494H127.936V488.906C127.936 487.466 127.234 486.656 125.884 486.656C124.624 486.656 123.706 487.754 123.706 489.086V494H122.302V489.122C122.302 487.484 121.888 486.656 120.664 486.656C118.972 486.656 118.072 487.844 118.072 489.878V494H116.668V487.448C116.668 486.89 116.596 486.08 116.596 485.576ZM131.924 498.104V485.576H133.328V486.8H133.364C134.156 485.882 135.164 485.36 136.388 485.36C139.034 485.36 140.816 487.232 140.816 489.788C140.816 492.29 138.98 494.216 136.604 494.216C135.182 494.216 133.922 493.532 133.364 492.506H133.328V498.104H131.924ZM133.328 489.788C133.328 491.606 134.552 492.92 136.316 492.92C138.116 492.92 139.304 491.57 139.304 489.788C139.304 488.006 138.116 486.656 136.298 486.656C134.534 486.656 133.328 488.006 133.328 489.788ZM143 490.85V485.576H144.404V490.688C144.404 491.966 144.98 492.92 146.33 492.92C148.076 492.92 148.94 491.66 148.94 489.752V485.576H150.344V492.128C150.344 492.65 150.416 493.55 150.416 494H149.084C149.084 493.406 149.048 493.172 149.048 492.614H149.012C148.58 493.55 147.482 494.216 146.186 494.216C144.098 494.216 143 492.884 143 490.85ZM153.722 486.764H151.886V485.576H153.722V483.182H155.126V485.576H157.61V486.764H155.126V491.264C155.126 492.614 155.576 492.92 156.386 492.92C156.8 492.92 157.268 492.83 157.628 492.632L157.682 493.91C157.178 494.126 156.566 494.216 156.044 494.216C154.424 494.216 153.722 493.568 153.722 491.48V486.764ZM163.164 485.36C165.36 485.36 167.16 486.746 167.16 489.878V490.22H160.356C160.5 491.786 161.652 492.92 163.128 492.92C164.298 492.92 165.126 492.506 165.792 491.642L166.854 492.47C165.972 493.622 164.838 494.216 163.128 494.216C160.518 494.216 158.844 492.308 158.844 489.788C158.844 487.196 160.662 485.36 163.164 485.36ZM165.648 489.032C165.576 487.574 164.658 486.656 163.092 486.656C161.652 486.656 160.572 487.502 160.356 489.032H165.648ZM95.721 518H94.209V505.256H98.079C100.797 505.256 102.453 506.462 102.453 508.748C102.453 511.07 100.707 512.276 98.349 512.276H95.721V518ZM95.721 506.66V510.872H98.349C99.879 510.872 100.833 510.08 100.833 508.766C100.833 507.452 99.897 506.66 98.349 506.66H95.721ZM108.767 509.36C108.983 509.36 109.145 509.378 109.343 509.45L109.253 510.872C108.983 510.8 108.767 510.764 108.497 510.764C106.877 510.764 106.031 511.88 106.031 513.824V518H104.627V511.448C104.627 510.89 104.555 510.08 104.555 509.576H105.887C105.887 510.098 105.923 510.404 105.923 510.962H105.959C106.409 510.008 107.525 509.36 108.767 509.36ZM114.653 509.36C117.263 509.36 119.153 511.178 119.153 513.788C119.153 516.38 117.263 518.216 114.653 518.216C112.043 518.216 110.153 516.38 110.153 513.788C110.153 511.214 112.007 509.36 114.653 509.36ZM111.665 513.788C111.665 515.606 112.889 516.92 114.653 516.92C116.453 516.92 117.641 515.57 117.641 513.788C117.641 512.006 116.453 510.656 114.635 510.656C112.871 510.656 111.665 512.006 111.665 513.788ZM120.174 509.576H121.812L124.44 516.182H124.476L126.978 509.576H128.49L125.16 518H123.612L120.174 509.576ZM130.838 505.256C131.396 505.256 131.864 505.706 131.864 506.282C131.864 506.876 131.432 507.308 130.838 507.308C130.244 507.308 129.812 506.876 129.812 506.282C129.812 505.706 130.28 505.256 130.838 505.256ZM131.54 509.576V518H130.136V509.576H131.54ZM138.06 518.216C135.684 518.216 133.848 516.29 133.848 513.788C133.848 511.232 135.648 509.36 138.276 509.36C139.464 509.36 140.526 509.882 141.3 510.8H141.336V504.392H142.74V518H141.336V516.506H141.3C140.724 517.568 139.446 518.216 138.06 518.216ZM135.36 513.788C135.36 515.606 136.584 516.92 138.348 516.92C140.148 516.92 141.336 515.57 141.336 513.788C141.336 512.006 140.166 510.656 138.33 510.656C136.566 510.656 135.36 512.006 135.36 513.788ZM149.172 509.36C151.368 509.36 153.168 510.746 153.168 513.878V514.22H146.364C146.508 515.786 147.66 516.92 149.136 516.92C150.306 516.92 151.134 516.506 151.8 515.642L152.862 516.47C151.98 517.622 150.846 518.216 149.136 518.216C146.526 518.216 144.852 516.308 144.852 513.788C144.852 511.196 146.67 509.36 149.172 509.36ZM151.656 513.032C151.584 511.574 150.666 510.656 149.1 510.656C147.66 510.656 146.58 511.502 146.364 513.032H151.656ZM159.48 509.36C159.696 509.36 159.858 509.378 160.056 509.45L159.966 510.872C159.696 510.8 159.48 510.764 159.21 510.764C157.59 510.764 156.744 511.88 156.744 513.824V518H155.34V511.448C155.34 510.89 155.268 510.08 155.268 509.576H156.6C156.6 510.098 156.636 510.404 156.636 510.962H156.672C157.122 510.008 158.238 509.36 159.48 509.36ZM164.242 509.36C165.538 509.36 166.582 509.9 167.104 510.89L165.934 511.664C165.574 511.07 164.998 510.656 164.152 510.656C163.216 510.656 162.496 511.124 162.496 511.826C162.496 512.384 163.162 512.78 164.602 513.05C166.618 513.428 167.374 514.202 167.374 515.57C167.374 517.226 166.042 518.216 164.008 518.216C162.442 518.216 161.47 517.73 160.732 516.65L161.848 515.786C162.55 516.632 163.162 516.92 164.008 516.92C165.07 516.92 165.862 516.416 165.862 515.624C165.862 514.85 165.34 514.544 163.486 514.148C161.812 513.788 161.092 513.104 161.092 511.844C161.092 510.314 162.514 509.36 164.242 509.36Z" fill="white"/>
<g clip-path="url(#clip5_68_760)">
<path d="M168 464C168 465.105 167.105 466 166 466C165.262 466 164.624 465.595 164.277 465H163C161.346 465 160 463.654 160 462V457C160 456.447 160.448 456 161 456C161.552 456 162 456.447 162 457V462C162 462.552 162.449 463 163 463H164.277C164.623 462.405 165.261 462 166 462C167.105 462 168 462.895 168 464ZM157 462.277V457C157 456.447 156.552 456 156 456C155.448 456 155 456.447 155 457V462.277C154.405 462.623 154 463.261 154 464C154 465.105 154.895 466 156 466C157.105 466 158 465.105 158 464C158 463.262 157.595 462.624 157 462.277ZM151 456C150.448 456 150 456.447 150 457V462C150 462.552 149.551 463 149 463H147.723C147.377 462.405 146.739 462 146 462C144.895 462 144 462.895 144 464C144 465.105 144.895 466 146 466C146.738 466 147.376 465.595 147.723 465H149C150.654 465 152 463.654 152 462V457C152 456.447 151.552 456 151 456ZM165 453.454C165 454.433 164.713 455.378 164.17 456.186C163.862 456.645 163.984 457.266 164.442 457.574C164.901 457.884 165.523 457.759 165.83 457.302C166.595 456.162 166.999 454.832 166.999 453.454C166.999 450.17 164.665 447.321 161.448 446.68C161.175 446.625 160.952 446.455 160.838 446.212C159.411 443.201 156.107 441.52 152.799 442.127C149.787 442.678 147.425 445.083 146.922 448.111C146.774 449.005 146.784 449.899 146.952 450.77C147 451.019 146.891 451.3 146.667 451.504C145.607 452.467 145 453.84 145 455.272C145 456.527 145.46 457.733 146.297 458.667C146.495 458.888 146.768 459 147.043 459C147.28 459 147.519 458.916 147.71 458.745C148.122 458.377 148.156 457.744 147.788 457.333C147.28 456.767 147.001 456.034 147.001 455.272C147.001 454.403 147.37 453.569 148.014 452.985C148.751 452.314 149.097 451.32 148.918 450.389C148.794 449.753 148.788 449.097 148.897 448.439C149.257 446.274 151.01 444.487 153.161 444.093C155.611 443.648 157.975 444.839 159.033 447.069C159.422 447.888 160.16 448.462 161.059 448.64C163.343 449.096 165.001 451.12 165.001 453.453L165 453.454Z" fill="white"/>
</g>
<path d="M8.28889 319.932C10.2329 319.932 11.8529 320.688 12.7889 321.93L11.4749 322.884C10.7009 321.858 9.51289 321.336 8.28889 321.336C5.48089 321.336 3.42889 323.802 3.42889 326.628C3.42889 329.562 5.40889 331.92 8.28889 331.92C9.83689 331.92 11.0609 331.308 11.9789 330.138L13.1129 331.092C11.9609 332.622 10.3229 333.324 8.28889 333.324C4.52689 333.324 1.80889 330.39 1.80889 326.628C1.80889 322.866 4.52689 319.932 8.28889 319.932ZM18.9827 324.36C21.5927 324.36 23.4827 326.178 23.4827 328.788C23.4827 331.38 21.5927 333.216 18.9827 333.216C16.3727 333.216 14.4827 331.38 14.4827 328.788C14.4827 326.214 16.3367 324.36 18.9827 324.36ZM15.9947 328.788C15.9947 330.606 17.2187 331.92 18.9827 331.92C20.7827 331.92 21.9707 330.57 21.9707 328.788C21.9707 327.006 20.7827 325.656 18.9647 325.656C17.2007 325.656 15.9947 327.006 15.9947 328.788ZM29.7962 324.36C30.0122 324.36 30.1742 324.378 30.3722 324.45L30.2822 325.872C30.0122 325.8 29.7962 325.764 29.5262 325.764C27.9062 325.764 27.0602 326.88 27.0602 328.824V333H25.6562V326.448C25.6562 325.89 25.5842 325.08 25.5842 324.576H26.9162C26.9162 325.098 26.9522 325.404 26.9522 325.962H26.9882C27.4382 325.008 28.5542 324.36 29.7962 324.36ZM31.9123 337.104V324.576H33.3163V325.8H33.3523C34.1443 324.882 35.1523 324.36 36.3763 324.36C39.0223 324.36 40.8043 326.232 40.8043 328.788C40.8043 331.29 38.9683 333.216 36.5923 333.216C35.1703 333.216 33.9103 332.532 33.3523 331.506H33.3163V337.104H31.9123ZM33.3163 328.788C33.3163 330.606 34.5403 331.92 36.3043 331.92C38.1043 331.92 39.2923 330.57 39.2923 328.788C39.2923 327.006 38.1043 325.656 36.2863 325.656C34.5223 325.656 33.3163 327.006 33.3163 328.788ZM47.0023 324.36C49.6123 324.36 51.5023 326.178 51.5023 328.788C51.5023 331.38 49.6123 333.216 47.0023 333.216C44.3923 333.216 42.5023 331.38 42.5023 328.788C42.5023 326.214 44.3563 324.36 47.0023 324.36ZM44.0143 328.788C44.0143 330.606 45.2383 331.92 47.0023 331.92C48.8023 331.92 49.9903 330.57 49.9903 328.788C49.9903 327.006 48.8023 325.656 46.9843 325.656C45.2203 325.656 44.0143 327.006 44.0143 328.788ZM57.8158 324.36C58.0318 324.36 58.1938 324.378 58.3918 324.45L58.3018 325.872C58.0318 325.8 57.8158 325.764 57.5458 325.764C55.9258 325.764 55.0798 326.88 55.0798 328.824V333H53.6758V326.448C53.6758 325.89 53.6038 325.08 53.6038 324.576H54.9358C54.9358 325.098 54.9718 325.404 54.9718 325.962H55.0078C55.4578 325.008 56.5738 324.36 57.8158 324.36ZM62.6499 333.216C60.8139 333.216 59.5179 332.244 59.5179 330.714C59.5179 328.77 60.9759 327.762 64.7199 327.762H65.3679V327.528C65.3679 326.286 64.5939 325.656 63.2799 325.656C62.3619 325.656 61.4439 325.944 60.7779 326.574L59.8959 325.656C60.7599 324.792 62.0019 324.36 63.2439 324.36C65.6739 324.36 66.7719 325.53 66.7719 327.834V331.614C66.7719 331.902 66.8079 332.424 66.8979 333H65.5479C65.4759 332.784 65.4579 332.46 65.4579 331.74H65.4219C64.7919 332.694 63.8199 333.216 62.6499 333.216ZM63.8199 328.95C62.1639 328.95 61.0299 329.472 61.0299 330.57C61.0299 331.524 61.6959 332.028 62.8839 332.028C64.3419 332.028 65.3679 331.074 65.3679 329.274V328.95H63.8199ZM70.0579 325.764H68.2219V324.576H70.0579V322.182H71.4619V324.576H73.9459V325.764H71.4619V330.264C71.4619 331.614 71.9119 331.92 72.7219 331.92C73.1359 331.92 73.6039 331.83 73.9639 331.632L74.0179 332.91C73.5139 333.126 72.9019 333.216 72.3799 333.216C70.7599 333.216 70.0579 332.568 70.0579 330.48V325.764ZM79.5 324.36C81.696 324.36 83.496 325.746 83.496 328.878V329.22H76.692C76.836 330.786 77.988 331.92 79.464 331.92C80.634 331.92 81.462 331.506 82.128 330.642L83.19 331.47C82.308 332.622 81.174 333.216 79.464 333.216C76.854 333.216 75.18 331.308 75.18 328.788C75.18 326.196 76.998 324.36 79.5 324.36ZM81.984 328.032C81.912 326.574 80.994 325.656 79.428 325.656C77.988 325.656 76.908 326.502 76.692 328.032H81.984ZM88.2419 324.36C89.5379 324.36 90.5819 324.9 91.1039 325.89L89.9339 326.664C89.5739 326.07 88.9979 325.656 88.1519 325.656C87.2159 325.656 86.4959 326.124 86.4959 326.826C86.4959 327.384 87.1619 327.78 88.6019 328.05C90.6179 328.428 91.3739 329.202 91.3739 330.57C91.3739 332.226 90.0419 333.216 88.0079 333.216C86.4419 333.216 85.4699 332.73 84.7319 331.65L85.8479 330.786C86.5499 331.632 87.1619 331.92 88.0079 331.92C89.0699 331.92 89.8619 331.416 89.8619 330.624C89.8619 329.85 89.3399 329.544 87.4859 329.148C85.8119 328.788 85.0919 328.104 85.0919 326.844C85.0919 325.314 86.5139 324.36 88.2419 324.36Z" fill="white"/>
<g clip-path="url(#clip6_68_760)">
<path d="M78 307C78 307.553 77.553 308 77 308H73C70.243 308 68 305.757 68 303V289C68 286.243 70.243 284 73 284H79C81.757 284 84 286.243 84 289V293C84 293.553 83.553 294 83 294C82.447 294 82 293.553 82 293V289C82 287.346 80.654 286 79 286H73C71.346 286 70 287.346 70 289V303C70 304.654 71.346 306 73 306H77C77.553 306 78 306.447 78 307ZM74 297H73C72.447 297 72 297.447 72 298C72 298.553 72.447 299 73 299H74C74.553 299 75 298.553 75 298C75 297.447 74.553 297 74 297ZM79 297H78C77.447 297 77 297.447 77 298C77 298.553 77.447 299 78 299H79C79.553 299 80 298.553 80 298C80 297.447 79.553 297 79 297ZM74 301H73C72.447 301 72 301.447 72 302C72 302.553 72.447 303 73 303H74C74.553 303 75 302.553 75 302C75 301.447 74.553 301 74 301ZM74 289H73C72.447 289 72 289.447 72 290C72 290.553 72.447 291 73 291H74C74.553 291 75 290.553 75 290C75 289.447 74.553 289 74 289ZM79 289H78C77.447 289 77 289.447 77 290C77 290.553 77.447 291 78 291H79C79.553 291 80 290.553 80 290C80 289.447 79.553 289 79 289ZM74 293H73C72.447 293 72 293.447 72 294C72 294.553 72.447 295 73 295H74C74.553 295 75 294.553 75 294C75 293.447 74.553 293 74 293ZM79 293H78C77.447 293 77 293.447 77 294C77 294.553 77.447 295 78 295H79C79.553 295 80 294.553 80 294C80 293.447 79.553 293 79 293ZM92 301.5V304.5C92 306.43 90.43 308 88.5 308H83.5C81.57 308 80 306.43 80 304.5V301.5C80 299.742 81.308 298.296 83 298.051V298C83 296.897 83.897 296 85 296H87C88.103 296 89 296.897 89 298V298.051C90.692 298.296 92 299.742 92 301.5ZM82 301.5V302H90V301.5C90 300.673 89.327 300 88.5 300H83.5C82.673 300 82 300.673 82 301.5ZM90 304.5V304H87C87 304.553 86.553 305 86 305C85.447 305 85 304.553 85 304H82V304.5C82 305.327 82.673 306 83.5 306H88.5C89.327 306 90 305.327 90 304.5Z" fill="white"/>
</g>
<path d="M56.7789 157H55.0689L60.6849 144.256H62.1069L67.5249 157H65.7609L64.4649 153.868H58.0929L56.7789 157ZM58.6869 152.464H63.8889L61.3689 146.2H61.3329L58.6869 152.464ZM72.8548 148.36C74.0788 148.36 75.2308 148.774 76.0768 149.692L74.9608 150.682C74.3668 149.962 73.6828 149.656 72.8368 149.656C71.0908 149.656 69.9928 150.898 69.9928 152.788C69.9928 154.552 71.1628 155.92 72.8368 155.92C73.7548 155.92 74.4568 155.596 74.9788 154.876L76.0228 155.866C75.2128 156.802 74.0608 157.216 72.8368 157.216C70.2448 157.216 68.4808 155.398 68.4808 152.788C68.4808 150.214 70.2628 148.36 72.8548 148.36ZM81.5384 148.36C82.7624 148.36 83.9144 148.774 84.7604 149.692L83.6444 150.682C83.0504 149.962 82.3664 149.656 81.5204 149.656C79.7744 149.656 78.6764 150.898 78.6764 152.788C78.6764 154.552 79.8464 155.92 81.5204 155.92C82.4384 155.92 83.1404 155.596 83.6624 154.876L84.7064 155.866C83.8964 156.802 82.7444 157.216 81.5204 157.216C78.9284 157.216 77.1644 155.398 77.1644 152.788C77.1644 150.214 78.9464 148.36 81.5384 148.36ZM90.168 148.36C92.364 148.36 94.164 149.746 94.164 152.878V153.22H87.36C87.504 154.786 88.656 155.92 90.132 155.92C91.302 155.92 92.13 155.506 92.796 154.642L93.858 155.47C92.976 156.622 91.842 157.216 90.132 157.216C87.522 157.216 85.848 155.308 85.848 152.788C85.848 150.196 87.666 148.36 90.168 148.36ZM92.652 152.032C92.58 150.574 91.662 149.656 90.096 149.656C88.656 149.656 87.576 150.502 87.36 152.032H92.652ZM97.8659 143.392V157H96.4619V143.392H97.8659ZM104.494 148.36C106.69 148.36 108.49 149.746 108.49 152.878V153.22H101.686C101.83 154.786 102.982 155.92 104.458 155.92C105.628 155.92 106.456 155.506 107.122 154.642L108.184 155.47C107.302 156.622 106.168 157.216 104.458 157.216C101.848 157.216 100.174 155.308 100.174 152.788C100.174 150.196 101.992 148.36 104.494 148.36ZM106.978 152.032C106.906 150.574 105.988 149.656 104.422 149.656C102.982 149.656 101.902 150.502 101.686 152.032H106.978ZM114.802 148.36C115.018 148.36 115.18 148.378 115.378 148.45L115.288 149.872C115.018 149.8 114.802 149.764 114.532 149.764C112.912 149.764 112.066 150.88 112.066 152.824V157H110.662V150.448C110.662 149.89 110.59 149.08 110.59 148.576H111.922C111.922 149.098 111.958 149.404 111.958 149.962H111.994C112.444 149.008 113.56 148.36 114.802 148.36ZM119.636 157.216C117.8 157.216 116.504 156.244 116.504 154.714C116.504 152.77 117.962 151.762 121.706 151.762H122.354V151.528C122.354 150.286 121.58 149.656 120.266 149.656C119.348 149.656 118.43 149.944 117.764 150.574L116.882 149.656C117.746 148.792 118.988 148.36 120.23 148.36C122.66 148.36 123.758 149.53 123.758 151.834V155.614C123.758 155.902 123.794 156.424 123.884 157H122.534C122.462 156.784 122.444 156.46 122.444 155.74H122.408C121.778 156.694 120.806 157.216 119.636 157.216ZM120.806 152.95C119.15 152.95 118.016 153.472 118.016 154.57C118.016 155.524 118.682 156.028 119.87 156.028C121.328 156.028 122.354 155.074 122.354 153.274V152.95H120.806ZM127.044 149.764H125.208V148.576H127.044V146.182H128.448V148.576H130.932V149.764H128.448V154.264C128.448 155.614 128.898 155.92 129.708 155.92C130.122 155.92 130.59 155.83 130.95 155.632L131.004 156.91C130.5 157.126 129.888 157.216 129.366 157.216C127.746 157.216 127.044 156.568 127.044 154.48V149.764ZM136.666 148.36C139.276 148.36 141.166 150.178 141.166 152.788C141.166 155.38 139.276 157.216 136.666 157.216C134.056 157.216 132.166 155.38 132.166 152.788C132.166 150.214 134.02 148.36 136.666 148.36ZM133.678 152.788C133.678 154.606 134.902 155.92 136.666 155.92C138.466 155.92 139.654 154.57 139.654 152.788C139.654 151.006 138.466 149.656 136.648 149.656C134.884 149.656 133.678 151.006 133.678 152.788ZM147.48 148.36C147.696 148.36 147.858 148.378 148.056 148.45L147.966 149.872C147.696 149.8 147.48 149.764 147.21 149.764C145.59 149.764 144.744 150.88 144.744 152.824V157H143.34V150.448C143.34 149.89 143.268 149.08 143.268 148.576H144.6C144.6 149.098 144.636 149.404 144.636 149.962H144.672C145.122 149.008 146.238 148.36 147.48 148.36ZM152.242 148.36C153.538 148.36 154.582 148.9 155.104 149.89L153.934 150.664C153.574 150.07 152.998 149.656 152.152 149.656C151.216 149.656 150.496 150.124 150.496 150.826C150.496 151.384 151.162 151.78 152.602 152.05C154.618 152.428 155.374 153.202 155.374 154.57C155.374 156.226 154.042 157.216 152.008 157.216C150.442 157.216 149.47 156.73 148.732 155.65L149.848 154.786C150.55 155.632 151.162 155.92 152.008 155.92C153.07 155.92 153.862 155.416 153.862 154.624C153.862 153.85 153.34 153.544 151.486 153.148C149.812 152.788 149.092 152.104 149.092 150.844C149.092 149.314 150.514 148.36 152.242 148.36Z" fill="white"/>
<g clip-path="url(#clip7_68_760)">
<path d="M156 121C156.004 122.574 155.695 124.132 155.093 125.586C154.491 127.04 153.607 128.36 152.492 129.47C151.953 130.012 151.23 130.331 150.466 130.364C149.702 130.396 148.955 130.139 148.372 129.644L147.346 128.757C147.247 128.671 147.165 128.567 147.106 128.449C147.047 128.332 147.012 128.204 147.002 128.073C146.983 127.808 147.07 127.547 147.243 127.346C147.329 127.247 147.434 127.165 147.551 127.106C147.668 127.047 147.796 127.012 147.927 127.002C148.192 126.983 148.453 127.07 148.654 127.243L149.681 128.131C149.879 128.3 150.134 128.386 150.393 128.372C150.653 128.358 150.897 128.245 151.076 128.056C152.03 127.091 152.778 125.942 153.275 124.68C153.773 123.418 154.009 122.067 153.97 120.711C153.932 119.355 153.619 118.02 153.05 116.788C152.481 115.556 151.669 114.452 150.662 113.543C149.611 112.595 148.369 111.883 147.019 111.455C145.67 111.028 144.244 110.895 142.839 111.065C140.969 111.282 139.198 112.023 137.73 113.202C136.263 114.381 135.158 115.951 134.544 117.731C133.93 119.511 133.831 121.428 134.259 123.261C134.686 125.095 135.624 126.77 136.962 128.094C137.142 128.27 137.382 128.372 137.633 128.379C137.885 128.386 138.13 128.298 138.319 128.132L139.346 127.243C139.547 127.07 139.808 126.983 140.073 127.002C140.337 127.022 140.584 127.145 140.757 127.346C140.93 127.547 141.017 127.808 140.998 128.073C140.978 128.338 140.855 128.584 140.654 128.757L139.628 129.645C139.056 130.137 138.32 130.396 137.566 130.373C136.812 130.349 136.095 130.043 135.555 129.516C134.151 128.125 133.112 126.409 132.531 124.521C131.95 122.632 131.844 120.629 132.223 118.689C132.602 116.75 133.454 114.934 134.704 113.403C135.953 111.872 137.562 110.673 139.386 109.913C141.21 109.153 143.194 108.856 145.161 109.047C147.128 109.238 149.017 109.912 150.661 111.009C152.305 112.106 153.652 113.592 154.584 115.335C155.515 117.078 156.002 119.024 156 121ZM149.707 116.707C149.889 116.518 149.99 116.266 149.988 116.004C149.985 115.741 149.88 115.491 149.695 115.305C149.509 115.12 149.259 115.015 148.996 115.012C148.734 115.01 148.482 115.111 148.293 115.293L144.518 119.068C144.093 118.954 143.642 118.984 143.235 119.152C142.828 119.321 142.488 119.619 142.268 120C142.048 120.381 141.96 120.824 142.017 121.261C142.075 121.697 142.275 122.103 142.586 122.414C142.897 122.725 143.303 122.925 143.739 122.983C144.176 123.04 144.619 122.952 145 122.732C145.382 122.512 145.68 122.172 145.848 121.765C146.016 121.358 146.046 120.907 145.932 120.482L149.707 116.707Z" fill="white"/>
</g>
<defs>
<linearGradient id="paint0_linear_68_760" x1="228" y1="190" x2="523.418" y2="268.015" gradientUnits="userSpaceOnUse">
<stop stop-color="#51B29C"/>
<stop offset="1" stop-color="#3A7FD0"/>
</linearGradient>
<clipPath id="clip0_68_760">
<rect width="82.0414" height="82.0414" fill="white" transform="translate(312 261)"/>
</clipPath>
<clipPath id="clip1_68_760">
<rect width="24" height="24" fill="white" transform="translate(550 108)"/>
</clipPath>
<clipPath id="clip2_68_760">
<rect width="24" height="24" fill="white" transform="translate(613 284)"/>
</clipPath>
<clipPath id="clip3_68_760">
<rect width="24" height="24" fill="white" transform="translate(540 442)"/>
</clipPath>
<clipPath id="clip4_68_760">
<rect width="24" height="24" fill="white" transform="translate(342 569)"/>
</clipPath>
<clipPath id="clip5_68_760">
<rect width="24" height="24" fill="white" transform="translate(144 442)"/>
</clipPath>
<clipPath id="clip6_68_760">
<rect width="24" height="24" fill="white" transform="translate(68 284)"/>
</clipPath>
<clipPath id="clip7_68_760">
<rect width="24" height="24" fill="white" transform="translate(132 108)"/>
</clipPath>
</defs>
</svg>
