<svg width="549" height="422" viewBox="0 0 549 422" fill="none" xmlns="http://www.w3.org/2000/svg">
<path d="M413.558 228.854C413.558 243.945 401.314 256.166 386.217 256.166C371.119 256.166 358.888 243.945 358.888 228.854C358.888 213.775 371.119 201.542 386.217 201.542C401.314 201.542 413.558 213.775 413.558 228.854Z" stroke="#8E47AD" stroke-miterlimit="10"/>
<path d="M220.909 165.391C220.909 180.482 208.665 192.703 193.567 192.703C178.47 192.703 166.238 180.482 166.238 165.391C166.238 150.312 178.47 138.078 193.567 138.078C208.665 138.078 220.909 150.312 220.909 165.391Z" stroke="#4675CD" stroke-miterlimit="10"/>
<path d="M114.109 257.241C103.868 283.713 109.576 302.035 115.582 315.115C116.209 290.856 120.577 250.879 140.004 215.401C139.521 215.871 124.179 231.176 114.109 257.241Z" fill="#51B29C"/>
<path d="M115.582 315.115L115.586 315.126C142.417 299.524 138.406 246.894 140.004 215.402C120.576 250.881 116.209 290.856 115.582 315.115Z" fill="#A7D678"/>
<path d="M115.587 315.126C115.234 328.862 116.08 337.559 116.08 337.559" stroke="#213D8C" stroke-linecap="round" stroke-linejoin="round"/>
<path d="M140.004 215.402C120.577 250.881 116.209 290.856 115.582 315.116" stroke="#213D8C" stroke-linecap="round" stroke-linejoin="round"/>
<path d="M140.011 215.388L140.004 215.402C139.522 215.873 124.179 231.176 114.109 257.242C103.868 283.714 109.576 302.036 115.582 315.116L115.587 315.127C142.417 299.525 138.406 246.895 140.004 215.403" stroke="#213D8C" stroke-linecap="round" stroke-linejoin="round"/>
<path d="M84.6196 275.793C101.26 293.138 102.778 309.311 102.355 321.486C93.9482 302.737 77.4892 272.931 50.7354 251.544C51.2646 251.755 68.2452 258.71 84.6196 275.793Z" fill="#51B29C"/>
<path d="M102.356 321.486L102.357 321.496C76.3055 318.048 62.2609 275.626 50.7363 251.544C77.4902 272.931 93.9481 302.737 102.356 321.486Z" fill="#A7D678"/>
<path d="M102.356 321.496C107.114 332.113 109.293 339.18 109.293 339.18" stroke="#213D8C" stroke-linecap="round" stroke-linejoin="round"/>
<path d="M50.7363 251.544C77.4902 272.931 93.9481 302.737 102.356 321.486" stroke="#213D8C" stroke-linecap="round" stroke-linejoin="round"/>
<path d="M50.7256 251.534L50.7366 251.544M50.7366 251.544C51.2647 251.755 68.2453 258.71 84.6197 275.794C101.26 293.138 102.778 309.311 102.355 321.486L102.356 321.496C76.3046 318.048 62.2612 275.626 50.7366 251.544Z" stroke="#213D8C" stroke-linecap="round" stroke-linejoin="round"/>
<path d="M132.706 274.837C120.058 295.271 121.956 311.405 124.915 323.221C129.216 303.132 139.078 270.549 160.772 244.05C160.298 244.369 145.147 254.716 132.706 274.837Z" fill="#51B29C"/>
<path d="M124.916 323.223V323.233C149.673 314.424 154.537 270.007 160.772 244.052C139.079 270.55 129.217 303.133 124.916 323.223Z" fill="#A7D678"/>
<path d="M124.917 323.234C122.483 334.609 121.83 341.977 121.83 341.977" stroke="#213D8C" stroke-linecap="round" stroke-linejoin="round"/>
<path d="M160.773 244.052C139.08 270.55 129.218 303.133 124.917 323.223" stroke="#213D8C" stroke-linecap="round" stroke-linejoin="round"/>
<path d="M160.781 244.041L160.773 244.051C160.298 244.369 145.148 254.716 132.706 274.838C120.058 295.272 121.956 311.406 124.915 323.222V323.233C149.672 314.424 154.536 270.007 160.772 244.051" stroke="#213D8C" stroke-linecap="round" stroke-linejoin="round"/>
<path d="M65.0381 201.722C65.62 202.163 84.2399 216.561 98.313 243.923C115.54 277.415 110.855 295.797 107.74 309.483C101.134 260.026 85.8101 227.799 65.0381 201.722Z" fill="#51B29C"/>
<path d="M65.0381 201.722C85.81 227.799 101.134 260.026 107.74 309.483C70.1581 288.628 78.9102 236.612 65.0381 201.722Z" fill="#A7D678"/>
<path d="M65.0381 201.722C85.8101 227.799 101.134 260.026 107.74 309.483C108.93 318.374 109.831 327.823 110.434 337.897" stroke="#213D8C" stroke-linecap="round" stroke-linejoin="round"/>
<path d="M65.0381 201.722C65.62 202.163 84.2399 216.561 98.313 243.923C115.54 277.415 110.855 295.797 107.74 309.483C70.1581 288.628 78.9102 236.612 65.0381 201.722Z" stroke="#213D8C" stroke-linecap="round" stroke-linejoin="round"/>
<path d="M65.0382 201.722L65.0293 201.712" stroke="#213D8C" stroke-linecap="round" stroke-linejoin="round"/>
<path d="M138.184 322.203H91.0202L87.8975 327.398L100.633 394.413H128.571L141.306 327.398L138.184 322.203Z" fill="white" stroke="#213D8C" stroke-linecap="round" stroke-linejoin="round"/>
<path d="M98.0902 370.928H93.8838V407.87H98.0902V370.928Z" fill="#F7CDBA" stroke="#213D8C" stroke-linecap="round" stroke-linejoin="round"/>
<path d="M135.32 370.928H131.112V407.87H135.32V370.928Z" fill="#F7CDBA" stroke="#213D8C" stroke-linecap="round" stroke-linejoin="round"/>
<path d="M138.253 368.316H90.9512V373.54H138.253V368.316Z" fill="#F7CDBA" stroke="#213D8C" stroke-linecap="round" stroke-linejoin="round"/>
<path d="M87.8975 327.398H141.306" stroke="#213D8C" stroke-linecap="round" stroke-linejoin="round"/>
<path d="M451.602 257.241C441.361 283.713 447.069 302.035 453.076 315.115C453.702 290.856 458.07 250.879 477.496 215.401C477.014 215.871 461.672 231.176 451.602 257.241Z" fill="#51B29C"/>
<path d="M453.075 315.115L453.08 315.126C479.91 299.524 475.899 246.894 477.496 215.402C458.07 250.881 453.702 290.856 453.075 315.115Z" fill="#A7D678"/>
<path d="M453.08 315.126C452.728 328.862 453.572 337.559 453.572 337.559" stroke="#213D8C" stroke-linecap="round" stroke-linejoin="round"/>
<path d="M477.496 215.402C458.07 250.881 453.702 290.856 453.075 315.116" stroke="#213D8C" stroke-linecap="round" stroke-linejoin="round"/>
<path d="M477.504 215.388L477.496 215.402C477.015 215.873 461.672 231.176 451.602 257.242C441.361 283.714 447.069 302.036 453.076 315.116L453.08 315.127C479.911 299.525 475.9 246.895 477.496 215.403" stroke="#213D8C" stroke-linecap="round" stroke-linejoin="round"/>
<path d="M422.113 275.793C438.753 293.138 440.272 309.311 439.848 321.486C431.441 302.737 414.982 272.931 388.229 251.544C388.759 251.755 405.738 258.71 422.113 275.793Z" fill="#51B29C"/>
<path d="M439.849 321.486L439.851 321.496C413.799 318.048 399.754 275.626 388.229 251.544C414.983 272.931 431.442 302.737 439.849 321.486Z" fill="#A7D678"/>
<path d="M439.852 321.496C444.608 332.113 446.787 339.18 446.787 339.18" stroke="#213D8C" stroke-linecap="round" stroke-linejoin="round"/>
<path d="M388.229 251.544C414.983 272.931 431.441 302.737 439.849 321.486" stroke="#213D8C" stroke-linecap="round" stroke-linejoin="round"/>
<path d="M388.219 251.534L388.23 251.544C388.758 251.755 405.738 258.71 422.113 275.794C438.753 293.138 440.272 309.311 439.848 321.486L439.85 321.496C413.798 318.048 399.753 275.626 388.229 251.544" stroke="#213D8C" stroke-linecap="round" stroke-linejoin="round"/>
<path d="M470.199 274.837C457.551 295.271 459.449 311.405 462.408 323.221C466.708 303.132 476.572 270.549 498.265 244.05C497.792 244.369 482.64 254.716 470.199 274.837Z" fill="#51B29C"/>
<path d="M462.409 323.223V323.233C487.166 314.424 492.03 270.007 498.265 244.052C476.572 270.55 466.709 303.133 462.409 323.223Z" fill="#A7D678"/>
<path d="M462.41 323.234C459.977 334.609 459.323 341.977 459.323 341.977" stroke="#213D8C" stroke-linecap="round" stroke-linejoin="round"/>
<path d="M498.266 244.052C476.573 270.55 466.71 303.133 462.41 323.223" stroke="#213D8C" stroke-linecap="round" stroke-linejoin="round"/>
<path d="M498.275 244.041L498.266 244.051C497.792 244.369 482.641 254.716 470.199 274.838C457.551 295.272 459.449 311.406 462.408 323.222V323.233C487.165 314.424 492.029 270.007 498.265 244.051" stroke="#213D8C" stroke-linecap="round" stroke-linejoin="round"/>
<path d="M402.531 201.722C403.113 202.163 421.733 216.561 435.806 243.923C453.033 277.415 448.349 295.797 445.234 309.483C438.628 260.026 423.303 227.799 402.531 201.722Z" fill="#51B29C"/>
<path d="M402.531 201.722C423.303 227.799 438.627 260.026 445.234 309.483C407.651 288.628 416.403 236.612 402.531 201.722Z" fill="#A7D678"/>
<path d="M402.531 201.722C423.303 227.799 438.627 260.026 445.234 309.483C446.422 318.374 447.324 327.823 447.927 337.897" stroke="#213D8C" stroke-linecap="round" stroke-linejoin="round"/>
<path d="M402.531 201.722C403.113 202.163 421.733 216.561 435.806 243.923C453.033 277.415 448.349 295.797 445.234 309.483C407.651 288.628 416.403 236.612 402.531 201.722Z" stroke="#213D8C" stroke-linecap="round" stroke-linejoin="round"/>
<path d="M402.531 201.722L402.522 201.712" stroke="#213D8C" stroke-linecap="round" stroke-linejoin="round"/>
<path d="M475.677 322.203H428.513L425.391 327.398L438.126 394.413H466.064L478.8 327.398L475.677 322.203Z" fill="white" stroke="#213D8C" stroke-linecap="round" stroke-linejoin="round"/>
<path d="M435.583 370.928H431.377V407.87H435.583V370.928Z" fill="#F7CDBA" stroke="#213D8C" stroke-linecap="round" stroke-linejoin="round"/>
<path d="M472.813 370.928H468.605V407.87H472.813V370.928Z" fill="#F7CDBA" stroke="#213D8C" stroke-linecap="round" stroke-linejoin="round"/>
<path d="M475.746 368.316H428.444V373.54H475.746V368.316Z" fill="#F7CDBA" stroke="#213D8C" stroke-linecap="round" stroke-linejoin="round"/>
<path d="M425.391 327.398H478.8" stroke="#213D8C" stroke-linecap="round" stroke-linejoin="round"/>
<path d="M227.685 320.236H221.077V389.015H227.685V320.236Z" fill="#E1EDF7" stroke="#213D8C" stroke-linecap="round" stroke-linejoin="round"/>
<path d="M234.006 321.475C234.006 323.445 232.408 325.042 230.436 325.042H218.325C216.351 325.042 214.754 323.445 214.754 321.475V304.479C214.754 302.508 216.351 300.911 218.325 300.911H230.436C232.408 300.911 234.006 302.508 234.006 304.479V321.475Z" fill="#E1EDF7" stroke="#213D8C" stroke-linecap="round" stroke-linejoin="round"/>
<path d="M230.039 390.848C230.039 392.006 229.1 392.944 227.939 392.944H220.823C219.662 392.944 218.724 392.006 218.724 390.848V380.859C218.724 379.701 219.662 378.763 220.823 378.763H227.939C229.1 378.763 230.039 379.701 230.039 380.859V390.848Z" fill="#E1EDF7" stroke="#213D8C" stroke-linecap="round" stroke-linejoin="round"/>
<path d="M230.394 396.386L256.657 404.525L259.929 407.87H267.37L263.59 402.205L230.394 384.903H218.367L185.17 402.205L181.391 407.87H188.831L192.104 404.525L218.367 396.386H230.394Z" fill="#E1EDF7" stroke="#213D8C" stroke-linecap="round" stroke-linejoin="round"/>
<path d="M267.032 306.014C267.032 307.984 265.433 309.582 263.461 309.582H179.119C177.145 309.582 175.548 307.984 175.548 306.014V293.725C175.548 291.754 177.145 290.157 179.119 290.157H263.461C265.433 290.157 267.032 291.754 267.032 293.725V306.014Z" fill="#FFD373" stroke="#213D8C" stroke-linecap="round" stroke-linejoin="round"/>
<path d="M226.458 266.731C231.386 266.731 234.923 262.74 234.36 257.816L223.826 178.401C223.264 173.478 218.815 169.487 213.886 169.487H162.066C157.137 169.487 153.6 173.478 154.162 178.401L164.696 257.816C165.26 262.74 169.708 266.731 174.638 266.731H226.458Z" fill="#FFAD31" stroke="#213D8C" stroke-linecap="round" stroke-linejoin="round"/>
<path d="M181.166 257.816C181.73 262.74 178.192 266.731 173.264 266.731C168.335 266.731 163.885 262.74 163.323 257.816L152.788 178.401C152.225 173.478 155.763 169.487 160.692 169.487C165.62 169.487 170.07 173.478 170.632 178.401L181.166 257.816Z" fill="#FFD373" stroke="#213D8C" stroke-linecap="round" stroke-linejoin="round"/>
<path d="M237.768 174.474C240.419 177.476 254.502 203.144 254.901 203.739C255.297 204.334 248.452 212.362 240.617 214.244H235.161V174.474H237.768Z" fill="white" stroke="#213D8C" stroke-linecap="round" stroke-linejoin="round"/>
<path d="M214.592 165.391C214.592 165.391 196.627 172.025 191.121 175.742C185.616 179.459 184.426 180.945 185.17 186.148C185.913 191.35 192.608 232.677 192.757 237.138C192.907 241.598 187.104 263.748 187.104 263.748C187.104 263.748 221.473 267.315 244.536 258.694C244.536 258.694 240.22 236.544 240.22 231.489C240.22 226.436 244.386 215.88 244.536 206.812C244.685 197.744 241.411 189.048 240.37 184.811C239.329 180.573 239.924 177.081 238.139 174.85C236.352 172.621 221.697 165.392 221.697 165.392L214.592 165.391Z" fill="white" stroke="#213D8C" stroke-linecap="round" stroke-linejoin="round"/>
<path d="M227.897 149.949C227.897 149.949 225.74 162.015 225.937 169.349C225.937 169.349 220.546 176.286 211.158 169.944V144.672L227.897 149.949Z" fill="white"/>
<path d="M211.158 156.675C212.867 157.981 218.847 162.507 225.936 167.421C226.087 160.082 227.897 149.948 227.897 149.948L211.158 144.67V156.675Z" fill="#BADBF7"/>
<path d="M227.897 149.949C227.897 149.949 225.74 162.015 225.937 169.349C225.937 169.349 220.546 176.286 211.158 169.944V144.672L227.897 149.949Z" stroke="#213D8C" stroke-linecap="round" stroke-linejoin="round"/>
<path d="M306.768 342.991L311.943 353.346L304.072 359.228L298.136 348.057L306.768 342.991Z" fill="white" stroke="#213D8C" stroke-linecap="round" stroke-linejoin="round"/>
<path d="M307.91 368.836L337.16 351.673L335.877 349.491L306.628 366.653L307.91 368.836Z" fill="#E1EDF7" stroke="#213D8C" stroke-linecap="round" stroke-linejoin="round"/>
<path d="M326.407 349.521C326.407 349.521 325.394 348.055 323.847 348.139C322.3 348.224 312.872 348.402 311.638 348.407C310.403 348.41 309.554 347.928 308.879 348.532C308.201 349.136 307.87 351.903 310.503 352.262C313.138 352.623 326.183 351.504 326.183 351.504L326.407 349.521Z" fill="#BADBF7" stroke="#213D8C" stroke-linecap="round" stroke-linejoin="round"/>
<path d="M324.848 352.274C324.599 351.237 324.523 350.754 322.995 350.52C321.463 350.283 314.142 350.979 312.284 350.883C310.426 350.788 309.79 351.113 308.796 353.189C307.801 355.265 306.547 355.614 304.867 356.961C303.184 358.309 302.771 358.036 302.993 359.296C303.217 360.554 305.346 364.479 306.628 366.661L327.526 354.399L324.848 352.274Z" fill="white" stroke="#213D8C" stroke-linecap="round" stroke-linejoin="round"/>
<path d="M335.876 349.498C335.876 349.498 334.744 347.922 332.834 347.914C330.919 347.905 327.361 348.599 326.043 348.808C324.723 349.016 324.347 352.324 325.572 355.546L335.876 349.498Z" fill="white" stroke="#213D8C" stroke-linecap="round" stroke-linejoin="round"/>
<path d="M320.342 351.638C320.329 352.129 320.718 352.532 321.208 352.544C321.7 352.557 322.104 352.168 322.115 351.68L322.209 347.846C322.221 347.355 321.832 346.949 321.344 346.938C320.851 346.926 320.445 347.315 320.433 347.805L320.342 351.638Z" fill="white" stroke="#213D8C" stroke-linecap="round" stroke-linejoin="round"/>
<path d="M315.91 351.592C315.896 352.082 316.286 352.489 316.778 352.499C317.269 352.512 317.674 352.124 317.683 351.635L317.778 347.803C317.79 347.309 317.399 346.903 316.911 346.893C316.419 346.883 316.014 347.271 316.002 347.761L315.91 351.592Z" fill="white" stroke="#213D8C" stroke-linecap="round" stroke-linejoin="round"/>
<path d="M311.778 351.924C311.794 352.414 312.205 352.798 312.695 352.777C313.186 352.763 313.57 352.352 313.553 351.864L313.428 348.032C313.41 347.54 312.998 347.157 312.512 347.175C312.019 347.194 311.635 347.602 311.652 348.092L311.778 351.924Z" fill="white" stroke="#213D8C" stroke-linecap="round" stroke-linejoin="round"/>
<path d="M245.992 140.913C247.957 142.757 248.812 142.994 248.396 144.326C247.992 145.659 246.027 146.539 245.516 146.716C245.003 146.895 244.421 147.455 245.396 148.739C245.241 149.227 244.564 149.821 243.528 149.952C243.528 149.952 244.136 150.962 243.993 151.688C243.85 152.401 242.707 152.806 242.707 154.328C242.719 155.862 243.577 158.098 241.243 158.622C238.911 159.145 222.722 157.908 218.986 151.176C217.7 150.784 216.557 150.07 215.617 149.189L215.582 149.177C216.367 145.371 217.427 142.85 218.354 140.449C218.998 140.995 219.508 141.756 219.748 142.708C227.604 136.775 225.64 126.831 225.64 126.831C225.64 126.831 229.602 131.338 238.351 131.089L238.459 130.851C239.59 131.303 240.793 131.624 242.077 131.743C243.398 138.405 244.206 139.25 245.992 140.913Z" fill="white"/>
<path d="M238.458 130.852L238.351 131.09C229.602 131.34 225.639 126.832 225.639 126.832C225.639 126.832 227.603 136.775 219.747 142.709C219.508 141.758 218.997 140.996 218.354 140.45C217.425 142.852 216.365 145.373 215.581 149.178C215.521 149.428 215.474 149.689 215.425 149.952C213.736 158.942 216.76 163.498 222.068 167.861C214.83 172.524 201.583 172.619 196.775 163.497C192.013 154.481 196.18 147.692 198.416 129.9C200.047 116.89 209.07 116.426 209.07 116.426C209.07 116.426 213.986 107.709 227.9 110.04C241.815 112.359 244.243 125.501 243.79 131.791C243.207 131.815 242.636 131.803 242.075 131.744C240.793 131.625 239.589 131.304 238.458 130.852Z" fill="#3A7FD0"/>
<path d="M224.112 136.762C224.401 135.95 224.661 135.158 224.849 134.344C225.058 133.532 225.182 132.702 225.284 131.874C225.376 131.044 225.407 130.209 225.386 129.381C225.378 128.966 225.344 128.554 225.301 128.144C225.255 127.743 225.191 127.316 225.104 126.961C225.033 126.667 225.213 126.37 225.506 126.298C225.713 126.248 225.92 126.322 226.051 126.47C226.163 126.599 226.321 126.758 226.47 126.897C226.623 127.04 226.782 127.179 226.946 127.313C227.274 127.582 227.616 127.838 227.975 128.072C228.688 128.547 229.45 128.956 230.239 129.312C231.035 129.647 231.849 129.956 232.693 130.175C233.532 130.412 234.391 130.567 235.257 130.699L235.266 130.701C235.417 130.724 235.519 130.863 235.496 131.013C235.474 131.158 235.341 131.259 235.197 131.245C234.303 131.156 233.409 131.041 232.528 130.841C231.643 130.658 230.778 130.382 229.924 130.072C229.077 129.741 228.251 129.351 227.462 128.884C227.065 128.653 226.683 128.397 226.311 128.122C226.126 127.985 225.942 127.843 225.763 127.69C225.58 127.536 225.416 127.391 225.226 127.193L226.173 126.704C226.264 127.183 226.301 127.606 226.333 128.053C226.357 128.494 226.372 128.935 226.359 129.374C226.341 130.252 226.264 131.124 226.128 131.985C225.978 132.844 225.807 133.7 225.55 134.53C225.312 135.371 224.999 136.189 224.677 136.97L224.675 136.976C224.611 137.129 224.436 137.204 224.282 137.139C224.132 137.08 224.059 136.912 224.112 136.762Z" fill="#213D8C"/>
<path d="M219.384 142.298C219.384 142.298 219.515 142.182 219.742 141.98C219.856 141.88 219.994 141.758 220.153 141.617C220.275 141.471 220.412 141.307 220.561 141.127C220.718 140.957 220.882 140.759 221.028 140.513C221.177 140.275 221.36 140.038 221.506 139.767C221.642 139.489 221.782 139.203 221.925 138.911C222.085 138.626 222.152 138.297 222.273 137.987C222.385 137.675 222.499 137.361 222.544 137.034C222.61 136.711 222.675 136.394 222.736 136.087C222.789 135.778 222.789 135.472 222.818 135.184C222.842 134.895 222.864 134.62 222.885 134.367C222.831 133.357 222.839 132.658 222.839 132.658V132.635C222.84 132.545 222.913 132.473 223.003 132.474C223.079 132.476 223.142 132.528 223.159 132.598C223.159 132.598 223.325 133.28 223.508 134.337C223.531 134.603 223.535 134.894 223.54 135.201C223.539 135.508 223.567 135.836 223.541 136.172C223.496 136.506 223.45 136.853 223.404 137.204C223.373 137.56 223.271 137.907 223.169 138.255C223.058 138.599 223 138.964 222.845 139.288C222.7 139.616 222.557 139.94 222.419 140.253C222.265 140.559 222.074 140.832 221.914 141.103C221.761 141.376 221.58 141.623 221.385 141.838C221.198 142.056 221.027 142.256 220.876 142.434C220.718 142.574 220.58 142.697 220.467 142.798C220.24 143.001 220.11 143.116 220.11 143.116C219.884 143.318 219.537 143.298 219.335 143.072C219.133 142.846 219.153 142.499 219.379 142.298H219.384Z" fill="#213D8C"/>
<path d="M218.354 140.45C218.997 140.996 219.508 141.757 219.747 142.709" stroke="#213D8C" stroke-linecap="round" stroke-linejoin="round"/>
<path d="M242.076 131.745C243.398 138.405 244.206 139.25 245.992 140.913C247.957 142.757 248.812 142.994 248.396 144.326C247.992 145.659 246.027 146.539 245.516 146.716C245.003 146.895 244.421 147.455 245.396 148.739C245.241 149.227 244.564 149.821 243.528 149.952C243.528 149.952 244.136 150.962 243.993 151.688C243.85 152.401 242.707 152.806 242.707 154.328C242.719 155.862 243.577 158.098 241.243 158.622C238.911 159.145 222.722 157.908 218.986 151.176C217.7 150.784 216.557 150.07 215.617 149.189" stroke="#213D8C" stroke-linecap="round" stroke-linejoin="round"/>
<path d="M217.837 140.266C217.837 140.266 218.126 139.538 218.56 138.448C218.661 138.175 218.805 137.881 218.885 137.566C218.979 137.251 219.079 136.92 219.183 136.577C219.287 136.233 219.394 135.878 219.503 135.517C219.635 135.16 219.655 134.769 219.735 134.393C219.869 133.632 220.002 132.87 220.126 132.157C220.167 131.431 220.205 130.753 220.238 130.173C220.302 129.007 220.345 128.23 220.345 128.23L220.346 128.211C220.352 128.108 220.44 128.029 220.543 128.036C220.642 128.041 220.719 128.124 220.719 128.221C220.719 128.221 220.721 129.008 220.725 130.187C220.725 130.78 220.726 131.47 220.727 132.209C220.642 132.946 220.551 133.734 220.461 134.52C220.4 134.912 220.401 135.316 220.287 135.693C220.196 136.075 220.105 136.451 220.018 136.814C219.93 137.18 219.845 137.532 219.764 137.866C219.695 138.209 219.573 138.496 219.487 138.779C219.117 139.894 218.87 140.635 218.87 140.635L218.868 140.641C218.773 140.928 218.462 141.084 218.175 140.989C217.886 140.893 217.73 140.583 217.826 140.295C217.83 140.285 217.833 140.275 217.837 140.266Z" fill="#213D8C"/>
<path d="M215.426 149.953C215.474 149.691 215.521 149.428 215.582 149.179C216.367 145.374 217.426 142.853 218.354 140.451" stroke="#213D8C" stroke-linecap="round" stroke-linejoin="round"/>
<path d="M216.406 161.659C216.406 161.659 216.321 161.493 216.175 161.202C216.102 161.056 216.013 160.879 215.911 160.676C215.8 160.48 215.723 160.222 215.613 159.96C215.517 159.691 215.378 159.407 215.295 159.092C215.206 158.777 215.111 158.447 215.015 158.104C214.923 157.759 214.875 157.394 214.802 157.028C214.72 156.66 214.684 156.282 214.652 155.903C214.626 155.525 214.558 155.145 214.567 154.772C214.561 154.398 214.557 154.03 214.551 153.674C214.538 153.316 214.583 152.975 214.595 152.649C214.615 152.323 214.634 152.015 214.65 151.731C214.792 150.603 214.886 149.851 214.886 149.851C214.923 149.55 215.198 149.336 215.5 149.373C215.801 149.412 216.015 149.686 215.978 149.987C215.976 149.998 215.974 150.009 215.972 150.019L215.965 150.053C215.965 150.053 215.829 150.772 215.626 151.851C215.593 152.123 215.557 152.417 215.519 152.728C215.488 153.04 215.423 153.369 215.415 153.71C215.399 154.052 215.382 154.406 215.365 154.763C215.333 155.124 215.377 155.485 215.379 155.85C215.388 156.216 215.399 156.581 215.455 156.935C215.504 157.291 215.528 157.645 215.595 157.981C215.668 158.316 215.739 158.639 215.805 158.945C215.867 159.256 215.981 159.525 216.057 159.788C216.147 160.046 216.198 160.289 216.299 160.495C216.389 160.704 216.466 160.886 216.531 161.036C216.659 161.336 216.733 161.507 216.733 161.507C216.772 161.598 216.73 161.704 216.639 161.744C216.551 161.782 216.449 161.744 216.406 161.659Z" fill="#213D8C"/>
<path d="M221.82 168.351C221.82 168.351 221.68 168.275 221.433 168.141C221.186 168.001 220.836 167.83 220.408 167.559C219.977 167.309 219.493 166.993 218.994 166.628C218.736 166.459 218.492 166.249 218.242 166.043C217.993 165.835 217.73 165.636 217.501 165.397C217.266 165.167 217.031 164.935 216.799 164.708C216.59 164.461 216.383 164.219 216.182 163.984C215.773 163.523 215.484 163.022 215.191 162.629C214.929 162.216 214.741 161.852 214.596 161.607C214.455 161.359 214.374 161.218 214.374 161.218C214.307 161.101 214.349 160.951 214.466 160.884C214.58 160.819 214.723 160.855 214.793 160.963L214.805 160.982C214.805 160.982 214.892 161.115 215.042 161.347C215.197 161.576 215.399 161.916 215.674 162.299C215.979 162.66 216.281 163.123 216.698 163.538C216.901 163.749 217.11 163.969 217.323 164.19C217.555 164.392 217.79 164.597 218.026 164.802C218.253 165.016 218.515 165.189 218.761 165.372C219.01 165.553 219.249 165.736 219.504 165.882C219.997 166.201 220.469 166.471 220.885 166.679C221.285 166.904 221.666 167.065 221.915 167.187C222.168 167.307 222.313 167.375 222.313 167.375C222.588 167.504 222.705 167.831 222.577 168.106C222.448 168.38 222.12 168.497 221.846 168.368C221.84 168.361 221.828 168.356 221.82 168.351Z" fill="#213D8C"/>
<path d="M236.799 130.063C237.329 130.356 237.883 130.621 238.458 130.853C239.589 131.305 240.792 131.626 242.076 131.745C242.637 131.804 243.207 131.816 243.791 131.792C244.243 125.502 241.816 112.36 227.901 110.041C213.986 107.71 209.071 116.427 209.071 116.427C209.071 116.427 200.048 116.891 198.417 129.901C196.181 147.693 192.014 154.482 196.776 163.498C201.584 172.619 214.831 172.524 222.069 167.862" stroke="#213D8C" stroke-linecap="round" stroke-linejoin="round"/>
<path d="M228.619 121.589C228.619 121.589 229 122.222 229.681 123.102C230.001 123.554 230.439 124.036 230.873 124.573C231.353 125.073 231.833 125.636 232.373 126.136C232.929 126.617 233.427 127.165 233.995 127.554C234.551 127.955 235.028 128.388 235.506 128.654C236.44 129.21 237.063 129.58 237.063 129.58L237.123 129.617C237.383 129.771 237.469 130.108 237.314 130.369C237.159 130.629 236.822 130.715 236.561 130.56C236.552 130.555 236.541 130.548 236.533 130.543C236.533 130.543 235.896 130.11 234.942 129.462C234.458 129.149 233.986 128.669 233.434 128.216C232.869 127.774 232.387 127.178 231.847 126.647C231.323 126.099 230.867 125.493 230.41 124.954C229.999 124.377 229.586 123.861 229.287 123.381C228.651 122.446 228.301 121.775 228.301 121.775L228.298 121.769C228.251 121.678 228.286 121.568 228.376 121.52C228.463 121.476 228.57 121.507 228.619 121.589Z" fill="#213D8C"/>
<path d="M243.469 150.494C243.469 150.494 243.367 150.475 243.189 150.442C243.003 150.408 242.745 150.351 242.444 150.274C241.838 150.128 241.047 149.876 240.281 149.563C239.905 149.383 239.516 149.245 239.181 149.043C238.846 148.845 238.519 148.688 238.267 148.504C237.766 148.135 237.432 147.889 237.432 147.889C237.324 147.809 237.301 147.657 237.381 147.548C237.455 147.446 237.595 147.42 237.701 147.482L237.732 147.501C237.732 147.501 238.067 147.702 238.569 148.002C238.819 148.151 239.145 148.27 239.474 148.427C239.802 148.586 240.187 148.681 240.552 148.816C241.301 149.042 242.065 149.209 242.643 149.291C242.934 149.337 243.171 149.366 243.332 149.38C243.502 149.395 243.6 149.403 243.6 149.403L243.619 149.404C243.922 149.431 244.144 149.698 244.118 150C244.091 150.302 243.824 150.525 243.522 150.499C243.503 150.499 243.485 150.497 243.469 150.494Z" fill="#213D8C"/>
<path d="M237.86 135.794C237.197 135.998 236.882 136.886 237.156 137.778C237.431 138.67 238.191 139.227 238.854 139.024C239.517 138.82 239.832 137.932 239.558 137.04C239.283 136.148 238.523 135.59 237.86 135.794Z" fill="#213D8C"/>
<path d="M190.57 220.261V220.274C193.749 220.297 196.462 221.213 199.056 221.974C204.114 223.46 228.967 228.585 228.967 228.585C228.967 228.585 235.359 225.243 237.145 224.054C238.93 222.865 240.05 223.02 241.012 223.757C241.976 224.494 246.738 228.145 247.63 229.334C248.522 230.525 248.451 231.487 248.012 232.152C247.559 232.819 244.654 234.757 244.654 234.757C244.654 234.757 178.38 234.757 175.617 234.757C172.868 234.757 170.333 226.871 171.237 224.578C172.119 222.269 178.665 203.907 178.665 203.907L194.365 209.117L190.57 220.261Z" fill="white"/>
<path d="M179.94 223.389C184.107 220.975 187.546 220.226 190.57 220.274C193.749 220.297 196.462 221.213 199.056 221.974C204.114 223.46 228.967 228.585 228.967 228.585C228.967 228.585 235.359 225.243 237.145 224.054C238.93 222.865 240.05 223.02 241.012 223.757C241.976 224.494 246.738 228.145 247.63 229.334C248.522 230.525 248.451 231.487 248.012 232.152C247.559 232.819 244.654 234.757 244.654 234.757C244.654 234.757 178.38 234.757 175.617 234.757C172.868 234.757 170.333 226.871 171.237 224.578C172.119 222.269 178.665 203.907 178.665 203.907L194.365 209.117L190.569 220.26" stroke="#213D8C" stroke-linecap="round" stroke-linejoin="round"/>
<path d="M186.416 179.541C184.127 182.431 171.927 206.959 171.927 206.959C171.927 206.959 183.78 210.477 193.104 218.108C193.104 218.108 197.865 208.395 200.445 201.855L186.416 179.541Z" fill="white"/>
<path d="M195.661 211.453L200.221 201.76C200.277 201.638 200.421 201.583 200.544 201.639C200.662 201.693 200.715 201.832 200.669 201.952L196.67 211.885L196.668 211.892C196.555 212.173 196.234 212.309 195.953 212.196C195.672 212.082 195.536 211.763 195.649 211.482C195.651 211.473 195.657 211.462 195.661 211.453Z" fill="#213D8C"/>
<path d="M186.416 179.541C184.127 182.431 171.927 206.959 171.927 206.959C171.927 206.959 183.78 210.477 193.104 218.108C193.104 218.108 194.486 215.29 196.165 211.669" stroke="#213D8C" stroke-linecap="round" stroke-linejoin="round"/>
<path d="M308.791 192.986C309.286 191.897 308.806 191.016 307.717 191.016H251.579C250.489 191.016 249.207 191.897 248.712 192.986L232.932 227.636C232.437 228.723 232.917 229.605 234.007 229.605H290.146C291.234 229.605 292.518 228.723 293.012 227.636L308.791 192.986Z" fill="white" stroke="#213D8C" stroke-linecap="round" stroke-linejoin="round"/>
<path d="M277.9 212.088C276.893 215.413 273.38 218.108 270.052 218.108C266.725 218.108 264.842 215.413 265.848 212.088C266.855 208.763 270.369 206.068 273.697 206.068C277.024 206.068 278.907 208.763 277.9 212.088Z" fill="#E1EDF7" stroke="#213D8C" stroke-linecap="round" stroke-linejoin="round"/>
<path d="M234.007 229.605L196.165 232.183L193.575 234.758H234.007V229.605Z" fill="white" stroke="#213D8C" stroke-linecap="round" stroke-linejoin="round"/>
<path d="M290.145 229.605H234.007V234.758H290.145V229.605Z" fill="#E1EDF7" stroke="#213D8C" stroke-linecap="round" stroke-linejoin="round"/>
<path d="M213.24 260.723C213.24 260.723 222.406 259.434 244.258 257.254C257.371 263.908 267.745 270.437 272.803 302.546L213.24 260.723Z" fill="#BADBF7" stroke="#213D8C" stroke-linecap="round" stroke-linejoin="round"/>
<path d="M187.103 263.747C187.103 263.747 184.97 270.734 185.664 279.257C186.36 287.781 191.12 296.899 210.066 296.304C229.012 295.709 242.999 292.339 254.802 285.204C254.802 285.204 284.734 334.411 298.136 351.729C298.136 351.729 304.992 348.241 309.157 344.918C309.157 344.918 282.475 279.357 279.797 274.748C277.119 270.139 275.631 267.166 269.084 266.126C262.537 265.086 241.013 261.517 222.96 260.924C215.798 260.686 199.452 260.03 187.103 263.747Z" fill="#BADBF7" stroke="#213D8C" stroke-linecap="round" stroke-linejoin="round"/>
<path d="M276.228 382.626L278.501 393.976L269.358 397.586L266.566 385.249L276.228 382.626Z" fill="white" stroke="#213D8C" stroke-linecap="round" stroke-linejoin="round"/>
<path d="M270.522 407.878L303.256 398.988L302.591 396.546L269.857 405.436L270.522 407.878Z" fill="#E1EDF7" stroke="#213D8C" stroke-linecap="round" stroke-linejoin="round"/>
<path d="M293.464 394.078C293.464 394.078 292.87 392.4 291.356 392.075C289.84 391.75 280.696 389.448 279.505 389.129C278.313 388.808 277.618 388.121 276.808 388.526C275.997 388.93 274.951 391.515 277.396 392.552C279.843 393.591 292.726 395.933 292.726 395.933L293.464 394.078Z" fill="#BADBF7" stroke="#213D8C" stroke-linecap="round" stroke-linejoin="round"/>
<path d="M291.233 396.328C291.266 395.259 291.318 394.775 289.905 394.148C288.492 393.519 281.244 392.269 279.475 391.689C277.707 391.111 277.008 391.256 275.503 392.998C273.998 394.74 272.697 394.748 270.722 395.607C268.744 396.466 268.417 396.094 268.302 397.367C268.187 398.64 269.208 402.987 269.872 405.429L293.259 399.079L291.233 396.328Z" fill="white" stroke="#213D8C" stroke-linecap="round" stroke-linejoin="round"/>
<path d="M302.606 396.54C302.606 396.54 301.927 394.724 300.085 394.213C298.241 393.702 294.624 393.439 293.297 393.296C291.968 393.15 290.737 396.244 291.072 399.673L302.606 396.54Z" fill="white" stroke="#213D8C" stroke-linecap="round" stroke-linejoin="round"/>
<path d="M287.054 394.531C286.911 395 287.18 395.494 287.651 395.632C288.123 395.774 288.616 395.505 288.755 395.035L289.852 391.361C289.992 390.889 289.724 390.397 289.254 390.258C288.783 390.117 288.289 390.385 288.149 390.856L287.054 394.531Z" fill="white" stroke="#213D8C" stroke-linecap="round" stroke-linejoin="round"/>
<path d="M282.788 393.324C282.648 393.794 282.915 394.289 283.388 394.426C283.859 394.568 284.351 394.299 284.489 393.83L285.588 390.156C285.729 389.684 285.459 389.189 284.989 389.052C284.518 388.912 284.025 389.179 283.884 389.65L282.788 393.324Z" fill="white" stroke="#213D8C" stroke-linecap="round" stroke-linejoin="round"/>
<path d="M278.716 392.559C278.602 393.037 278.898 393.514 279.377 393.625C279.854 393.74 280.332 393.444 280.444 392.969L281.331 389.238C281.444 388.757 281.147 388.282 280.671 388.17C280.19 388.056 279.715 388.351 279.601 388.828L278.716 392.559Z" fill="white" stroke="#213D8C" stroke-linecap="round" stroke-linejoin="round"/>
<path d="M261.049 281.586C252.306 280.754 242.46 285.004 244.539 300.614C246.618 316.224 264.963 392.168 264.963 392.168C264.963 392.168 273.271 389.809 278.692 386.836C278.692 386.836 273.308 302.844 272.536 295.115C271.763 287.383 267.298 282.181 261.049 281.586Z" fill="#BADBF7" stroke="#213D8C" stroke-linecap="round" stroke-linejoin="round"/>
<path d="M385.63 186.853C385.63 186.853 376.744 215.098 370.208 224.727C367.397 226.592 359.435 227.973 357.675 228.057C355.914 228.141 354.404 229.314 352.309 229.983C350.214 230.654 348.244 231.659 346.568 231.617C344.891 231.574 344.137 231.784 344.178 232.413C344.222 233.041 344.974 234.758 347.03 234.758C349.082 234.758 352.183 234.09 353.316 233.92C354.448 233.753 355.483 233.484 355.483 233.484L355.498 233.476C355.313 234.131 355.435 234.758 356.419 234.758C358.18 234.758 361.616 234.006 363.544 234.046C365.471 234.087 366.855 234.758 369.329 234.758C371.801 234.758 373.782 233.058 375.908 229.022C378.867 223.413 381.609 219.724 383.662 216.711C385.716 213.696 395.942 196.082 395.942 196.082L385.63 186.853Z" fill="white"/>
<path d="M356.249 232.162C355.621 232.748 354.657 234.758 356.417 234.758C358.177 234.758 361.614 234.006 363.542 234.046C365.469 234.087 366.853 234.758 369.327 234.758C371.799 234.758 373.779 233.058 375.906 229.022C378.865 223.413 381.607 219.724 383.66 216.711C385.714 213.696 395.94 196.082 395.94 196.082L385.63 186.853C385.63 186.853 376.744 215.098 370.208 224.727C367.397 226.592 359.435 227.973 357.675 228.057C355.914 228.141 354.404 229.314 352.309 229.983C350.214 230.654 348.244 231.659 346.568 231.617C344.891 231.574 344.137 231.784 344.178 232.413C344.222 233.041 344.974 234.758 347.03 234.758C349.082 234.758 352.183 234.09 353.316 233.92C354.448 233.753 355.483 233.484 355.483 233.484" stroke="#213D8C" stroke-linecap="round" stroke-linejoin="round"/>
<path d="M363.97 229.027C363.97 229.027 363.87 229.112 363.695 229.259C363.507 229.399 363.24 229.6 362.918 229.839C362.579 230.052 362.183 230.302 361.759 230.569C361.309 230.792 360.816 231.015 360.323 231.247C359.821 231.441 359.331 231.599 358.837 231.745C358.369 231.879 357.932 232.004 357.557 232.111C357.192 232.218 356.95 232.336 356.803 232.419C356.688 232.51 356.622 232.563 356.622 232.563L356.557 232.614C356.32 232.801 355.976 232.761 355.788 232.524C355.603 232.289 355.641 231.949 355.873 231.76C355.873 231.76 356.017 231.644 356.276 231.489C356.535 231.362 356.901 231.232 357.298 231.151C357.686 231.072 358.136 230.981 358.619 230.882C358.852 230.831 359.091 230.776 359.334 230.722C359.578 230.655 359.848 230.592 360.076 230.519C360.545 230.339 361.02 230.169 361.463 229.993C361.888 229.77 362.283 229.562 362.624 229.384C362.947 229.179 363.216 229.009 363.405 228.89C363.592 228.757 363.7 228.683 363.7 228.683C363.797 228.612 363.935 228.632 364.006 228.73C364.075 228.822 364.056 228.953 363.97 229.027Z" fill="#213D8C"/>
<path d="M405.397 385.001L406.184 396.549L415.953 397.638L415.408 385.001H405.397Z" fill="white" stroke="#213D8C" stroke-linecap="round" stroke-linejoin="round"/>
<path d="M417.515 405.339H383.594V407.87H417.515V405.339Z" fill="#E1EDF7" stroke="#213D8C" stroke-linecap="round" stroke-linejoin="round"/>
<path d="M391.771 400.568C391.771 400.568 391.903 398.793 393.28 398.082C394.658 397.371 402.877 392.756 403.943 392.134C405.009 391.512 405.498 390.667 406.387 390.846C407.276 391.024 408.964 393.244 406.876 394.886C404.787 396.53 392.97 402.166 392.97 402.166L391.771 400.568Z" fill="#BADBF7" stroke="#213D8C" stroke-linecap="round" stroke-linejoin="round"/>
<path d="M394.513 402.154C394.2 401.132 394.024 400.679 395.223 399.702C396.423 398.725 403.088 395.62 404.643 394.599C406.197 393.576 406.909 393.534 408.819 394.82C410.73 396.107 411.987 395.774 414.119 396.084C416.251 396.396 416.471 395.952 416.917 397.151C417.361 398.349 417.516 402.81 417.516 405.34H393.281L394.513 402.154Z" fill="white" stroke="#213D8C" stroke-linecap="round" stroke-linejoin="round"/>
<path d="M383.594 405.339C383.594 405.339 383.772 403.408 385.415 402.433C387.06 401.455 390.482 400.256 391.726 399.768C392.968 399.281 394.968 401.942 395.545 405.339H383.594Z" fill="white" stroke="#213D8C" stroke-linecap="round" stroke-linejoin="round"/>
<path d="M398.076 399.325C398.334 399.741 398.206 400.288 397.788 400.544C397.37 400.804 396.824 400.674 396.567 400.259L394.543 396.999C394.285 396.58 394.415 396.035 394.831 395.778C395.249 395.52 395.796 395.649 396.054 396.066L398.076 399.325Z" fill="white" stroke="#213D8C" stroke-linecap="round" stroke-linejoin="round"/>
<path d="M401.875 397.044C402.134 397.46 402.005 398.009 401.587 398.264C401.169 398.523 400.623 398.395 400.366 397.977L398.342 394.72C398.083 394.3 398.214 393.754 398.63 393.497C399.048 393.241 399.594 393.368 399.853 393.785L401.875 397.044Z" fill="white" stroke="#213D8C" stroke-linecap="round" stroke-linejoin="round"/>
<path d="M405.604 395.238C405.839 395.668 405.678 396.207 405.246 396.44C404.815 396.676 404.277 396.515 404.044 396.085L402.208 392.718C401.974 392.284 402.135 391.746 402.564 391.515C402.997 391.28 403.535 391.439 403.772 391.869L405.604 395.238Z" fill="white" stroke="#213D8C" stroke-linecap="round" stroke-linejoin="round"/>
<path d="M433.343 385.001L434.128 396.549L443.898 397.638L443.353 385.001H433.343Z" fill="white" stroke="#213D8C" stroke-linecap="round" stroke-linejoin="round"/>
<path d="M445.462 405.339H411.54V407.87H445.462V405.339Z" fill="#E1EDF7" stroke="#213D8C" stroke-linecap="round" stroke-linejoin="round"/>
<path d="M419.715 400.568C419.715 400.568 419.849 398.793 421.225 398.082C422.603 397.371 430.821 392.756 431.887 392.134C432.953 391.512 433.443 390.667 434.331 390.846C435.221 391.024 436.908 393.244 434.821 394.886C432.733 396.53 420.915 402.166 420.915 402.166L419.715 400.568Z" fill="#BADBF7" stroke="#213D8C" stroke-linecap="round" stroke-linejoin="round"/>
<path d="M422.459 402.154C422.146 401.132 421.968 400.679 423.168 399.702C424.368 398.726 431.033 395.62 432.588 394.599C434.141 393.576 434.854 393.534 436.764 394.82C438.675 396.107 439.931 395.774 442.063 396.084C444.197 396.396 444.415 395.952 444.862 397.151C445.307 398.349 445.462 402.81 445.462 405.34H421.226L422.459 402.154Z" fill="white" stroke="#213D8C" stroke-linecap="round" stroke-linejoin="round"/>
<path d="M411.54 405.339C411.54 405.339 411.718 403.408 413.362 402.433C415.006 401.455 418.427 400.256 419.671 399.768C420.915 399.28 422.914 401.942 423.491 405.339H411.54Z" fill="white" stroke="#213D8C" stroke-linecap="round" stroke-linejoin="round"/>
<path d="M426.02 399.325C426.279 399.741 426.151 400.288 425.732 400.544C425.314 400.804 424.769 400.674 424.512 400.259L422.488 396.999C422.229 396.58 422.358 396.035 422.776 395.778C423.194 395.52 423.74 395.649 423.999 396.066L426.02 399.325Z" fill="white" stroke="#213D8C" stroke-linecap="round" stroke-linejoin="round"/>
<path d="M429.819 397.044C430.078 397.46 429.95 398.009 429.53 398.264C429.113 398.523 428.566 398.395 428.311 397.977L426.287 394.72C426.028 394.3 426.157 393.754 426.574 393.497C426.993 393.241 427.539 393.368 427.798 393.785L429.819 397.044Z" fill="white" stroke="#213D8C" stroke-linecap="round" stroke-linejoin="round"/>
<path d="M433.551 395.238C433.786 395.668 433.624 396.207 433.193 396.44C432.761 396.676 432.223 396.515 431.991 396.085L430.155 392.718C429.92 392.284 430.082 391.746 430.51 391.515C430.944 391.28 431.482 391.439 431.717 391.869L433.551 395.238Z" fill="white" stroke="#213D8C" stroke-linecap="round" stroke-linejoin="round"/>
<path d="M399.858 218.108C399.858 218.108 388.252 282.923 387.062 288.72C385.872 294.518 386.021 300.464 387.062 305.519C388.104 310.573 405.364 387.43 405.364 387.43H416.373C416.373 387.43 412.653 307.898 412.803 304.479C412.951 301.06 414.736 293.032 417.265 286.937C419.794 280.843 444.79 217.192 444.79 217.192L399.858 218.108Z" fill="#E1EDF7" stroke="#213D8C" stroke-linecap="round" stroke-linejoin="round"/>
<path d="M403.13 219.447C403.13 219.447 412.653 283.071 413.694 289.464C414.735 295.856 417.264 303.586 419.347 310.276C421.43 316.967 432.142 374.496 432.441 387.43H444.343C444.343 387.43 445.385 337.926 444.343 321.871C443.302 305.817 441.666 291.545 442.112 279.95C442.558 268.354 449.45 230.298 446.525 214.391L403.13 219.447Z" fill="white" stroke="#213D8C" stroke-linecap="round" stroke-linejoin="round"/>
<path d="M430.047 211.493C430.047 211.493 430.814 268.951 431.852 295.311C432.889 321.672 439.435 387.43 439.435 387.43" stroke="#213D8C" stroke-width="0.5" stroke-linecap="round" stroke-linejoin="round"/>
<path d="M421.879 212.461C423.268 225.344 428.352 235.156 430.471 238.527" stroke="#213D8C" stroke-width="0.5" stroke-linecap="round" stroke-linejoin="round"/>
<path d="M447.696 217.043C447.696 217.043 441.193 220.928 421.798 222.322C402.401 223.716 398.953 222.118 398.361 222.025L398.815 218.109L446.524 211.494L447.696 217.043Z" fill="#F7CDBA" stroke="#213D8C" stroke-linecap="round" stroke-linejoin="round"/>
<path d="M360.058 132.779C360.058 132.779 368.612 137.61 370.77 145.935L383.119 130.92C383.119 130.92 376.945 123.933 373.969 119.511L360.058 132.779Z" fill="white"/>
<path d="M373.969 119.511L360.058 132.779C360.058 132.779 365.447 135.836 368.749 141.262C373.457 133.994 375.777 127.007 376.772 123.31C375.732 121.982 374.741 120.66 373.969 119.511Z" fill="#BADBF7"/>
<path d="M360.058 132.779C360.058 132.779 368.612 137.61 370.77 145.935L383.119 130.92C383.119 130.92 376.945 123.933 373.969 119.511L360.058 132.779Z" stroke="#213D8C" stroke-linecap="round" stroke-linejoin="round"/>
<path d="M375.112 121.54C375.1 121.552 375.1 121.552 375.1 121.552C374.457 123.016 373.433 124.36 372.041 125.299C370.446 132.827 355.329 138.762 352.949 138.952C350.567 139.129 350.735 136.739 350.282 135.275C349.842 133.813 348.627 133.766 348.282 133.124C347.925 132.481 348.212 131.328 348.212 131.328C347.187 131.518 346.365 131.137 346.068 130.72C346.63 129.21 345.903 128.842 345.366 128.818C344.83 128.806 342.689 128.545 341.903 127.391C341.13 126.237 341.868 125.75 343.213 123.406C344.546 121.076 345.045 120.042 343.985 111.145C342.628 99.6803 348.747 92.7711 357.233 91.2243C366.874 89.4646 376.587 92.5451 379.182 101.714C382.801 114.573 375.481 121.207 375.112 121.54Z" fill="white"/>
<path d="M361.322 104.46C361.322 104.46 361.322 110.627 361.322 111.65C361.322 112.674 361.88 113.651 362.773 113.999C363.665 114.347 364.67 114.532 364.707 116.465C364.744 118.398 364.707 119.698 364.707 120.218C364.707 120.739 365.116 121.334 365.823 121.334C366.531 121.334 367.646 121.037 367.981 120.294C368.317 119.55 368.521 119.028 368.864 116.501C369.208 113.975 371.445 112.674 373.203 113.127C374.961 113.58 376.402 115.885 375.757 119.513C375.641 120.16 375.547 120.703 375.46 121.202C376.938 119.699 382.413 113.195 379.183 101.717C378.798 100.355 378.238 99.1428 377.562 98.0458H361.751L361.322 104.46Z" fill="#3A7FD0"/>
<path d="M366.524 120.722C366.524 120.722 366.7 120.655 366.965 120.556C367.046 120.534 367.048 120.494 367.1 120.463C367.144 120.431 367.19 120.396 367.237 120.361C367.284 120.318 367.351 120.309 367.395 120.233L367.544 120.041C367.639 119.905 367.769 119.793 367.835 119.64C367.907 119.491 367.974 119.35 368.032 119.231C368.148 118.987 368.227 118.825 368.227 118.825L368.247 118.787C368.305 118.667 368.449 118.617 368.57 118.674C368.674 118.724 368.727 118.84 368.699 118.949C368.699 118.949 368.652 119.139 368.582 119.424C368.546 119.569 368.504 119.738 368.458 119.919C368.418 120.102 368.297 120.281 368.211 120.472L368.067 120.754C368.033 120.849 367.929 120.932 367.86 121.019C367.779 121.104 367.7 121.185 367.627 121.262C367.554 121.33 367.47 121.428 367.415 121.452C367.177 121.604 367.018 121.704 367.018 121.704C366.76 121.867 366.419 121.79 366.256 121.533C366.094 121.275 366.17 120.935 366.427 120.771C366.455 120.753 366.49 120.735 366.524 120.722Z" fill="#213D8C"/>
<path d="M361.322 104.46C361.322 104.46 361.322 110.627 361.322 111.65C361.322 112.674 361.88 113.651 362.773 113.999C363.665 114.347 364.67 114.532 364.707 116.465C364.744 118.398 364.707 119.698 364.707 120.218C364.707 120.739 365.116 121.334 365.823 121.334C366.081 121.334 366.416 121.334 366.769 121.215" stroke="#213D8C" stroke-width="1.0011" stroke-linecap="round" stroke-linejoin="round"/>
<path d="M370.77 113.566C371.708 112.985 372.838 112.847 373.826 113.359C376.147 114.549 376.529 118.319 375.112 121.541C375.1 121.553 375.1 121.553 375.1 121.553C374.457 123.017 373.433 124.361 372.041 125.3C370.446 132.828 355.329 138.763 352.949 138.953C350.567 139.13 350.735 136.74 350.282 135.276C349.842 133.814 348.627 133.767 348.282 133.125C347.925 132.482 348.212 131.329 348.212 131.329C347.187 131.519 346.365 131.138 346.068 130.721C346.63 129.211 345.903 128.843 345.366 128.819C344.83 128.807 342.689 128.546 341.903 127.392C341.13 126.238 341.868 125.751 343.213 123.407C344.546 121.077 345.045 120.043 343.985 111.146C342.628 99.6813 348.747 92.7721 357.233 91.2252C366.874 89.4656 376.587 92.5461 379.182 101.715C382.8 114.573 375.48 121.208 375.111 121.54" stroke="#213D8C" stroke-linecap="round" stroke-linejoin="round"/>
<path d="M368.61 117.411C368.61 117.411 368.605 117.341 368.598 117.217C368.595 117.09 368.57 116.922 368.579 116.697C368.606 116.473 368.598 116.186 368.676 115.915C368.725 115.633 368.819 115.343 368.937 115.056C368.983 114.906 369.071 114.778 369.139 114.641C369.208 114.505 369.28 114.371 369.371 114.255C369.531 114.008 369.709 113.796 369.879 113.628C370.035 113.445 370.203 113.332 370.308 113.239C370.419 113.15 370.482 113.098 370.482 113.098C370.718 112.906 371.065 112.942 371.257 113.179C371.45 113.414 371.414 113.762 371.178 113.954C371.157 113.971 371.137 113.985 371.116 113.998L371.058 114.032C371.058 114.032 371.007 114.063 370.916 114.118C370.827 114.177 370.682 114.238 370.542 114.363C370.388 114.472 370.224 114.617 370.065 114.796C369.976 114.877 369.904 114.977 369.83 115.079C369.759 115.182 369.666 115.277 369.611 115.395C369.478 115.617 369.36 115.85 369.281 116.084C369.173 116.313 369.158 116.53 369.097 116.721C369.056 116.916 369.056 117.105 369.038 117.224C369.026 117.347 369.019 117.419 369.019 117.419C369.008 117.533 368.907 117.616 368.794 117.605C368.693 117.595 368.615 117.511 368.61 117.411Z" fill="#213D8C"/>
<path d="M347.989 130.83C347.989 130.83 348.081 130.794 348.24 130.73C348.391 130.67 348.609 130.574 348.873 130.446C349.404 130.2 350.088 129.82 350.741 129.386C351.051 129.152 351.393 128.948 351.662 128.701C351.931 128.456 352.211 128.248 352.408 128.033C352.803 127.598 353.068 127.309 353.068 127.309L353.089 127.287C353.165 127.202 353.296 127.196 353.382 127.273C353.46 127.345 353.471 127.464 353.409 127.549C353.409 127.549 353.164 127.882 352.799 128.381C352.613 128.632 352.35 128.878 352.089 129.167C351.83 129.46 351.501 129.708 351.197 129.991C350.56 130.518 349.882 130.996 349.347 131.316C349.084 131.479 348.855 131.611 348.686 131.699C348.525 131.784 348.434 131.833 348.434 131.833C348.165 131.974 347.832 131.872 347.69 131.605C347.548 131.336 347.65 131.003 347.919 130.862C347.936 130.853 347.953 130.844 347.971 130.838L347.989 130.83Z" fill="#213D8C"/>
<path d="M349.469 119.511C350.163 119.511 350.726 118.754 350.726 117.82C350.726 116.886 350.163 116.13 349.469 116.13C348.775 116.13 348.212 116.886 348.212 117.82C348.212 118.754 348.775 119.511 349.469 119.511Z" fill="#213D8C"/>
<path d="M363.652 103.592C363.652 103.592 366.084 111.471 374.465 109.39C374.465 109.39 377.292 111.818 382.648 111.47C382.648 111.47 383.044 104.04 380.664 97.7452C378.283 91.4525 373.422 89.2222 369.752 89.2715C365.686 86.3468 359.625 84.8109 352.691 87.536C344.508 90.7525 341.035 97.5455 340.837 105.027C340.674 111.243 342.226 113.997 342.226 113.997C342.226 113.997 349.469 113.602 353.932 108.547C353.932 108.547 353.633 109.685 353.782 110.925C356.509 110.033 358.792 108.448 358.792 108.448C358.792 108.448 358.89 110.231 358.989 110.875C358.989 110.875 363.553 109.241 363.652 103.592Z" fill="#3A7FD0"/>
<path d="M354.051 106.956C354.051 106.956 354.26 106.611 354.577 106.094C354.736 105.835 354.919 105.533 355.116 105.209C355.327 104.889 355.462 104.53 355.646 104.18C356.005 103.484 356.329 102.755 356.549 102.194C356.789 101.641 356.912 101.266 356.912 101.266C356.956 101.133 357.1 101.06 357.233 101.104C357.358 101.146 357.429 101.275 357.4 101.402L357.398 101.409C357.398 101.409 357.304 101.813 357.113 102.392C356.943 102.978 356.681 103.755 356.367 104.526C356.21 104.906 356.087 105.319 355.911 105.649C355.745 105.989 355.588 106.308 355.455 106.58C355.188 107.124 355.01 107.487 355.01 107.487C354.876 107.76 354.547 107.872 354.275 107.738C354.002 107.604 353.889 107.275 354.023 107.003C354.032 106.989 354.042 106.97 354.051 106.956Z" fill="#213D8C"/>
<path d="M349.816 111.649C351.235 110.838 352.632 109.749 353.782 108.288C354.045 107.953 354.295 107.594 354.531 107.221" stroke="#213D8C" stroke-linecap="round" stroke-linejoin="round"/>
<path d="M344.269 113.701C345.734 113.4 347.799 112.808 349.817 111.65" stroke="#213D8C" stroke-linecap="round" stroke-linejoin="round"/>
<path d="M376.466 110.292C376.984 110.402 377.51 110.585 378.017 110.645C378.533 110.705 379.012 110.837 379.537 110.84L380.306 110.882C380.56 110.906 380.815 110.927 381.073 110.904C381.587 110.886 382.097 110.889 382.612 110.924L382.099 111.442C382.13 110.287 382.13 109.094 382.05 107.921C382.027 107.332 381.983 106.744 381.916 106.159C381.85 105.574 381.817 104.983 381.711 104.404L381.439 102.661L381.051 100.944C380.941 100.366 380.751 99.813 380.571 99.2568C380.379 98.7215 380.245 98.0984 380.005 97.6343L379.256 96.0074C378.989 95.4841 378.643 95.0551 378.345 94.5724C378.071 94.0788 377.644 93.6838 377.269 93.256C377.073 93.0497 376.896 92.8215 376.685 92.6317L376.018 92.0986C375.795 91.923 375.578 91.7366 375.35 91.5687L374.61 91.1474C374.36 91.0125 374.123 90.8501 373.864 90.7371L373.069 90.4343C372.55 90.193 371.988 90.1129 371.438 89.9857C370.888 89.8441 370.318 89.888 369.76 89.8244L369.707 89.8189C369.606 89.8079 369.512 89.7717 369.432 89.7213C368.588 89.1859 367.762 88.6242 366.837 88.2337L366.163 87.9078L365.455 87.6643C364.977 87.5162 364.517 87.3143 364.028 87.2079C363.05 87.0039 362.077 86.7702 361.072 86.7482C360.077 86.6133 359.075 86.7406 358.075 86.7812C357.573 86.7954 357.087 86.9457 356.591 87.0203C356.102 87.1289 355.597 87.1695 355.119 87.3319L353.683 87.797L352.965 88.0285C352.763 88.0998 352.502 88.226 352.272 88.3225C351.796 88.5266 351.32 88.7306 350.895 88.9731C350.457 89.2013 350.016 89.4294 349.599 89.7114C349.17 89.9736 348.75 90.2446 348.358 90.5572C347.948 90.8468 347.561 91.1628 347.195 91.5051C346.437 92.1578 345.769 92.906 345.149 93.6882C344.83 94.0722 344.574 94.5044 344.282 94.9092C344.024 95.336 343.771 95.7682 343.533 96.207C343.088 97.1022 342.683 98.0216 342.389 98.9804C342.07 99.9315 341.849 100.916 341.685 101.907C341.514 102.899 341.435 103.906 341.391 104.914C341.403 105.893 341.348 106.991 341.454 107.963C341.51 108.959 341.64 109.966 341.837 110.948C342.017 111.919 342.322 112.927 342.702 113.734L342.735 113.804C342.863 114.077 342.746 114.403 342.473 114.532C342.199 114.662 341.874 114.545 341.746 114.272C341.242 113.215 340.967 112.221 340.762 111.168C340.554 110.126 340.418 109.082 340.358 108.018C340.25 106.935 340.306 105.962 340.294 104.879C340.339 103.826 340.423 102.773 340.602 101.73C340.773 100.687 341.007 99.6496 341.344 98.6436C341.656 97.6299 342.085 96.6535 342.558 95.7013C342.811 95.234 343.081 94.7732 343.356 94.3179C343.666 93.8846 343.942 93.426 344.282 93.0146C344.943 92.1798 345.658 91.3822 346.464 90.6856C346.854 90.3214 347.265 89.9846 347.7 89.6774C348.117 89.3461 348.563 89.0575 349.016 88.78C349.455 88.4838 349.932 88.2348 350.41 87.9879C350.886 87.7202 351.359 87.5195 351.833 87.3165C352.08 87.2123 352.283 87.1114 352.566 87.0061L353.322 86.7603L354.834 86.271C355.336 86.1021 355.871 86.0538 356.39 85.9408C356.914 85.8607 357.427 85.706 357.962 85.6896C359.024 85.6424 360.088 85.5141 361.15 85.6545C362.22 85.6808 363.26 85.9255 364.303 86.146C364.823 86.2601 365.318 86.4729 365.826 86.632L366.581 86.8942L367.303 87.2397C368.287 87.6588 369.174 88.2556 370.072 88.8316L369.744 88.7284C370.371 88.791 371.016 88.7537 371.628 88.9062C372.243 89.0444 372.868 89.1431 373.443 89.4042L374.322 89.7421C374.609 89.8683 374.871 90.0438 375.147 90.193L375.962 90.6603C376.213 90.8446 376.452 91.0476 376.698 91.2407L377.43 91.8287C377.66 92.0371 377.856 92.2829 378.07 92.5089C378.481 92.9762 378.936 93.4041 379.253 93.9592C379.585 94.488 379.979 95.0102 380.251 95.5499L381.002 97.1768C381.3 97.7813 381.406 98.3441 381.617 98.931C381.805 99.5114 382.004 100.09 382.117 100.686L382.519 102.462L382.798 104.257C382.907 104.854 382.941 105.458 383.007 106.059C383.077 106.66 383.12 107.262 383.146 107.867C383.227 109.075 383.229 110.275 383.194 111.504C383.204 111.774 382.996 112 382.73 112.02L382.681 112.023C382.132 112.062 381.578 112.068 381.027 112.053C380.474 112.066 379.93 111.905 379.387 111.821C378.845 111.753 378.308 111.537 377.783 111.369C377.246 111.216 376.805 110.925 376.313 110.702C376.204 110.653 376.155 110.525 376.204 110.416C376.247 110.322 376.35 110.272 376.448 110.293L376.466 110.292Z" fill="#213D8C"/>
<path d="M363.97 103.146C363.97 103.146 363.973 103.156 363.98 103.174C363.976 103.189 363.994 103.217 364.065 103.306C364.122 103.384 364.188 103.495 364.239 103.628C364.258 103.679 364.279 103.739 364.305 103.806C364.396 104.054 364.544 104.408 364.753 104.817C365.17 105.634 365.851 106.684 366.771 107.497C367.216 107.916 367.725 108.268 368.23 108.54C368.474 108.696 368.735 108.791 368.979 108.896C369.219 109.01 369.457 109.084 369.683 109.14C370.124 109.286 370.508 109.341 370.778 109.376C371.047 109.418 371.202 109.442 371.202 109.442L371.236 109.447C371.389 109.47 371.493 109.613 371.47 109.767C371.447 109.914 371.312 110.016 371.166 110.001C371.166 110.001 371.001 109.985 370.711 109.956C370.419 109.933 370.004 109.895 369.517 109.763C369.27 109.715 369.006 109.646 368.737 109.536C368.466 109.437 368.173 109.344 367.896 109.19C367.325 108.92 366.745 108.56 366.229 108.124C365.169 107.278 364.366 106.172 363.862 105.301C363.611 104.863 363.426 104.482 363.309 104.207C363.281 104.143 363.256 104.086 363.235 104.037C363.248 104.066 363.282 104.089 363.314 104.097C363.36 104.116 363.358 104.089 363.343 104.066C363.336 104.048 363.333 104.039 363.333 104.039L363.114 103.433C363.031 103.2 363.152 102.941 363.387 102.856C363.622 102.772 363.88 102.894 363.964 103.128C363.966 103.133 363.969 103.14 363.97 103.146Z" fill="#213D8C"/>
<path d="M358.877 110.58C358.877 110.58 359.374 110.389 360.046 109.901C360.72 109.432 361.505 108.645 362.054 107.714C362.334 107.252 362.541 106.753 362.707 106.276C362.784 106.036 362.833 105.795 362.895 105.573C362.964 105.352 362.968 105.127 363.007 104.93C363.081 104.533 363.074 104.189 363.087 103.953C363.098 103.716 363.103 103.581 363.103 103.581L363.106 103.528C363.119 103.225 363.375 102.99 363.678 103.003C363.98 103.016 364.216 103.272 364.204 103.575C364.203 103.583 364.203 103.592 364.201 103.6C364.201 103.6 364.187 103.75 364.164 104.014C364.137 104.277 364.124 104.653 364.018 105.099C363.965 105.32 363.945 105.566 363.857 105.813C363.777 106.062 363.705 106.327 363.605 106.593C363.393 107.122 363.129 107.671 362.788 108.174C362.12 109.189 361.208 110.007 360.445 110.482C359.699 110.971 359.103 111.17 359.103 111.17L359.092 111.173C358.927 111.228 358.748 111.139 358.692 110.972C358.637 110.814 358.72 110.641 358.877 110.58Z" fill="#213D8C"/>
<path d="M353.708 110.731C353.708 110.731 353.853 110.656 354.106 110.525C354.233 110.462 354.389 110.386 354.567 110.3C354.753 110.222 354.919 110.088 355.126 109.975C355.537 109.763 355.984 109.453 356.451 109.101C356.7 108.948 356.911 108.735 357.144 108.541C357.371 108.342 357.618 108.155 357.805 107.911C358.008 107.683 358.201 107.45 358.41 107.234C358.575 106.987 358.74 106.744 358.898 106.509C359.082 106.288 359.197 106.04 359.308 105.804C359.428 105.571 359.542 105.35 359.647 105.147C359.76 104.944 359.778 104.729 359.854 104.556C359.916 104.377 359.97 104.221 360.014 104.092C360.112 103.832 360.168 103.683 360.168 103.683L360.182 103.648C360.232 103.512 360.385 103.443 360.521 103.495C360.63 103.535 360.695 103.641 360.691 103.75C360.691 103.75 360.685 103.917 360.651 104.21C360.633 104.357 360.613 104.537 360.589 104.742C360.558 104.947 360.549 105.189 360.46 105.428C360.373 105.67 360.278 105.932 360.18 106.21C360.086 106.494 359.957 106.777 359.772 107.044C359.597 107.315 359.415 107.594 359.231 107.88C359.01 108.134 358.764 108.377 358.529 108.625C358.305 108.886 358.025 109.082 357.765 109.29C357.497 109.491 357.257 109.719 356.972 109.864C356.428 110.185 355.907 110.46 355.428 110.641C354.958 110.85 354.567 110.933 354.293 111.014C354.017 111.083 353.858 111.124 353.858 111.124C353.744 111.152 353.63 111.083 353.602 110.97C353.576 110.872 353.624 110.775 353.708 110.731Z" fill="#213D8C"/>
<path d="M368.183 102.589C368.183 102.589 368.567 103.167 369.212 103.969C369.535 104.367 369.916 104.821 370.347 105.28C370.783 105.733 371.259 106.199 371.782 106.604C372.042 106.807 372.297 107.018 372.578 107.181C372.844 107.367 373.114 107.537 373.393 107.67C373.662 107.824 373.929 107.956 374.196 108.057C374.458 108.171 374.708 108.283 374.952 108.345C375.194 108.424 375.416 108.496 375.613 108.561C375.817 108.605 375.995 108.642 376.141 108.673C376.437 108.74 376.61 108.788 376.61 108.788L376.632 108.794C376.723 108.82 376.777 108.914 376.75 109.006C376.73 109.074 376.673 109.12 376.607 109.129C376.607 109.129 376.429 109.153 376.109 109.177C375.79 109.204 375.326 109.239 374.773 109.158C374.491 109.14 374.194 109.083 373.884 108.992C373.57 108.916 373.24 108.829 372.922 108.675C372.257 108.43 371.616 108.023 371.018 107.575C370.71 107.36 370.457 107.083 370.179 106.843C369.926 106.58 369.678 106.317 369.466 106.043C369.029 105.506 368.69 104.956 368.436 104.469C367.933 103.495 367.775 102.764 367.775 102.764C367.748 102.643 367.822 102.522 367.944 102.494C368.037 102.472 368.132 102.514 368.183 102.589Z" fill="#213D8C"/>
<path d="M354.028 98.9968C354.028 98.9968 353.94 99.7395 353.531 100.757C353.324 101.264 353.039 101.845 352.653 102.421C352.468 102.714 352.246 102.998 352.019 103.284C351.766 103.549 351.539 103.848 351.253 104.092C350.7 104.594 350.099 105.059 349.461 105.366C349.159 105.548 348.838 105.667 348.533 105.771C348.234 105.891 347.943 105.975 347.664 106.019C347.12 106.152 346.656 106.161 346.335 106.165C346.015 106.17 345.835 106.164 345.835 106.164C345.739 106.161 345.667 106.079 345.67 105.985C345.673 105.915 345.718 105.857 345.78 105.833L345.802 105.825C345.802 105.825 345.969 105.759 346.257 105.665C346.4 105.62 346.574 105.566 346.774 105.505C346.963 105.422 347.177 105.329 347.41 105.228C347.648 105.144 347.886 105.01 348.135 104.87C348.391 104.745 348.646 104.589 348.898 104.411C349.164 104.252 349.416 104.059 349.663 103.847C349.927 103.66 350.161 103.425 350.401 103.199C350.882 102.747 351.314 102.239 351.705 101.746C352.092 101.25 352.427 100.762 352.712 100.334C353.28 99.4752 353.606 98.8641 353.606 98.8641C353.666 98.7533 353.802 98.7127 353.912 98.7708C353.994 98.8125 354.038 98.9069 354.028 98.9968Z" fill="#213D8C"/>
<path d="M373.819 103.068C373.819 103.068 374.169 103.568 374.747 104.263C375.036 104.608 375.373 105.002 375.753 105.4C376.138 105.794 376.553 106.2 377.008 106.553C377.234 106.731 377.456 106.918 377.701 107.058C377.933 107.221 378.167 107.373 378.409 107.489C378.643 107.625 378.876 107.744 379.108 107.834C379.336 107.936 379.551 108.038 379.764 108.094C380.179 108.248 380.541 108.355 380.802 108.4C381.06 108.464 381.212 108.512 381.212 108.512L381.234 108.518C381.326 108.547 381.376 108.643 381.349 108.734C381.328 108.799 381.274 108.843 381.211 108.853C381.211 108.853 381.053 108.878 380.771 108.905C380.489 108.933 380.078 108.972 379.586 108.905C379.336 108.892 379.071 108.846 378.797 108.767C378.518 108.702 378.224 108.628 377.94 108.493C377.349 108.279 376.778 107.919 376.247 107.522C375.973 107.332 375.75 107.085 375.503 106.873C375.279 106.639 375.06 106.405 374.875 106.162C374.488 105.683 374.193 105.194 373.974 104.761C373.54 103.893 373.414 103.24 373.414 103.24C373.39 103.117 373.469 102.998 373.591 102.974C373.678 102.957 373.768 102.998 373.819 103.068Z" fill="#213D8C"/>
<path d="M384.681 130.387C384.681 130.387 396.685 131.393 412.059 145.266C427.432 159.139 440.328 182.727 445.983 201.682C448.34 209.589 447.596 213.13 447.596 213.13C447.596 213.13 441.221 217.217 421.879 219.225C402.537 221.232 399.04 219.745 398.445 219.67C397.85 219.596 397.105 217.143 398.371 214.095C393.089 200.717 373.275 172.323 371.589 144.941L384.681 130.387Z" fill="#BADBF7" stroke="#213D8C" stroke-linecap="round" stroke-linejoin="round"/>
<path d="M378.01 139.883C378.01 139.883 378.978 147.571 383.119 153.158C387.26 158.747 409.731 182.309 419.226 219.486" stroke="#213D8C" stroke-width="0.5" stroke-linecap="round" stroke-linejoin="round"/>
<path d="M381.044 128.517C381.044 128.517 368.86 143.285 368.762 143.581C368.663 143.878 369.86 151.841 369.86 151.841C369.86 151.841 380.183 139.882 387.261 130.648L382.4 127.923L381.044 128.517Z" fill="#BADBF7" stroke="#213D8C" stroke-linecap="round" stroke-linejoin="round"/>
<path d="M355.601 177.522V177.51L367.647 163.511L386.942 172.18C386.942 172.18 370.278 186.987 366.398 190.115C362.54 193.242 360.102 195.075 358.97 195.466C357.827 195.859 356.09 195.075 354.209 194.122C352.316 193.183 344.484 189.769 336.544 182.884C328.617 175.998 319.333 168.268 318.738 167.864C318.143 167.472 315.023 167.864 312.787 166.032C312.442 165.746 312.107 165.474 311.799 165.212C312.573 166.901 311.049 167.186 309.943 166.771C308.823 166.366 306.848 166.032 306.597 165.401C306.336 164.773 305.216 163.321 304.693 162.274C304.169 161.239 304.431 160.312 305.443 159.562C305.492 159.527 305.551 159.48 305.61 159.431C305.61 159.431 305.181 156.97 304.992 156.067C304.813 155.186 305.099 154.069 306.075 153.617C306.24 153.547 306.503 153.414 306.825 153.26C306.598 152.048 306.885 150.43 308.229 149.717C308.894 149.372 309.835 148.789 310.609 148.29C310.609 148.29 309.621 147.052 308.979 146.268C308.324 145.47 307.538 144.769 304.063 142.045C300.587 139.322 301.527 135.706 301.98 135.361C302.434 135.015 303.313 135.111 304.705 137.146C306.099 139.18 309.192 140.784 310.609 141.95C312.371 143.4 317.001 146.803 317.596 148.052C318.191 149.288 321.667 156.424 323.952 162.275C329.558 168.044 346.711 173.669 352.364 175.844C353.591 176.322 354.661 176.879 355.601 177.522Z" fill="white"/>
<path d="M367.647 163.512L357.785 174.973C360.221 178.581 364.062 183.761 368.678 188.207C374.586 183.162 386.944 172.182 386.944 172.182L367.647 163.512Z" fill="#BADBF7"/>
<path d="M311.443 165.619C311.443 165.619 311.195 165.387 310.825 165.039C310.455 164.68 309.961 164.246 309.463 163.815C309.218 163.59 308.939 163.448 308.694 163.268C308.569 163.184 308.447 163.104 308.333 163.026C308.206 162.975 308.087 162.925 307.977 162.879C307.533 162.694 307.236 162.569 307.236 162.569L307.176 162.545C307.023 162.48 306.95 162.303 307.015 162.15C307.076 162.006 307.237 161.934 307.384 161.979C307.384 161.979 307.724 162.085 308.233 162.244C308.361 162.285 308.501 162.33 308.648 162.377C308.785 162.443 308.923 162.524 309.07 162.603C309.355 162.771 309.695 162.92 309.971 163.128C310.536 163.534 311.097 163.946 311.487 164.261C311.887 164.573 312.152 164.782 312.152 164.782L312.158 164.785C312.397 164.971 312.439 165.317 312.251 165.556C312.065 165.795 311.72 165.837 311.48 165.651C311.468 165.641 311.455 165.63 311.443 165.619Z" fill="#213D8C"/>
<path d="M355.6 177.511L367.647 163.512L386.942 172.181C386.942 172.181 370.277 186.988 366.397 190.116C362.54 193.244 360.101 195.076 358.969 195.467C357.826 195.86 356.089 195.076 354.208 194.123C352.315 193.184 344.483 189.77 336.543 182.885C328.616 175.999 319.332 168.269 318.737 167.865C318.142 167.473 315.023 167.865 312.786 166.033C312.441 165.747 312.106 165.475 311.798 165.213" stroke="#213D8C" stroke-linecap="round" stroke-linejoin="round"/>
<path d="M355.601 177.522C354.661 176.879 353.59 176.32 352.364 175.844C346.71 173.669 329.557 168.044 323.952 162.275C321.667 156.424 318.191 149.288 317.595 148.052C317 146.803 312.37 143.401 310.609 141.95C309.191 140.784 306.098 139.18 304.705 137.146C303.312 135.112 302.432 135.016 301.98 135.361C301.527 135.705 300.586 139.321 304.063 142.045C307.538 144.768 308.324 145.47 308.978 146.268C309.621 147.052 310.609 148.29 310.609 148.29" stroke="#213D8C" stroke-linecap="round" stroke-linejoin="round"/>
<path d="M361.428 185.38C361.428 185.38 361.361 185.239 361.244 184.992C361.127 184.746 360.964 184.388 360.741 183.986C360.535 183.573 360.257 183.112 359.954 182.621C359.81 182.372 359.624 182.139 359.456 181.889C359.287 181.639 359.106 181.393 358.904 181.164C358.53 180.681 358.108 180.245 357.702 179.847C357.307 179.44 356.871 179.132 356.535 178.833C355.797 178.308 355.296 177.978 355.296 177.978L355.267 177.958C355.014 177.79 354.944 177.45 355.112 177.197C355.279 176.944 355.62 176.874 355.873 177.041C355.884 177.048 355.895 177.057 355.905 177.064C355.905 177.064 356.421 177.46 357.163 178.079C357.502 178.426 357.936 178.789 358.325 179.252C358.723 179.705 359.131 180.198 359.485 180.733C359.677 180.988 359.847 181.258 360.002 181.531C360.158 181.803 360.332 182.058 360.461 182.327C360.735 182.854 360.985 183.349 361.165 183.789C361.364 184.222 361.497 184.587 361.596 184.841C361.694 185.096 361.752 185.242 361.752 185.242C361.786 185.332 361.742 185.433 361.652 185.468C361.564 185.501 361.467 185.461 361.428 185.38Z" fill="#213D8C"/>
<path d="M305.61 159.432C305.549 159.481 305.491 159.528 305.443 159.563C304.431 160.313 304.169 161.239 304.693 162.275C305.217 163.321 306.336 164.773 306.597 165.403C306.847 166.033 308.823 166.367 309.943 166.772C311.049 167.187 312.573 166.902 311.798 165.213V165.201" stroke="#213D8C" stroke-linecap="round" stroke-linejoin="round"/>
<path d="M310.27 155.724L305.963 159.854C305.743 160.064 305.394 160.057 305.184 159.837C304.974 159.618 304.981 159.27 305.201 159.06C305.215 159.048 305.227 159.036 305.241 159.025L305.258 159.013L309.948 155.34C310.058 155.255 310.215 155.273 310.301 155.383C310.38 155.485 310.369 155.63 310.278 155.718L310.27 155.724Z" fill="#213D8C"/>
<path d="M307.031 153.157C306.96 153.194 306.89 153.226 306.824 153.26C306.503 153.415 306.241 153.547 306.074 153.617C305.097 154.069 304.813 155.187 304.992 156.067C305.182 156.97 305.61 159.431 305.61 159.431" stroke="#213D8C" stroke-linecap="round" stroke-linejoin="round"/>
<path d="M310.994 151.379L307.276 153.648C307.017 153.807 306.678 153.724 306.52 153.464C306.36 153.204 306.443 152.867 306.702 152.707C306.727 152.692 306.758 152.678 306.783 152.667L310.818 151.028C310.919 150.987 311.034 151.036 311.074 151.137C311.112 151.228 311.076 151.33 310.994 151.379Z" fill="#213D8C"/>
<path d="M310.721 148.216C310.683 148.24 310.646 148.264 310.608 148.289C309.834 148.788 308.893 149.37 308.227 149.716C306.882 150.429 306.597 152.047 306.823 153.259" stroke="#213D8C" stroke-linecap="round" stroke-linejoin="round"/>
<path d="M312.536 147.649C312.536 147.649 312.433 147.71 312.28 147.801C312.12 147.89 311.919 148.015 311.743 148.155C311.38 148.417 311.019 148.679 311.019 148.679L310.954 148.725C310.705 148.906 310.357 148.85 310.176 148.601C309.995 148.352 310.051 148.004 310.3 147.823C310.338 147.795 310.383 147.772 310.426 147.754C310.426 147.754 310.903 147.571 311.377 147.389C311.613 147.292 311.842 147.223 312.015 147.179C312.187 147.131 312.303 147.098 312.303 147.098C312.463 147.053 312.63 147.146 312.675 147.307C312.712 147.44 312.65 147.581 312.536 147.649Z" fill="#213D8C"/>
<path d="M378.306 145.295C374.695 148.243 360.675 170.195 360.675 170.195L378.627 186.25C378.627 186.25 389.02 176.291 394.525 167.297C400.03 158.304 396.847 149.708 391.995 145.667C387.531 141.951 381.019 143.083 378.306 145.295Z" fill="#BADBF7" stroke="#213D8C" stroke-linecap="round" stroke-linejoin="round"/>
<path d="M361.718 166.033L357.77 172.034C357.77 172.034 367.631 181.783 376.856 188.992L382.249 184.095C371.834 175.993 368.933 173.466 361.718 166.033Z" fill="#E1EDF7" stroke="#213D8C" stroke-linecap="round" stroke-linejoin="round"/>
<path d="M389.964 234.758H110.298V241.596H389.964V234.758Z" fill="#F7CDBA" stroke="#213D8C" stroke-linecap="round" stroke-linejoin="round"/>
<path d="M118.5 407.87H112.967L144.983 241.597H160.743L118.5 407.87Z" fill="#F7CDBA" stroke="#213D8C" stroke-linecap="round" stroke-linejoin="round"/>
<path d="M381.762 407.87H387.296L355.278 241.597H339.52L381.762 407.87Z" fill="#F7CDBA" stroke="#213D8C" stroke-linecap="round" stroke-linejoin="round"/>
<path d="M50.7256 407.87H498.275" stroke="#213D8C" stroke-linecap="round" stroke-linejoin="round"/>
<path d="M196.164 78.8792C196.164 55.6611 174.139 36.8401 146.973 36.8401C119.806 36.8401 97.7832 55.6611 97.7832 78.8792C97.7832 102.096 119.806 120.918 146.973 120.918C149.444 120.918 151.867 120.709 154.248 120.455C156.531 120.212 157.641 120.601 158.806 121.359C165.474 125.698 173.194 129.379 180.781 129.379C182.963 129.379 183.906 128.385 182.815 127.028C182.054 126.083 176.02 121.277 175.828 115.653C175.755 113.514 177.307 111.974 178.149 111.383C189.144 103.675 196.164 91.9813 196.164 78.8792Z" fill="white" stroke="#213D8C" stroke-linecap="round" stroke-linejoin="round"/>
<path d="M140.601 101.955C138.539 101.955 136.563 101.137 135.104 99.6792L122.356 86.9425C119.321 83.9102 119.321 78.9932 122.359 75.9588C125.393 72.9276 130.315 72.9265 133.351 75.9599L140.602 83.2048L160.601 63.2253C163.635 60.1897 168.559 60.1897 171.593 63.2253C174.629 66.2575 174.629 71.1734 171.593 74.2057L146.098 99.6792C144.639 101.136 142.662 101.955 140.601 101.955Z" fill="#51B29C"/>
<path d="M380.854 72.073C380.854 48.8561 402.879 30.035 430.046 30.035C457.213 30.035 479.235 48.8561 479.235 72.073C479.235 95.2899 457.213 114.113 430.046 114.113C427.574 114.113 425.152 113.903 422.772 113.649C420.488 113.407 419.378 113.796 418.213 114.554C411.544 118.893 403.825 122.574 396.237 122.574C394.056 122.574 393.113 121.58 394.204 120.223C394.965 119.277 400.998 114.472 401.191 108.848C401.263 106.709 399.712 105.168 398.869 104.578C387.875 96.8697 380.854 85.1751 380.854 72.073Z" fill="white" stroke="#213D8C" stroke-linecap="round" stroke-linejoin="round"/>
<path d="M476.019 37.8735L487.338 36.6053C489.994 36.3025 492.387 38.2146 492.685 40.8629C492.983 43.5134 491.075 45.9039 488.423 46.2023C487.661 46.2868 486.899 46.1825 486.225 45.9412L475.518 42.0412C474.399 41.6363 473.822 40.3989 474.231 39.2777C474.521 38.4845 475.229 37.9645 476.019 37.8735Z" fill="#FFD373" stroke="#213D8C" stroke-linecap="round" stroke-linejoin="round"/>
<path d="M470.255 29.7663L474.813 19.3333C475.882 16.8869 478.733 15.7723 481.179 16.8386C483.625 17.906 484.742 20.754 483.676 23.196C483.367 23.8992 482.899 24.5037 482.351 24.9645L473.618 32.2796C472.705 33.0465 471.343 32.9258 470.578 32.0152C470.035 31.368 469.937 30.4914 470.255 29.7663Z" fill="#FFD373" stroke="#213D8C" stroke-linecap="round" stroke-linejoin="round"/>
<path d="M460.344 30.6988L453.581 21.5351C451.996 19.386 452.456 16.3636 454.602 14.7816C456.749 13.1975 459.778 13.6528 461.36 15.803C461.813 16.4163 462.103 17.126 462.232 17.8315L464.205 29.0433C464.412 30.2183 463.631 31.3351 462.457 31.5402C461.622 31.6883 460.814 31.3351 460.344 30.6988Z" fill="#FFD373" stroke="#213D8C" stroke-linecap="round" stroke-linejoin="round"/>
<path d="M436.91 42.4646C447.856 45.4771 454.283 56.7877 451.268 67.7232C447.465 81.512 437.924 79.7699 429.069 92.3926C428.015 92.0975 425.264 91.3438 423.557 90.8732C421.853 90.4047 419.102 89.6478 418.047 89.3571C416.913 73.9852 407.825 70.5996 411.627 56.8108C414.648 45.8743 425.962 39.451 436.91 42.4646Z" fill="#FFD373" stroke="#213D8C" stroke-linecap="round" stroke-linejoin="round"/>
<path d="M441.51 74.5962C440.644 73.8096 440.57 72.4745 441.349 71.5979C442.669 70.1103 443.568 68.3243 444.266 65.7956C444.513 64.8971 444.666 63.9756 444.727 63.0519C444.797 61.8769 445.812 60.9828 446.99 61.0564C448.17 61.1288 449.062 62.1413 448.989 63.3174C448.916 64.534 448.713 65.7495 448.385 66.9322C447.505 70.1213 446.321 72.435 444.54 74.436C443.758 75.3158 442.409 75.3959 441.525 74.6137C441.52 74.6061 441.515 74.6017 441.51 74.5962Z" fill="#F2FCFF" stroke="#213D8C" stroke-linecap="round" stroke-linejoin="round"/>
<path d="M444.507 58.5277C444.259 58.3028 444.063 58.0165 443.938 57.6819C443.864 57.4757 443.781 57.2716 443.693 57.0665C443.231 55.9848 443.733 54.7297 444.817 54.2646C445.901 53.8005 447.155 54.3041 447.622 55.3891C447.737 55.66 447.847 55.9332 447.947 56.2097C448.356 57.3155 447.787 58.542 446.681 58.949C445.909 59.2331 445.079 59.0412 444.507 58.5277Z" fill="#F2FCFF" stroke="#213D8C" stroke-linecap="round" stroke-linejoin="round"/>
<path d="M432.985 86.6407C432.903 85.6117 431.727 84.5377 430.363 84.1625L421.152 81.6272C419.784 81.2509 418.234 81.5712 417.631 82.4116L417.073 83.1938C417.53 85.0324 417.878 87.0587 418.048 89.3581C419.103 89.6488 421.854 90.4058 423.558 90.8742C425.265 91.3449 428.016 92.0986 429.07 92.3937C430.396 90.5045 431.733 88.9434 433.067 87.6006L432.985 86.6407Z" fill="#F2FCFF" stroke="#213D8C" stroke-linecap="round" stroke-linejoin="round"/>
<path d="M425.162 98.2136C425.646 98.3463 425.874 98.8345 425.667 99.2931L422.824 105.205C422.617 105.665 422.051 105.931 421.565 105.797L418.061 104.832C417.572 104.699 417.221 104.179 417.279 103.677L417.869 97.1461C417.927 96.6448 418.371 96.3453 418.858 96.4813L425.162 98.2136Z" fill="#7096B5" stroke="#213D8C" stroke-linecap="round" stroke-linejoin="round"/>
<path d="M430.528 89.4009C431.435 89.6477 431.862 90.5539 431.474 91.4063L426.17 102.444C425.783 103.299 424.726 103.795 423.819 103.546L417.275 101.745C416.366 101.496 415.713 100.527 415.82 99.5958L416.921 87.4042C417.031 86.4685 417.859 85.9112 418.765 86.1602L430.528 89.4009Z" fill="#BADBF7" stroke="#213D8C" stroke-linecap="round" stroke-linejoin="round"/>
<path d="M432.848 90.8117C432.644 91.55 431.878 91.9833 431.141 91.7804L416.584 87.7728C415.842 87.571 415.409 86.8063 415.614 86.068C415.819 85.3264 416.581 84.8953 417.321 85.0982L431.878 89.1047C432.617 89.3054 433.05 90.0723 432.848 90.8117Z" fill="#F2FCFF" stroke="#213D8C" stroke-linecap="round" stroke-linejoin="round"/>
<path d="M431.511 93.958C431.309 94.6986 430.543 95.1319 429.804 94.9267L416.119 91.1606C415.379 90.9565 414.944 90.1919 415.146 89.4524C415.353 88.7152 416.117 88.2808 416.856 88.4837L430.541 92.251C431.282 92.4551 431.715 93.2197 431.511 93.958Z" fill="#F2FCFF" stroke="#213D8C" stroke-linecap="round" stroke-linejoin="round"/>
<path d="M430.175 97.1065C429.971 97.8427 429.207 98.276 428.467 98.0742L415.651 94.546C414.911 94.342 414.48 93.5773 414.682 92.8401C414.885 92.1007 415.649 91.6663 416.389 91.8703L429.207 95.3995C429.945 95.6036 430.382 96.3649 430.175 97.1065Z" fill="#F2FCFF" stroke="#213D8C" stroke-linecap="round" stroke-linejoin="round"/>
<path d="M428.84 100.25C428.636 100.991 427.873 101.425 427.132 101.222L415.187 97.9337C414.442 97.7296 414.013 96.9661 414.215 96.2256C414.42 95.4895 415.183 95.0539 415.921 95.2558L427.871 98.5437C428.612 98.7477 429.047 99.5124 428.84 100.25Z" fill="#F2FCFF" stroke="#213D8C" stroke-linecap="round" stroke-linejoin="round"/>
<path d="M279.759 108.291H277.304V105.841C277.304 105.052 276.665 104.411 275.873 104.411C275.083 104.411 274.442 105.052 274.442 105.841V108.291H271.989C271.2 108.291 270.559 108.932 270.559 109.721C270.559 110.51 271.2 111.151 271.989 111.151H274.442V113.603C274.442 114.392 275.083 115.033 275.873 115.033C276.665 115.033 277.304 114.392 277.304 113.603V111.151H279.759C280.548 111.151 281.189 110.51 281.189 109.721C281.189 108.932 280.548 108.291 279.759 108.291Z" fill="#BADBF7"/>
<path d="M331.41 205.332H328.955V202.882C328.955 202.092 328.316 201.452 327.524 201.452C326.735 201.452 326.094 202.092 326.094 202.882V205.332H323.641C322.851 205.332 322.21 205.973 322.21 206.762C322.21 207.551 322.851 208.192 323.641 208.192H326.094V210.644C326.094 211.433 326.735 212.073 327.524 212.073C328.316 212.073 328.955 211.433 328.955 210.644V208.192H331.41C332.2 208.192 332.841 207.551 332.841 206.762C332.841 205.973 332.2 205.332 331.41 205.332Z" fill="#FFD373"/>
<path d="M344.101 43.4543L342.363 41.7198L344.098 39.9865C344.657 39.4292 344.658 38.5241 344.098 37.9646C343.541 37.4073 342.634 37.4073 342.075 37.9657L340.341 39.698L338.606 37.9646C338.048 37.4073 337.141 37.4073 336.584 37.9646C336.024 38.523 336.024 39.4292 336.582 39.9865L338.317 41.7198L336.581 43.4543C336.024 44.0116 336.024 44.9177 336.581 45.4761C337.141 46.0345 338.046 46.0334 338.605 45.4761L340.34 43.7417L342.076 45.4761C342.635 46.0345 343.542 46.0345 344.101 45.4761C344.658 44.9177 344.658 44.0116 344.101 43.4543Z" fill="#8E47AD"/>
<path d="M474.1 201.042C476.766 201.042 478.927 198.882 478.927 196.219C478.927 193.555 476.766 191.396 474.1 191.396C471.434 191.396 469.273 193.555 469.273 196.219C469.273 198.882 471.434 201.042 474.1 201.042Z" stroke="#8E47AD" stroke-miterlimit="10"/>
<path d="M166.977 337.427C169.643 337.427 171.804 335.268 171.804 332.604C171.804 329.941 169.643 327.782 166.977 327.782C164.311 327.782 162.15 329.941 162.15 332.604C162.15 335.268 164.311 337.427 166.977 337.427Z" stroke="#8E47AD" stroke-miterlimit="10"/>
<path d="M218.09 47.9006L223.001 50.3986L218.38 53.398L218.09 47.9006Z" stroke="#2E7EFB" stroke-miterlimit="10" stroke-linejoin="round"/>
<path d="M328.723 280.888L333.632 283.386L329.011 286.386L328.723 280.888Z" stroke="#2E7EFB" stroke-miterlimit="10" stroke-linejoin="round"/>
<path d="M86.2197 172.214C90.5942 172.214 90.5942 176.327 94.9719 176.327C99.3496 176.327 99.3485 172.214 103.728 172.214C108.108 172.214 108.107 176.327 112.485 176.327C116.864 176.327 116.864 172.214 121.242 172.214C125.623 172.214 125.623 176.327 130.004 176.327C134.382 176.327 134.382 172.214 138.765 172.214" stroke="#8E47AD" stroke-miterlimit="10"/>
<path d="M435.459 143.878C439.836 143.878 439.836 147.992 444.213 147.992C448.591 147.992 448.59 143.878 452.968 143.878C457.347 143.878 457.347 147.992 461.726 147.992C466.103 147.992 466.103 143.878 470.481 143.878C474.864 143.878 474.864 147.992 479.245 147.992C483.624 147.992 483.624 143.878 488.006 143.878" stroke="#2E7EFB" stroke-miterlimit="10" stroke-linecap="round" stroke-linejoin="round"/>
</svg>
