<svg width="744" height="614" viewBox="0 0 744 614" fill="none" xmlns="http://www.w3.org/2000/svg">
<circle cx="353" cy="315" r="125" fill="url(#paint0_linear_607_1299)"/>
<circle cx="353.5" cy="314.5" r="100.5" stroke="white" stroke-opacity="0.3" stroke-width="2" stroke-dasharray="2 2"/>
<path d="M353 191L324.132 141L381.868 141L353 191ZM348 146L348 86L358 86L358 146L348 146Z" fill="#3A7FD0"/>
<path d="M442 228.246L497.768 213.303L456.943 172.478L442 228.246ZM477.355 199.962L519.782 157.535L512.711 150.464L470.284 192.891L477.355 199.962Z" fill="#3A7FD0"/>
<path d="M442 401L478.784 445.5L498.93 391.394L442 401ZM482.427 421.388L534.255 440.686L537.745 431.314L485.916 412.016L482.427 421.388Z" fill="#3A7FD0"/>
<path d="M264.246 228.246L208.478 213.303L249.303 172.478L264.246 228.246ZM228.891 199.962L186.464 157.535L193.535 150.464L235.962 192.891L228.891 199.962Z" fill="#3A7FD0"/>
<path d="M264.246 401L206.818 395.05L230.38 447.759L264.246 401ZM221.123 414.8L174.96 435.435L179.04 444.565L225.204 423.929L221.123 414.8Z" fill="#3A7FD0"/>
<path d="M324.145 438L278.303 473.098L331.62 495.249L324.145 438ZM302.262 477.638L283.383 523.082L292.617 526.918L311.497 481.475L302.262 477.638Z" fill="#3A7FD0"/>
<path d="M390 438L435.841 473.098L382.525 495.249L390 438ZM411.882 477.638L430.762 523.082L421.527 526.918L402.647 481.475L411.882 477.638Z" fill="#3A7FD0"/>
<path d="M477 315L527 286.132L527 343.868L477 315ZM522 310L582 310L582 320L522 320L522 310Z" fill="#3A7FD0"/>
<path d="M229 315L179 286.132L179 343.868L229 315ZM184 310L124 310L124 320L184 320L184 310Z" fill="#3A7FD0"/>
<path d="M332.826 364.852H327.225L324.841 368.739H321.645L331.113 353.93H341.483V356.315H335.462V359.952H341.103V362.337H335.462V366.355H341.734V368.739H332.826V364.852ZM332.826 362.597V356.325H332.516L328.608 362.597H332.836H332.826Z" fill="white"/>
<path d="M342.926 360.844V358.71H345V355.804H347.505V358.71H350.26V360.844H347.505V365.233C347.505 365.734 347.595 366.135 347.785 366.425C347.976 366.716 348.346 366.866 348.907 366.866C349.128 366.866 349.378 366.846 349.639 366.796C349.899 366.746 350.11 366.666 350.27 366.555V368.67C350.01 368.79 349.679 368.88 349.298 368.93C348.917 368.98 348.577 369 348.286 369C347.615 369 347.074 368.93 346.643 368.78C346.222 368.63 345.882 368.409 345.641 368.109C345.401 367.808 345.23 367.437 345.14 366.986C345.05 366.535 345 366.024 345 365.443V360.844H342.926Z" fill="white"/>
<path d="M354.761 360.113H354.801C355.001 359.692 355.342 359.311 355.833 358.97C356.324 358.63 356.965 358.459 357.746 358.459C358.418 358.459 358.979 358.569 359.45 358.79C359.921 359.01 360.301 359.311 360.592 359.672C360.882 360.032 361.093 360.453 361.223 360.924C361.343 361.395 361.414 361.896 361.414 362.407V368.739H358.909V363.659C358.909 363.379 358.899 363.068 358.869 362.728C358.838 362.387 358.768 362.066 358.648 361.766C358.528 361.465 358.348 361.215 358.097 361.014C357.847 360.814 357.506 360.714 357.075 360.714C356.644 360.714 356.304 360.784 356.023 360.924C355.732 361.064 355.502 361.255 355.312 361.485C355.121 361.726 354.991 361.996 354.901 362.297C354.821 362.607 354.771 362.928 354.771 363.259V368.739H352.266V352.928H354.771V360.102L354.761 360.113Z" fill="white"/>
<path d="M363.758 363.73C363.758 362.938 363.898 362.217 364.189 361.565C364.479 360.914 364.86 360.363 365.351 359.902C365.842 359.441 366.413 359.09 367.084 358.84C367.756 358.589 368.467 358.459 369.218 358.459C369.97 358.459 370.681 358.589 371.353 358.84C372.024 359.09 372.605 359.451 373.086 359.902C373.567 360.353 373.958 360.914 374.248 361.565C374.539 362.217 374.679 362.938 374.679 363.73C374.679 364.521 374.539 365.243 374.248 365.894C373.958 366.545 373.577 367.096 373.086 367.557C372.595 368.018 372.024 368.369 371.353 368.619C370.681 368.87 369.97 369 369.218 369C368.467 369 367.756 368.88 367.084 368.619C366.413 368.369 365.832 368.008 365.351 367.557C364.86 367.096 364.479 366.545 364.189 365.894C363.898 365.243 363.758 364.521 363.758 363.73ZM366.263 363.73C366.263 364.12 366.333 364.501 366.463 364.862C366.593 365.222 366.794 365.543 367.044 365.824C367.305 366.104 367.615 366.325 367.976 366.495C368.337 366.665 368.748 366.745 369.208 366.745C369.669 366.745 370.08 366.665 370.441 366.495C370.802 366.325 371.112 366.104 371.373 365.824C371.633 365.543 371.824 365.222 371.954 364.862C372.084 364.501 372.154 364.12 372.154 363.73C372.154 363.339 372.084 362.968 371.954 362.597C371.824 362.237 371.623 361.916 371.373 361.635C371.122 361.355 370.802 361.134 370.441 360.964C370.08 360.794 369.669 360.714 369.208 360.714C368.748 360.714 368.337 360.794 367.976 360.964C367.615 361.134 367.305 361.355 367.044 361.635C366.784 361.916 366.593 362.237 366.463 362.597C366.333 362.958 366.263 363.339 366.263 363.73Z" fill="white"/>
<path d="M382.362 361.485C381.871 360.804 381.219 360.463 380.398 360.463C380.067 360.463 379.736 360.543 379.416 360.714C379.095 360.884 378.935 361.155 378.935 361.525C378.935 361.836 379.065 362.056 379.336 362.197C379.596 362.337 379.937 362.457 380.338 362.547C380.738 362.647 381.179 362.748 381.64 362.848C382.101 362.948 382.542 363.108 382.943 363.329C383.344 363.549 383.684 363.84 383.945 364.22C384.205 364.601 384.345 365.112 384.345 365.764C384.345 366.365 384.215 366.866 383.955 367.276C383.694 367.687 383.364 368.018 382.953 368.268C382.542 368.519 382.081 368.699 381.56 368.809C381.049 368.92 380.528 368.98 380.017 368.98C379.235 368.98 378.514 368.87 377.863 368.649C377.212 368.429 376.62 368.018 376.109 367.437L377.783 365.864C378.103 366.224 378.444 366.525 378.815 366.755C379.185 366.986 379.636 367.096 380.167 367.096C380.348 367.096 380.538 367.076 380.728 367.036C380.919 366.996 381.109 366.926 381.269 366.826C381.44 366.725 381.57 366.605 381.68 366.455C381.78 366.305 381.841 366.134 381.841 365.944C381.841 365.593 381.71 365.333 381.44 365.172C381.169 365.012 380.839 364.872 380.438 364.762C380.037 364.651 379.596 364.561 379.135 364.471C378.664 364.381 378.234 364.231 377.833 364.03C377.432 363.83 377.091 363.549 376.831 363.188C376.57 362.828 376.43 362.327 376.43 361.686C376.43 361.124 376.55 360.644 376.771 360.233C376.991 359.822 377.302 359.481 377.682 359.221C378.063 358.96 378.494 358.76 378.975 358.64C379.456 358.519 379.957 358.449 380.458 358.449C381.129 358.449 381.79 358.569 382.442 358.79C383.093 359.02 383.624 359.411 384.035 359.972L382.362 361.475V361.485Z" fill="white"/>
<g clip-path="url(#clip0_607_1299)">
<path d="M334.714 325.684L324.074 343.041H361.579V325.684H334.714Z" fill="white"/>
<path d="M394.042 284.786H374.203V302.226H394.042V284.786Z" fill="white"/>
<path d="M394.042 313.656H374.203V332.904H394.042V313.656Z" fill="white"/>
<path d="M394.041 273.362V266.181C394.041 263.321 391.721 261.006 388.866 261.006H317.175C314.321 261 312 263.321 312 266.175V337.866C312 337.905 312 337.944 312 337.982L353.355 273.362H394.041Z" fill="white"/>
<path d="M341.328 314.859H361.578V284.786H360.074L341.328 314.859Z" fill="white"/>
</g>
<path d="M271.584 54V41.256H279.594V42.66H273.096V46.656H279.162V48.06H273.096V52.596H279.918V54H271.584ZM284.648 54.216C282.812 54.216 281.516 53.244 281.516 51.714C281.516 49.77 282.974 48.762 286.718 48.762H287.366V48.528C287.366 47.286 286.592 46.656 285.278 46.656C284.36 46.656 283.442 46.944 282.776 47.574L281.894 46.656C282.758 45.792 284 45.36 285.242 45.36C287.672 45.36 288.77 46.53 288.77 48.834V52.614C288.77 52.902 288.806 53.424 288.896 54H287.546C287.474 53.784 287.456 53.46 287.456 52.74H287.42C286.79 53.694 285.818 54.216 284.648 54.216ZM285.818 49.95C284.162 49.95 283.028 50.472 283.028 51.57C283.028 52.524 283.694 53.028 284.882 53.028C286.34 53.028 287.366 52.074 287.366 50.274V49.95H285.818ZM295.476 45.36C295.692 45.36 295.854 45.378 296.052 45.45L295.962 46.872C295.692 46.8 295.476 46.764 295.206 46.764C293.586 46.764 292.74 47.88 292.74 49.824V54H291.336V47.448C291.336 46.89 291.264 46.08 291.264 45.576H292.596C292.596 46.098 292.632 46.404 292.632 46.962H292.668C293.118 46.008 294.234 45.36 295.476 45.36ZM299.194 40.392V54H297.79V40.392H299.194ZM300.836 45.576H302.474L305.084 52.182H305.12L307.622 45.576H309.152L305.03 56.07C304.346 57.816 303.572 58.32 302.276 58.32C301.808 58.32 301.394 58.266 301.016 58.104L301.196 56.88C301.484 57.006 301.808 57.024 302.186 57.024C302.888 57.024 303.356 56.7 303.698 55.782L304.328 54.054L300.836 45.576ZM314.542 49.032V50.328H310.132V49.032H314.542ZM320.644 40.932C322.066 40.932 323.254 41.328 324.208 42.426L322.966 43.506C322.462 42.696 321.562 42.336 320.644 42.336C319.042 42.336 317.926 43.164 317.926 44.478C317.926 45.72 318.736 46.26 320.662 46.836C323.578 47.7 324.424 48.78 324.424 50.598C324.424 52.884 322.534 54.324 319.942 54.324C318.196 54.324 316.756 53.658 316.018 52.56L317.314 51.498C317.872 52.416 318.898 52.92 320.032 52.92C321.454 52.92 322.804 52.038 322.804 50.706C322.804 48.996 321.436 48.798 319.294 48.06C317.116 47.304 316.306 46.278 316.306 44.604C316.306 42.39 318.142 40.932 320.644 40.932ZM327.388 46.764H325.552V45.576H327.388V43.182H328.792V45.576H331.276V46.764H328.792V51.264C328.792 52.614 329.242 52.92 330.052 52.92C330.466 52.92 330.934 52.83 331.294 52.632L331.348 53.91C330.844 54.126 330.232 54.216 329.71 54.216C328.09 54.216 327.388 53.568 327.388 51.48V46.764ZM335.642 54.216C333.806 54.216 332.51 53.244 332.51 51.714C332.51 49.77 333.968 48.762 337.712 48.762H338.36V48.528C338.36 47.286 337.586 46.656 336.272 46.656C335.354 46.656 334.436 46.944 333.77 47.574L332.888 46.656C333.752 45.792 334.994 45.36 336.236 45.36C338.666 45.36 339.764 46.53 339.764 48.834V52.614C339.764 52.902 339.8 53.424 339.89 54H338.54C338.468 53.784 338.45 53.46 338.45 52.74H338.414C337.784 53.694 336.812 54.216 335.642 54.216ZM336.812 49.95C335.156 49.95 334.022 50.472 334.022 51.57C334.022 52.524 334.688 53.028 335.876 53.028C337.334 53.028 338.36 52.074 338.36 50.274V49.95H336.812ZM341.844 49.788C341.844 47.106 343.59 45.36 346.308 45.36C347.586 45.36 348.792 46.008 349.296 47.016H349.332V45.576H350.736V53.712C350.736 56.538 349.188 58.32 346.146 58.32C344.508 58.32 343.176 57.888 342.006 56.718L343.014 55.566C343.896 56.52 344.85 57.024 346.146 57.024C348.288 57.024 349.332 55.854 349.332 53.64V52.542H349.296C348.666 53.532 347.568 54.108 346.308 54.108C343.716 54.108 341.844 52.29 341.844 49.788ZM346.308 46.656C344.616 46.656 343.356 47.988 343.356 49.788C343.356 51.48 344.67 52.812 346.326 52.812C348.144 52.812 349.332 51.48 349.332 49.752C349.332 47.934 348.108 46.656 346.308 46.656ZM357.168 45.36C359.364 45.36 361.164 46.746 361.164 49.878V50.22H354.36C354.504 51.786 355.656 52.92 357.132 52.92C358.302 52.92 359.13 52.506 359.796 51.642L360.858 52.47C359.976 53.622 358.842 54.216 357.132 54.216C354.522 54.216 352.848 52.308 352.848 49.788C352.848 47.196 354.666 45.36 357.168 45.36ZM359.652 49.032C359.58 47.574 358.662 46.656 357.096 46.656C355.656 46.656 354.576 47.502 354.36 49.032H359.652ZM370.11 41.256V54H368.598V41.256H370.11ZM372.949 45.576H374.281C374.281 46.098 374.317 46.404 374.317 46.962H374.353C374.803 46.008 375.919 45.36 377.161 45.36C379.303 45.36 380.365 46.692 380.365 48.726V54H378.961V48.888C378.961 47.592 378.385 46.656 377.035 46.656C375.307 46.656 374.425 47.862 374.425 49.878V54H373.021V47.448C373.021 46.89 372.949 46.08 372.949 45.576ZM381.871 45.576H383.509L386.137 52.182H386.173L388.675 45.576H390.187L386.857 54H385.309L381.871 45.576ZM395.541 45.36C397.737 45.36 399.537 46.746 399.537 49.878V50.22H392.733C392.877 51.786 394.029 52.92 395.505 52.92C396.675 52.92 397.503 52.506 398.169 51.642L399.231 52.47C398.349 53.622 397.215 54.216 395.505 54.216C392.895 54.216 391.221 52.308 391.221 49.788C391.221 47.196 393.039 45.36 395.541 45.36ZM398.025 49.032C397.953 47.574 397.035 46.656 395.469 46.656C394.029 46.656 392.949 47.502 392.733 49.032H398.025ZM404.283 45.36C405.579 45.36 406.623 45.9 407.145 46.89L405.975 47.664C405.615 47.07 405.039 46.656 404.193 46.656C403.257 46.656 402.537 47.124 402.537 47.826C402.537 48.384 403.203 48.78 404.643 49.05C406.659 49.428 407.415 50.202 407.415 51.57C407.415 53.226 406.083 54.216 404.049 54.216C402.483 54.216 401.511 53.73 400.773 52.65L401.889 51.786C402.591 52.632 403.203 52.92 404.049 52.92C405.111 52.92 405.903 52.416 405.903 51.624C405.903 50.85 405.381 50.544 403.527 50.148C401.853 49.788 401.133 49.104 401.133 47.844C401.133 46.314 402.555 45.36 404.283 45.36ZM410.093 46.764H408.257V45.576H410.093V43.182H411.497V45.576H413.981V46.764H411.497V51.264C411.497 52.614 411.947 52.92 412.757 52.92C413.171 52.92 413.639 52.83 413.999 52.632L414.053 53.91C413.549 54.126 412.937 54.216 412.415 54.216C410.795 54.216 410.093 53.568 410.093 51.48V46.764ZM419.715 45.36C422.325 45.36 424.215 47.178 424.215 49.788C424.215 52.38 422.325 54.216 419.715 54.216C417.105 54.216 415.215 52.38 415.215 49.788C415.215 47.214 417.069 45.36 419.715 45.36ZM416.727 49.788C416.727 51.606 417.951 52.92 419.715 52.92C421.515 52.92 422.703 51.57 422.703 49.788C422.703 48.006 421.515 46.656 419.697 46.656C417.933 46.656 416.727 48.006 416.727 49.788ZM430.529 45.36C430.745 45.36 430.907 45.378 431.105 45.45L431.015 46.872C430.745 46.8 430.529 46.764 430.259 46.764C428.639 46.764 427.793 47.88 427.793 49.824V54H426.389V47.448C426.389 46.89 426.317 46.08 426.317 45.576H427.649C427.649 46.098 427.685 46.404 427.685 46.962H427.721C428.171 46.008 429.287 45.36 430.529 45.36ZM435.291 45.36C436.587 45.36 437.631 45.9 438.153 46.89L436.983 47.664C436.623 47.07 436.047 46.656 435.201 46.656C434.265 46.656 433.545 47.124 433.545 47.826C433.545 48.384 434.211 48.78 435.651 49.05C437.667 49.428 438.423 50.202 438.423 51.57C438.423 53.226 437.091 54.216 435.057 54.216C433.491 54.216 432.519 53.73 431.781 52.65L432.897 51.786C433.599 52.632 434.211 52.92 435.057 52.92C436.119 52.92 436.911 52.416 436.911 51.624C436.911 50.85 436.389 50.544 434.535 50.148C432.861 49.788 432.141 49.104 432.141 47.844C432.141 46.314 433.563 45.36 435.291 45.36Z" fill="white"/>
<path d="M348.5 14H356V16H348.5C347.121 16 346 17.122 346 18.5V24H344V18.5C344 16.019 346.019 14 348.5 14ZM359 6C359 9.309 356.309 12 353 12C349.691 12 347 9.309 347 6C347 2.691 349.691 0 353 0C356.309 0 359 2.691 359 6ZM357 6C357 3.794 355.206 2 353 2C350.794 2 349 3.794 349 6C349 8.206 350.794 10 353 10C355.206 10 357 8.206 357 6ZM363.685 16.267L360.644 15.76C360.271 15.698 360 15.378 360 15C360 14.449 360.448 14 361 14H363C363.552 14 364 14.449 364 15H366C366 13.346 364.654 12 363 12V10H361V12C359.346 12 358 13.346 358 15C358 16.36 358.974 17.51 360.315 17.733L363.356 18.24C363.729 18.302 364 18.622 364 19C364 19.551 363.552 20 363 20H361C360.448 20 360 19.551 360 19H358C358 20.654 359.346 22 361 22V24H363V22C364.654 22 366 20.654 366 19C366 17.64 365.026 16.49 363.685 16.267Z" fill="white"/>
<path d="M551.818 157H550.108L555.724 144.256H557.146L562.564 157H560.8L559.504 153.868H553.132L551.818 157ZM553.726 152.464H558.928L556.408 146.2H556.372L553.726 152.464ZM567.894 148.36C569.118 148.36 570.27 148.774 571.116 149.692L570 150.682C569.406 149.962 568.722 149.656 567.876 149.656C566.13 149.656 565.032 150.898 565.032 152.788C565.032 154.552 566.202 155.92 567.876 155.92C568.794 155.92 569.496 155.596 570.018 154.876L571.062 155.866C570.252 156.802 569.1 157.216 567.876 157.216C565.284 157.216 563.52 155.398 563.52 152.788C563.52 150.214 565.302 148.36 567.894 148.36ZM575.335 157.216C573.499 157.216 572.203 156.244 572.203 154.714C572.203 152.77 573.661 151.762 577.405 151.762H578.053V151.528C578.053 150.286 577.279 149.656 575.965 149.656C575.047 149.656 574.129 149.944 573.463 150.574L572.581 149.656C573.445 148.792 574.687 148.36 575.929 148.36C578.359 148.36 579.457 149.53 579.457 151.834V155.614C579.457 155.902 579.493 156.424 579.583 157H578.233C578.161 156.784 578.143 156.46 578.143 155.74H578.107C577.477 156.694 576.505 157.216 575.335 157.216ZM576.505 152.95C574.849 152.95 573.715 153.472 573.715 154.57C573.715 155.524 574.381 156.028 575.569 156.028C577.027 156.028 578.053 155.074 578.053 153.274V152.95H576.505ZM585.749 157.216C583.373 157.216 581.537 155.29 581.537 152.788C581.537 150.232 583.337 148.36 585.965 148.36C587.153 148.36 588.215 148.882 588.989 149.8H589.025V143.392H590.429V157H589.025V155.506H588.989C588.413 156.568 587.135 157.216 585.749 157.216ZM583.049 152.788C583.049 154.606 584.273 155.92 586.037 155.92C587.837 155.92 589.025 154.57 589.025 152.788C589.025 151.006 587.855 149.656 586.019 149.656C584.255 149.656 583.049 151.006 583.049 152.788ZM596.861 148.36C599.057 148.36 600.857 149.746 600.857 152.878V153.22H594.053C594.197 154.786 595.349 155.92 596.825 155.92C597.995 155.92 598.823 155.506 599.489 154.642L600.551 155.47C599.669 156.622 598.535 157.216 596.825 157.216C594.215 157.216 592.541 155.308 592.541 152.788C592.541 150.196 594.359 148.36 596.861 148.36ZM599.345 152.032C599.273 150.574 598.355 149.656 596.789 149.656C595.349 149.656 594.269 150.502 594.053 152.032H599.345ZM602.957 148.576H604.289C604.289 149.098 604.325 149.404 604.325 149.962H604.361C604.811 149.008 605.909 148.36 607.187 148.36C608.339 148.36 609.275 148.756 609.833 149.962C610.499 148.864 611.309 148.36 612.515 148.36C614.693 148.36 615.701 149.512 615.701 151.798V157H614.297V151.906C614.297 150.466 613.595 149.656 612.245 149.656C610.985 149.656 610.067 150.754 610.067 152.086V157H608.663V152.122C608.663 150.484 608.249 149.656 607.025 149.656C605.333 149.656 604.433 150.844 604.433 152.878V157H603.029V150.448C603.029 149.89 602.957 149.08 602.957 148.576ZM619.185 144.256C619.743 144.256 620.211 144.706 620.211 145.282C620.211 145.876 619.779 146.308 619.185 146.308C618.591 146.308 618.159 145.876 618.159 145.282C618.159 144.706 618.627 144.256 619.185 144.256ZM619.887 148.576V157H618.483V148.576H619.887ZM626.57 148.36C627.794 148.36 628.946 148.774 629.792 149.692L628.676 150.682C628.082 149.962 627.398 149.656 626.552 149.656C624.806 149.656 623.708 150.898 623.708 152.788C623.708 154.552 624.878 155.92 626.552 155.92C627.47 155.92 628.172 155.596 628.694 154.876L629.738 155.866C628.928 156.802 627.776 157.216 626.552 157.216C623.96 157.216 622.196 155.398 622.196 152.788C622.196 150.214 623.978 148.36 626.57 148.36ZM638.139 144.256V157H636.627V144.256H638.139ZM640.979 148.576H642.311C642.311 149.098 642.347 149.404 642.347 149.962H642.383C642.833 149.008 643.949 148.36 645.191 148.36C647.333 148.36 648.395 149.692 648.395 151.726V157H646.991V151.888C646.991 150.592 646.415 149.656 645.065 149.656C643.337 149.656 642.455 150.862 642.455 152.878V157H641.051V150.448C641.051 149.89 640.979 149.08 640.979 148.576ZM653.627 148.36C654.923 148.36 655.967 148.9 656.489 149.89L655.319 150.664C654.959 150.07 654.383 149.656 653.537 149.656C652.601 149.656 651.881 150.124 651.881 150.826C651.881 151.384 652.547 151.78 653.987 152.05C656.003 152.428 656.759 153.202 656.759 154.57C656.759 156.226 655.427 157.216 653.393 157.216C651.827 157.216 650.855 156.73 650.117 155.65L651.233 154.786C651.935 155.632 652.547 155.92 653.393 155.92C654.455 155.92 655.247 155.416 655.247 154.624C655.247 153.85 654.725 153.544 652.871 153.148C651.197 152.788 650.477 152.104 650.477 150.844C650.477 149.314 651.899 148.36 653.627 148.36ZM659.437 149.764H657.601V148.576H659.437V146.182H660.841V148.576H663.325V149.764H660.841V154.264C660.841 155.614 661.291 155.92 662.101 155.92C662.515 155.92 662.983 155.83 663.343 155.632L663.397 156.91C662.893 157.126 662.281 157.216 661.759 157.216C660.139 157.216 659.437 156.568 659.437 154.48V149.764ZM665.873 144.256C666.431 144.256 666.899 144.706 666.899 145.282C666.899 145.876 666.467 146.308 665.873 146.308C665.279 146.308 664.847 145.876 664.847 145.282C664.847 144.706 665.315 144.256 665.873 144.256ZM666.575 148.576V157H665.171V148.576H666.575ZM670.089 149.764H668.253V148.576H670.089V146.182H671.493V148.576H673.977V149.764H671.493V154.264C671.493 155.614 671.943 155.92 672.753 155.92C673.167 155.92 673.635 155.83 673.995 155.632L674.049 156.91C673.545 157.126 672.933 157.216 672.411 157.216C670.791 157.216 670.089 156.568 670.089 154.48V149.764ZM675.697 153.85V148.576H677.101V153.688C677.101 154.966 677.677 155.92 679.027 155.92C680.773 155.92 681.637 154.66 681.637 152.752V148.576H683.041V155.128C683.041 155.65 683.113 156.55 683.113 157H681.781C681.781 156.406 681.745 156.172 681.745 155.614H681.709C681.277 156.55 680.179 157.216 678.883 157.216C676.795 157.216 675.697 155.884 675.697 153.85ZM686.419 149.764H684.583V148.576H686.419V146.182H687.823V148.576H690.307V149.764H687.823V154.264C687.823 155.614 688.273 155.92 689.083 155.92C689.497 155.92 689.965 155.83 690.325 155.632L690.379 156.91C689.875 157.126 689.263 157.216 688.741 157.216C687.121 157.216 686.419 156.568 686.419 154.48V149.764ZM692.855 144.256C693.413 144.256 693.881 144.706 693.881 145.282C693.881 145.876 693.449 146.308 692.855 146.308C692.261 146.308 691.829 145.876 691.829 145.282C691.829 144.706 692.297 144.256 692.855 144.256ZM693.557 148.576V157H692.153V148.576H693.557ZM700.366 148.36C702.976 148.36 704.866 150.178 704.866 152.788C704.866 155.38 702.976 157.216 700.366 157.216C697.756 157.216 695.866 155.38 695.866 152.788C695.866 150.214 697.72 148.36 700.366 148.36ZM697.378 152.788C697.378 154.606 698.602 155.92 700.366 155.92C702.166 155.92 703.354 154.57 703.354 152.788C703.354 151.006 702.166 149.656 700.348 149.656C698.584 149.656 697.378 151.006 697.378 152.788ZM706.967 148.576H708.299C708.299 149.098 708.335 149.404 708.335 149.962H708.371C708.821 149.008 709.937 148.36 711.179 148.36C713.321 148.36 714.383 149.692 714.383 151.726V157H712.979V151.888C712.979 150.592 712.403 149.656 711.053 149.656C709.325 149.656 708.443 150.862 708.443 152.878V157H707.039V150.448C707.039 149.89 706.967 149.08 706.967 148.576ZM719.615 148.36C720.911 148.36 721.955 148.9 722.477 149.89L721.307 150.664C720.947 150.07 720.371 149.656 719.525 149.656C718.589 149.656 717.869 150.124 717.869 150.826C717.869 151.384 718.535 151.78 719.975 152.05C721.991 152.428 722.747 153.202 722.747 154.57C722.747 156.226 721.415 157.216 719.381 157.216C717.815 157.216 716.843 156.73 716.105 155.65L717.221 154.786C717.923 155.632 718.535 155.92 719.381 155.92C720.443 155.92 721.235 155.416 721.235 154.624C721.235 153.85 720.713 153.544 718.859 153.148C717.185 152.788 716.465 152.104 716.465 150.844C716.465 149.314 717.887 148.36 719.615 148.36Z" fill="white"/>
<g clip-path="url(#clip1_607_1299)">
<path d="M572.93 123.623C572.253 123.095 571.388 122.912 570.555 123.12C568.496 123.636 564.648 124.5 562 124.5C559.352 124.5 555.504 123.635 553.446 123.12C552.613 122.913 551.747 123.096 551.07 123.623C550.39 124.154 550 124.953 550 125.817V129.183C550 130.047 550.39 130.846 551.07 131.377C551.747 131.905 552.612 132.088 553.445 131.88C555.504 131.364 559.352 130.5 562 130.5C564.648 130.5 568.496 131.365 570.554 131.88C570.78 131.936 571.007 131.964 571.233 131.964C571.842 131.964 572.436 131.762 572.93 131.377C573.61 130.846 574 130.047 574 129.183V125.817C574 124.953 573.61 124.154 572.93 123.623ZM561 128.533C558.423 128.685 555.274 129.361 552.959 129.94C552.643 130.019 552.41 129.886 552.3 129.8C552.109 129.651 552 129.426 552 129.183V125.817C552 125.574 552.109 125.349 552.3 125.2C552.41 125.113 552.641 124.98 552.96 125.06C555.275 125.639 558.423 126.315 561 126.467V128.533ZM572 129.183C572 129.426 571.891 129.651 571.7 129.8C571.589 129.886 571.356 130.019 571.04 129.94C568.725 129.361 565.577 128.685 563 128.533V126.467C565.577 126.315 568.726 125.639 571.041 125.06C571.356 124.979 571.589 125.113 571.7 125.2C571.891 125.349 572 125.574 572 125.817V129.183ZM572.523 111.359L564.621 108.459C562.964 107.852 561.141 107.848 559.485 108.452L551.486 111.362C550.584 111.691 550.001 112.536 550.002 113.514C550.002 114.493 550.586 115.337 551.488 115.664L555 116.938V120.999C555 121.551 555.448 121.999 556 121.999C556.552 121.999 557 121.551 557 120.999V117.663L559.442 118.549C560.265 118.848 561.13 118.997 561.994 118.997C562.858 118.997 563.722 118.848 564.544 118.549L567 117.658V120.998C567 121.55 567.448 121.998 568 121.998C568.552 121.998 569 121.55 569 120.998V116.932L572 115.844V119.998C572 120.55 572.448 120.998 573 120.998C573.552 120.998 574 120.55 574 119.998V113.523C574 113.523 574.002 113.515 574.002 113.51C574.003 112.532 573.423 111.687 572.523 111.357V111.359ZM571.833 113.779L563.862 116.671C562.655 117.107 561.328 117.108 560.123 116.671L552.169 113.785C552.023 113.732 552.001 113.592 552.001 113.514C552.001 113.436 552.022 113.296 552.168 113.243L560.168 110.332C560.772 110.112 561.406 110.002 562.041 110.002C562.681 110.002 563.321 110.114 563.93 110.337L571.833 113.237C571.974 113.289 571.997 113.42 571.999 113.5C571.997 113.58 571.975 113.728 571.833 113.779Z" fill="white"/>
</g>
<path d="M614.584 333V320.256H622.594V321.66H616.096V325.656H622.162V327.06H616.096V331.596H622.918V333H614.584ZM625.722 325.764H623.886V324.576H625.722V322.182H627.126V324.576H629.61V325.764H627.126V330.264C627.126 331.614 627.576 331.92 628.386 331.92C628.8 331.92 629.268 331.83 629.628 331.632L629.682 332.91C629.178 333.126 628.566 333.216 628.044 333.216C626.424 333.216 625.722 332.568 625.722 330.48V325.764ZM632.734 333H631.33V319.392H632.734V325.746H632.77C633.274 324.9 634.354 324.36 635.488 324.36C637.594 324.36 638.674 325.692 638.674 327.726V333H637.27V327.888C637.27 326.592 636.694 325.656 635.344 325.656C633.616 325.656 632.734 326.88 632.734 328.824V333ZM642.16 320.256C642.718 320.256 643.186 320.706 643.186 321.282C643.186 321.876 642.754 322.308 642.16 322.308C641.566 322.308 641.134 321.876 641.134 321.282C641.134 320.706 641.602 320.256 642.16 320.256ZM642.862 324.576V333H641.458V324.576H642.862ZM649.544 324.36C650.768 324.36 651.92 324.774 652.766 325.692L651.65 326.682C651.056 325.962 650.372 325.656 649.526 325.656C647.78 325.656 646.682 326.898 646.682 328.788C646.682 330.552 647.852 331.92 649.526 331.92C650.444 331.92 651.146 331.596 651.668 330.876L652.712 331.866C651.902 332.802 650.75 333.216 649.526 333.216C646.934 333.216 645.17 331.398 645.17 328.788C645.17 326.214 646.952 324.36 649.544 324.36ZM656.914 324.36C658.21 324.36 659.254 324.9 659.776 325.89L658.606 326.664C658.246 326.07 657.67 325.656 656.824 325.656C655.888 325.656 655.168 326.124 655.168 326.826C655.168 327.384 655.834 327.78 657.274 328.05C659.29 328.428 660.046 329.202 660.046 330.57C660.046 332.226 658.714 333.216 656.68 333.216C655.114 333.216 654.142 332.73 653.404 331.65L654.52 330.786C655.222 331.632 655.834 331.92 656.68 331.92C657.742 331.92 658.534 331.416 658.534 330.624C658.534 329.85 658.012 329.544 656.158 329.148C654.484 328.788 653.764 328.104 653.764 326.844C653.764 325.314 655.186 324.36 656.914 324.36ZM667.5 333H665.79L671.406 320.256H672.828L678.246 333H676.482L675.186 329.868H668.814L667.5 333ZM669.408 328.464H674.61L672.09 322.2H672.054L669.408 328.464ZM683.413 333.216C681.037 333.216 679.201 331.29 679.201 328.788C679.201 326.232 681.001 324.36 683.629 324.36C684.817 324.36 685.879 324.882 686.653 325.8H686.689V319.392H688.093V333H686.689V331.506H686.653C686.077 332.568 684.799 333.216 683.413 333.216ZM680.713 328.788C680.713 330.606 681.937 331.92 683.701 331.92C685.501 331.92 686.689 330.57 686.689 328.788C686.689 327.006 685.519 325.656 683.683 325.656C681.919 325.656 680.713 327.006 680.713 328.788ZM689.539 324.576H691.177L693.805 331.182H693.841L696.343 324.576H697.855L694.525 333H692.977L689.539 324.576ZM700.203 320.256C700.761 320.256 701.229 320.706 701.229 321.282C701.229 321.876 700.797 322.308 700.203 322.308C699.609 322.308 699.177 321.876 699.177 321.282C699.177 320.706 699.645 320.256 700.203 320.256ZM700.905 324.576V333H699.501V324.576H700.905ZM706.273 324.36C707.569 324.36 708.613 324.9 709.135 325.89L707.965 326.664C707.605 326.07 707.029 325.656 706.183 325.656C705.247 325.656 704.527 326.124 704.527 326.826C704.527 327.384 705.193 327.78 706.633 328.05C708.649 328.428 709.405 329.202 709.405 330.57C709.405 332.226 708.073 333.216 706.039 333.216C704.473 333.216 703.501 332.73 702.763 331.65L703.879 330.786C704.581 331.632 705.193 331.92 706.039 331.92C707.101 331.92 707.893 331.416 707.893 330.624C707.893 329.85 707.371 329.544 705.517 329.148C703.843 328.788 703.123 328.104 703.123 326.844C703.123 325.314 704.545 324.36 706.273 324.36ZM715.377 324.36C717.987 324.36 719.877 326.178 719.877 328.788C719.877 331.38 717.987 333.216 715.377 333.216C712.767 333.216 710.877 331.38 710.877 328.788C710.877 326.214 712.731 324.36 715.377 324.36ZM712.389 328.788C712.389 330.606 713.613 331.92 715.377 331.92C717.177 331.92 718.365 330.57 718.365 328.788C718.365 327.006 717.177 325.656 715.359 325.656C713.595 325.656 712.389 327.006 712.389 328.788ZM726.191 324.36C726.407 324.36 726.569 324.378 726.767 324.45L726.677 325.872C726.407 325.8 726.191 325.764 725.921 325.764C724.301 325.764 723.455 326.88 723.455 328.824V333H722.051V326.448C722.051 325.89 721.979 325.08 721.979 324.576H723.311C723.311 325.098 723.347 325.404 723.347 325.962H723.383C723.833 325.008 724.949 324.36 726.191 324.36ZM730.953 324.36C732.249 324.36 733.293 324.9 733.815 325.89L732.645 326.664C732.285 326.07 731.709 325.656 730.863 325.656C729.927 325.656 729.207 326.124 729.207 326.826C729.207 327.384 729.873 327.78 731.313 328.05C733.329 328.428 734.085 329.202 734.085 330.57C734.085 332.226 732.753 333.216 730.719 333.216C729.153 333.216 728.181 332.73 727.443 331.65L728.559 330.786C729.261 331.632 729.873 331.92 730.719 331.92C731.781 331.92 732.573 331.416 732.573 330.624C732.573 329.85 732.051 329.544 730.197 329.148C728.523 328.788 727.803 328.104 727.803 326.844C727.803 325.314 729.225 324.36 730.953 324.36Z" fill="white"/>
<g clip-path="url(#clip2_607_1299)">
<path d="M615.001 286.5C615.001 285.119 616.12 284 617.501 284C618.882 284 620.001 285.119 620.001 286.5C620.001 287.881 618.882 289 617.501 289C616.12 289 615.001 287.881 615.001 286.5ZM627.001 292C627.553 292 628.001 291.553 628.001 291C628.001 290.447 627.553 290 627.001 290H617.001C614.795 290 613.001 291.794 613.001 294V297C613.001 297.553 613.449 298 614.001 298C614.553 298 615.001 297.553 615.001 297V294C615.001 292.897 615.898 292 617.001 292H619.001V297C619.001 297.553 619.449 298 620.001 298C620.553 298 621.001 297.553 621.001 297V292H627.001ZM632.501 284H623.001C622.449 284 622.001 284.447 622.001 285C622.001 285.553 622.449 286 623.001 286H632.501C633.879 286 635.001 287.121 635.001 288.5V293.5C635.001 294.879 633.879 296 632.501 296H632.001V295C632.001 294.447 631.553 294 631.001 294H629.001C628.449 294 628.001 294.447 628.001 295V296H624.001C623.449 296 623.001 296.447 623.001 297C623.001 297.553 623.449 298 624.001 298H632.501C634.982 298 637.001 295.981 637.001 293.5V288.5C637.001 286.019 634.982 284 632.501 284ZM633.501 305C632.244 305 631.068 305.478 630.276 306.311C629.895 306.711 629.911 307.345 630.312 307.725C630.712 308.107 631.345 308.089 631.726 307.69C632.546 306.827 634.456 306.827 635.277 307.69C635.473 307.896 635.737 308.001 636.002 308.001C636.25 308.001 636.498 307.91 636.691 307.726C637.091 307.346 637.108 306.712 636.727 306.312C635.935 305.479 634.76 305.001 633.502 305.001L633.501 305ZM625.001 305C623.744 305 622.568 305.478 621.776 306.311C621.395 306.711 621.411 307.345 621.812 307.725C622.212 308.107 622.846 308.089 623.226 307.69C624.046 306.827 625.956 306.827 626.777 307.69C626.973 307.896 627.237 308.001 627.502 308.001C627.75 308.001 627.998 307.91 628.191 307.726C628.591 307.346 628.608 306.712 628.227 306.312C627.435 305.479 626.26 305.001 625.002 305.001L625.001 305ZM616.501 305C615.244 305 614.068 305.478 613.276 306.311C612.895 306.711 612.911 307.345 613.312 307.725C613.712 308.107 614.346 308.089 614.726 307.69C615.546 306.827 617.456 306.827 618.277 307.69C618.473 307.896 618.737 308.001 619.002 308.001C619.25 308.001 619.498 307.91 619.691 307.726C620.091 307.346 620.108 306.712 619.727 306.312C618.935 305.479 617.76 305.001 616.502 305.001L616.501 305ZM618.501 302C618.501 300.895 617.606 300 616.501 300C615.396 300 614.501 300.895 614.501 302C614.501 303.105 615.396 304 616.501 304C617.606 304 618.501 303.105 618.501 302ZM627.001 302C627.001 300.895 626.106 300 625.001 300C623.896 300 623.001 300.895 623.001 302C623.001 303.105 623.896 304 625.001 304C626.106 304 627.001 303.105 627.001 302ZM635.501 302C635.501 300.895 634.606 300 633.501 300C632.396 300 631.501 300.895 631.501 302C631.501 303.105 632.396 304 633.501 304C634.606 304 635.501 303.105 635.501 302Z" fill="white"/>
</g>
<path d="M563.096 441.256V452.596H568.928V454H561.584V441.256H563.096ZM574.166 445.36C576.362 445.36 578.162 446.746 578.162 449.878V450.22H571.358C571.502 451.786 572.654 452.92 574.13 452.92C575.3 452.92 576.128 452.506 576.794 451.642L577.856 452.47C576.974 453.622 575.84 454.216 574.13 454.216C571.52 454.216 569.846 452.308 569.846 449.788C569.846 447.196 571.664 445.36 574.166 445.36ZM576.65 449.032C576.578 447.574 575.66 446.656 574.094 446.656C572.654 446.656 571.574 447.502 571.358 449.032H576.65ZM579.848 449.788C579.848 447.106 581.594 445.36 584.312 445.36C585.59 445.36 586.796 446.008 587.3 447.016H587.336V445.576H588.74V453.712C588.74 456.538 587.192 458.32 584.15 458.32C582.512 458.32 581.18 457.888 580.01 456.718L581.018 455.566C581.9 456.52 582.854 457.024 584.15 457.024C586.292 457.024 587.336 455.854 587.336 453.64V452.542H587.3C586.67 453.532 585.572 454.108 584.312 454.108C581.72 454.108 579.848 452.29 579.848 449.788ZM584.312 446.656C582.62 446.656 581.36 447.988 581.36 449.788C581.36 451.48 582.674 452.812 584.33 452.812C586.148 452.812 587.336 451.48 587.336 449.752C587.336 447.934 586.112 446.656 584.312 446.656ZM593.984 454.216C592.148 454.216 590.852 453.244 590.852 451.714C590.852 449.77 592.31 448.762 596.054 448.762H596.702V448.528C596.702 447.286 595.928 446.656 594.614 446.656C593.696 446.656 592.778 446.944 592.112 447.574L591.23 446.656C592.094 445.792 593.336 445.36 594.578 445.36C597.008 445.36 598.106 446.53 598.106 448.834V452.614C598.106 452.902 598.142 453.424 598.232 454H596.882C596.81 453.784 596.792 453.46 596.792 452.74H596.756C596.126 453.694 595.154 454.216 593.984 454.216ZM595.154 449.95C593.498 449.95 592.364 450.472 592.364 451.57C592.364 452.524 593.03 453.028 594.218 453.028C595.676 453.028 596.702 452.074 596.702 450.274V449.95H595.154ZM602.202 440.392V454H600.798V440.392H602.202ZM614.344 441.022C616.234 441.022 617.53 442.138 617.53 443.848C617.53 445.126 616.648 446.152 614.83 447.088L617.53 449.95L619.24 447.088H620.95L618.502 451.012L621.418 454H619.348L617.62 452.164C616.468 453.622 615.334 454.216 613.804 454.216C611.482 454.216 609.754 452.704 609.754 450.58C609.754 449.05 610.708 447.772 612.58 446.89C611.446 445.756 611.05 444.892 611.05 443.938C611.05 442.138 612.508 441.022 614.344 441.022ZM612.562 444.028C612.562 444.514 612.688 444.982 613.894 446.17C615.658 445.252 616.018 444.604 616.018 443.812C616.018 442.93 615.334 442.318 614.38 442.318C613.354 442.318 612.562 443.038 612.562 444.028ZM611.266 450.526C611.266 451.84 612.382 452.92 613.75 452.92C614.74 452.92 615.532 452.506 616.702 451.156L613.516 447.808C611.77 448.762 611.266 449.536 611.266 450.526ZM628.258 454V441.256H636.16V442.66H629.77V446.872H635.71V448.276H629.77V454H628.258ZM638.836 441.256C639.394 441.256 639.862 441.706 639.862 442.282C639.862 442.876 639.43 443.308 638.836 443.308C638.242 443.308 637.81 442.876 637.81 442.282C637.81 441.706 638.278 441.256 638.836 441.256ZM639.538 445.576V454H638.134V445.576H639.538ZM642.26 445.576H643.592C643.592 446.098 643.628 446.404 643.628 446.962H643.664C644.114 446.008 645.23 445.36 646.472 445.36C648.614 445.36 649.676 446.692 649.676 448.726V454H648.272V448.888C648.272 447.592 647.696 446.656 646.346 446.656C644.618 446.656 643.736 447.862 643.736 449.878V454H642.332V447.448C642.332 446.89 642.26 446.08 642.26 445.576ZM654.98 454.216C653.144 454.216 651.848 453.244 651.848 451.714C651.848 449.77 653.306 448.762 657.05 448.762H657.698V448.528C657.698 447.286 656.924 446.656 655.61 446.656C654.692 446.656 653.774 446.944 653.108 447.574L652.226 446.656C653.09 445.792 654.332 445.36 655.574 445.36C658.004 445.36 659.102 446.53 659.102 448.834V452.614C659.102 452.902 659.138 453.424 659.228 454H657.878C657.806 453.784 657.788 453.46 657.788 452.74H657.752C657.122 453.694 656.15 454.216 654.98 454.216ZM656.15 449.95C654.494 449.95 653.36 450.472 653.36 451.57C653.36 452.524 654.026 453.028 655.214 453.028C656.672 453.028 657.698 452.074 657.698 450.274V449.95H656.15ZM661.596 445.576H662.928C662.928 446.098 662.964 446.404 662.964 446.962H663C663.45 446.008 664.566 445.36 665.808 445.36C667.95 445.36 669.012 446.692 669.012 448.726V454H667.608V448.888C667.608 447.592 667.032 446.656 665.682 446.656C663.954 446.656 663.072 447.862 663.072 449.878V454H661.668V447.448C661.668 446.89 661.596 446.08 661.596 445.576ZM675.558 445.36C676.782 445.36 677.934 445.774 678.78 446.692L677.664 447.682C677.07 446.962 676.386 446.656 675.54 446.656C673.794 446.656 672.696 447.898 672.696 449.788C672.696 451.552 673.866 452.92 675.54 452.92C676.458 452.92 677.16 452.596 677.682 451.876L678.726 452.866C677.916 453.802 676.764 454.216 675.54 454.216C672.948 454.216 671.184 452.398 671.184 449.788C671.184 447.214 672.966 445.36 675.558 445.36ZM681.181 441.256C681.739 441.256 682.207 441.706 682.207 442.282C682.207 442.876 681.775 443.308 681.181 443.308C680.587 443.308 680.155 442.876 680.155 442.282C680.155 441.706 680.623 441.256 681.181 441.256ZM681.883 445.576V454H680.479V445.576H681.883ZM687.324 454.216C685.488 454.216 684.192 453.244 684.192 451.714C684.192 449.77 685.65 448.762 689.394 448.762H690.042V448.528C690.042 447.286 689.268 446.656 687.954 446.656C687.036 446.656 686.118 446.944 685.452 447.574L684.57 446.656C685.434 445.792 686.676 445.36 687.918 445.36C690.348 445.36 691.446 446.53 691.446 448.834V452.614C691.446 452.902 691.482 453.424 691.572 454H690.222C690.15 453.784 690.132 453.46 690.132 452.74H690.096C689.466 453.694 688.494 454.216 687.324 454.216ZM688.494 449.95C686.838 449.95 685.704 450.472 685.704 451.57C685.704 452.524 686.37 453.028 687.558 453.028C689.016 453.028 690.042 452.074 690.042 450.274V449.95H688.494ZM695.542 440.392V454H694.138V440.392H695.542ZM565.31 464.932C566.732 464.932 567.92 465.328 568.874 466.426L567.632 467.506C567.128 466.696 566.228 466.336 565.31 466.336C563.708 466.336 562.592 467.164 562.592 468.478C562.592 469.72 563.402 470.26 565.328 470.836C568.244 471.7 569.09 472.78 569.09 474.598C569.09 476.884 567.2 478.324 564.608 478.324C562.862 478.324 561.422 477.658 560.684 476.56L561.98 475.498C562.538 476.416 563.564 476.92 564.698 476.92C566.12 476.92 567.47 476.038 567.47 474.706C567.47 472.996 566.102 472.798 563.96 472.06C561.782 471.304 560.972 470.278 560.972 468.604C560.972 466.39 562.808 464.932 565.31 464.932ZM575.168 469.36C577.364 469.36 579.164 470.746 579.164 473.878V474.22H572.36C572.504 475.786 573.656 476.92 575.132 476.92C576.302 476.92 577.13 476.506 577.796 475.642L578.858 476.47C577.976 477.622 576.842 478.216 575.132 478.216C572.522 478.216 570.848 476.308 570.848 473.788C570.848 471.196 572.666 469.36 575.168 469.36ZM577.652 473.032C577.58 471.574 576.662 470.656 575.096 470.656C573.656 470.656 572.576 471.502 572.36 473.032H577.652ZM585.476 469.36C585.692 469.36 585.854 469.378 586.052 469.45L585.962 470.872C585.692 470.8 585.476 470.764 585.206 470.764C583.586 470.764 582.74 471.88 582.74 473.824V478H581.336V471.448C581.336 470.89 581.264 470.08 581.264 469.576H582.596C582.596 470.098 582.632 470.404 582.632 470.962H582.668C583.118 470.008 584.234 469.36 585.476 469.36ZM586.512 469.576H588.15L590.778 476.182H590.814L593.316 469.576H594.828L591.498 478H589.95L586.512 469.576ZM597.176 465.256C597.734 465.256 598.202 465.706 598.202 466.282C598.202 466.876 597.77 467.308 597.176 467.308C596.582 467.308 596.15 466.876 596.15 466.282C596.15 465.706 596.618 465.256 597.176 465.256ZM597.878 469.576V478H596.474V469.576H597.878ZM604.56 469.36C605.784 469.36 606.936 469.774 607.782 470.692L606.666 471.682C606.072 470.962 605.388 470.656 604.542 470.656C602.796 470.656 601.698 471.898 601.698 473.788C601.698 475.552 602.868 476.92 604.542 476.92C605.46 476.92 606.162 476.596 606.684 475.876L607.728 476.866C606.918 477.802 605.766 478.216 604.542 478.216C601.95 478.216 600.186 476.398 600.186 473.788C600.186 471.214 601.968 469.36 604.56 469.36ZM613.189 469.36C615.385 469.36 617.185 470.746 617.185 473.878V474.22H610.381C610.525 475.786 611.677 476.92 613.153 476.92C614.323 476.92 615.151 476.506 615.817 475.642L616.879 476.47C615.997 477.622 614.863 478.216 613.153 478.216C610.543 478.216 608.869 476.308 608.869 473.788C608.869 471.196 610.687 469.36 613.189 469.36ZM615.673 473.032C615.601 471.574 614.683 470.656 613.117 470.656C611.677 470.656 610.597 471.502 610.381 473.032H615.673ZM626.131 478H624.619V465.256H628.489C631.207 465.256 632.863 466.462 632.863 468.748C632.863 471.07 631.117 472.276 628.759 472.276H626.131V478ZM626.131 466.66V470.872H628.759C630.289 470.872 631.243 470.08 631.243 468.766C631.243 467.452 630.307 466.66 628.759 466.66H626.131ZM639.177 469.36C639.393 469.36 639.555 469.378 639.753 469.45L639.663 470.872C639.393 470.8 639.177 470.764 638.907 470.764C637.287 470.764 636.441 471.88 636.441 473.824V478H635.037V471.448C635.037 470.89 634.965 470.08 634.965 469.576H636.297C636.297 470.098 636.333 470.404 636.333 470.962H636.369C636.819 470.008 637.935 469.36 639.177 469.36ZM645.063 469.36C647.673 469.36 649.563 471.178 649.563 473.788C649.563 476.38 647.673 478.216 645.063 478.216C642.453 478.216 640.563 476.38 640.563 473.788C640.563 471.214 642.417 469.36 645.063 469.36ZM642.075 473.788C642.075 475.606 643.299 476.92 645.063 476.92C646.863 476.92 648.051 475.57 648.051 473.788C648.051 472.006 646.863 470.656 645.045 470.656C643.281 470.656 642.075 472.006 642.075 473.788ZM650.584 469.576H652.222L654.85 476.182H654.886L657.388 469.576H658.9L655.57 478H654.022L650.584 469.576ZM661.248 465.256C661.806 465.256 662.274 465.706 662.274 466.282C662.274 466.876 661.842 467.308 661.248 467.308C660.654 467.308 660.222 466.876 660.222 466.282C660.222 465.706 660.69 465.256 661.248 465.256ZM661.95 469.576V478H660.546V469.576H661.95ZM668.47 478.216C666.094 478.216 664.258 476.29 664.258 473.788C664.258 471.232 666.058 469.36 668.686 469.36C669.874 469.36 670.936 469.882 671.71 470.8H671.746V464.392H673.15V478H671.746V476.506H671.71C671.134 477.568 669.856 478.216 668.47 478.216ZM665.77 473.788C665.77 475.606 666.994 476.92 668.758 476.92C670.558 476.92 671.746 475.57 671.746 473.788C671.746 472.006 670.576 470.656 668.74 470.656C666.976 470.656 665.77 472.006 665.77 473.788ZM679.582 469.36C681.778 469.36 683.578 470.746 683.578 473.878V474.22H676.774C676.918 475.786 678.07 476.92 679.546 476.92C680.716 476.92 681.544 476.506 682.21 475.642L683.272 476.47C682.39 477.622 681.256 478.216 679.546 478.216C676.936 478.216 675.262 476.308 675.262 473.788C675.262 471.196 677.08 469.36 679.582 469.36ZM682.066 473.032C681.994 471.574 681.076 470.656 679.51 470.656C678.07 470.656 676.99 471.502 676.774 473.032H682.066ZM689.89 469.36C690.106 469.36 690.268 469.378 690.466 469.45L690.376 470.872C690.106 470.8 689.89 470.764 689.62 470.764C688 470.764 687.154 471.88 687.154 473.824V478H685.75V471.448C685.75 470.89 685.678 470.08 685.678 469.576H687.01C687.01 470.098 687.046 470.404 687.046 470.962H687.082C687.532 470.008 688.648 469.36 689.89 469.36ZM694.652 469.36C695.948 469.36 696.992 469.9 697.514 470.89L696.344 471.664C695.984 471.07 695.408 470.656 694.562 470.656C693.626 470.656 692.906 471.124 692.906 471.826C692.906 472.384 693.572 472.78 695.012 473.05C697.028 473.428 697.784 474.202 697.784 475.57C697.784 477.226 696.452 478.216 694.418 478.216C692.852 478.216 691.88 477.73 691.142 476.65L692.258 475.786C692.96 476.632 693.572 476.92 694.418 476.92C695.48 476.92 696.272 476.416 696.272 475.624C696.272 474.85 695.75 474.544 693.896 474.148C692.222 473.788 691.502 473.104 691.502 471.844C691.502 470.314 692.924 469.36 694.652 469.36Z" fill="white"/>
<g clip-path="url(#clip3_607_1299)">
<path d="M581.183 418.904L581.72 419.441L583.134 418.027L577.822 412.715L576.408 414.129L576.945 414.666L572.576 419.035L572.039 418.498L570.625 419.912L575.937 425.224L577.351 423.81L576.814 423.273L578.337 421.75L582.562 425.976L583.976 424.562L579.751 420.336L581.183 418.904ZM573.99 420.45L578.359 416.081L579.768 417.49L575.399 421.859L573.99 420.45ZM581 404H578V402H576V404H568V402H566V404H563C561.346 404 560 405.346 560 407V426H573.883L571.883 424H562V412H582V414.065L584 416.065V407C584 405.346 582.654 404 581 404ZM582 410H562V407C562 406.449 562.448 406 563 406H581C581.552 406 582 406.449 582 407V410Z" fill="white"/>
</g>
<path d="M142.326 592.932C144.27 592.932 145.89 593.688 146.826 594.93L145.512 595.884C144.738 594.858 143.55 594.336 142.326 594.336C139.518 594.336 137.466 596.802 137.466 599.628C137.466 602.562 139.446 604.92 142.326 604.92C143.874 604.92 145.098 604.308 146.016 603.138L147.15 604.092C145.998 605.622 144.36 606.324 142.326 606.324C138.564 606.324 135.846 603.39 135.846 599.628C135.846 595.866 138.564 592.932 142.326 592.932ZM153.02 597.36C155.63 597.36 157.52 599.178 157.52 601.788C157.52 604.38 155.63 606.216 153.02 606.216C150.41 606.216 148.52 604.38 148.52 601.788C148.52 599.214 150.374 597.36 153.02 597.36ZM150.032 601.788C150.032 603.606 151.256 604.92 153.02 604.92C154.82 604.92 156.008 603.57 156.008 601.788C156.008 600.006 154.82 598.656 153.002 598.656C151.238 598.656 150.032 600.006 150.032 601.788ZM159.621 597.576H160.953C160.953 598.098 160.989 598.404 160.989 598.962H161.025C161.475 598.008 162.573 597.36 163.851 597.36C165.003 597.36 165.939 597.756 166.497 598.962C167.163 597.864 167.973 597.36 169.179 597.36C171.357 597.36 172.365 598.512 172.365 600.798V606H170.961V600.906C170.961 599.466 170.259 598.656 168.909 598.656C167.649 598.656 166.731 599.754 166.731 601.086V606H165.327V601.122C165.327 599.484 164.913 598.656 163.689 598.656C161.997 598.656 161.097 599.844 161.097 601.878V606H159.693V599.448C159.693 598.89 159.621 598.08 159.621 597.576ZM174.949 597.576H176.281C176.281 598.098 176.317 598.404 176.317 598.962H176.353C176.803 598.008 177.901 597.36 179.179 597.36C180.331 597.36 181.267 597.756 181.825 598.962C182.491 597.864 183.301 597.36 184.507 597.36C186.685 597.36 187.693 598.512 187.693 600.798V606H186.289V600.906C186.289 599.466 185.587 598.656 184.237 598.656C182.977 598.656 182.059 599.754 182.059 601.086V606H180.655V601.122C180.655 599.484 180.241 598.656 179.017 598.656C177.325 598.656 176.425 599.844 176.425 601.878V606H175.021V599.448C175.021 598.89 174.949 598.08 174.949 597.576ZM190.35 602.85V597.576H191.754V602.688C191.754 603.966 192.33 604.92 193.68 604.92C195.426 604.92 196.29 603.66 196.29 601.752V597.576H197.694V604.128C197.694 604.65 197.766 605.55 197.766 606H196.434C196.434 605.406 196.398 605.172 196.398 604.614H196.362C195.93 605.55 194.832 606.216 193.536 606.216C191.448 606.216 190.35 604.884 190.35 602.85ZM200.28 597.576H201.612C201.612 598.098 201.648 598.404 201.648 598.962H201.684C202.134 598.008 203.25 597.36 204.492 597.36C206.634 597.36 207.696 598.692 207.696 600.726V606H206.292V600.888C206.292 599.592 205.716 598.656 204.366 598.656C202.638 598.656 201.756 599.862 201.756 601.878V606H200.352V599.448C200.352 598.89 200.28 598.08 200.28 597.576ZM211.181 593.256C211.739 593.256 212.207 593.706 212.207 594.282C212.207 594.876 211.775 595.308 211.181 595.308C210.587 595.308 210.155 594.876 210.155 594.282C210.155 593.706 210.623 593.256 211.181 593.256ZM211.883 597.576V606H210.479V597.576H211.883ZM215.398 598.764H213.562V597.576H215.398V595.182H216.802V597.576H219.286V598.764H216.802V603.264C216.802 604.614 217.252 604.92 218.062 604.92C218.476 604.92 218.944 604.83 219.304 604.632L219.358 605.91C218.854 606.126 218.242 606.216 217.72 606.216C216.1 606.216 215.398 605.568 215.398 603.48V598.764ZM219.854 597.576H221.492L224.102 604.182H224.138L226.64 597.576H228.17L224.048 608.07C223.364 609.816 222.59 610.32 221.294 610.32C220.826 610.32 220.412 610.266 220.034 610.104L220.214 608.88C220.502 609.006 220.826 609.024 221.204 609.024C221.906 609.024 222.374 608.7 222.716 607.782L223.346 606.054L219.854 597.576ZM238.803 606H234.951V593.256H238.839C241.413 593.256 243.069 594.354 243.069 596.388C243.069 597.846 242.205 598.854 240.837 599.268V599.304C242.529 599.466 243.717 600.78 243.717 602.436C243.717 604.866 241.719 606 238.803 606ZM236.463 604.596H239.091C240.711 604.596 242.097 603.858 242.097 602.382C242.097 600.852 240.927 600.06 239.073 600.06H236.463V604.596ZM236.463 598.656H238.623C240.513 598.656 241.449 598.008 241.449 596.586C241.449 595.308 240.513 594.66 238.785 594.66H236.463V598.656ZM246.037 602.85V597.576H247.441V602.688C247.441 603.966 248.017 604.92 249.367 604.92C251.113 604.92 251.977 603.66 251.977 601.752V597.576H253.381V604.128C253.381 604.65 253.453 605.55 253.453 606H252.121C252.121 605.406 252.085 605.172 252.085 604.614H252.049C251.617 605.55 250.519 606.216 249.223 606.216C247.135 606.216 246.037 604.884 246.037 602.85ZM256.867 593.256C257.425 593.256 257.893 593.706 257.893 594.282C257.893 594.876 257.461 595.308 256.867 595.308C256.273 595.308 255.841 594.876 255.841 594.282C255.841 593.706 256.309 593.256 256.867 593.256ZM257.569 597.576V606H256.165V597.576H257.569ZM261.893 592.392V606H260.489V592.392H261.893ZM268.413 606.216C266.037 606.216 264.201 604.29 264.201 601.788C264.201 599.232 266.001 597.36 268.629 597.36C269.817 597.36 270.879 597.882 271.653 598.8H271.689V592.392H273.093V606H271.689V604.506H271.653C271.077 605.568 269.799 606.216 268.413 606.216ZM265.713 601.788C265.713 603.606 266.937 604.92 268.701 604.92C270.501 604.92 271.689 603.57 271.689 601.788C271.689 600.006 270.519 598.656 268.683 598.656C266.919 598.656 265.713 600.006 265.713 601.788ZM279.525 597.36C281.721 597.36 283.521 598.746 283.521 601.878V602.22H276.717C276.861 603.786 278.013 604.92 279.489 604.92C280.659 604.92 281.487 604.506 282.153 603.642L283.215 604.47C282.333 605.622 281.199 606.216 279.489 606.216C276.879 606.216 275.205 604.308 275.205 601.788C275.205 599.196 277.023 597.36 279.525 597.36ZM282.009 601.032C281.937 599.574 281.019 598.656 279.453 598.656C278.013 598.656 276.933 599.502 276.717 601.032H282.009ZM289.833 597.36C290.049 597.36 290.211 597.378 290.409 597.45L290.319 598.872C290.049 598.8 289.833 598.764 289.563 598.764C287.943 598.764 287.097 599.88 287.097 601.824V606H285.693V599.448C285.693 598.89 285.621 598.08 285.621 597.576H286.953C286.953 598.098 286.989 598.404 286.989 598.962H287.025C287.475 598.008 288.591 597.36 289.833 597.36ZM294.595 597.36C295.891 597.36 296.935 597.9 297.457 598.89L296.287 599.664C295.927 599.07 295.351 598.656 294.505 598.656C293.569 598.656 292.849 599.124 292.849 599.826C292.849 600.384 293.515 600.78 294.955 601.05C296.971 601.428 297.727 602.202 297.727 603.57C297.727 605.226 296.395 606.216 294.361 606.216C292.795 606.216 291.823 605.73 291.085 604.65L292.201 603.786C292.903 604.632 293.515 604.92 294.361 604.92C295.423 604.92 296.215 604.416 296.215 603.624C296.215 602.85 295.693 602.544 293.839 602.148C292.165 601.788 291.445 601.104 291.445 599.844C291.445 598.314 292.867 597.36 294.595 597.36Z" fill="white"/>
<g clip-path="url(#clip4_607_1299)">
<path d="M280.5 559C282.43 559 284 557.43 284 555.5C284 553.57 282.43 552 280.5 552C278.57 552 277 553.57 277 555.5C277 557.43 278.57 559 280.5 559ZM280.5 554C281.327 554 282 554.673 282 555.5C282 556.327 281.327 557 280.5 557C279.673 557 279 556.327 279 555.5C279 554.673 279.673 554 280.5 554ZM280 562C278.346 562 277 563.346 277 565C277 565.553 276.552 566 276 566C275.448 566 275 565.553 275 565C275 562.243 277.243 560 280 560C280.552 560 281 560.447 281 561C281 561.553 280.552 562 280 562ZM287 569C287 569.553 286.552 570 286 570H285C283.346 570 282 571.346 282 573C282 573.553 281.552 574 281 574C280.448 574 280 573.553 280 573C280 570.243 282.243 568 285 568H286C286.552 568 287 568.447 287 569ZM290.5 559C292.43 559 294 557.43 294 555.5C294 553.57 292.43 552 290.5 552C288.57 552 287 553.57 287 555.5C287 557.43 288.57 559 290.5 559ZM290.5 554C291.327 554 292 554.673 292 555.5C292 556.327 291.327 557 290.5 557C289.673 557 289 556.327 289 555.5C289 554.673 289.673 554 290.5 554ZM291 560C292.779 560 294.439 560.958 295.331 562.499C295.607 562.978 295.444 563.589 294.966 563.865C294.809 563.957 294.636 564 294.466 564C294.121 564 293.785 563.821 293.599 563.501C293.064 562.575 292.068 562 291 562C290.448 562 290 561.553 290 561C290 560.447 290.448 560 291 560ZM299 571C299 571.553 298.552 572 298 572H295V575C295 575.553 294.552 576 294 576C293.448 576 293 575.553 293 575V572H290C289.448 572 289 571.553 289 571C289 570.447 289.448 570 290 570H293V567C293 566.447 293.448 566 294 566C294.552 566 295 566.447 295 567V570H298C298.552 570 299 570.447 299 571ZM285.5 560C283.57 560 282 561.57 282 563.5C282 565.43 283.57 567 285.5 567C287.43 567 289 565.43 289 563.5C289 561.57 287.43 560 285.5 560ZM285.5 565C284.673 565 284 564.327 284 563.5C284 562.673 284.673 562 285.5 562C286.327 562 287 562.673 287 563.5C287 564.327 286.327 565 285.5 565Z" fill="white"/>
</g>
<path d="M25.5994 440.932C27.5434 440.932 29.1634 441.688 30.0994 442.93L28.7854 443.884C28.0114 442.858 26.8234 442.336 25.5994 442.336C22.7914 442.336 20.7394 444.802 20.7394 447.628C20.7394 450.562 22.7194 452.92 25.5994 452.92C27.1474 452.92 28.3714 452.308 29.2894 451.138L30.4234 452.092C29.2714 453.622 27.6334 454.324 25.5994 454.324C21.8374 454.324 19.1194 451.39 19.1194 447.628C19.1194 443.866 21.8374 440.932 25.5994 440.932ZM33.8093 440.392V454H32.4053V440.392H33.8093ZM40.6175 445.36C43.2275 445.36 45.1175 447.178 45.1175 449.788C45.1175 452.38 43.2275 454.216 40.6175 454.216C38.0075 454.216 36.1175 452.38 36.1175 449.788C36.1175 447.214 37.9715 445.36 40.6175 445.36ZM37.6295 449.788C37.6295 451.606 38.8535 452.92 40.6175 452.92C42.4175 452.92 43.6055 451.57 43.6055 449.788C43.6055 448.006 42.4175 446.656 40.5995 446.656C38.8355 446.656 37.6295 448.006 37.6295 449.788ZM47.291 450.85V445.576H48.695V450.688C48.695 451.966 49.271 452.92 50.621 452.92C52.367 452.92 53.231 451.66 53.231 449.752V445.576H54.635V452.128C54.635 452.65 54.707 453.55 54.707 454H53.375C53.375 453.406 53.339 453.172 53.339 452.614H53.303C52.871 453.55 51.773 454.216 50.477 454.216C48.389 454.216 47.291 452.884 47.291 450.85ZM61.0189 454.216C58.6429 454.216 56.8069 452.29 56.8069 449.788C56.8069 447.232 58.6069 445.36 61.2349 445.36C62.4229 445.36 63.4849 445.882 64.2589 446.8H64.2949V440.392H65.6989V454H64.2949V452.506H64.2589C63.6829 453.568 62.4049 454.216 61.0189 454.216ZM58.3189 449.788C58.3189 451.606 59.5429 452.92 61.3069 452.92C63.1069 452.92 64.2949 451.57 64.2949 449.788C64.2949 448.006 63.1249 446.656 61.2889 446.656C59.5249 446.656 58.3189 448.006 58.3189 449.788ZM79.3006 440.932C81.2446 440.932 82.8646 441.688 83.8006 442.93L82.4866 443.884C81.7126 442.858 80.5246 442.336 79.3006 442.336C76.4926 442.336 74.4406 444.802 74.4406 447.628C74.4406 450.562 76.4206 452.92 79.3006 452.92C80.8486 452.92 82.0726 452.308 82.9906 451.138L84.1246 452.092C82.9726 453.622 81.3346 454.324 79.3006 454.324C75.5386 454.324 72.8206 451.39 72.8206 447.628C72.8206 443.866 75.5386 440.932 79.3006 440.932ZM89.9944 445.36C92.6044 445.36 94.4944 447.178 94.4944 449.788C94.4944 452.38 92.6044 454.216 89.9944 454.216C87.3844 454.216 85.4944 452.38 85.4944 449.788C85.4944 447.214 87.3484 445.36 89.9944 445.36ZM87.0064 449.788C87.0064 451.606 88.2304 452.92 89.9944 452.92C91.7944 452.92 92.9824 451.57 92.9824 449.788C92.9824 448.006 91.7944 446.656 89.9764 446.656C88.2124 446.656 87.0064 448.006 87.0064 449.788ZM96.5959 445.576H97.9279C97.9279 446.098 97.9639 446.404 97.9639 446.962H97.9999C98.4499 446.008 99.5479 445.36 100.826 445.36C101.978 445.36 102.914 445.756 103.472 446.962C104.138 445.864 104.948 445.36 106.154 445.36C108.332 445.36 109.34 446.512 109.34 448.798V454H107.936V448.906C107.936 447.466 107.234 446.656 105.884 446.656C104.624 446.656 103.706 447.754 103.706 449.086V454H102.302V449.122C102.302 447.484 101.888 446.656 100.664 446.656C98.9719 446.656 98.0719 447.844 98.0719 449.878V454H96.6679V447.448C96.6679 446.89 96.5959 446.08 96.5959 445.576ZM111.924 458.104V445.576H113.328V446.8H113.364C114.156 445.882 115.164 445.36 116.388 445.36C119.034 445.36 120.816 447.232 120.816 449.788C120.816 452.29 118.98 454.216 116.604 454.216C115.182 454.216 113.922 453.532 113.364 452.506H113.328V458.104H111.924ZM113.328 449.788C113.328 451.606 114.552 452.92 116.316 452.92C118.116 452.92 119.304 451.57 119.304 449.788C119.304 448.006 118.116 446.656 116.298 446.656C114.534 446.656 113.328 448.006 113.328 449.788ZM123 450.85V445.576H124.404V450.688C124.404 451.966 124.98 452.92 126.33 452.92C128.076 452.92 128.94 451.66 128.94 449.752V445.576H130.344V452.128C130.344 452.65 130.416 453.55 130.416 454H129.084C129.084 453.406 129.048 453.172 129.048 452.614H129.012C128.58 453.55 127.482 454.216 126.186 454.216C124.098 454.216 123 452.884 123 450.85ZM133.722 446.764H131.886V445.576H133.722V443.182H135.126V445.576H137.61V446.764H135.126V451.264C135.126 452.614 135.576 452.92 136.386 452.92C136.8 452.92 137.268 452.83 137.628 452.632L137.682 453.91C137.178 454.126 136.566 454.216 136.044 454.216C134.424 454.216 133.722 453.568 133.722 451.48V446.764ZM143.164 445.36C145.36 445.36 147.16 446.746 147.16 449.878V450.22H140.356C140.5 451.786 141.652 452.92 143.128 452.92C144.298 452.92 145.126 452.506 145.792 451.642L146.854 452.47C145.972 453.622 144.838 454.216 143.128 454.216C140.518 454.216 138.844 452.308 138.844 449.788C138.844 447.196 140.662 445.36 143.164 445.36ZM145.648 449.032C145.576 447.574 144.658 446.656 143.092 446.656C141.652 446.656 140.572 447.502 140.356 449.032H145.648ZM75.721 478H74.209V465.256H78.079C80.797 465.256 82.453 466.462 82.453 468.748C82.453 471.07 80.707 472.276 78.349 472.276H75.721V478ZM75.721 466.66V470.872H78.349C79.879 470.872 80.833 470.08 80.833 468.766C80.833 467.452 79.897 466.66 78.349 466.66H75.721ZM88.7669 469.36C88.9829 469.36 89.1449 469.378 89.3429 469.45L89.2529 470.872C88.9829 470.8 88.7669 470.764 88.4969 470.764C86.8769 470.764 86.0309 471.88 86.0309 473.824V478H84.6269V471.448C84.6269 470.89 84.5549 470.08 84.5549 469.576H85.8869C85.8869 470.098 85.9229 470.404 85.9229 470.962H85.9589C86.4089 470.008 87.5249 469.36 88.7669 469.36ZM94.6526 469.36C97.2626 469.36 99.1526 471.178 99.1526 473.788C99.1526 476.38 97.2626 478.216 94.6526 478.216C92.0426 478.216 90.1526 476.38 90.1526 473.788C90.1526 471.214 92.0066 469.36 94.6526 469.36ZM91.6646 473.788C91.6646 475.606 92.8886 476.92 94.6526 476.92C96.4526 476.92 97.6406 475.57 97.6406 473.788C97.6406 472.006 96.4526 470.656 94.6346 470.656C92.8706 470.656 91.6646 472.006 91.6646 473.788ZM100.174 469.576H101.812L104.44 476.182H104.476L106.978 469.576H108.49L105.16 478H103.612L100.174 469.576ZM110.838 465.256C111.396 465.256 111.864 465.706 111.864 466.282C111.864 466.876 111.432 467.308 110.838 467.308C110.244 467.308 109.812 466.876 109.812 466.282C109.812 465.706 110.28 465.256 110.838 465.256ZM111.54 469.576V478H110.136V469.576H111.54ZM118.06 478.216C115.684 478.216 113.848 476.29 113.848 473.788C113.848 471.232 115.648 469.36 118.276 469.36C119.464 469.36 120.526 469.882 121.3 470.8H121.336V464.392H122.74V478H121.336V476.506H121.3C120.724 477.568 119.446 478.216 118.06 478.216ZM115.36 473.788C115.36 475.606 116.584 476.92 118.348 476.92C120.148 476.92 121.336 475.57 121.336 473.788C121.336 472.006 120.166 470.656 118.33 470.656C116.566 470.656 115.36 472.006 115.36 473.788ZM129.172 469.36C131.368 469.36 133.168 470.746 133.168 473.878V474.22H126.364C126.508 475.786 127.66 476.92 129.136 476.92C130.306 476.92 131.134 476.506 131.8 475.642L132.862 476.47C131.98 477.622 130.846 478.216 129.136 478.216C126.526 478.216 124.852 476.308 124.852 473.788C124.852 471.196 126.67 469.36 129.172 469.36ZM131.656 473.032C131.584 471.574 130.666 470.656 129.1 470.656C127.66 470.656 126.58 471.502 126.364 473.032H131.656ZM139.48 469.36C139.696 469.36 139.858 469.378 140.056 469.45L139.966 470.872C139.696 470.8 139.48 470.764 139.21 470.764C137.59 470.764 136.744 471.88 136.744 473.824V478H135.34V471.448C135.34 470.89 135.268 470.08 135.268 469.576H136.6C136.6 470.098 136.636 470.404 136.636 470.962H136.672C137.122 470.008 138.238 469.36 139.48 469.36ZM144.242 469.36C145.538 469.36 146.582 469.9 147.104 470.89L145.934 471.664C145.574 471.07 144.998 470.656 144.152 470.656C143.216 470.656 142.496 471.124 142.496 471.826C142.496 472.384 143.162 472.78 144.602 473.05C146.618 473.428 147.374 474.202 147.374 475.57C147.374 477.226 146.042 478.216 144.008 478.216C142.442 478.216 141.47 477.73 140.732 476.65L141.848 475.786C142.55 476.632 143.162 476.92 144.008 476.92C145.07 476.92 145.862 476.416 145.862 475.624C145.862 474.85 145.34 474.544 143.486 474.148C141.812 473.788 141.092 473.104 141.092 471.844C141.092 470.314 142.514 469.36 144.242 469.36Z" fill="white"/>
<g clip-path="url(#clip5_607_1299)">
<path d="M148 424C148 425.105 147.105 426 146 426C145.262 426 144.624 425.595 144.277 425H143C141.346 425 140 423.654 140 422V417C140 416.447 140.448 416 141 416C141.552 416 142 416.447 142 417V422C142 422.552 142.449 423 143 423H144.277C144.623 422.405 145.261 422 146 422C147.105 422 148 422.895 148 424ZM137 422.277V417C137 416.447 136.552 416 136 416C135.448 416 135 416.447 135 417V422.277C134.405 422.623 134 423.261 134 424C134 425.105 134.895 426 136 426C137.105 426 138 425.105 138 424C138 423.262 137.595 422.624 137 422.277ZM131 416C130.448 416 130 416.447 130 417V422C130 422.552 129.551 423 129 423H127.723C127.377 422.405 126.739 422 126 422C124.895 422 124 422.895 124 424C124 425.105 124.895 426 126 426C126.738 426 127.376 425.595 127.723 425H129C130.654 425 132 423.654 132 422V417C132 416.447 131.552 416 131 416ZM145 413.454C145 414.433 144.713 415.378 144.17 416.186C143.862 416.645 143.984 417.266 144.442 417.574C144.901 417.884 145.523 417.759 145.83 417.302C146.595 416.162 146.999 414.832 146.999 413.454C146.999 410.17 144.665 407.321 141.448 406.68C141.175 406.625 140.952 406.455 140.838 406.212C139.411 403.201 136.107 401.52 132.799 402.127C129.787 402.678 127.425 405.083 126.922 408.111C126.774 409.005 126.784 409.899 126.952 410.77C127 411.019 126.891 411.3 126.667 411.504C125.607 412.467 125 413.84 125 415.272C125 416.527 125.46 417.733 126.297 418.667C126.495 418.888 126.768 419 127.043 419C127.28 419 127.519 418.916 127.71 418.745C128.122 418.377 128.156 417.744 127.788 417.333C127.28 416.767 127.001 416.034 127.001 415.272C127.001 414.403 127.37 413.569 128.014 412.985C128.751 412.314 129.097 411.32 128.918 410.389C128.794 409.753 128.788 409.097 128.897 408.439C129.257 406.274 131.01 404.487 133.161 404.093C135.611 403.648 137.975 404.839 139.033 407.069C139.422 407.888 140.16 408.462 141.059 408.64C143.343 409.096 145.001 411.12 145.001 413.453L145 413.454Z" fill="white"/>
</g>
<path d="M8.28889 319.932C10.2329 319.932 11.8529 320.688 12.7889 321.93L11.4749 322.884C10.7009 321.858 9.51289 321.336 8.28889 321.336C5.48089 321.336 3.42889 323.802 3.42889 326.628C3.42889 329.562 5.40889 331.92 8.28889 331.92C9.83689 331.92 11.0609 331.308 11.9789 330.138L13.1129 331.092C11.9609 332.622 10.3229 333.324 8.28889 333.324C4.52689 333.324 1.80889 330.39 1.80889 326.628C1.80889 322.866 4.52689 319.932 8.28889 319.932ZM18.9827 324.36C21.5927 324.36 23.4827 326.178 23.4827 328.788C23.4827 331.38 21.5927 333.216 18.9827 333.216C16.3727 333.216 14.4827 331.38 14.4827 328.788C14.4827 326.214 16.3367 324.36 18.9827 324.36ZM15.9947 328.788C15.9947 330.606 17.2187 331.92 18.9827 331.92C20.7827 331.92 21.9707 330.57 21.9707 328.788C21.9707 327.006 20.7827 325.656 18.9647 325.656C17.2007 325.656 15.9947 327.006 15.9947 328.788ZM29.7962 324.36C30.0122 324.36 30.1742 324.378 30.3722 324.45L30.2822 325.872C30.0122 325.8 29.7962 325.764 29.5262 325.764C27.9062 325.764 27.0602 326.88 27.0602 328.824V333H25.6562V326.448C25.6562 325.89 25.5842 325.08 25.5842 324.576H26.9162C26.9162 325.098 26.9522 325.404 26.9522 325.962H26.9882C27.4382 325.008 28.5542 324.36 29.7962 324.36ZM31.9123 337.104V324.576H33.3163V325.8H33.3523C34.1443 324.882 35.1523 324.36 36.3763 324.36C39.0223 324.36 40.8043 326.232 40.8043 328.788C40.8043 331.29 38.9683 333.216 36.5923 333.216C35.1703 333.216 33.9103 332.532 33.3523 331.506H33.3163V337.104H31.9123ZM33.3163 328.788C33.3163 330.606 34.5403 331.92 36.3043 331.92C38.1043 331.92 39.2923 330.57 39.2923 328.788C39.2923 327.006 38.1043 325.656 36.2863 325.656C34.5223 325.656 33.3163 327.006 33.3163 328.788ZM47.0023 324.36C49.6123 324.36 51.5023 326.178 51.5023 328.788C51.5023 331.38 49.6123 333.216 47.0023 333.216C44.3923 333.216 42.5023 331.38 42.5023 328.788C42.5023 326.214 44.3563 324.36 47.0023 324.36ZM44.0143 328.788C44.0143 330.606 45.2383 331.92 47.0023 331.92C48.8023 331.92 49.9903 330.57 49.9903 328.788C49.9903 327.006 48.8023 325.656 46.9843 325.656C45.2203 325.656 44.0143 327.006 44.0143 328.788ZM57.8158 324.36C58.0318 324.36 58.1938 324.378 58.3918 324.45L58.3018 325.872C58.0318 325.8 57.8158 325.764 57.5458 325.764C55.9258 325.764 55.0798 326.88 55.0798 328.824V333H53.6758V326.448C53.6758 325.89 53.6038 325.08 53.6038 324.576H54.9358C54.9358 325.098 54.9718 325.404 54.9718 325.962H55.0078C55.4578 325.008 56.5738 324.36 57.8158 324.36ZM62.6499 333.216C60.8139 333.216 59.5179 332.244 59.5179 330.714C59.5179 328.77 60.9759 327.762 64.7199 327.762H65.3679V327.528C65.3679 326.286 64.5939 325.656 63.2799 325.656C62.3619 325.656 61.4439 325.944 60.7779 326.574L59.8959 325.656C60.7599 324.792 62.0019 324.36 63.2439 324.36C65.6739 324.36 66.7719 325.53 66.7719 327.834V331.614C66.7719 331.902 66.8079 332.424 66.8979 333H65.5479C65.4759 332.784 65.4579 332.46 65.4579 331.74H65.4219C64.7919 332.694 63.8199 333.216 62.6499 333.216ZM63.8199 328.95C62.1639 328.95 61.0299 329.472 61.0299 330.57C61.0299 331.524 61.6959 332.028 62.8839 332.028C64.3419 332.028 65.3679 331.074 65.3679 329.274V328.95H63.8199ZM70.0579 325.764H68.2219V324.576H70.0579V322.182H71.4619V324.576H73.9459V325.764H71.4619V330.264C71.4619 331.614 71.9119 331.92 72.7219 331.92C73.1359 331.92 73.6039 331.83 73.9639 331.632L74.0179 332.91C73.5139 333.126 72.9019 333.216 72.3799 333.216C70.7599 333.216 70.0579 332.568 70.0579 330.48V325.764ZM79.5 324.36C81.696 324.36 83.496 325.746 83.496 328.878V329.22H76.692C76.836 330.786 77.988 331.92 79.464 331.92C80.634 331.92 81.462 331.506 82.128 330.642L83.19 331.47C82.308 332.622 81.174 333.216 79.464 333.216C76.854 333.216 75.18 331.308 75.18 328.788C75.18 326.196 76.998 324.36 79.5 324.36ZM81.984 328.032C81.912 326.574 80.994 325.656 79.428 325.656C77.988 325.656 76.908 326.502 76.692 328.032H81.984ZM88.2419 324.36C89.5379 324.36 90.5819 324.9 91.1039 325.89L89.9339 326.664C89.5739 326.07 88.9979 325.656 88.1519 325.656C87.2159 325.656 86.4959 326.124 86.4959 326.826C86.4959 327.384 87.1619 327.78 88.6019 328.05C90.6179 328.428 91.3739 329.202 91.3739 330.57C91.3739 332.226 90.0419 333.216 88.0079 333.216C86.4419 333.216 85.4699 332.73 84.7319 331.65L85.8479 330.786C86.5499 331.632 87.1619 331.92 88.0079 331.92C89.0699 331.92 89.8619 331.416 89.8619 330.624C89.8619 329.85 89.3399 329.544 87.4859 329.148C85.8119 328.788 85.0919 328.104 85.0919 326.844C85.0919 325.314 86.5139 324.36 88.2419 324.36Z" fill="white"/>
<g clip-path="url(#clip6_607_1299)">
<path d="M78 307C78 307.553 77.553 308 77 308H73C70.243 308 68 305.757 68 303V289C68 286.243 70.243 284 73 284H79C81.757 284 84 286.243 84 289V293C84 293.553 83.553 294 83 294C82.447 294 82 293.553 82 293V289C82 287.346 80.654 286 79 286H73C71.346 286 70 287.346 70 289V303C70 304.654 71.346 306 73 306H77C77.553 306 78 306.447 78 307ZM74 297H73C72.447 297 72 297.447 72 298C72 298.553 72.447 299 73 299H74C74.553 299 75 298.553 75 298C75 297.447 74.553 297 74 297ZM79 297H78C77.447 297 77 297.447 77 298C77 298.553 77.447 299 78 299H79C79.553 299 80 298.553 80 298C80 297.447 79.553 297 79 297ZM74 301H73C72.447 301 72 301.447 72 302C72 302.553 72.447 303 73 303H74C74.553 303 75 302.553 75 302C75 301.447 74.553 301 74 301ZM74 289H73C72.447 289 72 289.447 72 290C72 290.553 72.447 291 73 291H74C74.553 291 75 290.553 75 290C75 289.447 74.553 289 74 289ZM79 289H78C77.447 289 77 289.447 77 290C77 290.553 77.447 291 78 291H79C79.553 291 80 290.553 80 290C80 289.447 79.553 289 79 289ZM74 293H73C72.447 293 72 293.447 72 294C72 294.553 72.447 295 73 295H74C74.553 295 75 294.553 75 294C75 293.447 74.553 293 74 293ZM79 293H78C77.447 293 77 293.447 77 294C77 294.553 77.447 295 78 295H79C79.553 295 80 294.553 80 294C80 293.447 79.553 293 79 293ZM92 301.5V304.5C92 306.43 90.43 308 88.5 308H83.5C81.57 308 80 306.43 80 304.5V301.5C80 299.742 81.308 298.296 83 298.051V298C83 296.897 83.897 296 85 296H87C88.103 296 89 296.897 89 298V298.051C90.692 298.296 92 299.742 92 301.5ZM82 301.5V302H90V301.5C90 300.673 89.327 300 88.5 300H83.5C82.673 300 82 300.673 82 301.5ZM90 304.5V304H87C87 304.553 86.553 305 86 305C85.447 305 85 304.553 85 304H82V304.5C82 305.327 82.673 306 83.5 306H88.5C89.327 306 90 305.327 90 304.5Z" fill="white"/>
</g>
<path d="M56.7789 157H55.0689L60.6849 144.256H62.1069L67.5249 157H65.7609L64.4649 153.868H58.0929L56.7789 157ZM58.6869 152.464H63.8889L61.3689 146.2H61.3329L58.6869 152.464ZM72.8548 148.36C74.0788 148.36 75.2308 148.774 76.0768 149.692L74.9608 150.682C74.3668 149.962 73.6828 149.656 72.8368 149.656C71.0908 149.656 69.9928 150.898 69.9928 152.788C69.9928 154.552 71.1628 155.92 72.8368 155.92C73.7548 155.92 74.4568 155.596 74.9788 154.876L76.0228 155.866C75.2128 156.802 74.0608 157.216 72.8368 157.216C70.2448 157.216 68.4808 155.398 68.4808 152.788C68.4808 150.214 70.2628 148.36 72.8548 148.36ZM81.5384 148.36C82.7624 148.36 83.9144 148.774 84.7604 149.692L83.6444 150.682C83.0504 149.962 82.3664 149.656 81.5204 149.656C79.7744 149.656 78.6764 150.898 78.6764 152.788C78.6764 154.552 79.8464 155.92 81.5204 155.92C82.4384 155.92 83.1404 155.596 83.6624 154.876L84.7064 155.866C83.8964 156.802 82.7444 157.216 81.5204 157.216C78.9284 157.216 77.1644 155.398 77.1644 152.788C77.1644 150.214 78.9464 148.36 81.5384 148.36ZM90.168 148.36C92.364 148.36 94.164 149.746 94.164 152.878V153.22H87.36C87.504 154.786 88.656 155.92 90.132 155.92C91.302 155.92 92.13 155.506 92.796 154.642L93.858 155.47C92.976 156.622 91.842 157.216 90.132 157.216C87.522 157.216 85.848 155.308 85.848 152.788C85.848 150.196 87.666 148.36 90.168 148.36ZM92.652 152.032C92.58 150.574 91.662 149.656 90.096 149.656C88.656 149.656 87.576 150.502 87.36 152.032H92.652ZM97.8659 143.392V157H96.4619V143.392H97.8659ZM104.494 148.36C106.69 148.36 108.49 149.746 108.49 152.878V153.22H101.686C101.83 154.786 102.982 155.92 104.458 155.92C105.628 155.92 106.456 155.506 107.122 154.642L108.184 155.47C107.302 156.622 106.168 157.216 104.458 157.216C101.848 157.216 100.174 155.308 100.174 152.788C100.174 150.196 101.992 148.36 104.494 148.36ZM106.978 152.032C106.906 150.574 105.988 149.656 104.422 149.656C102.982 149.656 101.902 150.502 101.686 152.032H106.978ZM114.802 148.36C115.018 148.36 115.18 148.378 115.378 148.45L115.288 149.872C115.018 149.8 114.802 149.764 114.532 149.764C112.912 149.764 112.066 150.88 112.066 152.824V157H110.662V150.448C110.662 149.89 110.59 149.08 110.59 148.576H111.922C111.922 149.098 111.958 149.404 111.958 149.962H111.994C112.444 149.008 113.56 148.36 114.802 148.36ZM119.636 157.216C117.8 157.216 116.504 156.244 116.504 154.714C116.504 152.77 117.962 151.762 121.706 151.762H122.354V151.528C122.354 150.286 121.58 149.656 120.266 149.656C119.348 149.656 118.43 149.944 117.764 150.574L116.882 149.656C117.746 148.792 118.988 148.36 120.23 148.36C122.66 148.36 123.758 149.53 123.758 151.834V155.614C123.758 155.902 123.794 156.424 123.884 157H122.534C122.462 156.784 122.444 156.46 122.444 155.74H122.408C121.778 156.694 120.806 157.216 119.636 157.216ZM120.806 152.95C119.15 152.95 118.016 153.472 118.016 154.57C118.016 155.524 118.682 156.028 119.87 156.028C121.328 156.028 122.354 155.074 122.354 153.274V152.95H120.806ZM127.044 149.764H125.208V148.576H127.044V146.182H128.448V148.576H130.932V149.764H128.448V154.264C128.448 155.614 128.898 155.92 129.708 155.92C130.122 155.92 130.59 155.83 130.95 155.632L131.004 156.91C130.5 157.126 129.888 157.216 129.366 157.216C127.746 157.216 127.044 156.568 127.044 154.48V149.764ZM136.666 148.36C139.276 148.36 141.166 150.178 141.166 152.788C141.166 155.38 139.276 157.216 136.666 157.216C134.056 157.216 132.166 155.38 132.166 152.788C132.166 150.214 134.02 148.36 136.666 148.36ZM133.678 152.788C133.678 154.606 134.902 155.92 136.666 155.92C138.466 155.92 139.654 154.57 139.654 152.788C139.654 151.006 138.466 149.656 136.648 149.656C134.884 149.656 133.678 151.006 133.678 152.788ZM147.48 148.36C147.696 148.36 147.858 148.378 148.056 148.45L147.966 149.872C147.696 149.8 147.48 149.764 147.21 149.764C145.59 149.764 144.744 150.88 144.744 152.824V157H143.34V150.448C143.34 149.89 143.268 149.08 143.268 148.576H144.6C144.6 149.098 144.636 149.404 144.636 149.962H144.672C145.122 149.008 146.238 148.36 147.48 148.36ZM152.242 148.36C153.538 148.36 154.582 148.9 155.104 149.89L153.934 150.664C153.574 150.07 152.998 149.656 152.152 149.656C151.216 149.656 150.496 150.124 150.496 150.826C150.496 151.384 151.162 151.78 152.602 152.05C154.618 152.428 155.374 153.202 155.374 154.57C155.374 156.226 154.042 157.216 152.008 157.216C150.442 157.216 149.47 156.73 148.732 155.65L149.848 154.786C150.55 155.632 151.162 155.92 152.008 155.92C153.07 155.92 153.862 155.416 153.862 154.624C153.862 153.85 153.34 153.544 151.486 153.148C149.812 152.788 149.092 152.104 149.092 150.844C149.092 149.314 150.514 148.36 152.242 148.36Z" fill="white"/>
<g clip-path="url(#clip7_607_1299)">
<path d="M156 121C156.004 122.574 155.695 124.132 155.093 125.586C154.491 127.04 153.607 128.36 152.492 129.47C151.953 130.012 151.23 130.331 150.466 130.364C149.702 130.396 148.955 130.139 148.372 129.644L147.346 128.757C147.247 128.671 147.165 128.567 147.106 128.449C147.047 128.332 147.012 128.204 147.002 128.073C146.983 127.808 147.07 127.547 147.243 127.346C147.329 127.247 147.434 127.165 147.551 127.106C147.668 127.047 147.796 127.012 147.927 127.002C148.192 126.983 148.453 127.07 148.654 127.243L149.681 128.131C149.879 128.3 150.134 128.386 150.393 128.372C150.653 128.358 150.897 128.245 151.076 128.056C152.03 127.091 152.778 125.942 153.275 124.68C153.773 123.418 154.009 122.067 153.97 120.711C153.932 119.355 153.619 118.02 153.05 116.788C152.481 115.556 151.669 114.452 150.662 113.543C149.611 112.595 148.369 111.883 147.019 111.455C145.67 111.028 144.244 110.895 142.839 111.065C140.969 111.282 139.198 112.023 137.73 113.202C136.263 114.381 135.158 115.951 134.544 117.731C133.93 119.511 133.831 121.428 134.259 123.261C134.686 125.095 135.624 126.77 136.962 128.094C137.142 128.27 137.382 128.372 137.633 128.379C137.885 128.386 138.13 128.298 138.319 128.132L139.346 127.243C139.547 127.07 139.808 126.983 140.073 127.002C140.337 127.022 140.584 127.145 140.757 127.346C140.93 127.547 141.017 127.808 140.998 128.073C140.978 128.338 140.855 128.584 140.654 128.757L139.628 129.645C139.056 130.137 138.32 130.396 137.566 130.373C136.812 130.349 136.095 130.043 135.555 129.516C134.151 128.125 133.112 126.409 132.531 124.521C131.95 122.632 131.844 120.629 132.223 118.689C132.602 116.75 133.454 114.934 134.704 113.403C135.953 111.872 137.562 110.673 139.386 109.913C141.21 109.153 143.194 108.856 145.161 109.047C147.128 109.238 149.017 109.912 150.661 111.009C152.305 112.106 153.652 113.592 154.584 115.335C155.515 117.078 156.002 119.024 156 121ZM149.707 116.707C149.889 116.518 149.99 116.266 149.988 116.004C149.985 115.741 149.88 115.491 149.695 115.305C149.509 115.12 149.259 115.015 148.996 115.012C148.734 115.01 148.482 115.111 148.293 115.293L144.518 119.068C144.093 118.954 143.642 118.984 143.235 119.152C142.828 119.321 142.488 119.619 142.268 120C142.048 120.381 141.96 120.824 142.017 121.261C142.075 121.697 142.275 122.103 142.586 122.414C142.897 122.725 143.303 122.925 143.739 122.983C144.176 123.04 144.619 122.952 145 122.732C145.382 122.512 145.68 122.172 145.848 121.765C146.016 121.358 146.046 120.907 145.932 120.482L149.707 116.707Z" fill="white"/>
</g>
<path d="M412.326 592.932C414.27 592.932 415.89 593.688 416.826 594.93L415.512 595.884C414.738 594.858 413.55 594.336 412.326 594.336C409.518 594.336 407.466 596.802 407.466 599.628C407.466 602.562 409.446 604.92 412.326 604.92C413.874 604.92 415.098 604.308 416.016 603.138L417.15 604.092C415.998 605.622 414.36 606.324 412.326 606.324C408.564 606.324 405.846 603.39 405.846 599.628C405.846 595.866 408.564 592.932 412.326 592.932ZM423.02 597.36C425.63 597.36 427.52 599.178 427.52 601.788C427.52 604.38 425.63 606.216 423.02 606.216C420.41 606.216 418.52 604.38 418.52 601.788C418.52 599.214 420.374 597.36 423.02 597.36ZM420.032 601.788C420.032 603.606 421.256 604.92 423.02 604.92C424.82 604.92 426.008 603.57 426.008 601.788C426.008 600.006 424.82 598.656 423.002 598.656C421.238 598.656 420.032 600.006 420.032 601.788ZM429.621 597.576H430.953C430.953 598.098 430.989 598.404 430.989 598.962H431.025C431.475 598.008 432.573 597.36 433.851 597.36C435.003 597.36 435.939 597.756 436.497 598.962C437.163 597.864 437.973 597.36 439.179 597.36C441.357 597.36 442.365 598.512 442.365 600.798V606H440.961V600.906C440.961 599.466 440.259 598.656 438.909 598.656C437.649 598.656 436.731 599.754 436.731 601.086V606H435.327V601.122C435.327 599.484 434.913 598.656 433.689 598.656C431.997 598.656 431.097 599.844 431.097 601.878V606H429.693V599.448C429.693 598.89 429.621 598.08 429.621 597.576ZM444.949 597.576H446.281C446.281 598.098 446.317 598.404 446.317 598.962H446.353C446.803 598.008 447.901 597.36 449.179 597.36C450.331 597.36 451.267 597.756 451.825 598.962C452.491 597.864 453.301 597.36 454.507 597.36C456.685 597.36 457.693 598.512 457.693 600.798V606H456.289V600.906C456.289 599.466 455.587 598.656 454.237 598.656C452.977 598.656 452.059 599.754 452.059 601.086V606H450.655V601.122C450.655 599.484 450.241 598.656 449.017 598.656C447.325 598.656 446.425 599.844 446.425 601.878V606H445.021V599.448C445.021 598.89 444.949 598.08 444.949 597.576ZM460.35 602.85V597.576H461.754V602.688C461.754 603.966 462.33 604.92 463.68 604.92C465.426 604.92 466.29 603.66 466.29 601.752V597.576H467.694V604.128C467.694 604.65 467.766 605.55 467.766 606H466.434C466.434 605.406 466.398 605.172 466.398 604.614H466.362C465.93 605.55 464.832 606.216 463.536 606.216C461.448 606.216 460.35 604.884 460.35 602.85ZM470.28 597.576H471.612C471.612 598.098 471.648 598.404 471.648 598.962H471.684C472.134 598.008 473.25 597.36 474.492 597.36C476.634 597.36 477.696 598.692 477.696 600.726V606H476.292V600.888C476.292 599.592 475.716 598.656 474.366 598.656C472.638 598.656 471.756 599.862 471.756 601.878V606H470.352V599.448C470.352 598.89 470.28 598.08 470.28 597.576ZM481.181 593.256C481.739 593.256 482.207 593.706 482.207 594.282C482.207 594.876 481.775 595.308 481.181 595.308C480.587 595.308 480.155 594.876 480.155 594.282C480.155 593.706 480.623 593.256 481.181 593.256ZM481.883 597.576V606H480.479V597.576H481.883ZM485.398 598.764H483.562V597.576H485.398V595.182H486.802V597.576H489.286V598.764H486.802V603.264C486.802 604.614 487.252 604.92 488.062 604.92C488.476 604.92 488.944 604.83 489.304 604.632L489.358 605.91C488.854 606.126 488.242 606.216 487.72 606.216C486.1 606.216 485.398 605.568 485.398 603.48V598.764ZM489.854 597.576H491.492L494.102 604.182H494.138L496.64 597.576H498.17L494.048 608.07C493.364 609.816 492.59 610.32 491.294 610.32C490.826 610.32 490.412 610.266 490.034 610.104L490.214 608.88C490.502 609.006 490.826 609.024 491.204 609.024C491.906 609.024 492.374 608.7 492.716 607.782L493.346 606.054L489.854 597.576ZM504.897 601.176V593.256H506.409V600.924C506.409 603.462 507.525 604.92 509.703 604.92C511.881 604.92 512.997 603.444 512.997 600.996V593.256H514.509V601.194C514.509 604.308 512.853 606.324 509.703 606.324C506.553 606.324 504.897 604.29 504.897 601.176ZM517.301 597.576H518.633C518.633 598.098 518.669 598.404 518.669 598.962H518.705C519.155 598.008 520.271 597.36 521.513 597.36C523.655 597.36 524.717 598.692 524.717 600.726V606H523.313V600.888C523.313 599.592 522.737 598.656 521.387 598.656C519.659 598.656 518.777 599.862 518.777 601.878V606H517.373V599.448C517.373 598.89 517.301 598.08 517.301 597.576ZM531.101 606.216C528.725 606.216 526.889 604.29 526.889 601.788C526.889 599.232 528.689 597.36 531.317 597.36C532.505 597.36 533.567 597.882 534.341 598.8H534.377V592.392H535.781V606H534.377V604.506H534.341C533.765 605.568 532.487 606.216 531.101 606.216ZM528.401 601.788C528.401 603.606 529.625 604.92 531.389 604.92C533.189 604.92 534.377 603.57 534.377 601.788C534.377 600.006 533.207 598.656 531.371 598.656C529.607 598.656 528.401 600.006 528.401 601.788ZM542.213 597.36C544.409 597.36 546.209 598.746 546.209 601.878V602.22H539.405C539.549 603.786 540.701 604.92 542.177 604.92C543.347 604.92 544.175 604.506 544.841 603.642L545.903 604.47C545.021 605.622 543.887 606.216 542.177 606.216C539.567 606.216 537.893 604.308 537.893 601.788C537.893 599.196 539.711 597.36 542.213 597.36ZM544.697 601.032C544.625 599.574 543.707 598.656 542.141 598.656C540.701 598.656 539.621 599.502 539.405 601.032H544.697ZM552.521 597.36C552.737 597.36 552.899 597.378 553.097 597.45L553.007 598.872C552.737 598.8 552.521 598.764 552.251 598.764C550.631 598.764 549.785 599.88 549.785 601.824V606H548.381V599.448C548.381 598.89 548.309 598.08 548.309 597.576H549.641C549.641 598.098 549.677 598.404 549.677 598.962H549.713C550.163 598.008 551.279 597.36 552.521 597.36ZM554.637 597.576H555.969C555.969 598.098 556.005 598.404 556.005 598.962H556.041C556.491 598.008 557.607 597.36 558.849 597.36C560.991 597.36 562.053 598.692 562.053 600.726V606H560.649V600.888C560.649 599.592 560.073 598.656 558.723 598.656C556.995 598.656 556.113 599.862 556.113 601.878V606H554.709V599.448C554.709 598.89 554.637 598.08 554.637 597.576ZM568.545 597.36C570.741 597.36 572.541 598.746 572.541 601.878V602.22H565.737C565.881 603.786 567.033 604.92 568.509 604.92C569.679 604.92 570.507 604.506 571.173 603.642L572.235 604.47C571.353 605.622 570.219 606.216 568.509 606.216C565.899 606.216 564.225 604.308 564.225 601.788C564.225 599.196 566.043 597.36 568.545 597.36ZM571.029 601.032C570.957 599.574 570.039 598.656 568.473 598.656C567.033 598.656 565.953 599.502 565.737 601.032H571.029ZM577.359 606.216C575.523 606.216 574.227 605.244 574.227 603.714C574.227 601.77 575.685 600.762 579.429 600.762H580.077V600.528C580.077 599.286 579.303 598.656 577.989 598.656C577.071 598.656 576.153 598.944 575.487 599.574L574.605 598.656C575.469 597.792 576.711 597.36 577.953 597.36C580.383 597.36 581.481 598.53 581.481 600.834V604.614C581.481 604.902 581.517 605.424 581.607 606H580.257C580.185 605.784 580.167 605.46 580.167 604.74H580.131C579.501 605.694 578.529 606.216 577.359 606.216ZM578.529 601.95C576.873 601.95 575.739 602.472 575.739 603.57C575.739 604.524 576.405 605.028 577.593 605.028C579.051 605.028 580.077 604.074 580.077 602.274V601.95H578.529ZM584.767 598.764H582.931V597.576H584.767V595.182H586.171V597.576H588.655V598.764H586.171V603.264C586.171 604.614 586.621 604.92 587.431 604.92C587.845 604.92 588.313 604.83 588.673 604.632L588.727 605.91C588.223 606.126 587.611 606.216 587.089 606.216C585.469 606.216 584.767 605.568 584.767 603.48V598.764ZM591.779 606H590.375V592.392H591.779V598.746H591.815C592.319 597.9 593.399 597.36 594.533 597.36C596.639 597.36 597.719 598.692 597.719 600.726V606H596.315V600.888C596.315 599.592 595.739 598.656 594.389 598.656C592.661 598.656 591.779 599.88 591.779 601.824V606ZM605.693 606H603.875L612.155 593.256H619.985V594.66H614.693V598.656H619.661V600.06H614.693V604.596H620.201V606H613.181V602.544H607.907L605.693 606ZM612.965 594.66L608.807 601.14H613.181V594.66H612.965ZM623.105 598.764H621.269V597.576H623.105V595.182H624.509V597.576H626.993V598.764H624.509V603.264C624.509 604.614 624.959 604.92 625.769 604.92C626.183 604.92 626.651 604.83 627.011 604.632L627.065 605.91C626.561 606.126 625.949 606.216 625.427 606.216C623.807 606.216 623.105 605.568 623.105 603.48V598.764ZM630.117 606H628.713V592.392H630.117V598.746H630.153C630.657 597.9 631.737 597.36 632.871 597.36C634.977 597.36 636.057 598.692 636.057 600.726V606H634.653V600.888C634.653 599.592 634.077 598.656 632.727 598.656C630.999 598.656 630.117 599.88 630.117 601.824V606ZM642.729 597.36C645.339 597.36 647.229 599.178 647.229 601.788C647.229 604.38 645.339 606.216 642.729 606.216C640.119 606.216 638.229 604.38 638.229 601.788C638.229 599.214 640.083 597.36 642.729 597.36ZM639.741 601.788C639.741 603.606 640.965 604.92 642.729 604.92C644.529 604.92 645.717 603.57 645.717 601.788C645.717 600.006 644.529 598.656 642.711 598.656C640.947 598.656 639.741 600.006 639.741 601.788ZM651.976 597.36C653.272 597.36 654.316 597.9 654.838 598.89L653.668 599.664C653.308 599.07 652.732 598.656 651.886 598.656C650.95 598.656 650.23 599.124 650.23 599.826C650.23 600.384 650.896 600.78 652.336 601.05C654.352 601.428 655.108 602.202 655.108 603.57C655.108 605.226 653.776 606.216 651.742 606.216C650.176 606.216 649.204 605.73 648.466 604.65L649.582 603.786C650.284 604.632 650.896 604.92 651.742 604.92C652.804 604.92 653.596 604.416 653.596 603.624C653.596 602.85 653.074 602.544 651.22 602.148C649.546 601.788 648.826 601.104 648.826 599.844C648.826 598.314 650.248 597.36 651.976 597.36Z" fill="white"/>
<g clip-path="url(#clip8_607_1299)">
<path d="M420 568C419.209 568 418.436 567.765 417.778 567.326C417.12 566.886 416.607 566.262 416.304 565.531C416.002 564.8 415.923 563.996 416.077 563.22C416.231 562.444 416.612 561.731 417.172 561.172C417.731 560.612 418.444 560.231 419.22 560.077C419.996 559.923 420.8 560.002 421.531 560.304C422.262 560.607 422.886 561.12 423.326 561.778C423.765 562.436 424 563.209 424 564C424 565.061 423.579 566.078 422.828 566.828C422.078 567.579 421.061 568 420 568ZM420 562C419.604 562 419.218 562.117 418.889 562.337C418.56 562.557 418.304 562.869 418.152 563.235C418.001 563.6 417.961 564.002 418.038 564.39C418.116 564.778 418.306 565.135 418.586 565.414C418.865 565.694 419.222 565.884 419.61 565.962C419.998 566.039 420.4 565.999 420.765 565.848C421.131 565.696 421.443 565.44 421.663 565.111C421.883 564.782 422 564.396 422 564C422 563.47 421.789 562.961 421.414 562.586C421.039 562.211 420.53 562 420 562ZM426 575C426 573.409 425.368 571.883 424.243 570.757C423.117 569.632 421.591 569 420 569C418.409 569 416.883 569.632 415.757 570.757C414.632 571.883 414 573.409 414 575C414 575.265 414.105 575.52 414.293 575.707C414.48 575.895 414.735 576 415 576C415.265 576 415.52 575.895 415.707 575.707C415.895 575.52 416 575.265 416 575C416 573.939 416.421 572.922 417.172 572.172C417.922 571.421 418.939 571 420 571C421.061 571 422.078 571.421 422.828 572.172C423.579 572.922 424 573.939 424 575C424 575.265 424.105 575.52 424.293 575.707C424.48 575.895 424.735 576 425 576C425.265 576 425.52 575.895 425.707 575.707C425.895 575.52 426 575.265 426 575ZM426 560C425.209 560 424.436 559.765 423.778 559.326C423.12 558.886 422.607 558.262 422.304 557.531C422.002 556.8 421.923 555.996 422.077 555.22C422.231 554.444 422.612 553.731 423.172 553.172C423.731 552.612 424.444 552.231 425.22 552.077C425.996 551.923 426.8 552.002 427.531 552.304C428.262 552.607 428.886 553.12 429.326 553.778C429.765 554.436 430 555.209 430 556C430 557.061 429.579 558.078 428.828 558.828C428.078 559.579 427.061 560 426 560ZM426 554C425.604 554 425.218 554.117 424.889 554.337C424.56 554.557 424.304 554.869 424.152 555.235C424.001 555.6 423.961 556.002 424.038 556.39C424.116 556.778 424.306 557.135 424.586 557.414C424.865 557.694 425.222 557.884 425.61 557.962C425.998 558.039 426.4 557.999 426.765 557.848C427.131 557.696 427.443 557.44 427.663 557.111C427.883 556.782 428 556.396 428 556C428 555.47 427.789 554.961 427.414 554.586C427.039 554.211 426.53 554 426 554ZM432 567C431.998 565.409 431.366 563.884 430.241 562.759C429.116 561.634 427.591 561.002 426 561C425.735 561 425.48 561.105 425.293 561.293C425.105 561.48 425 561.735 425 562C425 562.265 425.105 562.52 425.293 562.707C425.48 562.895 425.735 563 426 563C427.061 563 428.078 563.421 428.828 564.172C429.579 564.922 430 565.939 430 567C430 567.265 430.105 567.52 430.293 567.707C430.48 567.895 430.735 568 431 568C431.265 568 431.52 567.895 431.707 567.707C431.895 567.52 432 567.265 432 567ZM414 560C413.209 560 412.436 559.765 411.778 559.326C411.12 558.886 410.607 558.262 410.304 557.531C410.002 556.8 409.923 555.996 410.077 555.22C410.231 554.444 410.612 553.731 411.172 553.172C411.731 552.612 412.444 552.231 413.22 552.077C413.996 551.923 414.8 552.002 415.531 552.304C416.262 552.607 416.886 553.12 417.326 553.778C417.765 554.436 418 555.209 418 556C418 557.061 417.579 558.078 416.828 558.828C416.078 559.579 415.061 560 414 560ZM414 554C413.604 554 413.218 554.117 412.889 554.337C412.56 554.557 412.304 554.869 412.152 555.235C412.001 555.6 411.961 556.002 412.038 556.39C412.116 556.778 412.306 557.135 412.586 557.414C412.865 557.694 413.222 557.884 413.61 557.962C413.998 558.039 414.4 557.999 414.765 557.848C415.131 557.696 415.443 557.44 415.663 557.111C415.883 556.782 416 556.396 416 556C416 555.47 415.789 554.961 415.414 554.586C415.039 554.211 414.53 554 414 554ZM410 567C410 565.939 410.421 564.922 411.172 564.172C411.922 563.421 412.939 563 414 563C414.265 563 414.52 562.895 414.707 562.707C414.895 562.52 415 562.265 415 562C415 561.735 414.895 561.48 414.707 561.293C414.52 561.105 414.265 561 414 561C412.409 561.002 410.884 561.634 409.759 562.759C408.634 563.884 408.002 565.409 408 567C408 567.265 408.105 567.52 408.293 567.707C408.48 567.895 408.735 568 409 568C409.265 568 409.52 567.895 409.707 567.707C409.895 567.52 410 567.265 410 567Z" fill="white"/>
</g>
<defs>
<linearGradient id="paint0_linear_607_1299" x1="228" y1="190" x2="523.418" y2="268.015" gradientUnits="userSpaceOnUse">
<stop stop-color="#51B29C"/>
<stop offset="1" stop-color="#3A7FD0"/>
</linearGradient>
<clipPath id="clip0_607_1299">
<rect width="82.0414" height="82.0414" fill="white" transform="translate(312 261)"/>
</clipPath>
<clipPath id="clip1_607_1299">
<rect width="24" height="24" fill="white" transform="translate(550 108)"/>
</clipPath>
<clipPath id="clip2_607_1299">
<rect width="24" height="24" fill="white" transform="translate(613 284)"/>
</clipPath>
<clipPath id="clip3_607_1299">
<rect width="24" height="24" fill="white" transform="translate(560 402)"/>
</clipPath>
<clipPath id="clip4_607_1299">
<rect width="24" height="24" fill="white" transform="translate(275 552)"/>
</clipPath>
<clipPath id="clip5_607_1299">
<rect width="24" height="24" fill="white" transform="translate(124 402)"/>
</clipPath>
<clipPath id="clip6_607_1299">
<rect width="24" height="24" fill="white" transform="translate(68 284)"/>
</clipPath>
<clipPath id="clip7_607_1299">
<rect width="24" height="24" fill="white" transform="translate(132 108)"/>
</clipPath>
<clipPath id="clip8_607_1299">
<rect width="24" height="24" fill="white" transform="translate(408 552)"/>
</clipPath>
</defs>
</svg>
