<svg width="46" height="60" viewBox="0 0 46 60" fill="none" xmlns="http://www.w3.org/2000/svg">
<path d="M11.4169 57.6536H8.24868L6.89978 59.8526H5.0918L10.4477 51.4759H16.3137V52.8248H12.9075V54.8821H16.0984V56.231H12.9075V58.5037H16.4554V59.8526H11.4169V57.6536ZM11.4169 56.3784V52.8304H11.2412L9.03081 56.3784H11.4226H11.4169Z" fill="white"/>
<path d="M17.1299 55.3866V54.1794H18.3031V52.5358H19.72V54.1794H21.2786V55.3866H19.72V57.869C19.72 58.1524 19.771 58.3791 19.8787 58.5435C19.9864 58.7078 20.1961 58.7928 20.5135 58.7928C20.6382 58.7928 20.7798 58.7815 20.9272 58.7532C21.0746 58.7248 21.1936 58.6795 21.2843 58.6172V59.813C21.1369 59.881 20.9499 59.932 20.7345 59.9604C20.5191 59.9887 20.3264 60.0001 20.1621 60.0001C19.7823 60.0001 19.4763 59.9604 19.2326 59.8754C18.9945 59.7904 18.8018 59.6657 18.6658 59.4956C18.5298 59.3256 18.4334 59.1159 18.3824 58.8609C18.3314 58.6058 18.3031 58.3168 18.3031 57.988V55.3866H17.1299Z" fill="white"/>
<path d="M23.8234 54.9728H23.846C23.9594 54.7347 24.1521 54.5194 24.4298 54.3267C24.7075 54.134 25.0702 54.0376 25.5123 54.0376C25.892 54.0376 26.2094 54.1 26.4758 54.2247C26.7422 54.3493 26.9576 54.5194 27.1219 54.7234C27.2863 54.9275 27.4053 55.1655 27.479 55.4319C27.547 55.6983 27.5867 55.9816 27.5867 56.2707V59.8526H26.1698V56.9791C26.1698 56.8204 26.1641 56.6447 26.1471 56.452C26.1301 56.2593 26.0904 56.078 26.0224 55.908C25.9544 55.7379 25.8524 55.5962 25.7107 55.4829C25.569 55.3695 25.3763 55.3128 25.1326 55.3128C24.8889 55.3128 24.6962 55.3525 24.5375 55.4319C24.3731 55.5112 24.2428 55.6189 24.1351 55.7493C24.0274 55.8853 23.9537 56.0383 23.9027 56.2083C23.8574 56.384 23.829 56.5654 23.829 56.7524V59.8526H22.4121V50.9091H23.829V54.9671L23.8234 54.9728Z" fill="white"/>
<path d="M28.9121 57.0188C28.9121 56.5711 28.9915 56.163 29.1558 55.7946C29.3202 55.4262 29.5355 55.1145 29.8133 54.8538C30.091 54.5931 30.414 54.3947 30.7938 54.253C31.1735 54.1113 31.5759 54.0376 32.001 54.0376C32.426 54.0376 32.8285 54.1113 33.2082 54.253C33.5879 54.3947 33.9166 54.5987 34.1887 54.8538C34.4607 55.1088 34.6818 55.4262 34.8461 55.7946C35.0105 56.163 35.0898 56.5711 35.0898 57.0188C35.0898 57.4666 35.0105 57.8746 34.8461 58.243C34.6818 58.6114 34.4664 58.9232 34.1887 59.1839C33.911 59.4446 33.5879 59.6429 33.2082 59.7846C32.8285 59.9263 32.426 60 32.001 60C31.5759 60 31.1735 59.932 30.7938 59.7846C30.414 59.6429 30.0853 59.4389 29.8133 59.1839C29.5355 58.9232 29.3202 58.6114 29.1558 58.243C28.9915 57.8746 28.9121 57.4666 28.9121 57.0188ZM30.329 57.0188C30.329 57.2399 30.3687 57.4552 30.4424 57.6593C30.5161 57.8633 30.6294 58.0447 30.7711 58.2034C30.9185 58.3621 31.0942 58.4868 31.2982 58.5831C31.5022 58.6795 31.7346 58.7248 31.9953 58.7248C32.256 58.7248 32.4884 58.6795 32.6924 58.5831C32.8965 58.4868 33.0722 58.3621 33.2195 58.2034C33.3669 58.0447 33.4746 57.8633 33.5482 57.6593C33.6219 57.4552 33.6616 57.2399 33.6616 57.0188C33.6616 56.7978 33.6219 56.5881 33.5482 56.3784C33.4746 56.1743 33.3612 55.993 33.2195 55.8343C33.0778 55.6756 32.8965 55.5509 32.6924 55.4546C32.4884 55.3582 32.256 55.3129 31.9953 55.3129C31.7346 55.3129 31.5022 55.3582 31.2982 55.4546C31.0942 55.5509 30.9185 55.6756 30.7711 55.8343C30.6237 55.993 30.5161 56.1743 30.4424 56.3784C30.3687 56.5824 30.329 56.7978 30.329 57.0188Z" fill="white"/>
<path d="M39.437 55.7491C39.1593 55.3637 38.7909 55.171 38.3261 55.171C38.1391 55.171 37.9521 55.2164 37.7707 55.3127C37.5894 55.4091 37.4987 55.5621 37.4987 55.7718C37.4987 55.9475 37.5723 56.0722 37.7254 56.1515C37.8727 56.2309 38.0654 56.2989 38.2921 56.3499C38.5188 56.4066 38.7682 56.4633 39.0289 56.5199C39.2896 56.5766 39.539 56.6673 39.7657 56.792C39.9924 56.9167 40.1851 57.081 40.3325 57.2964C40.4799 57.5118 40.5592 57.8008 40.5592 58.1692C40.5592 58.5093 40.4855 58.7927 40.3382 59.025C40.1908 59.2574 40.0038 59.4444 39.7714 59.5861C39.539 59.7278 39.2783 59.8298 38.9836 59.8922C38.6945 59.9545 38.3998 59.9885 38.1108 59.9885C37.6687 59.9885 37.2606 59.9262 36.8922 59.8015C36.5238 59.6768 36.1894 59.4444 35.9004 59.1157L36.8469 58.2259C37.0283 58.4299 37.221 58.6 37.4307 58.7303C37.6404 58.8607 37.8954 58.923 38.1958 58.923C38.2978 58.923 38.4055 58.9117 38.5132 58.889C38.6209 58.8663 38.7285 58.8267 38.8192 58.77C38.9156 58.7133 38.9893 58.6453 39.0516 58.5603C39.1083 58.4753 39.1423 58.3789 39.1423 58.2712C39.1423 58.0729 39.0686 57.9255 38.9156 57.8348C38.7626 57.7441 38.5755 57.6648 38.3488 57.6024C38.1221 57.5401 37.8727 57.4891 37.612 57.4381C37.3456 57.3871 37.1019 57.3021 36.8752 57.1887C36.6485 57.0754 36.4558 56.9167 36.3085 56.7126C36.1611 56.5086 36.0818 56.2252 36.0818 55.8625C36.0818 55.5451 36.1498 55.273 36.2745 55.0407C36.3991 54.8083 36.5748 54.6156 36.7902 54.4682C37.0056 54.3209 37.2493 54.2075 37.5213 54.1395C37.7934 54.0715 38.0768 54.0318 38.3602 54.0318C38.7399 54.0318 39.1139 54.0998 39.4823 54.2245C39.8507 54.3549 40.1511 54.5759 40.3835 54.8933L39.437 55.7435V55.7491Z" fill="white"/>
<g clip-path="url(#clip0_157_29)">
<path d="M12.5831 35.8379L6.68848 45.4545H27.4675V35.8379H12.5831Z" fill="#8E47AD"/>
<path d="M45.4543 13.1783H34.4629V22.8412H45.4543V13.1783Z" fill="#8E47AD"/>
<path d="M45.4543 29.174H34.4629V39.8378H45.4543V29.174Z" fill="#3A7FD0"/>
<path d="M45.4545 6.84903V2.8706C45.4545 1.28564 44.1688 0.00342535 42.5874 0.00342535H2.86718C1.28578 -0.000136359 0 1.28564 0 2.86704V42.5872C0 42.6086 0 42.63 0 42.6513L22.9125 6.84903H45.4545Z" fill="#FFAD31"/>
<path d="M16.248 29.84H27.4674V13.1783H26.634L16.248 29.84Z" fill="#51B29C"/>
</g>
<defs>
<clipPath id="clip0_157_29">
<rect width="45.4545" height="45.4545" fill="white"/>
</clipPath>
</defs>
</svg>
