<svg width="61" height="80" viewBox="0 0 61 80" fill="none" xmlns="http://www.w3.org/2000/svg">
<path d="M15.4257 76.9273H11.2768L9.51041 79.807H7.14282L14.1565 68.8374H21.8382V70.6038H17.3777V73.298H21.5562V75.0644H17.3777V78.0406H22.0238V79.807H15.4257V76.9273ZM15.4257 75.2574V70.6113H15.1956L12.3011 75.2574H15.4331H15.4257Z" fill="white"/>
<path d="M22.9072 73.9586V72.3778H24.4436V70.2254H26.299V72.3778H28.3401V73.9586H26.299V77.2094C26.299 77.5805 26.3658 77.8774 26.5069 78.0927C26.6479 78.3079 26.9225 78.4192 27.3381 78.4192C27.5014 78.4192 27.6869 78.4044 27.8799 78.3673C28.0729 78.3302 28.2287 78.2708 28.3475 78.1891V79.7552C28.1545 79.8442 27.9096 79.911 27.6276 79.9481C27.3455 79.9852 27.0932 80.0001 26.878 80.0001C26.3807 80.0001 25.9799 79.9481 25.6608 79.8368C25.349 79.7255 25.0967 79.5622 24.9186 79.3395C24.7404 79.1169 24.6143 78.8423 24.5475 78.5083C24.4807 78.1743 24.4436 77.7958 24.4436 77.3653V73.9586H22.9072Z" fill="white"/>
<path d="M31.6723 73.4168H31.702C31.8504 73.105 32.1027 72.823 32.4664 72.5707C32.8301 72.3183 33.3051 72.1921 33.884 72.1921C34.3813 72.1921 34.7969 72.2738 35.1457 72.4371C35.4946 72.6003 35.7766 72.823 35.9918 73.0902C36.2071 73.3574 36.3629 73.6691 36.4594 74.0179C36.5485 74.3668 36.6004 74.7379 36.6004 75.1164V79.807H34.745V76.0441C34.745 75.8363 34.7375 75.6062 34.7153 75.3539C34.693 75.1015 34.641 74.864 34.552 74.6414C34.4629 74.4187 34.3293 74.2332 34.1438 74.0847C33.9582 73.9363 33.7059 73.8621 33.3867 73.8621C33.0676 73.8621 32.8153 73.914 32.6074 74.0179C32.3922 74.1218 32.2215 74.2629 32.0805 74.4336C31.9395 74.6117 31.843 74.8121 31.7762 75.0347C31.7168 75.2648 31.6797 75.5023 31.6797 75.7472V79.807H29.8242V68.0952H31.6797V73.4093L31.6723 73.4168Z" fill="white"/>
<path d="M38.3369 76.0961C38.3369 75.5098 38.4408 74.9754 38.6561 74.493C38.8713 74.0105 39.1533 73.6023 39.517 73.2609C39.8807 72.9195 40.3037 72.6597 40.801 72.4742C41.2983 72.2886 41.8252 72.1922 42.3819 72.1922C42.9385 72.1922 43.4655 72.2886 43.9627 72.4742C44.46 72.6597 44.8905 72.9269 45.2467 73.2609C45.603 73.5949 45.8924 74.0105 46.1077 74.493C46.3229 74.9754 46.4268 75.5098 46.4268 76.0961C46.4268 76.6824 46.3229 77.2168 46.1077 77.6992C45.8924 78.1816 45.6104 78.5899 45.2467 78.9313C44.883 79.2727 44.46 79.5324 43.9627 79.718C43.4655 79.9035 42.9385 80 42.3819 80C41.8252 80 41.2983 79.911 40.801 79.718C40.3037 79.5324 39.8732 79.2652 39.517 78.9313C39.1533 78.5899 38.8713 78.1816 38.6561 77.6992C38.4408 77.2168 38.3369 76.6824 38.3369 76.0961ZM40.1924 76.0961C40.1924 76.3855 40.2443 76.6676 40.3408 76.9348C40.4373 77.202 40.5858 77.4395 40.7713 77.6473C40.9643 77.8551 41.1944 78.0184 41.4615 78.1445C41.7287 78.2707 42.033 78.3301 42.3744 78.3301C42.7158 78.3301 43.0201 78.2707 43.2873 78.1445C43.5545 78.0184 43.7846 77.8551 43.9776 77.6473C44.1705 77.4395 44.3116 77.202 44.408 76.9348C44.5045 76.6676 44.5565 76.3855 44.5565 76.0961C44.5565 75.8066 44.5045 75.532 44.408 75.2574C44.3116 74.9902 44.1631 74.7527 43.9776 74.5449C43.792 74.3371 43.5545 74.1738 43.2873 74.0476C43.0201 73.9215 42.7158 73.8621 42.3744 73.8621C42.033 73.8621 41.7287 73.9215 41.4615 74.0476C41.1944 74.1738 40.9643 74.3371 40.7713 74.5449C40.5783 74.7527 40.4373 74.9902 40.3408 75.2574C40.2443 75.5246 40.1924 75.8066 40.1924 76.0961Z" fill="white"/>
<path d="M52.1196 74.4334C51.7559 73.9287 51.2735 73.6763 50.6649 73.6763C50.4199 73.6763 50.175 73.7357 49.9375 73.8619C49.7 73.9881 49.5813 74.1885 49.5813 74.4631C49.5813 74.6931 49.6777 74.8564 49.8781 74.9603C50.0711 75.0642 50.3235 75.1533 50.6203 75.2201C50.9172 75.2943 51.2438 75.3685 51.5852 75.4428C51.9266 75.517 52.2532 75.6357 52.55 75.799C52.8469 75.9623 53.0993 76.1775 53.2922 76.4596C53.4852 76.7416 53.5891 77.1201 53.5891 77.6025C53.5891 78.0479 53.4926 78.419 53.2996 78.7233C53.1067 79.0275 52.8618 79.2725 52.5575 79.458C52.2532 79.6436 51.9117 79.7772 51.5258 79.8588C51.1473 79.9404 50.7613 79.985 50.3828 79.985C49.8039 79.985 49.2695 79.9033 48.7871 79.7401C48.3047 79.5768 47.8668 79.2725 47.4883 78.842L48.7277 77.6768C48.9652 77.9439 49.2176 78.1666 49.4922 78.3373C49.7668 78.508 50.1008 78.5897 50.4942 78.5897C50.6278 78.5897 50.7688 78.5748 50.9098 78.5451C51.0508 78.5154 51.1918 78.4635 51.3106 78.3893C51.4367 78.315 51.5332 78.226 51.6149 78.1147C51.6891 78.0033 51.7336 77.8772 51.7336 77.7361C51.7336 77.4764 51.6371 77.2834 51.4367 77.1646C51.2364 77.0459 50.9914 76.942 50.6946 76.8603C50.3977 76.7787 50.0711 76.7119 49.7297 76.6451C49.3809 76.5783 49.0617 76.467 48.7649 76.3185C48.468 76.1701 48.2156 75.9623 48.0227 75.6951C47.8297 75.4279 47.7258 75.0568 47.7258 74.5818C47.7258 74.1662 47.8148 73.8099 47.9781 73.5056C48.1414 73.2013 48.3715 72.949 48.6535 72.756C48.9356 72.5631 49.2547 72.4146 49.611 72.3256C49.9672 72.2365 50.3383 72.1845 50.7094 72.1845C51.2067 72.1845 51.6965 72.2736 52.1789 72.4369C52.6614 72.6076 53.0547 72.897 53.359 73.3127L52.1196 74.426V74.4334Z" fill="white"/>
<g clip-path="url(#clip0_36_36)">
<path d="M16.8238 47.9143L8.94287 60.7714H36.7238V47.9143H16.8238Z" fill="#FCAD00"/>
<path d="M60.7714 17.619H46.0762V30.5381H60.7714V17.619Z" fill="#AA43CE"/>
<path d="M60.7714 39.0048H46.0762V53.2619H60.7714V39.0048Z" fill="#51B29C"/>
<path d="M60.7714 9.15724V3.8382C60.7714 1.71915 59.0524 0.00486216 56.9381 0.00486216H3.83333C1.71905 0.00010026 0 1.71915 0 3.83343V56.9382C0 56.9668 0 56.9953 0 57.0239L30.6333 9.15724H60.7714Z" fill="#51B29C"/>
<path d="M21.7239 39.8952H36.7239V17.619H35.6096L21.7239 39.8952Z" fill="#3A7FD0"/>
</g>
<defs>
<clipPath id="clip0_36_36">
<rect width="60.7714" height="60.7714" fill="white"/>
</clipPath>
</defs>
</svg>
