<svg width="86" height="86" viewBox="0 0 86 86" fill="none" xmlns="http://www.w3.org/2000/svg">
<path fill-rule="evenodd" clip-rule="evenodd" d="M23.1813 21.6124C29.0813 21.6124 33.858 16.8901 33.858 11.0568C33.858 5.22424 29.0813 0.501953 23.1813 0.501953C17.2804 0.501953 12.5033 5.22388 12.5033 11.0568C12.3624 16.8901 17.2804 21.6124 23.1813 21.6124ZM23.1813 3.97424C27.1147 3.97424 30.3453 7.16833 30.3453 11.0568C30.3453 14.9465 27.1143 18.1406 23.1813 18.1406C19.2469 18.1406 16.0164 14.9465 16.0164 11.0568C16.0164 7.16833 19.2469 3.97424 23.1813 3.97424ZM53.5266 23.4178C53.5266 26.8895 51.8404 29.9456 49.3128 31.889C55.0728 34.2502 59.0058 39.9449 59.1466 46.3326V60.4991C59.1466 61.4712 58.3033 62.3046 57.3196 62.3046H51.9813V83.6926C51.9813 84.6637 51.138 85.498 50.1543 85.498C49.171 85.498 48.3286 84.6632 48.3286 83.6926V55.3601C48.3286 54.3877 49.171 53.5548 50.1543 53.5548C51.138 53.5548 51.9813 54.3877 51.9813 55.3601V58.8324H55.4931V46.3326C55.4931 39.5273 49.8735 33.972 42.9894 33.972C36.1048 33.972 30.4857 39.5273 30.4857 46.3326V58.8324H33.9988V55.222C33.9988 54.2495 34.8408 53.4153 35.824 53.4153C36.8073 53.4153 37.651 54.2495 37.651 55.222V83.693C37.651 84.6642 36.8073 85.4984 35.824 85.4984C34.8408 85.4984 33.9988 84.6637 33.9988 83.693V62.4427H28.6591C27.6759 62.4427 26.8335 61.6097 26.8335 60.6377V46.4713C26.8335 39.9449 30.7665 34.3901 36.387 31.889C33.8575 29.9456 32.1718 26.8895 32.1718 23.4178C32.1718 17.584 36.9491 12.863 42.8499 12.863C48.7503 12.863 53.5266 17.5845 53.5266 23.4178ZM42.8499 16.3352C38.9155 16.3352 35.6845 19.5289 35.6845 23.4178C35.6845 27.3063 38.9155 30.4999 42.8499 30.4999C46.7829 30.4999 50.0148 27.3063 50.0148 23.4178C50.0148 19.5293 46.7833 16.3352 42.8499 16.3352ZM41.0229 69.3871C41.0229 68.416 41.8667 67.5817 42.8499 67.5817C43.8331 67.5817 44.6751 68.4155 44.6751 69.3871V83.5531C44.6751 84.5255 43.8331 85.3585 42.8499 85.3585C41.8667 85.3585 41.0229 84.5255 41.0229 83.5531V69.3871ZM73.1952 11.0568C73.1952 16.8901 68.4198 21.6124 62.5189 21.6124C56.6181 21.6124 51.8404 16.8901 51.8409 11.0568C51.8409 5.22388 56.6176 0.501953 62.5189 0.501953C68.4202 0.501953 73.1952 5.22424 73.1952 11.0568ZM69.6843 11.0568C69.6843 7.16833 66.452 3.97424 62.5189 3.97424C58.5846 3.97424 55.3536 7.16833 55.3536 11.0568C55.3536 14.9465 58.5846 18.1406 62.5189 18.1406C66.452 18.1406 69.6843 14.9465 69.6843 11.0568ZM20.511 57.0273C19.5277 57.0273 18.6858 57.8604 18.6858 58.8328V83.5536C18.6858 84.526 19.5277 85.359 20.511 85.359C21.4956 85.359 22.338 84.526 22.338 83.5536V58.8328C22.1967 57.8599 21.4956 57.0273 20.511 57.0273ZM12.3624 71.1943C12.3624 70.2214 13.2061 69.3871 14.1894 69.3871C15.1726 69.3871 16.0164 70.2209 16.0164 71.1943V83.5536C16.0164 84.526 15.1726 85.359 14.1894 85.359C13.2061 85.359 12.3624 84.526 12.3624 83.5536V71.1943ZM14.1894 21.3344C8.85104 21.3344 4.63589 25.639 4.63589 30.9175C4.63589 33.833 6.0408 36.4728 8.14859 38.2777C3.37184 40.4994 0 45.4998 0 51.0551V63.4147C0 64.3872 0.842392 65.2201 1.82564 65.2201H6.32205V83.5526C6.32205 84.5251 7.1658 85.358 8.14905 85.358C9.13229 85.358 9.97424 84.5251 9.97424 83.5526V58.8319C9.97424 57.8595 9.13229 57.0265 8.14905 57.0265C7.1658 57.0265 6.32205 57.8595 6.32205 58.8319V61.6093H3.65265V51.0551C3.65265 45.2217 8.4294 40.4994 14.3307 40.4994C19.6691 40.4994 24.0241 36.1947 24.0241 31.0557C23.8824 25.6394 19.5277 21.3344 14.1894 21.3344ZM14.1894 36.8894C10.8176 36.8894 8.14859 34.2502 8.14859 30.918C8.14859 27.5844 10.8176 24.9447 14.1894 24.9447C17.5608 24.9447 20.2302 27.5844 20.2302 30.918C20.2302 34.2502 17.5608 36.8894 14.1894 36.8894ZM81.063 30.918C81.063 33.8335 79.6581 36.4731 77.5516 38.2782C82.4679 40.4998 85.8397 45.3607 85.8397 51.0559V63.4156C85.8397 64.3881 84.9978 65.2209 84.0141 65.2209H79.5181V83.5536C79.5181 84.526 78.6744 85.359 77.6911 85.359C76.7074 85.359 75.8655 84.526 75.8655 83.5536V58.8328C75.8655 57.8604 76.7074 57.0273 77.6911 57.0273C78.6744 57.0273 79.5181 57.8604 79.5181 58.8328V61.6102H82.1875V50.9159C82.1875 45.0826 77.4108 40.3617 71.5095 40.3617C66.3129 40.3617 61.956 36.1951 61.956 30.918C61.956 25.7789 66.1716 21.4724 71.5095 21.4724C76.7079 21.4724 81.063 25.6394 81.063 30.918ZM71.509 24.9447C68.1381 24.9447 65.4682 27.5844 65.4682 30.918C65.4682 34.2502 68.1381 36.8894 71.509 36.8894C74.8809 36.8894 77.5516 34.2502 77.5516 30.918C77.5516 27.5844 74.8809 24.9447 71.509 24.9447ZM65.1874 57.0273C64.2042 57.0273 63.3604 57.8604 63.3604 58.8328V83.5536C63.3604 84.526 64.2042 85.359 65.1874 85.359C66.1711 85.359 67.0144 84.526 67.0144 83.5536V58.8328C67.0144 57.8599 66.1711 57.0273 65.1874 57.0273ZM69.6838 71.1943C69.6838 70.2214 70.5258 69.3871 71.509 69.3871C72.4941 69.3871 73.336 70.2209 73.336 71.1943V83.5536C73.336 84.526 72.4936 85.359 71.509 85.359C70.5258 85.359 69.6838 84.526 69.6838 83.5536V71.1943Z" fill="url(#paint0_linear_69_52)"/>
<defs>
<linearGradient id="paint0_linear_69_52" x1="42.9199" y1="0.501953" x2="42.9199" y2="85.4984" gradientUnits="userSpaceOnUse">
<stop stop-color="white"/>
<stop offset="1" stop-opacity="0"/>
</linearGradient>
</defs>
</svg>
