<svg width="24" height="24" viewBox="0 0 24 24" fill="none" xmlns="http://www.w3.org/2000/svg">
<g opacity="0.5">
<path d="M19.95 5.53579L16.465 2.05079C15.143 0.728794 13.385 0.000793791 11.515 0.000793791H7C4.243 -0.000206209 2 2.24279 2 4.99979V18.9998C2 21.7568 4.243 23.9998 7 23.9998H17C19.757 23.9998 22 21.7568 22 18.9998V10.4848C22 8.61479 21.272 6.85879 19.95 5.53579ZM18.536 6.94979C18.854 7.26779 19.123 7.62079 19.341 7.99979H15C14.449 7.99979 14 7.55079 14 6.99979V2.65879C14.379 2.87679 14.733 3.14579 15.05 3.46379L18.535 6.94879L18.536 6.94979ZM20 18.9998C20 20.6538 18.654 21.9998 17 21.9998H7C5.346 21.9998 4 20.6538 4 18.9998V4.99979C4 3.34579 5.346 1.99979 7 1.99979H11.515C11.678 1.99979 11.84 2.00779 12 2.02279V6.99979C12 8.65379 13.346 9.99979 15 9.99979H19.977C19.992 10.1598 20 10.3218 20 10.4848V18.9998ZM15.707 14.4808C16.098 14.8718 16.098 15.5038 15.707 15.8948C15.512 16.0898 15.256 16.1878 15 16.1878C14.744 16.1878 14.488 16.0898 14.293 15.8948L13 14.6018V18.9998C13 19.5518 12.552 19.9998 12 19.9998C11.448 19.9998 11 19.5518 11 18.9998V14.6018L9.707 15.8948C9.316 16.2858 8.684 16.2858 8.293 15.8948C7.902 15.5038 7.902 14.8718 8.293 14.4808L9.907 12.8668C11.061 11.7128 12.939 11.7128 14.094 12.8668L15.708 14.4808H15.707Z" fill="white"/>
</g>
</svg>
